<svg id="Layer_1" data-name="Layer 1" xmlns="http://www.w3.org/2000/svg" viewBox="0 0 1000 1000"><defs><style>.cls-1{fill:#ccc;}.cls-2{fill:#e6e6e6;}.cls-3,.cls-4,.cls-5{fill:none;}.cls-4,.cls-5{stroke:#000;stroke-miterlimit:10;}.cls-4{stroke-width:0.75px;}</style></defs><title>Artboard 1 copy 3WHITE</title><path class="cls-1" d="M120.74,794.79a64,64,0,0,1-2.88,19.26,39,39,0,0,1-9.12,15.66,31.07,31.07,0,0,1-12.3,7.92,52.39,52.39,0,0,1-17.34,2.52,52.39,52.39,0,0,1-17.34-2.52,31,31,0,0,1-12.06-7.56A38.25,38.25,0,0,1,41.3,816a56.72,56.72,0,0,1-3.12-19.26A60.45,60.45,0,0,1,41.3,777a41.53,41.53,0,0,1,8.88-15.24,30.22,30.22,0,0,1,12.06-7.92,51.31,51.31,0,0,1,17.22-2.52,55.47,55.47,0,0,1,17,2.34,31.19,31.19,0,0,1,12.66,7.74A35.71,35.71,0,0,1,118,776.49,62.21,62.21,0,0,1,120.74,794.79Zm-65.16-.36A70.87,70.87,0,0,0,57.32,811a37.34,37.34,0,0,0,4.74,11.76,19.31,19.31,0,0,0,7.14,6.72,22.2,22.2,0,0,0,10.62,2.28q11.28,0,17-7.92a30.49,30.49,0,0,0,4.8-11,69,69,0,0,0,1.68-16.38A68.45,68.45,0,0,0,101.6,780a35.77,35.77,0,0,0-4.86-11.52,19.35,19.35,0,0,0-7.62-6.72A23.14,23.14,0,0,0,79,759.63a21.28,21.28,0,0,0-9.84,2.1,19.67,19.67,0,0,0-6.84,5.82Q55.58,776.45,55.58,794.43Z"/><path class="cls-1" d="M164.3,853.83v6.72H128.18v-6.72l9.24-2.28v-68.4l-9.24-2.28v-6.72h20.88l1.8,9.24c2.56-4,5.46-6.73,8.7-8.22a26.14,26.14,0,0,1,11-2.22,32.47,32.47,0,0,1,11.1,1.8,17.75,17.75,0,0,1,8.1,5.76,35.42,35.42,0,0,1,5.7,10.92,46.49,46.49,0,0,1-.24,28.38,34,34,0,0,1-6.3,11.34q-6.72,7.82-19.32,7.8a21.85,21.85,0,0,1-9.3-1.92,19.6,19.6,0,0,1-7.62-7v21.48Zm-11.76-48.48a52.47,52.47,0,0,0,1.08,11.4,26.36,26.36,0,0,0,2.88,7.8,13.47,13.47,0,0,0,4.56,4.68,12.36,12.36,0,0,0,6.6,1.68,10.73,10.73,0,0,0,6.06-1.56,11.86,11.86,0,0,0,3.78-4.08,27.12,27.12,0,0,0,2.82-8,52.55,52.55,0,0,0,1-10.68,57,57,0,0,0-1.08-11.4,30.18,30.18,0,0,0-2.88-8.52,10,10,0,0,0-4.44-4.32,14.51,14.51,0,0,0-6-1.2c-4.72,0-8.24,1.85-10.56,5.52a25.6,25.6,0,0,0-2.76,7.44A50.93,50.93,0,0,0,152.54,805.35Z"/><path class="cls-1" d="M222.38,808.23a33.43,33.43,0,0,0,2.4,13.56q3.84,8.54,13.2,8.52A25.32,25.32,0,0,0,248.54,828a22.88,22.88,0,0,0,8.88-7.26l6.48,5A35.58,35.58,0,0,1,252.56,836q-7.14,4.2-17.58,4.2a30.54,30.54,0,0,1-15.18-3.54,23.39,23.39,0,0,1-9.66-10.38A32.46,32.46,0,0,1,207.5,818a54.08,54.08,0,0,1-.84-9.9q0-16.79,7.68-26t22-9.18a33.27,33.27,0,0,1,11.76,2,23.84,23.84,0,0,1,14.58,14.64,34.51,34.51,0,0,1,2,12.06c0,.89,0,1.74-.06,2.58s-.14,2.18-.3,4Zm13.68-27q-12.36,0-13.56,19.32h26.4v-3.12c0-5.2-1.12-9.19-3.36-12S240.14,781.23,236.06,781.23Z"/><path class="cls-1" d="M281.78,783.15l-9.24-2.28v-6.72h20.88l2.64,12h.48a26.63,26.63,0,0,1,9.66-9.66A25.7,25.7,0,0,1,319.34,773a21.34,21.34,0,0,1,8.64,1.68,14.69,14.69,0,0,1,6.12,4.8,22.73,22.73,0,0,1,3.42,9.42,103.44,103.44,0,0,1,1,16.38V830l9.24,2.28V839H315.26v-6.72l8-2.28V806.79q0-7.2-.42-11.22a21.37,21.37,0,0,0-1.5-6.42,8.28,8.28,0,0,0-3.6-4.32,11.57,11.57,0,0,0-5.4-1.2,14,14,0,0,0-10,3.84q-4.92,4.57-5.4,14V830l8,2.28V839H272.54v-6.72l9.24-2.28Z"/><path class="cls-1" d="M445.94,793.11a40.21,40.21,0,0,1-4.86,3.24,25,25,0,0,1-6.9,2.52c.4.41,1,1.1,1.86,2.1a36.73,36.73,0,0,1,2.58,3.54l14.88,25.2L464.18,832v7H435.86v-7l-15.72-30.84H408.62v28.32L420,832v7H382.94v-7L393,829.47V762l-10.08-2.52v-7h44.88a41.85,41.85,0,0,1,10.08,1.08,23.76,23.76,0,0,1,7.8,3.48,22.44,22.44,0,0,1,6.84,8A21,21,0,0,1,452.6,785,23.47,23.47,0,0,1,445.94,793.11Zm-23.76-.72a16.14,16.14,0,0,0,10.92-3.72,13.76,13.76,0,0,0,3.78-5.46,19.54,19.54,0,0,0,1.38-7.38,14.29,14.29,0,0,0-1.44-6.48,15.45,15.45,0,0,0-3.84-4.92q-4-3.12-11.28-3.12H408.62v31.08Z"/><path class="cls-1" d="M483.26,808.23a33.43,33.43,0,0,0,2.4,13.56q3.84,8.54,13.2,8.52A25.32,25.32,0,0,0,509.42,828a22.88,22.88,0,0,0,8.88-7.26l6.48,5A35.58,35.58,0,0,1,513.44,836q-7.14,4.2-17.58,4.2a30.54,30.54,0,0,1-15.18-3.54A23.39,23.39,0,0,1,471,826.23a32.46,32.46,0,0,1-2.64-8.22,54.08,54.08,0,0,1-.84-9.9q0-16.79,7.68-26t22-9.18a33.27,33.27,0,0,1,11.76,2,23.84,23.84,0,0,1,14.58,14.64,34.51,34.51,0,0,1,2,12.06c0,.89,0,1.74-.06,2.58s-.14,2.18-.3,4Zm13.68-27q-12.36,0-13.56,19.32h26.4v-3.12c0-5.2-1.12-9.19-3.36-12S501,781.23,496.94,781.23Z"/><path class="cls-1" d="M542.66,783.15l-9.24-2.28v-6.72H554.3l2.64,12h.48a26.3,26.3,0,0,1,9.3-9.66A23.59,23.59,0,0,1,579.14,773a19.89,19.89,0,0,1,8.82,1.86,13.68,13.68,0,0,1,5.58,4.62,26.45,26.45,0,0,1,3.12,7.92,28.67,28.67,0,0,1,10-10.62A24.46,24.46,0,0,1,619.7,773a19.7,19.7,0,0,1,8.64,1.86,14,14,0,0,1,5.88,5.1A16.22,16.22,0,0,1,636,784a40.11,40.11,0,0,1,1.2,5.94c.32,2.36.54,5.15.66,8.34s.18,7,.18,11.28V830l9.24,2.28V839H614.78v-6.72l8-2.28V806.79q0-3.84-.12-6.66t-.36-4.92a28.33,28.33,0,0,0-.6-3.54,15.47,15.47,0,0,0-.84-2.52,8,8,0,0,0-3.18-4,8.28,8.28,0,0,0-4.14-1.14,16.94,16.94,0,0,0-5.52.84,14,14,0,0,0-4.68,2.88,15,15,0,0,0-3.9,5.58,26.08,26.08,0,0,0-1.5,8.22V830l8,2.28V839H574.7v-6.72l8-2.28V806.79q0-3.84-.12-6.66t-.36-4.92a28.33,28.33,0,0,0-.6-3.54,15.47,15.47,0,0,0-.84-2.52,8,8,0,0,0-3.18-4A8.28,8.28,0,0,0,573.5,784a16.94,16.94,0,0,0-5.52.84,14,14,0,0,0-4.68,2.88,15,15,0,0,0-3.9,5.58,26.08,26.08,0,0,0-1.5,8.22V830l8,2.28V839H533.42v-6.72l9.24-2.28Z"/><path class="cls-1" d="M652.82,780.87v-6.72H677.3V830l9.24,2.28V839H652.82v-6.72l9.24-2.28v-46.8Zm7.92-25a8.58,8.58,0,0,1,2.34-6.24,8.75,8.75,0,0,1,6.54-2.4,9,9,0,0,1,6.6,2.4,8.46,8.46,0,0,1,2.4,6.24,8.34,8.34,0,0,1-2.34,6.18,9,9,0,0,1-6.66,2.34q-4.32,0-6.6-2.34A8.46,8.46,0,0,1,660.74,755.91Z"/><path class="cls-1" d="M701.78,783.15l-9.24-2.28v-6.72h20.88l2.64,12h.48a26.63,26.63,0,0,1,9.66-9.66A25.7,25.7,0,0,1,739.34,773a21.34,21.34,0,0,1,8.64,1.68,14.69,14.69,0,0,1,6.12,4.8,22.73,22.73,0,0,1,3.42,9.42,103.44,103.44,0,0,1,1,16.38V830l9.24,2.28V839H735.26v-6.72l8-2.28V806.79q0-7.2-.42-11.22a21.37,21.37,0,0,0-1.5-6.42,8.28,8.28,0,0,0-3.6-4.32,11.57,11.57,0,0,0-5.4-1.2,14,14,0,0,0-10,3.84q-4.92,4.57-5.4,14V830l8,2.28V839H692.54v-6.72l9.24-2.28Z"/><path class="cls-1" d="M774.26,806.67a49.4,49.4,0,0,1,2.16-14.82,29.13,29.13,0,0,1,6-11.1q7.08-7.8,19.08-7.8a23.07,23.07,0,0,1,10,2,19.81,19.81,0,0,1,7.8,7.32v-28L810,752.07v-6.72H834.5V830l9.24,2.28V839l-22.2,1.2-1-9.84q-3.72,5.66-8.4,7.74a26.46,26.46,0,0,1-10.92,2.1,27.56,27.56,0,0,1-11.1-2,21.28,21.28,0,0,1-7.62-5.58,31.46,31.46,0,0,1-6-10.92A46.49,46.49,0,0,1,774.26,806.67Zm45,.36a53.31,53.31,0,0,0-1.2-12.06,27.89,27.89,0,0,0-2.88-7.86,12.16,12.16,0,0,0-11-6,16,16,0,0,0-5.88,1.2,9.08,9.08,0,0,0-4.68,4.32,24.93,24.93,0,0,0-2.34,7.86,72.09,72.09,0,0,0-.78,11.1,67,67,0,0,0,1,12.12,29.28,29.28,0,0,0,2.4,7.92,11.94,11.94,0,0,0,4.56,4.8,12.3,12.3,0,0,0,6.36,1.68,14,14,0,0,0,5.64-1.26,10.85,10.85,0,0,0,4.8-4.26,26,26,0,0,0,3-8.16A54.58,54.58,0,0,0,819.26,807Z"/><path class="cls-1" d="M866.3,808.23a33.43,33.43,0,0,0,2.4,13.56q3.84,8.54,13.2,8.52A25.32,25.32,0,0,0,892.46,828a22.88,22.88,0,0,0,8.88-7.26l6.48,5A35.58,35.58,0,0,1,896.48,836q-7.14,4.2-17.58,4.2a30.54,30.54,0,0,1-15.18-3.54,23.34,23.34,0,0,1-9.66-10.38,32.46,32.46,0,0,1-2.64-8.22,54.08,54.08,0,0,1-.84-9.9q0-16.79,7.68-26t22-9.18a33.27,33.27,0,0,1,11.76,2,23.84,23.84,0,0,1,14.58,14.64,34.51,34.51,0,0,1,2,12.06c0,.89,0,1.74-.06,2.58s-.14,2.18-.3,4Zm13.68-27q-12.36,0-13.56,19.32h26.4v-3.12c0-5.2-1.12-9.19-3.36-12S884.06,781.23,880,781.23Z"/><path class="cls-1" d="M952.34,782.91a3.72,3.72,0,0,0-2.28,1,15.3,15.3,0,0,0-2.34,2.4,22.61,22.61,0,0,0-2,3.06,26.29,26.29,0,0,0-1.38,2.82q-1.44,4.22-2.52,8.46a43.57,43.57,0,0,0-1.08,10.5V830l13,2.28V839H916.22v-6.72l9.24-2.28v-48.6l-9.24-2.28v-4.92H937.1L939.74,790h.48q2.76-8.28,7.38-12.66A14.74,14.74,0,0,1,958,773a10.93,10.93,0,0,1,7.8,2.94,10.3,10.3,0,0,1,3.12,7.86,10.79,10.79,0,0,1-2.16,6.54,7.15,7.15,0,0,1-6.12,2.94c-3.29,0-5.58-.73-6.9-2.22a7.12,7.12,0,0,1-2-4.86,6.61,6.61,0,0,1,.12-1.38Q952,784.23,952.34,782.91Z"/><path class="cls-1" d="M273.39,912.48h-4V878.21h19.1v3.54H273.39v12.54H287.6v3.54H273.39Z"/><path class="cls-1" d="M305.32,886.32a15.82,15.82,0,0,1,3.07.28l-.54,3.61a13.51,13.51,0,0,0-2.81-.35,6.89,6.89,0,0,0-5.34,2.53,9.27,9.27,0,0,0-2.21,6.31v13.78H293.6V886.79h3.21l.44,4.76h.19a11.27,11.27,0,0,1,3.45-3.87A7.79,7.79,0,0,1,305.32,886.32Z"/><path class="cls-1" d="M324,913a11.83,11.83,0,0,1-9-3.47q-3.29-3.47-3.29-9.63t3.06-9.87a10.16,10.16,0,0,1,8.22-3.66,9.7,9.7,0,0,1,7.64,3.18,12.2,12.2,0,0,1,2.81,8.38v2.46h-17.7q.12,4.51,2.29,6.87a7.9,7.9,0,0,0,6.1,2.34,20.83,20.83,0,0,0,8.21-1.73v3.46a20.42,20.42,0,0,1-3.91,1.28A21.65,21.65,0,0,1,324,913ZM323,889.58a6.36,6.36,0,0,0-4.94,2,9.31,9.31,0,0,0-2.16,5.57h13.43a8.55,8.55,0,0,0-1.64-5.63A5.78,5.78,0,0,0,323,889.58Z"/><path class="cls-1" d="M351,913a11.83,11.83,0,0,1-9-3.47q-3.28-3.47-3.29-9.63t3.06-9.87a10.16,10.16,0,0,1,8.21-3.66,9.71,9.71,0,0,1,7.65,3.18,12.2,12.2,0,0,1,2.81,8.38v2.46h-17.7q.12,4.51,2.29,6.87a7.9,7.9,0,0,0,6.1,2.34,20.83,20.83,0,0,0,8.21-1.73v3.46a20.42,20.42,0,0,1-3.91,1.28A21.65,21.65,0,0,1,351,913Zm-1.05-23.37a6.36,6.36,0,0,0-4.94,2,9.31,9.31,0,0,0-2.16,5.57h13.43a8.55,8.55,0,0,0-1.64-5.63A5.78,5.78,0,0,0,349.92,889.58Z"/><path class="cls-1" d="M401.64,912.48l-4.26-10.9H383.64l-4.21,10.9h-4l13.55-34.41h3.35l13.48,34.41ZM396.14,898l-4-10.62c-.51-1.35-1-3-1.59-5a46.27,46.27,0,0,1-1.48,5l-4,10.62Z"/><path class="cls-1" d="M421.85,913a11.06,11.06,0,0,1-4.58-.93,8.4,8.4,0,0,1-3.48-2.85h-.29a34.17,34.17,0,0,1,.29,4.27V924h-3.9V886.79h3.17l.54,3.52h.19a9,9,0,0,1,3.49-3,10.69,10.69,0,0,1,4.57-.94,9.49,9.49,0,0,1,7.88,3.5q2.79,3.48,2.78,9.79t-2.82,9.83A9.52,9.52,0,0,1,421.85,913Zm-.56-23.32c-2.63,0-4.53.72-5.7,2.18s-1.77,3.76-1.8,6.94v.86q0,5.42,1.8,7.75t5.79,2.33a6,6,0,0,0,5.21-2.69,12.79,12.79,0,0,0,1.89-7.43c0-3.21-.63-5.66-1.89-7.38A6.18,6.18,0,0,0,421.29,889.63Z"/><path class="cls-1" d="M451.26,913a11.06,11.06,0,0,1-4.58-.93,8.53,8.53,0,0,1-3.48-2.85h-.28a34.08,34.08,0,0,1,.28,4.27V924h-3.89V886.79h3.16l.54,3.52h.19a9,9,0,0,1,3.49-3,10.69,10.69,0,0,1,4.57-.94,9.49,9.49,0,0,1,7.89,3.5q2.78,3.48,2.78,9.79t-2.83,9.83A9.49,9.49,0,0,1,451.26,913Zm-.56-23.32c-2.63,0-4.52.72-5.7,2.18s-1.77,3.76-1.8,6.94v.86q0,5.42,1.8,7.75t5.79,2.33A6,6,0,0,0,456,907a12.79,12.79,0,0,0,1.88-7.43c0-3.21-.62-5.66-1.88-7.38A6.21,6.21,0,0,0,450.7,889.63Z"/><path class="cls-1" d="M492.77,889.82h-6.54v22.66h-3.89V889.82h-4.59v-1.76l4.59-1.41v-1.43q0-9.47,8.27-9.47a17.22,17.22,0,0,1,4.78.82l-1,3.12a13,13,0,0,0-3.85-.73,3.72,3.72,0,0,0-3.25,1.47,8.12,8.12,0,0,0-1.06,4.7v1.66h6.54Z"/><path class="cls-1" d="M519.63,899.61q0,6.28-3.17,9.81a11.13,11.13,0,0,1-8.74,3.53,11.55,11.55,0,0,1-6.11-1.62,10.62,10.62,0,0,1-4.13-4.64,16.16,16.16,0,0,1-1.45-7.08q0-6.29,3.14-9.78t8.72-3.51a10.85,10.85,0,0,1,8.56,3.59Q519.63,893.49,519.63,899.61Zm-19.57,0c0,3.28.65,5.78,2,7.5a7.81,7.81,0,0,0,11.59,0q2-2.57,2-7.51t-2-7.44a7,7,0,0,0-5.85-2.54,6.84,6.84,0,0,0-5.77,2.51Q500.06,894.65,500.06,899.61Z"/><path class="cls-1" d="M538.17,886.32a15.82,15.82,0,0,1,3.07.28l-.54,3.61a13.51,13.51,0,0,0-2.81-.35,6.89,6.89,0,0,0-5.34,2.53,9.27,9.27,0,0,0-2.21,6.31v13.78h-3.89V886.79h3.21l.45,4.76h.18a11.37,11.37,0,0,1,3.45-3.87A7.79,7.79,0,0,1,538.17,886.32Z"/><path class="cls-1" d="M580.82,888.2a9.58,9.58,0,0,1-3.55,8q-3.54,2.81-10.16,2.8h-4v13.48h-4V878.21H568Q580.82,878.21,580.82,888.2Zm-17.74,7.38h3.59q5.3,0,7.66-1.71t2.37-5.48a5.91,5.91,0,0,0-2.23-5.07q-2.22-1.67-6.93-1.66h-4.46Z"/><path class="cls-1" d="M603.21,912.48l-.78-3.66h-.18a10.84,10.84,0,0,1-3.84,3.27,11.66,11.66,0,0,1-4.77.86,8.57,8.57,0,0,1-6-2,7.16,7.16,0,0,1-2.17-5.6q0-7.78,12.44-8.16l4.36-.14v-1.59A6.5,6.5,0,0,0,601,891a5.34,5.34,0,0,0-4.16-1.44,17,17,0,0,0-7.26,2l-1.2-3a18.63,18.63,0,0,1,4.16-1.61,18.08,18.08,0,0,1,4.54-.59q4.59,0,6.81,2t2.21,6.54v17.53Zm-8.79-2.74a8,8,0,0,0,5.71-2,7.39,7.39,0,0,0,2.07-5.58v-2.32l-3.89.16q-4.65.16-6.69,1.44a4.34,4.34,0,0,0-2,4,4,4,0,0,0,1.27,3.22A5.36,5.36,0,0,0,594.42,909.74Z"/><path class="cls-1" d="M622.4,909.74a11.71,11.71,0,0,0,2-.16,12.62,12.62,0,0,0,1.53-.31v3a7.08,7.08,0,0,1-1.87.5,14.24,14.24,0,0,1-2.21.2q-7.46,0-7.45-7.85V889.82h-3.68v-1.88l3.68-1.62,1.64-5.48h2.25v5.95h7.45v3h-7.45v15.11a5.19,5.19,0,0,0,1.1,3.57A3.85,3.85,0,0,0,622.4,909.74Z"/><path class="cls-1" d="M630.72,879.83a2.59,2.59,0,0,1,.66-2,2.42,2.42,0,0,1,3.26,0,2.54,2.54,0,0,1,.68,1.94,2.59,2.59,0,0,1-.68,2,2.29,2.29,0,0,1-1.62.64,2.24,2.24,0,0,1-1.64-.64A2.62,2.62,0,0,1,630.72,879.83Zm4.22,32.65h-3.89V886.79h3.89Z"/><path class="cls-1" d="M654,913a11.83,11.83,0,0,1-9-3.47q-3.28-3.47-3.29-9.63t3.06-9.87a10.16,10.16,0,0,1,8.22-3.66,9.7,9.7,0,0,1,7.64,3.18,12.2,12.2,0,0,1,2.81,8.38v2.46h-17.7q.12,4.51,2.29,6.87a7.9,7.9,0,0,0,6.1,2.34,20.83,20.83,0,0,0,8.21-1.73v3.46a20.42,20.42,0,0,1-3.91,1.28A21.65,21.65,0,0,1,654,913Zm-1-23.37a6.36,6.36,0,0,0-4.94,2,9.31,9.31,0,0,0-2.16,5.57h13.43a8.55,8.55,0,0,0-1.64-5.63A5.78,5.78,0,0,0,653,889.58Z"/><path class="cls-1" d="M687.7,912.48V895.86a6.75,6.75,0,0,0-1.43-4.69,5.83,5.83,0,0,0-4.48-1.54c-2.68,0-4.65.72-5.9,2.18S674,895.66,674,899v13.48h-3.89V886.79h3.17l.63,3.52h.19a7.82,7.82,0,0,1,3.35-2.94,10.8,10.8,0,0,1,4.8-1c3.1,0,5.42.75,7,2.24s2.34,3.88,2.34,7.16v16.76Z"/><path class="cls-1" d="M707.88,909.74a11.71,11.71,0,0,0,2-.16,12.39,12.39,0,0,0,1.52-.31v3a7.1,7.1,0,0,1-1.86.5,14.35,14.35,0,0,1-2.21.2q-7.46,0-7.46-7.85V889.82h-3.68v-1.88l3.68-1.62,1.64-5.48h2.25v5.95h7.46v3h-7.46v15.11a5.19,5.19,0,0,0,1.11,3.57A3.85,3.85,0,0,0,707.88,909.74Z"/><path class="cls-1" d="M733.1,905.47a6.43,6.43,0,0,1-2.67,5.53q-2.68,1.95-7.5,2a16.26,16.26,0,0,1-8-1.62v-3.61a19,19,0,0,0,4,1.48,16.55,16.55,0,0,0,4.09.54,9.28,9.28,0,0,0,4.69-1,3.2,3.2,0,0,0,1.64-3,3.24,3.24,0,0,0-1.3-2.57,20.57,20.57,0,0,0-5.08-2.52,26.76,26.76,0,0,1-5.09-2.33,6.91,6.91,0,0,1-2.25-2.26,6.24,6.24,0,0,1,1.81-8,11.91,11.91,0,0,1,7-1.82,20.62,20.62,0,0,1,8.11,1.69l-1.38,3.16a18.68,18.68,0,0,0-7-1.59,8,8,0,0,0-4.17.87,2.68,2.68,0,0,0-1.41,2.39,2.94,2.94,0,0,0,.53,1.76,5.29,5.29,0,0,0,1.7,1.38,37.6,37.6,0,0,0,4.5,1.9c3,1.11,5.1,2.22,6.17,3.35A5.91,5.91,0,0,1,733.1,905.47Z"/><path class="cls-2" d="M634.36,618.36a50,50,0,0,1-70.72,0c-.24-.24-.47-.47-.69-.71L633.66,547l.7.69A50,50,0,0,1,634.36,618.36Z"/><path class="cls-2" d="M702.41,280.54a125,125,0,0,1,14.52,159.37l-9.26-1a182.89,182.89,0,0,1-110.44-53.06l-88.44-88.44,16.84-16.85A125,125,0,0,1,702.41,280.54Z"/><path class="cls-1" d="M706,453.81,468.33,691.5a199,199,0,0,0-57.07-116.88L293.88,457.24l-.7-.71A125,125,0,0,1,469.94,279.77c.24.22.48.46.72.7l116,116A199.12,199.12,0,0,0,706,453.81Z"/><rect class="cls-3" x="208.38" y="543.91" width="316.3" height="66.43" transform="translate(217.62 1244.39) rotate(-135)"/><circle class="cls-4" cx="427.28" cy="413.78" r="25"/><circle class="cls-4" cx="568.7" cy="413.78" r="25"/><circle class="cls-4" cx="269.59" cy="715.71" r="200"/><circle class="cls-4" cx="727.8" cy="254.68" r="200"/><circle class="cls-4" cx="382" cy="369" r="125"/><circle class="cls-4" cx="497.99" cy="484.49" r="125"/><circle class="cls-4" cx="613.5" cy="369.5" r="125"/><rect class="cls-4" x="359.06" y="325.87" width="250" height="289.38" transform="translate(-190.96 480.11) rotate(-45)"/><rect class="cls-4" x="386.42" y="327.06" width="250" height="287.99" transform="translate(482.88 -223.66) rotate(45)"/><line class="cls-4" x1="497.5" y1="661.5" x2="467.94" y2="691.32"/><circle class="cls-5" cx="599.5" cy="583.5" r="50"/></svg>