<?xml version="1.0" encoding="utf-8"?>
<!-- Generator: Adobe Illustrator 23.0.1, SVG Export Plug-In . SVG Version: 6.00 Build 0)  -->
<svg version="1.1" xmlns="http://www.w3.org/2000/svg" xmlns:xlink="http://www.w3.org/1999/xlink" x="0px" y="0px"
	 viewBox="0 0 360 770" style="enable-background:new 0 0 360 770;" xml:space="preserve">
<style type="text/css">
	.st0{fill:none;stroke:#939598;stroke-width:3;stroke-miterlimit:10;}
	.st1{fill:#939598;}
	.st2{fill-rule:evenodd;clip-rule:evenodd;fill:#6A6DAA;}
	.st3{fill:#FFFFFF;stroke:#231F20;stroke-miterlimit:10;}
	.st4{fill:#FFFFFF;}
	.st5{fill:none;stroke:#231F20;stroke-miterlimit:10;}
	.st6{fill:none;stroke:#231F20;stroke-width:0.25;stroke-miterlimit:10;}
	.st7{fill:#231F20;}
	.st8{fill:#808285;}
	.st9{enable-background:new    ;}
	.st10{fill:#C0E7F1;}
	.st11{fill:#EBF7FA;}
	.st12{fill:#AED1EE;}
	.st13{fill:#6EA8DC;}
	.st14{fill:#4689AE;}
	.st15{fill:#F45245;}
	.st16{fill:#68E55E;}
	.st17{fill:#4A4A4A;}
	.st18{fill:#60B845;enable-background:new    ;}
	.st19{fill:#FBCD67;enable-background:new    ;}
	.st20{fill:#FAB828;enable-background:new    ;}
	.st21{fill:#F7831B;enable-background:new    ;}
	.st22{fill:#DF3B3E;enable-background:new    ;}
	.st23{fill:#089CDB;enable-background:new    ;}
	.st24{fill:#943A95;enable-background:new    ;}
	.st25{fill:url(#Silent_Button_2_);}
	.st26{fill:url(#Volume_Up_Button_2_);}
	.st27{fill:url(#Volume_Down_Button_2_);}
	.st28{fill:url(#Power_Button_2_);}
	.st29{fill:#000100;}
	.st30{fill:none;}
	.st31{fill:none;stroke:#FFFFFF;stroke-width:4;stroke-miterlimit:10;}
	.st32{opacity:0.801;fill:url(#Shadow_1_);enable-background:new    ;}
	.st33{opacity:0.801;fill:url(#Shadow-2_1_);enable-background:new    ;}
	.st34{opacity:0.403;fill:#ACACAC;enable-background:new    ;}
	.st35{fill:#202022;}
	.st36{fill:#133456;}
	.st37{fill:#2771BD;}
	.st38{fill:url(#Rectangle_1_);}
	.st39{fill:url(#_2_1_);}
	.st40{fill:url(#_1_1_);}
	.st41{fill:url(#_2-2_2_);}
	.st42{fill:url(#_1-2_2_);}
	.st43{fill:#AAAAAA;}
	.st44{clip-path:url(#SVGID_2_);}
	.st45{fill:url(#);}
	.st46{fill:#1F1F1F;stroke:#FFFFFF;stroke-miterlimit:10;}
	.st47{fill:#1A1A1A;stroke:#FFFFFF;stroke-miterlimit:10;}
	.st48{fill:#58595B;}
	.st49{fill:#F6F6F6;}
	.st50{fill:none;stroke:#808285;stroke-width:2;stroke-linecap:round;stroke-miterlimit:10;stroke-dasharray:3.008,5.0134;}
	.st51{fill:none;stroke:#231F20;stroke-width:2;stroke-linecap:round;stroke-miterlimit:10;}
	.st52{fill:none;stroke:#939598;stroke-width:2;stroke-miterlimit:10;}
	.st53{fill:none;stroke:#808285;stroke-width:2;stroke-linecap:round;stroke-miterlimit:10;stroke-dasharray:2.9721,4.9535;}
	.st54{fill:none;stroke:#808285;stroke-width:2;stroke-linecap:round;stroke-miterlimit:10;stroke-dasharray:3.0448,5.0747;}
	.st55{clip-path:url(#SVGID_8_);}
	.st56{clip-path:url(#SVGID_10_);}
	.st57{clip-path:url(#SVGID_12_);}
	.st58{fill-rule:evenodd;clip-rule:evenodd;fill:#58595B;}
	.st59{fill:#2AF73C;stroke:#FFFFFF;}
	.st60{fill:none;stroke:#373737;stroke-width:0.1;}
	.st61{fill:#3B3B3B;}
	.st62{fill:none;stroke:#C6C6C6;stroke-width:0.4;stroke-linecap:square;}
</style>
<g id="Layer_1">
	<g>
		<g>
			<g>
				<line class="st0" x1="56.4" y1="54.8" x2="56.4" y2="131.7"/>
				<g>
					<polygon class="st1" points="44.1,121.8 46.3,119.8 56.4,130.6 66.5,119.8 68.7,121.8 56.4,135 					"/>
				</g>
			</g>
		</g>
		<g>
			<g>
				<line class="st0" x1="56.4" y1="186.7" x2="56.4" y2="263.6"/>
				<g>
					<polygon class="st1" points="44.1,253.7 46.3,251.7 56.4,262.5 66.5,251.7 68.7,253.7 56.4,266.9 					"/>
				</g>
			</g>
		</g>
		<g>
			<g>
				<line class="st0" x1="56.4" y1="318.6" x2="56.4" y2="395.5"/>
				<g>
					<polygon class="st1" points="44.1,385.6 46.3,383.6 56.4,394.4 66.5,383.6 68.7,385.6 56.4,398.8 					"/>
				</g>
			</g>
		</g>
		<g>
			<g>
				<line class="st0" x1="56.4" y1="450.5" x2="56.4" y2="527.4"/>
				<g>
					<polygon class="st1" points="44.1,517.5 46.3,515.5 56.4,526.3 66.5,515.5 68.7,517.5 56.4,530.7 					"/>
				</g>
			</g>
		</g>
		<g>
			<g>
				<line class="st0" x1="56.4" y1="583.3" x2="56.4" y2="660.2"/>
				<g>
					<polygon class="st1" points="44.1,650.3 46.3,648.3 56.4,659.1 66.5,648.3 68.7,650.3 56.4,663.5 					"/>
				</g>
			</g>
		</g>
	</g>
	<g>
		<g>
			<path d="M130.5,50.9c-0.6-0.9-1.4-1.7-2.3-2.2c-0.9-0.5-2-0.8-3.3-0.8c-1,0-2,0.2-2.8,0.5c-0.8,0.4-1.6,0.9-2.1,1.6
				c-0.6,0.7-1,1.5-1.4,2.4c-0.3,1-0.5,2-0.5,3.2s0.2,2.2,0.5,3.2c0.3,1,0.8,1.8,1.4,2.5c0.6,0.7,1.3,1.2,2.1,1.6
				c0.8,0.4,1.8,0.6,2.8,0.6c1.2,0,2.3-0.3,3.3-0.8c0.9-0.5,1.7-1.3,2.3-2.2l2.2,1.4c-0.8,1.3-1.9,2.2-3.2,2.9
				c-1.3,0.7-2.8,1.1-4.5,1.1c-1.4,0-2.7-0.3-3.9-0.8c-1.2-0.5-2.2-1.2-3-2.1c-0.8-0.9-1.5-2-1.9-3.2c-0.4-1.2-0.7-2.6-0.7-4
				c0-1.5,0.2-2.8,0.7-4.1c0.4-1.2,1.1-2.3,1.9-3.2s1.8-1.6,3-2.1c1.2-0.5,2.5-0.8,3.9-0.8c1.7,0,3.2,0.3,4.4,1
				c1.3,0.7,2.3,1.6,3.2,2.9L130.5,50.9z"/>
			<path d="M148.7,58.4c0,1.1-0.2,2.1-0.5,3c-0.3,0.9-0.8,1.7-1.4,2.4c-0.6,0.7-1.4,1.2-2.3,1.6c-0.9,0.4-1.9,0.6-3,0.6
				c-1.1,0-2.1-0.2-3-0.6c-0.9-0.4-1.6-0.9-2.2-1.6c-0.6-0.7-1.1-1.5-1.4-2.4c-0.3-0.9-0.5-1.9-0.5-3c0-1.1,0.2-2.1,0.5-3
				s0.8-1.7,1.4-2.4c0.6-0.7,1.4-1.2,2.2-1.6c0.9-0.4,1.9-0.6,3-0.6c1.1,0,2.1,0.2,3,0.6s1.6,0.9,2.3,1.6c0.6,0.7,1.1,1.5,1.4,2.4
				S148.7,57.3,148.7,58.4z M146.1,58.4c0-0.8-0.1-1.5-0.3-2.1c-0.2-0.7-0.5-1.2-0.9-1.7c-0.4-0.5-0.9-0.9-1.4-1.1
				c-0.6-0.3-1.2-0.4-1.9-0.4s-1.4,0.1-1.9,0.4c-0.6,0.3-1,0.7-1.4,1.1c-0.4,0.5-0.7,1.1-0.9,1.7c-0.2,0.7-0.3,1.4-0.3,2.1
				c0,0.7,0.1,1.5,0.3,2.1c0.2,0.7,0.5,1.2,0.9,1.7c0.4,0.5,0.9,0.9,1.4,1.1c0.6,0.3,1.2,0.4,1.9,0.4s1.4-0.1,1.9-0.4
				c0.6-0.3,1-0.7,1.4-1.1c0.4-0.5,0.7-1,0.9-1.7C146,59.8,146.1,59.1,146.1,58.4z"/>
			<path d="M151.7,65.6V51.1h2.4v2.4c0.6-0.9,1.3-1.6,2.1-2s1.6-0.7,2.7-0.7c1.1,0,2,0.3,2.7,0.8c0.7,0.5,1.3,1.2,1.6,2.2
				c0.6-0.9,1.3-1.6,2.2-2.2c0.9-0.5,1.9-0.8,3-0.8c1.5,0,2.7,0.5,3.6,1.4c0.8,1,1.3,2.3,1.2,4v9.4h-2.4v-8.7c0-0.5,0-0.9-0.1-1.4
				s-0.2-0.8-0.4-1.2c-0.2-0.4-0.5-0.6-0.9-0.9c-0.4-0.2-0.9-0.3-1.5-0.3c-0.6,0-1.1,0.1-1.6,0.3c-0.5,0.2-0.9,0.5-1.3,0.9
				c-0.4,0.4-0.6,0.9-0.9,1.4c-0.2,0.5-0.3,1.2-0.3,1.8v8h-2.4v-8.7c0-0.5,0-0.9-0.1-1.4s-0.2-0.8-0.4-1.2s-0.5-0.6-0.9-0.9
				c-0.4-0.2-0.9-0.3-1.5-0.3c-0.6,0-1.1,0.1-1.6,0.3c-0.5,0.2-0.9,0.5-1.3,0.9c-0.4,0.4-0.7,0.9-0.9,1.4s-0.3,1.2-0.3,1.8v8H151.7z
				"/>
			<path d="M179.4,51.1v2.4c0.7-1,1.5-1.7,2.4-2.1c0.9-0.4,1.8-0.6,2.8-0.6c1,0,2,0.2,2.8,0.6c0.8,0.4,1.5,0.9,2.1,1.6
				c0.6,0.7,1,1.5,1.3,2.4c0.3,0.9,0.5,1.9,0.5,3c0,1.1-0.2,2.1-0.5,3s-0.8,1.7-1.3,2.4c-0.6,0.7-1.3,1.2-2.1,1.6
				c-0.8,0.4-1.8,0.6-2.8,0.6c-1,0-2-0.2-2.8-0.6c-0.9-0.4-1.7-1.1-2.4-2.1v7.2H177V51.1H179.4z M179.4,58.4c0,0.7,0.1,1.4,0.3,2.1
				c0.2,0.6,0.5,1.2,0.9,1.7c0.4,0.5,0.9,0.9,1.5,1.1s1.3,0.4,2,0.4s1.4-0.1,2-0.4c0.6-0.3,1.1-0.7,1.4-1.1c0.4-0.5,0.7-1,0.9-1.7
				s0.3-1.3,0.3-2.1c0-0.7-0.1-1.4-0.3-2.1s-0.5-1.2-0.9-1.7c-0.4-0.5-0.9-0.9-1.4-1.1c-0.6-0.3-1.2-0.4-2-0.4
				c-0.8,0-1.5,0.1-2.1,0.4c-0.6,0.3-1.1,0.7-1.5,1.1s-0.7,1-0.9,1.7C179.5,56.9,179.4,57.6,179.4,58.4z"/>
			<path d="M206.6,51.1v14.4h-2.4v-2.4c-0.6,0.9-1.3,1.6-2.2,2.1c-0.8,0.5-1.8,0.7-2.8,0.7c-1.6,0-2.8-0.5-3.8-1.4
				c-0.9-1-1.4-2.3-1.4-4.1v-9.2h2.4v8.7c0,0.4,0,0.9,0.1,1.3s0.2,0.9,0.5,1.2c0.2,0.4,0.6,0.7,1,0.9c0.4,0.2,1,0.3,1.7,0.3
				c0.6,0,1.2-0.1,1.8-0.3c0.5-0.2,1-0.5,1.4-0.9c0.4-0.4,0.7-0.9,0.9-1.4s0.3-1.2,0.3-1.8v-7.9H206.6z"/>
			<path d="M219,64.9c-0.8,0.7-1.9,1-3.1,1c-0.9,0-1.6-0.1-2.3-0.4s-1.2-0.8-1.5-1.4c-0.2-0.4-0.4-0.8-0.5-1.2s-0.2-1-0.2-1.7v-8
				H209v-2h2.5v-4.2h2.4v4.2h4.7v2h-4.7v8c0,1.7,0.7,2.5,2.2,2.5c0.4,0,0.8-0.1,1.1-0.2c0.3-0.1,0.6-0.3,0.8-0.4L219,64.9z"/>
			<path d="M234.3,57.9c0,0.2,0,0.4,0,0.6c0,0.1,0,0.3,0,0.4h-11.5c0,0.6,0.1,1.1,0.3,1.7c0.2,0.6,0.4,1,0.8,1.4
				c0.9,1.2,2.2,1.7,3.9,1.7c1.7,0,3.1-0.6,4.3-1.9l1.6,1.6c-0.7,0.8-1.6,1.4-2.6,1.8s-2.1,0.7-3.4,0.7c-1.2,0-2.2-0.2-3.2-0.6
				c-0.9-0.4-1.7-0.9-2.3-1.6c-0.6-0.7-1.1-1.5-1.4-2.4c-0.3-0.9-0.5-1.9-0.5-3s0.2-2.1,0.5-3c0.3-0.9,0.8-1.7,1.4-2.4
				c0.6-0.7,1.4-1.2,2.2-1.6c0.9-0.4,1.9-0.6,3-0.6c1.1,0,2,0.2,2.9,0.5c0.9,0.4,1.6,0.9,2.2,1.5c0.6,0.6,1.1,1.4,1.4,2.3
				C234.2,56,234.3,56.9,234.3,57.9z M231.8,57.1c0-0.4-0.1-0.7-0.2-1c-0.1-0.3-0.2-0.6-0.4-0.9c-0.4-0.7-0.9-1.3-1.6-1.7
				c-0.7-0.4-1.5-0.6-2.3-0.6c-0.6,0-1.2,0.1-1.8,0.3c-0.5,0.2-1,0.5-1.4,0.9c-0.4,0.4-0.7,0.8-0.9,1.3s-0.4,1.1-0.4,1.7H231.8z"/>
			<path d="M245.1,53.7c-0.3-0.1-0.5-0.2-0.8-0.3c-0.3-0.1-0.6-0.1-0.9-0.1c-0.5,0-1,0.1-1.4,0.3c-0.5,0.2-0.9,0.5-1.2,0.9
				c-0.4,0.4-0.6,0.9-0.8,1.5c-0.2,0.6-0.3,1.3-0.3,2.1v7.5h-2.4V51.1h2.4v2.5c0.5-0.8,1.1-1.4,1.8-2c0.7-0.5,1.5-0.8,2.4-0.8
				c0.4,0,0.8,0.1,1.2,0.2c0.3,0.1,0.6,0.2,0.8,0.4L245.1,53.7z"/>
			<path d="M262.1,45.6c1.5,0,2.9,0.3,4.1,0.9s2.3,1.4,3.1,2.6l-2,1.4c-0.6-0.8-1.4-1.4-2.3-1.9c-0.9-0.4-1.9-0.7-3.1-0.7
				c-0.5,0-1,0.1-1.5,0.2c-0.5,0.1-0.9,0.3-1.3,0.5c-0.4,0.2-0.7,0.5-0.9,0.9c-0.2,0.4-0.3,0.8-0.3,1.4c0,0.5,0.1,1,0.4,1.3
				c0.2,0.3,0.6,0.6,1,0.9s0.9,0.4,1.4,0.6c0.5,0.2,1.1,0.3,1.8,0.5c0.9,0.2,1.8,0.5,2.7,0.7c0.9,0.3,1.6,0.6,2.3,1
				c0.7,0.4,1.2,1,1.6,1.6c0.4,0.7,0.6,1.5,0.6,2.4c0,0.9-0.2,1.7-0.5,2.5s-0.8,1.4-1.5,1.9c-0.6,0.5-1.4,0.9-2.3,1.2
				s-1.9,0.4-3.1,0.4c-1.8,0-3.4-0.4-4.8-1.1c-1.3-0.7-2.4-1.7-3.1-2.9l2.2-1.4c0.7,1.1,1.5,1.9,2.6,2.4c1.1,0.5,2.2,0.7,3.3,0.7
				c1.4,0,2.5-0.3,3.3-0.9c0.8-0.6,1.2-1.5,1.2-2.6c0-0.6-0.1-1.1-0.4-1.5c-0.3-0.4-0.6-0.7-1.1-0.9s-1-0.4-1.7-0.6
				s-1.3-0.3-2.1-0.5c-0.8-0.2-1.6-0.4-2.4-0.6c-0.8-0.2-1.4-0.6-2-1c-0.6-0.4-1.1-0.9-1.4-1.6c-0.4-0.6-0.5-1.4-0.5-2.3
				c0-0.9,0.2-1.7,0.5-2.3c0.3-0.7,0.8-1.3,1.4-1.7c0.6-0.5,1.3-0.8,2.2-1.1C260.2,45.7,261.1,45.6,262.1,45.6z"/>
			<path d="M284.7,62.9c-0.6,0.9-1.4,1.6-2.4,2.2c-1,0.6-2.1,0.9-3.5,0.9c-1.1,0-2.1-0.2-2.9-0.6c-0.9-0.4-1.6-0.9-2.2-1.6
				c-0.6-0.7-1.1-1.5-1.4-2.4s-0.5-1.9-0.5-3c0-1.1,0.2-2.1,0.5-3s0.8-1.7,1.4-2.4c0.6-0.7,1.4-1.2,2.2-1.6c0.9-0.4,1.8-0.6,2.9-0.6
				c1.3,0,2.5,0.3,3.4,0.8c1,0.6,1.8,1.3,2.4,2.2l-1.9,1.3c-0.4-0.7-1-1.2-1.6-1.6c-0.6-0.4-1.4-0.6-2.3-0.6c-0.7,0-1.3,0.1-1.9,0.4
				c-0.6,0.3-1,0.6-1.4,1.1c-0.4,0.5-0.7,1-0.9,1.7c-0.2,0.7-0.3,1.4-0.3,2.1s0.1,1.5,0.3,2.1c0.2,0.7,0.5,1.2,0.9,1.7
				c0.4,0.5,0.9,0.8,1.4,1.1c0.6,0.3,1.2,0.4,1.9,0.4c0.9,0,1.7-0.2,2.4-0.6c0.7-0.4,1.2-0.9,1.6-1.6L284.7,62.9z"/>
			<path d="M287.4,48v-2.4h2.4V48H287.4z M287.4,65.6V51.1h2.4v14.4H287.4z"/>
			<path d="M306.9,57.9c0,0.2,0,0.4,0,0.6c0,0.1,0,0.3,0,0.4h-11.5c0,0.6,0.1,1.1,0.3,1.7c0.2,0.6,0.4,1,0.8,1.4
				c0.9,1.2,2.2,1.7,3.9,1.7c1.7,0,3.1-0.6,4.3-1.9l1.6,1.6c-0.7,0.8-1.6,1.4-2.6,1.8s-2.1,0.7-3.4,0.7c-1.2,0-2.2-0.2-3.1-0.6
				c-0.9-0.4-1.7-0.9-2.3-1.6c-0.6-0.7-1.1-1.5-1.4-2.4c-0.3-0.9-0.5-1.9-0.5-3s0.2-2.1,0.5-3c0.3-0.9,0.8-1.7,1.4-2.4
				c0.6-0.7,1.4-1.2,2.2-1.6s1.9-0.6,3-0.6c1.1,0,2,0.2,2.9,0.5c0.9,0.4,1.6,0.9,2.2,1.5s1.1,1.4,1.4,2.3
				C306.8,56,306.9,56.9,306.9,57.9z M304.4,57.1c0-0.4-0.1-0.7-0.2-1c-0.1-0.3-0.2-0.6-0.4-0.9c-0.4-0.7-0.9-1.3-1.6-1.7
				c-0.7-0.4-1.5-0.6-2.3-0.6c-0.6,0-1.2,0.1-1.8,0.3c-0.5,0.2-1,0.5-1.4,0.9c-0.4,0.4-0.7,0.8-0.9,1.3c-0.2,0.5-0.4,1.1-0.4,1.7
				H304.4z"/>
			<path d="M309.8,65.6V51.1h2.4v2.4c0.6-0.9,1.3-1.6,2.1-2.1s1.8-0.7,2.8-0.7c1.6,0,2.8,0.5,3.7,1.4c0.9,1,1.4,2.3,1.4,4v9.3h-2.4
				v-8.7c0-0.4,0-0.9-0.1-1.3c-0.1-0.5-0.2-0.9-0.5-1.2c-0.2-0.4-0.6-0.7-1-0.9c-0.4-0.2-1-0.3-1.7-0.3c-0.6,0-1.2,0.1-1.8,0.3
				c-0.5,0.2-1,0.5-1.4,0.9s-0.7,0.9-0.9,1.4c-0.2,0.6-0.3,1.2-0.3,1.8v7.9H309.8z"/>
			<path d="M338.1,62.9c-0.6,0.9-1.4,1.6-2.4,2.2c-1,0.6-2.1,0.9-3.5,0.9c-1.1,0-2.1-0.2-2.9-0.6c-0.9-0.4-1.6-0.9-2.2-1.6
				c-0.6-0.7-1.1-1.5-1.4-2.4c-0.3-0.9-0.5-1.9-0.5-3c0-1.1,0.2-2.1,0.5-3c0.3-0.9,0.8-1.7,1.4-2.4c0.6-0.7,1.4-1.2,2.2-1.6
				s1.8-0.6,2.9-0.6c1.3,0,2.5,0.3,3.4,0.8s1.8,1.3,2.4,2.2l-1.9,1.3c-0.4-0.7-1-1.2-1.6-1.6c-0.6-0.4-1.4-0.6-2.3-0.6
				c-0.7,0-1.3,0.1-1.9,0.4s-1,0.6-1.4,1.1c-0.4,0.5-0.7,1-0.9,1.7c-0.2,0.7-0.3,1.4-0.3,2.1s0.1,1.5,0.3,2.1
				c0.2,0.7,0.5,1.2,0.9,1.7s0.9,0.8,1.4,1.1s1.2,0.4,1.9,0.4c0.9,0,1.7-0.2,2.4-0.6c0.7-0.4,1.2-0.9,1.6-1.6L338.1,62.9z"/>
			<path d="M353.8,57.9c0,0.2,0,0.4,0,0.6s0,0.3,0,0.4h-11.5c0,0.6,0.1,1.1,0.3,1.7c0.2,0.6,0.4,1,0.8,1.4c0.9,1.2,2.2,1.7,3.9,1.7
				c1.7,0,3.1-0.6,4.3-1.9l1.6,1.6c-0.7,0.8-1.6,1.4-2.6,1.8c-1,0.4-2.1,0.7-3.4,0.7c-1.2,0-2.2-0.2-3.1-0.6
				c-0.9-0.4-1.7-0.9-2.3-1.6c-0.6-0.7-1.1-1.5-1.4-2.4c-0.3-0.9-0.5-1.9-0.5-3s0.2-2.1,0.5-3c0.3-0.9,0.8-1.7,1.4-2.4
				c0.6-0.7,1.4-1.2,2.2-1.6s1.9-0.6,3-0.6c1.1,0,2,0.2,2.9,0.5s1.6,0.9,2.2,1.5c0.6,0.6,1.1,1.4,1.4,2.3S353.8,56.9,353.8,57.9z
				 M351.3,57.1c0-0.4-0.1-0.7-0.2-1c-0.1-0.3-0.2-0.6-0.4-0.9c-0.4-0.7-0.9-1.3-1.6-1.7c-0.7-0.4-1.5-0.6-2.3-0.6
				c-0.6,0-1.2,0.1-1.8,0.3c-0.5,0.2-1,0.5-1.4,0.9s-0.7,0.8-0.9,1.3c-0.2,0.5-0.4,1.1-0.4,1.7H351.3z"/>
		</g>
	</g>
	<g>
		<g>
			<path d="M130.4,196.9l-2.2-5.5h-8.9l-2.2,5.5h-2.7l7.9-19.6h3l7.9,19.6H130.4z M123.8,179.8l-3.6,9.3h7.2L123.8,179.8z"/>
			<path d="M143.2,185c-0.3-0.1-0.5-0.2-0.8-0.3s-0.6-0.1-0.9-0.1c-0.5,0-1,0.1-1.4,0.3c-0.5,0.2-0.9,0.5-1.2,0.9
				c-0.4,0.4-0.6,0.9-0.8,1.5c-0.2,0.6-0.3,1.3-0.3,2.1v7.5h-2.4v-14.4h2.4v2.5c0.5-0.8,1.1-1.4,1.8-2c0.7-0.5,1.5-0.8,2.4-0.8
				c0.4,0,0.8,0.1,1.2,0.2c0.3,0.1,0.6,0.2,0.8,0.4L143.2,185z"/>
			<path d="M157.8,194.2c-0.6,0.9-1.4,1.6-2.4,2.2c-1,0.6-2.1,0.9-3.5,0.9c-1.1,0-2.1-0.2-2.9-0.6c-0.9-0.4-1.6-0.9-2.2-1.6
				c-0.6-0.7-1.1-1.5-1.4-2.4c-0.3-0.9-0.5-1.9-0.5-3c0-1.1,0.2-2.1,0.5-3c0.3-0.9,0.8-1.7,1.4-2.4s1.4-1.2,2.2-1.6
				c0.9-0.4,1.8-0.6,2.9-0.6c1.3,0,2.5,0.3,3.4,0.8c1,0.6,1.8,1.3,2.4,2.2l-1.9,1.3c-0.4-0.7-1-1.2-1.6-1.6
				c-0.6-0.4-1.4-0.6-2.3-0.6c-0.7,0-1.3,0.1-1.9,0.4c-0.6,0.3-1,0.6-1.4,1.1c-0.4,0.5-0.7,1-0.9,1.7c-0.2,0.7-0.3,1.4-0.3,2.1
				s0.1,1.5,0.3,2.1c0.2,0.7,0.5,1.2,0.9,1.7c0.4,0.5,0.9,0.8,1.4,1.1c0.6,0.3,1.2,0.4,1.9,0.4c0.9,0,1.7-0.2,2.4-0.6
				c0.7-0.4,1.2-0.9,1.6-1.6L157.8,194.2z"/>
			<path d="M160.5,196.9v-20h2.4v8c0.6-0.9,1.3-1.6,2.1-2.1c0.8-0.5,1.8-0.7,2.8-0.7c1.6,0,2.8,0.5,3.7,1.4c0.9,1,1.4,2.3,1.4,4v9.3
				h-2.4v-8.7c0-0.4,0-0.9-0.1-1.3c-0.1-0.5-0.2-0.9-0.5-1.2s-0.6-0.7-1-0.9s-1-0.3-1.7-0.3c-0.6,0-1.2,0.1-1.8,0.3
				c-0.5,0.2-1,0.5-1.4,0.9c-0.4,0.4-0.7,0.9-0.9,1.4c-0.2,0.6-0.3,1.2-0.3,1.8v7.9H160.5z"/>
			<path d="M176.9,179.3v-2.4h2.4v2.4H176.9z M176.9,196.9v-14.4h2.4v14.4H176.9z"/>
			<path d="M191.7,196.2c-0.8,0.7-1.9,1-3.1,1c-0.9,0-1.6-0.1-2.3-0.4c-0.7-0.3-1.2-0.8-1.5-1.4c-0.2-0.4-0.4-0.8-0.5-1.2
				s-0.2-1-0.2-1.7v-8h-2.5v-2h2.5v-4.2h2.4v4.2h4.7v2h-4.7v8c0,1.7,0.7,2.5,2.2,2.5c0.4,0,0.8-0.1,1.1-0.2c0.3-0.1,0.6-0.3,0.8-0.4
				L191.7,196.2z"/>
			<path d="M207,189.2c0,0.2,0,0.4,0,0.6c0,0.2,0,0.3,0,0.4h-11.5c0,0.6,0.1,1.1,0.3,1.7s0.4,1,0.8,1.4c0.9,1.2,2.2,1.7,3.9,1.7
				c1.7,0,3.1-0.6,4.3-1.9l1.6,1.6c-0.7,0.8-1.6,1.4-2.6,1.8c-1,0.4-2.1,0.7-3.4,0.7c-1.2,0-2.2-0.2-3.1-0.6
				c-0.9-0.4-1.7-0.9-2.3-1.6c-0.6-0.7-1.1-1.5-1.4-2.4c-0.3-0.9-0.5-1.9-0.5-3s0.2-2.1,0.5-3c0.3-0.9,0.8-1.7,1.4-2.4
				s1.4-1.2,2.2-1.6c0.9-0.4,1.9-0.6,3-0.6c1.1,0,2,0.2,2.9,0.5c0.9,0.4,1.6,0.9,2.2,1.5s1.1,1.4,1.4,2.3
				C206.9,187.3,207,188.2,207,189.2z M204.5,188.4c0-0.4-0.1-0.7-0.2-1c-0.1-0.3-0.2-0.6-0.4-0.9c-0.4-0.7-0.9-1.3-1.6-1.7
				c-0.7-0.4-1.5-0.6-2.3-0.6c-0.6,0-1.2,0.1-1.8,0.3c-0.5,0.2-1,0.5-1.4,0.9c-0.4,0.4-0.7,0.8-0.9,1.3c-0.2,0.5-0.4,1.1-0.4,1.7
				H204.5z"/>
			<path d="M221.9,194.2c-0.6,0.9-1.4,1.6-2.4,2.2c-1,0.6-2.1,0.9-3.5,0.9c-1.1,0-2.1-0.2-2.9-0.6c-0.9-0.4-1.6-0.9-2.2-1.6
				s-1.1-1.5-1.4-2.4c-0.3-0.9-0.5-1.9-0.5-3c0-1.1,0.2-2.1,0.5-3c0.3-0.9,0.8-1.7,1.4-2.4c0.6-0.7,1.4-1.2,2.2-1.6s1.8-0.6,2.9-0.6
				c1.3,0,2.5,0.3,3.4,0.8c1,0.6,1.8,1.3,2.4,2.2l-1.9,1.3c-0.4-0.7-1-1.2-1.6-1.6c-0.6-0.4-1.4-0.6-2.3-0.6c-0.7,0-1.3,0.1-1.9,0.4
				c-0.6,0.3-1,0.6-1.4,1.1c-0.4,0.5-0.7,1-0.9,1.7c-0.2,0.7-0.3,1.4-0.3,2.1s0.1,1.5,0.3,2.1c0.2,0.7,0.5,1.2,0.9,1.7
				c0.4,0.5,0.9,0.8,1.4,1.1c0.6,0.3,1.2,0.4,1.9,0.4c0.9,0,1.7-0.2,2.4-0.6c0.7-0.4,1.2-0.9,1.6-1.6L221.9,194.2z"/>
			<path d="M233,196.2c-0.8,0.7-1.9,1-3.1,1c-0.9,0-1.6-0.1-2.3-0.4s-1.2-0.8-1.5-1.4c-0.2-0.4-0.4-0.8-0.5-1.2s-0.2-1-0.2-1.7v-8
				H223v-2h2.5v-4.2h2.4v4.2h4.7v2h-4.7v8c0,1.7,0.7,2.5,2.2,2.5c0.4,0,0.8-0.1,1.1-0.2s0.6-0.3,0.8-0.4L233,196.2z"/>
			<path d="M247.6,182.5v14.4h-2.4v-2.4c-0.6,0.9-1.3,1.6-2.2,2.1c-0.8,0.5-1.8,0.7-2.8,0.7c-1.6,0-2.8-0.5-3.8-1.4
				c-0.9-1-1.4-2.3-1.4-4.1v-9.2h2.4v8.7c0,0.4,0,0.9,0.1,1.3s0.2,0.9,0.5,1.2c0.2,0.4,0.6,0.7,1,0.9s1,0.3,1.7,0.3
				c0.6,0,1.2-0.1,1.8-0.3c0.5-0.2,1-0.5,1.4-0.9s0.7-0.9,0.9-1.4c0.2-0.6,0.3-1.2,0.3-1.8v-7.9H247.6z"/>
			<path d="M259.4,185c-0.3-0.1-0.5-0.2-0.8-0.3s-0.6-0.1-0.9-0.1c-0.5,0-1,0.1-1.4,0.3c-0.5,0.2-0.9,0.5-1.2,0.9
				c-0.4,0.4-0.6,0.9-0.8,1.5c-0.2,0.6-0.3,1.3-0.3,2.1v7.5h-2.4v-14.4h2.4v2.5c0.5-0.8,1.1-1.4,1.8-2c0.7-0.5,1.5-0.8,2.4-0.8
				c0.4,0,0.8,0.1,1.2,0.2c0.3,0.1,0.6,0.2,0.8,0.4L259.4,185z"/>
			<path d="M275.2,189.2c0,0.2,0,0.4,0,0.6c0,0.2,0,0.3,0,0.4h-11.5c0,0.6,0.1,1.1,0.3,1.7c0.2,0.6,0.4,1,0.8,1.4
				c0.9,1.2,2.2,1.7,3.9,1.7s3.1-0.6,4.3-1.9l1.6,1.6c-0.7,0.8-1.6,1.4-2.6,1.8c-1,0.4-2.1,0.7-3.4,0.7c-1.2,0-2.2-0.2-3.2-0.6
				c-0.9-0.4-1.7-0.9-2.3-1.6s-1.1-1.5-1.4-2.4c-0.3-0.9-0.5-1.9-0.5-3s0.2-2.1,0.5-3c0.3-0.9,0.8-1.7,1.4-2.4
				c0.6-0.7,1.4-1.2,2.2-1.6c0.9-0.4,1.9-0.6,3-0.6c1.1,0,2,0.2,2.9,0.5c0.9,0.4,1.6,0.9,2.2,1.5s1.1,1.4,1.4,2.3
				C275,187.3,275.2,188.2,275.2,189.2z M272.7,188.4c0-0.4-0.1-0.7-0.2-1c-0.1-0.3-0.2-0.6-0.4-0.9c-0.4-0.7-0.9-1.3-1.6-1.7
				c-0.7-0.4-1.5-0.6-2.3-0.6c-0.6,0-1.2,0.1-1.8,0.3c-0.5,0.2-1,0.5-1.4,0.9c-0.4,0.4-0.7,0.8-0.9,1.3c-0.2,0.5-0.4,1.1-0.4,1.7
				H272.7z"/>
		</g>
	</g>
	<g>
		<g>
			<path d="M134.6,282.5c0,0.9-0.1,1.7-0.4,2.5s-0.7,1.4-1.3,1.9c-0.6,0.5-1.3,0.9-2.2,1.2c-0.9,0.3-1.8,0.4-3,0.4h-5.6v7.6h-2.6
				v-19.6h8.1c1.1,0,2.1,0.1,3,0.4c0.9,0.3,1.6,0.7,2.2,1.2c0.6,0.5,1,1.2,1.3,1.9C134.5,280.8,134.6,281.6,134.6,282.5z
				 M127.7,286.2c1.4,0,2.5-0.3,3.1-1c0.7-0.7,1-1.5,1-2.6c0-1.1-0.3-2-1-2.6c-0.7-0.6-1.7-1-3.1-1h-5.6v7.3H127.7z"/>
			<path d="M137.1,296.1v-20h2.4v8c0.6-0.9,1.3-1.6,2.1-2.1c0.8-0.5,1.8-0.7,2.8-0.7c1.6,0,2.8,0.5,3.7,1.4c0.9,1,1.4,2.3,1.4,4v9.3
				h-2.4v-8.7c0-0.4,0-0.9-0.1-1.3c-0.1-0.5-0.2-0.9-0.5-1.2c-0.2-0.4-0.6-0.7-1-0.9c-0.4-0.2-1-0.3-1.7-0.3c-0.6,0-1.2,0.1-1.8,0.3
				c-0.5,0.2-1,0.5-1.4,0.9c-0.4,0.4-0.7,0.9-0.9,1.4c-0.2,0.6-0.3,1.2-0.3,1.8v7.9H137.1z"/>
			<path d="M153.9,296.1v-19.6h7.6c1.5,0,2.9,0.2,4,0.7c1.2,0.5,2.2,1.2,3,2.1s1.4,1.9,1.8,3.1c0.4,1.2,0.6,2.5,0.6,3.9
				c0,1.4-0.2,2.7-0.6,3.9c-0.4,1.2-1,2.2-1.8,3.1s-1.8,1.6-3,2.1c-1.2,0.5-2.5,0.7-4,0.7H153.9z M161.5,293.7c1.1,0,2-0.2,2.9-0.5
				c0.8-0.4,1.5-0.9,2.1-1.5c0.6-0.6,1-1.4,1.3-2.3s0.4-1.9,0.4-3s-0.1-2.1-0.4-3s-0.7-1.7-1.3-2.3c-0.6-0.6-1.3-1.1-2.1-1.5
				c-0.8-0.4-1.8-0.5-2.9-0.5h-5v14.8H161.5z"/>
			<path d="M181.6,278.5v-2.4h2.4v2.4H181.6z M181.6,296.1v-14.4h2.4v14.4H181.6z"/>
			<path d="M188,296.1v-14.4h2.4v2.4c0.6-0.9,1.3-1.6,2.1-2.1c0.8-0.5,1.8-0.7,2.8-0.7c1.6,0,2.8,0.5,3.7,1.4c0.9,1,1.4,2.3,1.4,4
				v9.3h-2.4v-8.7c0-0.4,0-0.9-0.1-1.3c-0.1-0.5-0.2-0.9-0.5-1.2c-0.2-0.4-0.6-0.7-1-0.9c-0.4-0.2-1-0.3-1.7-0.3
				c-0.6,0-1.2,0.1-1.8,0.3c-0.5,0.2-1,0.5-1.4,0.9c-0.4,0.4-0.7,0.9-0.9,1.4c-0.2,0.6-0.3,1.2-0.3,1.8v7.9H188z"/>
			<path d="M133.4,315.1c-0.6-0.9-1.4-1.7-2.3-2.2s-2-0.8-3.3-0.8c-1,0-2,0.2-2.8,0.5c-0.8,0.4-1.6,0.9-2.1,1.6s-1,1.5-1.4,2.4
				c-0.3,1-0.5,2-0.5,3.2s0.2,2.2,0.5,3.2c0.3,1,0.8,1.8,1.4,2.5s1.3,1.2,2.1,1.6c0.8,0.4,1.8,0.6,2.8,0.6c1.2,0,2.3-0.3,3.3-0.8
				c0.9-0.5,1.7-1.3,2.3-2.2l2.2,1.4c-0.8,1.3-1.9,2.2-3.2,2.9c-1.3,0.7-2.8,1.1-4.5,1.1c-1.4,0-2.7-0.3-3.9-0.8
				c-1.2-0.5-2.2-1.2-3-2.1c-0.8-0.9-1.5-2-1.9-3.2c-0.4-1.2-0.7-2.6-0.7-4c0-1.5,0.2-2.8,0.7-4.1c0.4-1.2,1.1-2.3,1.9-3.2
				c0.8-0.9,1.8-1.6,3-2.1c1.2-0.5,2.5-0.8,3.9-0.8c1.7,0,3.2,0.3,4.4,1c1.3,0.7,2.3,1.6,3.2,2.9L133.4,315.1z"/>
			<path d="M151.5,322.5c0,1.1-0.2,2.1-0.5,3c-0.3,0.9-0.8,1.7-1.4,2.4s-1.4,1.2-2.3,1.6c-0.9,0.4-1.9,0.6-3,0.6s-2.1-0.2-3-0.6
				c-0.9-0.4-1.6-0.9-2.2-1.6s-1.1-1.5-1.4-2.4c-0.3-0.9-0.5-1.9-0.5-3c0-1.1,0.2-2.1,0.5-3s0.8-1.7,1.4-2.4
				c0.6-0.7,1.4-1.2,2.2-1.6c0.9-0.4,1.9-0.6,3-0.6s2.1,0.2,3,0.6c0.9,0.4,1.6,0.9,2.3,1.6c0.6,0.7,1.1,1.5,1.4,2.4
				S151.5,321.4,151.5,322.5z M149,322.5c0-0.8-0.1-1.5-0.3-2.1c-0.2-0.7-0.5-1.2-0.9-1.7c-0.4-0.5-0.9-0.9-1.4-1.1
				c-0.6-0.3-1.2-0.4-1.9-0.4c-0.7,0-1.4,0.1-1.9,0.4c-0.6,0.3-1,0.7-1.4,1.1c-0.4,0.5-0.7,1.1-0.9,1.7c-0.2,0.7-0.3,1.4-0.3,2.1
				c0,0.7,0.1,1.5,0.3,2.1c0.2,0.7,0.5,1.2,0.9,1.7c0.4,0.5,0.9,0.9,1.4,1.1c0.6,0.3,1.2,0.4,1.9,0.4c0.7,0,1.4-0.1,1.9-0.4
				c0.6-0.3,1-0.7,1.4-1.1c0.4-0.5,0.7-1,0.9-1.7C148.9,324,149,323.3,149,322.5z"/>
			<path d="M154.5,329.7v-14.4h2.4v2.4c0.6-0.9,1.3-1.6,2.1-2s1.6-0.7,2.7-0.7c1.1,0,2,0.3,2.7,0.8c0.7,0.5,1.3,1.2,1.6,2.2
				c0.6-0.9,1.3-1.6,2.2-2.2c0.9-0.5,1.9-0.8,3-0.8c1.5,0,2.7,0.5,3.6,1.4c0.8,1,1.3,2.3,1.2,4v9.4h-2.4V321c0-0.5,0-0.9-0.1-1.4
				s-0.2-0.8-0.4-1.2s-0.5-0.6-0.9-0.9c-0.4-0.2-0.9-0.3-1.5-0.3c-0.6,0-1.1,0.1-1.6,0.3c-0.5,0.2-0.9,0.5-1.3,0.9
				c-0.4,0.4-0.6,0.9-0.9,1.4s-0.3,1.2-0.3,1.8v8h-2.4V321c0-0.5,0-0.9-0.1-1.4c-0.1-0.4-0.2-0.8-0.4-1.2s-0.5-0.6-0.9-0.9
				c-0.4-0.2-0.9-0.3-1.5-0.3c-0.6,0-1.1,0.1-1.6,0.3c-0.5,0.2-0.9,0.5-1.3,0.9c-0.4,0.4-0.7,0.9-0.9,1.4s-0.3,1.2-0.3,1.8v8H154.5z
				"/>
			<path d="M182.2,315.3v2.4c0.7-1,1.5-1.7,2.4-2.1c0.9-0.4,1.8-0.6,2.8-0.6c1,0,2,0.2,2.8,0.6c0.8,0.4,1.5,0.9,2.1,1.6
				c0.6,0.7,1,1.5,1.3,2.4c0.3,0.9,0.5,1.9,0.5,3c0,1.1-0.2,2.1-0.5,3s-0.8,1.7-1.3,2.4c-0.6,0.7-1.3,1.2-2.1,1.6
				c-0.8,0.4-1.8,0.6-2.8,0.6c-1,0-2-0.2-2.8-0.6c-0.9-0.4-1.7-1.1-2.4-2.1v7.2h-2.4v-19.3H182.2z M182.2,322.5
				c0,0.7,0.1,1.4,0.3,2.1c0.2,0.6,0.5,1.2,0.9,1.7c0.4,0.5,0.9,0.9,1.5,1.1s1.3,0.4,2,0.4c0.8,0,1.4-0.1,2-0.4s1.1-0.7,1.4-1.1
				c0.4-0.5,0.7-1,0.9-1.7s0.3-1.3,0.3-2.1c0-0.7-0.1-1.4-0.3-2.1s-0.5-1.2-0.9-1.7c-0.4-0.5-0.9-0.9-1.4-1.1
				c-0.6-0.3-1.2-0.4-2-0.4s-1.5,0.1-2.1,0.4c-0.6,0.3-1.1,0.7-1.5,1.1c-0.4,0.5-0.7,1-0.9,1.7C182.3,321.1,182.2,321.8,182.2,322.5
				z"/>
			<path d="M209.5,315.3v14.4h-2.4v-2.4c-0.6,0.9-1.3,1.6-2.2,2.1c-0.8,0.5-1.8,0.7-2.8,0.7c-1.6,0-2.8-0.5-3.8-1.4
				c-0.9-1-1.4-2.3-1.4-4.1v-9.2h2.4v8.7c0,0.4,0,0.9,0.1,1.3s0.2,0.9,0.5,1.2c0.2,0.4,0.6,0.7,1,0.9s1,0.3,1.7,0.3
				c0.6,0,1.2-0.1,1.8-0.3c0.5-0.2,1-0.5,1.4-0.9s0.7-0.9,0.9-1.4c0.2-0.6,0.3-1.2,0.3-1.8v-7.9H209.5z"/>
			<path d="M221.9,329.1c-0.8,0.7-1.9,1-3.1,1c-0.9,0-1.6-0.1-2.3-0.4c-0.7-0.3-1.2-0.8-1.5-1.4c-0.2-0.4-0.4-0.8-0.5-1.2
				s-0.2-1-0.2-1.7v-8h-2.5v-2h2.5v-4.2h2.4v4.2h4.7v2h-4.7v8c0,1.7,0.7,2.5,2.2,2.5c0.4,0,0.8-0.1,1.1-0.2c0.3-0.1,0.6-0.3,0.8-0.4
				L221.9,329.1z"/>
			<path d="M237.5,329.6c-0.3,0.1-0.5,0.2-0.8,0.2c-0.3,0-0.6,0.1-0.8,0.1c-0.7,0-1.3-0.2-1.9-0.5c-0.5-0.4-0.9-0.9-1-1.8
				c-0.6,0.9-1.4,1.5-2.3,1.9c-0.9,0.3-1.8,0.5-2.7,0.5c-1.5,0-2.7-0.4-3.6-1.2c-0.9-0.8-1.3-1.9-1.3-3.2c0-0.8,0.2-1.5,0.5-2.1
				c0.3-0.5,0.7-1,1.2-1.3s1-0.5,1.6-0.7c0.6-0.1,1.1-0.2,1.6-0.3c0.6-0.1,1.2-0.1,1.7-0.2c0.6-0.1,1.1-0.2,1.5-0.3
				c0.4-0.1,0.8-0.3,1.1-0.6c0.3-0.3,0.4-0.6,0.4-1.1c0-0.4-0.1-0.7-0.3-1c-0.2-0.3-0.5-0.5-0.8-0.7c-0.3-0.2-0.7-0.3-1.1-0.3
				s-0.8-0.1-1.2-0.1c-0.8,0-1.6,0.1-2.4,0.4c-0.8,0.3-1.5,0.6-2.2,1.1l-1.1-1.8c0.8-0.6,1.7-1.1,2.7-1.4c0.9-0.3,2-0.5,3.1-0.5
				c0.8,0,1.6,0.1,2.3,0.3s1.3,0.5,1.8,0.8c0.5,0.4,0.9,0.8,1.2,1.4c0.3,0.6,0.4,1.3,0.4,2v7c0,0.5,0.1,0.9,0.3,1.2
				c0.2,0.2,0.5,0.4,0.9,0.4c0.4,0,0.6-0.1,0.9-0.2L237.5,329.6z M232.8,321.6c-0.3,0.3-0.5,0.6-0.8,0.7c-0.3,0.2-0.6,0.3-1,0.4
				c-0.4,0.1-0.7,0.2-1.1,0.2c-0.4,0-0.8,0.1-1.3,0.2c-0.4,0.1-0.8,0.2-1.2,0.3c-0.4,0.1-0.7,0.2-1,0.4s-0.5,0.4-0.6,0.7
				c-0.2,0.3-0.2,0.6-0.2,1.1c0,0.9,0.3,1.5,0.9,1.9c0.6,0.4,1.3,0.6,2.2,0.6c0.5,0,1-0.1,1.6-0.2c0.5-0.1,1-0.4,1.4-0.7
				c0.4-0.3,0.7-0.7,1-1.2c0.2-0.5,0.4-1.1,0.4-1.8V321.6z"/>
			<path d="M248.1,329.1c-0.8,0.7-1.9,1-3.1,1c-0.9,0-1.6-0.1-2.3-0.4c-0.7-0.3-1.2-0.8-1.5-1.4c-0.2-0.4-0.4-0.8-0.5-1.2
				s-0.2-1-0.2-1.7v-8H238v-2h2.5v-4.2h2.4v4.2h4.7v2h-4.7v8c0,1.7,0.7,2.5,2.2,2.5c0.4,0,0.8-0.1,1.1-0.2c0.3-0.1,0.6-0.3,0.8-0.4
				L248.1,329.1z"/>
			<path d="M250.2,312.1v-2.4h2.4v2.4H250.2z M250.2,329.7v-14.4h2.4v14.4H250.2z"/>
			<path d="M270,322.5c0,1.1-0.2,2.1-0.5,3c-0.3,0.9-0.8,1.7-1.4,2.4s-1.4,1.2-2.3,1.6c-0.9,0.4-1.9,0.6-3,0.6s-2.1-0.2-3-0.6
				c-0.9-0.4-1.6-0.9-2.2-1.6s-1.1-1.5-1.4-2.4c-0.3-0.9-0.5-1.9-0.5-3c0-1.1,0.2-2.1,0.5-3c0.3-0.9,0.8-1.7,1.4-2.4
				c0.6-0.7,1.4-1.2,2.2-1.6c0.9-0.4,1.9-0.6,3-0.6s2.1,0.2,3,0.6c0.9,0.4,1.6,0.9,2.3,1.6c0.6,0.7,1.1,1.5,1.4,2.4
				S270,321.4,270,322.5z M267.4,322.5c0-0.8-0.1-1.5-0.3-2.1c-0.2-0.7-0.5-1.2-0.9-1.7c-0.4-0.5-0.9-0.9-1.4-1.1
				c-0.6-0.3-1.2-0.4-1.9-0.4c-0.7,0-1.4,0.1-1.9,0.4c-0.6,0.3-1,0.7-1.4,1.1c-0.4,0.5-0.7,1.1-0.9,1.7c-0.2,0.7-0.3,1.4-0.3,2.1
				c0,0.7,0.1,1.5,0.3,2.1c0.2,0.7,0.5,1.2,0.9,1.7c0.4,0.5,0.9,0.9,1.4,1.1c0.6,0.3,1.2,0.4,1.9,0.4c0.7,0,1.4-0.1,1.9-0.4
				c0.6-0.3,1-0.7,1.4-1.1c0.4-0.5,0.7-1,0.9-1.7C267.3,324,267.4,323.3,267.4,322.5z"/>
			<path d="M273,329.7v-14.4h2.4v2.4c0.6-0.9,1.3-1.6,2.1-2.1c0.8-0.5,1.8-0.7,2.8-0.7c1.6,0,2.8,0.5,3.7,1.4c0.9,1,1.4,2.3,1.4,4
				v9.3h-2.4V321c0-0.4,0-0.9-0.1-1.3c-0.1-0.5-0.2-0.9-0.5-1.2c-0.2-0.4-0.6-0.7-1-0.9c-0.4-0.2-1-0.3-1.7-0.3
				c-0.6,0-1.2,0.1-1.8,0.3c-0.5,0.2-1,0.5-1.4,0.9c-0.4,0.4-0.7,0.9-0.9,1.4c-0.2,0.6-0.3,1.2-0.3,1.8v7.9H273z"/>
			<path d="M302.8,329.6c-0.3,0.1-0.5,0.2-0.8,0.2c-0.3,0-0.6,0.1-0.8,0.1c-0.7,0-1.3-0.2-1.9-0.5c-0.5-0.4-0.9-0.9-1-1.8
				c-0.6,0.9-1.4,1.5-2.3,1.9c-0.9,0.3-1.8,0.5-2.7,0.5c-1.5,0-2.7-0.4-3.6-1.2c-0.9-0.8-1.3-1.9-1.3-3.2c0-0.8,0.2-1.5,0.5-2.1
				s0.7-1,1.2-1.3s1-0.5,1.6-0.7c0.6-0.1,1.1-0.2,1.6-0.3c0.6-0.1,1.2-0.1,1.7-0.2c0.6-0.1,1.1-0.2,1.5-0.3c0.4-0.1,0.8-0.3,1.1-0.6
				c0.3-0.3,0.4-0.6,0.4-1.1c0-0.4-0.1-0.7-0.3-1s-0.5-0.5-0.8-0.7c-0.3-0.2-0.7-0.3-1.1-0.3s-0.8-0.1-1.2-0.1
				c-0.8,0-1.6,0.1-2.4,0.4s-1.5,0.6-2.2,1.1l-1.1-1.8c0.8-0.6,1.7-1.1,2.7-1.4s2-0.5,3.1-0.5c0.8,0,1.6,0.1,2.3,0.3
				c0.7,0.2,1.3,0.5,1.8,0.8c0.5,0.4,0.9,0.8,1.2,1.4c0.3,0.6,0.4,1.3,0.4,2v7c0,0.5,0.1,0.9,0.3,1.2c0.2,0.2,0.5,0.4,0.9,0.4
				c0.4,0,0.6-0.1,0.9-0.2L302.8,329.6z M298.1,321.6c-0.3,0.3-0.5,0.6-0.8,0.7c-0.3,0.2-0.6,0.3-1,0.4c-0.4,0.1-0.7,0.2-1.1,0.2
				c-0.4,0-0.8,0.1-1.3,0.2c-0.4,0.1-0.8,0.2-1.2,0.3c-0.4,0.1-0.7,0.2-1,0.4c-0.3,0.2-0.5,0.4-0.6,0.7c-0.2,0.3-0.2,0.6-0.2,1.1
				c0,0.9,0.3,1.5,0.9,1.9c0.6,0.4,1.3,0.6,2.2,0.6c0.5,0,1-0.1,1.6-0.2c0.5-0.1,1-0.4,1.4-0.7c0.4-0.3,0.7-0.7,1-1.2
				c0.2-0.5,0.4-1.1,0.4-1.8V321.6z"/>
			<path d="M305,329.7v-20h2.4v20H305z"/>
			<path d="M119.6,363.3v-19.6h7.6c1.5,0,2.9,0.2,4,0.7c1.2,0.5,2.2,1.2,3,2.1c0.8,0.9,1.4,1.9,1.8,3.1c0.4,1.2,0.6,2.5,0.6,3.9
				c0,1.4-0.2,2.7-0.6,3.9c-0.4,1.2-1,2.2-1.8,3.1c-0.8,0.9-1.8,1.6-3,2.1c-1.2,0.5-2.5,0.7-4,0.7H119.6z M127.1,360.9
				c1.1,0,2-0.2,2.9-0.5c0.8-0.4,1.5-0.9,2.1-1.5c0.6-0.6,1-1.4,1.3-2.3c0.3-0.9,0.4-1.9,0.4-3s-0.1-2.1-0.4-3
				c-0.3-0.9-0.7-1.7-1.3-2.3c-0.6-0.6-1.3-1.1-2.1-1.5s-1.8-0.5-2.9-0.5h-5v14.8H127.1z"/>
			<path d="M152.9,355.7c0,0.2,0,0.4,0,0.6s0,0.3,0,0.4h-11.5c0,0.6,0.1,1.1,0.3,1.7c0.2,0.6,0.4,1,0.8,1.4c0.9,1.2,2.2,1.7,3.9,1.7
				c1.7,0,3.1-0.6,4.3-1.9l1.6,1.6c-0.7,0.8-1.6,1.4-2.6,1.8s-2.1,0.7-3.4,0.7c-1.2,0-2.2-0.2-3.1-0.6c-0.9-0.4-1.7-0.9-2.3-1.6
				c-0.6-0.7-1.1-1.5-1.4-2.4c-0.3-0.9-0.5-1.9-0.5-3s0.2-2.1,0.5-3c0.3-0.9,0.8-1.7,1.4-2.4s1.4-1.2,2.2-1.6c0.9-0.4,1.9-0.6,3-0.6
				c1.1,0,2,0.2,2.9,0.5s1.6,0.9,2.2,1.5s1.1,1.4,1.4,2.3S152.9,354.7,152.9,355.7z M150.4,354.8c0-0.4-0.1-0.7-0.2-1
				c-0.1-0.3-0.2-0.6-0.4-0.9c-0.4-0.7-0.9-1.3-1.6-1.7c-0.7-0.4-1.5-0.6-2.3-0.6c-0.6,0-1.2,0.1-1.8,0.3c-0.5,0.2-1,0.5-1.4,0.9
				s-0.7,0.8-0.9,1.3s-0.4,1.1-0.4,1.7H150.4z"/>
			<path d="M166.9,359c0,1.4-0.5,2.5-1.6,3.3c-1,0.9-2.5,1.3-4.4,1.3c-1.4,0-2.7-0.3-3.8-0.8c-1.1-0.5-2-1.2-2.6-2.2l1.7-1.4
				c0.6,0.8,1.2,1.3,2.1,1.8c0.8,0.4,1.7,0.6,2.8,0.6c1,0,1.8-0.2,2.5-0.6c0.7-0.4,1-1,1-1.8c0-0.4-0.1-0.7-0.2-0.9
				c-0.2-0.2-0.4-0.4-0.7-0.6c-0.3-0.2-0.7-0.3-1.2-0.4c-0.5-0.1-1.1-0.2-1.8-0.4c-0.7-0.1-1.3-0.3-1.9-0.5
				c-0.6-0.2-1.2-0.4-1.7-0.7c-0.5-0.3-0.9-0.7-1.1-1.2s-0.4-1.1-0.4-1.8c0-0.7,0.1-1.4,0.4-1.9c0.3-0.5,0.7-1,1.2-1.3
				c0.5-0.3,1.1-0.6,1.7-0.8c0.6-0.2,1.3-0.2,2-0.2c0.7,0,1.3,0.1,1.9,0.2s1.1,0.3,1.6,0.5c0.5,0.2,0.9,0.5,1.3,0.8
				c0.4,0.3,0.7,0.6,1,0.9l-1.6,1.5c-0.5-0.6-1.2-1.1-1.9-1.4c-0.7-0.3-1.5-0.4-2.4-0.4c-0.4,0-0.8,0-1.1,0.1
				c-0.4,0.1-0.7,0.2-1,0.3c-0.3,0.1-0.5,0.4-0.7,0.6s-0.3,0.6-0.3,0.9c0,0.4,0.1,0.7,0.3,0.9c0.2,0.2,0.5,0.4,0.8,0.6
				c0.3,0.2,0.7,0.3,1.1,0.4s0.9,0.2,1.4,0.3c0.7,0.1,1.4,0.3,2.1,0.4s1.3,0.4,1.8,0.7c0.5,0.3,0.9,0.7,1.3,1.2
				C166.7,357.7,166.9,358.3,166.9,359z"/>
			<path d="M169.9,345.7v-2.4h2.4v2.4H169.9z M169.9,363.3v-14.4h2.4v14.4H169.9z"/>
			<path d="M189.7,361c0,1.1-0.1,2.1-0.3,2.9c-0.2,0.8-0.6,1.6-1.2,2.2c-0.7,0.8-1.6,1.4-2.6,1.7s-2.2,0.5-3.5,0.5
				c-2.3,0-4.3-0.6-6-1.7l1.2-1.9c0.7,0.5,1.4,0.8,2.2,1.1c0.8,0.3,1.7,0.4,2.7,0.4c0.7,0,1.4-0.1,2.1-0.3c0.6-0.2,1.2-0.5,1.7-0.9
				c0.5-0.4,0.8-0.9,1.1-1.5s0.4-1.3,0.4-2.2v-1.6c-0.6,0.9-1.4,1.6-2.3,2.1c-1,0.4-2,0.7-3,0.7c-1,0-1.9-0.2-2.7-0.5
				s-1.5-0.8-2.1-1.5c-0.6-0.6-1-1.4-1.3-2.2s-0.5-1.8-0.5-2.8c0-1,0.2-2,0.5-2.8c0.3-0.9,0.8-1.6,1.4-2.2c0.6-0.6,1.3-1.1,2.1-1.5
				c0.8-0.4,1.7-0.5,2.7-0.5c1,0,2,0.2,2.9,0.7c0.9,0.4,1.7,1.1,2.3,2.1v-2.4h2.4V361z M187.3,355.5c0-0.7-0.1-1.3-0.3-1.9
				c-0.2-0.6-0.5-1.1-0.9-1.5c-0.4-0.4-0.9-0.8-1.5-1c-0.6-0.3-1.3-0.4-2.1-0.4s-1.5,0.1-2,0.4s-1,0.6-1.4,1s-0.7,1-0.9,1.5
				c-0.2,0.6-0.3,1.2-0.3,1.9s0.1,1.3,0.3,1.9c0.2,0.6,0.5,1.1,0.9,1.6s0.9,0.8,1.4,1.1c0.6,0.3,1.3,0.4,2,0.4s1.4-0.1,2-0.4
				s1.1-0.6,1.5-1.1s0.7-1,0.9-1.6S187.3,356.2,187.3,355.5z"/>
			<path d="M193.6,363.3v-14.4h2.4v2.4c0.6-0.9,1.3-1.6,2.1-2.1c0.8-0.5,1.8-0.7,2.8-0.7c1.6,0,2.8,0.5,3.7,1.4c0.9,1,1.4,2.3,1.4,4
				v9.3h-2.4v-8.7c0-0.4,0-0.9-0.1-1.3c-0.1-0.5-0.2-0.9-0.5-1.2c-0.2-0.4-0.6-0.7-1-0.9c-0.4-0.2-1-0.3-1.7-0.3
				c-0.6,0-1.2,0.1-1.8,0.3c-0.5,0.2-1,0.5-1.4,0.9c-0.4,0.4-0.7,0.9-0.9,1.4c-0.2,0.6-0.3,1.2-0.3,1.8v7.9H193.6z"/>
		</g>
	</g>
	<g>
		<g>
			<path d="M133.4,417.2c-0.6-0.9-1.4-1.7-2.3-2.2s-2-0.8-3.3-0.8c-1,0-2,0.2-2.8,0.5c-0.8,0.4-1.6,0.9-2.1,1.6s-1,1.5-1.4,2.4
				c-0.3,1-0.5,2-0.5,3.2s0.2,2.2,0.5,3.2c0.3,1,0.8,1.8,1.4,2.5s1.3,1.2,2.1,1.6c0.8,0.4,1.8,0.6,2.8,0.6c1.2,0,2.3-0.3,3.3-0.8
				c0.9-0.5,1.7-1.3,2.3-2.2l2.2,1.4c-0.8,1.3-1.9,2.2-3.2,2.9c-1.3,0.7-2.8,1.1-4.5,1.1c-1.4,0-2.7-0.3-3.9-0.8
				c-1.2-0.5-2.2-1.2-3-2.1c-0.8-0.9-1.5-2-1.9-3.2c-0.4-1.2-0.7-2.6-0.7-4c0-1.5,0.2-2.8,0.7-4.1c0.4-1.2,1.1-2.3,1.9-3.2
				c0.8-0.9,1.8-1.6,3-2.1c1.2-0.5,2.5-0.8,3.9-0.8c1.7,0,3.2,0.3,4.4,1c1.3,0.7,2.3,1.6,3.2,2.9L133.4,417.2z"/>
			<path d="M151.5,424.7c0,1.1-0.2,2.1-0.5,3c-0.3,0.9-0.8,1.7-1.4,2.4s-1.4,1.2-2.3,1.6c-0.9,0.4-1.9,0.6-3,0.6s-2.1-0.2-3-0.6
				c-0.9-0.4-1.6-0.9-2.2-1.6s-1.1-1.5-1.4-2.4c-0.3-0.9-0.5-1.9-0.5-3c0-1.1,0.2-2.1,0.5-3s0.8-1.7,1.4-2.4
				c0.6-0.7,1.4-1.2,2.2-1.6c0.9-0.4,1.9-0.6,3-0.6s2.1,0.2,3,0.6c0.9,0.4,1.6,0.9,2.3,1.6c0.6,0.7,1.1,1.5,1.4,2.4
				S151.5,423.6,151.5,424.7z M149,424.7c0-0.8-0.1-1.5-0.3-2.1c-0.2-0.7-0.5-1.2-0.9-1.7c-0.4-0.5-0.9-0.9-1.4-1.1
				c-0.6-0.3-1.2-0.4-1.9-0.4c-0.7,0-1.4,0.1-1.9,0.4c-0.6,0.3-1,0.7-1.4,1.1c-0.4,0.5-0.7,1.1-0.9,1.7c-0.2,0.7-0.3,1.4-0.3,2.1
				c0,0.7,0.1,1.5,0.3,2.1c0.2,0.7,0.5,1.2,0.9,1.7c0.4,0.5,0.9,0.9,1.4,1.1c0.6,0.3,1.2,0.4,1.9,0.4c0.7,0,1.4-0.1,1.9-0.4
				c0.6-0.3,1-0.7,1.4-1.1c0.4-0.5,0.7-1,0.9-1.7C148.9,426.1,149,425.4,149,424.7z"/>
			<path d="M154.5,431.9v-14.4h2.4v2.4c0.6-0.9,1.3-1.6,2.1-2s1.6-0.7,2.7-0.7c1.1,0,2,0.3,2.7,0.8c0.7,0.5,1.3,1.2,1.6,2.2
				c0.6-0.9,1.3-1.6,2.2-2.2c0.9-0.5,1.9-0.8,3-0.8c1.5,0,2.7,0.5,3.6,1.4c0.8,1,1.3,2.3,1.2,4v9.4h-2.4v-8.7c0-0.5,0-0.9-0.1-1.4
				s-0.2-0.8-0.4-1.2s-0.5-0.6-0.9-0.9c-0.4-0.2-0.9-0.3-1.5-0.3c-0.6,0-1.1,0.1-1.6,0.3c-0.5,0.2-0.9,0.5-1.3,0.9
				c-0.4,0.4-0.6,0.9-0.9,1.4s-0.3,1.2-0.3,1.8v8h-2.4v-8.7c0-0.5,0-0.9-0.1-1.4c-0.1-0.4-0.2-0.8-0.4-1.2s-0.5-0.6-0.9-0.9
				c-0.4-0.2-0.9-0.3-1.5-0.3c-0.6,0-1.1,0.1-1.6,0.3c-0.5,0.2-0.9,0.5-1.3,0.9c-0.4,0.4-0.7,0.9-0.9,1.4s-0.3,1.2-0.3,1.8v8H154.5z
				"/>
			<path d="M182.2,417.5v2.4c0.7-1,1.5-1.7,2.4-2.1c0.9-0.4,1.8-0.6,2.8-0.6c1,0,2,0.2,2.8,0.6c0.8,0.4,1.5,0.9,2.1,1.6
				c0.6,0.7,1,1.5,1.3,2.4c0.3,0.9,0.5,1.9,0.5,3c0,1.1-0.2,2.1-0.5,3s-0.8,1.7-1.3,2.4c-0.6,0.7-1.3,1.2-2.1,1.6
				c-0.8,0.4-1.8,0.6-2.8,0.6c-1,0-2-0.2-2.8-0.6c-0.9-0.4-1.7-1.1-2.4-2.1v7.2h-2.4v-19.3H182.2z M182.2,424.7
				c0,0.7,0.1,1.4,0.3,2.1c0.2,0.6,0.5,1.2,0.9,1.7c0.4,0.5,0.9,0.9,1.5,1.1s1.3,0.4,2,0.4c0.8,0,1.4-0.1,2-0.4s1.1-0.7,1.4-1.1
				c0.4-0.5,0.7-1,0.9-1.7s0.3-1.3,0.3-2.1c0-0.7-0.1-1.4-0.3-2.1s-0.5-1.2-0.9-1.7c-0.4-0.5-0.9-0.9-1.4-1.1
				c-0.6-0.3-1.2-0.4-2-0.4s-1.5,0.1-2.1,0.4c-0.6,0.3-1.1,0.7-1.5,1.1c-0.4,0.5-0.7,1-0.9,1.7C182.3,423.3,182.2,423.9,182.2,424.7
				z"/>
			<path d="M209.5,417.5v14.4h-2.4v-2.4c-0.6,0.9-1.3,1.6-2.2,2.1c-0.8,0.5-1.8,0.7-2.8,0.7c-1.6,0-2.8-0.5-3.8-1.4
				c-0.9-1-1.4-2.3-1.4-4.1v-9.2h2.4v8.7c0,0.4,0,0.9,0.1,1.3s0.2,0.9,0.5,1.2c0.2,0.4,0.6,0.7,1,0.9s1,0.3,1.7,0.3
				c0.6,0,1.2-0.1,1.8-0.3c0.5-0.2,1-0.5,1.4-0.9s0.7-0.9,0.9-1.4c0.2-0.6,0.3-1.2,0.3-1.8v-7.9H209.5z"/>
			<path d="M221.9,431.2c-0.8,0.7-1.9,1-3.1,1c-0.9,0-1.6-0.1-2.3-0.4c-0.7-0.3-1.2-0.8-1.5-1.4c-0.2-0.4-0.4-0.8-0.5-1.2
				s-0.2-1-0.2-1.7v-8h-2.5v-2h2.5v-4.2h2.4v4.2h4.7v2h-4.7v8c0,1.7,0.7,2.5,2.2,2.5c0.4,0,0.8-0.1,1.1-0.2c0.3-0.1,0.6-0.3,0.8-0.4
				L221.9,431.2z"/>
			<path d="M237.5,431.8c-0.3,0.1-0.5,0.2-0.8,0.2c-0.3,0-0.6,0.1-0.8,0.1c-0.7,0-1.3-0.2-1.9-0.5c-0.5-0.4-0.9-0.9-1-1.8
				c-0.6,0.9-1.4,1.5-2.3,1.9c-0.9,0.3-1.8,0.5-2.7,0.5c-1.5,0-2.7-0.4-3.6-1.2c-0.9-0.8-1.3-1.9-1.3-3.2c0-0.8,0.2-1.5,0.5-2.1
				c0.3-0.5,0.7-1,1.2-1.3s1-0.5,1.6-0.7c0.6-0.1,1.1-0.2,1.6-0.3c0.6-0.1,1.2-0.1,1.7-0.2c0.6-0.1,1.1-0.2,1.5-0.3
				c0.4-0.1,0.8-0.3,1.1-0.6c0.3-0.3,0.4-0.6,0.4-1.1c0-0.4-0.1-0.7-0.3-1c-0.2-0.3-0.5-0.5-0.8-0.7c-0.3-0.2-0.7-0.3-1.1-0.3
				s-0.8-0.1-1.2-0.1c-0.8,0-1.6,0.1-2.4,0.4c-0.8,0.3-1.5,0.6-2.2,1.1l-1.1-1.8c0.8-0.6,1.7-1.1,2.7-1.4c0.9-0.3,2-0.5,3.1-0.5
				c0.8,0,1.6,0.1,2.3,0.3s1.3,0.5,1.8,0.8c0.5,0.4,0.9,0.8,1.2,1.4c0.3,0.6,0.4,1.3,0.4,2v7c0,0.5,0.1,0.9,0.3,1.2
				c0.2,0.2,0.5,0.4,0.9,0.4c0.4,0,0.6-0.1,0.9-0.2L237.5,431.8z M232.8,423.8c-0.3,0.3-0.5,0.6-0.8,0.7c-0.3,0.2-0.6,0.3-1,0.4
				c-0.4,0.1-0.7,0.2-1.1,0.2c-0.4,0-0.8,0.1-1.3,0.2c-0.4,0.1-0.8,0.2-1.2,0.3c-0.4,0.1-0.7,0.2-1,0.4s-0.5,0.4-0.6,0.7
				c-0.2,0.3-0.2,0.6-0.2,1.1c0,0.9,0.3,1.5,0.9,1.9c0.6,0.4,1.3,0.6,2.2,0.6c0.5,0,1-0.1,1.6-0.2c0.5-0.1,1-0.4,1.4-0.7
				c0.4-0.3,0.7-0.7,1-1.2c0.2-0.5,0.4-1.1,0.4-1.8V423.8z"/>
			<path d="M248.1,431.2c-0.8,0.7-1.9,1-3.1,1c-0.9,0-1.6-0.1-2.3-0.4c-0.7-0.3-1.2-0.8-1.5-1.4c-0.2-0.4-0.4-0.8-0.5-1.2
				s-0.2-1-0.2-1.7v-8H238v-2h2.5v-4.2h2.4v4.2h4.7v2h-4.7v8c0,1.7,0.7,2.5,2.2,2.5c0.4,0,0.8-0.1,1.1-0.2c0.3-0.1,0.6-0.3,0.8-0.4
				L248.1,431.2z"/>
			<path d="M250.2,414.3v-2.4h2.4v2.4H250.2z M250.2,431.9v-14.4h2.4v14.4H250.2z"/>
			<path d="M270,424.7c0,1.1-0.2,2.1-0.5,3c-0.3,0.9-0.8,1.7-1.4,2.4s-1.4,1.2-2.3,1.6c-0.9,0.4-1.9,0.6-3,0.6s-2.1-0.2-3-0.6
				c-0.9-0.4-1.6-0.9-2.2-1.6s-1.1-1.5-1.4-2.4c-0.3-0.9-0.5-1.9-0.5-3c0-1.1,0.2-2.1,0.5-3c0.3-0.9,0.8-1.7,1.4-2.4
				c0.6-0.7,1.4-1.2,2.2-1.6c0.9-0.4,1.9-0.6,3-0.6s2.1,0.2,3,0.6c0.9,0.4,1.6,0.9,2.3,1.6c0.6,0.7,1.1,1.5,1.4,2.4
				S270,423.6,270,424.7z M267.4,424.7c0-0.8-0.1-1.5-0.3-2.1c-0.2-0.7-0.5-1.2-0.9-1.7c-0.4-0.5-0.9-0.9-1.4-1.1
				c-0.6-0.3-1.2-0.4-1.9-0.4c-0.7,0-1.4,0.1-1.9,0.4c-0.6,0.3-1,0.7-1.4,1.1c-0.4,0.5-0.7,1.1-0.9,1.7c-0.2,0.7-0.3,1.4-0.3,2.1
				c0,0.7,0.1,1.5,0.3,2.1c0.2,0.7,0.5,1.2,0.9,1.7c0.4,0.5,0.9,0.9,1.4,1.1c0.6,0.3,1.2,0.4,1.9,0.4c0.7,0,1.4-0.1,1.9-0.4
				c0.6-0.3,1-0.7,1.4-1.1c0.4-0.5,0.7-1,0.9-1.7C267.3,426.1,267.4,425.4,267.4,424.7z"/>
			<path d="M273,431.9v-14.4h2.4v2.4c0.6-0.9,1.3-1.6,2.1-2.1c0.8-0.5,1.8-0.7,2.8-0.7c1.6,0,2.8,0.5,3.7,1.4c0.9,1,1.4,2.3,1.4,4
				v9.3h-2.4v-8.7c0-0.4,0-0.9-0.1-1.3c-0.1-0.5-0.2-0.9-0.5-1.2c-0.2-0.4-0.6-0.7-1-0.9c-0.4-0.2-1-0.3-1.7-0.3
				c-0.6,0-1.2,0.1-1.8,0.3c-0.5,0.2-1,0.5-1.4,0.9c-0.4,0.4-0.7,0.9-0.9,1.4c-0.2,0.6-0.3,1.2-0.3,1.8v7.9H273z"/>
			<path d="M302.8,431.8c-0.3,0.1-0.5,0.2-0.8,0.2c-0.3,0-0.6,0.1-0.8,0.1c-0.7,0-1.3-0.2-1.9-0.5c-0.5-0.4-0.9-0.9-1-1.8
				c-0.6,0.9-1.4,1.5-2.3,1.9c-0.9,0.3-1.8,0.5-2.7,0.5c-1.5,0-2.7-0.4-3.6-1.2c-0.9-0.8-1.3-1.9-1.3-3.2c0-0.8,0.2-1.5,0.5-2.1
				s0.7-1,1.2-1.3s1-0.5,1.6-0.7c0.6-0.1,1.1-0.2,1.6-0.3c0.6-0.1,1.2-0.1,1.7-0.2c0.6-0.1,1.1-0.2,1.5-0.3c0.4-0.1,0.8-0.3,1.1-0.6
				c0.3-0.3,0.4-0.6,0.4-1.1c0-0.4-0.1-0.7-0.3-1s-0.5-0.5-0.8-0.7c-0.3-0.2-0.7-0.3-1.1-0.3s-0.8-0.1-1.2-0.1
				c-0.8,0-1.6,0.1-2.4,0.4s-1.5,0.6-2.2,1.1l-1.1-1.8c0.8-0.6,1.7-1.1,2.7-1.4s2-0.5,3.1-0.5c0.8,0,1.6,0.1,2.3,0.3
				c0.7,0.2,1.3,0.5,1.8,0.8c0.5,0.4,0.9,0.8,1.2,1.4c0.3,0.6,0.4,1.3,0.4,2v7c0,0.5,0.1,0.9,0.3,1.2c0.2,0.2,0.5,0.4,0.9,0.4
				c0.4,0,0.6-0.1,0.9-0.2L302.8,431.8z M298.1,423.8c-0.3,0.3-0.5,0.6-0.8,0.7c-0.3,0.2-0.6,0.3-1,0.4c-0.4,0.1-0.7,0.2-1.1,0.2
				c-0.4,0-0.8,0.1-1.3,0.2c-0.4,0.1-0.8,0.2-1.2,0.3c-0.4,0.1-0.7,0.2-1,0.4c-0.3,0.2-0.5,0.4-0.6,0.7c-0.2,0.3-0.2,0.6-0.2,1.1
				c0,0.9,0.3,1.5,0.9,1.9c0.6,0.4,1.3,0.6,2.2,0.6c0.5,0,1-0.1,1.6-0.2c0.5-0.1,1-0.4,1.4-0.7c0.4-0.3,0.7-0.7,1-1.2
				c0.2-0.5,0.4-1.1,0.4-1.8V423.8z"/>
			<path d="M305,431.9v-20h2.4v20H305z"/>
			<path d="M119.6,465.5v-19.6h7.6c1.5,0,2.9,0.2,4,0.7c1.2,0.5,2.2,1.2,3,2.1c0.8,0.9,1.4,1.9,1.8,3.1c0.4,1.2,0.6,2.5,0.6,3.9
				c0,1.4-0.2,2.7-0.6,3.9c-0.4,1.2-1,2.2-1.8,3.1c-0.8,0.9-1.8,1.6-3,2.1c-1.2,0.5-2.5,0.7-4,0.7H119.6z M127.1,463.1
				c1.1,0,2-0.2,2.9-0.5c0.8-0.4,1.5-0.9,2.1-1.5c0.6-0.6,1-1.4,1.3-2.3c0.3-0.9,0.4-1.9,0.4-3s-0.1-2.1-0.4-3
				c-0.3-0.9-0.7-1.7-1.3-2.3c-0.6-0.6-1.3-1.1-2.1-1.5s-1.8-0.5-2.9-0.5h-5v14.8H127.1z"/>
			<path d="M152.9,457.8c0,0.2,0,0.4,0,0.6s0,0.3,0,0.4h-11.5c0,0.6,0.1,1.1,0.3,1.7c0.2,0.6,0.4,1,0.8,1.4c0.9,1.2,2.2,1.7,3.9,1.7
				c1.7,0,3.1-0.6,4.3-1.9l1.6,1.6c-0.7,0.8-1.6,1.4-2.6,1.8s-2.1,0.7-3.4,0.7c-1.2,0-2.2-0.2-3.1-0.6c-0.9-0.4-1.7-0.9-2.3-1.6
				c-0.6-0.7-1.1-1.5-1.4-2.4c-0.3-0.9-0.5-1.9-0.5-3s0.2-2.1,0.5-3c0.3-0.9,0.8-1.7,1.4-2.4s1.4-1.2,2.2-1.6c0.9-0.4,1.9-0.6,3-0.6
				c1.1,0,2,0.2,2.9,0.5s1.6,0.9,2.2,1.5s1.1,1.4,1.4,2.3S152.9,456.8,152.9,457.8z M150.4,457c0-0.4-0.1-0.7-0.2-1
				c-0.1-0.3-0.2-0.6-0.4-0.9c-0.4-0.7-0.9-1.3-1.6-1.7c-0.7-0.4-1.5-0.6-2.3-0.6c-0.6,0-1.2,0.1-1.8,0.3c-0.5,0.2-1,0.5-1.4,0.9
				s-0.7,0.8-0.9,1.3s-0.4,1.1-0.4,1.7H150.4z"/>
			<path d="M166.9,461.2c0,1.4-0.5,2.5-1.6,3.3c-1,0.9-2.5,1.3-4.4,1.3c-1.4,0-2.7-0.3-3.8-0.8c-1.1-0.5-2-1.2-2.6-2.2l1.7-1.4
				c0.6,0.8,1.2,1.3,2.1,1.8c0.8,0.4,1.7,0.6,2.8,0.6c1,0,1.8-0.2,2.5-0.6c0.7-0.4,1-1,1-1.8c0-0.4-0.1-0.7-0.2-0.9
				c-0.2-0.2-0.4-0.4-0.7-0.6c-0.3-0.2-0.7-0.3-1.2-0.4c-0.5-0.1-1.1-0.2-1.8-0.4c-0.7-0.1-1.3-0.3-1.9-0.5
				c-0.6-0.2-1.2-0.4-1.7-0.7c-0.5-0.3-0.9-0.7-1.1-1.2s-0.4-1.1-0.4-1.8c0-0.7,0.1-1.4,0.4-1.9c0.3-0.5,0.7-1,1.2-1.3
				c0.5-0.3,1.1-0.6,1.7-0.8c0.6-0.2,1.3-0.2,2-0.2c0.7,0,1.3,0.1,1.9,0.2s1.1,0.3,1.6,0.5c0.5,0.2,0.9,0.5,1.3,0.8
				c0.4,0.3,0.7,0.6,1,0.9l-1.6,1.5c-0.5-0.6-1.2-1.1-1.9-1.4c-0.7-0.3-1.5-0.4-2.4-0.4c-0.4,0-0.8,0-1.1,0.1
				c-0.4,0.1-0.7,0.2-1,0.3c-0.3,0.1-0.5,0.4-0.7,0.6s-0.3,0.6-0.3,0.9c0,0.4,0.1,0.7,0.3,0.9c0.2,0.2,0.5,0.4,0.8,0.6
				c0.3,0.2,0.7,0.3,1.1,0.4s0.9,0.2,1.4,0.3c0.7,0.1,1.4,0.3,2.1,0.4s1.3,0.4,1.8,0.7c0.5,0.3,0.9,0.7,1.3,1.2
				C166.7,459.8,166.9,460.5,166.9,461.2z"/>
			<path d="M169.9,447.9v-2.4h2.4v2.4H169.9z M169.9,465.5v-14.4h2.4v14.4H169.9z"/>
			<path d="M189.7,463.2c0,1.1-0.1,2.1-0.3,2.9c-0.2,0.8-0.6,1.6-1.2,2.2c-0.7,0.8-1.6,1.4-2.6,1.7s-2.2,0.5-3.5,0.5
				c-2.3,0-4.3-0.6-6-1.7l1.2-1.9c0.7,0.5,1.4,0.8,2.2,1.1c0.8,0.3,1.7,0.4,2.7,0.4c0.7,0,1.4-0.1,2.1-0.3c0.6-0.2,1.2-0.5,1.7-0.9
				c0.5-0.4,0.8-0.9,1.1-1.5s0.4-1.3,0.4-2.2v-1.6c-0.6,0.9-1.4,1.6-2.3,2.1c-1,0.4-2,0.7-3,0.7c-1,0-1.9-0.2-2.7-0.5
				s-1.5-0.8-2.1-1.5c-0.6-0.6-1-1.4-1.3-2.2s-0.5-1.8-0.5-2.8c0-1,0.2-2,0.5-2.8c0.3-0.9,0.8-1.6,1.4-2.2c0.6-0.6,1.3-1.1,2.1-1.5
				c0.8-0.4,1.7-0.5,2.7-0.5c1,0,2,0.2,2.9,0.7c0.9,0.4,1.7,1.1,2.3,2.1v-2.4h2.4V463.2z M187.3,457.7c0-0.7-0.1-1.3-0.3-1.9
				c-0.2-0.6-0.5-1.1-0.9-1.5c-0.4-0.4-0.9-0.8-1.5-1c-0.6-0.3-1.3-0.4-2.1-0.4s-1.5,0.1-2,0.4s-1,0.6-1.4,1s-0.7,1-0.9,1.5
				c-0.2,0.6-0.3,1.2-0.3,1.9s0.1,1.3,0.3,1.9c0.2,0.6,0.5,1.1,0.9,1.6s0.9,0.8,1.4,1.1c0.6,0.3,1.3,0.4,2,0.4s1.4-0.1,2-0.4
				s1.1-0.6,1.5-1.1s0.7-1,0.9-1.6S187.3,458.4,187.3,457.7z"/>
			<path d="M193.6,465.5v-14.4h2.4v2.4c0.6-0.9,1.3-1.6,2.1-2.1c0.8-0.5,1.8-0.7,2.8-0.7c1.6,0,2.8,0.5,3.7,1.4c0.9,1,1.4,2.3,1.4,4
				v9.3h-2.4v-8.7c0-0.4,0-0.9-0.1-1.3c-0.1-0.5-0.2-0.9-0.5-1.2c-0.2-0.4-0.6-0.7-1-0.9c-0.4-0.2-1-0.3-1.7-0.3
				c-0.6,0-1.2,0.1-1.8,0.3c-0.5,0.2-1,0.5-1.4,0.9c-0.4,0.4-0.7,0.9-0.9,1.4c-0.2,0.6-0.3,1.2-0.3,1.8v7.9H193.6z"/>
			<path d="M223.1,457.8c0,0.2,0,0.4,0,0.6c0,0.1,0,0.3,0,0.4h-11.5c0,0.6,0.1,1.1,0.3,1.7c0.2,0.6,0.4,1,0.8,1.4
				c0.9,1.2,2.2,1.7,3.9,1.7s3.1-0.6,4.3-1.9l1.6,1.6c-0.7,0.8-1.6,1.4-2.6,1.8c-1,0.4-2.1,0.7-3.4,0.7c-1.2,0-2.2-0.2-3.2-0.6
				c-0.9-0.4-1.7-0.9-2.3-1.6s-1.1-1.5-1.4-2.4c-0.3-0.9-0.5-1.9-0.5-3s0.2-2.1,0.5-3c0.3-0.9,0.8-1.7,1.4-2.4
				c0.6-0.7,1.4-1.2,2.2-1.6s1.9-0.6,3-0.6c1.1,0,2,0.2,2.9,0.5c0.9,0.4,1.6,0.9,2.2,1.5s1.1,1.4,1.4,2.3
				C222.9,455.9,223.1,456.8,223.1,457.8z M220.6,457c0-0.4-0.1-0.7-0.2-1c-0.1-0.3-0.2-0.6-0.4-0.9c-0.4-0.7-0.9-1.3-1.6-1.7
				c-0.7-0.4-1.5-0.6-2.3-0.6c-0.6,0-1.2,0.1-1.8,0.3c-0.5,0.2-1,0.5-1.4,0.9c-0.4,0.4-0.7,0.8-0.9,1.3c-0.2,0.5-0.4,1.1-0.4,1.7
				H220.6z"/>
			<path d="M233.8,453.6c-0.3-0.1-0.5-0.2-0.8-0.3c-0.3-0.1-0.6-0.1-0.9-0.1c-0.5,0-1,0.1-1.4,0.3c-0.5,0.2-0.9,0.5-1.2,0.9
				s-0.6,0.9-0.8,1.5s-0.3,1.3-0.3,2.1v7.5H226v-14.4h2.4v2.5c0.5-0.8,1.1-1.4,1.8-2s1.5-0.8,2.4-0.8c0.4,0,0.8,0.1,1.2,0.2
				s0.6,0.2,0.8,0.4L233.8,453.6z"/>
		</g>
	</g>
	<g>
		<g>
			<path d="M134.6,559.8c0,0.9-0.1,1.7-0.4,2.5s-0.7,1.4-1.3,1.9c-0.6,0.5-1.3,0.9-2.2,1.2c-0.9,0.3-1.8,0.4-3,0.4h-5.6v7.6h-2.6
				v-19.6h8.1c1.1,0,2.1,0.1,3,0.4c0.9,0.3,1.6,0.7,2.2,1.2c0.6,0.5,1,1.2,1.3,1.9C134.5,558.1,134.6,559,134.6,559.8z M127.7,563.5
				c1.4,0,2.5-0.3,3.2-1c0.7-0.7,1-1.5,1-2.6c0-1.1-0.3-2-1-2.6c-0.7-0.6-1.7-1-3.2-1h-5.6v7.3H127.7z"/>
			<path d="M145,561.5c-0.3-0.1-0.5-0.2-0.8-0.3c-0.3-0.1-0.6-0.1-0.9-0.1c-0.5,0-1,0.1-1.4,0.3c-0.5,0.2-0.9,0.5-1.2,0.9
				c-0.4,0.4-0.6,0.9-0.8,1.5c-0.2,0.6-0.3,1.3-0.3,2.1v7.5h-2.4V559h2.4v2.5c0.5-0.8,1.1-1.4,1.8-2c0.7-0.5,1.5-0.8,2.4-0.8
				c0.4,0,0.8,0.1,1.2,0.2c0.3,0.1,0.6,0.2,0.8,0.4L145,561.5z"/>
			<path d="M161.1,566.2c0,1.1-0.2,2.1-0.5,3c-0.3,0.9-0.8,1.7-1.4,2.4c-0.6,0.7-1.4,1.2-2.3,1.6c-0.9,0.4-1.9,0.6-3,0.6
				c-1.1,0-2.1-0.2-3-0.6c-0.9-0.4-1.6-0.9-2.2-1.6c-0.6-0.7-1.1-1.5-1.4-2.4c-0.3-0.9-0.5-1.9-0.5-3c0-1.1,0.2-2.1,0.5-3
				s0.8-1.7,1.4-2.4c0.6-0.7,1.4-1.2,2.2-1.6c0.9-0.4,1.9-0.6,3-0.6c1.1,0,2.1,0.2,3,0.6s1.6,0.9,2.3,1.6c0.6,0.7,1.1,1.5,1.4,2.4
				S161.1,565.1,161.1,566.2z M158.5,566.2c0-0.8-0.1-1.5-0.3-2.1c-0.2-0.7-0.5-1.2-0.9-1.7c-0.4-0.5-0.9-0.9-1.4-1.1
				c-0.6-0.3-1.2-0.4-1.9-0.4c-0.7,0-1.4,0.1-1.9,0.4c-0.6,0.3-1,0.7-1.4,1.1c-0.4,0.5-0.7,1.1-0.9,1.7c-0.2,0.7-0.3,1.4-0.3,2.1
				c0,0.7,0.1,1.5,0.3,2.1c0.2,0.7,0.5,1.2,0.9,1.7c0.4,0.5,0.9,0.9,1.4,1.1c0.6,0.3,1.2,0.4,1.9,0.4c0.7,0,1.4-0.1,1.9-0.4
				c0.6-0.3,1.1-0.7,1.4-1.1s0.7-1,0.9-1.7C158.4,567.7,158.5,567,158.5,566.2z"/>
			<path d="M166.5,573.5c0,0.9-0.1,1.6-0.4,2.2c-0.2,0.6-0.6,1.2-1,1.6s-0.9,0.7-1.5,0.9c-0.6,0.2-1.2,0.3-1.9,0.3
				c-0.4,0-0.9,0-1.3-0.1c-0.4-0.1-0.7-0.2-1-0.3l0.6-2c0.4,0.2,0.9,0.3,1.5,0.3c1,0,1.6-0.3,2-0.8c0.4-0.5,0.6-1.2,0.6-2.1V559h2.4
				V573.5z M164.1,555.9v-2.4h2.4v2.4H164.1z"/>
			<path d="M183.7,565.8c0,0.2,0,0.4,0,0.6s0,0.3,0,0.4h-11.5c0,0.6,0.1,1.1,0.3,1.7c0.2,0.6,0.4,1,0.8,1.4c0.9,1.2,2.2,1.7,3.9,1.7
				c1.7,0,3.1-0.6,4.3-1.9l1.6,1.6c-0.7,0.8-1.6,1.4-2.6,1.8s-2.1,0.7-3.4,0.7c-1.2,0-2.2-0.2-3.1-0.6c-0.9-0.4-1.7-0.9-2.3-1.6
				c-0.6-0.7-1.1-1.5-1.4-2.4c-0.3-0.9-0.5-1.9-0.5-3s0.2-2.1,0.5-3c0.3-0.9,0.8-1.7,1.4-2.4s1.4-1.2,2.2-1.6c0.9-0.4,1.9-0.6,3-0.6
				c1.1,0,2,0.2,2.9,0.5s1.6,0.9,2.2,1.5s1.1,1.4,1.4,2.3S183.7,564.8,183.7,565.8z M181.2,564.9c0-0.4-0.1-0.7-0.2-1
				c-0.1-0.3-0.2-0.6-0.4-0.9c-0.4-0.7-0.9-1.3-1.6-1.7c-0.7-0.4-1.5-0.6-2.3-0.6c-0.6,0-1.2,0.1-1.8,0.3c-0.5,0.2-1,0.5-1.4,0.9
				s-0.7,0.8-0.9,1.3s-0.4,1.1-0.4,1.7H181.2z"/>
			<path d="M198.5,570.7c-0.6,0.9-1.4,1.6-2.4,2.2c-1,0.6-2.1,0.9-3.5,0.9c-1.1,0-2.1-0.2-2.9-0.6c-0.9-0.4-1.6-0.9-2.2-1.6
				c-0.6-0.7-1.1-1.5-1.4-2.4c-0.3-0.9-0.5-1.9-0.5-3c0-1.1,0.2-2.1,0.5-3c0.3-0.9,0.8-1.7,1.4-2.4c0.6-0.7,1.4-1.2,2.2-1.6
				c0.9-0.4,1.8-0.6,2.9-0.6c1.3,0,2.5,0.3,3.4,0.8c1,0.6,1.8,1.3,2.4,2.2l-1.9,1.3c-0.4-0.7-1-1.2-1.6-1.6
				c-0.6-0.4-1.4-0.6-2.3-0.6c-0.7,0-1.3,0.1-1.9,0.4c-0.6,0.3-1,0.6-1.4,1.1c-0.4,0.5-0.7,1-0.9,1.7s-0.3,1.4-0.3,2.1
				s0.1,1.5,0.3,2.1c0.2,0.7,0.5,1.2,0.9,1.7s0.9,0.8,1.4,1.1c0.6,0.3,1.2,0.4,1.9,0.4c0.9,0,1.7-0.2,2.4-0.6
				c0.7-0.4,1.2-0.9,1.6-1.6L198.5,570.7z"/>
			<path d="M209.7,572.8c-0.8,0.7-1.9,1-3.1,1c-0.9,0-1.6-0.1-2.3-0.4c-0.7-0.3-1.2-0.8-1.5-1.4c-0.2-0.4-0.4-0.8-0.5-1.2
				s-0.2-1-0.2-1.7v-8h-2.5v-2h2.5v-4.2h2.4v4.2h4.7v2h-4.7v8c0,1.7,0.7,2.5,2.2,2.5c0.4,0,0.8-0.1,1.1-0.2c0.3-0.1,0.6-0.3,0.8-0.4
				L209.7,572.8z"/>
			<path d="M119.6,607v-19.6h2.6v17.2h10.9v2.4H119.6z"/>
			<path d="M148.6,599.4c0,0.2,0,0.4,0,0.6s0,0.3,0,0.4h-11.5c0,0.6,0.1,1.1,0.3,1.7c0.2,0.6,0.4,1,0.8,1.4c0.9,1.2,2.2,1.7,3.9,1.7
				c1.7,0,3.1-0.6,4.3-1.9l1.6,1.6c-0.7,0.8-1.6,1.4-2.6,1.8s-2.1,0.7-3.4,0.7c-1.2,0-2.2-0.2-3.1-0.6c-0.9-0.4-1.7-0.9-2.3-1.6
				c-0.6-0.7-1.1-1.5-1.4-2.4c-0.3-0.9-0.5-1.9-0.5-3s0.2-2.1,0.5-3c0.3-0.9,0.8-1.7,1.4-2.4s1.4-1.2,2.2-1.6c0.9-0.4,1.9-0.6,3-0.6
				c1.1,0,2,0.2,2.9,0.5s1.6,0.9,2.2,1.5s1.1,1.4,1.4,2.3S148.6,598.4,148.6,599.4z M146.1,598.5c0-0.4-0.1-0.7-0.2-1
				c-0.1-0.3-0.2-0.6-0.4-0.9c-0.4-0.7-0.9-1.3-1.6-1.7c-0.7-0.4-1.5-0.6-2.3-0.6c-0.6,0-1.2,0.1-1.8,0.3c-0.5,0.2-1,0.5-1.4,0.9
				s-0.7,0.8-0.9,1.3s-0.4,1.1-0.4,1.7H146.1z"/>
			<path d="M165,607c-0.3,0.1-0.5,0.2-0.8,0.2c-0.3,0-0.6,0.1-0.8,0.1c-0.7,0-1.3-0.2-1.9-0.5c-0.5-0.4-0.9-0.9-1-1.8
				c-0.6,0.9-1.4,1.5-2.3,1.9c-0.9,0.3-1.8,0.5-2.7,0.5c-1.5,0-2.7-0.4-3.6-1.2c-0.9-0.8-1.3-1.9-1.3-3.2c0-0.8,0.2-1.5,0.5-2.1
				c0.3-0.5,0.7-1,1.2-1.3s1-0.5,1.6-0.7c0.6-0.1,1.1-0.2,1.6-0.3c0.6-0.1,1.2-0.1,1.7-0.2c0.6-0.1,1.1-0.2,1.5-0.3
				c0.4-0.1,0.8-0.3,1.1-0.6c0.3-0.3,0.4-0.6,0.4-1.1c0-0.4-0.1-0.7-0.3-1c-0.2-0.3-0.5-0.5-0.8-0.7c-0.3-0.2-0.7-0.3-1.1-0.3
				s-0.8-0.1-1.2-0.1c-0.8,0-1.6,0.1-2.4,0.4c-0.8,0.3-1.5,0.6-2.2,1.1l-1.1-1.8c0.8-0.6,1.7-1.1,2.7-1.4c0.9-0.3,2-0.5,3.1-0.5
				c0.8,0,1.6,0.1,2.3,0.3s1.3,0.5,1.8,0.8c0.5,0.4,0.9,0.8,1.2,1.4c0.3,0.6,0.4,1.3,0.4,2v7c0,0.5,0.1,0.9,0.3,1.2
				c0.2,0.2,0.5,0.4,0.9,0.4c0.4,0,0.6-0.1,0.9-0.2L165,607z M160.2,598.9c-0.3,0.3-0.5,0.6-0.8,0.7c-0.3,0.2-0.6,0.3-1,0.4
				c-0.4,0.1-0.7,0.2-1.1,0.2c-0.4,0-0.8,0.1-1.3,0.2c-0.4,0.1-0.8,0.2-1.2,0.3c-0.4,0.1-0.7,0.2-1,0.4s-0.5,0.4-0.6,0.7
				c-0.2,0.3-0.2,0.6-0.2,1.1c0,0.9,0.3,1.5,0.9,1.9c0.6,0.4,1.3,0.6,2.2,0.6c0.5,0,1-0.1,1.6-0.2c0.5-0.1,1-0.4,1.4-0.7
				c0.4-0.3,0.7-0.7,1-1.2c0.2-0.5,0.4-1.1,0.4-1.8V598.9z"/>
			<path d="M178,607v-2.4c-0.7,1-1.5,1.7-2.4,2.1c-0.9,0.4-1.8,0.6-2.8,0.6c-1,0-2-0.2-2.8-0.6c-0.8-0.4-1.5-0.9-2.1-1.6
				c-0.6-0.7-1-1.5-1.3-2.4c-0.3-0.9-0.5-1.9-0.5-3c0-1.1,0.2-2.1,0.5-3c0.3-0.9,0.8-1.7,1.3-2.4c0.6-0.7,1.3-1.2,2.1-1.6
				s1.8-0.6,2.8-0.6c1,0,2,0.2,2.8,0.6c0.9,0.4,1.7,1.1,2.4,2.1v-8h2.4v20H178z M178,599.8c0-0.7-0.1-1.4-0.3-2.1
				c-0.2-0.6-0.5-1.2-0.9-1.7c-0.4-0.5-0.9-0.9-1.5-1.1s-1.3-0.4-2-0.4s-1.4,0.1-2,0.4c-0.6,0.3-1.1,0.7-1.4,1.1
				c-0.4,0.5-0.7,1-0.9,1.7c-0.2,0.7-0.3,1.3-0.3,2.1c0,0.7,0.1,1.4,0.3,2.1c0.2,0.7,0.5,1.2,0.9,1.7c0.4,0.5,0.9,0.9,1.4,1.1
				s1.2,0.4,2,0.4s1.5-0.1,2.1-0.4c0.6-0.3,1.1-0.7,1.5-1.1c0.4-0.5,0.7-1,0.9-1.7C177.9,601.2,178,600.6,178,599.8z"/>
			<path d="M197.5,599.4c0,0.2,0,0.4,0,0.6c0,0.1,0,0.3,0,0.4H186c0,0.6,0.1,1.1,0.3,1.7c0.2,0.6,0.4,1,0.8,1.4
				c0.9,1.2,2.2,1.7,3.9,1.7s3.1-0.6,4.3-1.9l1.6,1.6c-0.7,0.8-1.6,1.4-2.6,1.8c-1,0.4-2.1,0.7-3.4,0.7c-1.2,0-2.2-0.2-3.2-0.6
				c-0.9-0.4-1.7-0.9-2.3-1.6s-1.1-1.5-1.4-2.4c-0.3-0.9-0.5-1.9-0.5-3s0.2-2.1,0.5-3c0.3-0.9,0.8-1.7,1.4-2.4
				c0.6-0.7,1.4-1.2,2.2-1.6s1.9-0.6,3-0.6c1.1,0,2,0.2,2.9,0.5c0.9,0.4,1.6,0.9,2.2,1.5s1.1,1.4,1.4,2.3
				C197.4,597.4,197.5,598.4,197.5,599.4z M195.1,598.5c0-0.4-0.1-0.7-0.2-1c-0.1-0.3-0.2-0.6-0.4-0.9c-0.4-0.7-0.9-1.3-1.6-1.7
				c-0.7-0.4-1.5-0.6-2.3-0.6c-0.6,0-1.2,0.1-1.8,0.3c-0.5,0.2-1,0.5-1.4,0.9c-0.4,0.4-0.7,0.8-0.9,1.3c-0.2,0.5-0.4,1.1-0.4,1.7
				H195.1z"/>
			<path d="M208.3,595.1c-0.3-0.1-0.5-0.2-0.8-0.3c-0.3-0.1-0.6-0.1-0.9-0.1c-0.5,0-1,0.1-1.4,0.3c-0.5,0.2-0.9,0.5-1.2,0.9
				s-0.6,0.9-0.8,1.5s-0.3,1.3-0.3,2.1v7.5h-2.4v-14.4h2.4v2.5c0.5-0.8,1.1-1.4,1.8-2s1.5-0.8,2.4-0.8c0.4,0,0.8,0.1,1.2,0.2
				s0.6,0.2,0.8,0.4L208.3,595.1z"/>
		</g>
	</g>
	<g>
		<g>
			<path d="M135.3,716.9c0,1.2-0.2,2.2-0.6,3.2s-1,1.8-1.7,2.4c-0.7,0.7-1.6,1.2-2.5,1.6c-1,0.4-2,0.5-3.2,0.5
				c-1.2,0-2.2-0.2-3.2-0.5c-1-0.4-1.8-0.9-2.5-1.6c-0.7-0.7-1.3-1.5-1.7-2.4c-0.4-1-0.6-2-0.6-3.2v-12.2h2.6v12.2
				c0,1.6,0.5,2.9,1.4,3.9c1,1,2.3,1.4,4,1.4c0.8,0,1.6-0.1,2.2-0.4c0.7-0.3,1.2-0.6,1.7-1.1c0.5-0.5,0.8-1,1.1-1.7s0.4-1.4,0.4-2.2
				v-12.2h2.6V716.9z"/>
			<path d="M152.7,724.2l-6.1-8.3l-6.2,8.3h-3.1l7.6-10.2l-7.1-9.4h3.1l5.6,7.7l5.6-7.7h3l-7,9.4l7.6,10.2H152.7z"/>
			<path d="M165.8,724.2v-19.6h7.6c1.5,0,2.9,0.2,4,0.7c1.2,0.5,2.2,1.2,3,2.1c0.8,0.9,1.4,1.9,1.8,3.1c0.4,1.2,0.6,2.5,0.6,3.9
				c0,1.4-0.2,2.7-0.6,3.9c-0.4,1.2-1,2.2-1.8,3.1c-0.8,0.9-1.8,1.6-3,2.1c-1.2,0.5-2.5,0.7-4,0.7H165.8z M173.3,721.8
				c1.1,0,2-0.2,2.9-0.5c0.8-0.4,1.5-0.9,2.1-1.5c0.6-0.6,1-1.4,1.3-2.3s0.4-1.9,0.4-3s-0.1-2.1-0.4-3s-0.7-1.7-1.3-2.3
				c-0.6-0.6-1.3-1.1-2.1-1.5s-1.8-0.5-2.9-0.5h-5v14.8H173.3z"/>
			<path d="M199.1,716.6c0,0.2,0,0.4,0,0.6s0,0.3,0,0.4h-11.5c0,0.6,0.1,1.1,0.3,1.7c0.2,0.6,0.4,1,0.8,1.4c0.9,1.2,2.2,1.7,3.9,1.7
				s3.1-0.6,4.3-1.9l1.6,1.6c-0.7,0.8-1.6,1.4-2.6,1.8c-1,0.4-2.1,0.7-3.4,0.7c-1.2,0-2.2-0.2-3.2-0.6c-0.9-0.4-1.7-0.9-2.3-1.6
				s-1.1-1.5-1.4-2.4c-0.3-0.9-0.5-1.9-0.5-3s0.2-2.1,0.5-3c0.3-0.9,0.8-1.7,1.4-2.4s1.4-1.2,2.2-1.6c0.9-0.4,1.9-0.6,3-0.6
				c1.1,0,2,0.2,2.9,0.5c0.9,0.4,1.6,0.9,2.2,1.5s1.1,1.4,1.4,2.3C198.9,714.7,199.1,715.6,199.1,716.6z M196.6,715.7
				c0-0.4-0.1-0.7-0.2-1c-0.1-0.3-0.2-0.6-0.4-0.9c-0.4-0.7-0.9-1.3-1.6-1.7c-0.7-0.4-1.5-0.6-2.3-0.6c-0.6,0-1.2,0.1-1.8,0.3
				c-0.5,0.2-1,0.5-1.4,0.9s-0.7,0.8-0.9,1.3s-0.4,1.1-0.4,1.7H196.6z"/>
			<path d="M213.1,720c0,1.4-0.5,2.5-1.6,3.3c-1,0.9-2.5,1.3-4.4,1.3c-1.4,0-2.7-0.3-3.8-0.8c-1.1-0.5-2-1.2-2.6-2.2l1.7-1.4
				c0.6,0.8,1.2,1.3,2.1,1.8c0.8,0.4,1.7,0.6,2.8,0.6c1,0,1.8-0.2,2.5-0.6c0.7-0.4,1-1,1-1.8c0-0.4-0.1-0.7-0.2-0.9
				s-0.4-0.4-0.7-0.6c-0.3-0.2-0.7-0.3-1.2-0.4c-0.5-0.1-1.1-0.2-1.8-0.4c-0.7-0.1-1.3-0.3-1.9-0.5c-0.6-0.2-1.2-0.4-1.7-0.7
				c-0.5-0.3-0.9-0.7-1.1-1.2c-0.3-0.5-0.4-1.1-0.4-1.8c0-0.7,0.1-1.4,0.4-1.9c0.3-0.5,0.7-1,1.2-1.3c0.5-0.3,1.1-0.6,1.7-0.8
				c0.6-0.2,1.3-0.2,2-0.2c0.7,0,1.3,0.1,1.9,0.2s1.1,0.3,1.6,0.5c0.5,0.2,0.9,0.5,1.3,0.8c0.4,0.3,0.7,0.6,1,0.9l-1.6,1.5
				c-0.5-0.6-1.2-1.1-1.9-1.4c-0.7-0.3-1.5-0.4-2.4-0.4c-0.4,0-0.8,0-1.1,0.1c-0.4,0.1-0.7,0.2-1,0.3c-0.3,0.1-0.5,0.4-0.7,0.6
				c-0.2,0.3-0.3,0.6-0.3,0.9c0,0.4,0.1,0.7,0.3,0.9c0.2,0.2,0.5,0.4,0.8,0.6s0.7,0.3,1.1,0.4c0.4,0.1,0.9,0.2,1.4,0.3
				c0.7,0.1,1.4,0.3,2.1,0.4s1.3,0.4,1.8,0.7c0.5,0.3,0.9,0.7,1.3,1.2C212.9,718.6,213.1,719.2,213.1,720z"/>
			<path d="M216.1,706.7v-2.4h2.4v2.4H216.1z M216.1,724.2v-14.4h2.4v14.4H216.1z"/>
			<path d="M235.9,722c0,1.1-0.1,2.1-0.4,2.9c-0.2,0.8-0.6,1.6-1.2,2.2c-0.7,0.8-1.6,1.4-2.6,1.7s-2.2,0.5-3.5,0.5
				c-2.3,0-4.3-0.6-6-1.7l1.2-1.9c0.7,0.5,1.4,0.8,2.2,1.1c0.8,0.3,1.7,0.4,2.7,0.4c0.7,0,1.4-0.1,2.1-0.3c0.6-0.2,1.2-0.5,1.7-0.9
				c0.5-0.4,0.8-0.9,1.1-1.5c0.3-0.6,0.4-1.3,0.4-2.2v-1.6c-0.6,0.9-1.4,1.6-2.3,2.1c-1,0.4-2,0.7-3,0.7c-1,0-1.9-0.2-2.7-0.5
				c-0.8-0.4-1.5-0.8-2.1-1.5c-0.6-0.6-1-1.4-1.3-2.2c-0.3-0.9-0.5-1.8-0.5-2.8c0-1,0.2-2,0.5-2.8c0.3-0.9,0.8-1.6,1.4-2.2
				c0.6-0.6,1.3-1.1,2.1-1.5c0.8-0.4,1.7-0.5,2.7-0.5c1,0,2,0.2,2.9,0.7s1.7,1.1,2.3,2.1v-2.4h2.4V722z M233.5,716.5
				c0-0.7-0.1-1.3-0.3-1.9c-0.2-0.6-0.5-1.1-0.9-1.5s-0.9-0.8-1.5-1c-0.6-0.3-1.3-0.4-2.1-0.4s-1.5,0.1-2,0.4c-0.6,0.3-1,0.6-1.4,1
				s-0.7,1-0.9,1.5c-0.2,0.6-0.3,1.2-0.3,1.9s0.1,1.3,0.3,1.9c0.2,0.6,0.5,1.1,0.9,1.6s0.9,0.8,1.4,1.1c0.6,0.3,1.3,0.4,2,0.4
				s1.4-0.1,2-0.4s1.1-0.6,1.5-1.1s0.7-1,0.9-1.6S233.5,717.2,233.5,716.5z"/>
			<path d="M239.8,724.2v-14.4h2.4v2.4c0.6-0.9,1.3-1.6,2.1-2.1s1.8-0.7,2.8-0.7c1.6,0,2.8,0.5,3.7,1.4c0.9,1,1.4,2.3,1.4,4v9.3
				h-2.4v-8.7c0-0.4,0-0.9-0.1-1.3c-0.1-0.5-0.2-0.9-0.5-1.2c-0.2-0.4-0.6-0.7-1-0.9c-0.4-0.2-1-0.3-1.7-0.3c-0.6,0-1.2,0.1-1.8,0.3
				c-0.5,0.2-1,0.5-1.4,0.9s-0.7,0.9-0.9,1.4c-0.2,0.6-0.3,1.2-0.3,1.8v7.9H239.8z"/>
		</g>
	</g>
	<g class="st9">
		<circle class="st49" cx="56.4" cy="54.8" r="51.7"/>
		<circle class="st53" cx="56.4" cy="54.8" r="51.7"/>
	</g>
	<g class="st9">
		<circle class="st49" cx="56.4" cy="186.7" r="51.7"/>
		
			<ellipse transform="matrix(0.7071 -0.7071 0.7071 0.7071 -115.513 94.573)" class="st53" cx="56.4" cy="186.7" rx="51.7" ry="51.7"/>
	</g>
	<g class="st9">
		<circle class="st49" cx="56.4" cy="318.6" r="51.7"/>
		<circle class="st53" cx="56.4" cy="318.6" r="51.7"/>
	</g>
	<g class="st9">
		<circle class="st49" cx="56.4" cy="450.5" r="51.7"/>
		<circle class="st53" cx="56.4" cy="450.5" r="51.7"/>
	</g>
	<g class="st9">
		<circle class="st49" cx="56.4" cy="583.3" r="51.7"/>
		<circle class="st53" cx="56.4" cy="583.3" r="51.7"/>
	</g>
	<g class="st9">
		<circle class="st49" cx="56.4" cy="716.1" r="51.7"/>
		<circle class="st53" cx="56.4" cy="716.1" r="51.7"/>
	</g>
	<g>
		<path class="st7" d="M69.3,683.2H43.5c-2,0-3.7,1.6-3.7,3.7v60.9c0,2,1.6,3.7,3.7,3.7h25.9c2,0,3.7-1.6,3.7-3.7v-60.9
			C73,684.8,71.4,683.2,69.3,683.2z M56.1,685.5c0-0.2,0.1-0.3,0.3-0.3c0.2,0,0.3,0.1,0.3,0.3c0,0,0,0,0,0c0,0.2-0.1,0.3-0.3,0.3
			C56.3,685.9,56.1,685.7,56.1,685.5C56.1,685.6,56.1,685.6,56.1,685.5z M53.9,687.7c0-0.1,0.1-0.3,0.3-0.3h4.7c0,0,0,0,0,0
			c0.1,0,0.2,0.1,0.2,0.3v0.1l0,0c0,0.1-0.1,0.3-0.3,0.3h-4.7c-0.1,0-0.3-0.1-0.3-0.3V687.7z M51.2,687.3c0.3,0,0.5,0.2,0.5,0.5
			c0,0.3-0.2,0.5-0.5,0.5c-0.3,0-0.5-0.2-0.5-0.5C50.7,687.5,50.9,687.3,51.2,687.3z M56.5,749.7c-1.4,0-2.5-1.1-2.5-2.5
			c0-1.4,1.1-2.4,2.4-2.5c1.3,0,2.4,1.1,2.4,2.5C58.9,748.6,57.8,749.7,56.5,749.7z M70.8,743.5H42.1c-0.1,0-0.3-0.1-0.3-0.3v-51.5
			c0-0.1,0.1-0.3,0.3-0.3h28.7c0.1,0,0.2,0.1,0.2,0.3v51.5h0C71,743.4,70.9,743.5,70.8,743.5z"/>
		<path class="st7" d="M56.5,745.1c-1.2,0-2.1,0.9-2.1,2.1c0,1.2,0.9,2.1,2.1,2.1c0,0,0,0,0,0c1.2,0,2.1-0.9,2.1-2.1
			C58.5,746.1,57.6,745.1,56.5,745.1z"/>
		<path class="st7" d="M47.7,736.6H44c-0.5,0-0.9,0.4-0.9,0.9v3.7c0,0.5,0.4,0.9,0.9,0.9h3.7v0c0.5,0,0.9-0.4,0.9-0.9v-3.7
			C48.6,737,48.2,736.6,47.7,736.6z"/>
		<path class="st7" d="M54.7,736.6H51c-0.5,0-0.9,0.4-0.9,0.9v3.7c0,0.5,0.4,0.9,0.9,0.9h3.7v0c0.5,0,0.9-0.4,0.9-0.9v-3.7
			C55.6,737,55.2,736.6,54.7,736.6z"/>
		<path class="st7" d="M61.8,736.6h-3.7c-0.5,0-0.9,0.4-0.9,0.9v3.7c0,0.5,0.4,0.9,0.9,0.9h3.7v0c0.5,0,0.9-0.4,0.9-0.9v-3.7
			C62.6,737,62.2,736.6,61.8,736.6z"/>
		<path class="st7" d="M68.8,736.6h-3.7c-0.5,0-0.9,0.4-0.9,0.9v3.7c0,0.5,0.4,0.9,0.9,0.9h3.7v0c0.5,0,0.9-0.4,0.9-0.9v-3.7
			C69.6,737,69.3,736.6,68.8,736.6z"/>
	</g>
	<g>
		<g id="Group_314_1_" transform="translate(9.533 4.397)">
			<path id="Path_296_1_" class="st7" d="M55.3,219.1h10.8v-52l-10.8-6.6V219.1z M61.6,173.7h2.6v1.8h-2.6V173.7z M57.4,173.7H60
				v1.8h-2.6L57.4,173.7z M61.6,180.8h2.6v1.8h-2.6V180.8z M57.4,184.4H60v1.8h-2.6L57.4,184.4z M61.6,188.1h2.6v1.8h-2.6V188.1z
				 M57.4,195.2H60v1.8h-2.6V195.2z M61.6,198.9h2.6v1.8h-2.6L61.6,198.9z M57.4,202.5H60v1.8h-2.6V202.5z M61.6,206h2.6v1.8h-2.6
				L61.6,206z M61.6,209.7h2.6v1.8h-2.6L61.6,209.7z M57.4,213.3H60v1.8h-2.6V213.3z"/>
		</g>
		<g id="Group_315_1_" transform="translate(3.952 5.528)">
			<path id="Path_297_1_" class="st7" d="M31.8,171.5V218h10.1v-52.6L31.8,171.5z M37.6,177.6H40v1.7h-2.4V177.6z M33.6,177.6H36
				v1.7h-2.4L33.6,177.6z M33.6,184.3H36v1.7h-2.4L33.6,184.3z M37.6,187.7H40v1.6h-2.4V187.7z M33.6,191.1H36v1.7h-2.4V191.1z
				 M37.6,197.8H40v1.7h-2.4V197.8z M33.6,201.2H36v1.7h-2.4V201.2z M37.5,204.6h2.4v1.7h-2.4L37.5,204.6z M33.6,207.9H36v1.7h-2.4
				V207.9z M33.6,211.3H36v1.7h-2.4V211.3z M37.5,214.7h2.4v1.7h-2.4L37.5,214.7z"/>
		</g>
		<g id="Group_316_1_" transform="translate(6.4 0.958)">
			<path id="Path_298_1_" class="st7" d="M42.1,222.6h13.9v-67.8l-13.9-8.7V222.6z M44.7,163.3h3.4v2.4h-3.4V163.3z M50.2,163.4h3.4
				v2.4h-3.4L50.2,163.4z M50.2,172.6h3.4v2.4h-3.4L50.2,172.6z M44.7,177.3h3.4v2.4h-3.4V177.3z M50.2,181.9h3.4v2.4h-3.4
				L50.2,181.9z M44.7,191.2h3.4v2.4h-3.4V191.2z M50.2,195.9h3.4v2.4h-3.4L50.2,195.9z M44.7,200.6h3.4v2.4h-3.4V200.6z
				 M50.2,205.3h3.4v2.4h-3.4L50.2,205.3z M50.2,210h3.4v2.4h-3.4L50.2,210z M44.7,214.7h3.4v2.4h-3.4V214.7z"/>
		</g>
	</g>
	<g>
		<path id="Path_301_1_" class="st7" d="M60.2,51h-7.6v7.6h7.6V51z M61.5,49.7H51.4v10.2h10.2V49.7z M66.6,64.9H46.4V44.7h20.2V64.9
			z"/>
		<g id="Group_318_1_" transform="translate(2.909 2.388)">
			<path id="Path_302_1_" class="st7" d="M33,26.9c0,1.2-1,2.1-2.1,2.1l0,0c-1.2,0-2.1-1-2.1-2.1c0-1.2,0.9-2.1,2.1-2.1
				C32,24.8,33,25.7,33,26.9L33,26.9"/>
		</g>
		<g id="Group_319_1_" transform="translate(5.179 2.388)">
			<path id="Path_303_1_" class="st7" d="M42.3,26.9c0,1.2-1,2.1-2.1,2.1l0,0c-1.2,0-2.1-1-2.1-2.1c0-1.2,0.9-2.1,2.1-2.1
				C41.3,24.8,42.3,25.7,42.3,26.9L42.3,26.9"/>
		</g>
		<g id="Group_320_1_" transform="translate(7.356 2.388)">
			<path id="Path_304_1_" class="st7" d="M51.2,26.9c0,1.2-1,2.1-2.1,2.1l0,0c-1.2,0-2.1-1-2.1-2.1c0-1.2,0.9-2.1,2.1-2.1
				C50.3,24.8,51.2,25.7,51.2,26.9L51.2,26.9"/>
		</g>
		<g id="Group_321_1_" transform="translate(9.51 2.388)">
			<path id="Path_305_1_" class="st7" d="M60.1,26.9c0,1.2-1,2.1-2.1,2.1l0,0c-1.2,0-2.1-1-2.1-2.1c0-1.2,0.9-2.1,2.1-2.1
				C59.1,24.8,60.1,25.7,60.1,26.9L60.1,26.9"/>
		</g>
		<g id="Group_322_1_" transform="translate(11.78 2.388)">
			<path id="Path_306_1_" class="st7" d="M69.4,26.9c0,1.2-1,2.1-2.1,2.1l0,0c-1.2,0-2.1-1-2.1-2.1c0-1.2,0.9-2.1,2.1-2.1
				C68.4,24.8,69.4,25.7,69.4,26.9L69.4,26.9"/>
		</g>
		<g id="Group_323_1_" transform="translate(2.909 12.394)">
			<path id="Path_307_1_" class="st7" d="M33,67.9c0,1.2-1,2.1-2.1,2.1l0,0c-1.2,0-2.1-1-2.1-2.1c0-1.2,0.9-2.1,2.1-2.1
				C32,65.8,33,66.8,33,67.9L33,67.9"/>
		</g>
		<g id="Group_324_1_" transform="translate(5.179 12.394)">
			<path id="Path_308_1_" class="st7" d="M42.3,67.9c0,1.2-1,2.1-2.1,2.1l0,0c-1.2,0-2.1-1-2.1-2.1c0-1.2,0.9-2.1,2.1-2.1
				C41.3,65.8,42.3,66.8,42.3,67.9L42.3,67.9"/>
		</g>
		<g id="Group_325_1_" transform="translate(7.356 12.394)">
			<path id="Path_309_1_" class="st7" d="M51.2,67.9c0,1.2-1,2.1-2.1,2.1l0,0c-1.2,0-2.1-1-2.1-2.1c0-1.2,0.9-2.1,2.1-2.1
				C50.3,65.8,51.2,66.8,51.2,67.9L51.2,67.9"/>
		</g>
		<g id="Group_326_1_" transform="translate(9.51 12.394)">
			<path id="Path_310_1_" class="st7" d="M60.1,67.9c0,1.2-1,2.1-2.1,2.1l0,0c-1.2,0-2.1-1-2.1-2.1c0-1.2,0.9-2.1,2.1-2.1
				C59.1,65.8,60.1,66.8,60.1,67.9L60.1,67.9"/>
		</g>
		<g id="Group_327_1_" transform="translate(11.78 12.394)">
			<path id="Path_311_1_" class="st7" d="M69.4,67.9c0,1.2-1,2.1-2.1,2.1l0,0c-1.2,0-2.1-1-2.1-2.1c0-1.2,0.9-2.1,2.1-2.1
				C68.4,65.8,69.4,66.8,69.4,67.9L69.4,67.9"/>
		</g>
		<g id="Group_328_1_" transform="translate(2.909 10.449)">
			<path id="Path_312_1_" class="st7" d="M33,60c0,1.2-1,2.1-2.1,2.1l0,0c-1.2,0-2.1-1-2.1-2.1c0-1.2,0.9-2.1,2.1-2.1
				C32,57.8,33,58.8,33,60L33,60"/>
		</g>
		<g id="Group_329_1_" transform="translate(11.78 10.449)">
			<path id="Path_313_1_" class="st7" d="M69.4,60c0,1.2-1,2.1-2.1,2.1l0,0c-1.2,0-2.1-1-2.1-2.1c0-1.2,0.9-2.1,2.1-2.1
				C68.4,57.8,69.4,58.8,69.4,60L69.4,60"/>
		</g>
		<g id="Group_330_1_" transform="translate(2.909 7.391)">
			<path id="Path_314_1_" class="st7" d="M33,47.4c0,1.2-1,2.1-2.1,2.1l0,0c-1.2,0-2.1-1-2.1-2.1c0-1.2,0.9-2.1,2.1-2.1
				C32,45.3,33,46.3,33,47.4L33,47.4"/>
		</g>
		<g id="Group_331_1_" transform="translate(11.78 7.391)">
			<path id="Path_315_1_" class="st7" d="M69.4,47.4c0,1.2-1,2.1-2.1,2.1l0,0c-1.2,0-2.1-1-2.1-2.1c0-1.2,0.9-2.1,2.1-2.1
				C68.4,45.3,69.4,46.3,69.4,47.4L69.4,47.4"/>
		</g>
		<g id="Group_332_1_" transform="translate(2.909 4.287)">
			<path id="Path_316_1_" class="st7" d="M33,34.7c0,1.2-1,2.1-2.1,2.1l0,0c-1.2,0-2.1-1-2.1-2.1c0-1.2,0.9-2.1,2.1-2.1
				C32,32.6,33,33.5,33,34.7L33,34.7"/>
		</g>
		<g id="Group_333_1_" transform="translate(11.78 4.287)">
			<path id="Path_317_1_" class="st7" d="M69.4,34.7c0,1.2-1,2.1-2.1,2.1l0,0c-1.2,0-2.1-1-2.1-2.1c0-1.2,0.9-2.1,2.1-2.1
				C68.4,32.6,69.4,33.5,69.4,34.7L69.4,34.7"/>
		</g>
		<path id="Path_318_1_" class="st7" d="M57.1,44h-1.4V32.1h1.4V44z"/>
		<g id="Group_334_1_" transform="translate(8.827 3.193)">
			<path id="Path_319_1_" class="st7" d="M54.4,40.8H53v-9.1h10.2l3.6-3.6l1,1l-4,4.1h-9.4V40.8z"/>
		</g>
		<path id="Path_320_1_" class="st7" d="M68.2,35.6h-1.4v-3.5h1.4V35.6z"/>
		<g id="Group_335_1_" transform="translate(3.784 3.193)">
			<path id="Path_321_1_" class="st7" d="M47.2,40.8h-1.4v-7.7h-9.4l-4.1-4.1l1-1l3.6,3.6h10.2L47.2,40.8z"/>
		</g>
		<path id="Path_322_1_" class="st7" d="M46,35.6h-1.4v-3.5H46V35.6z"/>
		<g id="Group_336_1_" transform="translate(3.893 4.554)">
			<path id="Path_323_1_" class="st7" d="M41.7,44.9h-5.9v-9.8h-3.1v-1.4h4.5v9.8h4.5L41.7,44.9z"/>
		</g>
		<path id="Path_324_1_" class="st7" d="M45.6,55.5h-9V54h9V55.5z"/>
		<g id="Group_337_1_" transform="translate(9.869 4.554)">
			<path id="Path_325_1_" class="st7" d="M63.2,44.9h-5.9v-1.4h4.5v-9.8h4.5v1.4h-3.1L63.2,44.9z"/>
		</g>
		<path id="Path_326_1_" class="st7" d="M57.1,77.3h-1.4V65.4h1.4V77.3z"/>
		<g id="Group_338_1_" transform="translate(8.827 9.881)">
			<path id="Path_327_1_" class="st7" d="M66.9,68.2l-3.6-3.6H53v-9.1h1.4v7.7h9.4l4,4L66.9,68.2z"/>
		</g>
		<path id="Path_328_1_" class="st7" d="M68.2,77.3h-1.4v-3.5h1.4V77.3z"/>
		<g id="Group_339_1_" transform="translate(3.784 9.881)">
			<path id="Path_329_1_" class="st7" d="M33.3,68.2l-1-1l4-4h9.4v-7.7h1.4v9.1H37L33.3,68.2z"/>
		</g>
		<path id="Path_330_1_" class="st7" d="M46,77.3h-1.4v-3.5H46V77.3z"/>
		<g id="Group_340_1_" transform="translate(3.893 8.816)">
			<path id="Path_331_1_" class="st7" d="M37.3,62.4h-4.5v-1.4h3.1v-9.8h5.9v1.4h-4.5V62.4z"/>
		</g>
		<g id="Group_341_1_" transform="translate(9.869 8.816)">
			<path id="Path_332_1_" class="st7" d="M66.3,62.4h-4.5v-9.8h-4.5v-1.4h5.9v9.8h3.1L66.3,62.4z"/>
		</g>
		<path id="Path_333_1_" class="st7" d="M76.1,55.5h-9V54h9V55.5z"/>
	</g>
	<g>
		<path class="st7" d="M57.7,322.9c-0.7,0.2-1.5,0.2-2.2,0l-12.6-3.9c-0.1,1.8-0.4,5.6-0.4,7.1c0,1.3,0.2,2.2,3.8,3.6
			c3.2,1.4,6.7,2,10.2,1.8c3.5,0.1,7-0.5,10.2-1.9c3.6-1.3,3.7-2.3,3.8-3.6c0-1.5-0.3-5.2-0.4-7L57.7,322.9z"/>
		<path class="st7" d="M81.6,311.6c-0.1-0.2-0.2-0.4-0.5-0.5l0,0l-24.4-7.6c-0.2-0.1-0.4-0.1-0.6,0l-24.2,7.7
			c-0.4,0.1-0.6,0.5-0.5,0.9c0.1,0.2,0.2,0.4,0.5,0.5l7.3,2.3c-1.4,2.1-2.2,4.5-2.1,7c-0.9,0.5-1.5,1.4-1.5,2.5c0,1,0.5,1.8,1.3,2.4
			l-1.2,9.3c-0.1,0.5,0.3,0.9,0.7,0.9c0,0,0.1,0,0.1,0h3.9c0.5,0,0.8-0.4,0.8-0.8c0,0,0-0.1,0-0.1l-1.2-9.4c0.7-0.5,1.2-1.4,1.2-2.3
			c0-0.9-0.5-1.8-1.3-2.3c-0.1-2.3,0.6-4.6,2.1-6.3l14.3,4.5c0.2,0.1,0.4,0.1,0.6,0l24.2-7.7C81.5,312.4,81.7,312,81.6,311.6z"/>
	</g>
	<g>
		<path class="st7" d="M45.1,582.3L45.1,582.3l0.3-0.1c0.7-0.2,1.1-0.8,1.1-1.5c0-0.7-0.4-1.2-1.1-1.4c-1.7-0.8-2.8-2.4-2.8-4.3
			c0.2-2.1,1.7-3.9,3.7-4.4c0.3-1,0.8-1.9,1.5-2.8c0.1-0.2,0.2-0.4,0.4-0.5c-0.1,0-0.2,0-0.4,0c-4.3,0-7.8,3.5-7.9,7.8
			c0,1.9,0.7,3.8,2.1,5.2c-4.2,2.1-6.8,6.4-6.8,11.1v2.4c0,0.9,0.7,1.6,1.6,1.6h2.8c0-0.9,0.1-1.9,0.3-2.8h-2v-1.2
			C38,587.1,40.9,583.3,45.1,582.3z"/>
		<path class="st7" d="M72.2,580.3L72.2,580.3c1.3-1.4,2-3.3,2-5.2c0-4.3-3.5-7.8-7.8-7.8c-0.1,0-0.2,0-0.4,0
			c0.1,0.2,0.2,0.4,0.3,0.5c0.6,0.8,1.1,1.8,1.5,2.8c2.1,0.6,3.6,2.3,3.9,4.4c0,1.8-1.1,3.5-2.8,4.3c-0.6,0.2-1,0.8-1.1,1.4
			c0,0.7,0.5,1.3,1.1,1.5l0.3,0.1c4.2,1,7.1,4.8,7.1,9.1v1.2h-2.3c0.2,0.9,0.3,1.8,0.3,2.8h2.8c0.9,0,1.6-0.7,1.6-1.6v-2.4
			C79,586.7,76.4,582.4,72.2,580.3z"/>
		<path class="st7" d="M62.9,580.8L62.9,580.8c2.2-1.8,3.6-4.5,3.6-7.4c0-5.2-4.2-9.4-9.4-9.4c-5.2,0-9.4,4.2-9.4,9.4
			c0,2.9,1.3,5.6,3.6,7.4c-5.9,2.4-9.8,8.1-9.8,14.5v3.1c0,0.9,0.7,1.6,1.6,1.6h28.1c0.9,0,1.6-0.7,1.6-1.6v-3.1
			C72.7,589,68.9,583.2,62.9,580.8z M50.3,573.4c0-3.7,3-6.8,6.8-6.8c3.7,0,6.8,3,6.8,6.8c0,3.7-3,6.8-6.8,6.8
			C53.4,580.2,50.3,577.2,50.3,573.4z M70.4,597.5L70.4,597.5H43.9v-1.7c0-7.3,5.9-13.3,13.3-13.3c7.3,0,13.3,6,13.3,13.3V597.5z"/>
	</g>
	<path class="st7" d="M74,451.1v-3.6c0.6,0,1.1-0.5,1.1-1.2s-0.5-1.1-1.1-1.2v-2.3c0-1-0.8-1.9-1.9-1.9H60c-1,0-1.9,0.8-1.9,1.9v2.3
		c-0.5,0-0.9,0.4-1,0.9c-3-0.2-3.6-1.1-4.2-2.1c-0.7-1-1.4-2.1-4.6-2.3c-0.1-0.5-0.5-0.8-1-0.9v-1.3c0,0,0,0,0,0
		c0-1-0.8-1.9-1.9-1.9H33.2c-1,0-1.9,0.8-1.9,1.9v1.3c-0.6,0-1.1,0.5-1.1,1.2s0.5,1.1,1.1,1.2v1.2c0,1,0.8,1.9,1.9,1.9h12.1
		c1,0,1.9-0.8,1.9-1.9v-1.2c0.5,0,0.9-0.4,1-0.9c2.9,0.2,3.5,1.1,4.1,2c0.7,1.1,1.4,2.1,4.7,2.3c0.1,0.5,0.5,0.9,1,0.9v3.6
		c-0.5,0-0.9,0.4-1.1,0.9c-1.9,0.1-3,0.4-3.4,1.1c-0.5,0.7-0.2,1.5,0.1,2.2c0.2,0.7,0.5,1.3,0.2,1.7c-0.3,0.5-1.2,0.7-2.8,0.8
		c-0.1-0.5-0.5-0.8-1-0.9v-2.3c0,0,0,0,0,0c0-1-0.8-1.9-1.9-1.9H36.2c-1,0-1.9,0.8-1.9,1.9v2.3c-0.6,0-1.1,0.5-1.1,1.2
		s0.5,1.1,1.1,1.2v2.2c0,1,0.8,1.9,1.9,1.9h12.1v0c1,0,1.9-0.8,1.9-1.9v-2.2c0.5,0,0.9-0.4,1-0.9c1.8-0.1,2.8-0.5,3.2-1.1
		c0.5-0.7,0.2-1.5-0.1-2.3c-0.2-0.7-0.5-1.3-0.2-1.7c0.3-0.5,1.3-0.7,3-0.8c0.1,0.5,0.5,0.8,1,0.8v2.6c0,1,0.8,1.9,1.9,1.9h12.1v0
		c1,0,1.9-0.8,1.9-1.9v-2.6c0.6,0,1.1-0.5,1.1-1.2S74.6,451.1,74,451.1z M43.2,444.4c0,0.4-0.4,0.8-0.8,0.8h-6.3
		c-0.4,0-0.8-0.4-0.8-0.8v-5c0-0.4,0.4-0.8,0.8-0.8v0h6.3c0.4,0,0.8,0.4,0.8,0.8V444.4z M46.7,461.8c0,0.5-0.4,0.9-0.9,0.9h-7.1
		c-0.5,0-0.9-0.4-0.9-0.9v-7.1c0-0.5,0.4-0.9,0.9-0.9h7.1c0.5,0,0.9,0.4,0.9,0.9V461.8z M70.6,456.1c0,0.5-0.4,0.9-0.9,0.9h-7.3
		c-0.5,0-0.9-0.4-0.9-0.9v-13.2c0-0.5,0.4-0.9,0.9-0.9h7.3c0.5,0,0.9,0.4,0.9,0.9V456.1z"/>
</g>
<g id="Layer_2">
</g>
<g id="Layer_3">
</g>
</svg>
