<?xml version="1.0" encoding="utf-8"?>
<!-- Generator: Adobe Illustrator 21.1.0, SVG Export Plug-In . SVG Version: 6.00 Build 0)  -->
<svg version="1.1" id="Layer_1" xmlns="http://www.w3.org/2000/svg" xmlns:xlink="http://www.w3.org/1999/xlink" x="0px" y="0px"
	 viewBox="0 0 500 500" style="enable-background:new 0 0 500 500;" xml:space="preserve">
<style type="text/css">
	.st0{fill:#FEF0F0;}
</style>
<g>
	<path class="st0" d="M477,96.2H24c-6.6,0-12-5.4-12-12V23.6c0-6.6,5.4-12,12-12h453c6.6,0,12,5.4,12,12v60.6
		C489,90.8,483.6,96.2,477,96.2z"/>
</g>
<g>
	<path class="st0" d="M477,488.4H24c-6.6,0-12-5.4-12-12v-60.6c0-6.6,5.4-12,12-12h453c6.6,0,12,5.4,12,12v60.6
		C489,483,483.6,488.4,477,488.4z"/>
</g>
<g>
	<path class="st0" d="M477,286.6H24c-6.6,0-12-5.4-12-12V214c0-6.6,5.4-12,12-12h453c6.6,0,12,5.4,12,12v60.6
		C489,281.2,483.6,286.6,477,286.6z"/>
</g>
</svg>
