<svg id="Layer_1" data-name="Layer 1" xmlns="http://www.w3.org/2000/svg" viewBox="0 0 136.35 85.55"><defs><style>.cls-1{fill:#fff;}.cls-2{fill:#a31e22;}.cls-3{fill:#ea4753;}.cls-4{fill:#ed1c24;}</style></defs><title>Artboard 2</title><path class="cls-1" d="M11,0V35.79H52.42v9.65H11V85.55H0V0ZM96.71,45.44H63.46V76.28h37.06v9.27H52.42V0h46.2V9.27H63.46v27H96.71Zm29.19-12.62V85.55h-11V32.82Z"/><polygon class="cls-2" points="113.14 11.42 123.05 28.58 136.26 5.69 132.98 0 123.07 17.16 119.76 11.42 113.14 11.42"/><polygon class="cls-3" points="123.07 5.69 103.26 5.69 116.48 28.58 123.05 28.58 113.14 11.42 119.76 11.42 123.07 5.69"/><polygon class="cls-4" points="123.07 17.16 132.98 0 106.55 0 103.26 5.69 123.07 5.69 119.76 11.42 123.07 17.16"/></svg>