<svg id="Layer_1" data-name="Layer 1" xmlns="http://www.w3.org/2000/svg" viewBox="0 0 136.35 85.55"><defs><style>.cls-1{fill:#fff;}.cls-2{fill:#ed1c24;}</style></defs><title>Artboard 2</title><path class="cls-1" d="M11,0V35.79H52.42v9.65H11V85.55H0V0ZM96.71,45.44H63.46V76.28h37.06v9.27H52.42V0h46.2V9.27H63.46v27H96.71Zm29.19-12.62V85.55h-11V32.82Z"/><path class="cls-2" d="M120.39,27.36a1.07,1.07,0,0,1-.78-.32L108.49,16.32a5.88,5.88,0,0,1-.49-.46q-.31-.32-1-1.17a15.76,15.76,0,0,1-1.21-1.74,10.79,10.79,0,0,1-1-2.16,7.8,7.8,0,0,1-.42-2.46,8.17,8.17,0,0,1,2.26-6.13A8.57,8.57,0,0,1,112.94,0a7.1,7.1,0,0,1,2.25.38,9.12,9.12,0,0,1,2.14,1q1,.65,1.7,1.22a16.41,16.41,0,0,1,1.35,1.21,16.41,16.41,0,0,1,1.35-1.21q.71-.57,1.7-1.22a9.12,9.12,0,0,1,2.14-1A7.1,7.1,0,0,1,127.83,0a8.57,8.57,0,0,1,6.25,2.21,8.17,8.17,0,0,1,2.26,6.13q0,3.94-4.08,8L121.17,27a1.07,1.07,0,0,1-.78.32"/></svg>