<svg id="Layer_1" data-name="Layer 1" xmlns="http://www.w3.org/2000/svg" viewBox="0 0 360 1058"><defs><style>.cls-1,.cls-4{isolation:isolate;}.cls-2,.cls-4{fill:#f6f6f6;}.cls-3,.cls-6,.cls-7{fill:none;}.cls-3,.cls-4,.cls-6,.cls-7{stroke:#808285;stroke-linecap:round;stroke-miterlimit:10;stroke-width:2px;}.cls-3{stroke-dasharray:2.99 4.99;}.cls-5{fill:#58595b;}.cls-6{stroke-dasharray:3 5.01;}.cls-7{stroke-dasharray:3.02 5.03;}</style></defs><title>Artboard 2WHITE</title><g class="cls-1"><circle class="cls-2" cx="182.09" cy="894.31" r="148.69"/><circle class="cls-3" cx="182.09" cy="894.31" r="148.69"/></g><circle class="cls-4" cx="181.27" cy="953.17" r="89.65"/><path class="cls-5" d="M154.17,943.87l-3.35,12H149l-2.81-9.72-2.8,9.72h-1.93l-3.28-12h1.79l2.55,9.84,2.9-9.84H147l2.9,9.88,2.54-9.88Z"/><path class="cls-5" d="M157.59,955.85H156V943h1.56v5a3.73,3.73,0,0,1,3.21-1.76,3.15,3.15,0,0,1,2.39.93,3.67,3.67,0,0,1,.88,2.61v6h-1.56v-5.67c0-1.62-.7-2.43-2.09-2.43a2.74,2.74,0,0,0-2,.81,2.88,2.88,0,0,0-.8,2.11Z"/><path class="cls-5" d="M175.16,954.63l.2,1.19a2.83,2.83,0,0,1-1.08.18,2,2,0,0,1-1.22-.37,1.61,1.61,0,0,1-.6-1.13,3.67,3.67,0,0,1-3.22,1.57,3.36,3.36,0,0,1-2.32-.76,2.62,2.62,0,0,1-.87-2.09,2.59,2.59,0,0,1,.22-1.11,2.24,2.24,0,0,1,.53-.77,3.24,3.24,0,0,1,.78-.48,4.08,4.08,0,0,1,.85-.29c.25-.05.54-.11.86-.15l.61-.08.62-.08a4.22,4.22,0,0,0,.53-.1,1.76,1.76,0,0,0,.5-.15,1.4,1.4,0,0,0,.36-.22.64.64,0,0,0,.27-.32,1,1,0,0,0,.08-.44,1.08,1.08,0,0,0-.63-1,3.18,3.18,0,0,0-1.49-.33,4.75,4.75,0,0,0-2.92,1l-.72-1.19a6.48,6.48,0,0,1,3.75-1.18,4.22,4.22,0,0,1,2.64.75,2.74,2.74,0,0,1,1,2.31v4.42c0,.68.25,1,.74,1A1,1,0,0,0,175.16,954.63Zm-2.86-2.38v-1.62a1.8,1.8,0,0,1-.39.39,1.67,1.67,0,0,1-.52.24l-.51.14-.63.11-.65.09a3.94,3.94,0,0,0-1.46.48,1.23,1.23,0,0,0-.49,1.11,1.39,1.39,0,0,0,.54,1.19,2.35,2.35,0,0,0,1.41.39,3,3,0,0,0,1.92-.63A2.29,2.29,0,0,0,172.3,952.25Z"/><path class="cls-5" d="M181.75,954.25l.66,1.19a3.19,3.19,0,0,1-2,.63,2.66,2.66,0,0,1-2.45-1.19,3.51,3.51,0,0,1-.39-1.85v-5.24h-1.62v-1.3h1.62v-2.62h1.56v2.62h3v1.3h-3V953q0,1.62,1.44,1.62A1.93,1.93,0,0,0,181.75,954.25Z"/><path class="cls-5" d="M194.49,946.65l-.5,1.5a2.3,2.3,0,0,0-1.08-.29,2.15,2.15,0,0,0-1.7.84,3.36,3.36,0,0,0-.71,2.27v4.88h-1.57v-9.36h1.57v1.59a3.17,3.17,0,0,1,2.71-1.77A2.35,2.35,0,0,1,194.49,946.65Z"/><path class="cls-5" d="M204.28,950.94a5.28,5.28,0,0,1,0,.61H196.9a3.27,3.27,0,0,0,.92,2.26,3.07,3.07,0,0,0,2.23.82,3.64,3.64,0,0,0,2.78-1.23l1,1a5,5,0,0,1-3.85,1.64,4.57,4.57,0,0,1-3.51-1.36,4.92,4.92,0,0,1-1.28-3.5,5.13,5.13,0,0,1,1.25-3.53,4.65,4.65,0,0,1,6.58-.07A4.72,4.72,0,0,1,204.28,950.94Zm-7.34-.6h5.72a3,3,0,0,0-.91-2,3,3,0,0,0-3.94,0A3,3,0,0,0,196.94,950.34Z"/><path class="cls-5" d="M214.78,954.63l.2,1.19a2.83,2.83,0,0,1-1.08.18,2,2,0,0,1-1.22-.37,1.61,1.61,0,0,1-.6-1.13,3.67,3.67,0,0,1-3.22,1.57,3.39,3.39,0,0,1-2.33-.76,2.64,2.64,0,0,1-.86-2.09,2.59,2.59,0,0,1,.22-1.11,2.24,2.24,0,0,1,.53-.77,3.24,3.24,0,0,1,.78-.48,4,4,0,0,1,.84-.29c.26-.05.54-.11.87-.15l.6-.08.62-.08a3.91,3.91,0,0,0,.53-.1,1.82,1.82,0,0,0,.87-.37.76.76,0,0,0,.27-.32,1.15,1.15,0,0,0,.08-.44,1.08,1.08,0,0,0-.63-1,3.19,3.19,0,0,0-1.5-.33,4.72,4.72,0,0,0-2.91,1l-.72-1.19a6.48,6.48,0,0,1,3.74-1.18,4.24,4.24,0,0,1,2.65.75,2.74,2.74,0,0,1,1,2.31v4.42c0,.68.25,1,.74,1A1,1,0,0,0,214.78,954.63Zm-2.86-2.38v-1.62a2.05,2.05,0,0,1-.39.39,1.67,1.67,0,0,1-.52.24l-.51.14-.64.11-.64.09a3.94,3.94,0,0,0-1.46.48,1.21,1.21,0,0,0-.49,1.11,1.39,1.39,0,0,0,.54,1.19,2.35,2.35,0,0,0,1.41.39,3,3,0,0,0,1.91-.63A2.29,2.29,0,0,0,211.92,952.25Z"/><path class="cls-5" d="M218.22,955.85h-1.57V943h1.57Z"/><path class="cls-5" d="M222.7,955.85h-1.57V943h1.57Z"/><path class="cls-5" d="M233.51,946.49l-3.74,9.8a6.1,6.1,0,0,1-1.28,2.19,2.64,2.64,0,0,1-1.94.68,3.18,3.18,0,0,1-1.91-.57l.68-1.15a2,2,0,0,0,1.12.36,1.34,1.34,0,0,0,1-.37,3.67,3.67,0,0,0,.69-1l.25-.56-4-9.33h1.8l3,7.27,2.64-7.27Z"/><path class="cls-5" d="M140.75,974.84l1.2.87a4.37,4.37,0,0,1-3.78,2,4.18,4.18,0,0,1-3.29-1.39,5.55,5.55,0,0,1,0-7,4.21,4.21,0,0,1,3.29-1.38,4.29,4.29,0,0,1,3.73,1.94l-1.17.94a2.8,2.8,0,0,0-2.51-1.46,2.64,2.64,0,0,0-2.13,1,3.81,3.81,0,0,0-.8,2.49,3.86,3.86,0,0,0,.8,2.5,2.62,2.62,0,0,0,2.12,1A2.92,2.92,0,0,0,140.75,974.84Z"/><path class="cls-5" d="M152.28,976.23l.2,1.19a2.83,2.83,0,0,1-1.08.18,2,2,0,0,1-1.21-.37,1.62,1.62,0,0,1-.61-1.13,3.66,3.66,0,0,1-3.22,1.57,3.36,3.36,0,0,1-2.32-.76,2.62,2.62,0,0,1-.87-2.09,2.75,2.75,0,0,1,.22-1.11,2.14,2.14,0,0,1,.53-.77,3.24,3.24,0,0,1,.78-.48,4.28,4.28,0,0,1,.85-.29c.25,0,.54-.11.86-.15l.61-.08.62-.08a4.22,4.22,0,0,0,.53-.1,1.76,1.76,0,0,0,.5-.15,1.4,1.4,0,0,0,.36-.22.69.69,0,0,0,.27-.32,1,1,0,0,0,.08-.44,1.08,1.08,0,0,0-.63-1,3.15,3.15,0,0,0-1.49-.33,4.75,4.75,0,0,0-2.92,1l-.72-1.19a6.51,6.51,0,0,1,3.75-1.18,4.21,4.21,0,0,1,2.64.75,2.75,2.75,0,0,1,1,2.31v4.42c0,.68.24,1,.73,1A1,1,0,0,0,152.28,976.23Zm-2.86-2.38v-1.62a1.8,1.8,0,0,1-.39.39,1.57,1.57,0,0,1-.52.24l-.5.14-.64.11-.65.09a4,4,0,0,0-1.46.48,1.23,1.23,0,0,0-.48,1.11,1.39,1.39,0,0,0,.54,1.19,2.32,2.32,0,0,0,1.4.39,3,3,0,0,0,1.92-.63A2.29,2.29,0,0,0,149.42,973.85Z"/><path class="cls-5" d="M155.67,977.45H154.1v-9.36h1.57v1.55a3.69,3.69,0,0,1,3.2-1.76,3.12,3.12,0,0,1,2.39.93,3.67,3.67,0,0,1,.89,2.61v6h-1.57v-5.67c0-1.62-.7-2.43-2.09-2.43a2.72,2.72,0,0,0-2,.81,2.84,2.84,0,0,0-.8,2.11Z"/><path class="cls-5" d="M169.71,964.6h1.56v5a3.84,3.84,0,0,1,3.33-1.76,3.89,3.89,0,0,1,3.13,1.38,5.28,5.28,0,0,1,1.17,3.51,5.19,5.19,0,0,1-1.18,3.51,4.11,4.11,0,0,1-6.45-.36v1.53h-1.56Zm2.35,5.71a3.88,3.88,0,0,0-.79,2.48,3.78,3.78,0,0,0,.8,2.47,2.76,2.76,0,0,0,2.23,1,2.6,2.6,0,0,0,2.17-1,4.43,4.43,0,0,0,0-5,2.58,2.58,0,0,0-2.17-1A2.74,2.74,0,0,0,172.06,970.31Z"/><path class="cls-5" d="M189.54,972.54a3.59,3.59,0,0,1,0,.61h-7.34a3.23,3.23,0,0,0,.92,2.26,3.05,3.05,0,0,0,2.23.82,3.62,3.62,0,0,0,2.77-1.23l1,1a5.06,5.06,0,0,1-3.85,1.64,4.6,4.6,0,0,1-3.51-1.36,4.87,4.87,0,0,1-1.28-3.5,5.08,5.08,0,0,1,1.25-3.53,4.65,4.65,0,0,1,6.58-.07A4.76,4.76,0,0,1,189.54,972.54Zm-7.34-.6h5.72a2.92,2.92,0,0,0-.92-2,3,3,0,0,0-3.93,0A3,3,0,0,0,182.2,971.94Z"/><path class="cls-5" d="M205.11,977.45h-1.57v-1.53a3.83,3.83,0,0,1-3.33,1.75,3.88,3.88,0,0,1-3.13-1.39,5.22,5.22,0,0,1-1.17-3.49,5.29,5.29,0,0,1,1.17-3.53,3.9,3.9,0,0,1,3.13-1.38,3.84,3.84,0,0,1,3.33,1.76v-5h1.57Zm-2.37-2.2a3.77,3.77,0,0,0,.8-2.48,3.7,3.7,0,0,0-.8-2.46,2.74,2.74,0,0,0-2.24-1,2.62,2.62,0,0,0-2.18,1,3.89,3.89,0,0,0-.75,2.47,4,4,0,0,0,.75,2.49,2.62,2.62,0,0,0,2.18,1A2.74,2.74,0,0,0,202.74,975.25Z"/><path class="cls-5" d="M216.52,972.79a5,5,0,0,1-1.26,3.51,4.78,4.78,0,0,1-6.7,0,5,5,0,0,1-1.25-3.51,5,5,0,0,1,1.25-3.54,4.78,4.78,0,0,1,6.7,0A5,5,0,0,1,216.52,972.79Zm-1.67,0a3.9,3.9,0,0,0-.78-2.51,2.87,2.87,0,0,0-4.32,0,4.35,4.35,0,0,0,0,5,2.87,2.87,0,0,0,4.32,0A3.86,3.86,0,0,0,214.85,972.79Z"/><path class="cls-5" d="M220.28,977.45h-1.56v-9.36h1.56v1.55a3.72,3.72,0,0,1,3.21-1.76,3.13,3.13,0,0,1,2.39.93,3.67,3.67,0,0,1,.88,2.61v6H225.2v-5.67c0-1.62-.7-2.43-2.09-2.43a2.7,2.7,0,0,0-2,.81,2.85,2.85,0,0,0-.81,2.11Z"/><path class="cls-5" d="M237.91,972.54a5,5,0,0,1,0,.61h-7.34a3.22,3.22,0,0,0,.91,2.26,3.08,3.08,0,0,0,2.24.82,3.63,3.63,0,0,0,2.77-1.23l1,1a5,5,0,0,1-3.85,1.64,4.6,4.6,0,0,1-3.51-1.36,4.92,4.92,0,0,1-1.28-3.5,5.13,5.13,0,0,1,1.25-3.53,4.25,4.25,0,0,1,3.34-1.4,4.16,4.16,0,0,1,3.24,1.33A4.73,4.73,0,0,1,237.91,972.54Zm-7.35-.6h5.73a3,3,0,0,0-.92-2,2.79,2.79,0,0,0-2-.71,2.74,2.74,0,0,0-2,.75A2.91,2.91,0,0,0,230.56,971.94Z"/><path class="cls-5" d="M141.41,789l-3.35,12h-1.87l-2.81-9.72L130.57,801h-1.92l-3.28-12h1.78l2.56,9.84,2.9-9.84h1.62l2.9,9.88,2.53-9.88Z"/><path class="cls-5" d="M144.83,801h-1.57V788.16h1.57v5a3.71,3.71,0,0,1,3.2-1.76,3.16,3.16,0,0,1,2.4.93,3.67,3.67,0,0,1,.88,2.61v6h-1.57v-5.67c0-1.62-.69-2.43-2.08-2.43a2.74,2.74,0,0,0-2,.81,2.9,2.9,0,0,0-.8,2.11Z"/><path class="cls-5" d="M162.4,799.79l.2,1.19a2.83,2.83,0,0,1-1.08.18,2,2,0,0,1-1.22-.37,1.61,1.61,0,0,1-.6-1.13,3.67,3.67,0,0,1-3.22,1.57,3.39,3.39,0,0,1-2.33-.76,3,3,0,0,1-.64-3.2,2.24,2.24,0,0,1,.53-.77,3.24,3.24,0,0,1,.78-.48,4.51,4.51,0,0,1,.85-.29l.86-.15.6-.07.62-.09c.14,0,.31,0,.54-.09a2.26,2.26,0,0,0,.5-.16,2.36,2.36,0,0,0,.36-.21.71.71,0,0,0,.27-.33,1.15,1.15,0,0,0,.08-.44,1.08,1.08,0,0,0-.63-1,3.18,3.18,0,0,0-1.49-.33,4.75,4.75,0,0,0-2.92,1l-.72-1.18a6.41,6.41,0,0,1,3.74-1.19,4.24,4.24,0,0,1,2.65.75,2.75,2.75,0,0,1,1,2.31v4.43c0,.67.25,1,.74,1A.91.91,0,0,0,162.4,799.79Zm-2.86-2.38v-1.62a1.8,1.8,0,0,1-.39.39,1.67,1.67,0,0,1-.52.24l-.51.14c-.12,0-.34.07-.64.11l-.64.1a3.78,3.78,0,0,0-1.46.47,1.21,1.21,0,0,0-.49,1.11,1.39,1.39,0,0,0,.54,1.19,2.35,2.35,0,0,0,1.41.39,3,3,0,0,0,1.91-.63A2.26,2.26,0,0,0,159.54,797.41Z"/><path class="cls-5" d="M169,799.41l.66,1.19a3.21,3.21,0,0,1-2,.63,2.66,2.66,0,0,1-2.45-1.19,3.48,3.48,0,0,1-.4-1.85V793h-1.62v-1.3h1.62V789h1.57v2.62h3V793h-3v5.24q0,1.62,1.44,1.62A1.88,1.88,0,0,0,169,799.41Z"/><path class="cls-5" d="M180.94,799.41l.66,1.19a3.19,3.19,0,0,1-2,.63,2.66,2.66,0,0,1-2.45-1.19,3.49,3.49,0,0,1-.39-1.85V793h-1.62v-1.3h1.62V789h1.56v2.62h3V793h-3v5.24q0,1.62,1.44,1.62A1.88,1.88,0,0,0,180.94,799.41Z"/><path class="cls-5" d="M184.83,801h-1.57V788.16h1.57v5a3.71,3.71,0,0,1,3.2-1.76,3.13,3.13,0,0,1,2.39.93,3.67,3.67,0,0,1,.89,2.61v6h-1.57v-5.67c0-1.62-.7-2.43-2.09-2.43a2.7,2.7,0,0,0-2,.81,2.86,2.86,0,0,0-.8,2.11Z"/><path class="cls-5" d="M202.45,796.1a3.59,3.59,0,0,1,0,.61h-7.34A3.23,3.23,0,0,0,196,799a3,3,0,0,0,2.23.82,3.66,3.66,0,0,0,2.77-1.22l1,1a5,5,0,0,1-3.85,1.64,4.57,4.57,0,0,1-3.51-1.36,4.92,4.92,0,0,1-1.28-3.5,5.13,5.13,0,0,1,1.25-3.53,4.28,4.28,0,0,1,3.34-1.4,4.16,4.16,0,0,1,3.24,1.33A4.73,4.73,0,0,1,202.45,796.1Zm-7.35-.59h5.73a3,3,0,0,0-.92-2,2.83,2.83,0,0,0-1.94-.71,2.75,2.75,0,0,0-2,.75A2.92,2.92,0,0,0,195.1,795.51Z"/><path class="cls-5" d="M212.51,791.65l-3.74,9.8a6.15,6.15,0,0,1-1.28,2.19,2.67,2.67,0,0,1-2,.69,3.15,3.15,0,0,1-1.9-.58l.68-1.15a2,2,0,0,0,1.12.36,1.36,1.36,0,0,0,1-.37,3.47,3.47,0,0,0,.68-1.05l.25-.56-4-9.33h1.8l3,7.28,2.65-7.28Z"/><path class="cls-5" d="M226.19,798.24a2.62,2.62,0,0,1-1,2.17,4.35,4.35,0,0,1-2.81.82,4.61,4.61,0,0,1-4.14-2l1.16-.86a3.56,3.56,0,0,0,3.07,1.51,2.88,2.88,0,0,0,1.59-.39,1.27,1.27,0,0,0,.59-1.12.92.92,0,0,0-.54-.92,9.85,9.85,0,0,0-2-.54,6.88,6.88,0,0,1-2.49-.88,2.07,2.07,0,0,1-.86-1.84,2.33,2.33,0,0,1,1-2.05,4.27,4.27,0,0,1,2.49-.7A5,5,0,0,1,226,793l-1,1a3.48,3.48,0,0,0-2.77-1.2,2.87,2.87,0,0,0-1.4.31,1,1,0,0,0-.58.95.87.87,0,0,0,.14.48,1.31,1.31,0,0,0,.3.35,1.86,1.86,0,0,0,.53.26l.63.17.73.14c.45.09.82.16,1.11.24a7.78,7.78,0,0,1,1,.32,2.74,2.74,0,0,1,.84.49,2.21,2.21,0,0,1,.51.72A2.25,2.25,0,0,1,226.19,798.24Z"/><path class="cls-5" d="M236.75,799.79,237,801a2.8,2.8,0,0,1-1.08.18,1.94,1.94,0,0,1-1.21-.37,1.66,1.66,0,0,1-.61-1.13,3.66,3.66,0,0,1-3.22,1.57,3.38,3.38,0,0,1-2.32-.76,2.6,2.6,0,0,1-.86-2.08,2.8,2.8,0,0,1,.21-1.12,2.38,2.38,0,0,1,.53-.77,3.13,3.13,0,0,1,.79-.48,4.68,4.68,0,0,1,.84-.29l.87-.15.6-.07.62-.09c.13,0,.31,0,.53-.09a2.13,2.13,0,0,0,.87-.37.86.86,0,0,0,.27-.33,1.15,1.15,0,0,0,.08-.44,1.08,1.08,0,0,0-.63-1,3.19,3.19,0,0,0-1.5-.33,4.72,4.72,0,0,0-2.91,1l-.72-1.18a6.41,6.41,0,0,1,3.74-1.19,4.24,4.24,0,0,1,2.65.75,2.78,2.78,0,0,1,1,2.31v4.43c0,.67.25,1,.74,1A.88.88,0,0,0,236.75,799.79Zm-2.86-2.38v-1.62a2,2,0,0,1-.38.39,1.73,1.73,0,0,1-.53.24l-.5.14c-.13,0-.34.07-.64.11l-.65.1a3.72,3.72,0,0,0-1.45.47,1.21,1.21,0,0,0-.49,1.11,1.39,1.39,0,0,0,.54,1.19,2.34,2.34,0,0,0,1.4.39,3,3,0,0,0,1.92-.63A2.29,2.29,0,0,0,233.89,797.41Z"/><path class="cls-5" d="M246.28,791.65l-3.75,9.8a6,6,0,0,1-1.28,2.19,2.63,2.63,0,0,1-1.94.69,3.2,3.2,0,0,1-1.91-.58l.69-1.15a2,2,0,0,0,1.11.36,1.34,1.34,0,0,0,1-.37,3.3,3.3,0,0,0,.69-1.05l.25-.56-4-9.33H239l3,7.28,2.64-7.28Z"/><path class="cls-5" d="M140.75,820l1.2.87a4.35,4.35,0,0,1-3.78,2,4.18,4.18,0,0,1-3.29-1.39,5.55,5.55,0,0,1,0-7,4.21,4.21,0,0,1,3.29-1.38A4.31,4.31,0,0,1,141.9,815l-1.17.94a2.82,2.82,0,0,0-2.51-1.46,2.64,2.64,0,0,0-2.13,1,4.29,4.29,0,0,0,0,5,2.62,2.62,0,0,0,2.12,1A2.92,2.92,0,0,0,140.75,820Z"/><path class="cls-5" d="M152.28,821.39l.2,1.19a2.83,2.83,0,0,1-1.08.18,2,2,0,0,1-1.21-.37,1.62,1.62,0,0,1-.61-1.13,3.66,3.66,0,0,1-3.22,1.57,3.36,3.36,0,0,1-2.32-.76,2.61,2.61,0,0,1-.87-2.08,2.8,2.8,0,0,1,.22-1.12,2.14,2.14,0,0,1,.53-.77,3.24,3.24,0,0,1,.78-.48,4.28,4.28,0,0,1,.85-.29l.86-.15.61-.07.62-.09c.13,0,.31,0,.53-.09a2.1,2.1,0,0,0,.5-.16,1.68,1.68,0,0,0,.36-.21.71.71,0,0,0,.27-.33,1,1,0,0,0,.08-.44,1.08,1.08,0,0,0-.63-1,3.15,3.15,0,0,0-1.49-.33,4.75,4.75,0,0,0-2.92,1l-.72-1.19a6.51,6.51,0,0,1,3.75-1.18,4.21,4.21,0,0,1,2.64.75,2.76,2.76,0,0,1,1,2.31v4.43c0,.67.24,1,.73,1A.91.91,0,0,0,152.28,821.39ZM149.42,819v-1.62a1.8,1.8,0,0,1-.39.39,1.57,1.57,0,0,1-.52.24l-.5.14-.64.11-.65.1a3.84,3.84,0,0,0-1.46.47,1.23,1.23,0,0,0-.48,1.11,1.39,1.39,0,0,0,.54,1.19,2.32,2.32,0,0,0,1.4.39,3,3,0,0,0,1.92-.63A2.29,2.29,0,0,0,149.42,819Z"/><path class="cls-5" d="M155.67,822.61H154.1v-9.36h1.57v1.55a3.71,3.71,0,0,1,3.2-1.76,3.12,3.12,0,0,1,2.39.93,3.67,3.67,0,0,1,.89,2.61v6h-1.57v-5.67c0-1.62-.7-2.43-2.09-2.43a2.72,2.72,0,0,0-2,.81,2.86,2.86,0,0,0-.8,2.11Z"/><path class="cls-5" d="M169.71,809.76h1.56v5a4.13,4.13,0,0,1,6.46-.38,5.28,5.28,0,0,1,1.17,3.51,5.19,5.19,0,0,1-1.18,3.51,4.11,4.11,0,0,1-6.45-.36v1.53h-1.56Zm2.35,5.72a3.85,3.85,0,0,0-.79,2.47,3.78,3.78,0,0,0,.8,2.47,2.73,2.73,0,0,0,2.23,1,2.6,2.6,0,0,0,2.17-1,4.43,4.43,0,0,0,0-5,2.58,2.58,0,0,0-2.17-1A2.71,2.71,0,0,0,172.06,815.48Z"/><path class="cls-5" d="M189.54,817.7a3.59,3.59,0,0,1,0,.61h-7.34a3.23,3.23,0,0,0,.92,2.26,3.05,3.05,0,0,0,2.23.82,3.64,3.64,0,0,0,2.77-1.22l1,1a5.06,5.06,0,0,1-3.85,1.64,4.57,4.57,0,0,1-3.51-1.36,4.87,4.87,0,0,1-1.28-3.5,5.08,5.08,0,0,1,1.25-3.53,4.27,4.27,0,0,1,3.34-1.4,4.19,4.19,0,0,1,3.24,1.33A4.76,4.76,0,0,1,189.54,817.7Zm-7.34-.59h5.72a2.93,2.93,0,0,0-.92-2,2.79,2.79,0,0,0-1.94-.71,2.75,2.75,0,0,0-2,.75A3,3,0,0,0,182.2,817.11Z"/><path class="cls-5" d="M205.11,822.61h-1.57v-1.53a3.83,3.83,0,0,1-3.33,1.75,3.88,3.88,0,0,1-3.13-1.39,5.2,5.2,0,0,1-1.17-3.49,5.29,5.29,0,0,1,1.17-3.53,4.13,4.13,0,0,1,6.46.38v-5h1.57Zm-2.37-2.2a3.77,3.77,0,0,0,.8-2.48,3.71,3.71,0,0,0-.8-2.46,2.73,2.73,0,0,0-2.24-1,2.62,2.62,0,0,0-2.18,1,3.91,3.91,0,0,0-.75,2.47,4,4,0,0,0,.75,2.49,2.6,2.6,0,0,0,2.18,1A2.74,2.74,0,0,0,202.74,820.41Z"/><path class="cls-5" d="M216.52,818a5,5,0,0,1-1.26,3.51,4.78,4.78,0,0,1-6.7,0,5,5,0,0,1-1.25-3.51,5,5,0,0,1,1.25-3.54,4.78,4.78,0,0,1,6.7,0A5,5,0,0,1,216.52,818Zm-1.67,0a3.9,3.9,0,0,0-.78-2.51,2.87,2.87,0,0,0-4.32,0,4.35,4.35,0,0,0,0,5,2.85,2.85,0,0,0,4.32,0A3.86,3.86,0,0,0,214.85,818Z"/><path class="cls-5" d="M220.28,822.61h-1.56v-9.36h1.56v1.55a3.74,3.74,0,0,1,3.21-1.76,3.13,3.13,0,0,1,2.39.93,3.67,3.67,0,0,1,.88,2.61v6H225.2v-5.67c0-1.62-.7-2.43-2.09-2.43a2.7,2.7,0,0,0-2,.81,2.86,2.86,0,0,0-.81,2.11Z"/><path class="cls-5" d="M237.91,817.7a5,5,0,0,1,0,.61h-7.34a3.22,3.22,0,0,0,.91,2.26,3.08,3.08,0,0,0,2.24.82,3.66,3.66,0,0,0,2.77-1.22l1,1a5,5,0,0,1-3.85,1.64,4.57,4.57,0,0,1-3.51-1.36,4.92,4.92,0,0,1-1.28-3.5,5.13,5.13,0,0,1,1.25-3.53,4.28,4.28,0,0,1,3.34-1.4,4.16,4.16,0,0,1,3.24,1.33A4.73,4.73,0,0,1,237.91,817.7Zm-7.35-.59h5.73a3,3,0,0,0-.92-2,2.84,2.84,0,0,0-2-.71,2.74,2.74,0,0,0-2,.75A2.92,2.92,0,0,0,230.56,817.11Z"/><path d="M123.58,730.23h-6.19v-16h6.19a7.38,7.38,0,0,1,5.69,2.23,9,9,0,0,1,0,11.52A7.35,7.35,0,0,1,123.58,730.23Zm-3.91-2.07h3.91a5.06,5.06,0,0,0,4-1.59,7.41,7.41,0,0,0,0-8.67,5.06,5.06,0,0,0-4-1.59h-3.91Z"/><path d="M145.64,723.67a6.2,6.2,0,0,1,0,.82H135.8a4.3,4.3,0,0,0,1.22,3,4.11,4.11,0,0,0,3,1.09,4.84,4.84,0,0,0,3.7-1.63l1.39,1.37a6.71,6.71,0,0,1-5.14,2.18,6.12,6.12,0,0,1-4.68-1.81,6.56,6.56,0,0,1-1.7-4.67,6.78,6.78,0,0,1,1.67-4.7,6.19,6.19,0,0,1,8.77-.1A6.32,6.32,0,0,1,145.64,723.67Zm-9.79-.79h7.63a4,4,0,0,0-1.22-2.67,3.72,3.72,0,0,0-2.6-1,3.64,3.64,0,0,0-2.65,1A3.91,3.91,0,0,0,135.85,722.88Z"/><path d="M159.08,717.75l-5,12.48H151.9l-5-12.48h2.35l3.77,10,3.77-10Z"/><path d="M172.42,723.67a6.4,6.4,0,0,1,0,.82h-9.8a4.35,4.35,0,0,0,1.23,3,4.07,4.07,0,0,0,3,1.09,4.84,4.84,0,0,0,3.7-1.63l1.39,1.37a6.71,6.71,0,0,1-5.13,2.18,6.09,6.09,0,0,1-4.68-1.81,6.52,6.52,0,0,1-1.71-4.67,6.83,6.83,0,0,1,1.67-4.7,5.66,5.66,0,0,1,4.45-1.87,5.6,5.6,0,0,1,4.32,1.77A6.32,6.32,0,0,1,172.42,723.67Zm-9.79-.79h7.63a4,4,0,0,0-1.22-2.67,3.7,3.7,0,0,0-2.59-1,3.62,3.62,0,0,0-2.65,1A3.87,3.87,0,0,0,162.63,722.88Z"/><path d="M177.39,730.23H175.3V713.09h2.09Z"/><path d="M192.68,724a6.65,6.65,0,0,1-1.68,4.68,6.4,6.4,0,0,1-8.94,0,6.69,6.69,0,0,1-1.67-4.68,6.77,6.77,0,0,1,1.67-4.72,6.37,6.37,0,0,1,8.94,0A6.73,6.73,0,0,1,192.68,724Zm-2.23,0a5.18,5.18,0,0,0-1-3.35,3.46,3.46,0,0,0-2.86-1.31,3.5,3.5,0,0,0-2.88,1.31,5.78,5.78,0,0,0,0,6.67,3.47,3.47,0,0,0,2.88,1.31,3.43,3.43,0,0,0,2.86-1.31A5.13,5.13,0,0,0,190.45,724Z"/><path d="M195.61,717.75h2.09v2.06a5.1,5.1,0,0,1,4.44-2.35,5.16,5.16,0,0,1,4.17,1.85,7.78,7.78,0,0,1,0,9.36,5.2,5.2,0,0,1-4.16,1.84,5.12,5.12,0,0,1-4.44-2.32v6.21h-2.09Zm3.14,3a5.1,5.1,0,0,0-1.05,3.3,5,5,0,0,0,1.06,3.29,3.65,3.65,0,0,0,3,1.29,3.45,3.45,0,0,0,2.9-1.28,5.91,5.91,0,0,0,0-6.61,3.44,3.44,0,0,0-2.9-1.3A3.63,3.63,0,0,0,198.75,720.71Z"/><path d="M222.06,723.67a6.2,6.2,0,0,1-.05.82h-9.79a4.3,4.3,0,0,0,1.22,3,4.08,4.08,0,0,0,3,1.09,4.84,4.84,0,0,0,3.69-1.63l1.39,1.37a6.71,6.71,0,0,1-5.13,2.18,6.09,6.09,0,0,1-4.68-1.81A6.52,6.52,0,0,1,210,724a6.83,6.83,0,0,1,1.67-4.7,5.66,5.66,0,0,1,4.45-1.87,5.57,5.57,0,0,1,4.32,1.77A6.33,6.33,0,0,1,222.06,723.67Zm-9.8-.79h7.64a4,4,0,0,0-1.23-2.67,3.7,3.7,0,0,0-2.59-1,3.62,3.62,0,0,0-2.65,1A3.87,3.87,0,0,0,212.26,722.88Z"/><path d="M232.28,718l-.67,2a3.1,3.1,0,0,0-1.44-.38,2.87,2.87,0,0,0-2.27,1.12,4.53,4.53,0,0,0-1,3v6.51h-2.09V717.75H227v2.11a4.25,4.25,0,0,1,3.63-2.35A3.05,3.05,0,0,1,232.28,718Z"/><path d="M243.82,726.53a3.51,3.51,0,0,1-1.36,2.89,5.85,5.85,0,0,1-3.75,1.09,6.12,6.12,0,0,1-5.52-2.66l1.54-1.15a4.77,4.77,0,0,0,4.1,2,3.83,3.83,0,0,0,2.11-.51,1.7,1.7,0,0,0,.8-1.5,1.25,1.25,0,0,0-.72-1.23,14.07,14.07,0,0,0-2.72-.72,9.1,9.1,0,0,1-3.31-1.17,2.72,2.72,0,0,1-1.15-2.45,3.12,3.12,0,0,1,1.36-2.74,5.72,5.72,0,0,1,3.32-.93,6.66,6.66,0,0,1,5.06,2.09l-1.39,1.32a4.62,4.62,0,0,0-3.69-1.61,3.9,3.9,0,0,0-1.88.42,1.35,1.35,0,0,0-.76,1.26,1.22,1.22,0,0,0,.18.65,1.82,1.82,0,0,0,.4.46,2.35,2.35,0,0,0,.71.34c.32.1.6.18.83.23l1,.19c.61.11,1.11.22,1.49.31a11.52,11.52,0,0,1,1.3.43,3.78,3.78,0,0,1,1.11.65,3.12,3.12,0,0,1,.69,1A3.17,3.17,0,0,1,243.82,726.53Z"/><polyline class="cls-4" points="70.87 259.31 55.14 268.88 55.14 283.29"/><polyline class="cls-4" points="290.95 259.31 306.68 268.88 306.68 283.29"/><path class="cls-5" d="M23.14,293.82l-3.35,12H17.92l-2.81-9.72-2.8,9.72H10.38l-3.28-12H8.89l2.55,9.85,2.9-9.85H16l2.9,9.88,2.54-9.88Z"/><path class="cls-5" d="M26.56,305.81H25V293h1.56v5a3.71,3.71,0,0,1,3.21-1.77,3.15,3.15,0,0,1,2.39.94,3.63,3.63,0,0,1,.88,2.61v6H31.48v-5.67c0-1.62-.7-2.43-2.09-2.43a2.74,2.74,0,0,0-2,.81,2.88,2.88,0,0,0-.8,2.11Z"/><path class="cls-5" d="M44.13,304.59l.2,1.18a2.83,2.83,0,0,1-1.08.18,2,2,0,0,1-1.22-.37,1.59,1.59,0,0,1-.6-1.12A3.7,3.7,0,0,1,38.21,306a3.46,3.46,0,0,1-2.33-.76,2.64,2.64,0,0,1-.86-2.09,2.59,2.59,0,0,1,.22-1.11,2.14,2.14,0,0,1,.53-.77,3,3,0,0,1,.78-.49,4.66,4.66,0,0,1,.85-.28c.25-.06.54-.11.86-.16l.6-.07.63-.08.53-.1a2.81,2.81,0,0,0,.5-.15,3.9,3.9,0,0,0,.36-.22.74.74,0,0,0,.27-.32,1,1,0,0,0,.08-.44,1.1,1.1,0,0,0-.63-1.05,3.31,3.31,0,0,0-1.49-.32,4.75,4.75,0,0,0-2.92,1l-.72-1.19a6.49,6.49,0,0,1,3.74-1.19,4.24,4.24,0,0,1,2.65.76,2.72,2.72,0,0,1,1,2.3v4.43c0,.67.25,1,.74,1A1,1,0,0,0,44.13,304.59Zm-2.86-2.38v-1.62a1.8,1.8,0,0,1-.39.39,1.67,1.67,0,0,1-.52.24l-.51.13a6,6,0,0,1-.64.11l-.64.1a3.94,3.94,0,0,0-1.46.48,1.23,1.23,0,0,0-.49,1.11,1.37,1.37,0,0,0,.54,1.18,2.29,2.29,0,0,0,1.41.4,3,3,0,0,0,1.91-.63A2.26,2.26,0,0,0,41.27,302.21Z"/><path class="cls-5" d="M50.72,304.21l.66,1.19a3.19,3.19,0,0,1-2,.63,2.66,2.66,0,0,1-2.45-1.19,3.52,3.52,0,0,1-.4-1.86v-5.23H44.88v-1.3H46.5v-2.63h1.57v2.63h3v1.3h-3V303q0,1.62,1.44,1.62A1.93,1.93,0,0,0,50.72,304.21Z"/><path class="cls-5" d="M62.67,304.21l.66,1.19a3.19,3.19,0,0,1-2,.63,2.66,2.66,0,0,1-2.45-1.19,3.53,3.53,0,0,1-.39-1.86v-5.23H56.84v-1.3h1.62v-2.63H60v2.63h3v1.3H60V303q0,1.62,1.44,1.62A1.93,1.93,0,0,0,62.67,304.21Z"/><path class="cls-5" d="M66.56,305.81H65V293h1.57v5a3.7,3.7,0,0,1,3.2-1.77,3.12,3.12,0,0,1,2.39.94,3.64,3.64,0,0,1,.89,2.61v6H71.47v-5.67c0-1.62-.7-2.43-2.09-2.43a2.72,2.72,0,0,0-2,.81,2.84,2.84,0,0,0-.8,2.11Z"/><path class="cls-5" d="M84.18,300.9a3.59,3.59,0,0,1,0,.61H76.8a3.23,3.23,0,0,0,.92,2.26,3.08,3.08,0,0,0,2.23.82,3.63,3.63,0,0,0,2.77-1.23l1,1A5,5,0,0,1,79.91,306a4.6,4.6,0,0,1-3.51-1.36,4.93,4.93,0,0,1-1.28-3.5,5.07,5.07,0,0,1,1.26-3.53,4.22,4.22,0,0,1,3.33-1.41A4.17,4.17,0,0,1,83,297.57,4.69,4.69,0,0,1,84.18,300.9Zm-7.35-.6h5.73a3,3,0,0,0-.92-2,2.83,2.83,0,0,0-1.94-.71,2.76,2.76,0,0,0-2,.76A2.94,2.94,0,0,0,76.83,300.3Z"/><path class="cls-5" d="M94.24,296.45l-3.74,9.79a6.21,6.21,0,0,1-1.28,2.2,2.71,2.71,0,0,1-2,.68,3.15,3.15,0,0,1-1.9-.57l.68-1.16a2,2,0,0,0,1.12.36,1.32,1.32,0,0,0,1-.37,3.23,3.23,0,0,0,.68-1.05l.25-.56-4-9.32h1.8l3,7.27,2.65-7.27Z"/><path class="cls-5" d="M107.92,303a2.63,2.63,0,0,1-1,2.17,4.4,4.4,0,0,1-2.8.82,4.59,4.59,0,0,1-4.14-2l1.15-.87a3.59,3.59,0,0,0,3.08,1.52,2.84,2.84,0,0,0,1.58-.39,1.25,1.25,0,0,0,.59-1.13.91.91,0,0,0-.54-.91,9.66,9.66,0,0,0-2-.54,6.87,6.87,0,0,1-2.49-.89,2,2,0,0,1-.86-1.83,2.32,2.32,0,0,1,1-2.05,4.27,4.27,0,0,1,2.49-.71,5,5,0,0,1,3.8,1.57l-1,1a3.51,3.51,0,0,0-2.78-1.21,2.87,2.87,0,0,0-1.4.32,1,1,0,0,0-.58.94.91.91,0,0,0,.14.49,1.49,1.49,0,0,0,.3.35,2,2,0,0,0,.54.25,4.23,4.23,0,0,0,.62.17l.73.15c.45.08.82.16,1.11.23a6.56,6.56,0,0,1,1,.33,2.73,2.73,0,0,1,.84.48,2.21,2.21,0,0,1,.51.72A2.26,2.26,0,0,1,107.92,303Z"/><path class="cls-5" d="M118.49,304.59l.19,1.18a2.77,2.77,0,0,1-1.08.18,1.94,1.94,0,0,1-1.21-.37,1.59,1.59,0,0,1-.6-1.12,3.72,3.72,0,0,1-3.23,1.57,3.43,3.43,0,0,1-2.32-.76,2.64,2.64,0,0,1-.86-2.09,2.75,2.75,0,0,1,.21-1.11,2.16,2.16,0,0,1,.54-.77,2.82,2.82,0,0,1,.78-.49,4.58,4.58,0,0,1,.84-.28c.26-.06.54-.11.87-.16l.6-.07.62-.08.53-.1a3.28,3.28,0,0,0,.51-.15,3.9,3.9,0,0,0,.36-.22.91.91,0,0,0,.27-.32,1.19,1.19,0,0,0,.08-.44,1.1,1.1,0,0,0-.63-1.05,3.32,3.32,0,0,0-1.5-.32,4.7,4.7,0,0,0-2.91,1l-.72-1.19a6.49,6.49,0,0,1,3.74-1.19,4.24,4.24,0,0,1,2.65.76,2.72,2.72,0,0,1,1,2.3v4.43c0,.67.25,1,.74,1A1,1,0,0,0,118.49,304.59Zm-2.87-2.38v-1.62a2,2,0,0,1-.38.39,1.73,1.73,0,0,1-.53.24l-.5.13c-.13,0-.34.07-.64.11l-.65.1a4.07,4.07,0,0,0-1.46.48,1.23,1.23,0,0,0-.48,1.11,1.37,1.37,0,0,0,.54,1.18,2.28,2.28,0,0,0,1.4.4,3,3,0,0,0,1.92-.63A2.29,2.29,0,0,0,115.62,302.21Z"/><path class="cls-5" d="M128,296.45l-3.75,9.79a6.06,6.06,0,0,1-1.28,2.2,2.66,2.66,0,0,1-1.94.68,3.2,3.2,0,0,1-1.91-.57l.69-1.16a2,2,0,0,0,1.11.36,1.3,1.3,0,0,0,1-.37,3.24,3.24,0,0,0,.69-1.05l.25-.56-4-9.32h1.8l3,7.27,2.64-7.27Z"/><path class="cls-5" d="M30.57,325.81l.66,1.19a3.21,3.21,0,0,1-2,.63,2.66,2.66,0,0,1-2.45-1.19,3.52,3.52,0,0,1-.4-1.86v-5.23H24.73v-1.3h1.62v-2.63h1.57v2.63h3v1.3h-3v5.23q0,1.62,1.44,1.62A1.93,1.93,0,0,0,30.57,325.81Z"/><path class="cls-5" d="M34.46,327.41H32.89V314.56h1.57v5a3.7,3.7,0,0,1,3.2-1.77,3.14,3.14,0,0,1,2.39.94,3.63,3.63,0,0,1,.88,2.61v6H39.37v-5.67c0-1.62-.7-2.43-2.09-2.43a2.7,2.7,0,0,0-2,.81,2.84,2.84,0,0,0-.8,2.11Z"/><path class="cls-5" d="M52.08,322.5a5,5,0,0,1,0,.61H44.7a3.22,3.22,0,0,0,.91,2.26,3.12,3.12,0,0,0,2.24.82A3.63,3.63,0,0,0,50.62,325l1,1a5,5,0,0,1-3.85,1.64,4.6,4.6,0,0,1-3.51-1.36,4.93,4.93,0,0,1-1.28-3.5,5.11,5.11,0,0,1,1.25-3.53,4.26,4.26,0,0,1,3.34-1.41,4.17,4.17,0,0,1,3.24,1.34A4.69,4.69,0,0,1,52.08,322.5Zm-7.35-.6h5.73a3,3,0,0,0-.92-2,2.84,2.84,0,0,0-1.95-.71,2.75,2.75,0,0,0-2,.76A2.89,2.89,0,0,0,44.73,321.9Z"/><path class="cls-5" d="M62.14,318.05l-3.75,9.79a6.21,6.21,0,0,1-1.27,2.2,2.71,2.71,0,0,1-1.95.68,3.2,3.2,0,0,1-1.91-.57L54,329a2,2,0,0,0,1.11.36,1.34,1.34,0,0,0,1-.37,3.23,3.23,0,0,0,.68-1.05l.25-.56-4-9.32h1.8l3,7.27,2.65-7.27Z"/><path class="cls-5" d="M70.24,327.41H68.67v-9.36h1.57v1.55a3.7,3.7,0,0,1,3.2-1.77,3.16,3.16,0,0,1,2.4.94,3.68,3.68,0,0,1,.88,2.61v6H75.15v-5.67c0-1.62-.69-2.43-2.09-2.43a2.72,2.72,0,0,0-2,.81,2.84,2.84,0,0,0-.8,2.11Z"/><path class="cls-5" d="M87.86,322.5a3.59,3.59,0,0,1,0,.61H80.48a3.23,3.23,0,0,0,.92,2.26,3.09,3.09,0,0,0,2.23.82A3.63,3.63,0,0,0,86.4,325l1,1a5.07,5.07,0,0,1-3.86,1.64,4.63,4.63,0,0,1-3.51-1.36,4.93,4.93,0,0,1-1.28-3.5,5.07,5.07,0,0,1,1.26-3.53,4.22,4.22,0,0,1,3.33-1.41,4.17,4.17,0,0,1,3.24,1.34A4.69,4.69,0,0,1,87.86,322.5Zm-7.34-.6h5.72a3,3,0,0,0-.92-2,2.83,2.83,0,0,0-1.94-.71,2.76,2.76,0,0,0-2,.76A2.93,2.93,0,0,0,80.52,321.9Z"/><path class="cls-5" d="M98.41,322.5a5,5,0,0,1,0,.61H91a3.19,3.19,0,0,0,.92,2.26,3.08,3.08,0,0,0,2.23.82A3.63,3.63,0,0,0,97,325l1,1a5,5,0,0,1-3.85,1.64,4.6,4.6,0,0,1-3.51-1.36,4.93,4.93,0,0,1-1.28-3.5,5.11,5.11,0,0,1,1.25-3.53,4.26,4.26,0,0,1,3.34-1.41,4.17,4.17,0,0,1,3.24,1.34A4.69,4.69,0,0,1,98.41,322.5Zm-7.35-.6h5.73a3,3,0,0,0-.92-2,2.84,2.84,0,0,0-2-.71,2.75,2.75,0,0,0-2,.76A2.89,2.89,0,0,0,91.06,321.9Z"/><path class="cls-5" d="M109.12,327.41h-1.57v-1.53a4.12,4.12,0,0,1-6.46.36,5.22,5.22,0,0,1-1.17-3.49,5.28,5.28,0,0,1,1.17-3.53,4.11,4.11,0,0,1,6.46.38v-5h1.57Zm-2.37-2.21a4.21,4.21,0,0,0,0-4.94,2.76,2.76,0,0,0-2.24-1,2.6,2.6,0,0,0-2.18,1,4.43,4.43,0,0,0,0,5,2.59,2.59,0,0,0,2.18,1A2.71,2.71,0,0,0,106.75,325.2Z"/><path class="cls-5" d="M264.58,293.78l-3.35,12h-1.87l-2.81-9.72-2.81,9.72h-1.93l-3.27-12h1.78l2.56,9.84,2.89-9.84h1.62l2.9,9.88,2.54-9.88Z"/><path class="cls-5" d="M268,305.77h-1.57V292.91H268v5a3.71,3.71,0,0,1,3.2-1.76,3.1,3.1,0,0,1,2.39.94,3.63,3.63,0,0,1,.88,2.61v6h-1.56V300.1c0-1.62-.7-2.43-2.09-2.43a2.7,2.7,0,0,0-2,.81,2.83,2.83,0,0,0-.8,2.1Z"/><path class="cls-5" d="M285.56,304.54l.2,1.19a2.83,2.83,0,0,1-1.08.18,2,2,0,0,1-1.22-.37,1.61,1.61,0,0,1-.6-1.12,3.68,3.68,0,0,1-3.22,1.56,3.41,3.41,0,0,1-2.32-.75,2.62,2.62,0,0,1-.86-2.09,2.83,2.83,0,0,1,.21-1.12,2.1,2.1,0,0,1,.53-.76,3,3,0,0,1,.78-.49,5,5,0,0,1,.85-.29l.86-.15.61-.07.62-.08.53-.1a2.1,2.1,0,0,0,.5-.16,1.68,1.68,0,0,0,.36-.21.71.71,0,0,0,.27-.33,1,1,0,0,0,.08-.44,1.08,1.08,0,0,0-.62-1,3.22,3.22,0,0,0-1.5-.32,4.7,4.7,0,0,0-2.91,1l-.73-1.19a6.52,6.52,0,0,1,3.75-1.19,4.15,4.15,0,0,1,2.64.76,2.73,2.73,0,0,1,1,2.3v4.43c0,.67.24,1,.73,1A.91.91,0,0,0,285.56,304.54Zm-2.86-2.37v-1.62a2,2,0,0,1-.39.38,1.57,1.57,0,0,1-.52.25l-.5.13c-.13,0-.34.07-.64.11l-.65.1a4,4,0,0,0-1.46.47,1.23,1.23,0,0,0-.48,1.11,1.37,1.37,0,0,0,.54,1.19,2.32,2.32,0,0,0,1.4.4,3,3,0,0,0,1.92-.63A2.29,2.29,0,0,0,282.7,302.17Z"/><path class="cls-5" d="M292.15,304.16l.67,1.19a3.22,3.22,0,0,1-2,.63,2.65,2.65,0,0,1-2.45-1.19,3.47,3.47,0,0,1-.39-1.85V297.7h-1.62v-1.29h1.62v-2.63h1.56v2.63h3v1.29h-3v5.24q0,1.62,1.44,1.62A1.88,1.88,0,0,0,292.15,304.16Z"/><path class="cls-5" d="M309.23,293.78v7.49a4.45,4.45,0,0,1-1.38,3.42,5.52,5.52,0,0,1-7.09,0,4.5,4.5,0,0,1-1.36-3.42v-7.49h1.68v7.49a3.09,3.09,0,0,0,.86,2.29,3.21,3.21,0,0,0,2.36.86,3.29,3.29,0,0,0,2.38-.86,3.07,3.07,0,0,0,.88-2.29v-7.49Z"/><path class="cls-5" d="M319.17,303a2.62,2.62,0,0,1-1,2.17,4.35,4.35,0,0,1-2.81.82,4.59,4.59,0,0,1-4.14-2l1.16-.86a3.56,3.56,0,0,0,3.07,1.51,2.88,2.88,0,0,0,1.59-.39,1.25,1.25,0,0,0,.59-1.12.93.93,0,0,0-.54-.92,9.85,9.85,0,0,0-2-.54,6.88,6.88,0,0,1-2.49-.88,2.06,2.06,0,0,1-.86-1.84,2.33,2.33,0,0,1,1-2.05,4.27,4.27,0,0,1,2.49-.7,5,5,0,0,1,3.8,1.57l-1.05,1a3.46,3.46,0,0,0-2.77-1.21,3,3,0,0,0-1.4.31,1,1,0,0,0-.58.95.93.93,0,0,0,.14.49,1.49,1.49,0,0,0,.3.35,1.88,1.88,0,0,0,.53.25,6.14,6.14,0,0,0,.63.17l.72.14,1.12.24a7.78,7.78,0,0,1,1,.32,3,3,0,0,1,.84.49,2.21,2.21,0,0,1,.51.72A2.25,2.25,0,0,1,319.17,303Z"/><path class="cls-5" d="M329.79,300.85a3.52,3.52,0,0,1,0,.61h-7.34a3.21,3.21,0,0,0,.92,2.26,3,3,0,0,0,2.23.82,3.66,3.66,0,0,0,2.77-1.22l1,1a5,5,0,0,1-3.85,1.64,4.57,4.57,0,0,1-3.51-1.36,4.9,4.9,0,0,1-1.28-3.5,5.15,5.15,0,0,1,1.25-3.53,4.28,4.28,0,0,1,3.34-1.4,4.16,4.16,0,0,1,3.24,1.33A4.73,4.73,0,0,1,329.79,300.85Zm-7.35-.59h5.73a3,3,0,0,0-.92-2,2.84,2.84,0,0,0-1.95-.71,2.71,2.71,0,0,0-2,.76A2.87,2.87,0,0,0,322.44,300.26Z"/><path class="cls-5" d="M337.46,296.57l-.51,1.49a2.3,2.3,0,0,0-1.08-.29,2.15,2.15,0,0,0-1.7.84,3.44,3.44,0,0,0-.71,2.28v4.88h-1.57v-9.36h1.57V298a3.17,3.17,0,0,1,2.72-1.76A2.29,2.29,0,0,1,337.46,296.57Z"/><path class="cls-5" d="M346.11,303a2.64,2.64,0,0,1-1,2.17,4.37,4.37,0,0,1-2.81.82,4.57,4.57,0,0,1-4.14-2l1.15-.86a3.58,3.58,0,0,0,3.08,1.51,2.82,2.82,0,0,0,1.58-.39,1.24,1.24,0,0,0,.6-1.12.93.93,0,0,0-.54-.92,9.8,9.8,0,0,0-2-.54,6.75,6.75,0,0,1-2.48-.88,2,2,0,0,1-.86-1.84,2.32,2.32,0,0,1,1-2.05,4.27,4.27,0,0,1,2.49-.7,5,5,0,0,1,3.8,1.57l-1,1a3.47,3.47,0,0,0-2.77-1.21,3,3,0,0,0-1.41.31,1,1,0,0,0-.57.95.92.92,0,0,0,.13.49,1.32,1.32,0,0,0,.31.35,1.75,1.75,0,0,0,.53.25c.24.08.45.13.62.17l.73.14,1.12.24a8.36,8.36,0,0,1,1,.32,2.75,2.75,0,0,1,.83.49,2.3,2.3,0,0,1,.73,1.74Z"/><path class="cls-5" d="M257.26,318.17l-.51,1.49a2.3,2.3,0,0,0-1.08-.29,2.17,2.17,0,0,0-1.7.84,3.44,3.44,0,0,0-.71,2.28v4.88H251.7V318h1.56v1.58a3.17,3.17,0,0,1,2.72-1.76A2.29,2.29,0,0,1,257.26,318.17Z"/><path class="cls-5" d="M267.05,322.45a3.52,3.52,0,0,1,0,.61h-7.34a3.21,3.21,0,0,0,.92,2.26,3.05,3.05,0,0,0,2.23.82,3.64,3.64,0,0,0,2.77-1.22l1.05,1a5,5,0,0,1-3.86,1.64,4.59,4.59,0,0,1-3.51-1.36,4.89,4.89,0,0,1-1.27-3.5,5.1,5.1,0,0,1,1.25-3.53,4.25,4.25,0,0,1,3.34-1.4,4.19,4.19,0,0,1,3.24,1.33A4.76,4.76,0,0,1,267.05,322.45Zm-7.34-.59h5.72a2.93,2.93,0,0,0-.92-2,2.81,2.81,0,0,0-1.94-.71,2.71,2.71,0,0,0-2,.76A2.91,2.91,0,0,0,259.71,321.86Z"/><path class="cls-5" d="M277.54,326.14l.2,1.19a2.83,2.83,0,0,1-1.08.18,1.94,1.94,0,0,1-1.21-.37,1.64,1.64,0,0,1-.61-1.12,3.68,3.68,0,0,1-3.22,1.56,3.42,3.42,0,0,1-2.32-.75,2.62,2.62,0,0,1-.86-2.09,2.83,2.83,0,0,1,.21-1.12,2.23,2.23,0,0,1,.53-.76,2.88,2.88,0,0,1,.79-.49,4.68,4.68,0,0,1,.84-.29l.87-.15.6-.07.62-.08.53-.1a2.38,2.38,0,0,0,.51-.16,1.9,1.9,0,0,0,.35-.21.71.71,0,0,0,.27-.33,1,1,0,0,0,.09-.44,1.09,1.09,0,0,0-.63-1,3.19,3.19,0,0,0-1.5-.32,4.7,4.7,0,0,0-2.91,1l-.72-1.19a6.49,6.49,0,0,1,3.74-1.19,4.18,4.18,0,0,1,2.65.76,2.75,2.75,0,0,1,1,2.3v4.43c0,.67.24,1,.74,1A.88.88,0,0,0,277.54,326.14Zm-2.86-2.37v-1.62a2,2,0,0,1-.39.38,1.57,1.57,0,0,1-.52.25l-.5.13c-.13,0-.34.07-.64.11s-.52.07-.65.1a4,4,0,0,0-1.46.47,1.23,1.23,0,0,0-.48,1.11,1.37,1.37,0,0,0,.54,1.19,2.34,2.34,0,0,0,1.4.4,3,3,0,0,0,1.92-.63A2.29,2.29,0,0,0,274.68,323.77Z"/><path class="cls-5" d="M281,327.37h-1.56V314.51H281Z"/><path class="cls-5" d="M285.46,327.37H283.9V314.51h1.56Z"/><path class="cls-5" d="M296.28,318l-3.74,9.79a6.06,6.06,0,0,1-1.28,2.19,2.66,2.66,0,0,1-1.94.69,3.12,3.12,0,0,1-1.91-.58l.68-1.15a2,2,0,0,0,1.12.36,1.32,1.32,0,0,0,1-.37,3.47,3.47,0,0,0,.68-1.05l.26-.56-4-9.32H289l3,7.27,2.65-7.27Z"/><path class="cls-5" d="M304.38,327.37h-1.57V318h1.57v1.54a3.72,3.72,0,0,1,3.2-1.76,3.13,3.13,0,0,1,2.4.94,3.63,3.63,0,0,1,.88,2.61v6h-1.57V321.7c0-1.62-.69-2.43-2.08-2.43a2.74,2.74,0,0,0-2,.81,2.87,2.87,0,0,0-.8,2.1Z"/><path class="cls-5" d="M322,322.45a5.16,5.16,0,0,1,0,.61h-7.35a3.25,3.25,0,0,0,.92,2.26,3.05,3.05,0,0,0,2.23.82,3.63,3.63,0,0,0,2.77-1.22l1,1a5,5,0,0,1-3.85,1.64,4.57,4.57,0,0,1-3.51-1.36,4.9,4.9,0,0,1-1.28-3.5,5.15,5.15,0,0,1,1.25-3.53,4.27,4.27,0,0,1,3.34-1.4,4.19,4.19,0,0,1,3.24,1.33A4.76,4.76,0,0,1,322,322.45Zm-7.34-.59h5.72a2.93,2.93,0,0,0-.92-2,2.79,2.79,0,0,0-1.94-.71,2.73,2.73,0,0,0-2,.76A2.91,2.91,0,0,0,314.66,321.86Z"/><path class="cls-5" d="M332.55,322.45a3.52,3.52,0,0,1,0,.61h-7.34a3.21,3.21,0,0,0,.92,2.26,3.05,3.05,0,0,0,2.23.82,3.64,3.64,0,0,0,2.77-1.22l1.05,1a5,5,0,0,1-3.85,1.64,4.6,4.6,0,0,1-3.52-1.36,4.89,4.89,0,0,1-1.27-3.5,5.1,5.1,0,0,1,1.25-3.53,4.25,4.25,0,0,1,3.34-1.4,4.19,4.19,0,0,1,3.24,1.33A4.76,4.76,0,0,1,332.55,322.45Zm-7.34-.59h5.72a2.93,2.93,0,0,0-.92-2,2.81,2.81,0,0,0-1.94-.71,2.71,2.71,0,0,0-2,.76A2.91,2.91,0,0,0,325.21,321.86Z"/><path class="cls-5" d="M343.26,327.37h-1.57v-1.53a3.85,3.85,0,0,1-3.33,1.74,3.9,3.9,0,0,1-3.13-1.38,5.85,5.85,0,0,1,0-7,4.12,4.12,0,0,1,6.46.37v-5h1.57Zm-2.37-2.21a4.21,4.21,0,0,0,0-4.94,2.73,2.73,0,0,0-2.24-1,2.63,2.63,0,0,0-2.18,1,4.48,4.48,0,0,0,0,5,2.61,2.61,0,0,0,2.18,1A2.74,2.74,0,0,0,340.89,325.16Z"/><g class="cls-1"><circle class="cls-2" cx="236.62" cy="156.92" r="117.26"/><circle class="cls-6" cx="236.62" cy="156.92" r="117.26"/></g><circle class="cls-4" cx="125.26" cy="156.91" r="117.26"/><path d="M165.48,10.24v10a6,6,0,0,1-1.84,4.57,7.4,7.4,0,0,1-9.46,0,6,6,0,0,1-1.81-4.57v-10h2.23v10a4.11,4.11,0,0,0,1.16,3.06,4.25,4.25,0,0,0,3.14,1.14,4.37,4.37,0,0,0,3.17-1.14,4.08,4.08,0,0,0,1.17-3.06v-10Z"/><path d="M178.72,22.53a3.51,3.51,0,0,1-1.36,2.89,5.85,5.85,0,0,1-3.75,1.09,6.12,6.12,0,0,1-5.52-2.66l1.54-1.15a4.77,4.77,0,0,0,4.1,2,3.83,3.83,0,0,0,2.11-.51,1.7,1.7,0,0,0,.8-1.5,1.25,1.25,0,0,0-.72-1.23,14.07,14.07,0,0,0-2.72-.72,9.1,9.1,0,0,1-3.31-1.17,2.72,2.72,0,0,1-1.15-2.45,3.12,3.12,0,0,1,1.36-2.74,5.72,5.72,0,0,1,3.32-.93,6.65,6.65,0,0,1,5.06,2.09l-1.39,1.32a4.62,4.62,0,0,0-3.69-1.61,3.9,3.9,0,0,0-1.88.42,1.35,1.35,0,0,0-.76,1.26,1.22,1.22,0,0,0,.18.65,1.82,1.82,0,0,0,.4.46,2.35,2.35,0,0,0,.71.34c.32.1.6.18.83.23l1,.19c.61.11,1.11.22,1.49.31a11.52,11.52,0,0,1,1.3.43,3.78,3.78,0,0,1,1.11.65,3.12,3.12,0,0,1,.69,1A3.17,3.17,0,0,1,178.72,22.53Z"/><path d="M192.88,19.67a6.4,6.4,0,0,1,0,.82H183a4.35,4.35,0,0,0,1.23,3,4.07,4.07,0,0,0,3,1.09,4.84,4.84,0,0,0,3.7-1.63l1.39,1.37a6.71,6.71,0,0,1-5.13,2.18,6.09,6.09,0,0,1-4.68-1.81A6.52,6.52,0,0,1,180.81,20a6.83,6.83,0,0,1,1.67-4.7,5.66,5.66,0,0,1,4.45-1.87,5.6,5.6,0,0,1,4.32,1.77A6.32,6.32,0,0,1,192.88,19.67Zm-9.79-.79h7.63a4,4,0,0,0-1.22-2.67,3.7,3.7,0,0,0-2.59-1,3.62,3.62,0,0,0-2.65,1A3.87,3.87,0,0,0,183.09,18.88Z"/><path d="M203.11,14l-.67,2a3.1,3.1,0,0,0-1.44-.38,2.87,2.87,0,0,0-2.27,1.12,4.53,4.53,0,0,0-.95,3v6.51h-2.09V13.75h2.09v2.11a4.23,4.23,0,0,1,3.62-2.35A3.09,3.09,0,0,1,203.11,14Z"/><path d="M214.65,22.53a3.5,3.5,0,0,1-1.37,2.89,5.82,5.82,0,0,1-3.74,1.09A6.12,6.12,0,0,1,204,23.85l1.54-1.15a4.77,4.77,0,0,0,4.1,2,3.85,3.85,0,0,0,2.11-.51,1.69,1.69,0,0,0,.79-1.5,1.25,1.25,0,0,0-.72-1.23,13.91,13.91,0,0,0-2.71-.72,9.1,9.1,0,0,1-3.31-1.17,2.72,2.72,0,0,1-1.15-2.45A3.13,3.13,0,0,1,206,14.39a5.77,5.77,0,0,1,3.33-.93,6.66,6.66,0,0,1,5.06,2.09L213,16.87a4.63,4.63,0,0,0-3.7-1.61,3.86,3.86,0,0,0-1.87.42,1.36,1.36,0,0,0-.77,1.26,1.22,1.22,0,0,0,.18.65,1.85,1.85,0,0,0,.41.46,2.23,2.23,0,0,0,.71.34c.32.1.6.18.83.23l1,.19c.61.11,1.1.22,1.49.31a11.42,11.42,0,0,1,1.29.43,3.84,3.84,0,0,1,1.12.65,3.1,3.1,0,0,1,.68,1A3,3,0,0,1,214.65,22.53Z"/><g class="cls-1"><circle class="cls-6" cx="236.62" cy="156.92" r="117.26"/></g><polyline class="cls-4" points="304.99 530.52 325 518.34 325 500"/><g class="cls-1"><circle class="cls-2" cx="248.44" cy="598.8" r="89.65"/><circle class="cls-7" cx="248.44" cy="598.8" r="89.65"/></g><polyline class="cls-4" points="84.72 570.02 69 579.59 69 594"/><path class="cls-5" d="M24.07,605.91l-3.34,12H18.86l-2.81-9.72-2.81,9.72H11.31L8,605.91H9.82l2.56,9.84,2.89-9.84h1.62l2.9,9.88,2.54-9.88Z"/><path class="cls-5" d="M27.49,617.9H25.93V605h1.56v5a3.74,3.74,0,0,1,3.21-1.76,3.1,3.1,0,0,1,2.39.94,3.63,3.63,0,0,1,.88,2.61v6H32.41v-5.67c0-1.62-.7-2.44-2.09-2.44a2.75,2.75,0,0,0-2,.82,2.87,2.87,0,0,0-.8,2.1Z"/><path class="cls-5" d="M45.06,616.67l.2,1.19a2.83,2.83,0,0,1-1.08.18,2,2,0,0,1-1.22-.37,1.61,1.61,0,0,1-.6-1.13,3.66,3.66,0,0,1-3.22,1.57,3.41,3.41,0,0,1-2.32-.75,2.63,2.63,0,0,1-.87-2.09,2.83,2.83,0,0,1,.22-1.12,2.1,2.1,0,0,1,.53-.76,3,3,0,0,1,.78-.49,5,5,0,0,1,.85-.29l.86-.15.61-.07.62-.08.53-.1a2.1,2.1,0,0,0,.5-.16,1.68,1.68,0,0,0,.36-.21.71.71,0,0,0,.27-.33,1,1,0,0,0,.08-.44,1.09,1.09,0,0,0-.63-1,3.15,3.15,0,0,0-1.49-.32,4.75,4.75,0,0,0-2.92,1l-.72-1.19a6.45,6.45,0,0,1,3.75-1.19,4.15,4.15,0,0,1,2.64.76,2.73,2.73,0,0,1,1,2.3v4.43c0,.67.24,1,.73,1A.91.91,0,0,0,45.06,616.67Zm-2.86-2.38v-1.61a2,2,0,0,1-.39.38,1.68,1.68,0,0,1-.52.25l-.5.13c-.13,0-.34.07-.64.11l-.65.1a3.82,3.82,0,0,0-1.46.48,1.2,1.2,0,0,0-.48,1.1,1.37,1.37,0,0,0,.54,1.19,2.32,2.32,0,0,0,1.4.4,3,3,0,0,0,1.92-.63A2.29,2.29,0,0,0,42.2,614.29Z"/><path class="cls-5" d="M51.65,616.29l.67,1.19a3.22,3.22,0,0,1-2,.63,2.67,2.67,0,0,1-2.45-1.19,3.47,3.47,0,0,1-.39-1.85v-5.24H45.82v-1.29h1.62v-2.63H49v2.63h3v1.29H49v5.24q0,1.62,1.44,1.62A1.88,1.88,0,0,0,51.65,616.29Z"/><path class="cls-5" d="M68.44,614.46a3.25,3.25,0,0,1-1,2.47,4.19,4.19,0,0,1-3,1H59.05v-12h5a4.73,4.73,0,0,1,2.86.75,2.53,2.53,0,0,1,1,2.13,2.76,2.76,0,0,1-1.57,2.59,3.31,3.31,0,0,1,1.54,1.21A3.28,3.28,0,0,1,68.44,614.46ZM66.25,609c0-1-.75-1.58-2.23-1.58H60.74v3.42h3.37a2.31,2.31,0,0,0,1.57-.5A1.67,1.67,0,0,0,66.25,609Zm.43,5.35a2,2,0,0,0-.56-1.5,2.23,2.23,0,0,0-1.64-.55H60.74v4.06h3.67a2.42,2.42,0,0,0,1.68-.53A1.9,1.9,0,0,0,66.68,614.37Z"/><path class="cls-5" d="M77.1,608.54h1.57v9.36H77.1v-1.53a3.77,3.77,0,0,1-3.2,1.74,3.16,3.16,0,0,1-2.4-.93,3.69,3.69,0,0,1-.88-2.6v-6h1.57v5.68q0,2.43,2.07,2.43a2.76,2.76,0,0,0,2-.81,2.84,2.84,0,0,0,.81-2.1Z"/><path class="cls-5" d="M88.62,615.12a2.62,2.62,0,0,1-1,2.17,4.34,4.34,0,0,1-2.8.82,4.57,4.57,0,0,1-4.14-2l1.15-.86a3.58,3.58,0,0,0,3.08,1.51,2.93,2.93,0,0,0,1.58-.38,1.26,1.26,0,0,0,.59-1.13.92.92,0,0,0-.54-.92,9.66,9.66,0,0,0-2-.54,6.75,6.75,0,0,1-2.48-.88,2,2,0,0,1-.87-1.84,2.33,2.33,0,0,1,1-2.05,4.27,4.27,0,0,1,2.49-.7,5,5,0,0,1,3.8,1.57l-1,1a3.47,3.47,0,0,0-2.77-1.21,3,3,0,0,0-1.41.31,1,1,0,0,0-.58.95.93.93,0,0,0,.14.49,1.32,1.32,0,0,0,.31.35,1.75,1.75,0,0,0,.53.25,6,6,0,0,0,.62.17l.73.14,1.11.24a7.28,7.28,0,0,1,1,.32,2.82,2.82,0,0,1,.84.49,2.21,2.21,0,0,1,.51.72A2.25,2.25,0,0,1,88.62,615.12Z"/><path class="cls-5" d="M97.94,615.12a2.64,2.64,0,0,1-1,2.17,4.37,4.37,0,0,1-2.81.82,4.59,4.59,0,0,1-4.14-2l1.15-.86a3.58,3.58,0,0,0,3.08,1.51,3,3,0,0,0,1.59-.38,1.28,1.28,0,0,0,.59-1.13.93.93,0,0,0-.54-.92,9.8,9.8,0,0,0-2-.54,6.82,6.82,0,0,1-2.48-.88,2,2,0,0,1-.86-1.84,2.32,2.32,0,0,1,1-2.05,4.28,4.28,0,0,1,2.5-.7,5,5,0,0,1,3.79,1.57l-1,1A3.47,3.47,0,0,0,94,609.67a3.06,3.06,0,0,0-1.41.31,1,1,0,0,0-.57.95.92.92,0,0,0,.13.49,1.32,1.32,0,0,0,.31.35,1.75,1.75,0,0,0,.53.25c.24.08.45.13.62.17l.73.14,1.12.24a8.36,8.36,0,0,1,1,.32,2.75,2.75,0,0,1,.83.49,2.3,2.3,0,0,1,.73,1.74Z"/><path class="cls-5" d="M101.69,606.7h-1.57V605h1.57Zm0,11.2h-1.57v-9.36h1.57Z"/><path class="cls-5" d="M106.06,617.9H104.5v-9.36h1.56v1.54a3.73,3.73,0,0,1,3.21-1.76,3.12,3.12,0,0,1,2.39.94,3.63,3.63,0,0,1,.88,2.61v6H111v-5.67c0-1.62-.7-2.44-2.09-2.44a2.75,2.75,0,0,0-2,.82,2.87,2.87,0,0,0-.8,2.1Z"/><path class="cls-5" d="M123.68,613a5.16,5.16,0,0,1,0,.61H116.3a3.25,3.25,0,0,0,.92,2.26,3.07,3.07,0,0,0,2.23.82,3.66,3.66,0,0,0,2.78-1.22l1,1a5,5,0,0,1-3.85,1.64,4.57,4.57,0,0,1-3.51-1.36,4.9,4.9,0,0,1-1.28-3.5,5.15,5.15,0,0,1,1.25-3.53,4.27,4.27,0,0,1,3.34-1.4,4.19,4.19,0,0,1,3.24,1.33A4.72,4.72,0,0,1,123.68,613Zm-7.34-.59h5.72a3,3,0,0,0-.91-2,2.84,2.84,0,0,0-2-.71,2.73,2.73,0,0,0-2,.76A2.91,2.91,0,0,0,116.34,612.39Z"/><path class="cls-5" d="M132.94,615.12a2.65,2.65,0,0,1-1,2.17,4.35,4.35,0,0,1-2.81.82,4.59,4.59,0,0,1-4.14-2l1.15-.86a3.59,3.59,0,0,0,3.08,1.51,3,3,0,0,0,1.59-.38,1.28,1.28,0,0,0,.59-1.13.93.93,0,0,0-.54-.92,9.85,9.85,0,0,0-2-.54,6.88,6.88,0,0,1-2.49-.88,2.06,2.06,0,0,1-.86-1.84,2.35,2.35,0,0,1,1-2.05,4.28,4.28,0,0,1,2.5-.7,5,5,0,0,1,3.8,1.57l-1,1a3.46,3.46,0,0,0-2.77-1.21,3,3,0,0,0-1.4.31,1,1,0,0,0-.58.95.92.92,0,0,0,.13.49,1.52,1.52,0,0,0,.31.35,1.75,1.75,0,0,0,.53.25c.24.08.45.13.62.17l.73.14,1.12.24a7.78,7.78,0,0,1,1,.32,3,3,0,0,1,.84.49,2.4,2.4,0,0,1,.73,1.74Z"/><path class="cls-5" d="M23.54,630.14l-2.6,9.36H19.23L17,632.15l-2.3,7.35H13l-2.59-9.36H12l1.89,7.47,2.34-7.47H17.7L20,637.61l1.9-7.47Z"/><path class="cls-5" d="M33.83,638.27l.2,1.19a2.83,2.83,0,0,1-1.08.18,2,2,0,0,1-1.22-.37,1.59,1.59,0,0,1-.6-1.12,3.69,3.69,0,0,1-3.22,1.56,3.41,3.41,0,0,1-2.32-.75,2.63,2.63,0,0,1-.87-2.09,2.67,2.67,0,0,1,.22-1.12,2.1,2.1,0,0,1,.53-.76,3,3,0,0,1,.78-.49,4.76,4.76,0,0,1,.85-.29l.86-.15.61-.07.62-.08.53-.1a2.1,2.1,0,0,0,.5-.16,1.68,1.68,0,0,0,.36-.21.74.74,0,0,0,.27-.32,1.06,1.06,0,0,0,.08-.45,1.09,1.09,0,0,0-.63-1,3.18,3.18,0,0,0-1.49-.32,4.8,4.8,0,0,0-2.92,1l-.72-1.18a6.52,6.52,0,0,1,3.75-1.19,4.15,4.15,0,0,1,2.64.76,2.73,2.73,0,0,1,1,2.3v4.43c0,.67.24,1,.73,1A.91.91,0,0,0,33.83,638.27ZM31,635.9v-1.62a2,2,0,0,1-.39.38,1.68,1.68,0,0,1-.52.25l-.5.13c-.13,0-.34.07-.64.11l-.65.1a4,4,0,0,0-1.46.47,1.23,1.23,0,0,0-.48,1.11,1.35,1.35,0,0,0,.54,1.19,2.3,2.3,0,0,0,1.4.4,3,3,0,0,0,1.92-.63A2.29,2.29,0,0,0,31,635.9Z"/><path class="cls-5" d="M37.21,639.5H35.65v-9.36h1.56v1.54a3.74,3.74,0,0,1,3.21-1.76,3.1,3.1,0,0,1,2.39.94,3.64,3.64,0,0,1,.89,2.61v6H42.13v-5.67c0-1.62-.7-2.43-2.09-2.43a2.7,2.7,0,0,0-2,.81,2.84,2.84,0,0,0-.81,2.1Z"/><path class="cls-5" d="M51.16,637.89l.67,1.19a3.21,3.21,0,0,1-2,.63,2.64,2.64,0,0,1-2.45-1.19,3.37,3.37,0,0,1-.4-1.85v-5.24H45.33v-1.29H47v-2.63h1.57v2.63h3v1.29h-3v5.24q0,1.62,1.44,1.62A1.83,1.83,0,0,0,51.16,637.89Z"/><path class="cls-5" d="M60.63,636.72a2.64,2.64,0,0,1-1,2.17,4.37,4.37,0,0,1-2.81.82,4.59,4.59,0,0,1-4.14-2l1.15-.86a3.58,3.58,0,0,0,3.08,1.51,2.82,2.82,0,0,0,1.58-.39,1.24,1.24,0,0,0,.6-1.12.93.93,0,0,0-.54-.92,9.8,9.8,0,0,0-2-.54,6.75,6.75,0,0,1-2.48-.88,2,2,0,0,1-.87-1.84,2.33,2.33,0,0,1,1-2,4.27,4.27,0,0,1,2.49-.7,5,5,0,0,1,3.8,1.57l-1,1a3.47,3.47,0,0,0-2.77-1.21,3,3,0,0,0-1.41.31,1,1,0,0,0-.57.95.92.92,0,0,0,.13.49,1.32,1.32,0,0,0,.31.35,1.75,1.75,0,0,0,.53.25,6,6,0,0,0,.62.17l.73.14,1.11.24a7.88,7.88,0,0,1,1,.32,2.75,2.75,0,0,1,.83.49,2.3,2.3,0,0,1,.73,1.74Z"/><path class="cls-5" d="M72.44,637.89l.67,1.19a3.22,3.22,0,0,1-2,.63,2.65,2.65,0,0,1-2.45-1.19,3.47,3.47,0,0,1-.39-1.85v-5.24H66.61v-1.29h1.62v-2.63h1.56v2.63h3v1.29h-3v5.24q0,1.62,1.44,1.62A1.88,1.88,0,0,0,72.44,637.89Z"/><path class="cls-5" d="M83.37,634.83a5,5,0,0,1-1.26,3.51,4.79,4.79,0,0,1-6.71,0,5.58,5.58,0,0,1,0-7,4.77,4.77,0,0,1,6.71,0A5,5,0,0,1,83.37,634.83Zm-1.68,0a3.92,3.92,0,0,0-.78-2.51,2.61,2.61,0,0,0-2.15-1,2.64,2.64,0,0,0-2.16,1,4.37,4.37,0,0,0,0,5,2.64,2.64,0,0,0,2.16,1,2.61,2.61,0,0,0,2.15-1A3.91,3.91,0,0,0,81.69,634.83Z"/><path class="cls-5" d="M90.42,626.64H92v5a4.12,4.12,0,0,1,6.46-.37,5.83,5.83,0,0,1,0,7,3.91,3.91,0,0,1-3.12,1.38A3.85,3.85,0,0,1,92,638v1.53H90.42Zm2.36,5.72a3.79,3.79,0,0,0-.79,2.47,3.72,3.72,0,0,0,.8,2.47,2.7,2.7,0,0,0,2.22,1,2.6,2.6,0,0,0,2.18-1,3.92,3.92,0,0,0,.76-2.48,4,4,0,0,0-.76-2.48,2.58,2.58,0,0,0-2.18-1A2.72,2.72,0,0,0,92.78,632.36Z"/><path class="cls-5" d="M108.19,630.14h1.56v9.36h-1.56V638a3.79,3.79,0,0,1-3.21,1.74,3.13,3.13,0,0,1-2.39-.93,3.64,3.64,0,0,1-.88-2.6v-6h1.56v5.68q0,2.43,2.07,2.43a2.77,2.77,0,0,0,2-.81,2.84,2.84,0,0,0,.81-2.1Z"/><path class="cls-5" d="M114.13,628.3h-1.57v-1.66h1.57Zm0,11.2h-1.57v-9.36h1.57Z"/><path class="cls-5" d="M118.55,639.5H117V626.64h1.56Z"/><path class="cls-5" d="M130,639.5h-1.56V638a3.87,3.87,0,0,1-3.33,1.74,3.91,3.91,0,0,1-3.14-1.38,5.85,5.85,0,0,1,0-7,4.13,4.13,0,0,1,6.47.37v-5H130Zm-2.37-2.21a4.17,4.17,0,0,0,0-4.94,2.73,2.73,0,0,0-2.24-1,2.62,2.62,0,0,0-2.18,1,4.48,4.48,0,0,0,0,5,2.6,2.6,0,0,0,2.18,1A2.71,2.71,0,0,0,127.65,637.29Z"/><path class="cls-5" d="M254.88,441.1l-3.34,12h-1.87l-2.81-9.72-2.81,9.72h-1.93l-3.27-12h1.78l2.55,9.85,2.9-9.85h1.62l2.9,9.88,2.54-9.88Z"/><path class="cls-5" d="M258.3,453.09h-1.56V440.24h1.56v5a3.73,3.73,0,0,1,3.21-1.77,3.14,3.14,0,0,1,2.39.94,3.64,3.64,0,0,1,.89,2.61v6h-1.57v-5.67c0-1.62-.7-2.43-2.09-2.43a2.7,2.7,0,0,0-2,.81,2.84,2.84,0,0,0-.81,2.1Z"/><path class="cls-5" d="M275.87,451.87l.2,1.18a2.83,2.83,0,0,1-1.08.18,1.94,1.94,0,0,1-1.21-.37,1.64,1.64,0,0,1-.61-1.12A3.68,3.68,0,0,1,270,453.3a3.42,3.42,0,0,1-2.32-.75,2.63,2.63,0,0,1-.87-2.09,2.83,2.83,0,0,1,.22-1.12,2.33,2.33,0,0,1,.53-.76,3,3,0,0,1,.78-.49,4.92,4.92,0,0,1,.85-.28c.25-.06.54-.11.86-.16l.61-.07.62-.08.53-.1a2.81,2.81,0,0,0,.5-.15,2.32,2.32,0,0,0,.36-.22.74.74,0,0,0,.27-.32,1,1,0,0,0,.08-.44,1.1,1.1,0,0,0-.63-1,3.28,3.28,0,0,0-1.49-.32,4.75,4.75,0,0,0-2.92,1l-.72-1.19a6.54,6.54,0,0,1,3.75-1.19,4.18,4.18,0,0,1,2.65.76,2.75,2.75,0,0,1,1,2.3V451c0,.67.24,1,.74,1A1,1,0,0,0,275.87,451.87ZM273,449.49v-1.62a2.06,2.06,0,0,1-.39.39,1.57,1.57,0,0,1-.52.24l-.5.13c-.13,0-.34.07-.64.11l-.65.1a4,4,0,0,0-1.46.48,1.22,1.22,0,0,0-.48,1.1,1.37,1.37,0,0,0,.54,1.19,2.28,2.28,0,0,0,1.4.4,3,3,0,0,0,1.92-.63A2.29,2.29,0,0,0,273,449.49Z"/><path class="cls-5" d="M282.46,451.49l.67,1.18a3.22,3.22,0,0,1-2,.63,2.64,2.64,0,0,1-2.44-1.18,3.43,3.43,0,0,1-.4-1.86V445h-1.62v-1.3h1.62V441.1h1.57v2.63h3V445h-3v5.23c0,1.08.47,1.62,1.43,1.62A1.91,1.91,0,0,0,282.46,451.49Z"/><path class="cls-5" d="M298,451.87l.2,1.18a2.83,2.83,0,0,1-1.08.18,2,2,0,0,1-1.22-.37,1.59,1.59,0,0,1-.6-1.12,3.69,3.69,0,0,1-3.22,1.56,3.41,3.41,0,0,1-2.32-.75,2.63,2.63,0,0,1-.87-2.09,2.67,2.67,0,0,1,.22-1.12,2.19,2.19,0,0,1,.53-.76,3,3,0,0,1,.78-.49,4.66,4.66,0,0,1,.85-.28c.25-.06.54-.11.86-.16l.61-.07.62-.08.53-.1a2.81,2.81,0,0,0,.5-.15,2.32,2.32,0,0,0,.36-.22.74.74,0,0,0,.27-.32,1,1,0,0,0,.08-.44,1.1,1.1,0,0,0-.63-1,3.31,3.31,0,0,0-1.49-.32,4.75,4.75,0,0,0-2.92,1l-.72-1.19a6.49,6.49,0,0,1,3.75-1.19,4.16,4.16,0,0,1,2.64.76,2.72,2.72,0,0,1,1,2.3V451c0,.67.25,1,.74,1A1,1,0,0,0,298,451.87Zm-2.86-2.38v-1.62a2.06,2.06,0,0,1-.39.39,1.67,1.67,0,0,1-.52.24l-.51.13a6.18,6.18,0,0,1-.63.11l-.65.1a3.94,3.94,0,0,0-1.46.48,1.22,1.22,0,0,0-.49,1.1,1.37,1.37,0,0,0,.54,1.19,2.29,2.29,0,0,0,1.41.4,3,3,0,0,0,1.92-.63A2.29,2.29,0,0,0,295.17,449.49Z"/><path class="cls-5" d="M306.35,450.48l1.2.86a4.35,4.35,0,0,1-3.78,2,4.21,4.21,0,0,1-3.29-1.38,5.59,5.59,0,0,1,0-7,4.18,4.18,0,0,1,3.29-1.39,4.29,4.29,0,0,1,3.73,1.95l-1.17.93a2.8,2.8,0,0,0-2.5-1.45,2.62,2.62,0,0,0-2.14,1,4.28,4.28,0,0,0,0,5,2.59,2.59,0,0,0,2.12,1A2.9,2.9,0,0,0,306.35,450.48Z"/><path class="cls-5" d="M314.27,451.49l.66,1.18a3.21,3.21,0,0,1-2,.63,2.66,2.66,0,0,1-2.45-1.18,3.52,3.52,0,0,1-.4-1.86V445h-1.62v-1.3h1.62V441.1h1.57v2.63h3V445h-3v5.23q0,1.62,1.44,1.62A1.93,1.93,0,0,0,314.27,451.49Z"/><path class="cls-5" d="M323,443.73h1.57v9.36H323v-1.53a3.79,3.79,0,0,1-3.2,1.74,3.16,3.16,0,0,1-2.4-.93,3.61,3.61,0,0,1-.88-2.59v-6h1.57v5.69q0,2.43,2.07,2.43a2.76,2.76,0,0,0,2-.81,2.86,2.86,0,0,0,.81-2.11Z"/><path class="cls-5" d="M335.72,451.87l.2,1.18a2.83,2.83,0,0,1-1.08.18,1.94,1.94,0,0,1-1.21-.37,1.56,1.56,0,0,1-.61-1.12,3.68,3.68,0,0,1-3.22,1.56,3.41,3.41,0,0,1-2.32-.75,2.63,2.63,0,0,1-.87-2.09,2.83,2.83,0,0,1,.22-1.12,2.19,2.19,0,0,1,.53-.76,3,3,0,0,1,.78-.49,4.92,4.92,0,0,1,.85-.28c.25-.06.54-.11.86-.16l.61-.07.62-.08.53-.1a2.81,2.81,0,0,0,.5-.15,2.32,2.32,0,0,0,.36-.22.74.74,0,0,0,.27-.32,1,1,0,0,0,.08-.44,1.1,1.1,0,0,0-.63-1,3.28,3.28,0,0,0-1.49-.32,4.75,4.75,0,0,0-2.92,1l-.72-1.19a6.52,6.52,0,0,1,3.75-1.19,4.15,4.15,0,0,1,2.64.76,2.73,2.73,0,0,1,1,2.3V451c0,.67.24,1,.73,1A1,1,0,0,0,335.72,451.87Zm-2.86-2.38v-1.62a2.06,2.06,0,0,1-.39.39,1.67,1.67,0,0,1-.52.24l-.5.13c-.13,0-.34.07-.64.11l-.65.1a4,4,0,0,0-1.46.48,1.22,1.22,0,0,0-.48,1.1,1.37,1.37,0,0,0,.54,1.19,2.26,2.26,0,0,0,1.4.4,3,3,0,0,0,1.92-.63A2.29,2.29,0,0,0,332.86,449.49Z"/><path class="cls-5" d="M339.16,453.09h-1.57V440.24h1.57Z"/><path class="cls-5" d="M343.64,453.09h-1.56V440.24h1.56Z"/><path class="cls-5" d="M354.46,443.73l-3.75,9.79a6.21,6.21,0,0,1-1.27,2.2,2.71,2.71,0,0,1-1.95.68,3.14,3.14,0,0,1-1.91-.58l.69-1.15a2,2,0,0,0,1.11.36,1.34,1.34,0,0,0,1-.37,3.23,3.23,0,0,0,.68-1.05l.25-.56-4-9.32h1.8l3,7.27,2.65-7.27Z"/><path class="cls-5" d="M248.46,474.69h-1.57v-9.36h1.57v1.55a3.7,3.7,0,0,1,3.2-1.77,3.13,3.13,0,0,1,2.4.94,3.68,3.68,0,0,1,.88,2.61v6h-1.57V469c0-1.62-.69-2.43-2.09-2.43a2.72,2.72,0,0,0-2,.81,2.87,2.87,0,0,0-.8,2.1Z"/><path class="cls-5" d="M266.08,469.77a3.72,3.72,0,0,1,0,.62H258.7a3.23,3.23,0,0,0,.92,2.26,3.09,3.09,0,0,0,2.23.81,3.61,3.61,0,0,0,2.77-1.22l1.05,1a5.06,5.06,0,0,1-3.86,1.63,4.59,4.59,0,0,1-3.51-1.36A4.89,4.89,0,0,1,257,470a5.06,5.06,0,0,1,1.25-3.52,4.64,4.64,0,0,1,6.58-.08A4.76,4.76,0,0,1,266.08,469.77Zm-7.34-.59h5.72a3,3,0,0,0-.92-2,2.81,2.81,0,0,0-1.94-.71,2.71,2.71,0,0,0-2,.76A2.93,2.93,0,0,0,258.74,469.18Z"/><path class="cls-5" d="M276.63,469.77a3.72,3.72,0,0,1,0,.62h-7.34a3.23,3.23,0,0,0,.92,2.26,3.07,3.07,0,0,0,2.23.81,3.62,3.62,0,0,0,2.77-1.22l1,1a5,5,0,0,1-3.85,1.63,4.57,4.57,0,0,1-3.51-1.36,4.9,4.9,0,0,1-1.28-3.5,5.06,5.06,0,0,1,1.26-3.52,4.62,4.62,0,0,1,6.57-.08A4.73,4.73,0,0,1,276.63,469.77Zm-7.35-.59H275a3,3,0,0,0-.92-2,2.83,2.83,0,0,0-1.94-.71,2.71,2.71,0,0,0-2,.76A2.89,2.89,0,0,0,269.28,469.18Z"/><path class="cls-5" d="M287.34,474.69h-1.57v-1.53a3.85,3.85,0,0,1-3.33,1.74,3.89,3.89,0,0,1-3.13-1.38,5.85,5.85,0,0,1,0-7,4.11,4.11,0,0,1,6.46.38v-5h1.57ZM285,472.48a4.21,4.21,0,0,0,0-4.94,2.73,2.73,0,0,0-2.24-1,2.62,2.62,0,0,0-2.18,1,4.48,4.48,0,0,0,0,5,2.6,2.6,0,0,0,2.18,1A2.71,2.71,0,0,0,285,472.48Z"/><path class="cls-5" d="M297.29,471.92a2.65,2.65,0,0,1-1,2.17,4.43,4.43,0,0,1-2.81.81,4.58,4.58,0,0,1-4.14-2l1.15-.87a3.58,3.58,0,0,0,3.08,1.51,2.82,2.82,0,0,0,1.58-.38,1.26,1.26,0,0,0,.6-1.13.91.91,0,0,0-.54-.91,10.31,10.31,0,0,0-2-.55,6.58,6.58,0,0,1-2.48-.88,2,2,0,0,1-.87-1.83,2.35,2.35,0,0,1,1-2.06,4.34,4.34,0,0,1,2.49-.7,5,5,0,0,1,3.8,1.57l-1,1a3.5,3.5,0,0,0-2.77-1.21,2.91,2.91,0,0,0-1.41.32,1,1,0,0,0-.57.94.92.92,0,0,0,.13.49,1.32,1.32,0,0,0,.31.35,1.75,1.75,0,0,0,.53.25,4.6,4.6,0,0,0,.62.17l.73.15c.45.08.83.16,1.11.23a7.88,7.88,0,0,1,1,.32,2.75,2.75,0,0,1,.83.49,2.3,2.3,0,0,1,.73,1.75Z"/><path class="cls-5" d="M309.1,473.09l.67,1.18a3.22,3.22,0,0,1-2,.63,2.67,2.67,0,0,1-2.45-1.18,3.53,3.53,0,0,1-.39-1.86v-5.23h-1.62v-1.3h1.62V462.7h1.56v2.63h3v1.3h-3v5.23q0,1.62,1.44,1.62A1.93,1.93,0,0,0,309.1,473.09Z"/><path class="cls-5" d="M320,470a5,5,0,0,1-1.26,3.51,4.82,4.82,0,0,1-6.71,0,5,5,0,0,1-1.25-3.51,5.09,5.09,0,0,1,1.25-3.54,4.77,4.77,0,0,1,6.71,0A5,5,0,0,1,320,470Zm-1.68,0a3.9,3.9,0,0,0-.78-2.51,2.58,2.58,0,0,0-2.15-1,2.61,2.61,0,0,0-2.16,1,4.35,4.35,0,0,0,0,5,2.64,2.64,0,0,0,2.16,1,2.61,2.61,0,0,0,2.15-1A3.86,3.86,0,0,0,318.35,470Z"/><path class="cls-5" d="M327.08,461.84h1.57v5a3.83,3.83,0,0,1,3.33-1.77,3.88,3.88,0,0,1,3.13,1.39,5.83,5.83,0,0,1,0,7A3.91,3.91,0,0,1,332,474.9a3.85,3.85,0,0,1-3.33-1.74v1.53h-1.57Zm2.36,5.71a3.82,3.82,0,0,0-.79,2.48,3.71,3.71,0,0,0,.8,2.46,2.7,2.7,0,0,0,2.22,1,2.62,2.62,0,0,0,2.18-1,3.89,3.89,0,0,0,.75-2.47,4,4,0,0,0-.75-2.49,2.6,2.6,0,0,0-2.18-1A2.72,2.72,0,0,0,329.44,467.55Z"/><path class="cls-5" d="M346.92,469.77a5.23,5.23,0,0,1,0,.62h-7.34a3.22,3.22,0,0,0,.91,2.26,3.11,3.11,0,0,0,2.24.81,3.62,3.62,0,0,0,2.77-1.22l1,1a5,5,0,0,1-3.85,1.63,4.57,4.57,0,0,1-3.51-1.36,4.9,4.9,0,0,1-1.28-3.5,5.1,5.1,0,0,1,1.25-3.52,4.26,4.26,0,0,1,3.34-1.41,4.2,4.2,0,0,1,3.24,1.33A4.73,4.73,0,0,1,346.92,469.77Zm-7.35-.59h5.73a3,3,0,0,0-.92-2,2.84,2.84,0,0,0-1.95-.71,2.71,2.71,0,0,0-2,.76A2.89,2.89,0,0,0,339.57,469.18Z"/><path class="cls-5" d="M276.75,483.44h1.57v5a4.11,4.11,0,0,1,6.46-.38,5.83,5.83,0,0,1,0,7,4.13,4.13,0,0,1-6.45-.36v1.53h-1.57Zm2.36,5.71a3.82,3.82,0,0,0-.79,2.48,3.77,3.77,0,0,0,.8,2.46,2.71,2.71,0,0,0,2.22,1,2.6,2.6,0,0,0,2.18-1,3.85,3.85,0,0,0,.76-2.47,3.91,3.91,0,0,0-.76-2.49,2.58,2.58,0,0,0-2.18-1A2.72,2.72,0,0,0,279.11,489.15Z"/><path class="cls-5" d="M294.52,486.93h1.56v9.36h-1.56v-1.53a3.79,3.79,0,0,1-3.2,1.74,3.16,3.16,0,0,1-2.4-.93A3.61,3.61,0,0,1,288,493v-6.05h1.57v5.69c0,1.62.68,2.43,2.06,2.43a2.77,2.77,0,0,0,2-.81,2.86,2.86,0,0,0,.81-2.11Z"/><path class="cls-5" d="M300.46,485.09h-1.57v-1.65h1.57Zm0,11.2h-1.57v-9.36h1.57Z"/><path class="cls-5" d="M304.89,496.29h-1.57V483.44h1.57Z"/><path class="cls-5" d="M316.35,496.29h-1.56v-1.53a4.14,4.14,0,0,1-6.46.36,5.18,5.18,0,0,1-1.18-3.49,5.23,5.23,0,0,1,1.18-3.53,4.11,4.11,0,0,1,6.46.38v-5h1.56ZM314,494.08a4.21,4.21,0,0,0,0-4.94,2.74,2.74,0,0,0-2.24-1,2.6,2.6,0,0,0-2.18,1,4.43,4.43,0,0,0,0,5,2.58,2.58,0,0,0,2.18,1A2.72,2.72,0,0,0,314,494.08Z"/><path d="M143.88,379.64a4.31,4.31,0,0,1-1.37,3.3,5.53,5.53,0,0,1-3.94,1.29h-7.22v-16H138a6.29,6.29,0,0,1,3.82,1,3.32,3.32,0,0,1,1.34,2.83,3.69,3.69,0,0,1-2.08,3.46,4.23,4.23,0,0,1,2.76,4.1ZM141,372.39c0-1.4-1-2.11-3-2.11H133.6v4.56h4.49a3.07,3.07,0,0,0,2.1-.66A2.23,2.23,0,0,0,141,372.39Zm.57,7.13a2.68,2.68,0,0,0-.74-2,2.94,2.94,0,0,0-2.18-.74h-5v5.42h4.9a3.24,3.24,0,0,0,2.23-.71A2.5,2.5,0,0,0,141.52,379.52Z"/><path d="M155.42,371.75h2.09v12.48h-2.09v-2a5,5,0,0,1-4.27,2.32,4.16,4.16,0,0,1-3.19-1.24,4.84,4.84,0,0,1-1.18-3.46v-8.06h2.09v7.58q0,3.24,2.76,3.24a3.67,3.67,0,0,0,2.71-1.08,3.81,3.81,0,0,0,1.08-2.81Z"/><path d="M170.78,380.53a3.52,3.52,0,0,1-1.37,2.89,5.82,5.82,0,0,1-3.74,1.09,6.12,6.12,0,0,1-5.52-2.66l1.53-1.15a4.8,4.8,0,0,0,4.11,2,3.85,3.85,0,0,0,2.11-.51,1.69,1.69,0,0,0,.79-1.5,1.25,1.25,0,0,0-.72-1.23,13.91,13.91,0,0,0-2.71-.72,9.1,9.1,0,0,1-3.31-1.17,2.72,2.72,0,0,1-1.15-2.45,3.13,3.13,0,0,1,1.35-2.74,5.75,5.75,0,0,1,3.33-.93,6.68,6.68,0,0,1,5.06,2.09l-1.39,1.32a4.63,4.63,0,0,0-3.7-1.61,3.86,3.86,0,0,0-1.87.42,1.36,1.36,0,0,0-.77,1.26,1.22,1.22,0,0,0,.18.65,1.85,1.85,0,0,0,.41.46,2.23,2.23,0,0,0,.71.34c.32.1.59.18.83.23l1,.19c.61.11,1.1.22,1.49.31a11.42,11.42,0,0,1,1.29.43,4,4,0,0,1,1.12.65,3.1,3.1,0,0,1,.68,1A3.17,3.17,0,0,1,170.78,380.53Z"/><path d="M175.77,369.3h-2.09v-2.21h2.09Zm0,14.93h-2.09V371.75h2.09Z"/><path d="M181.6,384.23h-2.08V371.75h2.08v2.06a5,5,0,0,1,4.28-2.35,4.16,4.16,0,0,1,3.19,1.25,4.88,4.88,0,0,1,1.17,3.48v8h-2.08v-7.56q0-3.24-2.79-3.24a3.63,3.63,0,0,0-2.7,1.08,3.82,3.82,0,0,0-1.07,2.8Z"/><path d="M205.1,377.67a6.2,6.2,0,0,1,0,.82h-9.79a4.3,4.3,0,0,0,1.22,3,4.1,4.1,0,0,0,3,1.09,4.84,4.84,0,0,0,3.7-1.63l1.39,1.37a6.73,6.73,0,0,1-5.14,2.18,6.12,6.12,0,0,1-4.68-1.81A6.52,6.52,0,0,1,193,378a6.78,6.78,0,0,1,1.67-4.7,6.19,6.19,0,0,1,8.77-.1A6.37,6.37,0,0,1,205.1,377.67Zm-9.79-.79h7.63a3.91,3.91,0,0,0-1.23-2.67,3.68,3.68,0,0,0-2.59-.95,3.64,3.64,0,0,0-2.65,1A3.91,3.91,0,0,0,195.31,376.88Z"/><path d="M217.43,380.53a3.51,3.51,0,0,1-1.36,2.89,5.83,5.83,0,0,1-3.75,1.09,6.12,6.12,0,0,1-5.52-2.66l1.54-1.15a4.77,4.77,0,0,0,4.1,2,3.83,3.83,0,0,0,2.11-.51,1.7,1.7,0,0,0,.8-1.5,1.25,1.25,0,0,0-.72-1.23,14.13,14.13,0,0,0-2.71-.72,9.09,9.09,0,0,1-3.32-1.17,2.72,2.72,0,0,1-1.15-2.45,3.12,3.12,0,0,1,1.36-2.74,5.72,5.72,0,0,1,3.32-.93,6.68,6.68,0,0,1,5.07,2.09l-1.4,1.32a4.61,4.61,0,0,0-3.69-1.61,3.83,3.83,0,0,0-1.87.42,1.34,1.34,0,0,0-.77,1.26,1.22,1.22,0,0,0,.18.65,1.82,1.82,0,0,0,.4.46,2.35,2.35,0,0,0,.71.34c.32.1.6.18.83.23l1,.19c.61.11,1.11.22,1.49.31a11.52,11.52,0,0,1,1.3.43,3.78,3.78,0,0,1,1.11.65,3,3,0,0,1,.69,1A3.17,3.17,0,0,1,217.43,380.53Z"/><path d="M229.87,380.53a3.52,3.52,0,0,1-1.37,2.89,5.83,5.83,0,0,1-3.75,1.09,6.12,6.12,0,0,1-5.52-2.66l1.54-1.15a4.79,4.79,0,0,0,4.11,2,3.88,3.88,0,0,0,2.11-.51,1.71,1.71,0,0,0,.79-1.5,1.25,1.25,0,0,0-.72-1.23,14.13,14.13,0,0,0-2.71-.72,9.16,9.16,0,0,1-3.32-1.17,2.75,2.75,0,0,1-1.15-2.45,3.12,3.12,0,0,1,1.36-2.74,5.72,5.72,0,0,1,3.32-.93,6.68,6.68,0,0,1,5.07,2.09l-1.4,1.32a4.61,4.61,0,0,0-3.69-1.61,3.83,3.83,0,0,0-1.87.42,1.34,1.34,0,0,0-.77,1.26,1.22,1.22,0,0,0,.18.65,1.67,1.67,0,0,0,.41.46,2.16,2.16,0,0,0,.7.34c.32.1.6.18.83.23l1,.19c.61.11,1.11.22,1.49.31a10.9,10.9,0,0,1,1.3.43,3.78,3.78,0,0,1,1.11.65,3,3,0,0,1,.69,1A3.17,3.17,0,0,1,229.87,380.53Z"/><circle class="cls-4" cx="109.2" cy="484.65" r="89.65"/></svg>