<svg id="Layer_1" data-name="Layer 1" xmlns="http://www.w3.org/2000/svg" viewBox="0 0 1200 371"><defs><style>.cls-1,.cls-4{isolation:isolate;}.cls-2,.cls-4{fill:#f6f6f6;}.cls-3,.cls-5,.cls-7{fill:none;}.cls-3,.cls-4,.cls-5,.cls-7{stroke:#808285;stroke-linecap:round;stroke-miterlimit:10;stroke-width:2px;}.cls-3{stroke-dasharray:2.99 4.99;}.cls-5{stroke-dasharray:3.02 5.03;}.cls-6{fill:#58595b;}.cls-7{stroke-dasharray:3 5.01;}</style></defs><title>Artboard 1WHITE</title><g class="cls-1"><circle class="cls-2" cx="1038.09" cy="211.31" r="148.69"/><circle class="cls-3" cx="1038.09" cy="211.31" r="148.69"/></g><circle class="cls-4" cx="1037.27" cy="270.17" r="89.65"/><polyline class="cls-4" points="718.99 195.52 739 183.34 739 165"/><g class="cls-1"><circle class="cls-2" cx="662.44" cy="263.8" r="89.65"/><circle class="cls-5" cx="662.44" cy="263.8" r="89.65"/></g><polyline class="cls-4" points="75.87 282.31 60.14 291.88 60.14 306.29"/><polyline class="cls-4" points="295.95 282.31 311.68 291.88 311.68 306.29"/><path class="cls-6" d="M28.14,316.82l-3.35,12H22.92l-2.81-9.72-2.8,9.72H15.38l-3.28-12h1.79l2.55,9.85,2.9-9.85H21l2.9,9.88,2.54-9.88Z"/><path class="cls-6" d="M31.56,328.81H30V316h1.56v5a3.71,3.71,0,0,1,3.21-1.77,3.15,3.15,0,0,1,2.39.94,3.63,3.63,0,0,1,.88,2.61v6H36.48v-5.67c0-1.62-.7-2.43-2.09-2.43a2.74,2.74,0,0,0-2,.81,2.88,2.88,0,0,0-.8,2.11Z"/><path class="cls-6" d="M49.13,327.59l.2,1.18a2.83,2.83,0,0,1-1.08.18,2,2,0,0,1-1.22-.37,1.59,1.59,0,0,1-.6-1.12A3.7,3.7,0,0,1,43.21,329a3.41,3.41,0,0,1-2.32-.76,2.62,2.62,0,0,1-.87-2.09,2.59,2.59,0,0,1,.22-1.11,2.14,2.14,0,0,1,.53-.77,3,3,0,0,1,.78-.49,4.66,4.66,0,0,1,.85-.28c.25-.06.54-.11.86-.16l.6-.07.63-.08.53-.1a2.81,2.81,0,0,0,.5-.15,3.9,3.9,0,0,0,.36-.22.74.74,0,0,0,.27-.32,1.19,1.19,0,0,0,.08-.44,1.1,1.1,0,0,0-.63-1.05,3.31,3.31,0,0,0-1.49-.32,4.75,4.75,0,0,0-2.92,1l-.72-1.19a6.49,6.49,0,0,1,3.75-1.19,4.23,4.23,0,0,1,2.64.76,2.72,2.72,0,0,1,1,2.3v4.43c0,.67.25,1,.74,1A1,1,0,0,0,49.13,327.59Zm-2.86-2.38v-1.62a1.8,1.8,0,0,1-.39.39,1.67,1.67,0,0,1-.52.24l-.51.13a6.18,6.18,0,0,1-.63.11l-.65.1a3.94,3.94,0,0,0-1.46.48,1.23,1.23,0,0,0-.49,1.11,1.37,1.37,0,0,0,.54,1.18,2.29,2.29,0,0,0,1.41.4,3,3,0,0,0,1.91-.63A2.26,2.26,0,0,0,46.27,325.21Z"/><path class="cls-6" d="M55.72,327.21l.66,1.19a3.19,3.19,0,0,1-2,.63,2.66,2.66,0,0,1-2.45-1.19,3.52,3.52,0,0,1-.4-1.86v-5.23H49.88v-1.3H51.5v-2.63h1.57v2.63h3v1.3h-3V326q0,1.62,1.44,1.62A1.93,1.93,0,0,0,55.72,327.21Z"/><path class="cls-6" d="M67.67,327.21l.66,1.19a3.19,3.19,0,0,1-2,.63,2.66,2.66,0,0,1-2.45-1.19,3.53,3.53,0,0,1-.39-1.86v-5.23H61.84v-1.3h1.62v-2.63H65v2.63h3v1.3H65V326q0,1.62,1.44,1.62A1.93,1.93,0,0,0,67.67,327.21Z"/><path class="cls-6" d="M71.56,328.81H70V316h1.57v5a3.7,3.7,0,0,1,3.2-1.77,3.12,3.12,0,0,1,2.39.94,3.64,3.64,0,0,1,.89,2.61v6H76.47v-5.67c0-1.62-.7-2.43-2.09-2.43a2.72,2.72,0,0,0-2,.81,2.84,2.84,0,0,0-.8,2.11Z"/><path class="cls-6" d="M89.18,323.9a3.59,3.59,0,0,1,0,.61H81.8a3.23,3.23,0,0,0,.92,2.26,3.08,3.08,0,0,0,2.23.82,3.63,3.63,0,0,0,2.77-1.23l1,1A5,5,0,0,1,84.91,329a4.6,4.6,0,0,1-3.51-1.36,4.93,4.93,0,0,1-1.28-3.5,5.07,5.07,0,0,1,1.26-3.53,4.22,4.22,0,0,1,3.33-1.41A4.17,4.17,0,0,1,88,320.57,4.69,4.69,0,0,1,89.18,323.9Zm-7.35-.6h5.73a3,3,0,0,0-.92-2,2.83,2.83,0,0,0-1.94-.71,2.76,2.76,0,0,0-2,.76A2.94,2.94,0,0,0,81.83,323.3Z"/><path class="cls-6" d="M99.24,319.45l-3.74,9.79a6.21,6.21,0,0,1-1.28,2.2,2.71,2.71,0,0,1-2,.68,3.15,3.15,0,0,1-1.9-.57l.68-1.16a2,2,0,0,0,1.12.36,1.32,1.32,0,0,0,1-.37,3.23,3.23,0,0,0,.68-1.05l.25-.56-4-9.32h1.8l3,7.27,2.65-7.27Z"/><path class="cls-6" d="M112.92,326a2.63,2.63,0,0,1-1,2.17,4.4,4.4,0,0,1-2.8.82,4.59,4.59,0,0,1-4.14-2l1.15-.87a3.59,3.59,0,0,0,3.08,1.52,2.84,2.84,0,0,0,1.58-.39,1.25,1.25,0,0,0,.59-1.13.91.91,0,0,0-.54-.91,9.66,9.66,0,0,0-2-.54,6.74,6.74,0,0,1-2.48-.89,2,2,0,0,1-.87-1.83,2.32,2.32,0,0,1,1-2.05,4.27,4.27,0,0,1,2.49-.71,5,5,0,0,1,3.8,1.57l-1,1a3.51,3.51,0,0,0-2.78-1.21,2.87,2.87,0,0,0-1.4.32,1,1,0,0,0-.58.94.91.91,0,0,0,.14.49,1.49,1.49,0,0,0,.3.35,2,2,0,0,0,.54.25,4.23,4.23,0,0,0,.62.17l.73.15c.45.08.82.16,1.11.23a6.56,6.56,0,0,1,1,.33,2.73,2.73,0,0,1,.84.48,2.21,2.21,0,0,1,.51.72A2.26,2.26,0,0,1,112.92,326Z"/><path class="cls-6" d="M123.49,327.59l.19,1.18a2.77,2.77,0,0,1-1.08.18,1.94,1.94,0,0,1-1.21-.37,1.59,1.59,0,0,1-.6-1.12,3.72,3.72,0,0,1-3.23,1.57,3.43,3.43,0,0,1-2.32-.76,2.64,2.64,0,0,1-.86-2.09,2.75,2.75,0,0,1,.21-1.11,2.28,2.28,0,0,1,.53-.77,3,3,0,0,1,.79-.49,4.58,4.58,0,0,1,.84-.28c.26-.06.54-.11.87-.16l.6-.07.62-.08.53-.1a3.28,3.28,0,0,0,.51-.15,3.9,3.9,0,0,0,.36-.22.91.91,0,0,0,.27-.32,1.19,1.19,0,0,0,.08-.44,1.1,1.1,0,0,0-.63-1.05,3.32,3.32,0,0,0-1.5-.32,4.72,4.72,0,0,0-2.91,1l-.72-1.19a6.49,6.49,0,0,1,3.74-1.19,4.24,4.24,0,0,1,2.65.76,2.72,2.72,0,0,1,1,2.3v4.43c0,.67.25,1,.74,1A1,1,0,0,0,123.49,327.59Zm-2.87-2.38v-1.62a2,2,0,0,1-.38.39,1.73,1.73,0,0,1-.53.24l-.5.13c-.13,0-.34.07-.64.11l-.65.1a3.94,3.94,0,0,0-1.45.48,1.21,1.21,0,0,0-.49,1.11,1.37,1.37,0,0,0,.54,1.18,2.28,2.28,0,0,0,1.4.4,3,3,0,0,0,1.92-.63A2.29,2.29,0,0,0,120.62,325.21Z"/><path class="cls-6" d="M133,319.45l-3.75,9.79a6.06,6.06,0,0,1-1.28,2.2,2.66,2.66,0,0,1-1.94.68,3.2,3.2,0,0,1-1.91-.57l.69-1.16a2,2,0,0,0,1.11.36,1.3,1.3,0,0,0,1-.37,3.24,3.24,0,0,0,.69-1.05l.25-.56-4-9.32h1.8l3,7.27,2.64-7.27Z"/><path class="cls-6" d="M35.57,348.81l.66,1.19a3.21,3.21,0,0,1-2,.63,2.66,2.66,0,0,1-2.45-1.19,3.52,3.52,0,0,1-.4-1.86v-5.23H29.73v-1.3h1.62v-2.63h1.57v2.63h3v1.3h-3v5.23q0,1.62,1.44,1.62A1.93,1.93,0,0,0,35.57,348.81Z"/><path class="cls-6" d="M39.45,350.41H37.89V337.56h1.56v5a3.73,3.73,0,0,1,3.21-1.77,3.14,3.14,0,0,1,2.39.94,3.63,3.63,0,0,1,.88,2.61v6H44.37v-5.67c0-1.62-.7-2.43-2.09-2.43a2.7,2.7,0,0,0-2,.81,2.85,2.85,0,0,0-.81,2.11Z"/><path class="cls-6" d="M57.08,345.5a5,5,0,0,1,0,.61H49.7a3.22,3.22,0,0,0,.91,2.26,3.12,3.12,0,0,0,2.24.82A3.63,3.63,0,0,0,55.62,348l1,1a5,5,0,0,1-3.85,1.64,4.6,4.6,0,0,1-3.51-1.36,4.93,4.93,0,0,1-1.28-3.5,5.11,5.11,0,0,1,1.25-3.53,4.26,4.26,0,0,1,3.34-1.41,4.17,4.17,0,0,1,3.24,1.34A4.69,4.69,0,0,1,57.08,345.5Zm-7.35-.6h5.73a3,3,0,0,0-.92-2,2.84,2.84,0,0,0-1.95-.71,2.79,2.79,0,0,0-2,.76A2.93,2.93,0,0,0,49.73,344.9Z"/><path class="cls-6" d="M67.14,341.05l-3.75,9.79a6.21,6.21,0,0,1-1.27,2.2,2.71,2.71,0,0,1-1.95.68,3.2,3.2,0,0,1-1.91-.57L59,352a2,2,0,0,0,1.11.36,1.34,1.34,0,0,0,1-.37,3.23,3.23,0,0,0,.68-1.05l.25-.56-4-9.32h1.8l3,7.27,2.65-7.27Z"/><path class="cls-6" d="M75.24,350.41H73.67v-9.36h1.57v1.55a3.7,3.7,0,0,1,3.2-1.77,3.16,3.16,0,0,1,2.4.94,3.68,3.68,0,0,1,.88,2.61v6H80.15v-5.67c0-1.62-.69-2.43-2.09-2.43a2.72,2.72,0,0,0-2,.81,2.84,2.84,0,0,0-.8,2.11Z"/><path class="cls-6" d="M92.86,345.5a3.59,3.59,0,0,1,0,.61H85.48a3.23,3.23,0,0,0,.92,2.26,3.09,3.09,0,0,0,2.23.82A3.62,3.62,0,0,0,91.4,348l1,1a5.07,5.07,0,0,1-3.86,1.64,4.62,4.62,0,0,1-3.51-1.36,4.93,4.93,0,0,1-1.27-3.5,5.07,5.07,0,0,1,1.25-3.53,4.62,4.62,0,0,1,6.58-.07A4.73,4.73,0,0,1,92.86,345.5Zm-7.34-.6h5.72a3,3,0,0,0-.92-2,2.81,2.81,0,0,0-1.94-.71,2.76,2.76,0,0,0-2,.76A2.93,2.93,0,0,0,85.52,344.9Z"/><path class="cls-6" d="M103.41,345.5a3.59,3.59,0,0,1,0,.61H96a3.22,3.22,0,0,0,.91,2.26,3.12,3.12,0,0,0,2.24.82A3.63,3.63,0,0,0,102,348l1,1a5,5,0,0,1-3.85,1.64,4.6,4.6,0,0,1-3.51-1.36,4.93,4.93,0,0,1-1.28-3.5,5.11,5.11,0,0,1,1.25-3.53,4.26,4.26,0,0,1,3.34-1.41,4.17,4.17,0,0,1,3.24,1.34A4.69,4.69,0,0,1,103.41,345.5Zm-7.35-.6h5.73a3,3,0,0,0-.92-2,2.84,2.84,0,0,0-2-.71,2.75,2.75,0,0,0-2,.76A2.89,2.89,0,0,0,96.06,344.9Z"/><path class="cls-6" d="M114.12,350.41h-1.57v-1.53a4.12,4.12,0,0,1-6.46.36,5.22,5.22,0,0,1-1.17-3.49,5.28,5.28,0,0,1,1.17-3.53,4.11,4.11,0,0,1,6.46.38v-5h1.57Zm-2.37-2.21a4.21,4.21,0,0,0,0-4.94,2.76,2.76,0,0,0-2.24-1,2.6,2.6,0,0,0-2.18,1,4.43,4.43,0,0,0,0,5,2.59,2.59,0,0,0,2.18,1A2.71,2.71,0,0,0,111.75,348.2Z"/><polyline class="cls-4" points="479.72 227.02 464 236.59 464 251"/><path class="cls-6" d="M425.07,258.91l-3.34,12h-1.88l-2.8-9.72-2.81,9.72h-1.93l-3.27-12h1.78l2.56,9.84,2.89-9.84h1.62l2.9,9.88,2.54-9.88Z"/><path class="cls-6" d="M428.49,270.9h-1.56V258h1.56v5a3.74,3.74,0,0,1,3.21-1.76,3.1,3.1,0,0,1,2.39.94,3.63,3.63,0,0,1,.88,2.61v6h-1.56v-5.67c0-1.62-.7-2.43-2.09-2.43a2.7,2.7,0,0,0-2,.81,2.84,2.84,0,0,0-.81,2.1Z"/><path class="cls-6" d="M446.06,269.67l.2,1.19a2.83,2.83,0,0,1-1.08.18,2,2,0,0,1-1.22-.37,1.61,1.61,0,0,1-.6-1.12,3.68,3.68,0,0,1-3.22,1.56,3.41,3.41,0,0,1-2.32-.75,2.63,2.63,0,0,1-.87-2.09,2.83,2.83,0,0,1,.22-1.12,2.1,2.1,0,0,1,.53-.76,3,3,0,0,1,.78-.49,5,5,0,0,1,.85-.29l.86-.15.61-.07.62-.08.53-.1a2.1,2.1,0,0,0,.5-.16,1.68,1.68,0,0,0,.36-.21.71.71,0,0,0,.27-.33,1,1,0,0,0,.08-.44,1.09,1.09,0,0,0-.63-1,3.15,3.15,0,0,0-1.49-.32,4.75,4.75,0,0,0-2.92,1l-.72-1.19a6.52,6.52,0,0,1,3.75-1.19,4.15,4.15,0,0,1,2.64.76,2.73,2.73,0,0,1,1,2.3v4.43c0,.67.24,1,.73,1A.91.91,0,0,0,446.06,269.67Zm-2.86-2.37v-1.62a2,2,0,0,1-.39.38,1.68,1.68,0,0,1-.52.25l-.5.13c-.13,0-.34.07-.64.11l-.65.1a4,4,0,0,0-1.46.47,1.23,1.23,0,0,0-.48,1.11,1.37,1.37,0,0,0,.54,1.19,2.32,2.32,0,0,0,1.4.4,3,3,0,0,0,1.92-.63A2.29,2.29,0,0,0,443.2,267.3Z"/><path class="cls-6" d="M452.65,269.29l.67,1.19a3.22,3.22,0,0,1-2,.63,2.65,2.65,0,0,1-2.45-1.19,3.47,3.47,0,0,1-.39-1.85v-5.24h-1.62v-1.29h1.62v-2.63H450v2.63h3v1.29h-3v5.24q0,1.62,1.44,1.62A1.88,1.88,0,0,0,452.65,269.29Z"/><path class="cls-6" d="M469.44,267.46a3.24,3.24,0,0,1-1,2.47,4.18,4.18,0,0,1-2.95,1h-5.42v-12h5a4.71,4.71,0,0,1,2.86.75,2.53,2.53,0,0,1,1,2.13,2.76,2.76,0,0,1-1.57,2.59,3.31,3.31,0,0,1,1.54,1.21A3.28,3.28,0,0,1,469.44,267.46ZM467.25,262c0-1-.75-1.58-2.23-1.58h-3.28v3.42h3.37a2.31,2.31,0,0,0,1.57-.5A1.67,1.67,0,0,0,467.25,262Zm.43,5.35a2,2,0,0,0-.56-1.5,2.23,2.23,0,0,0-1.64-.55h-3.74v4.06h3.67a2.42,2.42,0,0,0,1.68-.53A1.9,1.9,0,0,0,467.68,267.37Z"/><path class="cls-6" d="M478.1,261.54h1.57v9.36H478.1v-1.53a3.77,3.77,0,0,1-3.2,1.74,3.16,3.16,0,0,1-2.4-.93,3.69,3.69,0,0,1-.88-2.6v-6h1.57v5.68q0,2.43,2.07,2.43a2.76,2.76,0,0,0,2-.81,2.84,2.84,0,0,0,.81-2.1Z"/><path class="cls-6" d="M489.62,268.12a2.62,2.62,0,0,1-1,2.17,4.34,4.34,0,0,1-2.8.82,4.57,4.57,0,0,1-4.14-2l1.15-.86a3.58,3.58,0,0,0,3.08,1.51,2.84,2.84,0,0,0,1.58-.39,1.23,1.23,0,0,0,.59-1.12.92.92,0,0,0-.54-.92,9.66,9.66,0,0,0-2-.54,6.75,6.75,0,0,1-2.48-.88,2,2,0,0,1-.87-1.84,2.33,2.33,0,0,1,1-2.05,4.27,4.27,0,0,1,2.49-.7,5,5,0,0,1,3.8,1.57l-1,1a3.47,3.47,0,0,0-2.77-1.21,2.88,2.88,0,0,0-1.41.31,1,1,0,0,0-.57.95.92.92,0,0,0,.13.49,1.32,1.32,0,0,0,.31.35,1.75,1.75,0,0,0,.53.25,6,6,0,0,0,.62.17l.73.14,1.11.24a7.78,7.78,0,0,1,1,.32,2.82,2.82,0,0,1,.84.49,2.21,2.21,0,0,1,.51.72A2.25,2.25,0,0,1,489.62,268.12Z"/><path class="cls-6" d="M498.94,268.12a2.64,2.64,0,0,1-1,2.17,4.37,4.37,0,0,1-2.81.82,4.59,4.59,0,0,1-4.14-2l1.15-.86a3.58,3.58,0,0,0,3.08,1.51,2.82,2.82,0,0,0,1.58-.39,1.24,1.24,0,0,0,.6-1.12.93.93,0,0,0-.54-.92,9.8,9.8,0,0,0-2-.54,6.82,6.82,0,0,1-2.48-.88,2,2,0,0,1-.86-1.84,2.35,2.35,0,0,1,1-2.05,4.28,4.28,0,0,1,2.5-.7,5,5,0,0,1,3.79,1.57l-1,1a3.47,3.47,0,0,0-2.77-1.21,2.94,2.94,0,0,0-1.41.31,1,1,0,0,0-.57.95.92.92,0,0,0,.13.49,1.52,1.52,0,0,0,.31.35,1.75,1.75,0,0,0,.53.25c.24.08.45.13.62.17l.73.14,1.12.24a8.36,8.36,0,0,1,1,.32,3,3,0,0,1,.84.49,2.55,2.55,0,0,1,.51.72A2.38,2.38,0,0,1,498.94,268.12Z"/><path class="cls-6" d="M502.69,259.7h-1.57V258h1.57Zm0,11.2h-1.57v-9.36h1.57Z"/><path class="cls-6" d="M507.06,270.9H505.5v-9.36h1.56v1.54a3.73,3.73,0,0,1,3.21-1.76,3.12,3.12,0,0,1,2.39.94,3.63,3.63,0,0,1,.88,2.61v6H512v-5.67c0-1.62-.7-2.43-2.09-2.43a2.74,2.74,0,0,0-2,.81,2.87,2.87,0,0,0-.8,2.1Z"/><path class="cls-6" d="M524.68,266a5.16,5.16,0,0,1,0,.61H517.3a3.25,3.25,0,0,0,.92,2.26,3.07,3.07,0,0,0,2.23.82,3.66,3.66,0,0,0,2.78-1.22l1,1a5,5,0,0,1-3.85,1.64,4.57,4.57,0,0,1-3.51-1.36,4.9,4.9,0,0,1-1.28-3.5,5.15,5.15,0,0,1,1.25-3.53,4.27,4.27,0,0,1,3.34-1.4,4.19,4.19,0,0,1,3.24,1.33A4.72,4.72,0,0,1,524.68,266Zm-7.34-.59h5.72a3,3,0,0,0-.91-2,2.84,2.84,0,0,0-1.95-.71,2.73,2.73,0,0,0-2,.76A2.91,2.91,0,0,0,517.34,265.39Z"/><path class="cls-6" d="M533.94,268.12a2.65,2.65,0,0,1-1,2.17,4.35,4.35,0,0,1-2.81.82,4.59,4.59,0,0,1-4.14-2l1.15-.86a3.59,3.59,0,0,0,3.08,1.51,2.88,2.88,0,0,0,1.59-.39,1.25,1.25,0,0,0,.59-1.12.93.93,0,0,0-.54-.92,9.85,9.85,0,0,0-2-.54,6.88,6.88,0,0,1-2.49-.88,2.06,2.06,0,0,1-.86-1.84,2.35,2.35,0,0,1,1-2.05,4.28,4.28,0,0,1,2.5-.7,5,5,0,0,1,3.8,1.57l-1,1a3.46,3.46,0,0,0-2.77-1.21,2.87,2.87,0,0,0-1.4.31,1,1,0,0,0-.58.95.92.92,0,0,0,.13.49,1.52,1.52,0,0,0,.31.35,1.75,1.75,0,0,0,.53.25c.24.08.45.13.62.17l.73.14,1.12.24a7.78,7.78,0,0,1,1,.32,3,3,0,0,1,.84.49,2.4,2.4,0,0,1,.73,1.74Z"/><path class="cls-6" d="M424.54,283.14l-2.6,9.36h-1.71L418,285.15l-2.3,7.35H414l-2.59-9.36H413l1.89,7.47,2.34-7.47h1.44l2.32,7.47,1.91-7.47Z"/><path class="cls-6" d="M434.83,291.27l.2,1.19a2.83,2.83,0,0,1-1.08.18,2,2,0,0,1-1.22-.37,1.61,1.61,0,0,1-.6-1.12,3.69,3.69,0,0,1-3.22,1.56,3.41,3.41,0,0,1-2.32-.75,2.63,2.63,0,0,1-.87-2.09,2.67,2.67,0,0,1,.22-1.12,2.1,2.1,0,0,1,.53-.76,3,3,0,0,1,.78-.49,4.76,4.76,0,0,1,.85-.29l.86-.15.61-.07.62-.08.53-.1a2.1,2.1,0,0,0,.5-.16,1.68,1.68,0,0,0,.36-.21.71.71,0,0,0,.27-.33,1,1,0,0,0,.08-.44,1.09,1.09,0,0,0-.63-1,3.15,3.15,0,0,0-1.49-.32,4.75,4.75,0,0,0-2.92,1l-.72-1.19a6.52,6.52,0,0,1,3.75-1.19,4.15,4.15,0,0,1,2.64.76,2.73,2.73,0,0,1,1,2.3v4.43c0,.67.24,1,.73,1A.91.91,0,0,0,434.83,291.27ZM432,288.9v-1.62a2,2,0,0,1-.39.38,1.68,1.68,0,0,1-.52.25l-.5.13c-.13,0-.34.07-.64.11l-.65.1a4,4,0,0,0-1.46.47,1.23,1.23,0,0,0-.48,1.11,1.35,1.35,0,0,0,.54,1.19,2.32,2.32,0,0,0,1.4.4,3,3,0,0,0,1.92-.63A2.29,2.29,0,0,0,432,288.9Z"/><path class="cls-6" d="M438.21,292.5h-1.56v-9.36h1.56v1.54a3.74,3.74,0,0,1,3.21-1.76,3.1,3.1,0,0,1,2.39.94,3.63,3.63,0,0,1,.88,2.61v6h-1.56v-5.67c0-1.62-.7-2.43-2.09-2.43a2.7,2.7,0,0,0-2,.81,2.84,2.84,0,0,0-.81,2.1Z"/><path class="cls-6" d="M452.16,290.89l.67,1.19a3.21,3.21,0,0,1-2,.63,2.64,2.64,0,0,1-2.45-1.19,3.37,3.37,0,0,1-.4-1.85v-5.24h-1.62v-1.29H448v-2.63h1.57v2.63h3v1.29h-3v5.24q0,1.62,1.44,1.62A1.83,1.83,0,0,0,452.16,290.89Z"/><path class="cls-6" d="M461.63,289.72a2.64,2.64,0,0,1-1,2.17,4.37,4.37,0,0,1-2.81.82,4.57,4.57,0,0,1-4.14-2l1.15-.86a3.58,3.58,0,0,0,3.08,1.51,2.82,2.82,0,0,0,1.58-.39,1.24,1.24,0,0,0,.6-1.12.93.93,0,0,0-.54-.92,9.8,9.8,0,0,0-2-.54,6.75,6.75,0,0,1-2.48-.88,2,2,0,0,1-.87-1.84,2.33,2.33,0,0,1,1-2.05,4.27,4.27,0,0,1,2.49-.7,5,5,0,0,1,3.8,1.57l-1,1a3.47,3.47,0,0,0-2.77-1.21,3,3,0,0,0-1.41.31,1,1,0,0,0-.57.95.92.92,0,0,0,.13.49,1.32,1.32,0,0,0,.31.35,1.75,1.75,0,0,0,.53.25,6,6,0,0,0,.62.17l.73.14,1.11.24a7.88,7.88,0,0,1,1,.32,2.75,2.75,0,0,1,.83.49,2.3,2.3,0,0,1,.73,1.74Z"/><path class="cls-6" d="M473.44,290.89l.67,1.19a3.22,3.22,0,0,1-2,.63,2.65,2.65,0,0,1-2.45-1.19,3.47,3.47,0,0,1-.39-1.85v-5.24h-1.62v-1.29h1.62v-2.63h1.56v2.63h3v1.29h-3v5.24q0,1.62,1.44,1.62A1.88,1.88,0,0,0,473.44,290.89Z"/><path class="cls-6" d="M484.37,287.83a5,5,0,0,1-1.26,3.51,4.79,4.79,0,0,1-6.71,0,5.58,5.58,0,0,1,0-7,4.77,4.77,0,0,1,6.71,0A5,5,0,0,1,484.37,287.83Zm-1.68,0a3.92,3.92,0,0,0-.78-2.51,2.61,2.61,0,0,0-2.15-1,2.64,2.64,0,0,0-2.16,1,4.37,4.37,0,0,0,0,5,2.64,2.64,0,0,0,2.16,1,2.61,2.61,0,0,0,2.15-1A3.91,3.91,0,0,0,482.69,287.83Z"/><path class="cls-6" d="M491.42,279.64H493v5a4.12,4.12,0,0,1,6.46-.37,5.83,5.83,0,0,1,0,7,3.91,3.91,0,0,1-3.12,1.38A3.85,3.85,0,0,1,493,291v1.53h-1.57Zm2.36,5.72a3.79,3.79,0,0,0-.79,2.47,3.72,3.72,0,0,0,.8,2.47,2.7,2.7,0,0,0,2.22,1,2.6,2.6,0,0,0,2.18-1,3.92,3.92,0,0,0,.76-2.48,4,4,0,0,0-.76-2.48,2.58,2.58,0,0,0-2.18-1A2.69,2.69,0,0,0,493.78,285.36Z"/><path class="cls-6" d="M509.19,283.14h1.56v9.36h-1.56V291a3.79,3.79,0,0,1-3.21,1.74,3.15,3.15,0,0,1-2.39-.93,3.64,3.64,0,0,1-.88-2.6v-6h1.56v5.68q0,2.43,2.07,2.43a2.77,2.77,0,0,0,2-.81,2.84,2.84,0,0,0,.81-2.1Z"/><path class="cls-6" d="M515.13,281.3h-1.57v-1.66h1.57Zm0,11.2h-1.57v-9.36h1.57Z"/><path class="cls-6" d="M519.55,292.5H518V279.64h1.56Z"/><path class="cls-6" d="M531,292.5h-1.57V291a3.85,3.85,0,0,1-3.33,1.74,3.9,3.9,0,0,1-3.13-1.38,5.85,5.85,0,0,1,0-7,4.12,4.12,0,0,1,6.46.37v-5H531Zm-2.37-2.21a4.21,4.21,0,0,0,0-4.94,2.73,2.73,0,0,0-2.24-1,2.62,2.62,0,0,0-2.18,1,4.48,4.48,0,0,0,0,5,2.6,2.6,0,0,0,2.18,1A2.74,2.74,0,0,0,528.65,290.29Z"/><path class="cls-6" d="M695.88,107.1l-3.34,12h-1.87l-2.81-9.72-2.81,9.72h-1.93l-3.27-12h1.78l2.55,9.85,2.9-9.85h1.62l2.9,9.88,2.54-9.88Z"/><path class="cls-6" d="M699.3,119.09h-1.56V106.24h1.56v5a3.73,3.73,0,0,1,3.21-1.77,3.14,3.14,0,0,1,2.39.94,3.64,3.64,0,0,1,.89,2.61v6h-1.57v-5.67c0-1.62-.7-2.43-2.09-2.43a2.7,2.7,0,0,0-2,.81,2.84,2.84,0,0,0-.81,2.1Z"/><path class="cls-6" d="M716.87,117.86l.2,1.19a2.83,2.83,0,0,1-1.08.18,1.94,1.94,0,0,1-1.21-.37,1.64,1.64,0,0,1-.61-1.12A3.68,3.68,0,0,1,711,119.3a3.42,3.42,0,0,1-2.32-.75,2.63,2.63,0,0,1-.87-2.09,2.83,2.83,0,0,1,.22-1.12,2.33,2.33,0,0,1,.53-.76,3,3,0,0,1,.78-.49,4.92,4.92,0,0,1,.85-.28c.25-.06.54-.11.86-.16l.61-.07.62-.08.53-.1a2.81,2.81,0,0,0,.5-.15,2.32,2.32,0,0,0,.36-.22.74.74,0,0,0,.27-.32,1,1,0,0,0,.08-.44,1.1,1.1,0,0,0-.63-1,3.28,3.28,0,0,0-1.49-.32,4.75,4.75,0,0,0-2.92,1l-.72-1.19a6.54,6.54,0,0,1,3.75-1.19,4.18,4.18,0,0,1,2.65.76,2.75,2.75,0,0,1,1,2.3V117c0,.67.24,1,.74,1A.9.9,0,0,0,716.87,117.86ZM714,115.49v-1.62a2.4,2.4,0,0,1-.39.39,1.57,1.57,0,0,1-.52.24l-.5.13c-.13,0-.34.07-.64.11l-.65.1a4,4,0,0,0-1.46.48,1.22,1.22,0,0,0-.48,1.1,1.37,1.37,0,0,0,.54,1.19,2.28,2.28,0,0,0,1.4.4,3,3,0,0,0,1.92-.63A2.29,2.29,0,0,0,714,115.49Z"/><path class="cls-6" d="M723.46,117.49l.67,1.18a3.22,3.22,0,0,1-2,.63,2.64,2.64,0,0,1-2.44-1.18,3.43,3.43,0,0,1-.4-1.86V111h-1.62v-1.29h1.62V107.1h1.57v2.63h3V111h-3v5.24c0,1.08.47,1.62,1.43,1.62A1.91,1.91,0,0,0,723.46,117.49Z"/><path class="cls-6" d="M739,117.86l.2,1.19a2.83,2.83,0,0,1-1.08.18,2,2,0,0,1-1.22-.37,1.59,1.59,0,0,1-.6-1.12,3.69,3.69,0,0,1-3.22,1.56,3.41,3.41,0,0,1-2.32-.75,2.63,2.63,0,0,1-.87-2.09,2.67,2.67,0,0,1,.22-1.12,2.19,2.19,0,0,1,.53-.76,3,3,0,0,1,.78-.49,4.66,4.66,0,0,1,.85-.28c.25-.06.54-.11.86-.16l.61-.07.62-.08.53-.1a2.81,2.81,0,0,0,.5-.15,2.32,2.32,0,0,0,.36-.22.74.74,0,0,0,.27-.32,1,1,0,0,0,.08-.44,1.1,1.1,0,0,0-.63-1,3.31,3.31,0,0,0-1.49-.32,4.75,4.75,0,0,0-2.92,1l-.72-1.19a6.49,6.49,0,0,1,3.75-1.19,4.16,4.16,0,0,1,2.64.76,2.72,2.72,0,0,1,1,2.3V117c0,.67.25,1,.74,1A.91.91,0,0,0,739,117.86Zm-2.86-2.37v-1.62a2.4,2.4,0,0,1-.39.39,1.67,1.67,0,0,1-.52.24l-.51.13a6.18,6.18,0,0,1-.63.11l-.65.1a3.94,3.94,0,0,0-1.46.48,1.22,1.22,0,0,0-.49,1.1,1.37,1.37,0,0,0,.54,1.19,2.29,2.29,0,0,0,1.41.4,3,3,0,0,0,1.92-.63A2.29,2.29,0,0,0,736.17,115.49Z"/><path class="cls-6" d="M747.35,116.48l1.2.86a4.35,4.35,0,0,1-3.78,2,4.21,4.21,0,0,1-3.29-1.38,5.59,5.59,0,0,1,0-7,4.22,4.22,0,0,1,3.29-1.39,4.29,4.29,0,0,1,3.73,1.95l-1.17.93a2.8,2.8,0,0,0-2.5-1.45,2.62,2.62,0,0,0-2.14,1,4.28,4.28,0,0,0,0,5,2.59,2.59,0,0,0,2.12,1A2.9,2.9,0,0,0,747.35,116.48Z"/><path class="cls-6" d="M755.27,117.49l.66,1.18a3.21,3.21,0,0,1-2,.63,2.66,2.66,0,0,1-2.45-1.18,3.52,3.52,0,0,1-.4-1.86V111h-1.62v-1.29h1.62V107.1h1.57v2.63h3V111h-3v5.24q0,1.62,1.44,1.62A1.93,1.93,0,0,0,755.27,117.49Z"/><path class="cls-6" d="M764,109.73h1.57v9.36H764v-1.53a3.79,3.79,0,0,1-3.2,1.74,3.16,3.16,0,0,1-2.4-.93,3.61,3.61,0,0,1-.88-2.59v-6h1.57v5.69q0,2.43,2.07,2.43a2.76,2.76,0,0,0,2-.81,2.86,2.86,0,0,0,.81-2.11Z"/><path class="cls-6" d="M776.72,117.86l.2,1.19a2.83,2.83,0,0,1-1.08.18,1.94,1.94,0,0,1-1.21-.37,1.56,1.56,0,0,1-.61-1.12,3.68,3.68,0,0,1-3.22,1.56,3.41,3.41,0,0,1-2.32-.75,2.63,2.63,0,0,1-.87-2.09,2.83,2.83,0,0,1,.22-1.12,2.19,2.19,0,0,1,.53-.76,3,3,0,0,1,.78-.49,4.92,4.92,0,0,1,.85-.28c.25-.06.54-.11.86-.16l.61-.07.62-.08.53-.1a2.81,2.81,0,0,0,.5-.15,2.32,2.32,0,0,0,.36-.22.74.74,0,0,0,.27-.32,1,1,0,0,0,.08-.44,1.1,1.1,0,0,0-.63-1,3.28,3.28,0,0,0-1.49-.32,4.75,4.75,0,0,0-2.92,1l-.72-1.19a6.52,6.52,0,0,1,3.75-1.19,4.15,4.15,0,0,1,2.64.76,2.73,2.73,0,0,1,1,2.3V117c0,.67.24,1,.73,1A.91.91,0,0,0,776.72,117.86Zm-2.86-2.37v-1.62a2.4,2.4,0,0,1-.39.39,1.67,1.67,0,0,1-.52.24l-.5.13c-.13,0-.34.07-.64.11l-.65.1a4,4,0,0,0-1.46.48,1.22,1.22,0,0,0-.48,1.1,1.37,1.37,0,0,0,.54,1.19,2.26,2.26,0,0,0,1.4.4,3,3,0,0,0,1.92-.63A2.29,2.29,0,0,0,773.86,115.49Z"/><path class="cls-6" d="M780.16,119.09h-1.57V106.24h1.57Z"/><path class="cls-6" d="M784.64,119.09h-1.56V106.24h1.56Z"/><path class="cls-6" d="M795.46,109.73l-3.75,9.79a6.21,6.21,0,0,1-1.27,2.2,2.71,2.71,0,0,1-2,.68,3.14,3.14,0,0,1-1.91-.58l.69-1.15a2,2,0,0,0,1.11.36,1.34,1.34,0,0,0,1-.37,3.23,3.23,0,0,0,.68-1l.25-.56-4-9.32h1.8l3,7.27,2.65-7.27Z"/><path class="cls-6" d="M689.46,140.69h-1.57v-9.36h1.57v1.55a3.7,3.7,0,0,1,3.2-1.77,3.13,3.13,0,0,1,2.4.94,3.68,3.68,0,0,1,.88,2.61v6h-1.57V135c0-1.62-.69-2.43-2.09-2.43a2.72,2.72,0,0,0-2,.81,2.87,2.87,0,0,0-.8,2.1Z"/><path class="cls-6" d="M707.08,135.77a3.72,3.72,0,0,1,0,.62H699.7a3.23,3.23,0,0,0,.92,2.26,3.09,3.09,0,0,0,2.23.81,3.61,3.61,0,0,0,2.77-1.22l1,1a5.06,5.06,0,0,1-3.86,1.63,4.63,4.63,0,0,1-3.51-1.35A4.93,4.93,0,0,1,698,136a5.06,5.06,0,0,1,1.25-3.52,4.64,4.64,0,0,1,6.58-.08A4.76,4.76,0,0,1,707.08,135.77Zm-7.34-.59h5.72a3,3,0,0,0-.92-2,2.81,2.81,0,0,0-1.94-.71,2.71,2.71,0,0,0-2,.76A2.93,2.93,0,0,0,699.74,135.18Z"/><path class="cls-6" d="M717.63,135.77a3.72,3.72,0,0,1,0,.62h-7.34a3.23,3.23,0,0,0,.92,2.26,3.07,3.07,0,0,0,2.23.81,3.62,3.62,0,0,0,2.77-1.22l1,1a5,5,0,0,1-3.85,1.63,4.6,4.6,0,0,1-3.51-1.35,4.94,4.94,0,0,1-1.28-3.51,5.06,5.06,0,0,1,1.26-3.52,4.62,4.62,0,0,1,6.57-.08A4.73,4.73,0,0,1,717.63,135.77Zm-7.35-.59H716a3,3,0,0,0-.92-2,2.83,2.83,0,0,0-1.94-.71,2.71,2.71,0,0,0-2,.76A2.89,2.89,0,0,0,710.28,135.18Z"/><path class="cls-6" d="M728.34,140.69h-1.57v-1.53a3.85,3.85,0,0,1-3.33,1.74,3.89,3.89,0,0,1-3.13-1.38,5.85,5.85,0,0,1,0-7,4.11,4.11,0,0,1,6.46.38v-5h1.57ZM726,138.48a4.21,4.21,0,0,0,0-4.94,2.73,2.73,0,0,0-2.24-1,2.62,2.62,0,0,0-2.18,1,4.48,4.48,0,0,0,0,5,2.6,2.6,0,0,0,2.18,1A2.71,2.71,0,0,0,726,138.48Z"/><path class="cls-6" d="M738.29,137.92a2.65,2.65,0,0,1-1,2.17,4.43,4.43,0,0,1-2.81.81,4.58,4.58,0,0,1-4.14-2l1.15-.87a3.58,3.58,0,0,0,3.08,1.51,2.82,2.82,0,0,0,1.58-.38,1.27,1.27,0,0,0,.6-1.13.93.93,0,0,0-.54-.92,11.3,11.3,0,0,0-2-.54,6.58,6.58,0,0,1-2.48-.88,2,2,0,0,1-.87-1.83,2.35,2.35,0,0,1,1-2.06,4.34,4.34,0,0,1,2.49-.7,5,5,0,0,1,3.8,1.57l-1,1a3.47,3.47,0,0,0-2.77-1.21,2.91,2.91,0,0,0-1.41.32,1,1,0,0,0-.57.94.92.92,0,0,0,.13.49,1.32,1.32,0,0,0,.31.35,1.75,1.75,0,0,0,.53.25,4.6,4.6,0,0,0,.62.17l.73.15c.45.08.83.16,1.11.23a7.88,7.88,0,0,1,1,.32,2.75,2.75,0,0,1,.83.49,2.3,2.3,0,0,1,.73,1.75Z"/><path class="cls-6" d="M750.1,139.09l.67,1.18a3.22,3.22,0,0,1-2,.63,2.67,2.67,0,0,1-2.45-1.18,3.53,3.53,0,0,1-.39-1.86v-5.24h-1.62v-1.29h1.62V128.7h1.56v2.63h3v1.29h-3v5.24q0,1.62,1.44,1.62A1.93,1.93,0,0,0,750.1,139.09Z"/><path class="cls-6" d="M761,136a5,5,0,0,1-1.26,3.51,4.82,4.82,0,0,1-6.71,0,5.6,5.6,0,0,1,0-7,4.77,4.77,0,0,1,6.71,0A5,5,0,0,1,761,136Zm-1.68,0a3.9,3.9,0,0,0-.78-2.51,2.59,2.59,0,0,0-2.15-1,2.62,2.62,0,0,0-2.16,1,4.35,4.35,0,0,0,0,5,2.64,2.64,0,0,0,2.16,1,2.61,2.61,0,0,0,2.15-1A3.88,3.88,0,0,0,759.35,136Z"/><path class="cls-6" d="M768.08,127.84h1.57v5a3.83,3.83,0,0,1,3.33-1.77,3.88,3.88,0,0,1,3.13,1.39,5.83,5.83,0,0,1,0,7A3.91,3.91,0,0,1,773,140.9a3.85,3.85,0,0,1-3.33-1.74v1.53h-1.57Zm2.36,5.71a3.82,3.82,0,0,0-.79,2.48,3.71,3.71,0,0,0,.8,2.46,2.7,2.7,0,0,0,2.22,1,2.62,2.62,0,0,0,2.18-1,3.91,3.91,0,0,0,.75-2.47,4,4,0,0,0-.75-2.49,2.6,2.6,0,0,0-2.18-1A2.72,2.72,0,0,0,770.44,133.55Z"/><path class="cls-6" d="M787.92,135.77a5.23,5.23,0,0,1,0,.62h-7.34a3.22,3.22,0,0,0,.91,2.26,3.11,3.11,0,0,0,2.24.81,3.62,3.62,0,0,0,2.77-1.22l1,1a5,5,0,0,1-3.85,1.63,4.6,4.6,0,0,1-3.51-1.35,4.94,4.94,0,0,1-1.28-3.51,5.1,5.1,0,0,1,1.25-3.52,4.26,4.26,0,0,1,3.34-1.41,4.2,4.2,0,0,1,3.24,1.33A4.73,4.73,0,0,1,787.92,135.77Zm-7.35-.59h5.73a3,3,0,0,0-.92-2,2.84,2.84,0,0,0-2-.71,2.71,2.71,0,0,0-2,.76A2.89,2.89,0,0,0,780.57,135.18Z"/><path class="cls-6" d="M717.75,149.44h1.57v5a4.11,4.11,0,0,1,6.46-.38,5.83,5.83,0,0,1,0,7,4.13,4.13,0,0,1-6.45-.36v1.53h-1.57Zm2.36,5.71a3.82,3.82,0,0,0-.79,2.48,3.77,3.77,0,0,0,.8,2.46,2.71,2.71,0,0,0,2.22,1,2.6,2.6,0,0,0,2.18-1,3.85,3.85,0,0,0,.76-2.47,3.91,3.91,0,0,0-.76-2.49,2.58,2.58,0,0,0-2.18-1A2.72,2.72,0,0,0,720.11,155.15Z"/><path class="cls-6" d="M735.52,152.93h1.56v9.36h-1.56v-1.53a3.79,3.79,0,0,1-3.2,1.74,3.16,3.16,0,0,1-2.4-.93A3.63,3.63,0,0,1,729,159v-6h1.57v5.69c0,1.62.68,2.43,2.06,2.43a2.77,2.77,0,0,0,2-.81,2.86,2.86,0,0,0,.81-2.11Z"/><path class="cls-6" d="M741.46,151.09h-1.57v-1.65h1.57Zm0,11.2h-1.57v-9.36h1.57Z"/><path class="cls-6" d="M745.89,162.29h-1.57V149.44h1.57Z"/><path class="cls-6" d="M757.35,162.29h-1.56v-1.53a4.14,4.14,0,0,1-6.46.36,5.81,5.81,0,0,1,0-7,4.11,4.11,0,0,1,6.46.38v-5h1.56ZM755,160.08a4.21,4.21,0,0,0,0-4.94,2.74,2.74,0,0,0-2.24-1,2.6,2.6,0,0,0-2.18,1,4.43,4.43,0,0,0,0,5,2.58,2.58,0,0,0,2.18,1A2.72,2.72,0,0,0,755,160.08Z"/><path class="cls-6" d="M1010.17,260.86l-3.35,12H1005l-2.81-9.72-2.8,9.72h-1.93l-3.28-12h1.79l2.55,9.85,2.9-9.85H1003l2.9,9.89,2.54-9.89Z"/><path class="cls-6" d="M1013.59,272.85H1012V260h1.56v5a3.7,3.7,0,0,1,3.21-1.76,3.15,3.15,0,0,1,2.39.93,3.67,3.67,0,0,1,.88,2.61v6h-1.56v-5.67c0-1.62-.7-2.43-2.09-2.43a2.74,2.74,0,0,0-2,.81,2.88,2.88,0,0,0-.8,2.11Z"/><path class="cls-6" d="M1031.16,271.63l.2,1.19a2.83,2.83,0,0,1-1.08.18,2,2,0,0,1-1.22-.37,1.61,1.61,0,0,1-.6-1.13,3.67,3.67,0,0,1-3.22,1.57,3.36,3.36,0,0,1-2.32-.76,2.62,2.62,0,0,1-.87-2.09,2.59,2.59,0,0,1,.22-1.11,2.14,2.14,0,0,1,.53-.77,3.24,3.24,0,0,1,.78-.48,4.08,4.08,0,0,1,.85-.29c.25-.05.54-.11.86-.15l.61-.08.62-.08a4.22,4.22,0,0,0,.53-.1,1.76,1.76,0,0,0,.5-.15,1.68,1.68,0,0,0,.36-.21.71.71,0,0,0,.27-.33,1,1,0,0,0,.08-.44,1.08,1.08,0,0,0-.63-1,3.18,3.18,0,0,0-1.49-.33,4.75,4.75,0,0,0-2.92,1l-.72-1.19a6.48,6.48,0,0,1,3.75-1.18,4.22,4.22,0,0,1,2.64.75,2.74,2.74,0,0,1,1,2.31v4.42c0,.68.25,1,.74,1A1,1,0,0,0,1031.16,271.63Zm-2.86-2.38v-1.62a1.8,1.8,0,0,1-.39.39,1.67,1.67,0,0,1-.52.24l-.51.14-.63.11-.65.09a3.94,3.94,0,0,0-1.46.48,1.23,1.23,0,0,0-.49,1.11,1.39,1.39,0,0,0,.54,1.19,2.35,2.35,0,0,0,1.41.39,3,3,0,0,0,1.92-.63A2.29,2.29,0,0,0,1028.3,269.25Z"/><path class="cls-6" d="M1037.75,271.25l.66,1.19a3.19,3.19,0,0,1-2,.63,2.66,2.66,0,0,1-2.45-1.19,3.51,3.51,0,0,1-.39-1.85v-5.24h-1.62v-1.3h1.62v-2.63h1.56v2.63h3v1.3h-3V270q0,1.62,1.44,1.62A1.93,1.93,0,0,0,1037.75,271.25Z"/><path class="cls-6" d="M1050.49,263.65l-.5,1.5a2.3,2.3,0,0,0-1.08-.29,2.15,2.15,0,0,0-1.7.84,3.36,3.36,0,0,0-.71,2.27v4.88h-1.57v-9.36h1.57v1.59a3.17,3.17,0,0,1,2.71-1.77A2.35,2.35,0,0,1,1050.49,263.65Z"/><path class="cls-6" d="M1060.28,267.94a5.28,5.28,0,0,1,0,.61h-7.35a3.27,3.27,0,0,0,.92,2.26,3.07,3.07,0,0,0,2.23.82,3.64,3.64,0,0,0,2.78-1.23l1,1a5,5,0,0,1-3.85,1.64,4.57,4.57,0,0,1-3.51-1.36,4.92,4.92,0,0,1-1.28-3.5,5.13,5.13,0,0,1,1.25-3.53,4.65,4.65,0,0,1,6.58-.07A4.72,4.72,0,0,1,1060.28,267.94Zm-7.34-.6h5.72a3,3,0,0,0-.91-2,3,3,0,0,0-3.94,0A3,3,0,0,0,1052.94,267.34Z"/><path class="cls-6" d="M1070.78,271.63l.2,1.19a2.83,2.83,0,0,1-1.08.18,2,2,0,0,1-1.22-.37,1.61,1.61,0,0,1-.6-1.13,3.67,3.67,0,0,1-3.22,1.57,3.39,3.39,0,0,1-2.33-.76,2.64,2.64,0,0,1-.86-2.09,2.59,2.59,0,0,1,.22-1.11,2.14,2.14,0,0,1,.53-.77,3.24,3.24,0,0,1,.78-.48,4,4,0,0,1,.84-.29c.26-.05.54-.11.87-.15l.6-.08.62-.08a3.91,3.91,0,0,0,.53-.1,1.85,1.85,0,0,0,.51-.15,2.36,2.36,0,0,0,.36-.21.86.86,0,0,0,.27-.33,1.15,1.15,0,0,0,.08-.44,1.08,1.08,0,0,0-.63-1,3.19,3.19,0,0,0-1.5-.33,4.72,4.72,0,0,0-2.91,1l-.72-1.19a6.48,6.48,0,0,1,3.74-1.18,4.24,4.24,0,0,1,2.65.75,2.74,2.74,0,0,1,1,2.31v4.42c0,.68.25,1,.74,1A1,1,0,0,0,1070.78,271.63Zm-2.86-2.38v-1.62a2.05,2.05,0,0,1-.39.39,1.67,1.67,0,0,1-.52.24l-.51.14-.64.11-.64.09a3.94,3.94,0,0,0-1.46.48,1.21,1.21,0,0,0-.49,1.11,1.39,1.39,0,0,0,.54,1.19,2.35,2.35,0,0,0,1.41.39,3,3,0,0,0,1.91-.63A2.29,2.29,0,0,0,1067.92,269.25Z"/><path class="cls-6" d="M1074.22,272.85h-1.57V260h1.57Z"/><path class="cls-6" d="M1078.7,272.85h-1.57V260h1.57Z"/><path class="cls-6" d="M1089.51,263.49l-3.74,9.79a6.06,6.06,0,0,1-1.28,2.2,2.64,2.64,0,0,1-1.94.68,3.18,3.18,0,0,1-1.91-.57l.68-1.15a2,2,0,0,0,1.12.36,1.34,1.34,0,0,0,1-.37,3.6,3.6,0,0,0,.69-1.06l.25-.55-4-9.33h1.8l3,7.27,2.64-7.27Z"/><path class="cls-6" d="M996.75,291.84l1.2.87a4.37,4.37,0,0,1-3.78,2,4.18,4.18,0,0,1-3.29-1.39,5.55,5.55,0,0,1,0-7,4.21,4.21,0,0,1,3.29-1.38,4.29,4.29,0,0,1,3.73,1.94l-1.17.94a2.8,2.8,0,0,0-2.51-1.46,2.64,2.64,0,0,0-2.13,1,3.81,3.81,0,0,0-.8,2.49,3.86,3.86,0,0,0,.8,2.5,2.62,2.62,0,0,0,2.12,1A2.92,2.92,0,0,0,996.75,291.84Z"/><path class="cls-6" d="M1008.28,293.23l.2,1.19a2.83,2.83,0,0,1-1.08.18,2,2,0,0,1-1.21-.37,1.62,1.62,0,0,1-.61-1.13,3.66,3.66,0,0,1-3.22,1.57,3.36,3.36,0,0,1-2.32-.76,2.62,2.62,0,0,1-.87-2.09,2.75,2.75,0,0,1,.22-1.11,2.14,2.14,0,0,1,.53-.77,3.24,3.24,0,0,1,.78-.48,4.28,4.28,0,0,1,.85-.29c.25-.05.54-.11.86-.15l.61-.08.62-.08a4.22,4.22,0,0,0,.53-.1,1.76,1.76,0,0,0,.5-.15,1.68,1.68,0,0,0,.36-.21.71.71,0,0,0,.27-.33,1,1,0,0,0,.08-.44,1.08,1.08,0,0,0-.63-1,3.15,3.15,0,0,0-1.49-.33,4.75,4.75,0,0,0-2.92,1l-.72-1.19a6.51,6.51,0,0,1,3.75-1.18,4.21,4.21,0,0,1,2.64.75,2.75,2.75,0,0,1,1,2.31v4.42c0,.68.24,1,.73,1A1,1,0,0,0,1008.28,293.23Zm-2.86-2.38v-1.62a1.8,1.8,0,0,1-.39.39,1.57,1.57,0,0,1-.52.24l-.5.14-.64.1-.65.1a4,4,0,0,0-1.46.48,1.23,1.23,0,0,0-.48,1.11,1.39,1.39,0,0,0,.54,1.19,2.32,2.32,0,0,0,1.4.39,3,3,0,0,0,1.92-.63A2.29,2.29,0,0,0,1005.42,290.85Z"/><path class="cls-6" d="M1011.67,294.45h-1.57v-9.36h1.57v1.55a3.69,3.69,0,0,1,3.2-1.76,3.12,3.12,0,0,1,2.39.93,3.67,3.67,0,0,1,.89,2.61v6h-1.57v-5.67c0-1.62-.7-2.43-2.09-2.43a2.72,2.72,0,0,0-2,.81,2.84,2.84,0,0,0-.8,2.11Z"/><path class="cls-6" d="M1025.71,281.6h1.56v5a3.84,3.84,0,0,1,3.33-1.76,3.89,3.89,0,0,1,3.13,1.38,5.28,5.28,0,0,1,1.17,3.51,5.19,5.19,0,0,1-1.18,3.51,4.11,4.11,0,0,1-6.45-.36v1.53h-1.56Zm2.35,5.71a3.88,3.88,0,0,0-.79,2.48,3.78,3.78,0,0,0,.8,2.47,2.76,2.76,0,0,0,2.23,1,2.6,2.6,0,0,0,2.17-1,4.43,4.43,0,0,0,0-5,2.58,2.58,0,0,0-2.17-1A2.74,2.74,0,0,0,1028.06,287.31Z"/><path class="cls-6" d="M1045.54,289.54a3.59,3.59,0,0,1,0,.61h-7.34a3.23,3.23,0,0,0,.92,2.26,3.05,3.05,0,0,0,2.23.82,3.62,3.62,0,0,0,2.77-1.23l1.05,1a5.06,5.06,0,0,1-3.85,1.64,4.57,4.57,0,0,1-3.51-1.36,4.87,4.87,0,0,1-1.28-3.5,5.08,5.08,0,0,1,1.25-3.53,4.65,4.65,0,0,1,6.58-.07A4.76,4.76,0,0,1,1045.54,289.54Zm-7.34-.6h5.72a2.92,2.92,0,0,0-.92-2,3,3,0,0,0-3.93,0A3,3,0,0,0,1038.2,288.94Z"/><path class="cls-6" d="M1061.11,294.45h-1.57v-1.53a3.83,3.83,0,0,1-3.33,1.75,3.88,3.88,0,0,1-3.13-1.39,5.22,5.22,0,0,1-1.17-3.49,5.29,5.29,0,0,1,1.17-3.53,3.9,3.9,0,0,1,3.13-1.38,3.84,3.84,0,0,1,3.33,1.76v-5h1.57Zm-2.37-2.2a3.77,3.77,0,0,0,.8-2.48,3.7,3.7,0,0,0-.8-2.46,2.74,2.74,0,0,0-2.24-1,2.62,2.62,0,0,0-2.18,1,3.89,3.89,0,0,0-.75,2.47,4,4,0,0,0,.75,2.49,2.62,2.62,0,0,0,2.18,1A2.74,2.74,0,0,0,1058.74,292.25Z"/><path class="cls-6" d="M1072.52,289.79a5,5,0,0,1-1.26,3.51,4.78,4.78,0,0,1-6.7,0,5,5,0,0,1-1.25-3.51,5,5,0,0,1,1.25-3.54,4.78,4.78,0,0,1,6.7,0A5,5,0,0,1,1072.52,289.79Zm-1.67,0a3.9,3.9,0,0,0-.78-2.51,2.87,2.87,0,0,0-4.32,0,4.35,4.35,0,0,0,0,5,2.87,2.87,0,0,0,4.32,0A3.86,3.86,0,0,0,1070.85,289.79Z"/><path class="cls-6" d="M1076.28,294.45h-1.56v-9.36h1.56v1.55a3.72,3.72,0,0,1,3.21-1.76,3.13,3.13,0,0,1,2.39.93,3.67,3.67,0,0,1,.88,2.61v6h-1.56v-5.67c0-1.62-.7-2.43-2.09-2.43a2.7,2.7,0,0,0-2,.81,2.85,2.85,0,0,0-.81,2.11Z"/><path class="cls-6" d="M1093.91,289.54a5,5,0,0,1,0,.61h-7.34a3.22,3.22,0,0,0,.91,2.26,3.08,3.08,0,0,0,2.24.82,3.63,3.63,0,0,0,2.77-1.23l1,1a5,5,0,0,1-3.85,1.64,4.57,4.57,0,0,1-3.51-1.36,4.92,4.92,0,0,1-1.28-3.5,5.13,5.13,0,0,1,1.25-3.53,4.25,4.25,0,0,1,3.34-1.4,4.16,4.16,0,0,1,3.24,1.33A4.73,4.73,0,0,1,1093.91,289.54Zm-7.35-.6h5.73a3,3,0,0,0-.92-2,2.79,2.79,0,0,0-1.95-.71,2.74,2.74,0,0,0-2,.75A2.91,2.91,0,0,0,1086.56,288.94Z"/><path class="cls-6" d="M997.41,106l-3.35,12h-1.87l-2.81-9.72L986.57,118h-1.92l-3.28-12h1.78l2.56,9.84,2.9-9.84h1.62l2.9,9.88,2.53-9.88Z"/><path class="cls-6" d="M1000.83,118h-1.57V105.16h1.57v5a3.71,3.71,0,0,1,3.2-1.76,3.16,3.16,0,0,1,2.4.93,3.67,3.67,0,0,1,.88,2.61v6h-1.57v-5.67c0-1.62-.69-2.43-2.08-2.43a2.74,2.74,0,0,0-2,.81,2.9,2.9,0,0,0-.8,2.11Z"/><path class="cls-6" d="M1018.4,116.79l.2,1.19a2.83,2.83,0,0,1-1.08.18,2,2,0,0,1-1.22-.37,1.61,1.61,0,0,1-.6-1.13,3.67,3.67,0,0,1-3.22,1.57,3.39,3.39,0,0,1-2.33-.76,3,3,0,0,1-.64-3.2,2.24,2.24,0,0,1,.53-.77,3.24,3.24,0,0,1,.78-.48,3.89,3.89,0,0,1,.85-.29l.86-.15.6-.07.62-.09c.14,0,.31,0,.54-.09a2.26,2.26,0,0,0,.5-.16,2.36,2.36,0,0,0,.36-.21.71.71,0,0,0,.27-.33,1.15,1.15,0,0,0,.08-.44,1.08,1.08,0,0,0-.63-1,3.18,3.18,0,0,0-1.49-.33,4.75,4.75,0,0,0-2.92,1l-.72-1.18a6.41,6.41,0,0,1,3.74-1.19,4.24,4.24,0,0,1,2.65.75,2.75,2.75,0,0,1,1,2.31v4.43c0,.67.25,1,.74,1A.91.91,0,0,0,1018.4,116.79Zm-2.86-2.38v-1.62a1.8,1.8,0,0,1-.39.39,1.67,1.67,0,0,1-.52.24l-.51.14c-.12,0-.34.07-.64.11l-.64.1a3.78,3.78,0,0,0-1.46.47,1.21,1.21,0,0,0-.49,1.11,1.39,1.39,0,0,0,.54,1.19,2.35,2.35,0,0,0,1.41.39,3,3,0,0,0,1.91-.63A2.26,2.26,0,0,0,1015.54,114.41Z"/><path class="cls-6" d="M1025,116.41l.66,1.19a3.21,3.21,0,0,1-2,.63,2.66,2.66,0,0,1-2.45-1.19,3.48,3.48,0,0,1-.4-1.85V110h-1.62v-1.3h1.62V106h1.57v2.62h3V110h-3v5.24q0,1.62,1.44,1.62A1.88,1.88,0,0,0,1025,116.41Z"/><path class="cls-6" d="M1036.94,116.41l.66,1.19a3.19,3.19,0,0,1-2,.63,2.66,2.66,0,0,1-2.45-1.19,3.49,3.49,0,0,1-.39-1.85V110h-1.62v-1.3h1.62V106h1.56v2.62h3V110h-3v5.24q0,1.62,1.44,1.62A1.88,1.88,0,0,0,1036.94,116.41Z"/><path class="cls-6" d="M1040.83,118h-1.57V105.16h1.57v5a3.71,3.71,0,0,1,3.2-1.76,3.13,3.13,0,0,1,2.39.93,3.67,3.67,0,0,1,.89,2.61v6h-1.57v-5.67c0-1.62-.7-2.43-2.09-2.43a2.7,2.7,0,0,0-2,.81,2.86,2.86,0,0,0-.8,2.11Z"/><path class="cls-6" d="M1058.45,113.1a3.59,3.59,0,0,1,0,.61h-7.34A3.23,3.23,0,0,0,1052,116a3,3,0,0,0,2.23.82,3.66,3.66,0,0,0,2.77-1.22l1,1a5,5,0,0,1-3.85,1.64,4.57,4.57,0,0,1-3.51-1.36,4.92,4.92,0,0,1-1.28-3.5,5.13,5.13,0,0,1,1.25-3.53,4.28,4.28,0,0,1,3.34-1.4,4.16,4.16,0,0,1,3.24,1.33A4.73,4.73,0,0,1,1058.45,113.1Zm-7.35-.59h5.73a3,3,0,0,0-.92-2,2.78,2.78,0,0,0-1.94-.71,2.75,2.75,0,0,0-2,.75A2.92,2.92,0,0,0,1051.1,112.51Z"/><path class="cls-6" d="M1068.51,108.65l-3.74,9.8a6.15,6.15,0,0,1-1.28,2.19,2.67,2.67,0,0,1-2,.69,3.15,3.15,0,0,1-1.9-.58l.68-1.15a2,2,0,0,0,1.12.36,1.36,1.36,0,0,0,1-.37,3.47,3.47,0,0,0,.68-1l.25-.56-4-9.33h1.8l3,7.28,2.65-7.28Z"/><path class="cls-6" d="M1082.19,115.24a2.63,2.63,0,0,1-1,2.17,4.35,4.35,0,0,1-2.81.82,4.61,4.61,0,0,1-4.14-2l1.16-.86a3.56,3.56,0,0,0,3.07,1.51,2.88,2.88,0,0,0,1.59-.39,1.27,1.27,0,0,0,.59-1.12.92.92,0,0,0-.54-.92,9.85,9.85,0,0,0-2-.54,6.88,6.88,0,0,1-2.49-.88,2.07,2.07,0,0,1-.86-1.84,2.33,2.33,0,0,1,1-2,4.27,4.27,0,0,1,2.49-.7A5,5,0,0,1,1082,110l-1,1a3.48,3.48,0,0,0-2.77-1.2,2.87,2.87,0,0,0-1.4.31,1,1,0,0,0-.58,1,.87.87,0,0,0,.14.48,1.31,1.31,0,0,0,.3.35,1.86,1.86,0,0,0,.53.26l.63.17.73.14c.45.09.82.16,1.11.24a7.78,7.78,0,0,1,1,.32,2.74,2.74,0,0,1,.84.49,2.21,2.21,0,0,1,.51.72A2.25,2.25,0,0,1,1082.19,115.24Z"/><path class="cls-6" d="M1092.75,116.79l.2,1.19a2.8,2.8,0,0,1-1.08.18,2,2,0,0,1-1.21-.37,1.66,1.66,0,0,1-.61-1.13,3.66,3.66,0,0,1-3.22,1.57,3.38,3.38,0,0,1-2.32-.76,2.6,2.6,0,0,1-.86-2.08,2.8,2.8,0,0,1,.21-1.12,2.38,2.38,0,0,1,.53-.77,3.13,3.13,0,0,1,.79-.48,4,4,0,0,1,.84-.29l.87-.15.6-.07.62-.09c.13,0,.31,0,.53-.09a2.13,2.13,0,0,0,.87-.37.86.86,0,0,0,.27-.33,1.15,1.15,0,0,0,.08-.44,1.08,1.08,0,0,0-.63-1,3.19,3.19,0,0,0-1.5-.33,4.72,4.72,0,0,0-2.91,1l-.72-1.18a6.41,6.41,0,0,1,3.74-1.19,4.24,4.24,0,0,1,2.65.75,2.78,2.78,0,0,1,1,2.31v4.43c0,.67.25,1,.74,1A.88.88,0,0,0,1092.75,116.79Zm-2.86-2.38v-1.62a2,2,0,0,1-.38.39,1.73,1.73,0,0,1-.53.24l-.5.14c-.13,0-.34.07-.64.11l-.65.1a3.72,3.72,0,0,0-1.45.47,1.21,1.21,0,0,0-.49,1.11,1.39,1.39,0,0,0,.54,1.19,2.34,2.34,0,0,0,1.4.39,3,3,0,0,0,1.92-.63A2.29,2.29,0,0,0,1089.89,114.41Z"/><path class="cls-6" d="M1102.28,108.65l-3.75,9.8a6,6,0,0,1-1.28,2.19,2.63,2.63,0,0,1-1.94.69,3.2,3.2,0,0,1-1.91-.58l.69-1.15a2,2,0,0,0,1.11.36,1.34,1.34,0,0,0,1-.37,3.3,3.3,0,0,0,.69-1l.25-.56-4-9.33h1.8l3,7.28,2.64-7.28Z"/><path class="cls-6" d="M996.75,137l1.2.87a4.35,4.35,0,0,1-3.78,2,4.18,4.18,0,0,1-3.29-1.39,5.55,5.55,0,0,1,0-7,4.21,4.21,0,0,1,3.29-1.38A4.31,4.31,0,0,1,997.9,132l-1.17.94a2.82,2.82,0,0,0-2.51-1.46,2.64,2.64,0,0,0-2.13,1,4.29,4.29,0,0,0,0,5,2.62,2.62,0,0,0,2.12,1A2.92,2.92,0,0,0,996.75,137Z"/><path class="cls-6" d="M1008.28,138.39l.2,1.19a2.83,2.83,0,0,1-1.08.18,2,2,0,0,1-1.21-.37,1.62,1.62,0,0,1-.61-1.13,3.66,3.66,0,0,1-3.22,1.57,3.36,3.36,0,0,1-2.32-.76,2.61,2.61,0,0,1-.87-2.08,2.8,2.8,0,0,1,.22-1.12,2.24,2.24,0,0,1,.53-.77,3.24,3.24,0,0,1,.78-.48,4.28,4.28,0,0,1,.85-.29l.86-.15.61-.07.62-.09c.13,0,.31-.05.53-.09a2.1,2.1,0,0,0,.5-.16,1.68,1.68,0,0,0,.36-.21.71.71,0,0,0,.27-.33,1,1,0,0,0,.08-.44,1.08,1.08,0,0,0-.63-1,3.15,3.15,0,0,0-1.49-.33,4.75,4.75,0,0,0-2.92,1l-.72-1.18a6.45,6.45,0,0,1,3.75-1.19,4.21,4.21,0,0,1,2.64.75,2.76,2.76,0,0,1,1,2.31v4.43c0,.67.24,1,.73,1A.91.91,0,0,0,1008.28,138.39Zm-2.86-2.38v-1.62a1.8,1.8,0,0,1-.39.39,1.57,1.57,0,0,1-.52.24l-.5.14-.64.11-.65.1a3.84,3.84,0,0,0-1.46.47,1.23,1.23,0,0,0-.48,1.11,1.39,1.39,0,0,0,.54,1.19,2.32,2.32,0,0,0,1.4.39,3,3,0,0,0,1.92-.63A2.29,2.29,0,0,0,1005.42,136Z"/><path class="cls-6" d="M1011.67,139.61h-1.57v-9.36h1.57v1.55a3.71,3.71,0,0,1,3.2-1.76,3.12,3.12,0,0,1,2.39.93,3.67,3.67,0,0,1,.89,2.61v6h-1.57v-5.67c0-1.62-.7-2.43-2.09-2.43a2.72,2.72,0,0,0-2,.81,2.86,2.86,0,0,0-.8,2.11Z"/><path class="cls-6" d="M1025.71,126.76h1.56v5a4.13,4.13,0,0,1,6.46-.38,5.28,5.28,0,0,1,1.17,3.51,5.19,5.19,0,0,1-1.18,3.51,4.11,4.11,0,0,1-6.45-.36v1.53h-1.56Zm2.35,5.72a3.85,3.85,0,0,0-.79,2.47,3.78,3.78,0,0,0,.8,2.47,2.73,2.73,0,0,0,2.23,1,2.6,2.6,0,0,0,2.17-1,4.43,4.43,0,0,0,0-5,2.58,2.58,0,0,0-2.17-1A2.71,2.71,0,0,0,1028.06,132.48Z"/><path class="cls-6" d="M1045.54,134.7a3.59,3.59,0,0,1,0,.61h-7.34a3.23,3.23,0,0,0,.92,2.26,3.05,3.05,0,0,0,2.23.82,3.64,3.64,0,0,0,2.77-1.22l1.05,1a5.06,5.06,0,0,1-3.85,1.64,4.57,4.57,0,0,1-3.51-1.36,4.87,4.87,0,0,1-1.28-3.5,5.08,5.08,0,0,1,1.25-3.53,4.27,4.27,0,0,1,3.34-1.4,4.19,4.19,0,0,1,3.24,1.33A4.76,4.76,0,0,1,1045.54,134.7Zm-7.34-.59h5.72a2.93,2.93,0,0,0-.92-2,3,3,0,0,0-3.93,0A3,3,0,0,0,1038.2,134.11Z"/><path class="cls-6" d="M1061.11,139.61h-1.57v-1.53a3.83,3.83,0,0,1-3.33,1.75,3.88,3.88,0,0,1-3.13-1.39,5.2,5.2,0,0,1-1.17-3.49,5.29,5.29,0,0,1,1.17-3.53,4.13,4.13,0,0,1,6.46.38v-5h1.57Zm-2.37-2.2a3.77,3.77,0,0,0,.8-2.48,3.71,3.71,0,0,0-.8-2.46,2.73,2.73,0,0,0-2.24-1,2.62,2.62,0,0,0-2.18,1,3.91,3.91,0,0,0-.75,2.47,4,4,0,0,0,.75,2.49,2.6,2.6,0,0,0,2.18,1A2.74,2.74,0,0,0,1058.74,137.41Z"/><path class="cls-6" d="M1072.52,135a5,5,0,0,1-1.26,3.51,4.78,4.78,0,0,1-6.7,0,5,5,0,0,1-1.25-3.51,5,5,0,0,1,1.25-3.54,4.78,4.78,0,0,1,6.7,0A5,5,0,0,1,1072.52,135Zm-1.67,0a3.9,3.9,0,0,0-.78-2.51,2.87,2.87,0,0,0-4.32,0,4.35,4.35,0,0,0,0,5,2.85,2.85,0,0,0,4.32,0A3.86,3.86,0,0,0,1070.85,135Z"/><path class="cls-6" d="M1076.28,139.61h-1.56v-9.36h1.56v1.55a3.74,3.74,0,0,1,3.21-1.76,3.13,3.13,0,0,1,2.39.93,3.67,3.67,0,0,1,.88,2.61v6h-1.56v-5.67c0-1.62-.7-2.43-2.09-2.43a2.7,2.7,0,0,0-2,.81,2.86,2.86,0,0,0-.81,2.11Z"/><path class="cls-6" d="M1093.91,134.7a5,5,0,0,1,0,.61h-7.34a3.22,3.22,0,0,0,.91,2.26,3.08,3.08,0,0,0,2.24.82,3.66,3.66,0,0,0,2.77-1.22l1,1a5,5,0,0,1-3.85,1.64,4.57,4.57,0,0,1-3.51-1.36,4.92,4.92,0,0,1-1.28-3.5,5.13,5.13,0,0,1,1.25-3.53,4.28,4.28,0,0,1,3.34-1.4,4.16,4.16,0,0,1,3.24,1.33A4.73,4.73,0,0,1,1093.91,134.7Zm-7.35-.59h5.73a3,3,0,0,0-.92-2,2.79,2.79,0,0,0-1.95-.71,2.74,2.74,0,0,0-2,.75A2.92,2.92,0,0,0,1086.56,134.11Z"/><path class="cls-6" d="M269.58,316.78l-3.35,12h-1.87l-2.81-9.72-2.81,9.72h-1.93l-3.27-12h1.78l2.56,9.84,2.89-9.84h1.62l2.9,9.88,2.54-9.88Z"/><path class="cls-6" d="M273,328.77h-1.57V315.91H273v5a3.71,3.71,0,0,1,3.2-1.76,3.1,3.1,0,0,1,2.39.94,3.64,3.64,0,0,1,.89,2.61v6h-1.57V323.1c0-1.62-.7-2.43-2.09-2.43a2.7,2.7,0,0,0-2,.81,2.83,2.83,0,0,0-.8,2.1Z"/><path class="cls-6" d="M290.56,327.54l.2,1.19a2.83,2.83,0,0,1-1.08.18,1.94,1.94,0,0,1-1.21-.37,1.62,1.62,0,0,1-.61-1.12,3.68,3.68,0,0,1-3.22,1.56,3.41,3.41,0,0,1-2.32-.75,2.63,2.63,0,0,1-.87-2.09,2.83,2.83,0,0,1,.22-1.12,2.1,2.1,0,0,1,.53-.76,3,3,0,0,1,.78-.49,5,5,0,0,1,.85-.29l.86-.15.61-.07.62-.08.53-.1a2.1,2.1,0,0,0,.5-.16,1.68,1.68,0,0,0,.36-.21.71.71,0,0,0,.27-.33,1,1,0,0,0,.08-.44,1.09,1.09,0,0,0-.63-1,3.15,3.15,0,0,0-1.49-.32,4.75,4.75,0,0,0-2.92,1l-.72-1.19a6.52,6.52,0,0,1,3.75-1.19,4.15,4.15,0,0,1,2.64.76,2.73,2.73,0,0,1,1,2.3v4.43c0,.67.24,1,.73,1A.91.91,0,0,0,290.56,327.54Zm-2.86-2.37v-1.62a2,2,0,0,1-.39.38,1.57,1.57,0,0,1-.52.25l-.5.13c-.13,0-.34.07-.64.11l-.65.1a4,4,0,0,0-1.46.47,1.23,1.23,0,0,0-.48,1.11,1.37,1.37,0,0,0,.54,1.19,2.32,2.32,0,0,0,1.4.4,3,3,0,0,0,1.92-.63A2.29,2.29,0,0,0,287.7,325.17Z"/><path class="cls-6" d="M297.15,327.16l.67,1.19a3.22,3.22,0,0,1-2,.63,2.65,2.65,0,0,1-2.45-1.19,3.47,3.47,0,0,1-.39-1.85V320.7h-1.62v-1.29h1.62v-2.63h1.56v2.63h3v1.29h-3v5.24q0,1.62,1.44,1.62A1.88,1.88,0,0,0,297.15,327.16Z"/><path class="cls-6" d="M314.23,316.78v7.49a4.45,4.45,0,0,1-1.38,3.42,5.52,5.52,0,0,1-7.09,0,4.5,4.5,0,0,1-1.36-3.42v-7.49h1.68v7.49a3.09,3.09,0,0,0,.86,2.29,3.21,3.21,0,0,0,2.36.86,3.28,3.28,0,0,0,2.38-.86,3.07,3.07,0,0,0,.88-2.29v-7.49Z"/><path class="cls-6" d="M324.17,326a2.62,2.62,0,0,1-1,2.17,4.35,4.35,0,0,1-2.81.82,4.59,4.59,0,0,1-4.14-2l1.16-.86a3.56,3.56,0,0,0,3.07,1.51,2.88,2.88,0,0,0,1.59-.39,1.25,1.25,0,0,0,.59-1.12.93.93,0,0,0-.54-.92,9.85,9.85,0,0,0-2-.54,6.88,6.88,0,0,1-2.49-.88,2.06,2.06,0,0,1-.86-1.84,2.33,2.33,0,0,1,1-2.05,4.25,4.25,0,0,1,2.49-.7,5,5,0,0,1,3.8,1.57l-1.05,1a3.46,3.46,0,0,0-2.77-1.21,3,3,0,0,0-1.4.31,1,1,0,0,0-.58.95.93.93,0,0,0,.14.49,1.49,1.49,0,0,0,.3.35,1.88,1.88,0,0,0,.53.25c.24.08.45.13.62.17l.73.14,1.12.24a7.78,7.78,0,0,1,1,.32,3,3,0,0,1,.84.49,2.21,2.21,0,0,1,.51.72A2.25,2.25,0,0,1,324.17,326Z"/><path class="cls-6" d="M334.79,323.85a3.52,3.52,0,0,1,0,.61h-7.34a3.21,3.21,0,0,0,.92,2.26,3,3,0,0,0,2.23.82,3.66,3.66,0,0,0,2.77-1.22l1,1a5,5,0,0,1-3.85,1.64,4.57,4.57,0,0,1-3.51-1.36,4.9,4.9,0,0,1-1.28-3.5,5.15,5.15,0,0,1,1.25-3.53,4.28,4.28,0,0,1,3.34-1.4,4.16,4.16,0,0,1,3.24,1.33A4.73,4.73,0,0,1,334.79,323.85Zm-7.35-.59h5.73a3,3,0,0,0-.92-2,2.83,2.83,0,0,0-1.94-.71,2.71,2.71,0,0,0-2,.76A2.87,2.87,0,0,0,327.44,323.26Z"/><path class="cls-6" d="M342.46,319.57l-.51,1.49a2.3,2.3,0,0,0-1.08-.29,2.15,2.15,0,0,0-1.7.84,3.44,3.44,0,0,0-.71,2.28v4.88h-1.57v-9.36h1.57V321a3.17,3.17,0,0,1,2.72-1.76A2.29,2.29,0,0,1,342.46,319.57Z"/><path class="cls-6" d="M351.11,326a2.64,2.64,0,0,1-1,2.17,4.37,4.37,0,0,1-2.81.82,4.58,4.58,0,0,1-4.14-2l1.15-.86a3.58,3.58,0,0,0,3.08,1.51,2.82,2.82,0,0,0,1.58-.39,1.24,1.24,0,0,0,.6-1.12.93.93,0,0,0-.54-.92,9.8,9.8,0,0,0-2-.54,6.75,6.75,0,0,1-2.48-.88,2,2,0,0,1-.86-1.84,2.32,2.32,0,0,1,1-2.05,4.27,4.27,0,0,1,2.49-.7,5,5,0,0,1,3.8,1.57l-1,1a3.47,3.47,0,0,0-2.77-1.21,3,3,0,0,0-1.41.31,1,1,0,0,0-.57.95.92.92,0,0,0,.13.49,1.32,1.32,0,0,0,.31.35,1.75,1.75,0,0,0,.53.25c.24.08.45.13.62.17l.73.14,1.12.24a8.36,8.36,0,0,1,1,.32,2.75,2.75,0,0,1,.83.49,2.3,2.3,0,0,1,.73,1.74Z"/><path class="cls-6" d="M262.26,341.17l-.51,1.49a2.3,2.3,0,0,0-1.08-.29,2.17,2.17,0,0,0-1.7.84,3.44,3.44,0,0,0-.71,2.28v4.88H256.7V341h1.56v1.58a3.17,3.17,0,0,1,2.72-1.76A2.29,2.29,0,0,1,262.26,341.17Z"/><path class="cls-6" d="M272.05,345.45a3.52,3.52,0,0,1,0,.61h-7.34a3.21,3.21,0,0,0,.92,2.26,3.05,3.05,0,0,0,2.23.82,3.64,3.64,0,0,0,2.77-1.22l1.05,1a5,5,0,0,1-3.86,1.64,4.59,4.59,0,0,1-3.51-1.36,4.89,4.89,0,0,1-1.27-3.5,5.1,5.1,0,0,1,1.25-3.53,4.25,4.25,0,0,1,3.34-1.4,4.19,4.19,0,0,1,3.24,1.33A4.76,4.76,0,0,1,272.05,345.45Zm-7.34-.59h5.72a2.93,2.93,0,0,0-.92-2,2.81,2.81,0,0,0-1.94-.71,2.71,2.71,0,0,0-2,.76A2.91,2.91,0,0,0,264.71,344.86Z"/><path class="cls-6" d="M282.54,349.14l.2,1.19a2.83,2.83,0,0,1-1.08.18,1.94,1.94,0,0,1-1.21-.37,1.64,1.64,0,0,1-.61-1.12,3.68,3.68,0,0,1-3.22,1.56,3.42,3.42,0,0,1-2.32-.75,2.62,2.62,0,0,1-.86-2.09,2.83,2.83,0,0,1,.21-1.12,2.23,2.23,0,0,1,.53-.76,2.88,2.88,0,0,1,.79-.49,4.68,4.68,0,0,1,.84-.29l.87-.15.6-.07.62-.08.53-.1a2.38,2.38,0,0,0,.51-.16,1.9,1.9,0,0,0,.35-.21.71.71,0,0,0,.27-.33,1,1,0,0,0,.09-.44,1.09,1.09,0,0,0-.63-1,3.19,3.19,0,0,0-1.5-.32,4.7,4.7,0,0,0-2.91,1l-.72-1.19a6.49,6.49,0,0,1,3.74-1.19,4.18,4.18,0,0,1,2.65.76,2.75,2.75,0,0,1,1,2.3v4.43c0,.67.24,1,.74,1A.88.88,0,0,0,282.54,349.14Zm-2.86-2.37v-1.62a2,2,0,0,1-.39.38,1.57,1.57,0,0,1-.52.25l-.5.13c-.13,0-.34.07-.64.11s-.52.07-.65.1a4,4,0,0,0-1.46.47,1.23,1.23,0,0,0-.48,1.11,1.37,1.37,0,0,0,.54,1.19,2.34,2.34,0,0,0,1.4.4,3,3,0,0,0,1.92-.63A2.29,2.29,0,0,0,279.68,346.77Z"/><path class="cls-6" d="M286,350.37h-1.56V337.51H286Z"/><path class="cls-6" d="M290.46,350.37H288.9V337.51h1.56Z"/><path class="cls-6" d="M301.28,341l-3.74,9.79a6.06,6.06,0,0,1-1.28,2.19,2.66,2.66,0,0,1-1.94.69,3.12,3.12,0,0,1-1.91-.58l.68-1.15a2,2,0,0,0,1.12.36,1.32,1.32,0,0,0,1-.37,3.47,3.47,0,0,0,.68-1.05l.26-.56-4-9.32H294l3,7.27,2.65-7.27Z"/><path class="cls-6" d="M309.38,350.37h-1.57V341h1.57v1.54a3.72,3.72,0,0,1,3.2-1.76,3.13,3.13,0,0,1,2.4.94,3.63,3.63,0,0,1,.88,2.61v6h-1.57V344.7c0-1.62-.69-2.43-2.08-2.43a2.74,2.74,0,0,0-2,.81,2.87,2.87,0,0,0-.8,2.1Z"/><path class="cls-6" d="M327,345.45a5.16,5.16,0,0,1,0,.61h-7.35a3.25,3.25,0,0,0,.92,2.26,3.05,3.05,0,0,0,2.23.82,3.64,3.64,0,0,0,2.77-1.22l1,1a5,5,0,0,1-3.85,1.64,4.57,4.57,0,0,1-3.51-1.36,4.86,4.86,0,0,1-1.28-3.5,5.15,5.15,0,0,1,1.25-3.53,4.27,4.27,0,0,1,3.34-1.4,4.19,4.19,0,0,1,3.24,1.33A4.76,4.76,0,0,1,327,345.45Zm-7.34-.59h5.72a2.93,2.93,0,0,0-.92-2,2.79,2.79,0,0,0-1.94-.71,2.73,2.73,0,0,0-2,.76A2.91,2.91,0,0,0,319.66,344.86Z"/><path class="cls-6" d="M337.55,345.45a3.52,3.52,0,0,1,0,.61h-7.34a3.21,3.21,0,0,0,.92,2.26,3.05,3.05,0,0,0,2.23.82,3.64,3.64,0,0,0,2.77-1.22l1.05,1a5,5,0,0,1-3.86,1.64,4.59,4.59,0,0,1-3.51-1.36,4.89,4.89,0,0,1-1.27-3.5,5.1,5.1,0,0,1,1.25-3.53,4.25,4.25,0,0,1,3.34-1.4,4.19,4.19,0,0,1,3.24,1.33A4.76,4.76,0,0,1,337.55,345.45Zm-7.34-.59h5.72a2.93,2.93,0,0,0-.92-2,2.81,2.81,0,0,0-1.94-.71,2.71,2.71,0,0,0-2,.76A2.91,2.91,0,0,0,330.21,344.86Z"/><path class="cls-6" d="M348.26,350.37h-1.57v-1.53a3.85,3.85,0,0,1-3.33,1.74,3.9,3.9,0,0,1-3.13-1.38,5.85,5.85,0,0,1,0-7,4.12,4.12,0,0,1,6.46.37v-5h1.57Zm-2.37-2.21a4.21,4.21,0,0,0,0-4.94,2.73,2.73,0,0,0-2.24-1,2.62,2.62,0,0,0-2.18,1,4.48,4.48,0,0,0,0,5,2.6,2.6,0,0,0,2.18,1A2.74,2.74,0,0,0,345.89,348.16Z"/><g class="cls-1"><circle class="cls-2" cx="241.62" cy="179.92" r="117.26"/><circle class="cls-7" cx="241.62" cy="179.92" r="117.26"/></g><circle class="cls-4" cx="130.26" cy="179.91" r="117.26"/><path d="M164.62,15.63V28.94A7.93,7.93,0,0,1,162.17,35a8.86,8.86,0,0,1-6.32,2.29A8.76,8.76,0,0,1,149.56,35a8,8,0,0,1-2.41-6.09V15.63h3V28.94A5.5,5.5,0,0,0,151.66,33a5.7,5.7,0,0,0,4.19,1.52A5.85,5.85,0,0,0,160.08,33a5.44,5.44,0,0,0,1.56-4.08V15.63Z"/><path d="M182.28,32a4.68,4.68,0,0,1-1.82,3.86,7.8,7.8,0,0,1-5,1.45q-5,0-7.36-3.55l2-1.54a6.35,6.35,0,0,0,5.47,2.69,5.06,5.06,0,0,0,2.81-.69,2.22,2.22,0,0,0,1.06-2,1.64,1.64,0,0,0-1-1.63,17.77,17.77,0,0,0-3.62-1,11.87,11.87,0,0,1-4.41-1.57A3.62,3.62,0,0,1,169,24.81a4.17,4.17,0,0,1,1.81-3.65,7.63,7.63,0,0,1,4.43-1.25A8.91,8.91,0,0,1,182,22.7l-1.85,1.76a6.2,6.2,0,0,0-4.93-2.15,5.22,5.22,0,0,0-2.5.56,1.82,1.82,0,0,0-1,1.68,1.63,1.63,0,0,0,.24.87,2.54,2.54,0,0,0,.54.62,3.24,3.24,0,0,0,.95.45,8.93,8.93,0,0,0,1.1.3l1.3.26q1.22.22,2,.42a13.31,13.31,0,0,1,1.73.57,5,5,0,0,1,1.49.87,4.19,4.19,0,0,1,1.29,3.1Z"/><path d="M201.16,28.2a8.38,8.38,0,0,1-.06,1.09H188a5.75,5.75,0,0,0,1.64,4,5.44,5.44,0,0,0,4,1.45,6.46,6.46,0,0,0,4.93-2.17l1.86,1.82a9,9,0,0,1-6.85,2.91,8.14,8.14,0,0,1-6.24-2.41,8.75,8.75,0,0,1-2.27-6.23,9.09,9.09,0,0,1,2.22-6.27,7.57,7.57,0,0,1,5.94-2.5A7.44,7.44,0,0,1,199,22.28,8.41,8.41,0,0,1,201.16,28.2Zm-13-1.05h10.17a5.26,5.26,0,0,0-1.63-3.57,5,5,0,0,0-3.45-1.27,4.88,4.88,0,0,0-3.54,1.35A5.15,5.15,0,0,0,188.11,27.15Z"/><path d="M214.8,20.59l-.9,2.65a4.06,4.06,0,0,0-1.92-.51,3.85,3.85,0,0,0-3,1.49,6,6,0,0,0-1.27,4.05v8.67h-2.78V20.3h2.78v2.81q2-3.13,4.83-3.13A4,4,0,0,1,214.8,20.59Z"/><path d="M230.19,32a4.69,4.69,0,0,1-1.83,3.86,7.78,7.78,0,0,1-5,1.45q-5,0-7.36-3.55l2.05-1.54a6.35,6.35,0,0,0,5.47,2.69,5.12,5.12,0,0,0,2.82-.69,2.23,2.23,0,0,0,1.05-2,1.64,1.64,0,0,0-1-1.63,17.62,17.62,0,0,0-3.61-1,12,12,0,0,1-4.42-1.57,3.64,3.64,0,0,1-1.53-3.26,4.16,4.16,0,0,1,1.8-3.65,7.66,7.66,0,0,1,4.44-1.25,8.91,8.91,0,0,1,6.75,2.79L228,24.46a6.2,6.2,0,0,0-4.93-2.15,5.15,5.15,0,0,0-2.49.56,1.81,1.81,0,0,0-1,1.68,1.63,1.63,0,0,0,.24.87,2.57,2.57,0,0,0,.55.62,3,3,0,0,0,.94.45,9.53,9.53,0,0,0,1.11.3l1.29.26c.81.15,1.47.29,2,.42a13.22,13.22,0,0,1,1.72.57,5,5,0,0,1,1.49.87,4,4,0,0,1,.91,1.28A4.09,4.09,0,0,1,230.19,32Z"/><path d="M563.82,30.83a5.8,5.8,0,0,1-1.82,4.4,7.41,7.41,0,0,1-5.25,1.71h-9.63V15.63H556A8.31,8.31,0,0,1,561.13,17a4.45,4.45,0,0,1,1.79,3.78,4.89,4.89,0,0,1-2.78,4.6,5.62,5.62,0,0,1,3.68,5.48Zm-3.9-9.67c0-1.87-1.33-2.81-4-2.81h-5.82v6.08h6a4.16,4.16,0,0,0,2.8-.88A3,3,0,0,0,559.92,21.16Zm.77,9.51a3.61,3.61,0,0,0-1-2.66,3.94,3.94,0,0,0-2.91-1h-6.65v7.23h6.52a4.33,4.33,0,0,0,3-.94A3.38,3.38,0,0,0,560.69,30.67Z"/><path d="M579.21,20.3H582V36.94h-2.79V34.22a6.7,6.7,0,0,1-5.69,3.1,5.57,5.57,0,0,1-4.26-1.66,6.49,6.49,0,0,1-1.57-4.61V20.3h2.79V30.41c0,2.88,1.22,4.32,3.68,4.32a4.89,4.89,0,0,0,3.61-1.44,5.06,5.06,0,0,0,1.44-3.74Z"/><path d="M599.69,32a4.71,4.71,0,0,1-1.82,3.86,7.8,7.8,0,0,1-5,1.45c-3.35,0-5.81-1.18-7.36-3.55l2-1.54A6.38,6.38,0,0,0,593,34.92a5.06,5.06,0,0,0,2.81-.69,2.22,2.22,0,0,0,1.06-2,1.64,1.64,0,0,0-1-1.63,17.77,17.77,0,0,0-3.62-1,11.87,11.87,0,0,1-4.41-1.57,3.62,3.62,0,0,1-1.54-3.26,4.14,4.14,0,0,1,1.81-3.65,7.61,7.61,0,0,1,4.43-1.25,8.91,8.91,0,0,1,6.75,2.79l-1.85,1.76a6.2,6.2,0,0,0-4.93-2.15,5.19,5.19,0,0,0-2.5.56,1.82,1.82,0,0,0-1,1.68,1.63,1.63,0,0,0,.24.87,2.54,2.54,0,0,0,.54.62,3.12,3.12,0,0,0,.95.45,8.93,8.93,0,0,0,1.1.3l1.3.26q1.21.22,2,.42a13.31,13.31,0,0,1,1.73.57,5.13,5.13,0,0,1,1.49.87,4.12,4.12,0,0,1,.91,1.28A4.23,4.23,0,0,1,599.69,32Z"/><path d="M606.35,17h-2.79V14.09h2.79Zm0,19.91h-2.79V20.3h2.79Z"/><path d="M614.12,36.94h-2.78V20.3h2.78v2.75a6.61,6.61,0,0,1,5.7-3.14,5.59,5.59,0,0,1,4.26,1.67,6.51,6.51,0,0,1,1.56,4.64V36.94h-2.78V26.86q0-4.32-3.71-4.32a4.85,4.85,0,0,0-3.6,1.44,5.1,5.1,0,0,0-1.43,3.74Z"/><path d="M645.45,28.2a8.38,8.38,0,0,1-.06,1.09H632.33a5.79,5.79,0,0,0,1.63,4,5.48,5.48,0,0,0,4,1.45,6.47,6.47,0,0,0,4.93-2.17l1.85,1.82a9,9,0,0,1-6.84,2.91,8.14,8.14,0,0,1-6.24-2.41,8.71,8.71,0,0,1-2.27-6.23,9.09,9.09,0,0,1,2.22-6.27,7.56,7.56,0,0,1,5.93-2.5,7.48,7.48,0,0,1,5.77,2.37A8.41,8.41,0,0,1,645.45,28.2ZM632.4,27.15h10.17a5.26,5.26,0,0,0-1.63-3.57,5,5,0,0,0-3.46-1.27A4.86,4.86,0,0,0,634,23.66,5.15,5.15,0,0,0,632.4,27.15Z"/><path d="M661.9,32a4.71,4.71,0,0,1-1.82,3.86,7.81,7.81,0,0,1-5,1.45q-5,0-7.36-3.55l2-1.54a6.36,6.36,0,0,0,5.47,2.69,5.1,5.1,0,0,0,2.82-.69,2.24,2.24,0,0,0,1.06-2,1.65,1.65,0,0,0-1-1.63,18,18,0,0,0-3.62-1,12,12,0,0,1-4.42-1.57,3.64,3.64,0,0,1-1.53-3.26,4.16,4.16,0,0,1,1.8-3.65,7.66,7.66,0,0,1,4.44-1.25,8.91,8.91,0,0,1,6.75,2.79l-1.86,1.76a6.19,6.19,0,0,0-4.93-2.15,5.15,5.15,0,0,0-2.49.56,1.82,1.82,0,0,0-1,1.68,1.62,1.62,0,0,0,.23.87,2.57,2.57,0,0,0,.55.62,3.17,3.17,0,0,0,.94.45,9.53,9.53,0,0,0,1.11.3l1.29.26c.81.15,1.48.29,2,.42a13.83,13.83,0,0,1,1.73.57,5.07,5.07,0,0,1,1.48.87,3.82,3.82,0,0,1,.91,1.28A4.09,4.09,0,0,1,661.9,32Z"/><path d="M678.47,32a4.68,4.68,0,0,1-1.82,3.86,7.8,7.8,0,0,1-5,1.45q-5,0-7.36-3.55l2.05-1.54a6.35,6.35,0,0,0,5.47,2.69,5.06,5.06,0,0,0,2.81-.69,2.22,2.22,0,0,0,1.06-2,1.64,1.64,0,0,0-1-1.63,17.77,17.77,0,0,0-3.62-1,11.87,11.87,0,0,1-4.41-1.57,3.62,3.62,0,0,1-1.54-3.26A4.17,4.17,0,0,1,667,21.16a7.63,7.63,0,0,1,4.43-1.25,8.91,8.91,0,0,1,6.75,2.79l-1.85,1.76a6.2,6.2,0,0,0-4.93-2.15,5.15,5.15,0,0,0-2.49.56,1.81,1.81,0,0,0-1,1.68,1.63,1.63,0,0,0,.24.87,2.54,2.54,0,0,0,.54.62,3.24,3.24,0,0,0,1,.45,8.93,8.93,0,0,0,1.1.3l1.3.26q1.21.22,2,.42a13.31,13.31,0,0,1,1.73.57,5,5,0,0,1,1.49.87,4.19,4.19,0,0,1,1.29,3.1Z"/><path d="M960.76,36.94h-8.25V15.63h8.25a9.84,9.84,0,0,1,7.59,3,10.9,10.9,0,0,1,2.75,7.68A10.87,10.87,0,0,1,968.35,34,9.81,9.81,0,0,1,960.76,36.94Zm-5.21-2.75h5.21a6.72,6.72,0,0,0,5.33-2.13A8.44,8.44,0,0,0,968,26.28a8.4,8.4,0,0,0-1.87-5.77,6.72,6.72,0,0,0-5.33-2.13h-5.21Z"/><path d="M990.17,28.2a8.38,8.38,0,0,1-.06,1.09H977.05a5.79,5.79,0,0,0,1.63,4,5.48,5.48,0,0,0,4,1.45,6.46,6.46,0,0,0,4.93-2.17l1.86,1.82a9,9,0,0,1-6.85,2.91,8.14,8.14,0,0,1-6.24-2.41,8.71,8.71,0,0,1-2.27-6.23,9.09,9.09,0,0,1,2.22-6.27,7.57,7.57,0,0,1,5.94-2.5A7.46,7.46,0,0,1,988,22.28,8.41,8.41,0,0,1,990.17,28.2Zm-13-1.05h10.17a5.26,5.26,0,0,0-1.63-3.57,5,5,0,0,0-3.46-1.27,4.86,4.86,0,0,0-3.53,1.35A5.15,5.15,0,0,0,977.12,27.15Z"/><path d="M1008.09,20.3l-6.65,16.64h-2.92L991.87,20.3H995l5,13.31,5-13.31Z"/><path d="M1025.88,28.2a8.38,8.38,0,0,1-.06,1.09h-13.06a5.75,5.75,0,0,0,1.64,4,5.44,5.44,0,0,0,4,1.45,6.46,6.46,0,0,0,4.93-2.17l1.86,1.82a9,9,0,0,1-6.85,2.91,8.14,8.14,0,0,1-6.24-2.41,8.71,8.71,0,0,1-2.27-6.23,9.09,9.09,0,0,1,2.22-6.27,7.57,7.57,0,0,1,5.94-2.5,7.44,7.44,0,0,1,5.76,2.37A8.41,8.41,0,0,1,1025.88,28.2Zm-13.05-1.05H1023a5.26,5.26,0,0,0-1.63-3.57,5,5,0,0,0-3.45-1.27,4.88,4.88,0,0,0-3.54,1.35A5.15,5.15,0,0,0,1012.83,27.15Z"/><path d="M1032.51,36.94h-2.79V14.09h2.79Z"/><path d="M1052.89,28.65a8.86,8.86,0,0,1-2.24,6.24,8.52,8.52,0,0,1-11.92,0,8.89,8.89,0,0,1-2.22-6.24,9,9,0,0,1,2.22-6.29,8.47,8.47,0,0,1,11.92,0A9,9,0,0,1,1052.89,28.65Zm-3,0a6.92,6.92,0,0,0-1.4-4.46,4.59,4.59,0,0,0-3.82-1.75,4.66,4.66,0,0,0-3.84,1.75,6.86,6.86,0,0,0-1.41,4.46,6.82,6.82,0,0,0,1.41,4.43,4.66,4.66,0,0,0,3.84,1.75,4.59,4.59,0,0,0,3.82-1.75A6.87,6.87,0,0,0,1049.92,28.65Z"/><path d="M1056.8,20.3h2.78v2.75a6.84,6.84,0,0,1,5.92-3.14,6.94,6.94,0,0,1,5.57,2.47,9.36,9.36,0,0,1,2.08,6.24,9.27,9.27,0,0,1-2.1,6.24,6.94,6.94,0,0,1-5.55,2.46,6.85,6.85,0,0,1-5.92-3.1v8.29h-2.78Zm4.19,3.95a6.77,6.77,0,0,0-1.41,4.4A6.65,6.65,0,0,0,1061,33a4.83,4.83,0,0,0,4,1.73,4.64,4.64,0,0,0,3.87-1.71,7,7,0,0,0,1.34-4.4,7,7,0,0,0-1.34-4.42,4.62,4.62,0,0,0-3.87-1.72A4.82,4.82,0,0,0,1061,24.25Z"/><path d="M1092.06,28.2a8.38,8.38,0,0,1-.06,1.09h-13.06a5.74,5.74,0,0,0,1.63,4,5.47,5.47,0,0,0,4,1.45,6.47,6.47,0,0,0,4.93-2.17l1.85,1.82a9,9,0,0,1-6.84,2.91,8.14,8.14,0,0,1-6.24-2.41,8.71,8.71,0,0,1-2.28-6.23,9,9,0,0,1,2.23-6.27,7.56,7.56,0,0,1,5.93-2.5,7.44,7.44,0,0,1,5.76,2.37A8.42,8.42,0,0,1,1092.06,28.2ZM1079,27.15h10.18a5.26,5.26,0,0,0-1.63-3.57,5,5,0,0,0-3.46-1.27,4.84,4.84,0,0,0-3.53,1.35A5.2,5.2,0,0,0,1079,27.15Z"/><path d="M1105.69,20.59l-.9,2.65a4,4,0,0,0-1.91-.51,3.85,3.85,0,0,0-3,1.49,6.06,6.06,0,0,0-1.26,4.05v8.67h-2.79V20.3h2.79v2.81q2-3.13,4.83-3.13A4,4,0,0,1,1105.69,20.59Z"/><path d="M1121.08,32a4.71,4.71,0,0,1-1.82,3.86,7.8,7.8,0,0,1-5,1.45c-3.35,0-5.81-1.18-7.36-3.55l2-1.54a6.35,6.35,0,0,0,5.47,2.69,5.06,5.06,0,0,0,2.81-.69,2.22,2.22,0,0,0,1.06-2,1.64,1.64,0,0,0-1-1.63,17.77,17.77,0,0,0-3.62-1,11.87,11.87,0,0,1-4.41-1.57,3.62,3.62,0,0,1-1.54-3.26,4.14,4.14,0,0,1,1.81-3.65,7.61,7.61,0,0,1,4.43-1.25,8.91,8.91,0,0,1,6.75,2.79l-1.85,1.76a6.2,6.2,0,0,0-4.93-2.15,5.22,5.22,0,0,0-2.5.56,1.82,1.82,0,0,0-1,1.68,1.63,1.63,0,0,0,.24.87,2.54,2.54,0,0,0,.54.62,3.24,3.24,0,0,0,1,.45,8.93,8.93,0,0,0,1.1.3l1.3.26q1.22.22,2,.42a13.31,13.31,0,0,1,1.73.57,5.13,5.13,0,0,1,1.49.87,4.19,4.19,0,0,1,1.29,3.1Z"/><g class="cls-1"><circle class="cls-7" cx="241.62" cy="179.92" r="117.26"/></g><circle class="cls-4" cx="523.2" cy="149.65" r="89.65"/></svg>