<svg xmlns="http://www.w3.org/2000/svg" viewBox="0 0 1200 493"><defs><style>.cls-1{fill:#b3b3b3;}.cls-2{fill:#ccc;}.cls-3{fill:#ff5252;}.cls-4{fill:#e6e6e6;}.cls-5{fill:none;stroke:#808285;stroke-linecap:round;stroke-miterlimit:10;stroke-width:2px;}</style></defs><title>Artboard 1 copy 2WHITE</title><g id="Diagrams"><rect class="cls-1" x="31.06" y="47" width="75.18" height="392"/><rect class="cls-2" x="106.24" y="59.89" width="75.18" height="379.11"/><rect class="cls-3" x="181.42" y="151.18" width="75.18" height="287.82"/><rect class="cls-4" x="256.6" y="272.53" width="75.18" height="166.47"/><rect class="cls-1" x="447.76" y="215.61" width="75.18" height="223.39"/><rect class="cls-2" x="522.94" y="208.1" width="75.18" height="230.9"/><rect class="cls-3" x="598.12" y="219.91" width="75.18" height="219.09"/><rect class="cls-4" x="673.3" y="301.53" width="75.18" height="137.47"/><rect class="cls-1" x="861.24" y="76" width="75.18" height="363"/><rect class="cls-2" x="936.42" y="120.03" width="75.18" height="318.97"/><rect class="cls-3" x="1011.6" y="189.84" width="75.18" height="249.16"/><rect class="cls-4" x="1086.78" y="323.01" width="75.18" height="115.99"/><line class="cls-5" x1="25.45" y1="438.61" x2="337.14" y2="438.61"/><line class="cls-5" x1="442.15" y1="438.61" x2="753.85" y2="438.61"/><line class="cls-5" x1="855.63" y1="438.61" x2="1167.32" y2="438.61"/><path d="M87.08,460.29a9.28,9.28,0,0,1,0,11.88,8,8,0,0,1-11.34,0,9.31,9.31,0,0,1,0-11.88,8,8,0,0,1,11.34,0Zm-1.71,10.42a7.49,7.49,0,0,0,0-8.94,5.5,5.5,0,0,0-8,0,7.53,7.53,0,0,0,0,8.94,5.45,5.45,0,0,0,8,0Z"/><path d="M108.59,461.75l-3.45,12.48h-2.28l-3-9.8-3.07,9.8H94.48L91,461.75h2.23l2.52,10,3.12-10h1.92l3.09,10,2.55-10Z"/><path d="M113.23,474.23h-2.09V461.75h2.09v2.06a4.93,4.93,0,0,1,4.27-2.35,4.14,4.14,0,0,1,3.19,1.25,4.89,4.89,0,0,1,1.18,3.48v8h-2.09v-7.56q0-3.24-2.79-3.24a3.66,3.66,0,0,0-2.7,1.08,3.81,3.81,0,0,0-1.06,2.8Z"/><path d="M143.13,472.59l.26,1.59a3.73,3.73,0,0,1-1.44.24,2.69,2.69,0,0,1-1.62-.49,2.17,2.17,0,0,1-.8-1.5,4.92,4.92,0,0,1-4.3,2.08,4.54,4.54,0,0,1-3.09-1,3.51,3.51,0,0,1-1.15-2.79,3.7,3.7,0,0,1,.28-1.49,2.94,2.94,0,0,1,.71-1,4.07,4.07,0,0,1,1.05-.64,5.38,5.38,0,0,1,1.12-.39c.34-.07.72-.14,1.15-.2l.81-.1.83-.11a6.1,6.1,0,0,0,.7-.13,3.16,3.16,0,0,0,.68-.2,3.23,3.23,0,0,0,.48-.29,1.06,1.06,0,0,0,.36-.43,1.55,1.55,0,0,0,.11-.59,1.46,1.46,0,0,0-.84-1.39,4.31,4.31,0,0,0-2-.43,6.33,6.33,0,0,0-3.89,1.32l-.95-1.59a8.66,8.66,0,0,1,5-1.58,5.57,5.57,0,0,1,3.53,1,3.65,3.65,0,0,1,1.29,3.07v5.9c0,.9.33,1.35,1,1.35A1.24,1.24,0,0,0,143.13,472.59Zm-3.82-3.16v-2.16a2.73,2.73,0,0,1-.51.51,2.17,2.17,0,0,1-.7.33l-.67.18c-.17,0-.45.08-.85.14l-.87.13a5.34,5.34,0,0,0-1.94.64,1.62,1.62,0,0,0-.65,1.47,1.84,1.84,0,0,0,.72,1.59,3.11,3.11,0,0,0,1.87.53,4,4,0,0,0,2.56-.84A3.06,3.06,0,0,0,139.31,469.43Z"/><path d="M161.56,470.53a3.52,3.52,0,0,1-1.37,2.89,5.82,5.82,0,0,1-3.74,1.09,6.12,6.12,0,0,1-5.52-2.66l1.53-1.15a4.8,4.8,0,0,0,4.11,2,3.85,3.85,0,0,0,2.11-.51,1.69,1.69,0,0,0,.79-1.5,1.25,1.25,0,0,0-.72-1.23,13.91,13.91,0,0,0-2.71-.72,9.1,9.1,0,0,1-3.31-1.17,2.72,2.72,0,0,1-1.15-2.45,3.13,3.13,0,0,1,1.35-2.74,5.75,5.75,0,0,1,3.33-.93,6.68,6.68,0,0,1,5.06,2.09l-1.39,1.32a4.63,4.63,0,0,0-3.7-1.61,3.86,3.86,0,0,0-1.87.42,1.36,1.36,0,0,0-.77,1.26,1.22,1.22,0,0,0,.18.65,1.85,1.85,0,0,0,.41.46,2.23,2.23,0,0,0,.71.34c.32.1.59.18.83.23l1,.19c.61.11,1.1.22,1.49.31a11.42,11.42,0,0,1,1.29.43,4,4,0,0,1,1.12.65,3.1,3.1,0,0,1,.68,1A3.17,3.17,0,0,1,161.56,470.53Z"/><path d="M166.55,474.23h-2.09V461.75h2.09v2a4.72,4.72,0,0,1,4.06-2.3,3.59,3.59,0,0,1,3.74,2.52,5.08,5.08,0,0,1,4.42-2.52,4,4,0,0,1,3.11,1.22,4.89,4.89,0,0,1,1.11,3.41v8.14H180.9v-7.64c0-2.11-.87-3.16-2.61-3.16a3.32,3.32,0,0,0-2.52,1.06,3.87,3.87,0,0,0-1,2.75v7h-2.09v-7.64c0-2.11-.87-3.16-2.61-3.16a3.28,3.28,0,0,0-2.52,1.05,3.89,3.89,0,0,0-1,2.76Z"/><path d="M197.78,472.59l.26,1.59a3.73,3.73,0,0,1-1.44.24,2.69,2.69,0,0,1-1.62-.49,2.14,2.14,0,0,1-.8-1.5,4.92,4.92,0,0,1-4.3,2.08,4.55,4.55,0,0,1-3.1-1,3.55,3.55,0,0,1-1.15-2.79,3.7,3.7,0,0,1,.29-1.49,2.94,2.94,0,0,1,.71-1,4.18,4.18,0,0,1,1-.64,5.44,5.44,0,0,1,1.13-.39c.34-.07.72-.14,1.15-.2l.81-.1.82-.11a5.83,5.83,0,0,0,.71-.13,3,3,0,0,0,.67-.2,2.45,2.45,0,0,0,.48-.29,1,1,0,0,0,.36-.43,1.38,1.38,0,0,0,.11-.59,1.46,1.46,0,0,0-.84-1.39,4.26,4.26,0,0,0-2-.43,6.33,6.33,0,0,0-3.89,1.32l-1-1.59a8.68,8.68,0,0,1,5-1.58,5.55,5.55,0,0,1,3.53,1,3.62,3.62,0,0,1,1.3,3.07v5.9c0,.9.33,1.35,1,1.35A1.26,1.26,0,0,0,197.78,472.59ZM194,469.43v-2.16a2.5,2.5,0,0,1-.52.51,2,2,0,0,1-.69.33l-.67.18c-.17,0-.46.08-.86.14l-.86.13a5.34,5.34,0,0,0-1.94.64,1.6,1.6,0,0,0-.65,1.47,1.84,1.84,0,0,0,.72,1.59,3.09,3.09,0,0,0,1.87.53,4,4,0,0,0,2.56-.84A3.06,3.06,0,0,0,194,469.43Z"/><path d="M207.62,462l-.68,2a3.1,3.1,0,0,0-1.44-.38,2.85,2.85,0,0,0-2.26,1.12,4.47,4.47,0,0,0-1,3v6.51H200.2V461.75h2.09v2.11a4.22,4.22,0,0,1,3.62-2.35A3.11,3.11,0,0,1,207.62,462Z"/><path d="M216,472.09l.89,1.58a4.29,4.29,0,0,1-2.71.84,3.55,3.55,0,0,1-3.27-1.58,4.64,4.64,0,0,1-.52-2.47v-7h-2.17v-1.72h2.17v-3.51h2.08v3.51h4v1.72h-4v7q0,2.16,1.92,2.16A2.53,2.53,0,0,0,216,472.09Z"/><path d="M219.09,461.75h2.08v2.06a5.5,5.5,0,0,1,8.62-.5,7.78,7.78,0,0,1,0,9.36,5.52,5.52,0,0,1-8.61-.48v6.21h-2.08Zm3.14,3a5.1,5.1,0,0,0-1.06,3.3,5,5,0,0,0,1.07,3.29,3.65,3.65,0,0,0,3,1.29,3.45,3.45,0,0,0,2.9-1.28,5.91,5.91,0,0,0,0-6.61,3.44,3.44,0,0,0-2.9-1.3A3.62,3.62,0,0,0,222.23,464.71Z"/><path d="M236.37,474.23h-2.09V457.09h2.09v6.72a4.93,4.93,0,0,1,4.27-2.35,4.14,4.14,0,0,1,3.19,1.25,4.89,4.89,0,0,1,1.18,3.48v8h-2.09v-7.56q0-3.24-2.79-3.24a3.66,3.66,0,0,0-2.7,1.08,3.81,3.81,0,0,0-1.06,2.8Z"/><path d="M260.08,468a6.65,6.65,0,0,1-1.68,4.68,6.4,6.4,0,0,1-8.94,0,6.69,6.69,0,0,1-1.67-4.68,6.77,6.77,0,0,1,1.67-4.72,6.37,6.37,0,0,1,8.94,0A6.73,6.73,0,0,1,260.08,468Zm-2.23,0a5.18,5.18,0,0,0-1.05-3.35,3.47,3.47,0,0,0-2.87-1.31,3.53,3.53,0,0,0-2.88,1.31,5.82,5.82,0,0,0,0,6.67,3.5,3.5,0,0,0,2.88,1.31,3.44,3.44,0,0,0,2.87-1.31A5.13,5.13,0,0,0,257.85,468Z"/><path d="M265.09,474.23H263V461.75h2.08v2.06a5,5,0,0,1,4.28-2.35,4.16,4.16,0,0,1,3.19,1.25,4.88,4.88,0,0,1,1.17,3.48v8h-2.08v-7.56q0-3.24-2.79-3.24a3.63,3.63,0,0,0-2.7,1.08,3.82,3.82,0,0,0-1.07,2.8Z"/><path d="M288.59,467.67a6.2,6.2,0,0,1,0,.82h-9.79a4.3,4.3,0,0,0,1.22,3,4.11,4.11,0,0,0,3,1.09,4.84,4.84,0,0,0,3.7-1.63l1.39,1.37a6.71,6.71,0,0,1-5.14,2.18,6.12,6.12,0,0,1-4.68-1.81,6.56,6.56,0,0,1-1.7-4.67,6.78,6.78,0,0,1,1.67-4.7,6.19,6.19,0,0,1,8.77-.1A6.32,6.32,0,0,1,288.59,467.67Zm-9.79-.79h7.63a4,4,0,0,0-1.22-2.67,3.72,3.72,0,0,0-2.6-.95,3.64,3.64,0,0,0-2.65,1A3.91,3.91,0,0,0,278.8,466.88Z"/><path d="M480.79,460.29a9.31,9.31,0,0,1,0,11.88,8,8,0,0,1-11.34,0,9.31,9.31,0,0,1,0-11.88,8,8,0,0,1,11.34,0Zm-1.71,10.42a7.49,7.49,0,0,0,0-8.94,5.5,5.5,0,0,0-7.95,0,7.53,7.53,0,0,0,0,8.94,5.45,5.45,0,0,0,7.95,0Z"/><path d="M502.3,461.75l-3.45,12.48h-2.28l-3-9.8-3.07,9.8h-2.28l-3.46-12.48H487l2.53,10,3.12-10h1.92l3.09,10,2.55-10Z"/><path d="M506.93,474.23h-2.08V461.75h2.08v2.06a5,5,0,0,1,4.28-2.35,4.16,4.16,0,0,1,3.19,1.25,4.88,4.88,0,0,1,1.17,3.48v8h-2.08v-7.56q0-3.24-2.79-3.24a3.63,3.63,0,0,0-2.7,1.08,3.82,3.82,0,0,0-1.07,2.8Z"/><path d="M536.84,472.59l.26,1.59a3.73,3.73,0,0,1-1.44.24,2.69,2.69,0,0,1-1.62-.49,2.14,2.14,0,0,1-.8-1.5,4.92,4.92,0,0,1-4.3,2.08,4.5,4.5,0,0,1-3.09-1,3.52,3.52,0,0,1-1.16-2.79,3.7,3.7,0,0,1,.29-1.49,2.94,2.94,0,0,1,.71-1,4.18,4.18,0,0,1,1-.64,5.65,5.65,0,0,1,1.13-.39c.34-.07.72-.14,1.15-.2l.81-.1.82-.11a5.83,5.83,0,0,0,.71-.13,3.35,3.35,0,0,0,.68-.2,3.23,3.23,0,0,0,.48-.29,1.14,1.14,0,0,0,.36-.43,1.55,1.55,0,0,0,.1-.59,1.46,1.46,0,0,0-.84-1.39,4.26,4.26,0,0,0-2-.43,6.33,6.33,0,0,0-3.89,1.32l-1-1.59a8.69,8.69,0,0,1,5-1.58,5.54,5.54,0,0,1,3.52,1,3.62,3.62,0,0,1,1.3,3.07v5.9c0,.9.33,1.35,1,1.35A1.26,1.26,0,0,0,536.84,472.59ZM533,469.43v-2.16a2.73,2.73,0,0,1-.51.51,2.17,2.17,0,0,1-.7.33l-.67.18c-.17,0-.45.08-.85.14l-.87.13a5.34,5.34,0,0,0-1.94.64,1.6,1.6,0,0,0-.65,1.47,1.84,1.84,0,0,0,.72,1.59,3.09,3.09,0,0,0,1.87.53A4,4,0,0,0,532,472,3.06,3.06,0,0,0,533,469.43Z"/><path d="M552.1,472.09l.89,1.58a4.29,4.29,0,0,1-2.71.84,3.55,3.55,0,0,1-3.27-1.58,4.63,4.63,0,0,1-.53-2.47v-7h-2.16v-1.72h2.16v-3.51h2.09v3.51h4v1.72h-4v7q0,2.16,1.92,2.16A2.53,2.53,0,0,0,552.1,472.09Z"/><path d="M566.38,472.59l.26,1.59a3.73,3.73,0,0,1-1.44.24,2.69,2.69,0,0,1-1.62-.49,2.17,2.17,0,0,1-.8-1.5,4.92,4.92,0,0,1-4.3,2.08,4.54,4.54,0,0,1-3.09-1,3.51,3.51,0,0,1-1.15-2.79,3.7,3.7,0,0,1,.28-1.49,3.08,3.08,0,0,1,.71-1,4.07,4.07,0,0,1,1-.64,5.38,5.38,0,0,1,1.12-.39c.34-.07.72-.14,1.16-.2l.8-.1.83-.11a6.61,6.61,0,0,0,.71-.13,2.49,2.49,0,0,0,1.15-.49,1,1,0,0,0,.36-.43,1.55,1.55,0,0,0,.11-.59,1.46,1.46,0,0,0-.84-1.39,4.31,4.31,0,0,0-2-.43,6.28,6.28,0,0,0-3.88,1.32l-1-1.59a8.66,8.66,0,0,1,5-1.58,5.57,5.57,0,0,1,3.53,1,3.65,3.65,0,0,1,1.29,3.07v5.9q0,1.35,1,1.35A1.23,1.23,0,0,0,566.38,472.59Zm-3.82-3.16v-2.16a2.73,2.73,0,0,1-.51.51,2.17,2.17,0,0,1-.7.33l-.67.18c-.17,0-.45.08-.85.14l-.87.13a5.34,5.34,0,0,0-1.94.64,1.62,1.62,0,0,0-.65,1.47,1.84,1.84,0,0,0,.72,1.59,3.11,3.11,0,0,0,1.87.53,4,4,0,0,0,2.56-.84A3,3,0,0,0,562.56,469.43Z"/><path d="M568.8,457.09h2.09v6.72a5.5,5.5,0,0,1,8.62-.5,7.78,7.78,0,0,1,0,9.36,5.21,5.21,0,0,1-4.17,1.84,5.15,5.15,0,0,1-4.44-2.32v2H568.8Zm3.15,7.62a5.63,5.63,0,0,0,0,6.59,3.63,3.63,0,0,0,3,1.29,3.46,3.46,0,0,0,2.91-1.28,5.91,5.91,0,0,0,0-6.61,3.45,3.45,0,0,0-2.91-1.3A3.6,3.6,0,0,0,572,464.71Z"/><path d="M586.16,474.23h-2.09V457.09h2.09Z"/><path d="M601.23,467.67a6.2,6.2,0,0,1-.05.82h-9.79a4.3,4.3,0,0,0,1.22,3,4.1,4.1,0,0,0,3,1.09,4.82,4.82,0,0,0,3.69-1.63l1.4,1.37a6.73,6.73,0,0,1-5.14,2.18,6.12,6.12,0,0,1-4.68-1.81,6.52,6.52,0,0,1-1.7-4.67,6.82,6.82,0,0,1,1.66-4.7,5.68,5.68,0,0,1,4.46-1.87,5.6,5.6,0,0,1,4.32,1.77A6.37,6.37,0,0,1,601.23,467.67Zm-9.79-.79h7.63a3.91,3.91,0,0,0-1.23-2.67,3.68,3.68,0,0,0-2.59-.95,3.62,3.62,0,0,0-2.65,1A3.86,3.86,0,0,0,591.44,466.88Z"/><path d="M610.4,472.09l.88,1.58a4.27,4.27,0,0,1-2.71.84,3.52,3.52,0,0,1-3.26-1.58,4.63,4.63,0,0,1-.53-2.47v-7h-2.16v-1.72h2.16v-3.51h2.09v3.51h4v1.72h-4v7q0,2.16,1.92,2.16A2.55,2.55,0,0,0,610.4,472.09Z"/><path d="M628.64,470.75l1.6,1.15a5.8,5.8,0,0,1-5,2.61,5.62,5.62,0,0,1-4.39-1.84,7.46,7.46,0,0,1,0-9.36,5.6,5.6,0,0,1,4.39-1.85,5.71,5.71,0,0,1,5,2.59l-1.56,1.25a3.73,3.73,0,0,0-3.33-1.95,3.49,3.49,0,0,0-2.85,1.31,5.7,5.7,0,0,0,0,6.65,3.46,3.46,0,0,0,2.82,1.31A3.9,3.9,0,0,0,628.64,470.75Z"/><path d="M644.16,468a6.65,6.65,0,0,1-1.68,4.68,6.4,6.4,0,0,1-8.94,0,6.68,6.68,0,0,1-1.66-4.68,6.77,6.77,0,0,1,1.66-4.72,6.37,6.37,0,0,1,8.94,0A6.73,6.73,0,0,1,644.16,468Zm-2.23,0a5.24,5.24,0,0,0-1-3.35,3.81,3.81,0,0,0-5.75,0,5.78,5.78,0,0,0,0,6.67,3.81,3.81,0,0,0,5.75,0A5.19,5.19,0,0,0,641.93,468Z"/><path d="M649.18,474.23h-2.09V461.75h2.09v2a4.72,4.72,0,0,1,4.06-2.3A3.59,3.59,0,0,1,657,464a5,5,0,0,1,4.41-2.52,4,4,0,0,1,3.11,1.22,4.85,4.85,0,0,1,1.12,3.41v8.14h-2.09v-7.64c0-2.11-.87-3.16-2.61-3.16a3.35,3.35,0,0,0-2.53,1.06,3.86,3.86,0,0,0-1,2.75v7H655.3v-7.64c0-2.11-.87-3.16-2.62-3.16a3.31,3.31,0,0,0-2.52,1.05,3.93,3.93,0,0,0-1,2.76Z"/><path d="M669.22,461.75h2.09v2.06a5.49,5.49,0,0,1,8.61-.5,7.78,7.78,0,0,1,0,9.36,5.2,5.2,0,0,1-4.16,1.84,5.13,5.13,0,0,1-4.44-2.32v6.21h-2.09Zm3.14,3a5.1,5.1,0,0,0-1.05,3.3,5,5,0,0,0,1.07,3.29,3.63,3.63,0,0,0,3,1.29,3.45,3.45,0,0,0,2.9-1.28,5.91,5.91,0,0,0,0-6.61,3.44,3.44,0,0,0-2.9-1.3A3.63,3.63,0,0,0,672.36,464.71Z"/><path d="M692.91,461.75H695v12.48h-2.09v-2a5,5,0,0,1-4.28,2.32,4.19,4.19,0,0,1-3.19-1.24,4.88,4.88,0,0,1-1.17-3.46v-8.06h2.09v7.58q0,3.24,2.76,3.24a3.69,3.69,0,0,0,2.71-1.08,3.81,3.81,0,0,0,1.08-2.81Z"/><path d="M705.1,472.09l.89,1.58a4.29,4.29,0,0,1-2.71.84,3.54,3.54,0,0,1-3.27-1.58,4.63,4.63,0,0,1-.53-2.47v-7h-2.16v-1.72h2.16v-3.51h2.09v3.51h4v1.72h-4v7q0,2.16,1.92,2.16A2.53,2.53,0,0,0,705.1,472.09Z"/><path d="M719.45,467.67a6.2,6.2,0,0,1-.05.82h-9.79a4.3,4.3,0,0,0,1.22,3,4.11,4.11,0,0,0,3,1.09,4.84,4.84,0,0,0,3.7-1.63l1.39,1.37a6.71,6.71,0,0,1-5.14,2.18,6.12,6.12,0,0,1-4.68-1.81,6.56,6.56,0,0,1-1.7-4.67,6.78,6.78,0,0,1,1.67-4.7,6.19,6.19,0,0,1,8.77-.1A6.32,6.32,0,0,1,719.45,467.67Zm-9.79-.79h7.63a4,4,0,0,0-1.22-2.67,3.72,3.72,0,0,0-2.6-.95,3.64,3.64,0,0,0-2.65,1A3.91,3.91,0,0,0,709.66,466.88Z"/><path d="M729.67,462l-.67,2a3.1,3.1,0,0,0-1.44-.38,2.89,2.89,0,0,0-2.27,1.12,4.52,4.52,0,0,0-.94,3v6.51h-2.09V461.75h2.09v2.11a4.22,4.22,0,0,1,3.62-2.35A3.05,3.05,0,0,1,729.67,462Z"/><path d="M482.94,37.23h-2.21V23.57l-5.21,13.66h-1.94l-5.26-13.66V37.23h-2.16v-16h3.36l5.06,13.18,5.07-13.18h3.29Z"/><path d="M489.06,22.3H487V20.09h2.09Zm0,14.93H487V24.75h2.09Z"/><path d="M495,37.23h-2.09V20.09H495Z"/><path d="M500.94,37.23h-2.09V20.09h2.09Z"/><path d="M516,30.67a6.2,6.2,0,0,1,0,.82h-9.79a4.3,4.3,0,0,0,1.22,3,4.08,4.08,0,0,0,3,1.09A4.84,4.84,0,0,0,514.06,34l1.4,1.37a6.74,6.74,0,0,1-5.14,2.18,6.1,6.1,0,0,1-4.68-1.81,6.52,6.52,0,0,1-1.7-4.67,6.82,6.82,0,0,1,1.66-4.7,6.21,6.21,0,0,1,8.78-.1A6.37,6.37,0,0,1,516,30.67Zm-9.8-.79h7.64a4,4,0,0,0-1.23-2.67,3.7,3.7,0,0,0-2.59-.95,3.62,3.62,0,0,0-2.65,1A3.87,3.87,0,0,0,506.21,29.88Z"/><path d="M520.9,37.23h-2.09V24.75h2.09v2.06a4.94,4.94,0,0,1,4.27-2.35,4.17,4.17,0,0,1,3.2,1.25,4.88,4.88,0,0,1,1.17,3.48v8h-2.08V29.67q0-3.24-2.79-3.24a3.63,3.63,0,0,0-2.7,1.08,3.82,3.82,0,0,0-1.07,2.8Z"/><path d="M535.23,37.23h-2.09V24.75h2.09v2.06a4.94,4.94,0,0,1,4.27-2.35,4.13,4.13,0,0,1,3.19,1.25,4.84,4.84,0,0,1,1.18,3.48v8h-2.09V29.67q0-3.24-2.78-3.24a3.63,3.63,0,0,0-2.7,1.08,3.82,3.82,0,0,0-1.07,2.8Z"/><path d="M549.56,22.3h-2.09V20.09h2.09Zm0,14.93h-2.09V24.75h2.09Z"/><path d="M564.49,35.59l.26,1.59a3.73,3.73,0,0,1-1.44.24,2.69,2.69,0,0,1-1.62-.49,2.14,2.14,0,0,1-.8-1.5,4.92,4.92,0,0,1-4.3,2.08,4.55,4.55,0,0,1-3.1-1,3.55,3.55,0,0,1-1.15-2.79,3.7,3.7,0,0,1,.29-1.49,2.94,2.94,0,0,1,.71-1,4.18,4.18,0,0,1,1-.64,5.44,5.44,0,0,1,1.13-.39c.34-.07.72-.14,1.15-.2l.81-.1.82-.11a5.83,5.83,0,0,0,.71-.13,3,3,0,0,0,.67-.2,2.45,2.45,0,0,0,.48-.29,1,1,0,0,0,.36-.43,1.38,1.38,0,0,0,.11-.59,1.46,1.46,0,0,0-.84-1.39,4.26,4.26,0,0,0-2-.43,6.33,6.33,0,0,0-3.89,1.32l-1-1.59a8.68,8.68,0,0,1,5-1.58,5.55,5.55,0,0,1,3.53,1,3.62,3.62,0,0,1,1.3,3.07v5.9c0,.9.33,1.35,1,1.35A1.26,1.26,0,0,0,564.49,35.59Zm-3.82-3.16V30.27a2.5,2.5,0,0,1-.52.51,2,2,0,0,1-.69.33l-.67.18c-.17,0-.46.08-.86.14l-.86.13a5.34,5.34,0,0,0-1.94.64,1.6,1.6,0,0,0-.65,1.47,1.84,1.84,0,0,0,.72,1.59,3.09,3.09,0,0,0,1.87.53,4,4,0,0,0,2.56-.84A3.06,3.06,0,0,0,560.67,32.43Z"/><path d="M569.07,37.23H567V20.09h2.09Z"/><path d="M582.41,33.53a3.51,3.51,0,0,1-1.36,2.89,5.85,5.85,0,0,1-3.75,1.09,6.12,6.12,0,0,1-5.52-2.66l1.54-1.15a4.77,4.77,0,0,0,4.1,2,3.83,3.83,0,0,0,2.11-.51,1.7,1.7,0,0,0,.8-1.5,1.25,1.25,0,0,0-.72-1.23,14.07,14.07,0,0,0-2.72-.72,9.1,9.1,0,0,1-3.31-1.17,2.72,2.72,0,0,1-1.15-2.45,3.12,3.12,0,0,1,1.36-2.74,5.72,5.72,0,0,1,3.32-.93,6.65,6.65,0,0,1,5.06,2.09l-1.39,1.32a4.62,4.62,0,0,0-3.69-1.61,3.9,3.9,0,0,0-1.88.42,1.35,1.35,0,0,0-.76,1.26,1.22,1.22,0,0,0,.18.65,1.82,1.82,0,0,0,.4.46,2.35,2.35,0,0,0,.71.34c.32.1.6.18.83.23l1,.19c.61.11,1.11.22,1.49.31a11.52,11.52,0,0,1,1.3.43,3.78,3.78,0,0,1,1.11.65,3.12,3.12,0,0,1,.69,1A3.17,3.17,0,0,1,582.41,33.53Z"/><path d="M596.38,39.12,595,40.2A14.26,14.26,0,0,1,590.93,30,14.23,14.23,0,0,1,595,19.71l1.34,1.1A12.78,12.78,0,0,0,592.83,30,12.92,12.92,0,0,0,596.38,39.12Z"/><path d="M609.51,37.23H598.32V35.5a64.24,64.24,0,0,0,6.45-5.86A5.84,5.84,0,0,0,606.53,26a2.78,2.78,0,0,0-.86-2.2,3.29,3.29,0,0,0-2.23-.76,4.1,4.1,0,0,0-3.68,2.19L598,24.07A6.4,6.4,0,0,1,603.6,21a5.49,5.49,0,0,1,3.8,1.34,4.53,4.53,0,0,1,1.48,3.56A6.5,6.5,0,0,1,607.24,30a37.14,37.14,0,0,1-5.65,5.17h7.92Z"/><path d="M617.48,29.91h-1.25V28h1.29a3.37,3.37,0,0,0,2.27-.69,2.39,2.39,0,0,0,.81-1.9,2.11,2.11,0,0,0-.81-1.76A3.4,3.4,0,0,0,617.6,23a4.39,4.39,0,0,0-3.82,1.92l-1.68-1.18A6.67,6.67,0,0,1,617.67,21a5.78,5.78,0,0,1,3.75,1.18,3.71,3.71,0,0,1,1.46,3,3.81,3.81,0,0,1-2.4,3.6,4.6,4.6,0,0,1,2.15,1.61,4.07,4.07,0,0,1,.73,2.33,4.44,4.44,0,0,1-1.55,3.46,6.07,6.07,0,0,1-4.17,1.36,6.25,6.25,0,0,1-5.95-3.24l1.95-1.05a4.1,4.1,0,0,0,4,2.28,3.66,3.66,0,0,0,2.5-.79,2.73,2.73,0,0,0,.89-2.14,2.35,2.35,0,0,0-.9-1.94A4.18,4.18,0,0,0,617.48,29.91Z"/><path d="M632.64,31.42h-6.45V29.55h6.45Z"/><path d="M640.83,29.91h-1.25V28h1.3a3.36,3.36,0,0,0,2.26-.69,2.39,2.39,0,0,0,.81-1.9,2.11,2.11,0,0,0-.81-1.76A3.38,3.38,0,0,0,641,23a4.39,4.39,0,0,0-3.82,1.92l-1.68-1.18A6.69,6.69,0,0,1,641,21a5.81,5.81,0,0,1,3.76,1.18,3.73,3.73,0,0,1,1.45,3,3.81,3.81,0,0,1-2.4,3.6A4.6,4.6,0,0,1,646,30.36a4.07,4.07,0,0,1,.73,2.33,4.44,4.44,0,0,1-1.55,3.46A6.06,6.06,0,0,1,641,37.51a6.25,6.25,0,0,1-6-3.24l2-1.05a4.11,4.11,0,0,0,4,2.28,3.65,3.65,0,0,0,2.49-.79,2.73,2.73,0,0,0,.89-2.14,2.35,2.35,0,0,0-.9-1.94A4.17,4.17,0,0,0,640.83,29.91Z"/><path d="M659.28,36.17a7.47,7.47,0,0,1-8.55,0,4.32,4.32,0,0,1-1.6-3.45,4.37,4.37,0,0,1,.73-2.44A4.7,4.7,0,0,1,652,28.56a3.54,3.54,0,0,1-2.28-3.41,3.66,3.66,0,0,1,1.5-3,6.69,6.69,0,0,1,7.56,0,3.66,3.66,0,0,1,1.5,3,3.57,3.57,0,0,1-2.3,3.41,4.67,4.67,0,0,1,2.16,1.69,4.38,4.38,0,0,1,.72,2.46A4.33,4.33,0,0,1,659.28,36.17Zm-4.27-.6a3.86,3.86,0,0,0,2.59-.8,3.06,3.06,0,0,0,0-4.37,4.82,4.82,0,0,0-5.26,0,2.71,2.71,0,0,0-.9,2.17,2.76,2.76,0,0,0,.93,2.2A3.85,3.85,0,0,0,655,35.57Zm-2.18-8.46a4,4,0,0,0,4.37,0,2.41,2.41,0,0,0,0-3.59,3.95,3.95,0,0,0-4.34,0,2.42,2.42,0,0,0,0,3.59Z"/><path d="M662.43,20.81l1.37-1.1A14.43,14.43,0,0,1,667.9,30a14.29,14.29,0,0,1-4.1,10.25l-1.37-1.08A12.84,12.84,0,0,0,666,30,12.75,12.75,0,0,0,662.43,20.81Z"/><path d="M49.28,40.14a30.06,30.06,0,0,0,3.45-3.28,12.5,12.5,0,0,0,2.35-3.47,4.6,4.6,0,0,1-3.55,1.25,5,5,0,0,1-3.67-1.45,5.12,5.12,0,0,1-1.46-3.81,5.23,5.23,0,0,1,1.62-4,6,6,0,0,1,4.26-1.54,5.47,5.47,0,0,1,5.85,5.93,10,10,0,0,1-1.51,5.26,26.26,26.26,0,0,1-4.18,5.09Zm5.6-8.31a3.34,3.34,0,0,0,.95-2.49,3.4,3.4,0,0,0-.95-2.51,3.56,3.56,0,0,0-2.63-.95,3.23,3.23,0,0,0-3.5,3.46,3.39,3.39,0,0,0,.92,2.5,3.49,3.49,0,0,0,2.58.93A3.56,3.56,0,0,0,54.88,31.83Z"/><path d="M66.05,32.82H64.8V30.87h1.3a3.38,3.38,0,0,0,2.27-.69,2.41,2.41,0,0,0,.8-1.9,2.13,2.13,0,0,0-.8-1.76,3.43,3.43,0,0,0-2.2-.64,4.36,4.36,0,0,0-3.81,1.92l-1.68-1.18a6.65,6.65,0,0,1,5.56-2.76A5.81,5.81,0,0,1,70,25a3.7,3.7,0,0,1,1.45,3,3.81,3.81,0,0,1-2.4,3.6,4.55,4.55,0,0,1,2.15,1.61,4,4,0,0,1,.73,2.33,4.41,4.41,0,0,1-1.55,3.46,6.06,6.06,0,0,1-4.16,1.36,6.24,6.24,0,0,1-5.95-3.24l1.94-1a4.12,4.12,0,0,0,4,2.28,3.67,3.67,0,0,0,2.5-.79,2.73,2.73,0,0,0,.88-2.14,2.37,2.37,0,0,0-.89-1.94A4.22,4.22,0,0,0,66.05,32.82Z"/><path d="M81.65,27.85a4,4,0,0,1-1.05,2.83,3.83,3.83,0,0,1-5.43,0,4,4,0,0,1-1-2.83,3.94,3.94,0,0,1,1-2.8,3.88,3.88,0,0,1,5.43,0A3.94,3.94,0,0,1,81.65,27.85Zm-1.49,0a2.47,2.47,0,0,0-.63-1.73,2.32,2.32,0,0,0-3.31,0,2.41,2.41,0,0,0-.64,1.74,2.51,2.51,0,0,0,.64,1.76,2.3,2.3,0,0,0,3.32,0A2.54,2.54,0,0,0,80.16,27.85Zm7.25-3.7-8.33,16H77.43l8.3-16Zm3.31,12.27a4,4,0,0,1-1,2.82A3.57,3.57,0,0,1,87,40.35a3.53,3.53,0,0,1-2.7-1.13,4.2,4.2,0,0,1,0-5.6,3.84,3.84,0,0,1,5.42,0A3.92,3.92,0,0,1,90.72,36.42Zm-2.09,1.76a2.77,2.77,0,0,0,0-3.52A2.19,2.19,0,0,0,87,34a2.09,2.09,0,0,0-1.65.71,2.52,2.52,0,0,0-.63,1.74,2.55,2.55,0,0,0,.63,1.76,2.13,2.13,0,0,0,1.65.71A2.17,2.17,0,0,0,88.63,38.18Z"/><path d="M124.28,52.14a30.06,30.06,0,0,0,3.45-3.28,12.5,12.5,0,0,0,2.35-3.47,4.6,4.6,0,0,1-3.55,1.25,5,5,0,0,1-3.67-1.45,5.12,5.12,0,0,1-1.46-3.81,5.23,5.23,0,0,1,1.62-4,6,6,0,0,1,4.26-1.54,5.47,5.47,0,0,1,5.85,5.93,10,10,0,0,1-1.51,5.26,26.26,26.26,0,0,1-4.18,5.09Zm5.6-8.31a3.34,3.34,0,0,0,1-2.49,3.4,3.4,0,0,0-1-2.51,3.56,3.56,0,0,0-2.63-.95,3.23,3.23,0,0,0-3.5,3.46,3.39,3.39,0,0,0,.92,2.5,3.49,3.49,0,0,0,2.58.93A3.56,3.56,0,0,0,129.88,43.83Z"/><path d="M147.15,44.14a15.31,15.31,0,0,1-.29,3,9.93,9.93,0,0,1-.92,2.62,5,5,0,0,1-1.81,1.92,6,6,0,0,1-5.62,0,4.84,4.84,0,0,1-1.81-1.92,9.6,9.6,0,0,1-.93-2.62,15.31,15.31,0,0,1-.29-3,15.09,15.09,0,0,1,.29-3,9.85,9.85,0,0,1,.93-2.62,4.59,4.59,0,0,1,1.81-1.92,6,6,0,0,1,5.62,0,4.72,4.72,0,0,1,1.81,1.92,10.19,10.19,0,0,1,.92,2.62A15.09,15.09,0,0,1,147.15,44.14Zm-2.33,0q0-6.33-3.5-6.33c-2.36,0-3.53,2.11-3.53,6.33s1.17,6.36,3.53,6.36S144.82,48.38,144.82,44.14Z"/><path d="M156.65,39.85a4,4,0,0,1-1.05,2.83,3.83,3.83,0,0,1-5.43,0,4,4,0,0,1-1-2.83,3.94,3.94,0,0,1,1-2.8,3.88,3.88,0,0,1,5.43,0A3.94,3.94,0,0,1,156.65,39.85Zm-1.49,0a2.47,2.47,0,0,0-.63-1.73,2.32,2.32,0,0,0-3.31,0,2.41,2.41,0,0,0-.64,1.74,2.51,2.51,0,0,0,.64,1.76,2.3,2.3,0,0,0,3.32,0A2.54,2.54,0,0,0,155.16,39.85Zm7.25-3.7-8.33,16h-1.65l8.3-16Zm3.31,12.27a4,4,0,0,1-1,2.82A3.57,3.57,0,0,1,162,52.35a3.53,3.53,0,0,1-2.7-1.13,4.2,4.2,0,0,1,0-5.6,3.84,3.84,0,0,1,5.42,0A3.92,3.92,0,0,1,165.72,48.42Zm-2.09,1.76a2.77,2.77,0,0,0,0-3.52A2.19,2.19,0,0,0,162,46a2.09,2.09,0,0,0-1.65.71,2.52,2.52,0,0,0-.63,1.74,2.55,2.55,0,0,0,.63,1.76,2.13,2.13,0,0,0,1.65.71A2.17,2.17,0,0,0,163.63,50.18Z"/><path d="M206.52,128.15a29.33,29.33,0,0,0-3.46,3.28,12.57,12.57,0,0,0-2.35,3.47,4.58,4.58,0,0,1,3.55-1.25,5,5,0,0,1,3.67,1.45,5.12,5.12,0,0,1,1.47,3.8,5.25,5.25,0,0,1-1.62,4,6,6,0,0,1-4.26,1.53,5.47,5.47,0,0,1-5.86-5.92,10.11,10.11,0,0,1,1.5-5.27,24.77,24.77,0,0,1,4.19-5.08Zm-5.61,8.31A3.34,3.34,0,0,0,200,139a3.4,3.4,0,0,0,.95,2.51,3.56,3.56,0,0,0,2.63.95,3.46,3.46,0,0,0,2.58-.95,3.88,3.88,0,0,0,0-5,4.11,4.11,0,0,0-5.21,0Z"/><path d="M221.59,143.08a7.48,7.48,0,0,1-8.56,0,4.34,4.34,0,0,1-1.59-3.45,4.29,4.29,0,0,1,.73-2.44,4.65,4.65,0,0,1,2.15-1.71,3.54,3.54,0,0,1-2.28-3.41,3.66,3.66,0,0,1,1.5-3,6.69,6.69,0,0,1,7.56,0,3.66,3.66,0,0,1,1.5,3,3.56,3.56,0,0,1-2.31,3.41,4.67,4.67,0,0,1,2.16,1.69,4.57,4.57,0,0,1-.86,5.92Zm-4.27-.6a3.88,3.88,0,0,0,2.59-.8,2.76,2.76,0,0,0,.93-2.2,2.71,2.71,0,0,0-.9-2.17,4.81,4.81,0,0,0-5.25,0,2.71,2.71,0,0,0-.9,2.17,2.79,2.79,0,0,0,.92,2.2A3.9,3.9,0,0,0,217.32,142.48ZM215.13,134a4,4,0,0,0,4.37,0,2.15,2.15,0,0,0,.79-1.79,2.19,2.19,0,0,0-.8-1.8,4,4,0,0,0-4.35,0,2.19,2.19,0,0,0-.8,1.8A2.15,2.15,0,0,0,215.13,134Z"/><path d="M232.65,131.85a4,4,0,0,1-1.05,2.83,3.83,3.83,0,0,1-5.43,0,4,4,0,0,1-1-2.83,3.94,3.94,0,0,1,1-2.8,3.88,3.88,0,0,1,5.43,0A3.94,3.94,0,0,1,232.65,131.85Zm-1.49,0a2.47,2.47,0,0,0-.63-1.73,2.32,2.32,0,0,0-3.31,0,2.41,2.41,0,0,0-.64,1.74,2.51,2.51,0,0,0,.64,1.76,2.3,2.3,0,0,0,3.32,0A2.54,2.54,0,0,0,231.16,131.85Zm7.25-3.7-8.33,16h-1.65l8.3-16Zm3.31,12.27a4,4,0,0,1-1,2.82,3.57,3.57,0,0,1-2.72,1.11,3.53,3.53,0,0,1-2.7-1.13,4.2,4.2,0,0,1,0-5.6,3.84,3.84,0,0,1,5.42,0A3.92,3.92,0,0,1,241.72,140.42Zm-2.09,1.76a2.77,2.77,0,0,0,0-3.52A2.19,2.19,0,0,0,238,138a2.09,2.09,0,0,0-1.65.71,2.52,2.52,0,0,0-.63,1.74,2.55,2.55,0,0,0,.63,1.76,2.13,2.13,0,0,0,1.65.71A2.17,2.17,0,0,0,239.63,142.18Z"/><path d="M283.56,261.39h-2.35v3.75H279v-3.75h-7.77v-1.85a25.92,25.92,0,0,0,2.42-5.5,17.17,17.17,0,0,0,.84-4.89h2.19a16.54,16.54,0,0,1-.9,4.95,24.86,24.86,0,0,1-2.44,5.32H279v-6.76h2.21v6.76h2.35Z"/><path d="M297.15,257.14a15.31,15.31,0,0,1-.29,3,9.93,9.93,0,0,1-.92,2.62,5,5,0,0,1-1.81,1.92,6,6,0,0,1-5.62,0,4.84,4.84,0,0,1-1.81-1.92,9.6,9.6,0,0,1-.93-2.62,15.31,15.31,0,0,1-.29-3,15.09,15.09,0,0,1,.29-3,9.85,9.85,0,0,1,.93-2.62,4.59,4.59,0,0,1,1.81-1.92,6,6,0,0,1,5.62,0,4.72,4.72,0,0,1,1.81,1.92,10.19,10.19,0,0,1,.92,2.62A15.09,15.09,0,0,1,297.15,257.14Zm-2.33,0q0-6.33-3.5-6.33c-2.36,0-3.53,2.11-3.53,6.33s1.17,6.36,3.53,6.36S294.82,261.38,294.82,257.14Z"/><path d="M306.65,252.85a4,4,0,0,1-1,2.83,3.83,3.83,0,0,1-5.43,0,4,4,0,0,1-1.05-2.83,3.94,3.94,0,0,1,1.05-2.8,3.88,3.88,0,0,1,5.43,0A3.94,3.94,0,0,1,306.65,252.85Zm-1.49,0a2.47,2.47,0,0,0-.63-1.73,2.32,2.32,0,0,0-3.31,0,2.41,2.41,0,0,0-.64,1.74,2.51,2.51,0,0,0,.64,1.76,2.3,2.3,0,0,0,3.32,0A2.54,2.54,0,0,0,305.16,252.85Zm7.25-3.7-8.33,16h-1.65l8.3-16Zm3.31,12.27a4,4,0,0,1-1,2.82,3.57,3.57,0,0,1-2.72,1.11,3.53,3.53,0,0,1-2.7-1.13,4.2,4.2,0,0,1,0-5.6,3.84,3.84,0,0,1,5.42,0A3.92,3.92,0,0,1,315.72,261.42Zm-2.09,1.76a2.77,2.77,0,0,0,0-3.52A2.19,2.19,0,0,0,312,259a2.09,2.09,0,0,0-1.65.71,2.52,2.52,0,0,0-.63,1.74,2.55,2.55,0,0,0,.63,1.76,2.13,2.13,0,0,0,1.65.71A2.17,2.17,0,0,0,313.63,263.18Z"/><path d="M469.16,205.38a3.77,3.77,0,0,0,2.64-.9,3.2,3.2,0,0,0,1-2.48,3.13,3.13,0,0,0-.95-2.41,3.62,3.62,0,0,0-2.58-.88,4.17,4.17,0,0,0-3.43,1.54l-1.37-.65.53-8.45h9.22v2.07h-7.37l-.39,4.58a5.64,5.64,0,0,1,3.34-1,5.35,5.35,0,0,1,3.82,1.43,4.9,4.9,0,0,1,1.51,3.71,5.31,5.31,0,0,1-1.59,3.91,5.76,5.76,0,0,1-4.29,1.58,6.1,6.1,0,0,1-5.71-3l1.89-1.13A3.91,3.91,0,0,0,469.16,205.38Z"/><path d="M483.05,199.82H481.8v-1.95h1.3a3.38,3.38,0,0,0,2.27-.69,2.41,2.41,0,0,0,.8-1.9,2.13,2.13,0,0,0-.8-1.76,3.43,3.43,0,0,0-2.2-.64,4.36,4.36,0,0,0-3.81,1.92l-1.68-1.18a6.65,6.65,0,0,1,5.56-2.76A5.81,5.81,0,0,1,487,192a3.7,3.7,0,0,1,1.45,3,3.81,3.81,0,0,1-2.4,3.6,4.55,4.55,0,0,1,2.15,1.61,4,4,0,0,1,.73,2.33,4.41,4.41,0,0,1-1.55,3.46,6.06,6.06,0,0,1-4.16,1.36,6.24,6.24,0,0,1-6-3.24l1.94-1.05a4.12,4.12,0,0,0,4,2.28,3.67,3.67,0,0,0,2.5-.79,2.73,2.73,0,0,0,.88-2.14,2.37,2.37,0,0,0-.89-1.94A4.22,4.22,0,0,0,483.05,199.82Z"/><path d="M498.65,194.85a4,4,0,0,1-1,2.83,3.83,3.83,0,0,1-5.43,0,4,4,0,0,1-1.05-2.83,3.94,3.94,0,0,1,1.05-2.8,3.88,3.88,0,0,1,5.43,0A3.94,3.94,0,0,1,498.65,194.85Zm-1.49,0a2.47,2.47,0,0,0-.63-1.73,2.32,2.32,0,0,0-3.31,0,2.41,2.41,0,0,0-.64,1.74,2.51,2.51,0,0,0,.64,1.76,2.3,2.3,0,0,0,3.32,0A2.54,2.54,0,0,0,497.16,194.85Zm7.25-3.7-8.33,16h-1.65l8.3-16Zm3.31,12.27a4,4,0,0,1-1,2.82,3.57,3.57,0,0,1-2.72,1.11,3.53,3.53,0,0,1-2.7-1.13,4.2,4.2,0,0,1,0-5.6,3.84,3.84,0,0,1,5.42,0A3.92,3.92,0,0,1,507.72,203.42Zm-2.09,1.76a2.77,2.77,0,0,0,0-3.52A2.19,2.19,0,0,0,504,201a2.09,2.09,0,0,0-1.65.71,2.52,2.52,0,0,0-.63,1.74,2.55,2.55,0,0,0,.63,1.76,2.13,2.13,0,0,0,1.65.71A2.17,2.17,0,0,0,505.63,205.18Z"/><path d="M544.16,199.38a3.77,3.77,0,0,0,2.64-.9,3.2,3.2,0,0,0,1-2.48,3.13,3.13,0,0,0-.95-2.41,3.62,3.62,0,0,0-2.58-.88,4.17,4.17,0,0,0-3.43,1.54l-1.37-.65.53-8.45h9.22v2.07h-7.37l-.39,4.58a5.64,5.64,0,0,1,3.34-1,5.35,5.35,0,0,1,3.82,1.43,4.9,4.9,0,0,1,1.51,3.71,5.31,5.31,0,0,1-1.59,3.91,5.76,5.76,0,0,1-4.29,1.58,6.1,6.1,0,0,1-5.71-3l1.89-1.13A3.91,3.91,0,0,0,544.16,199.38Z"/><path d="M558.08,199.38a3.77,3.77,0,0,0,2.64-.9,3.2,3.2,0,0,0,1-2.48,3.13,3.13,0,0,0-1-2.41,3.62,3.62,0,0,0-2.58-.88,4.17,4.17,0,0,0-3.43,1.54l-1.37-.65.53-8.45h9.22v2.07h-7.37l-.39,4.58a5.64,5.64,0,0,1,3.34-1,5.35,5.35,0,0,1,3.82,1.43,4.9,4.9,0,0,1,1.51,3.71,5.31,5.31,0,0,1-1.59,3.91,5.76,5.76,0,0,1-4.29,1.58,6.1,6.1,0,0,1-5.71-3l1.89-1.13A3.91,3.91,0,0,0,558.08,199.38Z"/><path d="M573.65,188.85a4,4,0,0,1-1,2.83,3.83,3.83,0,0,1-5.43,0,4,4,0,0,1-1-2.83,3.94,3.94,0,0,1,1-2.8,3.88,3.88,0,0,1,5.43,0A3.94,3.94,0,0,1,573.65,188.85Zm-1.49,0a2.47,2.47,0,0,0-.63-1.73,2.32,2.32,0,0,0-3.31,0,2.41,2.41,0,0,0-.64,1.74,2.51,2.51,0,0,0,.64,1.76,2.3,2.3,0,0,0,3.32,0A2.54,2.54,0,0,0,572.16,188.85Zm7.25-3.7-8.33,16h-1.65l8.3-16Zm3.31,12.27a4,4,0,0,1-1,2.82,3.57,3.57,0,0,1-2.72,1.11,3.53,3.53,0,0,1-2.7-1.13,4.2,4.2,0,0,1,0-5.6,3.84,3.84,0,0,1,5.42,0A3.92,3.92,0,0,1,582.72,197.42Zm-2.09,1.76a2.77,2.77,0,0,0,0-3.52A2.19,2.19,0,0,0,579,195a2.09,2.09,0,0,0-1.65.71,2.52,2.52,0,0,0-.63,1.74,2.55,2.55,0,0,0,.63,1.76,2.13,2.13,0,0,0,1.65.71A2.17,2.17,0,0,0,580.63,199.18Z"/><path d="M619.16,210.38a3.77,3.77,0,0,0,2.64-.9,3.2,3.2,0,0,0,1-2.48,3.13,3.13,0,0,0-.95-2.41,3.62,3.62,0,0,0-2.58-.88,4.17,4.17,0,0,0-3.43,1.54l-1.37-.65.53-8.45h9.22v2.07h-7.37l-.39,4.58a5.64,5.64,0,0,1,3.34-1,5.35,5.35,0,0,1,3.82,1.43,4.9,4.9,0,0,1,1.51,3.71,5.31,5.31,0,0,1-1.59,3.91,5.76,5.76,0,0,1-4.29,1.58,6.1,6.1,0,0,1-5.71-3l1.89-1.13A3.91,3.91,0,0,0,619.16,210.38Z"/><path d="M639,212.14H627.82v-1.73a62.72,62.72,0,0,0,6.44-5.86,5.81,5.81,0,0,0,1.77-3.69,2.75,2.75,0,0,0-.87-2.2,3.28,3.28,0,0,0-2.23-.76,4.09,4.09,0,0,0-3.67,2.19L627.48,199a6.42,6.42,0,0,1,5.62-3.12,5.45,5.45,0,0,1,3.79,1.34,4.53,4.53,0,0,1,1.49,3.56,6.56,6.56,0,0,1-1.64,4.14,36.83,36.83,0,0,1-5.66,5.17H639Z"/><path d="M648.65,199.85a4,4,0,0,1-1,2.83,3.83,3.83,0,0,1-5.43,0,4,4,0,0,1-1-2.83,3.94,3.94,0,0,1,1-2.8,3.88,3.88,0,0,1,5.43,0A3.94,3.94,0,0,1,648.65,199.85Zm-1.49,0a2.47,2.47,0,0,0-.63-1.73,2.32,2.32,0,0,0-3.31,0,2.41,2.41,0,0,0-.64,1.74,2.51,2.51,0,0,0,.64,1.76,2.3,2.3,0,0,0,3.32,0A2.54,2.54,0,0,0,647.16,199.85Zm7.25-3.7-8.33,16h-1.65l8.3-16Zm3.31,12.27a4,4,0,0,1-1,2.82,3.57,3.57,0,0,1-2.72,1.11,3.53,3.53,0,0,1-2.7-1.13,4.2,4.2,0,0,1,0-5.6,3.84,3.84,0,0,1,5.42,0A3.92,3.92,0,0,1,657.72,208.42Zm-2.09,1.76a2.77,2.77,0,0,0,0-3.52A2.19,2.19,0,0,0,654,206a2.09,2.09,0,0,0-1.65.71,2.52,2.52,0,0,0-.63,1.74,2.55,2.55,0,0,0,.63,1.76,2.13,2.13,0,0,0,1.65.71A2.17,2.17,0,0,0,655.63,210.18Z"/><path d="M694.13,286.82h-1.25v-1.95h1.3a3.38,3.38,0,0,0,2.27-.69,2.41,2.41,0,0,0,.8-1.9,2.13,2.13,0,0,0-.8-1.76,3.43,3.43,0,0,0-2.2-.64,4.36,4.36,0,0,0-3.81,1.92l-1.68-1.18a6.65,6.65,0,0,1,5.56-2.76,5.81,5.81,0,0,1,3.76,1.18,3.7,3.7,0,0,1,1.45,3,3.81,3.81,0,0,1-2.4,3.6,4.55,4.55,0,0,1,2.15,1.61,4,4,0,0,1,.73,2.33,4.41,4.41,0,0,1-1.55,3.46,6.06,6.06,0,0,1-4.16,1.36,6.24,6.24,0,0,1-5.95-3.24l1.94-1.05a4.12,4.12,0,0,0,4,2.28,3.67,3.67,0,0,0,2.5-.79,2.73,2.73,0,0,0,.88-2.14,2.37,2.37,0,0,0-.89-1.94A4.22,4.22,0,0,0,694.13,286.82Z"/><path d="M708.05,286.82H706.8v-1.95h1.3a3.38,3.38,0,0,0,2.27-.69,2.41,2.41,0,0,0,.8-1.9,2.13,2.13,0,0,0-.8-1.76,3.43,3.43,0,0,0-2.2-.64,4.36,4.36,0,0,0-3.81,1.92l-1.68-1.18a6.65,6.65,0,0,1,5.56-2.76A5.81,5.81,0,0,1,712,279a3.7,3.7,0,0,1,1.45,3,3.81,3.81,0,0,1-2.4,3.6,4.55,4.55,0,0,1,2.15,1.61,4,4,0,0,1,.73,2.33,4.41,4.41,0,0,1-1.55,3.46,6.06,6.06,0,0,1-4.16,1.36,6.24,6.24,0,0,1-6-3.24l1.94-1.05a4.12,4.12,0,0,0,4,2.28,3.67,3.67,0,0,0,2.5-.79,2.73,2.73,0,0,0,.88-2.14,2.37,2.37,0,0,0-.89-1.94A4.22,4.22,0,0,0,708.05,286.82Z"/><path d="M723.65,281.85a4,4,0,0,1-1,2.83,3.83,3.83,0,0,1-5.43,0,4,4,0,0,1-1-2.83,3.94,3.94,0,0,1,1-2.8,3.88,3.88,0,0,1,5.43,0A3.94,3.94,0,0,1,723.65,281.85Zm-1.49,0a2.47,2.47,0,0,0-.63-1.73,2.32,2.32,0,0,0-3.31,0,2.41,2.41,0,0,0-.64,1.74,2.51,2.51,0,0,0,.64,1.76,2.3,2.3,0,0,0,3.32,0A2.54,2.54,0,0,0,722.16,281.85Zm7.25-3.7-8.33,16h-1.65l8.3-16Zm3.31,12.27a4,4,0,0,1-1,2.82,3.57,3.57,0,0,1-2.72,1.11,3.53,3.53,0,0,1-2.7-1.13,4.2,4.2,0,0,1,0-5.6,3.84,3.84,0,0,1,5.42,0A3.92,3.92,0,0,1,732.72,290.42Zm-2.09,1.76a2.77,2.77,0,0,0,0-3.52A2.19,2.19,0,0,0,729,288a2.09,2.09,0,0,0-1.65.71,2.52,2.52,0,0,0-.63,1.74,2.55,2.55,0,0,0,.63,1.76,2.13,2.13,0,0,0,1.65.71A2.17,2.17,0,0,0,730.63,292.18Z"/><path d="M886.67,68.08a7.48,7.48,0,0,1-8.56,0,4.34,4.34,0,0,1-1.59-3.45,4.29,4.29,0,0,1,.73-2.44,4.65,4.65,0,0,1,2.15-1.71,3.54,3.54,0,0,1-2.28-3.41,3.66,3.66,0,0,1,1.5-3,6.69,6.69,0,0,1,7.56,0,3.66,3.66,0,0,1,1.5,3,3.56,3.56,0,0,1-2.31,3.41,4.67,4.67,0,0,1,2.16,1.69,4.57,4.57,0,0,1-.86,5.92Zm-4.27-.6a3.88,3.88,0,0,0,2.59-.8,2.76,2.76,0,0,0,.93-2.2,2.68,2.68,0,0,0-.9-2.17,4.81,4.81,0,0,0-5.25,0,2.71,2.71,0,0,0-.9,2.17,2.79,2.79,0,0,0,.92,2.2A3.9,3.9,0,0,0,882.4,67.48ZM880.21,59a4,4,0,0,0,4.37,0,2.15,2.15,0,0,0,.79-1.79,2.19,2.19,0,0,0-.8-1.8,4,4,0,0,0-4.35,0,2.19,2.19,0,0,0-.8,1.8A2.15,2.15,0,0,0,880.21,59Z"/><path d="M899.44,53.15A29.33,29.33,0,0,0,896,56.43a12.57,12.57,0,0,0-2.35,3.47,4.58,4.58,0,0,1,3.55-1.25,5,5,0,0,1,3.67,1.45,5.12,5.12,0,0,1,1.47,3.8,5.25,5.25,0,0,1-1.62,4,6,6,0,0,1-4.26,1.53,5.47,5.47,0,0,1-5.86-5.92,10.11,10.11,0,0,1,1.5-5.27,24.77,24.77,0,0,1,4.19-5.08Zm-5.61,8.31a3.34,3.34,0,0,0-1,2.49,3.4,3.4,0,0,0,1,2.51,3.56,3.56,0,0,0,2.63,1,3.46,3.46,0,0,0,2.58-1,3.88,3.88,0,0,0,0-5,4.11,4.11,0,0,0-5.21,0Z"/><path d="M911.65,56.85a4,4,0,0,1-1,2.83,3.83,3.83,0,0,1-5.43,0,4,4,0,0,1-1-2.83,3.94,3.94,0,0,1,1-2.8,3.88,3.88,0,0,1,5.43,0A3.94,3.94,0,0,1,911.65,56.85Zm-1.49,0a2.47,2.47,0,0,0-.63-1.73,2.32,2.32,0,0,0-3.31,0,2.41,2.41,0,0,0-.64,1.74,2.51,2.51,0,0,0,.64,1.76,2.3,2.3,0,0,0,3.32,0A2.54,2.54,0,0,0,910.16,56.85Zm7.25-3.7-8.33,16h-1.65l8.3-16Zm3.31,12.27a4,4,0,0,1-1,2.82A3.57,3.57,0,0,1,917,69.35a3.53,3.53,0,0,1-2.7-1.13,4.2,4.2,0,0,1,0-5.6,3.84,3.84,0,0,1,5.42,0A3.92,3.92,0,0,1,920.72,65.42Zm-2.09,1.76a2.77,2.77,0,0,0,0-3.52A2.19,2.19,0,0,0,917,63a2.09,2.09,0,0,0-1.65.71,2.52,2.52,0,0,0-.63,1.74,2.55,2.55,0,0,0,.63,1.76,2.13,2.13,0,0,0,1.65.71A2.17,2.17,0,0,0,918.63,67.18Z"/><path d="M963.28,97.15V99c-.66.84-1.3,1.73-1.92,2.65s-1.32,2-2.08,3.36a23.24,23.24,0,0,0-1.87,4.13,14.64,14.64,0,0,0-.83,4h-2.42q.3-5.83,6.48-13.92h-9V97.15Z"/><path d="M974.44,97.15a29.33,29.33,0,0,0-3.46,3.28,12.57,12.57,0,0,0-2.35,3.47,4.58,4.58,0,0,1,3.55-1.25,5,5,0,0,1,3.67,1.45,5.12,5.12,0,0,1,1.47,3.8,5.25,5.25,0,0,1-1.62,4,6,6,0,0,1-4.26,1.53,5.47,5.47,0,0,1-5.86-5.92,10.11,10.11,0,0,1,1.5-5.27,24.77,24.77,0,0,1,4.19-5.08Zm-5.61,8.31a3.34,3.34,0,0,0-1,2.49,3.4,3.4,0,0,0,1,2.51,3.56,3.56,0,0,0,2.63,1,3.46,3.46,0,0,0,2.58-1,3.88,3.88,0,0,0,0-5,4.11,4.11,0,0,0-5.21,0Z"/><path d="M986.65,100.85a4,4,0,0,1-1,2.83,3.83,3.83,0,0,1-5.43,0,4,4,0,0,1-1-2.83,3.94,3.94,0,0,1,1-2.8,3.88,3.88,0,0,1,5.43,0A3.94,3.94,0,0,1,986.65,100.85Zm-1.49,0a2.47,2.47,0,0,0-.63-1.73,2.32,2.32,0,0,0-3.31,0,2.41,2.41,0,0,0-.64,1.74,2.51,2.51,0,0,0,.64,1.76,2.3,2.3,0,0,0,3.32,0A2.54,2.54,0,0,0,985.16,100.85Zm7.25-3.7-8.33,16h-1.65l8.3-16Zm3.31,12.27a4,4,0,0,1-1,2.82,3.57,3.57,0,0,1-2.72,1.11,3.53,3.53,0,0,1-2.7-1.13,4.2,4.2,0,0,1,0-5.6,3.84,3.84,0,0,1,5.42,0A3.92,3.92,0,0,1,995.72,109.42Zm-2.09,1.76a2.77,2.77,0,0,0,0-3.52A2.19,2.19,0,0,0,992,107a2.09,2.09,0,0,0-1.65.71,2.52,2.52,0,0,0-.63,1.74,2.55,2.55,0,0,0,.63,1.76,2.13,2.13,0,0,0,1.65.71A2.17,2.17,0,0,0,993.63,111.18Z"/><path d="M1033.16,180.38a3.77,3.77,0,0,0,2.64-.9,3.2,3.2,0,0,0,1-2.48,3.13,3.13,0,0,0-1-2.41,3.62,3.62,0,0,0-2.58-.88,4.17,4.17,0,0,0-3.43,1.54l-1.37-.65.53-8.45h9.22v2.07h-7.37l-.39,4.58a5.64,5.64,0,0,1,3.34-1,5.35,5.35,0,0,1,3.82,1.43,4.9,4.9,0,0,1,1.51,3.71,5.31,5.31,0,0,1-1.59,3.91,5.76,5.76,0,0,1-4.29,1.58,6.1,6.1,0,0,1-5.71-3l1.89-1.13A3.91,3.91,0,0,0,1033.16,180.38Z"/><path d="M1044.2,182.14a30.06,30.06,0,0,0,3.45-3.28,12.5,12.5,0,0,0,2.35-3.47,4.6,4.6,0,0,1-3.55,1.25,5,5,0,0,1-3.67-1.45,5.12,5.12,0,0,1-1.46-3.81,5.23,5.23,0,0,1,1.62-4,6,6,0,0,1,4.26-1.54,5.47,5.47,0,0,1,5.85,5.93,10,10,0,0,1-1.51,5.26,26.26,26.26,0,0,1-4.18,5.09Zm5.6-8.31a3.34,3.34,0,0,0,1-2.49,3.4,3.4,0,0,0-1-2.51,3.56,3.56,0,0,0-2.63-1,3.23,3.23,0,0,0-3.5,3.46,3.39,3.39,0,0,0,.92,2.5,3.49,3.49,0,0,0,2.58.93A3.56,3.56,0,0,0,1049.8,173.83Z"/><path d="M1062.65,169.85a4,4,0,0,1-1.05,2.83,3.83,3.83,0,0,1-5.43,0,4,4,0,0,1-1.05-2.83,3.94,3.94,0,0,1,1.05-2.8,3.88,3.88,0,0,1,5.43,0A3.94,3.94,0,0,1,1062.65,169.85Zm-1.49,0a2.47,2.47,0,0,0-.63-1.73,2.32,2.32,0,0,0-3.31,0,2.41,2.41,0,0,0-.64,1.74,2.51,2.51,0,0,0,.64,1.76,2.3,2.3,0,0,0,3.32,0A2.54,2.54,0,0,0,1061.16,169.85Zm7.25-3.7-8.33,16h-1.65l8.3-16Zm3.31,12.27a4,4,0,0,1-1,2.82,3.57,3.57,0,0,1-2.72,1.11,3.53,3.53,0,0,1-2.7-1.13,4.2,4.2,0,0,1,0-5.6,3.84,3.84,0,0,1,5.42,0A3.92,3.92,0,0,1,1071.72,178.42Zm-2.09,1.76a2.77,2.77,0,0,0,0-3.52A2.19,2.19,0,0,0,1068,176a2.09,2.09,0,0,0-1.65.71,2.52,2.52,0,0,0-.63,1.74,2.55,2.55,0,0,0,.63,1.76,2.13,2.13,0,0,0,1.65.71A2.17,2.17,0,0,0,1069.63,180.18Z"/><path d="M1114.08,315.14H1102.9v-1.73a62.72,62.72,0,0,0,6.44-5.86,5.81,5.81,0,0,0,1.77-3.69,2.75,2.75,0,0,0-.87-2.2,3.28,3.28,0,0,0-2.23-.76,4.09,4.09,0,0,0-3.67,2.19l-1.78-1.11a6.42,6.42,0,0,1,5.62-3.12,5.45,5.45,0,0,1,3.79,1.34,4.53,4.53,0,0,1,1.49,3.56,6.56,6.56,0,0,1-1.64,4.14,36.83,36.83,0,0,1-5.66,5.17h7.92Z"/><path d="M1126.59,314.08a7.48,7.48,0,0,1-8.56,0,4.34,4.34,0,0,1-1.59-3.45,4.29,4.29,0,0,1,.73-2.44,4.65,4.65,0,0,1,2.15-1.71,3.54,3.54,0,0,1-2.28-3.41,3.66,3.66,0,0,1,1.5-3,6.69,6.69,0,0,1,7.56,0,3.66,3.66,0,0,1,1.5,3,3.56,3.56,0,0,1-2.31,3.41,4.67,4.67,0,0,1,2.16,1.69,4.57,4.57,0,0,1-.86,5.92Zm-4.27-.6a3.88,3.88,0,0,0,2.59-.8,2.76,2.76,0,0,0,.93-2.2,2.71,2.71,0,0,0-.9-2.17,4.81,4.81,0,0,0-5.25,0,2.71,2.71,0,0,0-.9,2.17,2.79,2.79,0,0,0,.92,2.2A3.9,3.9,0,0,0,1122.32,313.48Zm-2.19-8.46a4,4,0,0,0,4.37,0,2.15,2.15,0,0,0,.79-1.79,2.19,2.19,0,0,0-.8-1.8,4,4,0,0,0-4.35,0,2.19,2.19,0,0,0-.8,1.8A2.15,2.15,0,0,0,1120.13,305Z"/><path d="M1137.65,302.85a4,4,0,0,1-1.05,2.83,3.83,3.83,0,0,1-5.43,0,4,4,0,0,1-1.05-2.83,3.94,3.94,0,0,1,1.05-2.8,3.88,3.88,0,0,1,5.43,0A3.94,3.94,0,0,1,1137.65,302.85Zm-1.49,0a2.47,2.47,0,0,0-.63-1.73,2.32,2.32,0,0,0-3.31,0,2.41,2.41,0,0,0-.64,1.74,2.51,2.51,0,0,0,.64,1.76,2.3,2.3,0,0,0,3.32,0A2.54,2.54,0,0,0,1136.16,302.85Zm7.25-3.7-8.33,16h-1.65l8.3-16Zm3.31,12.27a4,4,0,0,1-1,2.82,3.57,3.57,0,0,1-2.72,1.11,3.53,3.53,0,0,1-2.7-1.13,4.2,4.2,0,0,1,0-5.6,3.84,3.84,0,0,1,5.42,0A3.92,3.92,0,0,1,1146.72,311.42Zm-2.09,1.76a2.77,2.77,0,0,0,0-3.52A2.19,2.19,0,0,0,1143,309a2.09,2.09,0,0,0-1.65.71,2.52,2.52,0,0,0-.63,1.74,2.55,2.55,0,0,0,.63,1.76,2.13,2.13,0,0,0,1.65.71A2.17,2.17,0,0,0,1144.63,313.18Z"/><path d="M473,56a5,5,0,0,0-4,1.7,6.67,6.67,0,0,0-1.47,4.51A6.72,6.72,0,0,0,469,66.77a5,5,0,0,0,4,1.7,5.3,5.3,0,0,0,3.59-1.22,4.65,4.65,0,0,0,1.6-3.26H473V62h7.32a7.11,7.11,0,0,1,.1,1.2,7.25,7.25,0,0,1-2,5.17A7,7,0,0,1,473,70.51a7.35,7.35,0,0,1-5.68-2.32,8.5,8.5,0,0,1-2.15-6,8.37,8.37,0,0,1,2.14-6,7.85,7.85,0,0,1,11.9.91l-1.77,1.22A5,5,0,0,0,473,56Z"/><path d="M494.43,63.67a4.86,4.86,0,0,1-.05.82h-9.79a4.31,4.31,0,0,0,1.23,3,4.07,4.07,0,0,0,3,1.09,4.84,4.84,0,0,0,3.7-1.63l1.39,1.37a6.71,6.71,0,0,1-5.14,2.18,6.12,6.12,0,0,1-4.68-1.81,6.56,6.56,0,0,1-1.7-4.67,6.83,6.83,0,0,1,1.67-4.7,6.19,6.19,0,0,1,8.77-.1A6.32,6.32,0,0,1,494.43,63.67Zm-9.79-.79h7.63a4,4,0,0,0-1.22-2.67,3.72,3.72,0,0,0-2.59-1,3.64,3.64,0,0,0-2.66,1A3.91,3.91,0,0,0,484.64,62.88Z"/><path d="M499.33,70.23h-2.09V57.75h2.09v2.06a4.93,4.93,0,0,1,4.27-2.35,4.14,4.14,0,0,1,3.19,1.25A4.84,4.84,0,0,1,508,62.19v8h-2.09V62.67q0-3.24-2.78-3.24a3.63,3.63,0,0,0-2.7,1.08,3.78,3.78,0,0,0-1.07,2.8Z"/><path d="M531.58,70.23h-2.76l-4.89-6.68L519,70.23h-2.67l6.2-8.31-5.72-7.68h2.72L524,60.41l4.49-6.17h2.62l-5.69,7.68Z"/><path d="M544.28,63.67a6.2,6.2,0,0,1,0,.82h-9.79a4.3,4.3,0,0,0,1.22,3,4.1,4.1,0,0,0,3,1.09A4.82,4.82,0,0,0,542.33,67l1.4,1.37a6.73,6.73,0,0,1-5.14,2.18,6.12,6.12,0,0,1-4.68-1.81,6.52,6.52,0,0,1-1.7-4.67,6.78,6.78,0,0,1,1.67-4.7,6.19,6.19,0,0,1,8.77-.1A6.37,6.37,0,0,1,544.28,63.67Zm-9.79-.79h7.63a3.91,3.91,0,0,0-1.23-2.67,3.68,3.68,0,0,0-2.59-1,3.64,3.64,0,0,0-2.65,1A3.91,3.91,0,0,0,534.49,62.88Z"/><path d="M554.5,58l-.67,2a3.1,3.1,0,0,0-1.44-.38,2.87,2.87,0,0,0-2.27,1.12,4.53,4.53,0,0,0-1,3v6.51h-2.08V57.75h2.08v2.11a4.25,4.25,0,0,1,3.63-2.35A3.05,3.05,0,0,1,554.5,58Z"/><path d="M566.05,66.53a3.52,3.52,0,0,1-1.37,2.89,5.83,5.83,0,0,1-3.75,1.09,6.12,6.12,0,0,1-5.52-2.66L557,66.7a4.78,4.78,0,0,0,4.1,2,3.89,3.89,0,0,0,2.12-.51,1.71,1.71,0,0,0,.79-1.5,1.25,1.25,0,0,0-.72-1.23,14.13,14.13,0,0,0-2.71-.72,9.16,9.16,0,0,1-3.32-1.17,2.75,2.75,0,0,1-1.15-2.45,3.12,3.12,0,0,1,1.36-2.74,5.72,5.72,0,0,1,3.32-.93,6.68,6.68,0,0,1,5.07,2.09l-1.4,1.32a4.61,4.61,0,0,0-3.69-1.61,3.83,3.83,0,0,0-1.87.42,1.34,1.34,0,0,0-.77,1.26,1.22,1.22,0,0,0,.18.65,1.67,1.67,0,0,0,.41.46,2.13,2.13,0,0,0,.71.34c.31.1.59.18.82.23l1,.19c.61.11,1.11.22,1.49.31a10.9,10.9,0,0,1,1.3.43,3.78,3.78,0,0,1,1.11.65,3,3,0,0,1,.69,1A3.17,3.17,0,0,1,566.05,66.53Z"/><path d="M580,72.12l-1.34,1.08a14.85,14.85,0,0,1,0-20.49l1.34,1.1A12.82,12.82,0,0,0,576.46,63,13,13,0,0,0,580,72.12Z"/><path d="M587.19,62.91h-1.25V61h1.3a3.4,3.4,0,0,0,2.27-.69,2.41,2.41,0,0,0,.8-1.9,2.13,2.13,0,0,0-.8-1.76,3.43,3.43,0,0,0-2.2-.64,4.39,4.39,0,0,0-3.82,1.92l-1.68-1.18A6.69,6.69,0,0,1,587.38,54a5.81,5.81,0,0,1,3.76,1.18,3.7,3.7,0,0,1,1.45,3,3.81,3.81,0,0,1-2.4,3.6,4.6,4.6,0,0,1,2.15,1.61,4,4,0,0,1,.73,2.33,4.44,4.44,0,0,1-1.55,3.46,6.06,6.06,0,0,1-4.16,1.36,6.23,6.23,0,0,1-6-3.24l1.94-1a4.11,4.11,0,0,0,4,2.28,3.65,3.65,0,0,0,2.49-.79,2.7,2.7,0,0,0,.89-2.14,2.35,2.35,0,0,0-.9-1.94A4.17,4.17,0,0,0,587.19,62.91Z"/><path d="M598.25,70.23A29.33,29.33,0,0,0,601.71,67a12.72,12.72,0,0,0,2.35-3.47,4.62,4.62,0,0,1-3.55,1.25,5,5,0,0,1-3.67-1.45,5.12,5.12,0,0,1-1.47-3.81,5.23,5.23,0,0,1,1.62-4A6,6,0,0,1,601.25,54a5.49,5.49,0,0,1,5.86,5.93,10,10,0,0,1-1.51,5.26,26.26,26.26,0,0,1-4.18,5.09Zm5.61-8.31a3.33,3.33,0,0,0,.94-2.49,3.39,3.39,0,0,0-.94-2.51,3.58,3.58,0,0,0-2.63-1,3.24,3.24,0,0,0-3.51,3.46,3.36,3.36,0,0,0,.93,2.5,3.47,3.47,0,0,0,2.58.93A3.57,3.57,0,0,0,603.86,61.92Z"/><path d="M616.28,64.42h-6.46V62.55h6.46Z"/><path d="M624.48,68.47a3.78,3.78,0,0,0,2.65-.9,3.2,3.2,0,0,0,1-2.48,3.13,3.13,0,0,0-1-2.41,3.62,3.62,0,0,0-2.58-.88,4.17,4.17,0,0,0-3.43,1.54l-1.37-.65.53-8.45h9.21v2.07h-7.36l-.39,4.58a5.64,5.64,0,0,1,3.34-1,5.33,5.33,0,0,1,3.81,1.43A4.87,4.87,0,0,1,630.44,65a5.31,5.31,0,0,1-1.59,3.91,5.76,5.76,0,0,1-4.29,1.58,6.12,6.12,0,0,1-5.72-3l1.9-1.13A3.9,3.9,0,0,0,624.48,68.47Z"/><path d="M644.81,66.48h-2.35v3.75h-2.21V66.48h-7.77V64.63a26.43,26.43,0,0,0,2.42-5.5,17.17,17.17,0,0,0,.84-4.89h2.18a16.23,16.23,0,0,1-.9,4.95,24.82,24.82,0,0,1-2.43,5.32h5.66V57.75h2.21v6.76h2.35Z"/><path d="M646.06,53.81l1.37-1.1A14.43,14.43,0,0,1,651.53,63a14.29,14.29,0,0,1-4.1,10.25l-1.37-1.08a13.5,13.5,0,0,0,0-18.31Z"/><path d="M478.69,100.64a4.31,4.31,0,0,1-1.37,3.3,5.52,5.52,0,0,1-3.94,1.29h-7.22v-16h6.7a6.26,6.26,0,0,1,3.81,1A3.33,3.33,0,0,1,478,93.08a3.7,3.7,0,0,1-2.09,3.46,4.23,4.23,0,0,1,2.76,4.1Zm-2.93-7.25c0-1.4-1-2.11-3-2.11h-4.36v4.56h4.48a3.07,3.07,0,0,0,2.1-.66A2.23,2.23,0,0,0,475.76,93.39Zm.58,7.13a2.68,2.68,0,0,0-.75-2,2.92,2.92,0,0,0-2.18-.74h-5v5.42h4.89a3.23,3.23,0,0,0,2.23-.71A2.51,2.51,0,0,0,476.34,100.52Z"/><path d="M492.92,103.59l.26,1.59a3.73,3.73,0,0,1-1.44.24,2.69,2.69,0,0,1-1.62-.49,2.17,2.17,0,0,1-.8-1.5,4.92,4.92,0,0,1-4.3,2.08,4.54,4.54,0,0,1-3.09-1,3.51,3.51,0,0,1-1.15-2.79,3.7,3.7,0,0,1,.28-1.49,3.08,3.08,0,0,1,.71-1,4.07,4.07,0,0,1,1.05-.64,5.38,5.38,0,0,1,1.12-.39c.34-.07.72-.14,1.16-.2l.8-.1.83-.11a6.61,6.61,0,0,0,.71-.13,2.49,2.49,0,0,0,1.15-.49,1,1,0,0,0,.36-.43,1.55,1.55,0,0,0,.11-.59,1.46,1.46,0,0,0-.84-1.39,4.31,4.31,0,0,0-2-.43,6.28,6.28,0,0,0-3.88,1.32l-1-1.59a8.66,8.66,0,0,1,5-1.58,5.57,5.57,0,0,1,3.53,1,3.65,3.65,0,0,1,1.29,3.07v5.9q0,1.35,1,1.35A1.23,1.23,0,0,0,492.92,103.59Zm-3.82-3.16V98.27a2.73,2.73,0,0,1-.51.51,2.17,2.17,0,0,1-.7.33l-.67.18c-.17,0-.45.08-.85.14l-.87.13a5.34,5.34,0,0,0-1.94.64,1.62,1.62,0,0,0-.65,1.47,1.84,1.84,0,0,0,.72,1.59,3.11,3.11,0,0,0,1.87.53,4,4,0,0,0,2.56-.84A3,3,0,0,0,489.1,100.43Z"/><path d="M495.34,88.09h2.09v6.72a5.5,5.5,0,0,1,8.62-.5,7.78,7.78,0,0,1,0,9.36,5.21,5.21,0,0,1-4.17,1.84,5.15,5.15,0,0,1-4.44-2.32v2h-2.09Zm3.15,7.62a5.63,5.63,0,0,0,0,6.59,3.63,3.63,0,0,0,3,1.29,3.46,3.46,0,0,0,2.91-1.28,5.91,5.91,0,0,0,0-6.61,3.45,3.45,0,0,0-2.91-1.3A3.6,3.6,0,0,0,498.49,95.71Z"/><path d="M521,92.75l-5,13a8,8,0,0,1-1.71,2.93,3.53,3.53,0,0,1-2.59.91,4.14,4.14,0,0,1-2.54-.77l.91-1.53a2.64,2.64,0,0,0,1.49.48,1.78,1.78,0,0,0,1.29-.49,4.65,4.65,0,0,0,.92-1.41l.33-.74-5.28-12.43h2.4l4,9.69,3.53-9.69Z"/><path d="M542.53,100.64a4.31,4.31,0,0,1-1.37,3.3,5.52,5.52,0,0,1-3.94,1.29H530v-16h6.7a6.26,6.26,0,0,1,3.81,1,3.33,3.33,0,0,1,1.35,2.83,3.7,3.7,0,0,1-2.09,3.46,4.23,4.23,0,0,1,2.76,4.1Zm-2.93-7.25c0-1.4-1-2.11-3-2.11h-4.36v4.56h4.48a3.07,3.07,0,0,0,2.1-.66A2.23,2.23,0,0,0,539.6,93.39Zm.58,7.13a2.68,2.68,0,0,0-.75-2,2.92,2.92,0,0,0-2.18-.74h-5v5.42h4.89a3.23,3.23,0,0,0,2.23-.71A2.51,2.51,0,0,0,540.18,100.52Z"/><path d="M557.05,99a6.65,6.65,0,0,1-1.68,4.68,6.4,6.4,0,0,1-8.94,0A6.64,6.64,0,0,1,544.76,99a6.73,6.73,0,0,1,1.67-4.72,6.37,6.37,0,0,1,8.94,0A6.73,6.73,0,0,1,557.05,99Zm-2.24,0a5.18,5.18,0,0,0-1-3.35,3.47,3.47,0,0,0-2.87-1.31A3.53,3.53,0,0,0,548,95.66a5.82,5.82,0,0,0,0,6.67,3.5,3.5,0,0,0,2.88,1.31,3.44,3.44,0,0,0,2.87-1.31A5.13,5.13,0,0,0,554.81,99Z"/><path d="M571.45,99a6.65,6.65,0,0,1-1.68,4.68,6.4,6.4,0,0,1-8.94,0A6.64,6.64,0,0,1,559.16,99a6.73,6.73,0,0,1,1.67-4.72,6.37,6.37,0,0,1,8.94,0A6.73,6.73,0,0,1,571.45,99Zm-2.24,0a5.18,5.18,0,0,0-1-3.35,3.48,3.48,0,0,0-2.87-1.31,3.53,3.53,0,0,0-2.88,1.31,5.82,5.82,0,0,0,0,6.67,3.5,3.5,0,0,0,2.88,1.31,3.45,3.45,0,0,0,2.87-1.31A5.13,5.13,0,0,0,569.21,99Z"/><path d="M576.46,105.23h-2.08V92.75h2.08v2a4.72,4.72,0,0,1,4.06-2.3A3.59,3.59,0,0,1,584.26,95a5.08,5.08,0,0,1,4.42-2.52,4,4,0,0,1,3.11,1.22,4.89,4.89,0,0,1,1.11,3.41v8.14h-2.09V97.59c0-2.11-.87-3.16-2.61-3.16a3.32,3.32,0,0,0-2.52,1.06,3.87,3.87,0,0,0-1,2.75v7h-2.09V97.59c0-2.11-.87-3.16-2.61-3.16a3.28,3.28,0,0,0-2.52,1,3.89,3.89,0,0,0-1,2.76Z"/><path d="M607.76,98.67a6.2,6.2,0,0,1,0,.82h-9.79a4.3,4.3,0,0,0,1.22,3,4.1,4.1,0,0,0,3,1.09,4.82,4.82,0,0,0,3.69-1.63l1.4,1.37a6.73,6.73,0,0,1-5.14,2.18,6.12,6.12,0,0,1-4.68-1.81,6.52,6.52,0,0,1-1.7-4.67,6.78,6.78,0,0,1,1.67-4.7,6.19,6.19,0,0,1,8.77-.1A6.37,6.37,0,0,1,607.76,98.67ZM598,97.88h7.63a4,4,0,0,0-1.22-2.67,3.72,3.72,0,0,0-2.6-.95,3.64,3.64,0,0,0-2.65,1A3.91,3.91,0,0,0,598,97.88Z"/><path d="M618,93l-.67,2a3.1,3.1,0,0,0-1.44-.38,2.87,2.87,0,0,0-2.27,1.12,4.53,4.53,0,0,0-1,3v6.51h-2.08V92.75h2.08v2.11a4.25,4.25,0,0,1,3.63-2.35A3.05,3.05,0,0,1,618,93Z"/><path d="M629.53,101.53a3.52,3.52,0,0,1-1.37,2.89,5.83,5.83,0,0,1-3.75,1.09,6.12,6.12,0,0,1-5.52-2.66l1.54-1.15a4.79,4.79,0,0,0,4.11,2,3.88,3.88,0,0,0,2.11-.51,1.71,1.71,0,0,0,.79-1.5,1.25,1.25,0,0,0-.72-1.23,14.13,14.13,0,0,0-2.71-.72,9.16,9.16,0,0,1-3.32-1.17,2.75,2.75,0,0,1-1.15-2.45,3.12,3.12,0,0,1,1.36-2.74,5.72,5.72,0,0,1,3.32-.93,6.68,6.68,0,0,1,5.07,2.09l-1.4,1.32a4.61,4.61,0,0,0-3.69-1.61,3.83,3.83,0,0,0-1.87.42,1.34,1.34,0,0,0-.77,1.26,1.22,1.22,0,0,0,.18.65,1.67,1.67,0,0,0,.41.46,2.16,2.16,0,0,0,.7.34c.32.1.6.18.83.23l1,.19c.61.11,1.11.22,1.49.31a10.9,10.9,0,0,1,1.3.43,3.78,3.78,0,0,1,1.11.65,3,3,0,0,1,.69,1A3.17,3.17,0,0,1,629.53,101.53Z"/><path d="M643.49,107.12l-1.34,1.08a14.82,14.82,0,0,1,0-20.49l1.34,1.1A12.82,12.82,0,0,0,639.94,98,13,13,0,0,0,643.49,107.12Z"/><path d="M650.69,103.47a3.74,3.74,0,0,0,2.64-.9,3.17,3.17,0,0,0,1-2.48,3.13,3.13,0,0,0-1-2.41,3.62,3.62,0,0,0-2.58-.88,4.16,4.16,0,0,0-3.43,1.54L646,97.69l.53-8.45h9.21v2.07h-7.36L648,95.89a5.62,5.62,0,0,1,3.34-1,5.33,5.33,0,0,1,3.81,1.43,4.86,4.86,0,0,1,1.51,3.71,5.3,5.3,0,0,1-1.58,3.91,5.78,5.78,0,0,1-4.29,1.58,6.12,6.12,0,0,1-5.72-3l1.9-1.13A3.9,3.9,0,0,0,650.69,103.47Z"/><path d="M664.61,103.47a3.74,3.74,0,0,0,2.64-.9,3.17,3.17,0,0,0,1-2.48,3.13,3.13,0,0,0-1-2.41,3.62,3.62,0,0,0-2.58-.88,4.16,4.16,0,0,0-3.43,1.54l-1.37-.65.53-8.45h9.21v2.07h-7.36l-.39,4.58a5.62,5.62,0,0,1,3.34-1,5.35,5.35,0,0,1,3.81,1.43,4.86,4.86,0,0,1,1.51,3.71,5.3,5.3,0,0,1-1.58,3.91,5.78,5.78,0,0,1-4.29,1.58,6.12,6.12,0,0,1-5.72-3l1.9-1.13A3.9,3.9,0,0,0,664.61,103.47Z"/><path d="M679.76,99.42H673.3V97.55h6.46Z"/><path d="M694.08,89.24v1.83c-.65.84-1.29,1.73-1.92,2.65s-1.31,2-2.07,3.36a23.24,23.24,0,0,0-1.87,4.13,14.64,14.64,0,0,0-.83,4H685q.31-5.83,6.49-13.92h-9V89.24Z"/><path d="M701.86,97.91h-1.25V96h1.3a3.4,3.4,0,0,0,2.27-.69,2.41,2.41,0,0,0,.8-1.9,2.13,2.13,0,0,0-.8-1.76A3.43,3.43,0,0,0,702,91a4.39,4.39,0,0,0-3.82,1.92l-1.68-1.18A6.69,6.69,0,0,1,702.05,89a5.81,5.81,0,0,1,3.76,1.18,3.7,3.7,0,0,1,1.45,3,3.81,3.81,0,0,1-2.4,3.6A4.6,4.6,0,0,1,707,98.36a4,4,0,0,1,.73,2.33,4.44,4.44,0,0,1-1.55,3.46,6.06,6.06,0,0,1-4.16,1.36,6.23,6.23,0,0,1-5.95-3.24l1.94-1a4.12,4.12,0,0,0,4,2.28,3.65,3.65,0,0,0,2.49-.79,2.7,2.7,0,0,0,.89-2.14,2.35,2.35,0,0,0-.9-1.94A4.17,4.17,0,0,0,701.86,97.91Z"/><path d="M709.54,88.81l1.37-1.1A14.43,14.43,0,0,1,715,98a14.29,14.29,0,0,1-4.1,10.25l-1.37-1.08a13.5,13.5,0,0,0,0-18.31Z"/><path d="M471.15,122a7.91,7.91,0,0,1,3.41.74,6.7,6.7,0,0,1,2.59,2.1L475.42,126A5.12,5.12,0,0,0,471,124a4.26,4.26,0,0,0-2.3.56,1.92,1.92,0,0,0-.91,1.76,1.8,1.8,0,0,0,.21.89,2.4,2.4,0,0,0,.48.61,2.88,2.88,0,0,0,.84.46,8.19,8.19,0,0,0,1,.32l1.2.29c.74.18,1.34.33,1.81.47a12.39,12.39,0,0,1,1.58.6,5.24,5.24,0,0,1,1.35.85,3.66,3.66,0,0,1,.83,1.19,4,4,0,0,1,.34,1.67,4.37,4.37,0,0,1-1.66,3.55,6.78,6.78,0,0,1-4.42,1.34,8.42,8.42,0,0,1-3.9-.87,6.45,6.45,0,0,1-2.6-2.41l1.85-1.18a5.32,5.32,0,0,0,4.82,2.5,4.32,4.32,0,0,0,2.63-.74,2.35,2.35,0,0,0,1-2A2.62,2.62,0,0,0,475,133a1.35,1.35,0,0,0-.47-.63c-.23-.19-.43-.33-.6-.45a3.82,3.82,0,0,0-.91-.36l-1-.27c-.21-.06-.62-.15-1.21-.28a14,14,0,0,1-2-.53,7.87,7.87,0,0,1-1.63-.79,3.25,3.25,0,0,1-1.24-1.31,4.35,4.35,0,0,1,1.14-5.2A6.36,6.36,0,0,1,471.15,122Z"/><path d="M482.48,123.3h-2.09v-2.21h2.09Zm0,14.93h-2.09V125.75h2.09Z"/><path d="M488.38,138.23H486.3V121.09h2.08Z"/><path d="M503.46,131.67a6.2,6.2,0,0,1,0,.82h-9.79a4.3,4.3,0,0,0,1.22,3,4.08,4.08,0,0,0,3,1.09,4.84,4.84,0,0,0,3.69-1.63l1.39,1.37a6.71,6.71,0,0,1-5.13,2.18,6.09,6.09,0,0,1-4.68-1.81,6.52,6.52,0,0,1-1.71-4.67,6.83,6.83,0,0,1,1.67-4.7,5.66,5.66,0,0,1,4.45-1.87,5.57,5.57,0,0,1,4.32,1.77A6.33,6.33,0,0,1,503.46,131.67Zm-9.8-.79h7.64a4,4,0,0,0-1.23-2.67,3.7,3.7,0,0,0-2.59-1,3.62,3.62,0,0,0-2.65,1A3.87,3.87,0,0,0,493.66,130.88Z"/><path d="M508.35,138.23h-2.09V125.75h2.09v2.06a4.94,4.94,0,0,1,4.27-2.35,4.17,4.17,0,0,1,3.2,1.25,4.88,4.88,0,0,1,1.17,3.48v8H514.9v-7.56c0-2.16-.92-3.24-2.78-3.24a3.63,3.63,0,0,0-2.7,1.08,3.82,3.82,0,0,0-1.07,2.8Z"/><path d="M527,136.09l.89,1.58a4.27,4.27,0,0,1-2.71.84,3.55,3.55,0,0,1-3.27-1.58,4.64,4.64,0,0,1-.52-2.47v-7h-2.16v-1.72h2.16v-3.51h2.08v3.51h4v1.72h-4v7q0,2.16,1.92,2.16A2.53,2.53,0,0,0,527,136.09Z"/><path d="M539.58,134.53a3.52,3.52,0,0,1-1.37,2.89,5.83,5.83,0,0,1-3.75,1.09,6.12,6.12,0,0,1-5.52-2.66l1.54-1.15a4.78,4.78,0,0,0,4.1,2,3.89,3.89,0,0,0,2.12-.51,1.71,1.71,0,0,0,.79-1.5,1.25,1.25,0,0,0-.72-1.23,14.13,14.13,0,0,0-2.71-.72,9.16,9.16,0,0,1-3.32-1.17,2.75,2.75,0,0,1-1.15-2.45,3.12,3.12,0,0,1,1.36-2.74,5.72,5.72,0,0,1,3.32-.93,6.68,6.68,0,0,1,5.07,2.09l-1.4,1.32a4.61,4.61,0,0,0-3.69-1.61,3.83,3.83,0,0,0-1.87.42,1.34,1.34,0,0,0-.77,1.26,1.22,1.22,0,0,0,.18.65,1.67,1.67,0,0,0,.41.46,2.16,2.16,0,0,0,.7.34c.32.1.6.18.83.23l1,.19c.61.11,1.11.22,1.49.31a10.9,10.9,0,0,1,1.3.43,3.78,3.78,0,0,1,1.11.65,3,3,0,0,1,.69,1A3.17,3.17,0,0,1,539.58,134.53Z"/><path d="M553.54,140.12l-1.34,1.08a14.82,14.82,0,0,1,0-20.49l1.34,1.1A12.78,12.78,0,0,0,550,131,12.92,12.92,0,0,0,553.54,140.12Z"/><path d="M566.86,122.24v1.83c-.65.84-1.29,1.73-1.92,2.65s-1.31,2-2.07,3.36a23.29,23.29,0,0,0-1.88,4.13,15,15,0,0,0-.82,4h-2.43q.32-5.83,6.48-13.92h-9v-2.07Z"/><path d="M581.07,134.48h-2.35v3.75h-2.21v-3.75h-7.78v-1.85a26,26,0,0,0,2.43-5.5,17.17,17.17,0,0,0,.84-4.89h2.18a16.54,16.54,0,0,1-.9,5,24.82,24.82,0,0,1-2.43,5.32h5.66v-6.76h2.21v6.76h2.35Z"/><path d="M589.81,132.42h-6.46v-1.87h6.46Z"/><path d="M595.13,138.23a29.33,29.33,0,0,0,3.46-3.28,12.72,12.72,0,0,0,2.35-3.47,4.62,4.62,0,0,1-3.55,1.25,5,5,0,0,1-3.67-1.45,5.12,5.12,0,0,1-1.47-3.81,5.23,5.23,0,0,1,1.62-4,6,6,0,0,1,4.26-1.54,5.49,5.49,0,0,1,5.86,5.93,10,10,0,0,1-1.51,5.26,26.26,26.26,0,0,1-4.18,5.09Zm5.61-8.31a3.34,3.34,0,0,0,1-2.49,3.4,3.4,0,0,0-1-2.51,3.56,3.56,0,0,0-2.63-1,3.46,3.46,0,0,0-2.58,1,3.42,3.42,0,0,0-.92,2.51,3.35,3.35,0,0,0,.92,2.5,3.49,3.49,0,0,0,2.58.93A3.56,3.56,0,0,0,600.74,129.92Z"/><path d="M617.69,138.23H607.64v-1.85h4V124.91a11.92,11.92,0,0,1-4,1.17l-.26-1.77a9.31,9.31,0,0,0,4.85-2.07h1.7v14.14h3.79Z"/><path d="M619.59,121.81l1.37-1.1a14.43,14.43,0,0,1,4.1,10.24A14.29,14.29,0,0,1,621,141.2l-1.37-1.08a13.5,13.5,0,0,0,0-18.31Z"/><path d="M929.91,458.24v10a6,6,0,0,1-1.84,4.57,7.4,7.4,0,0,1-9.46,0,6,6,0,0,1-1.81-4.57v-10H919v10a4.11,4.11,0,0,0,1.16,3.06,4.25,4.25,0,0,0,3.14,1.14,4.37,4.37,0,0,0,3.17-1.14,4.08,4.08,0,0,0,1.17-3.06v-10Z"/><path d="M943.15,470.53a3.51,3.51,0,0,1-1.36,2.89,5.85,5.85,0,0,1-3.75,1.09,6.12,6.12,0,0,1-5.52-2.66l1.54-1.15a4.77,4.77,0,0,0,4.1,2,3.83,3.83,0,0,0,2.11-.51,1.7,1.7,0,0,0,.8-1.5,1.25,1.25,0,0,0-.72-1.23,14.07,14.07,0,0,0-2.72-.72,9.1,9.1,0,0,1-3.31-1.17,2.72,2.72,0,0,1-1.15-2.45,3.12,3.12,0,0,1,1.36-2.74,5.72,5.72,0,0,1,3.32-.93,6.66,6.66,0,0,1,5.06,2.09l-1.39,1.32a4.62,4.62,0,0,0-3.69-1.61,3.87,3.87,0,0,0-1.88.42,1.35,1.35,0,0,0-.76,1.26,1.22,1.22,0,0,0,.18.65,1.82,1.82,0,0,0,.4.46,2.35,2.35,0,0,0,.71.34c.32.1.6.18.83.23l1,.19c.61.11,1.1.22,1.49.31a11.52,11.52,0,0,1,1.3.43,3.91,3.91,0,0,1,1.11.65,3.12,3.12,0,0,1,.69,1A3.17,3.17,0,0,1,943.15,470.53Z"/><path d="M957.31,467.67a6.4,6.4,0,0,1,0,.82h-9.8a4.35,4.35,0,0,0,1.23,3,4.07,4.07,0,0,0,3,1.09,4.84,4.84,0,0,0,3.7-1.63l1.39,1.37a6.71,6.71,0,0,1-5.13,2.18A6.09,6.09,0,0,1,947,472.7a6.52,6.52,0,0,1-1.71-4.67,6.83,6.83,0,0,1,1.67-4.7,6.19,6.19,0,0,1,8.77-.1A6.32,6.32,0,0,1,957.31,467.67Zm-9.79-.79h7.63a4,4,0,0,0-1.22-2.67,3.72,3.72,0,0,0-2.59-.95,3.62,3.62,0,0,0-2.65,1A3.87,3.87,0,0,0,947.52,466.88Z"/><path d="M976.13,470.53a3.52,3.52,0,0,1-1.37,2.89,5.82,5.82,0,0,1-3.74,1.09,6.1,6.1,0,0,1-5.52-2.66L967,470.7a4.8,4.8,0,0,0,4.11,2,3.85,3.85,0,0,0,2.11-.51,1.69,1.69,0,0,0,.79-1.5,1.25,1.25,0,0,0-.72-1.23,13.91,13.91,0,0,0-2.71-.72,9,9,0,0,1-3.31-1.17,2.73,2.73,0,0,1-1.16-2.45,3.14,3.14,0,0,1,1.36-2.74,5.73,5.73,0,0,1,3.33-.93,6.68,6.68,0,0,1,5.06,2.09l-1.39,1.32a4.63,4.63,0,0,0-3.7-1.61,3.83,3.83,0,0,0-1.87.42,1.36,1.36,0,0,0-.77,1.26,1.22,1.22,0,0,0,.18.65,1.85,1.85,0,0,0,.41.46,2.23,2.23,0,0,0,.71.34c.32.1.59.18.83.23l1,.19c.61.11,1.1.22,1.49.31a11.42,11.42,0,0,1,1.29.43,4,4,0,0,1,1.12.65,3.1,3.1,0,0,1,.68,1A3.17,3.17,0,0,1,976.13,470.53Z"/><path d="M990.5,468a6.65,6.65,0,0,1-1.68,4.68,6.4,6.4,0,0,1-8.94,0,6.68,6.68,0,0,1-1.66-4.68,6.77,6.77,0,0,1,1.66-4.72,6.37,6.37,0,0,1,8.94,0A6.73,6.73,0,0,1,990.5,468Zm-2.23,0a5.24,5.24,0,0,0-1-3.35,3.81,3.81,0,0,0-5.75,0,5.78,5.78,0,0,0,0,6.67,3.81,3.81,0,0,0,5.75,0A5.19,5.19,0,0,0,988.27,468Z"/><path d="M1002.1,470.75l1.61,1.15a5.83,5.83,0,0,1-5.05,2.61,5.62,5.62,0,0,1-4.39-1.84,7.46,7.46,0,0,1,0-9.36,5.6,5.6,0,0,1,4.39-1.85,5.71,5.71,0,0,1,5,2.59l-1.56,1.25a3.73,3.73,0,0,0-3.33-1.95,3.49,3.49,0,0,0-2.85,1.31,5.7,5.7,0,0,0,0,6.65,3.46,3.46,0,0,0,2.82,1.31A3.9,3.9,0,0,0,1002.1,470.75Z"/><path d="M1008.38,459.3h-2.08v-2.21h2.08Zm0,14.93h-2.08V461.75h2.08Z"/><path d="M1023.31,472.59l.27,1.59a3.8,3.8,0,0,1-1.44.24,2.69,2.69,0,0,1-1.62-.49,2.18,2.18,0,0,1-.81-1.5,4.9,4.9,0,0,1-4.29,2.08,4.55,4.55,0,0,1-3.1-1,4,4,0,0,1-.86-4.28,2.92,2.92,0,0,1,.7-1,4.07,4.07,0,0,1,1.05-.64,5.25,5.25,0,0,1,1.13-.39c.33-.07.72-.14,1.15-.2l.8-.1.83-.11a6.19,6.19,0,0,0,.71-.13,2.49,2.49,0,0,0,1.15-.49,1,1,0,0,0,.36-.43,1.55,1.55,0,0,0,.11-.59,1.46,1.46,0,0,0-.84-1.39,4.29,4.29,0,0,0-2-.43,6.31,6.31,0,0,0-3.89,1.32l-1-1.59a8.66,8.66,0,0,1,5-1.58,5.57,5.57,0,0,1,3.53,1,3.65,3.65,0,0,1,1.29,3.07v5.9q0,1.35,1,1.35A1.21,1.21,0,0,0,1023.31,472.59Zm-3.81-3.16v-2.16a2.77,2.77,0,0,1-.52.51,2.07,2.07,0,0,1-.7.33l-.67.18c-.17,0-.45.08-.85.14l-.86.13a5.33,5.33,0,0,0-1.95.64,1.62,1.62,0,0,0-.65,1.47,1.84,1.84,0,0,0,.72,1.59,3.12,3.12,0,0,0,1.88.53,3.93,3.93,0,0,0,2.55-.84A3,3,0,0,0,1019.5,469.43Z"/><path d="M1027.9,474.23h-2.09V457.09h2.09Z"/><path d="M1040.28,474.23h-2.09V461.75h2.09v2a4.72,4.72,0,0,1,4-2.3,3.59,3.59,0,0,1,3.75,2.52,5,5,0,0,1,4.41-2.52,4,4,0,0,1,3.11,1.22,4.85,4.85,0,0,1,1.12,3.41v8.14h-2.09v-7.64c0-2.11-.87-3.16-2.62-3.16a3.35,3.35,0,0,0-2.52,1.06,3.86,3.86,0,0,0-1,2.75v7h-2.09v-7.64c0-2.11-.87-3.16-2.62-3.16a3.31,3.31,0,0,0-2.52,1.05,3.93,3.93,0,0,0-1,2.76Z"/><path d="M1071.57,467.67a6.4,6.4,0,0,1,0,.82h-9.8a4.35,4.35,0,0,0,1.23,3,4.07,4.07,0,0,0,3,1.09,4.84,4.84,0,0,0,3.7-1.63l1.39,1.37a6.71,6.71,0,0,1-5.13,2.18,6.09,6.09,0,0,1-4.68-1.81,6.52,6.52,0,0,1-1.71-4.67,6.83,6.83,0,0,1,1.67-4.7,5.66,5.66,0,0,1,4.45-1.87,5.6,5.6,0,0,1,4.32,1.77A6.32,6.32,0,0,1,1071.57,467.67Zm-9.79-.79h7.63a4,4,0,0,0-1.22-2.67,3.7,3.7,0,0,0-2.59-.95,3.62,3.62,0,0,0-2.65,1A3.87,3.87,0,0,0,1061.78,466.88Z"/><path d="M1085.86,474.23h-2.09v-2a5.53,5.53,0,0,1-8.62.48,7.8,7.8,0,0,1,0-9.36,5.5,5.5,0,0,1,8.62.5v-6.72h2.09Zm-3.16-2.94a5.09,5.09,0,0,0,1.07-3.3,5,5,0,0,0-1.07-3.29,3.64,3.64,0,0,0-3-1.3,3.46,3.46,0,0,0-2.9,1.29,5.12,5.12,0,0,0-1,3.3,5.2,5.2,0,0,0,1,3.31,3.46,3.46,0,0,0,2.9,1.29A3.64,3.64,0,0,0,1082.7,471.29Z"/><path d="M1091.69,459.3h-2.09v-2.21h2.09Zm0,14.93h-2.09V461.75h2.09Z"/><path d="M1106.62,472.59l.26,1.59a3.8,3.8,0,0,1-1.44.24,2.69,2.69,0,0,1-1.62-.49,2.18,2.18,0,0,1-.81-1.5,4.89,4.89,0,0,1-4.29,2.08,4.55,4.55,0,0,1-3.1-1,3.51,3.51,0,0,1-1.15-2.79,3.7,3.7,0,0,1,.29-1.49,2.94,2.94,0,0,1,.71-1,4,4,0,0,1,1-.64,5.44,5.44,0,0,1,1.13-.39c.33-.07.72-.14,1.15-.2l.8-.1.83-.11a6.19,6.19,0,0,0,.71-.13,3,3,0,0,0,.67-.2,2.45,2.45,0,0,0,.48-.29,1,1,0,0,0,.36-.43,1.55,1.55,0,0,0,.11-.59,1.46,1.46,0,0,0-.84-1.39,4.26,4.26,0,0,0-2-.43,6.31,6.31,0,0,0-3.89,1.32l-1-1.59a8.68,8.68,0,0,1,5-1.58,5.55,5.55,0,0,1,3.53,1,3.62,3.62,0,0,1,1.3,3.07v5.9c0,.9.32,1.35,1,1.35A1.26,1.26,0,0,0,1106.62,472.59Zm-3.82-3.16v-2.16a2.5,2.5,0,0,1-.52.51,2,2,0,0,1-.69.33l-.68.18c-.16,0-.45.08-.85.14l-.86.13a5.4,5.4,0,0,0-2,.64,1.62,1.62,0,0,0-.64,1.47,1.84,1.84,0,0,0,.72,1.59,3.09,3.09,0,0,0,1.87.53,3.92,3.92,0,0,0,2.55-.84A3,3,0,0,0,1102.8,469.43Z"/><rect class="cls-1" x="450" y="27" width="11" height="11"/><rect class="cls-2" x="450" y="56" width="11" height="11"/><rect class="cls-3" x="450" y="91" width="11" height="11"/><rect class="cls-4" x="450" y="124" width="11" height="11"/></g></svg>