<svg xmlns="http://www.w3.org/2000/svg" viewBox="0 0 1200 1006"><defs><style>.cls-1,.cls-4{fill:none;}.cls-2{fill:#808285;}.cls-3{fill:#f2f2f2;}.cls-4{stroke:#808285;stroke-linecap:round;stroke-miterlimit:10;stroke-width:2px;}.cls-5{fill:#4caf50;}.cls-6{fill-opacity:0;}.cls-7{fill:#ff5252;}</style></defs><title>Artboard 1 copy 3WHITE</title><g id="Diagrams"><rect class="cls-1" y="133" width="1200" height="79"/><path class="cls-2" d="M36.9,166.24v10a5.94,5.94,0,0,1-1.82,4.52,6.44,6.44,0,0,1-4.61,1.72,6.36,6.36,0,0,1-4.59-1.71,6,6,0,0,1-1.79-4.53v-10h1.68v10A4.51,4.51,0,0,0,27,179.63a4.63,4.63,0,0,0,3.43,1.28,4.74,4.74,0,0,0,3.46-1.28,4.48,4.48,0,0,0,1.29-3.36v-10Z"/><path class="cls-2" d="M49.79,178.67a3.45,3.45,0,0,1-1.28,2.79,5.45,5.45,0,0,1-3.54,1A6,6,0,0,1,39.76,180L41,179a4.72,4.72,0,0,0,4.06,2,4,4,0,0,0,2.3-.6,2,2,0,0,0,.89-1.75,1.37,1.37,0,0,0-.74-1.35,13.75,13.75,0,0,0-2.93-.83,8.62,8.62,0,0,1-3.1-1.14,2.6,2.6,0,0,1-1.08-2.32,3,3,0,0,1,1.29-2.61,5.3,5.3,0,0,1,3.13-.89,6.22,6.22,0,0,1,4.7,1.94l-1.1,1.13A4.45,4.45,0,0,0,44.78,171a4.15,4.15,0,0,0-2.06.47,1.55,1.55,0,0,0-.85,1.45,1.48,1.48,0,0,0,.79,1.39,8.44,8.44,0,0,0,2.4.74l1.41.3a11.94,11.94,0,0,1,1.22.4,3.63,3.63,0,0,1,1.13.62,3.28,3.28,0,0,1,.67.93A2.92,2.92,0,0,1,49.79,178.67Z"/><path class="cls-2" d="M63.74,175.67a4.67,4.67,0,0,1-.05.72h-10A5,5,0,0,0,55,179.77,4.35,4.35,0,0,0,58.24,181,4.81,4.81,0,0,0,62,179.32l1.08,1.08a6.22,6.22,0,0,1-4.82,2.11,5.8,5.8,0,0,1-4.5-1.81,6.57,6.57,0,0,1-1.67-4.62,6.82,6.82,0,0,1,1.62-4.64A5.41,5.41,0,0,1,58,169.58a5.34,5.34,0,0,1,4.17,1.75A6.23,6.23,0,0,1,63.74,175.67Zm-10-.6H62.1a4.31,4.31,0,0,0-1.33-3A4,4,0,0,0,57.93,171,4,4,0,0,0,55,172.17,4.49,4.49,0,0,0,53.75,175.07Z"/><path class="cls-2" d="M73.7,170.11l-.56,1.36a3.2,3.2,0,0,0-1.44-.36,3.09,3.09,0,0,0-2.41,1.2,4.92,4.92,0,0,0-1,3.29v6.63H66.74V169.87h1.53V172a4.39,4.39,0,0,1,3.7-2.4A3.05,3.05,0,0,1,73.7,170.11Z"/><path class="cls-2" d="M94.48,171.91h-3l-.81,4.65H93.5v1.06h-3l-.82,4.61H88.58l.81-4.61H85.24l-.82,4.61H83.3l.81-4.61H81.3v-1.06h3l.82-4.65H82.29v-1.06h3l.82-4.61h1.13l-.82,4.61h4.15l.82-4.61h1.13l-.82,4.61h2.81Zm-4.1,0H86.22l-.81,4.65h4.15Z"/><path class="cls-2" d="M107.61,182.23H97.94v-1.4H102v-12.4a9.15,9.15,0,0,1-1.81.74,12.86,12.86,0,0,1-2.32.53l-.22-1.37a9.32,9.32,0,0,0,4.75-2.09h1.32v14.59h3.87Z"/><rect class="cls-3" y="212" width="1200" height="79"/><rect class="cls-1" x="-220.22" y="401.22" width="1006" height="203.55" transform="translate(785.78 220.22) rotate(90)"/><rect class="cls-1" x="-17.3" y="401.22" width="1006" height="203.55" transform="translate(988.7 17.3) rotate(90)"/><rect class="cls-1" x="186.88" y="401.22" width="1006" height="203.55" transform="translate(1192.88 -186.88) rotate(90)"/><rect class="cls-1" x="391.05" y="401.22" width="1006" height="203.55" transform="translate(1397.05 -391.05) rotate(90)"/><rect class="cls-1" x="595.22" y="401.22" width="1006" height="203.55" transform="translate(1601.22 -595.22) rotate(90)"/><path class="cls-2" d="M36.9,245.24v10a5.94,5.94,0,0,1-1.82,4.52,6.44,6.44,0,0,1-4.61,1.72,6.36,6.36,0,0,1-4.59-1.71,6,6,0,0,1-1.79-4.53v-10h1.68v10A4.51,4.51,0,0,0,27,258.63a4.63,4.63,0,0,0,3.43,1.28,4.74,4.74,0,0,0,3.46-1.28,4.48,4.48,0,0,0,1.29-3.36v-10Z"/><path class="cls-2" d="M49.79,257.67a3.45,3.45,0,0,1-1.28,2.79A5.45,5.45,0,0,1,45,261.51,6,6,0,0,1,39.76,259L41,258a4.72,4.72,0,0,0,4.06,2,4,4,0,0,0,2.3-.6,2,2,0,0,0,.89-1.75,1.37,1.37,0,0,0-.74-1.35,13.75,13.75,0,0,0-2.93-.83,8.62,8.62,0,0,1-3.1-1.14,2.6,2.6,0,0,1-1.08-2.32,3,3,0,0,1,1.29-2.61,5.3,5.3,0,0,1,3.13-.89,6.22,6.22,0,0,1,4.7,1.94l-1.1,1.13A4.45,4.45,0,0,0,44.78,250a4.15,4.15,0,0,0-2.06.47,1.55,1.55,0,0,0-.85,1.45,1.48,1.48,0,0,0,.79,1.39,8.44,8.44,0,0,0,2.4.74l1.41.3a11.94,11.94,0,0,1,1.22.4,3.63,3.63,0,0,1,1.13.62,3.28,3.28,0,0,1,.67.93A2.92,2.92,0,0,1,49.79,257.67Z"/><path class="cls-2" d="M63.74,254.67a4.67,4.67,0,0,1-.05.72h-10A5,5,0,0,0,55,258.77,4.35,4.35,0,0,0,58.24,260,4.81,4.81,0,0,0,62,258.32l1.08,1.08a6.22,6.22,0,0,1-4.82,2.11,5.8,5.8,0,0,1-4.5-1.81,6.57,6.57,0,0,1-1.67-4.62,6.82,6.82,0,0,1,1.62-4.64A5.41,5.41,0,0,1,58,248.58a5.34,5.34,0,0,1,4.17,1.75A6.23,6.23,0,0,1,63.74,254.67Zm-10-.6H62.1a4.31,4.31,0,0,0-1.33-3A4,4,0,0,0,57.93,250,4,4,0,0,0,55,251.17,4.49,4.49,0,0,0,53.75,254.07Z"/><path class="cls-2" d="M73.7,249.11l-.56,1.36a3.2,3.2,0,0,0-1.44-.36,3.09,3.09,0,0,0-2.41,1.2,4.92,4.92,0,0,0-1,3.29v6.63H66.74V248.87h1.53V251a4.39,4.39,0,0,1,3.7-2.4A3.05,3.05,0,0,1,73.7,249.11Z"/><path class="cls-2" d="M94.48,250.91h-3l-.81,4.65H93.5v1.06h-3l-.82,4.61H88.58l.81-4.61H85.24l-.82,4.61H83.3l.81-4.61H81.3v-1.06h3l.82-4.65H82.29v-1.06h3l.82-4.61h1.13l-.82,4.61h4.15l.82-4.61h1.13l-.82,4.61h2.81Zm-4.1,0H86.22l-.81,4.65h4.15Z"/><path class="cls-2" d="M107.8,261.23H97v-1.37a65.88,65.88,0,0,0,6.59-6.17,6.21,6.21,0,0,0,1.81-3.89,3.06,3.06,0,0,0-.93-2.41,3.63,3.63,0,0,0-2.48-.83A4.5,4.5,0,0,0,98,248.79l-1.35-.93a6.27,6.27,0,0,1,5.4-2.91,5.21,5.21,0,0,1,3.64,1.32,4.47,4.47,0,0,1,1.45,3.48,6.64,6.64,0,0,1-1.68,4.24,46.32,46.32,0,0,1-6.07,5.65h8.4Z"/><rect class="cls-1" y="291" width="1200" height="79"/><path class="cls-2" d="M36.9,324.24v10a5.94,5.94,0,0,1-1.82,4.52,6.44,6.44,0,0,1-4.61,1.72,6.36,6.36,0,0,1-4.59-1.71,6,6,0,0,1-1.79-4.53v-10h1.68v10A4.51,4.51,0,0,0,27,337.63a4.63,4.63,0,0,0,3.43,1.28,4.74,4.74,0,0,0,3.46-1.28,4.48,4.48,0,0,0,1.29-3.36v-10Z"/><path class="cls-2" d="M49.79,336.67a3.45,3.45,0,0,1-1.28,2.79A5.45,5.45,0,0,1,45,340.51,6,6,0,0,1,39.76,338L41,337a4.72,4.72,0,0,0,4.06,2,4,4,0,0,0,2.3-.6,2,2,0,0,0,.89-1.75,1.37,1.37,0,0,0-.74-1.35,13.75,13.75,0,0,0-2.93-.83,8.62,8.62,0,0,1-3.1-1.14,2.6,2.6,0,0,1-1.08-2.32,3,3,0,0,1,1.29-2.61,5.3,5.3,0,0,1,3.13-.89,6.22,6.22,0,0,1,4.7,1.94l-1.1,1.13A4.45,4.45,0,0,0,44.78,329a4.15,4.15,0,0,0-2.06.47,1.55,1.55,0,0,0-.85,1.45,1.48,1.48,0,0,0,.79,1.39,8.44,8.44,0,0,0,2.4.74l1.41.3a11.94,11.94,0,0,1,1.22.4,3.63,3.63,0,0,1,1.13.62,3.28,3.28,0,0,1,.67.93A2.92,2.92,0,0,1,49.79,336.67Z"/><path class="cls-2" d="M63.74,333.67a4.67,4.67,0,0,1-.05.72h-10A5,5,0,0,0,55,337.77,4.35,4.35,0,0,0,58.24,339,4.81,4.81,0,0,0,62,337.32l1.08,1.08a6.22,6.22,0,0,1-4.82,2.11,5.8,5.8,0,0,1-4.5-1.81,6.57,6.57,0,0,1-1.67-4.62,6.82,6.82,0,0,1,1.62-4.64A5.41,5.41,0,0,1,58,327.58a5.34,5.34,0,0,1,4.17,1.75A6.23,6.23,0,0,1,63.74,333.67Zm-10-.6H62.1a4.31,4.31,0,0,0-1.33-3A4,4,0,0,0,57.93,329,4,4,0,0,0,55,330.17,4.49,4.49,0,0,0,53.75,333.07Z"/><path class="cls-2" d="M73.7,328.11l-.56,1.36a3.2,3.2,0,0,0-1.44-.36,3.09,3.09,0,0,0-2.41,1.2,4.92,4.92,0,0,0-1,3.29v6.63H66.74V327.87h1.53V330a4.39,4.39,0,0,1,3.7-2.4A3.05,3.05,0,0,1,73.7,328.11Z"/><path class="cls-2" d="M94.48,329.91h-3l-.81,4.65H93.5v1.06h-3l-.82,4.61H88.58l.81-4.61H85.24l-.82,4.61H83.3l.81-4.61H81.3v-1.06h3l.82-4.65H82.29v-1.06h3l.82-4.61h1.13l-.82,4.61h4.15l.82-4.61h1.13l-.82,4.61h2.81Zm-4.1,0H86.22l-.81,4.65h4.15Z"/><path class="cls-2" d="M102,332.69h-1.18v-1.58h1.27a3.58,3.58,0,0,0,2.45-.78,2.66,2.66,0,0,0,.89-2.1,2.36,2.36,0,0,0-.88-2,3.74,3.74,0,0,0-2.41-.71,4.73,4.73,0,0,0-4,1.85l-1.25-1a6.46,6.46,0,0,1,5.23-2.45,5.58,5.58,0,0,1,3.64,1.17,3.68,3.68,0,0,1,1.43,3,3.9,3.9,0,0,1-2.48,3.64,4.59,4.59,0,0,1,2.22,1.65,4,4,0,0,1,.74,2.34,4.39,4.39,0,0,1-1.52,3.43,5.73,5.73,0,0,1-4,1.34c-2.67,0-4.58-1-5.71-2.92l1.51-.94a4.36,4.36,0,0,0,4.2,2.26,3.87,3.87,0,0,0,2.72-.89,3.07,3.07,0,0,0,1-2.38,2.64,2.64,0,0,0-1-2.16A4.51,4.51,0,0,0,102,332.69Z"/><rect class="cls-3" y="370" width="1200" height="79"/><path class="cls-2" d="M36.9,403.24v10a5.94,5.94,0,0,1-1.82,4.52,6.44,6.44,0,0,1-4.61,1.72,6.36,6.36,0,0,1-4.59-1.71,6,6,0,0,1-1.79-4.53v-10h1.68v10A4.51,4.51,0,0,0,27,416.63a4.63,4.63,0,0,0,3.43,1.28,4.74,4.74,0,0,0,3.46-1.28,4.48,4.48,0,0,0,1.29-3.36v-10Z"/><path class="cls-2" d="M49.79,415.67a3.45,3.45,0,0,1-1.28,2.79A5.45,5.45,0,0,1,45,419.51,6,6,0,0,1,39.76,417L41,416a4.72,4.72,0,0,0,4.06,2,4,4,0,0,0,2.3-.6,2,2,0,0,0,.89-1.75,1.37,1.37,0,0,0-.74-1.35,13.75,13.75,0,0,0-2.93-.83,8.62,8.62,0,0,1-3.1-1.14,2.6,2.6,0,0,1-1.08-2.32,3,3,0,0,1,1.29-2.61,5.3,5.3,0,0,1,3.13-.89,6.22,6.22,0,0,1,4.7,1.94l-1.1,1.13A4.45,4.45,0,0,0,44.78,408a4.15,4.15,0,0,0-2.06.47,1.55,1.55,0,0,0-.85,1.45,1.48,1.48,0,0,0,.79,1.39,8.44,8.44,0,0,0,2.4.74l1.41.3a11.94,11.94,0,0,1,1.22.4,3.63,3.63,0,0,1,1.13.62,3.28,3.28,0,0,1,.67.93A2.92,2.92,0,0,1,49.79,415.67Z"/><path class="cls-2" d="M63.74,412.67a4.67,4.67,0,0,1-.05.72h-10A5,5,0,0,0,55,416.77,4.35,4.35,0,0,0,58.24,418,4.81,4.81,0,0,0,62,416.32l1.08,1.08a6.22,6.22,0,0,1-4.82,2.11,5.8,5.8,0,0,1-4.5-1.81,6.57,6.57,0,0,1-1.67-4.62,6.82,6.82,0,0,1,1.62-4.64A5.41,5.41,0,0,1,58,406.58a5.34,5.34,0,0,1,4.17,1.75A6.23,6.23,0,0,1,63.74,412.67Zm-10-.6H62.1a4.31,4.31,0,0,0-1.33-3A4,4,0,0,0,57.93,408,4,4,0,0,0,55,409.17,4.49,4.49,0,0,0,53.75,412.07Z"/><path class="cls-2" d="M73.7,407.11l-.56,1.36a3.2,3.2,0,0,0-1.44-.36,3.09,3.09,0,0,0-2.41,1.2,4.92,4.92,0,0,0-1,3.29v6.63H66.74V406.87h1.53V409a4.39,4.39,0,0,1,3.7-2.4A3.05,3.05,0,0,1,73.7,407.11Z"/><path class="cls-2" d="M94.48,408.91h-3l-.81,4.65H93.5v1.06h-3l-.82,4.61H88.58l.81-4.61H85.24l-.82,4.61H83.3l.81-4.61H81.3v-1.06h3l.82-4.65H82.29v-1.06h3l.82-4.61h1.13l-.82,4.61h4.15l.82-4.61h1.13l-.82,4.61h2.81Zm-4.1,0H86.22l-.81,4.65h4.15Z"/><path class="cls-2" d="M108.3,415.29h-2.44v3.94h-1.71v-3.94H96.28v-1.51a26.7,26.7,0,0,0,2.53-5.61,16.54,16.54,0,0,0,.88-4.93h1.73a17,17,0,0,1-.94,5.05A23.46,23.46,0,0,1,98,413.73h6.19v-6.86h1.71v6.86h2.44Z"/><rect class="cls-1" y="448" width="1200" height="79"/><path class="cls-2" d="M36.9,481.24v10a5.94,5.94,0,0,1-1.82,4.52,6.44,6.44,0,0,1-4.61,1.72,6.36,6.36,0,0,1-4.59-1.71,6,6,0,0,1-1.79-4.53v-10h1.68v10A4.51,4.51,0,0,0,27,494.63a4.63,4.63,0,0,0,3.43,1.28,4.74,4.74,0,0,0,3.46-1.28,4.48,4.48,0,0,0,1.29-3.36v-10Z"/><path class="cls-2" d="M49.79,493.67a3.45,3.45,0,0,1-1.28,2.79A5.45,5.45,0,0,1,45,497.51,6,6,0,0,1,39.76,495L41,494a4.72,4.72,0,0,0,4.06,2,4,4,0,0,0,2.3-.6,2,2,0,0,0,.89-1.75,1.37,1.37,0,0,0-.74-1.35,13.75,13.75,0,0,0-2.93-.83,8.62,8.62,0,0,1-3.1-1.14,2.6,2.6,0,0,1-1.08-2.32,3,3,0,0,1,1.29-2.61,5.3,5.3,0,0,1,3.13-.89,6.22,6.22,0,0,1,4.7,1.94l-1.1,1.13A4.45,4.45,0,0,0,44.78,486a4.15,4.15,0,0,0-2.06.47,1.55,1.55,0,0,0-.85,1.45,1.48,1.48,0,0,0,.79,1.39,8.44,8.44,0,0,0,2.4.74l1.41.3a11.94,11.94,0,0,1,1.22.4,3.63,3.63,0,0,1,1.13.62,3.28,3.28,0,0,1,.67.93A2.92,2.92,0,0,1,49.79,493.67Z"/><path class="cls-2" d="M63.74,490.67a4.67,4.67,0,0,1-.05.72h-10A5,5,0,0,0,55,494.77,4.35,4.35,0,0,0,58.24,496,4.81,4.81,0,0,0,62,494.32l1.08,1.08a6.22,6.22,0,0,1-4.82,2.11,5.8,5.8,0,0,1-4.5-1.81,6.57,6.57,0,0,1-1.67-4.62,6.82,6.82,0,0,1,1.62-4.64A5.41,5.41,0,0,1,58,484.58a5.34,5.34,0,0,1,4.17,1.75A6.23,6.23,0,0,1,63.74,490.67Zm-10-.6H62.1a4.31,4.31,0,0,0-1.33-3A4,4,0,0,0,57.93,486,4,4,0,0,0,55,487.17,4.49,4.49,0,0,0,53.75,490.07Z"/><path class="cls-2" d="M73.7,485.11l-.56,1.36a3.2,3.2,0,0,0-1.44-.36,3.09,3.09,0,0,0-2.41,1.2,4.92,4.92,0,0,0-1,3.29v6.63H66.74V484.87h1.53V487a4.39,4.39,0,0,1,3.7-2.4A3.05,3.05,0,0,1,73.7,485.11Z"/><path class="cls-2" d="M94.48,486.91h-3l-.81,4.65H93.5v1.06h-3l-.82,4.61H88.58l.81-4.61H85.24l-.82,4.61H83.3l.81-4.61H81.3v-1.06h3l.82-4.65H82.29v-1.06h3l.82-4.61h1.13l-.82,4.61h4.15l.82-4.61h1.13l-.82,4.61h2.81Zm-4.1,0H86.22l-.81,4.65h4.15Z"/><path class="cls-2" d="M102.09,495.91a4.06,4.06,0,0,0,2.88-1,3.56,3.56,0,0,0,1-2.73,3.47,3.47,0,0,0-1-2.64,3.89,3.89,0,0,0-2.79-1,4.34,4.34,0,0,0-3.62,1.6l-1.08-.57.53-8.38h8.85v1.59H99.52l-.41,5.23a5.79,5.79,0,0,1,3.46-1.06,5.24,5.24,0,0,1,3.78,1.43,4.9,4.9,0,0,1,1.47,3.68,5.24,5.24,0,0,1-1.54,3.84,5.6,5.6,0,0,1-4.14,1.56,5.93,5.93,0,0,1-5.55-2.92l1.51-.94A4.18,4.18,0,0,0,102.09,495.91Z"/><rect class="cls-3" y="520" width="1200" height="79"/><path class="cls-2" d="M36.9,560.24v10a5.94,5.94,0,0,1-1.82,4.52,6.44,6.44,0,0,1-4.61,1.72,6.36,6.36,0,0,1-4.59-1.71,6,6,0,0,1-1.79-4.53v-10h1.68v10A4.51,4.51,0,0,0,27,573.63a4.63,4.63,0,0,0,3.43,1.28,4.74,4.74,0,0,0,3.46-1.28,4.48,4.48,0,0,0,1.29-3.36v-10Z"/><path class="cls-2" d="M49.79,572.67a3.45,3.45,0,0,1-1.28,2.79,5.45,5.45,0,0,1-3.54,1A6,6,0,0,1,39.76,574L41,573a4.72,4.72,0,0,0,4.06,2,4,4,0,0,0,2.3-.6,2,2,0,0,0,.89-1.75,1.37,1.37,0,0,0-.74-1.35,13.75,13.75,0,0,0-2.93-.83,8.62,8.62,0,0,1-3.1-1.14,2.6,2.6,0,0,1-1.08-2.32,3,3,0,0,1,1.29-2.61,5.3,5.3,0,0,1,3.13-.89,6.22,6.22,0,0,1,4.7,1.94l-1.1,1.13A4.45,4.45,0,0,0,44.78,565a4.15,4.15,0,0,0-2.06.47,1.55,1.55,0,0,0-.85,1.45,1.48,1.48,0,0,0,.79,1.39,8.44,8.44,0,0,0,2.4.74l1.41.3a11.94,11.94,0,0,1,1.22.4,3.63,3.63,0,0,1,1.13.62,3.28,3.28,0,0,1,.67.93A2.92,2.92,0,0,1,49.79,572.67Z"/><path class="cls-2" d="M63.74,569.67a4.67,4.67,0,0,1-.05.72h-10A5,5,0,0,0,55,573.77,4.35,4.35,0,0,0,58.24,575,4.81,4.81,0,0,0,62,573.32l1.08,1.08a6.22,6.22,0,0,1-4.82,2.11,5.8,5.8,0,0,1-4.5-1.81,6.57,6.57,0,0,1-1.67-4.62,6.82,6.82,0,0,1,1.62-4.64A5.41,5.41,0,0,1,58,563.58a5.34,5.34,0,0,1,4.17,1.75A6.23,6.23,0,0,1,63.74,569.67Zm-10-.6H62.1a4.31,4.31,0,0,0-1.33-3A4,4,0,0,0,57.93,565,4,4,0,0,0,55,566.17,4.49,4.49,0,0,0,53.75,569.07Z"/><path class="cls-2" d="M73.7,564.11l-.56,1.36a3.2,3.2,0,0,0-1.44-.36,3.09,3.09,0,0,0-2.41,1.2,4.92,4.92,0,0,0-1,3.29v6.63H66.74V563.87h1.53V566a4.39,4.39,0,0,1,3.7-2.4A3.05,3.05,0,0,1,73.7,564.11Z"/><path class="cls-2" d="M94.48,565.91h-3l-.81,4.65H93.5v1.06h-3l-.82,4.61H88.58l.81-4.61H85.24l-.82,4.61H83.3l.81-4.61H81.3v-1.06h3l.82-4.65H82.29v-1.06h3l.82-4.61h1.13l-.82,4.61h4.15l.82-4.61h1.13l-.82,4.61h2.81Zm-4.1,0H86.22l-.81,4.65h4.15Z"/><path class="cls-2" d="M105,560.24a33.71,33.71,0,0,0-3.53,3.47A13,13,0,0,0,99,567.39a3.77,3.77,0,0,1,1.74-1.09A7.18,7.18,0,0,1,103,566a5.09,5.09,0,0,1,3.69,1.44,5,5,0,0,1,1.47,3.75,5.11,5.11,0,0,1-1.58,3.87,5.8,5.8,0,0,1-4.15,1.5A5.6,5.6,0,0,1,98.25,575a5.78,5.78,0,0,1-1.56-4.29,9.83,9.83,0,0,1,1.56-5.25,27.37,27.37,0,0,1,4.34-5.19Zm-6.53,11a3.6,3.6,0,0,0,1.06,2.7,4,4,0,0,0,2.9,1,3.87,3.87,0,0,0,2.87-1,3.65,3.65,0,0,0,1-2.7,3.61,3.61,0,0,0-1-2.69,3.91,3.91,0,0,0-2.87-1,4,4,0,0,0-2.9,1A3.57,3.57,0,0,0,98.46,571.19Z"/><rect class="cls-1" y="606" width="1200" height="79"/><path class="cls-2" d="M36.9,639.24v10a5.94,5.94,0,0,1-1.82,4.52,6.44,6.44,0,0,1-4.61,1.72,6.36,6.36,0,0,1-4.59-1.71,6,6,0,0,1-1.79-4.53v-10h1.68v10A4.51,4.51,0,0,0,27,652.63a4.63,4.63,0,0,0,3.43,1.28,4.74,4.74,0,0,0,3.46-1.28,4.48,4.48,0,0,0,1.29-3.36v-10Z"/><path class="cls-2" d="M49.79,651.67a3.45,3.45,0,0,1-1.28,2.79,5.45,5.45,0,0,1-3.54,1A6,6,0,0,1,39.76,653L41,652a4.72,4.72,0,0,0,4.06,2,4,4,0,0,0,2.3-.6,2,2,0,0,0,.89-1.75,1.37,1.37,0,0,0-.74-1.35,13.75,13.75,0,0,0-2.93-.83,8.62,8.62,0,0,1-3.1-1.14,2.6,2.6,0,0,1-1.08-2.32,3,3,0,0,1,1.29-2.61,5.3,5.3,0,0,1,3.13-.89,6.22,6.22,0,0,1,4.7,1.94l-1.1,1.13A4.45,4.45,0,0,0,44.78,644a4.15,4.15,0,0,0-2.06.47,1.55,1.55,0,0,0-.85,1.45,1.48,1.48,0,0,0,.79,1.39,8.44,8.44,0,0,0,2.4.74l1.41.3a11.94,11.94,0,0,1,1.22.4,3.63,3.63,0,0,1,1.13.62,3.28,3.28,0,0,1,.67.93A2.92,2.92,0,0,1,49.79,651.67Z"/><path class="cls-2" d="M63.74,648.67a4.67,4.67,0,0,1-.05.72h-10A5,5,0,0,0,55,652.77,4.35,4.35,0,0,0,58.24,654,4.81,4.81,0,0,0,62,652.32l1.08,1.08a6.22,6.22,0,0,1-4.82,2.11,5.8,5.8,0,0,1-4.5-1.81,6.57,6.57,0,0,1-1.67-4.62,6.82,6.82,0,0,1,1.62-4.64A5.41,5.41,0,0,1,58,642.58a5.34,5.34,0,0,1,4.17,1.75A6.23,6.23,0,0,1,63.74,648.67Zm-10-.6H62.1a4.31,4.31,0,0,0-1.33-3A4,4,0,0,0,57.93,644,4,4,0,0,0,55,645.17,4.49,4.49,0,0,0,53.75,648.07Z"/><path class="cls-2" d="M73.7,643.11l-.56,1.36a3.2,3.2,0,0,0-1.44-.36,3.09,3.09,0,0,0-2.41,1.2,4.92,4.92,0,0,0-1,3.29v6.63H66.74V642.87h1.53V645a4.39,4.39,0,0,1,3.7-2.4A3.05,3.05,0,0,1,73.7,643.11Z"/><path class="cls-2" d="M94.48,644.91h-3l-.81,4.65H93.5v1.06h-3l-.82,4.61H88.58l.81-4.61H85.24l-.82,4.61H83.3l.81-4.61H81.3v-1.06h3l.82-4.65H82.29v-1.06h3l.82-4.61h1.13l-.82,4.61h4.15l.82-4.61h1.13l-.82,4.61h2.81Zm-4.1,0H86.22l-.81,4.65h4.15Z"/><path class="cls-2" d="M108,639.24v1.54c-.63.77-1.27,1.64-1.94,2.61s-1.38,2.14-2.14,3.47a26.82,26.82,0,0,0-2,4.24,14.55,14.55,0,0,0-.92,4.13H99.21a14.66,14.66,0,0,1,.89-4A25.88,25.88,0,0,1,102,647c.76-1.35,1.46-2.5,2.09-3.46s1.28-1.87,1.93-2.73h-9.4v-1.59Z"/><rect class="cls-3" y="678" width="1200" height="79"/><path class="cls-2" d="M36.9,718.24v10a5.94,5.94,0,0,1-1.82,4.52,6.44,6.44,0,0,1-4.61,1.72,6.36,6.36,0,0,1-4.59-1.71,6,6,0,0,1-1.79-4.53v-10h1.68v10A4.51,4.51,0,0,0,27,731.63a4.63,4.63,0,0,0,3.43,1.28,4.74,4.74,0,0,0,3.46-1.28,4.48,4.48,0,0,0,1.29-3.36v-10Z"/><path class="cls-2" d="M49.79,730.67a3.45,3.45,0,0,1-1.28,2.79,5.45,5.45,0,0,1-3.54,1A6,6,0,0,1,39.76,732L41,731a4.72,4.72,0,0,0,4.06,2,4,4,0,0,0,2.3-.6,2,2,0,0,0,.89-1.75,1.37,1.37,0,0,0-.74-1.35,13.75,13.75,0,0,0-2.93-.83,8.62,8.62,0,0,1-3.1-1.14,2.6,2.6,0,0,1-1.08-2.32,3,3,0,0,1,1.29-2.61,5.3,5.3,0,0,1,3.13-.89,6.22,6.22,0,0,1,4.7,1.94l-1.1,1.13A4.45,4.45,0,0,0,44.78,723a4.15,4.15,0,0,0-2.06.47,1.55,1.55,0,0,0-.85,1.45,1.48,1.48,0,0,0,.79,1.39,8.44,8.44,0,0,0,2.4.74l1.41.3a11.94,11.94,0,0,1,1.22.4,3.63,3.63,0,0,1,1.13.62,3.28,3.28,0,0,1,.67.93A2.92,2.92,0,0,1,49.79,730.67Z"/><path class="cls-2" d="M63.74,727.67a4.67,4.67,0,0,1-.05.72h-10A5,5,0,0,0,55,731.77,4.35,4.35,0,0,0,58.24,733,4.81,4.81,0,0,0,62,731.32l1.08,1.08a6.22,6.22,0,0,1-4.82,2.11,5.8,5.8,0,0,1-4.5-1.81,6.57,6.57,0,0,1-1.67-4.62,6.82,6.82,0,0,1,1.62-4.64A5.41,5.41,0,0,1,58,721.58a5.34,5.34,0,0,1,4.17,1.75A6.23,6.23,0,0,1,63.74,727.67Zm-10-.6H62.1a4.31,4.31,0,0,0-1.33-3A4,4,0,0,0,57.93,723,4,4,0,0,0,55,724.17,4.49,4.49,0,0,0,53.75,727.07Z"/><path class="cls-2" d="M73.7,722.11l-.56,1.36a3.2,3.2,0,0,0-1.44-.36,3.09,3.09,0,0,0-2.41,1.2,4.92,4.92,0,0,0-1,3.29v6.63H66.74V721.87h1.53V724a4.39,4.39,0,0,1,3.7-2.4A3.05,3.05,0,0,1,73.7,722.11Z"/><path class="cls-2" d="M94.48,723.91h-3l-.81,4.65H93.5v1.06h-3l-.82,4.61H88.58l.81-4.61H85.24l-.82,4.61H83.3l.81-4.61H81.3v-1.06h3l.82-4.65H82.29v-1.06h3l.82-4.61h1.13l-.82,4.61h4.15l.82-4.61h1.13l-.82,4.61h2.81Zm-4.1,0H86.22l-.81,4.65h4.15Z"/><path class="cls-2" d="M106.42,733.17a7.07,7.07,0,0,1-8.28,0,4.35,4.35,0,0,1-1.55-3.43,4.49,4.49,0,0,1,.73-2.47,4.73,4.73,0,0,1,2.22-1.76,3.56,3.56,0,0,1-2.35-3.4,3.66,3.66,0,0,1,1.44-3,6.28,6.28,0,0,1,7.3,0,3.66,3.66,0,0,1,1.44,3,3.57,3.57,0,0,1-2.35,3.4,4.73,4.73,0,0,1,2.22,1.76,4.49,4.49,0,0,1,.73,2.47A4.35,4.35,0,0,1,106.42,733.17Zm-7-1.14a5.12,5.12,0,0,0,5.74,0,3,3,0,0,0,1-2.39,3,3,0,0,0-1-2.35,5.39,5.39,0,0,0-5.84,0,3.32,3.32,0,0,0,0,4.74Zm.43-7.88a3.87,3.87,0,0,0,2.44.69,3.82,3.82,0,0,0,2.43-.69,2.32,2.32,0,0,0,.88-1.92,2.37,2.37,0,0,0-.89-2,4.48,4.48,0,0,0-4.84,0,2.58,2.58,0,0,0,0,3.88Z"/><rect class="cls-1" y="764" width="1200" height="79"/><path class="cls-2" d="M36.9,797.24v10a5.94,5.94,0,0,1-1.82,4.52,6.44,6.44,0,0,1-4.61,1.72,6.36,6.36,0,0,1-4.59-1.71,6,6,0,0,1-1.79-4.53v-10h1.68v10A4.51,4.51,0,0,0,27,810.63a4.63,4.63,0,0,0,3.43,1.28,4.74,4.74,0,0,0,3.46-1.28,4.48,4.48,0,0,0,1.29-3.36v-10Z"/><path class="cls-2" d="M49.79,809.67a3.45,3.45,0,0,1-1.28,2.79,5.45,5.45,0,0,1-3.54,1A6,6,0,0,1,39.76,811L41,810a4.72,4.72,0,0,0,4.06,2,4,4,0,0,0,2.3-.6,2,2,0,0,0,.89-1.75,1.37,1.37,0,0,0-.74-1.35,13.75,13.75,0,0,0-2.93-.83,8.62,8.62,0,0,1-3.1-1.14,2.6,2.6,0,0,1-1.08-2.32,3,3,0,0,1,1.29-2.61,5.3,5.3,0,0,1,3.13-.89,6.22,6.22,0,0,1,4.7,1.94l-1.1,1.13A4.45,4.45,0,0,0,44.78,802a4.15,4.15,0,0,0-2.06.47,1.55,1.55,0,0,0-.85,1.45,1.48,1.48,0,0,0,.79,1.39,8.44,8.44,0,0,0,2.4.74l1.41.3a11.94,11.94,0,0,1,1.22.4,3.63,3.63,0,0,1,1.13.62,3.28,3.28,0,0,1,.67.93A2.92,2.92,0,0,1,49.79,809.67Z"/><path class="cls-2" d="M63.74,806.67a4.67,4.67,0,0,1-.05.72h-10A5,5,0,0,0,55,810.77,4.35,4.35,0,0,0,58.24,812,4.81,4.81,0,0,0,62,810.32l1.08,1.08a6.22,6.22,0,0,1-4.82,2.11,5.8,5.8,0,0,1-4.5-1.81,6.57,6.57,0,0,1-1.67-4.62,6.82,6.82,0,0,1,1.62-4.64A5.41,5.41,0,0,1,58,800.58a5.34,5.34,0,0,1,4.17,1.75A6.23,6.23,0,0,1,63.74,806.67Zm-10-.6H62.1a4.31,4.31,0,0,0-1.33-3A4,4,0,0,0,57.93,802,4,4,0,0,0,55,803.17,4.49,4.49,0,0,0,53.75,806.07Z"/><path class="cls-2" d="M73.7,801.11l-.56,1.36a3.2,3.2,0,0,0-1.44-.36,3.09,3.09,0,0,0-2.41,1.2,4.92,4.92,0,0,0-1,3.29v6.63H66.74V800.87h1.53V803a4.39,4.39,0,0,1,3.7-2.4A3.05,3.05,0,0,1,73.7,801.11Z"/><path class="cls-2" d="M94.48,802.91h-3l-.81,4.65H93.5v1.06h-3l-.82,4.61H88.58l.81-4.61H85.24l-.82,4.61H83.3l.81-4.61H81.3v-1.06h3l.82-4.65H82.29v-1.06h3l.82-4.61h1.13l-.82,4.61h4.15l.82-4.61h1.13l-.82,4.61h2.81Zm-4.1,0H86.22l-.81,4.65h4.15Z"/><path class="cls-2" d="M99.59,813.23a33.73,33.73,0,0,0,3.53-3.47,12.67,12.67,0,0,0,2.42-3.69,3.78,3.78,0,0,1-1.74,1.1,7.12,7.12,0,0,1-2.17.34A5.05,5.05,0,0,1,98,806.07a5,5,0,0,1-1.48-3.74,5.1,5.1,0,0,1,1.59-3.88,5.78,5.78,0,0,1,4.15-1.5,5.64,5.64,0,0,1,4.13,1.55,5.77,5.77,0,0,1,1.56,4.29,9.83,9.83,0,0,1-1.56,5.25,27.45,27.45,0,0,1-4.35,5.19Zm6.53-11a3.56,3.56,0,0,0-1.06-2.7,4,4,0,0,0-2.9-1,3.89,3.89,0,0,0-2.87,1,3.65,3.65,0,0,0-1,2.7,3.61,3.61,0,0,0,1,2.69,3.92,3.92,0,0,0,2.87,1,4,4,0,0,0,2.9-1A3.53,3.53,0,0,0,106.12,802.28Z"/><rect class="cls-3" y="841" width="1200" height="79"/><path class="cls-2" d="M36.9,876.24v10a5.94,5.94,0,0,1-1.82,4.52,6.44,6.44,0,0,1-4.61,1.72,6.36,6.36,0,0,1-4.59-1.71,6,6,0,0,1-1.79-4.53v-10h1.68v10A4.51,4.51,0,0,0,27,889.63a4.63,4.63,0,0,0,3.43,1.28,4.74,4.74,0,0,0,3.46-1.28,4.48,4.48,0,0,0,1.29-3.36v-10Z"/><path class="cls-2" d="M49.79,888.67a3.45,3.45,0,0,1-1.28,2.79,5.45,5.45,0,0,1-3.54,1A6,6,0,0,1,39.76,890L41,889a4.72,4.72,0,0,0,4.06,2,4,4,0,0,0,2.3-.6,2,2,0,0,0,.89-1.75,1.37,1.37,0,0,0-.74-1.35,13.75,13.75,0,0,0-2.93-.83,8.62,8.62,0,0,1-3.1-1.14,2.6,2.6,0,0,1-1.08-2.32,3,3,0,0,1,1.29-2.61,5.3,5.3,0,0,1,3.13-.89,6.22,6.22,0,0,1,4.7,1.94l-1.1,1.13A4.45,4.45,0,0,0,44.78,881a4.15,4.15,0,0,0-2.06.47,1.55,1.55,0,0,0-.85,1.45,1.48,1.48,0,0,0,.79,1.39,8.44,8.44,0,0,0,2.4.74l1.41.3a11.94,11.94,0,0,1,1.22.4,3.63,3.63,0,0,1,1.13.62,3.28,3.28,0,0,1,.67.93A2.92,2.92,0,0,1,49.79,888.67Z"/><path class="cls-2" d="M63.74,885.67a4.67,4.67,0,0,1-.05.72h-10A5,5,0,0,0,55,889.77,4.35,4.35,0,0,0,58.24,891,4.81,4.81,0,0,0,62,889.32l1.08,1.08a6.22,6.22,0,0,1-4.82,2.11,5.8,5.8,0,0,1-4.5-1.81,6.57,6.57,0,0,1-1.67-4.62,6.82,6.82,0,0,1,1.62-4.64A5.41,5.41,0,0,1,58,879.58a5.34,5.34,0,0,1,4.17,1.75A6.23,6.23,0,0,1,63.74,885.67Zm-10-.6H62.1a4.31,4.31,0,0,0-1.33-3A4,4,0,0,0,57.93,881,4,4,0,0,0,55,882.17,4.49,4.49,0,0,0,53.75,885.07Z"/><path class="cls-2" d="M73.7,880.11l-.56,1.36a3.2,3.2,0,0,0-1.44-.36,3.09,3.09,0,0,0-2.41,1.2,4.92,4.92,0,0,0-1,3.29v6.63H66.74V879.87h1.53V882a4.39,4.39,0,0,1,3.7-2.4A3.05,3.05,0,0,1,73.7,880.11Z"/><path class="cls-2" d="M94.48,881.91h-3l-.81,4.65H93.5v1.06h-3l-.82,4.61H88.58l.81-4.61H85.24l-.82,4.61H83.3l.81-4.61H81.3v-1.06h3l.82-4.65H82.29v-1.06h3l.82-4.61h1.13l-.82,4.61h4.15l.82-4.61h1.13l-.82,4.61h2.81Zm-4.1,0H86.22l-.81,4.65h4.15Z"/><path class="cls-2" d="M107.61,892.23H97.94v-1.4H102v-12.4a9.15,9.15,0,0,1-1.81.74,12.86,12.86,0,0,1-2.32.53l-.22-1.37a9.32,9.32,0,0,0,4.75-2.09h1.32v14.59h3.87Z"/><path class="cls-2" d="M121.42,881.21a16.48,16.48,0,0,1,0,6,9.93,9.93,0,0,1-.89,2.61,4.76,4.76,0,0,1-1.75,1.94,5.65,5.65,0,0,1-5.45,0,4.78,4.78,0,0,1-1.76-1.94,9.6,9.6,0,0,1-.9-2.61,16.48,16.48,0,0,1,0-6,10,10,0,0,1,.9-2.63,4.63,4.63,0,0,1,1.76-1.93,5.65,5.65,0,0,1,5.45,0,4.61,4.61,0,0,1,1.75,1.93A10.33,10.33,0,0,1,121.42,881.21Zm-1.5,3q0-6.74-3.86-6.74c-2.6,0-3.89,2.25-3.89,6.74s1.29,6.77,3.89,6.77S119.92,888.75,119.92,884.23Z"/><rect class="cls-1" y="922" width="1200" height="79"/><path d="M29.15,955a7.91,7.91,0,0,1,3.41.74,6.7,6.7,0,0,1,2.59,2.1L33.42,959A5.12,5.12,0,0,0,29,957a4.26,4.26,0,0,0-2.3.56,1.92,1.92,0,0,0-.91,1.76,1.8,1.8,0,0,0,.21.89,2.4,2.4,0,0,0,.48.61,2.88,2.88,0,0,0,.84.46,8.19,8.19,0,0,0,1,.32l1.2.29c.74.18,1.34.33,1.81.47a12.39,12.39,0,0,1,1.58.6,5.24,5.24,0,0,1,1.35.85,3.66,3.66,0,0,1,.83,1.19,4,4,0,0,1,.34,1.67,4.37,4.37,0,0,1-1.66,3.55,6.78,6.78,0,0,1-4.42,1.34,8.42,8.42,0,0,1-3.9-.87,6.45,6.45,0,0,1-2.6-2.41l1.85-1.18a5.31,5.31,0,0,0,4.82,2.49,4.32,4.32,0,0,0,2.63-.73,2.35,2.35,0,0,0,1-2A2.62,2.62,0,0,0,33,966a1.35,1.35,0,0,0-.47-.63c-.23-.19-.43-.33-.6-.45a3.82,3.82,0,0,0-.91-.36l-1-.27c-.21-.06-.62-.15-1.21-.28a14,14,0,0,1-2-.53,7.87,7.87,0,0,1-1.63-.79A3.25,3.25,0,0,1,24,961.37a4.35,4.35,0,0,1,1.14-5.2A6.36,6.36,0,0,1,29.15,955Z"/><path d="M46.89,958.75H49v12.48H46.89v-2a5,5,0,0,1-4.27,2.32,4.2,4.2,0,0,1-3.2-1.24,4.88,4.88,0,0,1-1.17-3.46v-8.06h2.09v7.58q0,3.24,2.76,3.24a3.69,3.69,0,0,0,2.71-1.08,3.81,3.81,0,0,0,1.08-2.81Z"/><path d="M61.38,967.75,63,968.9a5.8,5.8,0,0,1-5,2.61,5.61,5.61,0,0,1-4.39-1.84,7.43,7.43,0,0,1,0-9.36A5.58,5.58,0,0,1,58,958.46a5.72,5.72,0,0,1,5,2.59l-1.56,1.25A3.73,3.73,0,0,0,58,960.35a3.49,3.49,0,0,0-2.84,1.31,5.7,5.7,0,0,0,0,6.65A3.46,3.46,0,0,0,58,969.62,3.88,3.88,0,0,0,61.38,967.75Z"/><path d="M74.1,967.75l1.61,1.15a5.8,5.8,0,0,1-5,2.61,5.61,5.61,0,0,1-4.39-1.84,7.43,7.43,0,0,1,0-9.36,5.58,5.58,0,0,1,4.39-1.85,5.72,5.72,0,0,1,5,2.59l-1.56,1.25a3.73,3.73,0,0,0-3.34-1.95,3.49,3.49,0,0,0-2.84,1.31,5.7,5.7,0,0,0,0,6.65,3.46,3.46,0,0,0,2.82,1.31A3.88,3.88,0,0,0,74.1,967.75Z"/><path d="M89.42,964.67a6.2,6.2,0,0,1,0,.82H79.58a4.3,4.3,0,0,0,1.22,3,4.08,4.08,0,0,0,3,1.09A4.84,4.84,0,0,0,87.47,968l1.39,1.37a6.71,6.71,0,0,1-5.13,2.18,6.09,6.09,0,0,1-4.68-1.81A6.52,6.52,0,0,1,77.34,965a6.83,6.83,0,0,1,1.67-4.7,5.66,5.66,0,0,1,4.45-1.87,5.59,5.59,0,0,1,4.32,1.77A6.33,6.33,0,0,1,89.42,964.67Zm-9.8-.79h7.63A4,4,0,0,0,86,961.21a3.7,3.7,0,0,0-2.59-1,3.62,3.62,0,0,0-2.65,1A3.87,3.87,0,0,0,79.62,963.88Z"/><path d="M101.75,967.53a3.52,3.52,0,0,1-1.37,2.89,5.82,5.82,0,0,1-3.74,1.09,6.12,6.12,0,0,1-5.52-2.66l1.54-1.15a4.77,4.77,0,0,0,4.1,2,3.85,3.85,0,0,0,2.11-.51,1.69,1.69,0,0,0,.79-1.5,1.25,1.25,0,0,0-.72-1.23,13.91,13.91,0,0,0-2.71-.72,9.1,9.1,0,0,1-3.31-1.17,2.72,2.72,0,0,1-1.15-2.45,3.13,3.13,0,0,1,1.35-2.74,5.75,5.75,0,0,1,3.33-.93,6.69,6.69,0,0,1,5.06,2.08l-1.39,1.33a4.63,4.63,0,0,0-3.7-1.61,3.86,3.86,0,0,0-1.87.42,1.36,1.36,0,0,0-.77,1.26,1.22,1.22,0,0,0,.18.65,1.85,1.85,0,0,0,.41.46,2.23,2.23,0,0,0,.71.34c.32.1.6.18.83.23l1,.19c.61.11,1.1.22,1.49.31a11.42,11.42,0,0,1,1.29.43,3.84,3.84,0,0,1,1.12.65,3.1,3.1,0,0,1,.68,1A3,3,0,0,1,101.75,967.53Z"/><path d="M124.21,971.23h-2.54l-3.41-6.44h-4.58v6.44h-2.26v-16h7a5.75,5.75,0,0,1,3.9,1.27,4.31,4.31,0,0,1,1.45,3.41,4.38,4.38,0,0,1-.9,2.77,5.1,5.1,0,0,1-2.39,1.7Zm-2.75-11.14a2.59,2.59,0,0,0-.86-2,3.24,3.24,0,0,0-2.24-.75h-4.68v5.52h4.75a3.18,3.18,0,0,0,2.2-.76A2.55,2.55,0,0,0,121.46,960.09Z"/><path d="M138.18,969.59l.27,1.59a3.8,3.8,0,0,1-1.44.24,2.69,2.69,0,0,1-1.62-.49,2.18,2.18,0,0,1-.81-1.5,4.9,4.9,0,0,1-4.29,2.08,4.55,4.55,0,0,1-3.1-1,4,4,0,0,1-.86-4.28,2.81,2.81,0,0,1,.71-1,3.84,3.84,0,0,1,1-.64,5.25,5.25,0,0,1,1.13-.39c.33-.07.72-.14,1.15-.2l.8-.1.83-.11a6.19,6.19,0,0,0,.71-.13,2.49,2.49,0,0,0,1.15-.49,1,1,0,0,0,.36-.43,1.55,1.55,0,0,0,.11-.59,1.46,1.46,0,0,0-.84-1.39,4.29,4.29,0,0,0-2-.43,6.31,6.31,0,0,0-3.89,1.32l-1-1.59a8.66,8.66,0,0,1,5-1.58,5.57,5.57,0,0,1,3.53,1,3.65,3.65,0,0,1,1.3,3.07v5.9c0,.9.32,1.35,1,1.35A1.21,1.21,0,0,0,138.18,969.59Zm-3.81-3.16v-2.16a2.5,2.5,0,0,1-.52.51,2.07,2.07,0,0,1-.7.33l-.67.18c-.17,0-.45.08-.85.14l-.86.13a5.33,5.33,0,0,0-2,.64,1.62,1.62,0,0,0-.65,1.47,1.86,1.86,0,0,0,.72,1.59,3.14,3.14,0,0,0,1.88.53,3.92,3.92,0,0,0,2.55-.84A3,3,0,0,0,134.37,966.43Z"/><path d="M147,969.09l.88,1.58a4.27,4.27,0,0,1-2.71.84,3.52,3.52,0,0,1-3.26-1.58,4.63,4.63,0,0,1-.53-2.47v-7h-2.16v-1.72h2.16v-3.51h2.09v3.51h4v1.72h-4v7q0,2.16,1.92,2.16A2.55,2.55,0,0,0,147,969.09Z"/><path d="M161.32,964.67a6.2,6.2,0,0,1,0,.82h-9.79a4.3,4.3,0,0,0,1.22,3,4.1,4.1,0,0,0,3,1.09,4.86,4.86,0,0,0,3.7-1.63l1.39,1.37a6.73,6.73,0,0,1-5.14,2.18A6.12,6.12,0,0,1,151,969.7a6.52,6.52,0,0,1-1.7-4.67,6.82,6.82,0,0,1,1.66-4.7,5.68,5.68,0,0,1,4.46-1.87,5.6,5.6,0,0,1,4.32,1.77A6.37,6.37,0,0,1,161.32,964.67Zm-9.79-.79h7.63a3.91,3.91,0,0,0-1.23-2.67,3.68,3.68,0,0,0-2.59-1,3.64,3.64,0,0,0-2.65,1A3.86,3.86,0,0,0,151.53,963.88Z"/><path d="M269.52,955.24a29.33,29.33,0,0,0-3.46,3.28,12.57,12.57,0,0,0-2.35,3.47,4.58,4.58,0,0,1,3.55-1.25,5,5,0,0,1,3.67,1.45,5.12,5.12,0,0,1,1.47,3.8,5.25,5.25,0,0,1-1.62,4,6,6,0,0,1-4.26,1.53,5.47,5.47,0,0,1-5.86-5.92,10.11,10.11,0,0,1,1.5-5.27,24.77,24.77,0,0,1,4.19-5.08Zm-5.61,8.3a3.78,3.78,0,0,0,0,5,3.56,3.56,0,0,0,2.63,1,3.46,3.46,0,0,0,2.58-1,3.88,3.88,0,0,0,0-5,3.52,3.52,0,0,0-2.58-.92A3.59,3.59,0,0,0,263.91,963.54Z"/><path d="M286.15,963.23a15.31,15.31,0,0,1-.29,3,9.93,9.93,0,0,1-.92,2.62,5,5,0,0,1-1.81,1.92,6,6,0,0,1-5.62,0,4.84,4.84,0,0,1-1.81-1.92,9.6,9.6,0,0,1-.93-2.62,15.31,15.31,0,0,1-.29-3,15.09,15.09,0,0,1,.29-3,9.85,9.85,0,0,1,.93-2.62,4.59,4.59,0,0,1,1.81-1.92,6,6,0,0,1,5.62,0,4.72,4.72,0,0,1,1.81,1.92,10.19,10.19,0,0,1,.92,2.62A15.09,15.09,0,0,1,286.15,963.23Zm-2.33,0q0-6.33-3.5-6.33c-2.36,0-3.53,2.11-3.53,6.33s1.17,6.36,3.53,6.36S283.82,967.47,283.82,963.23Z"/><path d="M295.65,958.94a4,4,0,0,1-1,2.83,3.83,3.83,0,0,1-5.43,0,4,4,0,0,1-1.05-2.83,3.94,3.94,0,0,1,1.05-2.8,3.88,3.88,0,0,1,5.43,0A3.94,3.94,0,0,1,295.65,958.94Zm-1.49,0a2.47,2.47,0,0,0-.63-1.73,2.32,2.32,0,0,0-3.31,0,2.41,2.41,0,0,0-.64,1.74,2.51,2.51,0,0,0,.64,1.76,2.3,2.3,0,0,0,3.32,0A2.54,2.54,0,0,0,294.16,958.94Zm7.25-3.7-8.33,16h-1.65l8.3-16Zm3.31,12.27a4,4,0,0,1-1,2.82,3.57,3.57,0,0,1-2.72,1.11,3.53,3.53,0,0,1-2.7-1.13,4.2,4.2,0,0,1,0-5.6,3.84,3.84,0,0,1,5.42,0A3.92,3.92,0,0,1,304.72,967.51Zm-2.09,1.76a2.77,2.77,0,0,0,0-3.52,2.19,2.19,0,0,0-1.67-.69,2.09,2.09,0,0,0-1.65.71,2.52,2.52,0,0,0-.63,1.74,2.55,2.55,0,0,0,.63,1.76A2.13,2.13,0,0,0,301,970,2.17,2.17,0,0,0,302.63,969.27Z"/><path d="M473.67,970.17a7.48,7.48,0,0,1-8.56,0,4.34,4.34,0,0,1-1.59-3.45,4.29,4.29,0,0,1,.73-2.44,4.65,4.65,0,0,1,2.15-1.71,3.54,3.54,0,0,1-2.28-3.41,3.66,3.66,0,0,1,1.5-3,6.69,6.69,0,0,1,7.56,0,3.66,3.66,0,0,1,1.5,3,3.56,3.56,0,0,1-2.31,3.41,4.67,4.67,0,0,1,2.16,1.69,4.57,4.57,0,0,1-.86,5.92Zm-4.27-.6a3.88,3.88,0,0,0,2.59-.8,2.76,2.76,0,0,0,.93-2.2,2.68,2.68,0,0,0-.9-2.17,4.81,4.81,0,0,0-5.25,0,2.71,2.71,0,0,0-.9,2.17,2.79,2.79,0,0,0,.92,2.2A3.9,3.9,0,0,0,469.4,969.57Zm-2.19-8.46a4,4,0,0,0,4.37,0,2.15,2.15,0,0,0,.79-1.79,2.19,2.19,0,0,0-.8-1.8,4,4,0,0,0-4.35,0,2.19,2.19,0,0,0-.8,1.8A2.15,2.15,0,0,0,467.21,961.11Z"/><path d="M489.15,963.23a15.31,15.31,0,0,1-.29,3,9.93,9.93,0,0,1-.92,2.62,5,5,0,0,1-1.81,1.92,6,6,0,0,1-5.62,0,4.84,4.84,0,0,1-1.81-1.92,9.6,9.6,0,0,1-.93-2.62,15.31,15.31,0,0,1-.29-3,15.09,15.09,0,0,1,.29-3,9.85,9.85,0,0,1,.93-2.62,4.59,4.59,0,0,1,1.81-1.92,6,6,0,0,1,5.62,0,4.72,4.72,0,0,1,1.81,1.92,10.19,10.19,0,0,1,.92,2.62A15.09,15.09,0,0,1,489.15,963.23Zm-2.33,0q0-6.33-3.5-6.33c-2.36,0-3.53,2.11-3.53,6.33s1.17,6.36,3.53,6.36S486.82,967.47,486.82,963.23Z"/><path d="M498.65,958.94a4,4,0,0,1-1,2.83,3.83,3.83,0,0,1-5.43,0,4,4,0,0,1-1.05-2.83,3.94,3.94,0,0,1,1.05-2.8,3.88,3.88,0,0,1,5.43,0A3.94,3.94,0,0,1,498.65,958.94Zm-1.49,0a2.47,2.47,0,0,0-.63-1.73,2.32,2.32,0,0,0-3.31,0,2.41,2.41,0,0,0-.64,1.74,2.51,2.51,0,0,0,.64,1.76,2.3,2.3,0,0,0,3.32,0A2.54,2.54,0,0,0,497.16,958.94Zm7.25-3.7-8.33,16h-1.65l8.3-16Zm3.31,12.27a4,4,0,0,1-1,2.82,3.57,3.57,0,0,1-2.72,1.11,3.53,3.53,0,0,1-2.7-1.13,4.2,4.2,0,0,1,0-5.6,3.84,3.84,0,0,1,5.42,0A3.92,3.92,0,0,1,507.72,967.51Zm-2.09,1.76a2.77,2.77,0,0,0,0-3.52,2.19,2.19,0,0,0-1.67-.69,2.09,2.09,0,0,0-1.65.71,2.52,2.52,0,0,0-.63,1.74,2.55,2.55,0,0,0,.63,1.76A2.13,2.13,0,0,0,504,970,2.17,2.17,0,0,0,505.63,969.27Z"/><path d="M679.28,955.24v1.83c-.66.84-1.3,1.73-1.92,2.65s-1.32,2-2.08,3.36a23.24,23.24,0,0,0-1.87,4.13,14.64,14.64,0,0,0-.83,4h-2.42q.3-5.84,6.48-13.92h-9v-2.07Z"/><path d="M693.15,963.23a15.31,15.31,0,0,1-.29,3,9.93,9.93,0,0,1-.92,2.62,5,5,0,0,1-1.81,1.92,6,6,0,0,1-5.62,0,4.84,4.84,0,0,1-1.81-1.92,9.6,9.6,0,0,1-.93-2.62,15.31,15.31,0,0,1-.29-3,15.09,15.09,0,0,1,.29-3,9.85,9.85,0,0,1,.93-2.62,4.59,4.59,0,0,1,1.81-1.92,6,6,0,0,1,5.62,0,4.72,4.72,0,0,1,1.81,1.92,10.19,10.19,0,0,1,.92,2.62A15.09,15.09,0,0,1,693.15,963.23Zm-2.33,0q0-6.33-3.5-6.33c-2.36,0-3.53,2.11-3.53,6.33s1.17,6.36,3.53,6.36S690.82,967.47,690.82,963.23Z"/><path d="M702.65,958.94a4,4,0,0,1-1,2.83,3.83,3.83,0,0,1-5.43,0,4,4,0,0,1-1-2.83,3.94,3.94,0,0,1,1-2.8,3.88,3.88,0,0,1,5.43,0A3.94,3.94,0,0,1,702.65,958.94Zm-1.49,0a2.47,2.47,0,0,0-.63-1.73,2.32,2.32,0,0,0-3.31,0,2.41,2.41,0,0,0-.64,1.74,2.51,2.51,0,0,0,.64,1.76,2.3,2.3,0,0,0,3.32,0A2.54,2.54,0,0,0,701.16,958.94Zm7.25-3.7-8.33,16h-1.65l8.3-16Zm3.31,12.27a4,4,0,0,1-1,2.82,3.57,3.57,0,0,1-2.72,1.11,3.53,3.53,0,0,1-2.7-1.13,4.2,4.2,0,0,1,0-5.6,3.84,3.84,0,0,1,5.42,0A3.92,3.92,0,0,1,711.72,967.51Zm-2.09,1.76a2.77,2.77,0,0,0,0-3.52,2.19,2.19,0,0,0-1.67-.69,2.09,2.09,0,0,0-1.65.71,2.52,2.52,0,0,0-.63,1.74,2.55,2.55,0,0,0,.63,1.76A2.13,2.13,0,0,0,708,970,2.17,2.17,0,0,0,709.63,969.27Z"/><path d="M876.13,963.91h-1.25V962h1.3a3.38,3.38,0,0,0,2.27-.69,2.41,2.41,0,0,0,.8-1.9,2.13,2.13,0,0,0-.8-1.76,3.43,3.43,0,0,0-2.2-.64,4.36,4.36,0,0,0-3.81,1.92l-1.68-1.18a6.65,6.65,0,0,1,5.56-2.76,5.81,5.81,0,0,1,3.76,1.18,3.7,3.7,0,0,1,1.45,3,3.81,3.81,0,0,1-2.4,3.6,4.55,4.55,0,0,1,2.15,1.61,4,4,0,0,1,.73,2.33,4.41,4.41,0,0,1-1.55,3.46,6.06,6.06,0,0,1-4.16,1.36,6.24,6.24,0,0,1-5.95-3.24l1.94-1a4.12,4.12,0,0,0,4,2.28,3.67,3.67,0,0,0,2.5-.79,2.73,2.73,0,0,0,.88-2.14,2.37,2.37,0,0,0-.89-1.94A4.22,4.22,0,0,0,876.13,963.91Z"/><path d="M896.15,963.23a15.31,15.31,0,0,1-.29,3,9.93,9.93,0,0,1-.92,2.62,5,5,0,0,1-1.81,1.92,6,6,0,0,1-5.62,0,4.84,4.84,0,0,1-1.81-1.92,9.6,9.6,0,0,1-.93-2.62,15.31,15.31,0,0,1-.29-3,15.09,15.09,0,0,1,.29-3,9.85,9.85,0,0,1,.93-2.62,4.59,4.59,0,0,1,1.81-1.92,6,6,0,0,1,5.62,0,4.72,4.72,0,0,1,1.81,1.92,10.19,10.19,0,0,1,.92,2.62A15.09,15.09,0,0,1,896.15,963.23Zm-2.33,0q0-6.33-3.5-6.33c-2.36,0-3.53,2.11-3.53,6.33s1.17,6.36,3.53,6.36S893.82,967.47,893.82,963.23Z"/><path d="M905.65,958.94a4,4,0,0,1-1,2.83,3.83,3.83,0,0,1-5.43,0,4,4,0,0,1-1-2.83,3.94,3.94,0,0,1,1-2.8,3.88,3.88,0,0,1,5.43,0A3.94,3.94,0,0,1,905.65,958.94Zm-1.49,0a2.47,2.47,0,0,0-.63-1.73,2.32,2.32,0,0,0-3.31,0,2.41,2.41,0,0,0-.64,1.74,2.51,2.51,0,0,0,.64,1.76,2.3,2.3,0,0,0,3.32,0A2.54,2.54,0,0,0,904.16,958.94Zm7.25-3.7-8.33,16h-1.65l8.3-16Zm3.31,12.27a4,4,0,0,1-1,2.82,3.57,3.57,0,0,1-2.72,1.11,3.53,3.53,0,0,1-2.7-1.13,4.2,4.2,0,0,1,0-5.6,3.84,3.84,0,0,1,5.42,0A3.92,3.92,0,0,1,914.72,967.51Zm-2.09,1.76a2.77,2.77,0,0,0,0-3.52,2.19,2.19,0,0,0-1.67-.69,2.09,2.09,0,0,0-1.65.71,2.52,2.52,0,0,0-.63,1.74,2.55,2.55,0,0,0,.63,1.76A2.13,2.13,0,0,0,911,970,2.17,2.17,0,0,0,912.63,969.27Z"/><path d="M1087.08,971.23H1075.9V969.5a62.72,62.72,0,0,0,6.44-5.86,5.81,5.81,0,0,0,1.77-3.69,2.75,2.75,0,0,0-.87-2.2A3.28,3.28,0,0,0,1081,957a4.09,4.09,0,0,0-3.67,2.19l-1.78-1.11a6.42,6.42,0,0,1,5.62-3.12,5.45,5.45,0,0,1,3.79,1.34,4.53,4.53,0,0,1,1.49,3.56,6.56,6.56,0,0,1-1.64,4.14,36.83,36.83,0,0,1-5.66,5.17h7.92Z"/><path d="M1101.15,963.23a15.31,15.31,0,0,1-.29,3,9.93,9.93,0,0,1-.92,2.62,5,5,0,0,1-1.81,1.92,6,6,0,0,1-5.62,0,4.84,4.84,0,0,1-1.81-1.92,9.6,9.6,0,0,1-.93-2.62,15.31,15.31,0,0,1-.29-3,15.09,15.09,0,0,1,.29-3,9.85,9.85,0,0,1,.93-2.62,4.59,4.59,0,0,1,1.81-1.92,6,6,0,0,1,5.62,0,4.72,4.72,0,0,1,1.81,1.92,10.19,10.19,0,0,1,.92,2.62A15.09,15.09,0,0,1,1101.15,963.23Zm-2.33,0q0-6.33-3.5-6.33c-2.36,0-3.53,2.11-3.53,6.33s1.17,6.36,3.53,6.36S1098.82,967.47,1098.82,963.23Z"/><path d="M1110.65,958.94a4,4,0,0,1-1.05,2.83,3.83,3.83,0,0,1-5.43,0,4,4,0,0,1-1.05-2.83,3.94,3.94,0,0,1,1.05-2.8,3.88,3.88,0,0,1,5.43,0A3.94,3.94,0,0,1,1110.65,958.94Zm-1.49,0a2.47,2.47,0,0,0-.63-1.73,2.32,2.32,0,0,0-3.31,0,2.41,2.41,0,0,0-.64,1.74,2.51,2.51,0,0,0,.64,1.76,2.3,2.3,0,0,0,3.32,0A2.54,2.54,0,0,0,1109.16,958.94Zm7.25-3.7-8.33,16h-1.65l8.3-16Zm3.31,12.27a4,4,0,0,1-1,2.82,3.57,3.57,0,0,1-2.72,1.11,3.53,3.53,0,0,1-2.7-1.13,4.2,4.2,0,0,1,0-5.6,3.84,3.84,0,0,1,5.42,0A3.92,3.92,0,0,1,1119.72,967.51Zm-2.09,1.76a2.77,2.77,0,0,0,0-3.52,2.19,2.19,0,0,0-1.67-.69,2.09,2.09,0,0,0-1.65.71,2.52,2.52,0,0,0-.63,1.74,2.55,2.55,0,0,0,.63,1.76,2.13,2.13,0,0,0,1.65.71A2.17,2.17,0,0,0,1117.63,969.27Z"/><path class="cls-2" d="M35.49,87.83H29.87v14.4h-1.7V87.83H22.58V86.24H35.49Z"/><path class="cls-2" d="M47.58,102.23a3.59,3.59,0,0,1-1.22.19,2.51,2.51,0,0,1-1.6-.53,2.15,2.15,0,0,1-.75-1.58,5,5,0,0,1-4.37,2.2,4.46,4.46,0,0,1-3-1,3.47,3.47,0,0,1-1.13-2.73,3.54,3.54,0,0,1,.29-1.45,3.1,3.1,0,0,1,.69-1,3.35,3.35,0,0,1,1-.63,6.1,6.1,0,0,1,1.09-.37c.31-.08.67-.14,1.09-.21l.88-.11c.42-.05.72-.1.88-.13l.76-.14a2.5,2.5,0,0,0,.73-.23c.15-.09.32-.2.51-.34a1.06,1.06,0,0,0,.38-.49,1.88,1.88,0,0,0,.11-.65A1.64,1.64,0,0,0,43,91.51,4.47,4.47,0,0,0,40.82,91,6,6,0,0,0,37,92.36l-.87-1.15a7.64,7.64,0,0,1,4.75-1.63,5.36,5.36,0,0,1,3.39,1,3.54,3.54,0,0,1,1.25,3v6.08a2,2,0,0,0,.25,1.15,1,1,0,0,0,.85.36,1.67,1.67,0,0,0,.77-.15ZM44,97.38V95a3.62,3.62,0,0,1-.6.58,2.3,2.3,0,0,1-.77.37c-.3.09-.55.15-.75.19l-1,.16-1,.14a5.79,5.79,0,0,0-2.14.71,1.75,1.75,0,0,0-.72,1.6,2.05,2.05,0,0,0,.79,1.77,3.41,3.41,0,0,0,2.07.58,4.44,4.44,0,0,0,2.85-.93A3.3,3.3,0,0,0,44,97.38Z"/><path class="cls-2" d="M58.79,98.67a3.45,3.45,0,0,1-1.28,2.79A5.45,5.45,0,0,1,54,102.51,6,6,0,0,1,48.76,100L50,99a4.72,4.72,0,0,0,4.06,2,4,4,0,0,0,2.3-.6,2,2,0,0,0,.89-1.75,1.37,1.37,0,0,0-.74-1.35,13.75,13.75,0,0,0-2.93-.83,8.62,8.62,0,0,1-3.1-1.14,2.6,2.6,0,0,1-1.08-2.32,3,3,0,0,1,1.29-2.61,5.3,5.3,0,0,1,3.13-.89,6.21,6.21,0,0,1,4.7,1.94l-1.1,1.13A4.44,4.44,0,0,0,53.78,91a4.15,4.15,0,0,0-2.06.47,1.55,1.55,0,0,0-.85,1.45,1.48,1.48,0,0,0,.79,1.39,8.44,8.44,0,0,0,2.4.74l1.41.3a11.94,11.94,0,0,1,1.22.4,3.63,3.63,0,0,1,1.13.62,3.28,3.28,0,0,1,.67.93A2.92,2.92,0,0,1,58.79,98.67Z"/><path class="cls-2" d="M63.42,96.71l6.77-6.84h2L67.07,95l5.86,7.23h-2L66,96l-2.55,2.54v3.68H61.89V85.09h1.53Z"/><path d="M237.19,47.14h-2.52L233,42.7h-7.2L224,47.14h-2.35l6.51-16h2.47Zm-5-6.41-2.81-7.39-2.88,7.39Z"/><path d="M250.63,47.14h-2.09v-2a5.53,5.53,0,0,1-8.62.48,7,7,0,0,1-1.56-4.66,7,7,0,0,1,1.56-4.7,5.5,5.5,0,0,1,8.62.5V30h2.09Zm-3.16-2.94a5.09,5.09,0,0,0,1.07-3.3,5,5,0,0,0-1.07-3.29,3.64,3.64,0,0,0-3-1.3,3.46,3.46,0,0,0-2.9,1.29,5.12,5.12,0,0,0-1,3.3,5.2,5.2,0,0,0,1,3.31,3.46,3.46,0,0,0,2.9,1.29A3.64,3.64,0,0,0,247.47,44.2Z"/><path d="M265.84,47.14h-2.09v-2a5.52,5.52,0,0,1-8.61.48,7,7,0,0,1-1.56-4.66,7,7,0,0,1,1.56-4.7,5.49,5.49,0,0,1,8.61.5V30h2.09Zm-3.16-2.94a5,5,0,0,0,1.07-3.3,5,5,0,0,0-1.07-3.29,3.62,3.62,0,0,0-3-1.3,3.47,3.47,0,0,0-2.91,1.29,5.17,5.17,0,0,0-1,3.3,5.26,5.26,0,0,0,1,3.31,3.47,3.47,0,0,0,2.91,1.29A3.62,3.62,0,0,0,262.68,44.2Z"/><path d="M287.25,45.5l.26,1.59a3.73,3.73,0,0,1-1.44.24,2.69,2.69,0,0,1-1.62-.49,2.14,2.14,0,0,1-.8-1.5,4.92,4.92,0,0,1-4.3,2.08,4.52,4.52,0,0,1-3.09-1,3.52,3.52,0,0,1-1.16-2.79,3.7,3.7,0,0,1,.29-1.49,2.94,2.94,0,0,1,.71-1,4.18,4.18,0,0,1,1-.64,5.65,5.65,0,0,1,1.13-.39c.34-.07.72-.14,1.15-.2l.81-.1.83-.11a6.1,6.1,0,0,0,.7-.13,3.35,3.35,0,0,0,.68-.2,3.23,3.23,0,0,0,.48-.29,1.14,1.14,0,0,0,.36-.43,1.55,1.55,0,0,0,.1-.59,1.46,1.46,0,0,0-.84-1.39,4.26,4.26,0,0,0-2-.43,6.33,6.33,0,0,0-3.89,1.32l-1-1.59a8.69,8.69,0,0,1,5-1.58,5.54,5.54,0,0,1,3.52,1,3.62,3.62,0,0,1,1.3,3.07v5.9c0,.9.33,1.35,1,1.35A1.26,1.26,0,0,0,287.25,45.5Zm-3.82-3.16V40.18a2.73,2.73,0,0,1-.51.51,2.17,2.17,0,0,1-.7.33l-.67.18c-.17,0-.45.08-.85.14l-.87.13a5.34,5.34,0,0,0-1.94.64,1.62,1.62,0,0,0-.65,1.47,1.84,1.84,0,0,0,.72,1.59,3.09,3.09,0,0,0,1.87.53,4,4,0,0,0,2.56-.84A3.06,3.06,0,0,0,283.43,42.34Z"/><path d="M298.24,47.14h-2.09V34.66h2.09v2.06a4.93,4.93,0,0,1,4.27-2.35,4.13,4.13,0,0,1,3.19,1.25,4.84,4.84,0,0,1,1.18,3.48v8h-2.09V39.58q0-3.24-2.78-3.24a3.63,3.63,0,0,0-2.7,1.08,3.78,3.78,0,0,0-1.07,2.8Z"/><path d="M321.73,40.58a6.4,6.4,0,0,1,0,.82h-9.8a4.35,4.35,0,0,0,1.23,3,4.07,4.07,0,0,0,3,1.09,4.84,4.84,0,0,0,3.7-1.63l1.39,1.37a6.71,6.71,0,0,1-5.13,2.18,6.09,6.09,0,0,1-4.68-1.81,6.52,6.52,0,0,1-1.71-4.67,6.83,6.83,0,0,1,1.67-4.7,5.66,5.66,0,0,1,4.45-1.87,5.6,5.6,0,0,1,4.32,1.77A6.32,6.32,0,0,1,321.73,40.58Zm-9.79-.79h7.63a4,4,0,0,0-1.22-2.67,3.7,3.7,0,0,0-2.59-.95,3.62,3.62,0,0,0-2.65,1A3.87,3.87,0,0,0,311.94,39.79Z"/><path d="M340.91,34.66l-3.45,12.48h-2.29l-3-9.8-3.07,9.8H326.8l-3.46-12.48h2.23l2.52,10,3.12-10h1.92l3.1,10,2.54-10Z"/><path d="M221.6,75.94h-2.09V63.46h2.09v2a4.72,4.72,0,0,1,4.05-2.3,3.6,3.6,0,0,1,3.75,2.52,5,5,0,0,1,4.41-2.52,4,4,0,0,1,3.11,1.22A4.9,4.9,0,0,1,238,67.8v8.14H236V68.3c0-2.11-.87-3.16-2.62-3.16a3.32,3.32,0,0,0-2.52,1.06,3.87,3.87,0,0,0-1,2.75v7h-2.08V68.3c0-2.11-.88-3.16-2.62-3.16a3.31,3.31,0,0,0-2.52,1,3.89,3.89,0,0,0-1,2.76Z"/><path d="M252.89,69.38a4.86,4.86,0,0,1,0,.82h-9.79a4.31,4.31,0,0,0,1.23,3,4.07,4.07,0,0,0,3,1.09,4.84,4.84,0,0,0,3.7-1.63L252.34,74a6.71,6.71,0,0,1-5.13,2.18,6.12,6.12,0,0,1-4.69-1.81,6.56,6.56,0,0,1-1.7-4.67,6.83,6.83,0,0,1,1.67-4.7,6.19,6.19,0,0,1,8.77-.1A6.32,6.32,0,0,1,252.89,69.38Zm-9.79-.79h7.63a4,4,0,0,0-1.22-2.67,3.72,3.72,0,0,0-2.59-1,3.64,3.64,0,0,0-2.66,1A3.91,3.91,0,0,0,243.1,68.59Z"/><path d="M267.17,75.94h-2.09v-2a5.12,5.12,0,0,1-4.44,2.32,5.18,5.18,0,0,1-4.17-1.84,7.8,7.8,0,0,1,0-9.36,5.49,5.49,0,0,1,8.61.5V58.8h2.09ZM264,73a5.08,5.08,0,0,0,1.06-3.3A5,5,0,0,0,264,66.41a3.66,3.66,0,0,0-3-1.3,3.45,3.45,0,0,0-2.9,1.29,5.12,5.12,0,0,0-1,3.3,5.2,5.2,0,0,0,1,3.31A3.45,3.45,0,0,0,261,74.3,3.66,3.66,0,0,0,264,73Z"/><path d="M273,61h-2.08V58.8H273Zm0,14.93h-2.08V63.46H273Z"/><path d="M285.41,72.46,287,73.61a5.81,5.81,0,0,1-5,2.61,5.61,5.61,0,0,1-4.39-1.84,7.43,7.43,0,0,1,0-9.36A5.58,5.58,0,0,1,282,63.17a5.72,5.72,0,0,1,5,2.59L285.39,67a3.73,3.73,0,0,0-3.34-2,3.49,3.49,0,0,0-2.84,1.31,5.7,5.7,0,0,0,0,6.65A3.46,3.46,0,0,0,282,74.33,3.88,3.88,0,0,0,285.41,72.46Z"/><path d="M300.8,74.3l.26,1.59a3.73,3.73,0,0,1-1.44.24,2.69,2.69,0,0,1-1.62-.49,2.14,2.14,0,0,1-.8-1.5,4.92,4.92,0,0,1-4.3,2.08,4.55,4.55,0,0,1-3.1-1,3.55,3.55,0,0,1-1.15-2.79,3.7,3.7,0,0,1,.29-1.49,2.94,2.94,0,0,1,.71-1,4.18,4.18,0,0,1,1-.64,5.44,5.44,0,0,1,1.13-.39c.34-.07.72-.14,1.15-.2l.81-.1.82-.11a5.83,5.83,0,0,0,.71-.13,3,3,0,0,0,.67-.2,2.45,2.45,0,0,0,.48-.29,1,1,0,0,0,.36-.43,1.38,1.38,0,0,0,.11-.59,1.46,1.46,0,0,0-.84-1.39,4.26,4.26,0,0,0-2-.43,6.33,6.33,0,0,0-3.89,1.32l-1-1.59a8.68,8.68,0,0,1,5-1.58,5.55,5.55,0,0,1,3.53,1,3.62,3.62,0,0,1,1.3,3.07v5.9c0,.9.33,1.35,1,1.35A1.26,1.26,0,0,0,300.8,74.3ZM297,71.14V69a2.5,2.5,0,0,1-.52.51,2,2,0,0,1-.69.33l-.67.18c-.17,0-.46.08-.86.14l-.86.13a5.34,5.34,0,0,0-1.94.64,1.6,1.6,0,0,0-.65,1.47,1.84,1.84,0,0,0,.72,1.59,3.09,3.09,0,0,0,1.87.53,4,4,0,0,0,2.56-.84A3.06,3.06,0,0,0,297,71.14Z"/><path d="M309.58,73.8l.89,1.58a4.29,4.29,0,0,1-2.71.84,3.55,3.55,0,0,1-3.27-1.58,4.63,4.63,0,0,1-.53-2.47v-7H301.8V63.46H304V60h2.09v3.51h4v1.72h-4v7q0,2.16,1.92,2.16A2.53,2.53,0,0,0,309.58,73.8Z"/><path d="M314.76,61h-2.08V58.8h2.08Zm0,14.93h-2.08V63.46h2.08Z"/><path d="M330,69.72a6.65,6.65,0,0,1-1.68,4.68,6.4,6.4,0,0,1-8.94,0,6.69,6.69,0,0,1-1.67-4.68A6.77,6.77,0,0,1,319.36,65a6.37,6.37,0,0,1,8.94,0A6.73,6.73,0,0,1,330,69.72Zm-2.23,0a5.18,5.18,0,0,0-1.05-3.35,3.46,3.46,0,0,0-2.86-1.31A3.5,3.5,0,0,0,321,66.37,5.78,5.78,0,0,0,321,73a3.47,3.47,0,0,0,2.88,1.31A3.43,3.43,0,0,0,326.7,73,5.13,5.13,0,0,0,327.75,69.72Z"/><path d="M335,75.94h-2.09V63.46H335v2.06a4.93,4.93,0,0,1,4.27-2.35,4.14,4.14,0,0,1,3.19,1.25,4.89,4.89,0,0,1,1.18,3.48v8h-2.09V68.38q0-3.24-2.79-3.24a3.66,3.66,0,0,0-2.7,1.08A3.81,3.81,0,0,0,335,69Z"/><path d="M238.65,92.47l-.67,2a3.1,3.1,0,0,0-1.44-.38,2.87,2.87,0,0,0-2.27,1.12,4.53,4.53,0,0,0-1,3v6.51h-2.09V92.26h2.09v2.11A4.23,4.23,0,0,1,236.94,92,3.09,3.09,0,0,1,238.65,92.47Z"/><path d="M251.7,98.18a6.4,6.4,0,0,1,0,.82h-9.8a4.35,4.35,0,0,0,1.23,3,4.07,4.07,0,0,0,3,1.09,4.84,4.84,0,0,0,3.7-1.63l1.39,1.37A6.71,6.71,0,0,1,246,105a6.09,6.09,0,0,1-4.68-1.81,6.52,6.52,0,0,1-1.71-4.67,6.83,6.83,0,0,1,1.67-4.7A5.66,5.66,0,0,1,245.75,92a5.6,5.6,0,0,1,4.32,1.77A6.32,6.32,0,0,1,251.7,98.18Zm-9.79-.79h7.63a4,4,0,0,0-1.22-2.67,3.7,3.7,0,0,0-2.59-1,3.62,3.62,0,0,0-2.65,1A3.87,3.87,0,0,0,241.91,97.39Z"/><path d="M256.6,104.74h-2.09V92.26h2.09v2a4.72,4.72,0,0,1,4.06-2.3,3.59,3.59,0,0,1,3.74,2.52A5.06,5.06,0,0,1,268.82,92a4,4,0,0,1,3.1,1.22A4.85,4.85,0,0,1,273,96.6v8.14H271V97.1c0-2.11-.87-3.16-2.61-3.16A3.32,3.32,0,0,0,265.82,95a3.83,3.83,0,0,0-1,2.75v7h-2.09V97.1c0-2.11-.87-3.16-2.62-3.16a3.31,3.31,0,0,0-2.52,1,3.93,3.93,0,0,0-1,2.76Z"/><path d="M278.73,89.81h-2.09V87.6h2.09Zm0,14.93h-2.09V92.26h2.09Z"/><path d="M284.56,104.74h-2.09V92.26h2.09v2.06A4.94,4.94,0,0,1,288.83,92,4.13,4.13,0,0,1,292,93.22a4.84,4.84,0,0,1,1.18,3.48v8h-2.09V97.18q0-3.24-2.78-3.24a3.63,3.63,0,0,0-2.7,1.08,3.82,3.82,0,0,0-1.07,2.8Z"/><path d="M308.27,104.74h-2.09v-2a5.12,5.12,0,0,1-4.44,2.32,5.18,5.18,0,0,1-4.17-1.84,7.8,7.8,0,0,1,0-9.36,5.49,5.49,0,0,1,8.61.5V87.6h2.09Zm-3.15-2.94a5.08,5.08,0,0,0,1.06-3.3,5,5,0,0,0-1.06-3.29,3.66,3.66,0,0,0-3-1.3,3.48,3.48,0,0,0-2.91,1.29,5.17,5.17,0,0,0-1,3.3,5.26,5.26,0,0,0,1,3.31,3.48,3.48,0,0,0,2.91,1.29A3.66,3.66,0,0,0,305.12,101.8Z"/><path d="M323.27,98.18a4.86,4.86,0,0,1,0,.82h-9.79a4.31,4.31,0,0,0,1.23,3,4.07,4.07,0,0,0,3,1.09,4.84,4.84,0,0,0,3.7-1.63l1.39,1.37a6.71,6.71,0,0,1-5.14,2.18,6.12,6.12,0,0,1-4.68-1.81,6.56,6.56,0,0,1-1.7-4.67,6.83,6.83,0,0,1,1.67-4.7,6.19,6.19,0,0,1,8.77-.1A6.32,6.32,0,0,1,323.27,98.18Zm-9.79-.79h7.63a4,4,0,0,0-1.22-2.67,3.72,3.72,0,0,0-2.6-1,3.64,3.64,0,0,0-2.65,1A3.91,3.91,0,0,0,313.48,97.39Z"/><path d="M333.5,92.47l-.68,2a3.1,3.1,0,0,0-1.44-.38,2.85,2.85,0,0,0-2.26,1.12,4.47,4.47,0,0,0-.95,3v6.51h-2.09V92.26h2.09v2.11A4.22,4.22,0,0,1,331.79,92,3.11,3.11,0,0,1,333.5,92.47Z"/><path d="M1049.78,47.14h-2.54l-3.41-6.44h-4.59v6.44H1037v-16h7a5.75,5.75,0,0,1,3.9,1.27,4.34,4.34,0,0,1,1.45,3.41,4.38,4.38,0,0,1-.9,2.77,5.15,5.15,0,0,1-2.39,1.7ZM1047,36a2.58,2.58,0,0,0-.85-2,3.29,3.29,0,0,0-2.25-.75h-4.68v5.52H1044a3.14,3.14,0,0,0,2.19-.76A2.55,2.55,0,0,0,1047,36Z"/><path d="M1063.63,40.58a6.2,6.2,0,0,1-.05.82h-9.79a4.3,4.3,0,0,0,1.22,3,4.1,4.1,0,0,0,3,1.09,4.82,4.82,0,0,0,3.69-1.63l1.4,1.37a6.73,6.73,0,0,1-5.14,2.18,6.12,6.12,0,0,1-4.68-1.81,6.52,6.52,0,0,1-1.7-4.67,6.82,6.82,0,0,1,1.66-4.7,5.68,5.68,0,0,1,4.46-1.87,5.6,5.6,0,0,1,4.32,1.77A6.37,6.37,0,0,1,1063.63,40.58Zm-9.79-.79h7.63a3.91,3.91,0,0,0-1.23-2.67,3.68,3.68,0,0,0-2.59-.95,3.64,3.64,0,0,0-2.65,1A3.86,3.86,0,0,0,1053.84,39.79Z"/><path d="M1068.52,47.14h-2.08V34.66h2.08v2a4.74,4.74,0,0,1,4.06-2.3,3.59,3.59,0,0,1,3.74,2.52,5.08,5.08,0,0,1,4.42-2.52,4,4,0,0,1,3.11,1.22A4.89,4.89,0,0,1,1085,39v8.14h-2.08V39.5c0-2.11-.88-3.16-2.62-3.16a3.32,3.32,0,0,0-2.52,1.06,3.87,3.87,0,0,0-1,2.75v7h-2.09V39.5c0-2.11-.87-3.16-2.61-3.16a3.28,3.28,0,0,0-2.52,1,3.89,3.89,0,0,0-1,2.76Z"/><path d="M1100,40.92a6.65,6.65,0,0,1-1.68,4.68,6.4,6.4,0,0,1-8.94,0,6.64,6.64,0,0,1-1.67-4.68,6.73,6.73,0,0,1,1.67-4.72,6.37,6.37,0,0,1,8.94,0A6.73,6.73,0,0,1,1100,40.92Zm-2.24,0a5.18,5.18,0,0,0-1-3.35,3.48,3.48,0,0,0-2.87-1.31,3.53,3.53,0,0,0-2.88,1.31,5.18,5.18,0,0,0-1,3.35,5.13,5.13,0,0,0,1,3.32,3.5,3.5,0,0,0,2.88,1.31,3.45,3.45,0,0,0,2.87-1.31A5.13,5.13,0,0,0,1097.8,40.92Z"/><path d="M1113.48,34.66l-5,12.48h-2.18l-5-12.48h2.35l3.77,10,3.77-10Z"/><path d="M1126.82,40.58a6.2,6.2,0,0,1,0,.82H1117a4.27,4.27,0,0,0,1.23,3,4.07,4.07,0,0,0,3,1.09,4.84,4.84,0,0,0,3.7-1.63l1.39,1.37a6.71,6.71,0,0,1-5.14,2.18,6.12,6.12,0,0,1-4.68-1.81,6.56,6.56,0,0,1-1.7-4.67,6.78,6.78,0,0,1,1.67-4.7,6.19,6.19,0,0,1,8.77-.1A6.32,6.32,0,0,1,1126.82,40.58Zm-9.79-.79h7.63a4,4,0,0,0-1.22-2.67,3.72,3.72,0,0,0-2.6-.95,3.64,3.64,0,0,0-2.65,1A3.91,3.91,0,0,0,1117,39.79Z"/><path d="M1147.29,45.5l.27,1.59a3.8,3.8,0,0,1-1.44.24,2.69,2.69,0,0,1-1.62-.49,2.18,2.18,0,0,1-.81-1.5,4.9,4.9,0,0,1-4.29,2.08,4.55,4.55,0,0,1-3.1-1,4,4,0,0,1-.86-4.28,2.92,2.92,0,0,1,.7-1,4.07,4.07,0,0,1,1-.64,5.25,5.25,0,0,1,1.13-.39c.33-.07.72-.14,1.15-.2l.8-.1.83-.11a6.19,6.19,0,0,0,.71-.13,2.49,2.49,0,0,0,1.15-.49,1,1,0,0,0,.36-.43,1.55,1.55,0,0,0,.11-.59,1.46,1.46,0,0,0-.84-1.39,4.29,4.29,0,0,0-2-.43,6.31,6.31,0,0,0-3.89,1.32l-1-1.59a8.66,8.66,0,0,1,5-1.58,5.57,5.57,0,0,1,3.53,1,3.65,3.65,0,0,1,1.29,3.07v5.9q0,1.35,1,1.35A1.21,1.21,0,0,0,1147.29,45.5Zm-3.81-3.16V40.18a2.77,2.77,0,0,1-.52.51,2.07,2.07,0,0,1-.7.33l-.67.18c-.17,0-.45.08-.85.14l-.86.13a5.33,5.33,0,0,0-2,.64,1.62,1.62,0,0,0-.65,1.47,1.84,1.84,0,0,0,.72,1.59,3.12,3.12,0,0,0,1.88.53,3.93,3.93,0,0,0,2.55-.84A3,3,0,0,0,1143.48,42.34Z"/><path d="M1151.8,47.14h-2.08V34.66h2.08v2.06a5,5,0,0,1,4.28-2.35,4.16,4.16,0,0,1,3.19,1.25,4.88,4.88,0,0,1,1.17,3.48v8h-2.08V39.58q0-3.24-2.79-3.24a3.63,3.63,0,0,0-2.7,1.08,3.82,3.82,0,0,0-1.07,2.8Z"/><path d="M1066.64,69.38a4.86,4.86,0,0,1-.05.82h-9.79a4.27,4.27,0,0,0,1.23,3,4.07,4.07,0,0,0,3,1.09,4.84,4.84,0,0,0,3.7-1.63l1.39,1.37a6.71,6.71,0,0,1-5.14,2.18,6.12,6.12,0,0,1-4.68-1.81,6.56,6.56,0,0,1-1.7-4.67,6.83,6.83,0,0,1,1.67-4.7,6.19,6.19,0,0,1,8.77-.1A6.32,6.32,0,0,1,1066.64,69.38Zm-9.79-.79h7.63a4,4,0,0,0-1.22-2.67,3.72,3.72,0,0,0-2.6-1,3.64,3.64,0,0,0-2.65,1A3.91,3.91,0,0,0,1056.85,68.59Z"/><path d="M1080,75.94h-2.54l-3.55-5-3.56,5h-2.54l4.82-6.51-4.39-6h2.52l3.22,4.58,3.16-4.58h2.48l-4.37,6Z"/><path d="M1084.3,61h-2.08V58.8h2.08Zm0,14.93h-2.08V63.46h2.08Z"/><path d="M1097.58,72.24a3.52,3.52,0,0,1-1.37,2.89,5.83,5.83,0,0,1-3.75,1.09,6.12,6.12,0,0,1-5.52-2.66l1.54-1.15a4.78,4.78,0,0,0,4.1,2,3.89,3.89,0,0,0,2.12-.51,1.71,1.71,0,0,0,.79-1.5,1.25,1.25,0,0,0-.72-1.23,14.13,14.13,0,0,0-2.71-.72,9.16,9.16,0,0,1-3.32-1.17,2.75,2.75,0,0,1-1.15-2.45A3.12,3.12,0,0,1,1089,64.1a5.72,5.72,0,0,1,3.32-.93,6.68,6.68,0,0,1,5.07,2.09l-1.4,1.32a4.61,4.61,0,0,0-3.69-1.61,3.83,3.83,0,0,0-1.87.42,1.34,1.34,0,0,0-.77,1.26,1.22,1.22,0,0,0,.18.65,1.67,1.67,0,0,0,.41.46,2.16,2.16,0,0,0,.7.34c.32.1.6.18.83.23l1,.19c.61.11,1.11.22,1.49.31a10.9,10.9,0,0,1,1.3.43,3.78,3.78,0,0,1,1.11.65,3,3,0,0,1,.69,1A3.17,3.17,0,0,1,1097.58,72.24Z"/><path d="M1106.84,73.8l.89,1.58a4.29,4.29,0,0,1-2.71.84,3.55,3.55,0,0,1-3.27-1.58,4.63,4.63,0,0,1-.53-2.47v-7h-2.16V63.46h2.16V60h2.09v3.51h4v1.72h-4v7q0,2.16,1.92,2.16A2.53,2.53,0,0,0,1106.84,73.8Z"/><path d="M1112,61h-2.08V58.8H1112Zm0,14.93h-2.08V63.46H1112Z"/><path d="M1117.86,75.94h-2.09V63.46h2.09v2.06a4.93,4.93,0,0,1,4.27-2.35,4.14,4.14,0,0,1,3.19,1.25,4.89,4.89,0,0,1,1.18,3.48v8h-2.09V68.38q0-3.24-2.79-3.24a3.66,3.66,0,0,0-2.7,1.08,3.81,3.81,0,0,0-1.06,2.8Z"/><path d="M1141.62,63.46V73.92a6.57,6.57,0,0,1-1.35,4.49q-1.68,1.94-5.25,1.94a9,9,0,0,1-5.21-1.49l1-1.7a7,7,0,0,0,4.18,1.3,5,5,0,0,0,3.26-1,3.78,3.78,0,0,0,1.23-3.1V73a4.56,4.56,0,0,1-2,1.74,5.94,5.94,0,0,1-2.61.59,5.28,5.28,0,0,1-4.07-1.72,6.74,6.74,0,0,1,0-8.71,5.37,5.37,0,0,1,4.11-1.74,4.91,4.91,0,0,1,4.47,2.35V63.46Zm-2.07,5.78a4.25,4.25,0,0,0-1.08-3,3.88,3.88,0,0,0-3-1.17,3.65,3.65,0,0,0-2.91,1.17,4.4,4.4,0,0,0-1,3,4.49,4.49,0,0,0,1,3,3.61,3.61,0,0,0,2.91,1.2,3.84,3.84,0,0,0,3-1.2A4.29,4.29,0,0,0,1139.55,69.24Z"/><path d="M1055.65,92.47l-.67,2a3.1,3.1,0,0,0-1.44-.38,2.87,2.87,0,0,0-2.27,1.12,4.53,4.53,0,0,0-1,3v6.51h-2.09V92.26h2.09v2.11a4.23,4.23,0,0,1,3.62-2.35A3.09,3.09,0,0,1,1055.65,92.47Z"/><path d="M1068.7,98.18a6.4,6.4,0,0,1,0,.82h-9.8a4.35,4.35,0,0,0,1.23,3,4.07,4.07,0,0,0,3,1.09,4.84,4.84,0,0,0,3.7-1.63l1.39,1.37A6.71,6.71,0,0,1,1063,105a6.09,6.09,0,0,1-4.68-1.81,6.52,6.52,0,0,1-1.71-4.67,6.83,6.83,0,0,1,1.67-4.7,5.66,5.66,0,0,1,4.45-1.87,5.6,5.6,0,0,1,4.32,1.77A6.32,6.32,0,0,1,1068.7,98.18Zm-9.79-.79h7.63a4,4,0,0,0-1.22-2.67,3.7,3.7,0,0,0-2.59-1,3.62,3.62,0,0,0-2.65,1A3.87,3.87,0,0,0,1058.91,97.39Z"/><path d="M1073.6,104.74h-2.09V92.26h2.09v2a4.72,4.72,0,0,1,4.06-2.3,3.59,3.59,0,0,1,3.74,2.52,5.06,5.06,0,0,1,4.42-2.52,4,4,0,0,1,3.1,1.22A4.85,4.85,0,0,1,1090,96.6v8.14H1088V97.1c0-2.11-.87-3.16-2.61-3.16a3.32,3.32,0,0,0-2.52,1.06,3.83,3.83,0,0,0-1,2.75v7h-2.09V97.1c0-2.11-.87-3.16-2.62-3.16a3.31,3.31,0,0,0-2.52,1,3.93,3.93,0,0,0-1,2.76Z"/><path d="M1095.73,89.81h-2.09V87.6h2.09Zm0,14.93h-2.09V92.26h2.09Z"/><path d="M1101.56,104.74h-2.09V92.26h2.09v2.06a4.94,4.94,0,0,1,4.27-2.35,4.13,4.13,0,0,1,3.19,1.25,4.84,4.84,0,0,1,1.18,3.48v8h-2.09V97.18q0-3.24-2.78-3.24a3.63,3.63,0,0,0-2.7,1.08,3.82,3.82,0,0,0-1.07,2.8Z"/><path d="M1125.27,104.74h-2.09v-2a5.12,5.12,0,0,1-4.44,2.32,5.18,5.18,0,0,1-4.17-1.84,7.8,7.8,0,0,1,0-9.36,5.49,5.49,0,0,1,8.61.5V87.6h2.09Zm-3.15-2.94a5.08,5.08,0,0,0,1.06-3.3,5,5,0,0,0-1.06-3.29,3.66,3.66,0,0,0-3-1.3,3.48,3.48,0,0,0-2.91,1.29,5.17,5.17,0,0,0-1,3.3,5.26,5.26,0,0,0,1,3.31,3.48,3.48,0,0,0,2.91,1.29A3.66,3.66,0,0,0,1122.12,101.8Z"/><path d="M1140.27,98.18a4.86,4.86,0,0,1,0,.82h-9.79a4.31,4.31,0,0,0,1.23,3,4.07,4.07,0,0,0,3,1.09,4.84,4.84,0,0,0,3.7-1.63l1.39,1.37a6.71,6.71,0,0,1-5.14,2.18,6.12,6.12,0,0,1-4.68-1.81,6.56,6.56,0,0,1-1.7-4.67,6.83,6.83,0,0,1,1.67-4.7,6.19,6.19,0,0,1,8.77-.1A6.32,6.32,0,0,1,1140.27,98.18Zm-9.79-.79h7.63a4,4,0,0,0-1.22-2.67,3.72,3.72,0,0,0-2.6-1,3.64,3.64,0,0,0-2.65,1A3.91,3.91,0,0,0,1130.48,97.39Z"/><path d="M1150.5,92.47l-.68,2a3.1,3.1,0,0,0-1.44-.38,2.85,2.85,0,0,0-2.26,1.12,4.47,4.47,0,0,0-.95,3v6.51h-2.09V92.26h2.09v2.11a4.22,4.22,0,0,1,3.62-2.35A3.11,3.11,0,0,1,1150.5,92.47Z"/><path d="M471.34,33.22h-5.45V47.14h-2.26V33.22h-5.42V31.15h13.13Z"/><path d="M483.65,45.5l.26,1.59a3.73,3.73,0,0,1-1.44.24,2.69,2.69,0,0,1-1.62-.49,2.14,2.14,0,0,1-.8-1.5,4.92,4.92,0,0,1-4.3,2.08,4.52,4.52,0,0,1-3.09-1,3.52,3.52,0,0,1-1.16-2.79,3.7,3.7,0,0,1,.29-1.49,2.94,2.94,0,0,1,.71-1,4.18,4.18,0,0,1,1-.64,5.65,5.65,0,0,1,1.13-.39c.34-.07.72-.14,1.15-.2l.81-.1.83-.11a6.1,6.1,0,0,0,.7-.13,3.35,3.35,0,0,0,.68-.2,3.23,3.23,0,0,0,.48-.29,1.14,1.14,0,0,0,.36-.43,1.55,1.55,0,0,0,.1-.59,1.46,1.46,0,0,0-.84-1.39,4.26,4.26,0,0,0-2-.43,6.33,6.33,0,0,0-3.89,1.32l-1-1.59a8.69,8.69,0,0,1,5-1.58,5.59,5.59,0,0,1,3.53,1,3.65,3.65,0,0,1,1.29,3.07v5.9c0,.9.33,1.35,1,1.35A1.26,1.26,0,0,0,483.65,45.5Zm-3.82-3.16V40.18a2.73,2.73,0,0,1-.51.51,2.17,2.17,0,0,1-.7.33l-.67.18c-.17,0-.45.08-.85.14l-.87.13a5.34,5.34,0,0,0-1.94.64,1.62,1.62,0,0,0-.65,1.47,1.84,1.84,0,0,0,.72,1.59,3.09,3.09,0,0,0,1.87.53,4,4,0,0,0,2.56-.84A3.06,3.06,0,0,0,479.83,42.34Z"/><path d="M488.16,41.11l6.26-6.45h2.64l-5,5.11,5.69,7.37h-2.64l-4.51-6-2.4,2.42v3.56h-2.09V30h2.09Z"/><path d="M510.48,40.58a6.2,6.2,0,0,1-.05.82h-9.79a4.3,4.3,0,0,0,1.22,3,4.11,4.11,0,0,0,3,1.09,4.86,4.86,0,0,0,3.7-1.63l1.39,1.37a6.71,6.71,0,0,1-5.14,2.18,6.12,6.12,0,0,1-4.68-1.81,6.52,6.52,0,0,1-1.7-4.67,6.78,6.78,0,0,1,1.67-4.7,6.19,6.19,0,0,1,8.77-.1A6.32,6.32,0,0,1,510.48,40.58Zm-9.79-.79h7.63a4,4,0,0,0-1.22-2.67,3.72,3.72,0,0,0-2.6-.95,3.64,3.64,0,0,0-2.65,1A3.91,3.91,0,0,0,500.69,39.79Z"/><path d="M438.45,74.3l.26,1.59a3.8,3.8,0,0,1-1.44.24,2.69,2.69,0,0,1-1.62-.49,2.18,2.18,0,0,1-.81-1.5,4.89,4.89,0,0,1-4.29,2.08,4.55,4.55,0,0,1-3.1-1,3.51,3.51,0,0,1-1.15-2.79,3.7,3.7,0,0,1,.29-1.49,2.94,2.94,0,0,1,.71-1,4,4,0,0,1,1-.64,5.44,5.44,0,0,1,1.13-.39c.33-.07.72-.14,1.15-.2l.8-.1.83-.11a6.19,6.19,0,0,0,.71-.13,3,3,0,0,0,.67-.2,2.45,2.45,0,0,0,.48-.29,1,1,0,0,0,.36-.43,1.55,1.55,0,0,0,.11-.59,1.46,1.46,0,0,0-.84-1.39,4.26,4.26,0,0,0-2-.43,6.31,6.31,0,0,0-3.89,1.32l-1-1.59a8.68,8.68,0,0,1,5-1.58,5.55,5.55,0,0,1,3.53,1,3.62,3.62,0,0,1,1.3,3.07v5.9c0,.9.32,1.35,1,1.35A1.26,1.26,0,0,0,438.45,74.3Zm-3.82-3.16V69a2.5,2.5,0,0,1-.52.51,2,2,0,0,1-.69.33l-.68.18c-.16,0-.45.08-.85.14l-.86.13a5.4,5.4,0,0,0-1.95.64,1.62,1.62,0,0,0-.64,1.47,1.84,1.84,0,0,0,.72,1.59,3.09,3.09,0,0,0,1.87.53,3.92,3.92,0,0,0,2.55-.84A3,3,0,0,0,434.63,71.14Z"/><path d="M456.88,72.24a3.52,3.52,0,0,1-1.37,2.89,5.83,5.83,0,0,1-3.75,1.09,6.12,6.12,0,0,1-5.52-2.66l1.54-1.15a4.78,4.78,0,0,0,4.1,2,3.89,3.89,0,0,0,2.12-.51,1.71,1.71,0,0,0,.79-1.5,1.25,1.25,0,0,0-.72-1.23,14.13,14.13,0,0,0-2.71-.72A9.16,9.16,0,0,1,448,69.29a2.75,2.75,0,0,1-1.15-2.45,3.12,3.12,0,0,1,1.36-2.74,5.72,5.72,0,0,1,3.32-.93,6.68,6.68,0,0,1,5.07,2.09l-1.4,1.32A4.61,4.61,0,0,0,451.55,65a3.83,3.83,0,0,0-1.87.42,1.34,1.34,0,0,0-.77,1.26,1.22,1.22,0,0,0,.18.65,1.67,1.67,0,0,0,.41.46,2.16,2.16,0,0,0,.7.34c.32.1.6.18.83.23l1,.19c.61.11,1.11.22,1.49.31a10.9,10.9,0,0,1,1.3.43,3.78,3.78,0,0,1,1.11.65,3,3,0,0,1,.69,1A3.17,3.17,0,0,1,456.88,72.24Z"/><path d="M471,69.38a6.2,6.2,0,0,1-.05.82H461.2a4.3,4.3,0,0,0,1.22,3,4.07,4.07,0,0,0,3,1.09,4.84,4.84,0,0,0,3.7-1.63L470.48,74a6.71,6.71,0,0,1-5.13,2.18,6.09,6.09,0,0,1-4.68-1.81A6.52,6.52,0,0,1,459,69.74a6.83,6.83,0,0,1,1.67-4.7,5.66,5.66,0,0,1,4.45-1.87,5.59,5.59,0,0,1,4.32,1.77A6.33,6.33,0,0,1,471,69.38Zm-9.8-.79h7.64a4,4,0,0,0-1.23-2.67,3.7,3.7,0,0,0-2.59-1,3.62,3.62,0,0,0-2.65,1A3.87,3.87,0,0,0,461.24,68.59Z"/><path d="M476,75.94h-2.08V58.8H476Z"/><path d="M491.08,69.38a6.2,6.2,0,0,1-.05.82h-9.79a4.3,4.3,0,0,0,1.22,3,4.08,4.08,0,0,0,3,1.09,4.84,4.84,0,0,0,3.69-1.63L490.52,74a6.71,6.71,0,0,1-5.13,2.18,6.09,6.09,0,0,1-4.68-1.81A6.52,6.52,0,0,1,479,69.74a6.83,6.83,0,0,1,1.67-4.7,5.66,5.66,0,0,1,4.45-1.87,5.57,5.57,0,0,1,4.32,1.77A6.33,6.33,0,0,1,491.08,69.38Zm-9.8-.79h7.64a4,4,0,0,0-1.23-2.67,3.7,3.7,0,0,0-2.59-1,3.62,3.62,0,0,0-2.65,1A3.87,3.87,0,0,0,481.28,68.59Z"/><path d="M502.55,72.46l1.61,1.15a5.82,5.82,0,0,1-5,2.61,5.63,5.63,0,0,1-4.4-1.84,7.46,7.46,0,0,1,0-9.36,5.6,5.6,0,0,1,4.4-1.85,5.71,5.71,0,0,1,5,2.59L502.52,67a3.73,3.73,0,0,0-3.33-2,3.49,3.49,0,0,0-2.85,1.31,5.74,5.74,0,0,0,0,6.65,3.48,3.48,0,0,0,2.82,1.31A3.9,3.9,0,0,0,502.55,72.46Z"/><path d="M513.11,73.8l.89,1.58a4.3,4.3,0,0,1-2.72.84A3.52,3.52,0,0,1,508,74.64a4.63,4.63,0,0,1-.53-2.47v-7h-2.16V63.46h2.16V60h2.09v3.51h4v1.72h-4v7q0,2.16,1.92,2.16A2.55,2.55,0,0,0,513.11,73.8Z"/><path d="M527.46,69.38a6.2,6.2,0,0,1-.05.82h-9.79a4.3,4.3,0,0,0,1.22,3,4.1,4.1,0,0,0,3,1.09,4.84,4.84,0,0,0,3.7-1.63L526.91,74a6.73,6.73,0,0,1-5.14,2.18,6.12,6.12,0,0,1-4.68-1.81,6.56,6.56,0,0,1-1.7-4.67,6.82,6.82,0,0,1,1.66-4.7,5.68,5.68,0,0,1,4.46-1.87,5.6,5.6,0,0,1,4.32,1.77A6.32,6.32,0,0,1,527.46,69.38Zm-9.79-.79h7.63a4,4,0,0,0-1.22-2.67,3.72,3.72,0,0,0-2.6-1,3.64,3.64,0,0,0-2.65,1A3.86,3.86,0,0,0,517.67,68.59Z"/><path d="M541.74,75.94h-2.09v-2a5.52,5.52,0,0,1-8.61.48A7.76,7.76,0,0,1,531,65a5.49,5.49,0,0,1,8.61.5V58.8h2.09ZM538.58,73a5.09,5.09,0,0,0,1.07-3.3,5,5,0,0,0-1.07-3.29,3.62,3.62,0,0,0-3-1.3,3.47,3.47,0,0,0-2.91,1.29,5.17,5.17,0,0,0-1,3.3,5.26,5.26,0,0,0,1,3.31,3.47,3.47,0,0,0,2.91,1.29A3.62,3.62,0,0,0,538.58,73Z"/><path d="M424.6,104.74h-2.09V92.26h2.09v2a4.72,4.72,0,0,1,4-2.3,3.6,3.6,0,0,1,3.75,2.52A5,5,0,0,1,436.81,92a4,4,0,0,1,3.11,1.22A4.9,4.9,0,0,1,441,96.6v8.14H439V97.1c0-2.11-.87-3.16-2.62-3.16A3.32,3.32,0,0,0,433.81,95a3.87,3.87,0,0,0-1,2.75v7h-2.08V97.1c0-2.11-.88-3.16-2.62-3.16a3.31,3.31,0,0,0-2.52,1,3.89,3.89,0,0,0-1,2.76Z"/><path d="M455.89,98.18a4.86,4.86,0,0,1-.05.82h-9.79a4.31,4.31,0,0,0,1.23,3,4.07,4.07,0,0,0,3,1.09,4.84,4.84,0,0,0,3.7-1.63l1.39,1.37a6.71,6.71,0,0,1-5.13,2.18,6.12,6.12,0,0,1-4.69-1.81,6.56,6.56,0,0,1-1.7-4.67,6.83,6.83,0,0,1,1.67-4.7,6.19,6.19,0,0,1,8.77-.1A6.32,6.32,0,0,1,455.89,98.18Zm-9.79-.79h7.63a4,4,0,0,0-1.22-2.67,3.72,3.72,0,0,0-2.59-1,3.64,3.64,0,0,0-2.66,1A3.91,3.91,0,0,0,446.1,97.39Z"/><path d="M470.17,104.74h-2.09v-2a5.12,5.12,0,0,1-4.44,2.32,5.18,5.18,0,0,1-4.17-1.84,7.8,7.8,0,0,1,0-9.36,5.49,5.49,0,0,1,8.61.5V87.6h2.09ZM467,101.8a5.08,5.08,0,0,0,1.06-3.3A5,5,0,0,0,467,95.21a3.66,3.66,0,0,0-3-1.3,3.45,3.45,0,0,0-2.9,1.29,5.12,5.12,0,0,0-1,3.3,5.2,5.2,0,0,0,1,3.31,3.45,3.45,0,0,0,2.9,1.29A3.66,3.66,0,0,0,467,101.8Z"/><path d="M476,89.81h-2.08V87.6H476Zm0,14.93h-2.08V92.26H476Z"/><path d="M488.41,101.26l1.61,1.15a5.81,5.81,0,0,1-5,2.61,5.61,5.61,0,0,1-4.39-1.84,7.43,7.43,0,0,1,0-9.36A5.58,5.58,0,0,1,485,92a5.72,5.72,0,0,1,5,2.59l-1.56,1.25a3.73,3.73,0,0,0-3.34-2,3.49,3.49,0,0,0-2.84,1.31,5.7,5.7,0,0,0,0,6.65,3.46,3.46,0,0,0,2.82,1.31A3.88,3.88,0,0,0,488.41,101.26Z"/><path d="M503.8,103.1l.26,1.59a3.73,3.73,0,0,1-1.44.24,2.69,2.69,0,0,1-1.62-.49,2.14,2.14,0,0,1-.8-1.5,4.92,4.92,0,0,1-4.3,2.08,4.55,4.55,0,0,1-3.1-1,3.55,3.55,0,0,1-1.15-2.79,3.7,3.7,0,0,1,.29-1.49,2.94,2.94,0,0,1,.71-1,4.18,4.18,0,0,1,1-.64,5.44,5.44,0,0,1,1.13-.39c.34-.07.72-.14,1.15-.2l.81-.1.82-.11a5.83,5.83,0,0,0,.71-.13A3,3,0,0,0,499,97a2.45,2.45,0,0,0,.48-.29,1,1,0,0,0,.36-.43,1.38,1.38,0,0,0,.11-.59,1.46,1.46,0,0,0-.84-1.39,4.26,4.26,0,0,0-2-.43,6.33,6.33,0,0,0-3.89,1.32l-1-1.59a8.68,8.68,0,0,1,5-1.58,5.55,5.55,0,0,1,3.53,1,3.62,3.62,0,0,1,1.3,3.07V102c0,.9.33,1.35,1,1.35A1.26,1.26,0,0,0,503.8,103.1ZM500,99.94V97.78a2.5,2.5,0,0,1-.52.51,2,2,0,0,1-.69.33l-.67.18c-.17,0-.46.08-.86.14l-.86.13a5.34,5.34,0,0,0-1.94.64,1.6,1.6,0,0,0-.65,1.47,1.84,1.84,0,0,0,.72,1.59,3.09,3.09,0,0,0,1.87.53,4,4,0,0,0,2.56-.84A3.06,3.06,0,0,0,500,99.94Z"/><path d="M512.58,102.6l.89,1.58a4.29,4.29,0,0,1-2.71.84,3.55,3.55,0,0,1-3.27-1.58A4.63,4.63,0,0,1,507,101V94H504.8V92.26H507V88.75h2.09v3.51h4V94h-4v7q0,2.16,1.92,2.16A2.53,2.53,0,0,0,512.58,102.6Z"/><path d="M517.76,89.81h-2.08V87.6h2.08Zm0,14.93h-2.08V92.26h2.08Z"/><path d="M533,98.52a6.65,6.65,0,0,1-1.68,4.68,6.4,6.4,0,0,1-8.94,0,6.69,6.69,0,0,1-1.67-4.68,6.77,6.77,0,0,1,1.67-4.72,6.37,6.37,0,0,1,8.94,0A6.73,6.73,0,0,1,533,98.52Zm-2.23,0a5.18,5.18,0,0,0-1-3.35,3.46,3.46,0,0,0-2.86-1.31A3.5,3.5,0,0,0,524,95.17a5.78,5.78,0,0,0,0,6.67,3.47,3.47,0,0,0,2.88,1.31,3.43,3.43,0,0,0,2.86-1.31A5.13,5.13,0,0,0,530.75,98.52Z"/><path d="M538,104.74h-2.09V92.26H538v2.06A4.93,4.93,0,0,1,542.27,92a4.14,4.14,0,0,1,3.19,1.25,4.89,4.89,0,0,1,1.18,3.48v8h-2.09V97.18q0-3.24-2.79-3.24a3.66,3.66,0,0,0-2.7,1.08,3.81,3.81,0,0,0-1.06,2.8Z"/><path d="M660.32,33.22h-5.45V47.14h-2.26V33.22h-5.42V31.15h13.13Z"/><path d="M672.63,45.5l.26,1.59a3.73,3.73,0,0,1-1.44.24,2.69,2.69,0,0,1-1.62-.49,2.17,2.17,0,0,1-.8-1.5,4.92,4.92,0,0,1-4.3,2.08,4.52,4.52,0,0,1-3.09-1,3.52,3.52,0,0,1-1.16-2.79,3.7,3.7,0,0,1,.29-1.49,2.94,2.94,0,0,1,.71-1,4.07,4.07,0,0,1,1-.64,5.38,5.38,0,0,1,1.12-.39c.34-.07.72-.14,1.15-.2l.81-.1.83-.11a6.1,6.1,0,0,0,.7-.13,3.35,3.35,0,0,0,.68-.2,3.23,3.23,0,0,0,.48-.29,1.14,1.14,0,0,0,.36-.43,1.55,1.55,0,0,0,.1-.59,1.46,1.46,0,0,0-.84-1.39,4.24,4.24,0,0,0-2-.43A6.33,6.33,0,0,0,662,37.54l-1-1.59a8.71,8.71,0,0,1,5-1.58,5.59,5.59,0,0,1,3.53,1,3.65,3.65,0,0,1,1.29,3.07v5.9c0,.9.33,1.35,1,1.35A1.24,1.24,0,0,0,672.63,45.5Zm-3.82-3.16V40.18a2.73,2.73,0,0,1-.51.51,2.17,2.17,0,0,1-.7.33l-.67.18c-.17,0-.45.08-.85.14l-.87.13a5.34,5.34,0,0,0-1.94.64,1.62,1.62,0,0,0-.65,1.47,1.84,1.84,0,0,0,.72,1.59,3.11,3.11,0,0,0,1.87.53,4,4,0,0,0,2.56-.84A3.06,3.06,0,0,0,668.81,42.34Z"/><path d="M677.14,41.11l6.26-6.45H686l-5,5.11,5.69,7.37h-2.64l-4.51-6-2.4,2.42v3.56h-2.09V30h2.09Z"/><path d="M699.46,40.58a6.2,6.2,0,0,1-.05.82h-9.79a4.3,4.3,0,0,0,1.22,3,4.11,4.11,0,0,0,3,1.09,4.84,4.84,0,0,0,3.7-1.63l1.39,1.37a6.71,6.71,0,0,1-5.14,2.18,6.12,6.12,0,0,1-4.68-1.81,6.56,6.56,0,0,1-1.7-4.67,6.78,6.78,0,0,1,1.67-4.7,6.19,6.19,0,0,1,8.77-.1A6.32,6.32,0,0,1,699.46,40.58Zm-9.79-.79h7.63a4,4,0,0,0-1.22-2.67,3.72,3.72,0,0,0-2.6-.95,3.64,3.64,0,0,0-2.65,1A3.91,3.91,0,0,0,689.67,39.79Z"/><path d="M719.93,45.5l.27,1.59a3.8,3.8,0,0,1-1.44.24,2.74,2.74,0,0,1-1.63-.49,2.21,2.21,0,0,1-.8-1.5A4.9,4.9,0,0,1,712,47.42a4.55,4.55,0,0,1-3.1-1,4,4,0,0,1-.86-4.28,2.92,2.92,0,0,1,.7-1,4.07,4.07,0,0,1,1.05-.64,5.25,5.25,0,0,1,1.13-.39c.33-.07.72-.14,1.15-.2l.8-.1.83-.11a6.19,6.19,0,0,0,.71-.13,2.49,2.49,0,0,0,1.15-.49,1,1,0,0,0,.36-.43,1.55,1.55,0,0,0,.11-.59,1.46,1.46,0,0,0-.84-1.39,4.29,4.29,0,0,0-2-.43,6.31,6.31,0,0,0-3.89,1.32l-1-1.59a8.66,8.66,0,0,1,5-1.58,5.57,5.57,0,0,1,3.53,1,3.65,3.65,0,0,1,1.29,3.07v5.9q0,1.35,1,1.35A1.21,1.21,0,0,0,719.93,45.5Zm-3.81-3.16V40.18a2.77,2.77,0,0,1-.52.51,2.07,2.07,0,0,1-.7.33l-.67.18c-.17,0-.45.08-.85.14l-.86.13a5.33,5.33,0,0,0-1.95.64,1.62,1.62,0,0,0-.65,1.47,1.84,1.84,0,0,0,.72,1.59,3.12,3.12,0,0,0,1.88.53,3.93,3.93,0,0,0,2.55-.84A3,3,0,0,0,716.12,42.34Z"/><path d="M724.52,47.14h-2.09V30h2.09Z"/><path d="M730.49,47.14H728.4V30h2.09Z"/><path d="M623.38,75.94h-2.09V63.46h2.09v2a4.72,4.72,0,0,1,4.06-2.3,3.59,3.59,0,0,1,3.74,2.52,5.08,5.08,0,0,1,4.42-2.52,4,4,0,0,1,3.11,1.22,4.89,4.89,0,0,1,1.11,3.41v8.14h-2.09V68.3c0-2.11-.87-3.16-2.61-3.16a3.32,3.32,0,0,0-2.52,1.06,3.83,3.83,0,0,0-1,2.75v7H629.5V68.3c0-2.11-.87-3.16-2.62-3.16a3.28,3.28,0,0,0-2.51,1,3.89,3.89,0,0,0-1,2.76Z"/><path d="M654.68,69.38a6.2,6.2,0,0,1,0,.82h-9.79a4.3,4.3,0,0,0,1.22,3,4.08,4.08,0,0,0,3,1.09,4.84,4.84,0,0,0,3.69-1.63l1.4,1.37A6.74,6.74,0,0,1,649,76.22a6.1,6.1,0,0,1-4.68-1.81,6.52,6.52,0,0,1-1.7-4.67,6.82,6.82,0,0,1,1.66-4.7,5.66,5.66,0,0,1,4.45-1.87A5.57,5.57,0,0,1,653,64.94,6.33,6.33,0,0,1,654.68,69.38Zm-9.8-.79h7.64a4,4,0,0,0-1.23-2.67,3.7,3.7,0,0,0-2.59-1,3.62,3.62,0,0,0-2.65,1A3.87,3.87,0,0,0,644.88,68.59Z"/><path d="M669,75.94h-2.09v-2a5.53,5.53,0,0,1-8.62.48,7.8,7.8,0,0,1,0-9.36,5.5,5.5,0,0,1,8.62.5V58.8H669ZM665.8,73a5.09,5.09,0,0,0,1.07-3.3,5,5,0,0,0-1.07-3.29,3.64,3.64,0,0,0-3-1.3,3.46,3.46,0,0,0-2.9,1.29,5.17,5.17,0,0,0-1,3.3,5.26,5.26,0,0,0,1,3.31,3.46,3.46,0,0,0,2.9,1.29A3.64,3.64,0,0,0,665.8,73Z"/><path d="M674.79,61H672.7V58.8h2.09Zm0,14.93H672.7V63.46h2.09Z"/><path d="M687.2,72.46l1.6,1.15a5.8,5.8,0,0,1-5,2.61,5.62,5.62,0,0,1-4.39-1.84,7.46,7.46,0,0,1,0-9.36,5.6,5.6,0,0,1,4.39-1.85,5.71,5.71,0,0,1,5,2.59L687.17,67a3.73,3.73,0,0,0-3.33-2A3.51,3.51,0,0,0,681,66.37,5.7,5.7,0,0,0,681,73a3.48,3.48,0,0,0,2.82,1.31A3.89,3.89,0,0,0,687.2,72.46Z"/><path d="M702.58,74.3l.26,1.59a3.73,3.73,0,0,1-1.44.24,2.69,2.69,0,0,1-1.62-.49,2.17,2.17,0,0,1-.8-1.5,4.92,4.92,0,0,1-4.3,2.08,4.54,4.54,0,0,1-3.09-1,3.51,3.51,0,0,1-1.15-2.79,3.7,3.7,0,0,1,.28-1.49,3.08,3.08,0,0,1,.71-1,4.07,4.07,0,0,1,1.05-.64,5.38,5.38,0,0,1,1.12-.39c.34-.07.72-.14,1.16-.2l.8-.1.83-.11a6.61,6.61,0,0,0,.71-.13,2.49,2.49,0,0,0,1.15-.49,1,1,0,0,0,.36-.43,1.55,1.55,0,0,0,.11-.59,1.46,1.46,0,0,0-.84-1.39,4.31,4.31,0,0,0-2-.43A6.28,6.28,0,0,0,692,66.34l-1-1.59a8.66,8.66,0,0,1,5-1.58,5.57,5.57,0,0,1,3.53,1,3.65,3.65,0,0,1,1.29,3.07v5.9q0,1.35,1,1.35A1.23,1.23,0,0,0,702.58,74.3Zm-3.82-3.16V69a2.73,2.73,0,0,1-.51.51,2.17,2.17,0,0,1-.7.33l-.67.18c-.17,0-.45.08-.85.14l-.87.13a5.34,5.34,0,0,0-1.94.64,1.62,1.62,0,0,0-.65,1.47,1.84,1.84,0,0,0,.72,1.59,3.11,3.11,0,0,0,1.87.53,4,4,0,0,0,2.56-.84A3,3,0,0,0,698.76,71.14Z"/><path d="M711.36,73.8l.89,1.58a4.27,4.27,0,0,1-2.71.84,3.52,3.52,0,0,1-3.26-1.58,4.53,4.53,0,0,1-.53-2.47v-7h-2.16V63.46h2.16V60h2.09v3.51h4v1.72h-4v7q0,2.16,1.92,2.16A2.51,2.51,0,0,0,711.36,73.8Z"/><path d="M716.55,61h-2.09V58.8h2.09Zm0,14.93h-2.09V63.46h2.09Z"/><path d="M731.76,69.72a6.65,6.65,0,0,1-1.68,4.68,6.4,6.4,0,0,1-8.94,0,6.68,6.68,0,0,1-1.66-4.68A6.77,6.77,0,0,1,721.14,65a6.37,6.37,0,0,1,8.94,0A6.73,6.73,0,0,1,731.76,69.72Zm-2.23,0a5.24,5.24,0,0,0-1-3.35,3.81,3.81,0,0,0-5.75,0,5.78,5.78,0,0,0,0,6.67,3.81,3.81,0,0,0,5.75,0A5.19,5.19,0,0,0,729.53,69.72Z"/><path d="M736.78,75.94h-2.09V63.46h2.09v2.06a4.94,4.94,0,0,1,4.27-2.35,4.13,4.13,0,0,1,3.19,1.25,4.84,4.84,0,0,1,1.18,3.48v8h-2.09V68.38q0-3.24-2.78-3.24a3.63,3.63,0,0,0-2.7,1.08,3.82,3.82,0,0,0-1.07,2.8Z"/><path d="M758.55,72.24a3.52,3.52,0,0,1-1.37,2.89,5.82,5.82,0,0,1-3.74,1.09,6.1,6.1,0,0,1-5.52-2.66l1.53-1.15a4.79,4.79,0,0,0,4.11,2,3.85,3.85,0,0,0,2.11-.51,1.69,1.69,0,0,0,.79-1.5,1.25,1.25,0,0,0-.72-1.23,13.91,13.91,0,0,0-2.71-.72,9.16,9.16,0,0,1-3.32-1.17,2.75,2.75,0,0,1-1.15-2.45,3.14,3.14,0,0,1,1.36-2.74,5.72,5.72,0,0,1,3.32-.93,6.68,6.68,0,0,1,5.07,2.09l-1.39,1.32a4.63,4.63,0,0,0-3.7-1.61,3.83,3.83,0,0,0-1.87.42,1.36,1.36,0,0,0-.77,1.26,1.22,1.22,0,0,0,.18.65,1.85,1.85,0,0,0,.41.46,2.13,2.13,0,0,0,.71.34c.32.1.59.18.82.23l1,.19c.6.11,1.1.22,1.48.31a10.9,10.9,0,0,1,1.3.43,4,4,0,0,1,1.12.65,3.1,3.1,0,0,1,.68,1A3.17,3.17,0,0,1,758.55,72.24Z"/><path d="M873.2,34.08l-1.78,1.22a5.43,5.43,0,0,0-8.42-.68,6.54,6.54,0,0,0-1.49,4.5A6.67,6.67,0,0,0,863,43.67a4.92,4.92,0,0,0,3.91,1.71,5.05,5.05,0,0,0,4.51-2.47l1.85,1.2a7.13,7.13,0,0,1-6.34,3.31,7.32,7.32,0,0,1-5.63-2.32,8.46,8.46,0,0,1-2.14-6,8.44,8.44,0,0,1,2.14-6,7.83,7.83,0,0,1,11.9.89Z"/><path d="M878,47.14H876V30H878v6.72a5,5,0,0,1,4.28-2.35,4.16,4.16,0,0,1,3.19,1.25,4.88,4.88,0,0,1,1.17,3.48v8H884.6V39.58q0-3.24-2.79-3.24a3.63,3.63,0,0,0-2.7,1.08,3.82,3.82,0,0,0-1.07,2.8Z"/><path d="M901.54,40.58a6.2,6.2,0,0,1,0,.82H891.7a4.3,4.3,0,0,0,1.22,3,4.11,4.11,0,0,0,3,1.09,4.84,4.84,0,0,0,3.7-1.63L901,45.24a6.71,6.71,0,0,1-5.14,2.18,6.12,6.12,0,0,1-4.68-1.81,6.56,6.56,0,0,1-1.7-4.67,6.78,6.78,0,0,1,1.67-4.7,6.19,6.19,0,0,1,8.77-.1A6.32,6.32,0,0,1,901.54,40.58Zm-9.79-.79h7.63a4,4,0,0,0-1.22-2.67,3.72,3.72,0,0,0-2.6-.95,3.64,3.64,0,0,0-2.65,1A3.91,3.91,0,0,0,891.75,39.79Z"/><path d="M913,43.66l1.61,1.15a5.82,5.82,0,0,1-5,2.61,5.61,5.61,0,0,1-4.39-1.84,6.75,6.75,0,0,1-1.66-4.68,6.72,6.72,0,0,1,1.66-4.68,5.58,5.58,0,0,1,4.39-1.85,5.72,5.72,0,0,1,5,2.59L913,38.21a3.73,3.73,0,0,0-3.34-2,3.49,3.49,0,0,0-2.84,1.31,5.7,5.7,0,0,0,0,6.65,3.46,3.46,0,0,0,2.82,1.31A3.88,3.88,0,0,0,913,43.66Z"/><path d="M919.3,41.11l6.26-6.45h2.64l-5,5.11,5.69,7.37h-2.64l-4.51-6-2.4,2.42v3.56h-2.09V30h2.09Z"/><path d="M833.6,75.94h-2.09V63.46h2.09v2a4.72,4.72,0,0,1,4-2.3,3.6,3.6,0,0,1,3.75,2.52,5,5,0,0,1,4.41-2.52,4,4,0,0,1,3.11,1.22A4.9,4.9,0,0,1,850,67.8v8.14H848V68.3c0-2.11-.87-3.16-2.62-3.16a3.32,3.32,0,0,0-2.52,1.06,3.87,3.87,0,0,0-1,2.75v7h-2.08V68.3c0-2.11-.88-3.16-2.62-3.16a3.31,3.31,0,0,0-2.52,1,3.89,3.89,0,0,0-1,2.76Z"/><path d="M864.89,69.38a4.86,4.86,0,0,1,0,.82h-9.79a4.31,4.31,0,0,0,1.23,3,4.07,4.07,0,0,0,3,1.09,4.84,4.84,0,0,0,3.7-1.63L864.34,74a6.71,6.71,0,0,1-5.13,2.18,6.12,6.12,0,0,1-4.69-1.81,6.56,6.56,0,0,1-1.7-4.67,6.83,6.83,0,0,1,1.67-4.7,6.19,6.19,0,0,1,8.77-.1A6.32,6.32,0,0,1,864.89,69.38Zm-9.79-.79h7.63a4,4,0,0,0-1.22-2.67,3.72,3.72,0,0,0-2.59-1,3.64,3.64,0,0,0-2.66,1A3.91,3.91,0,0,0,855.1,68.59Z"/><path d="M879.17,75.94h-2.09v-2a5.12,5.12,0,0,1-4.44,2.32,5.18,5.18,0,0,1-4.17-1.84,7.8,7.8,0,0,1,0-9.36,5.49,5.49,0,0,1,8.61.5V58.8h2.09ZM876,73a5.08,5.08,0,0,0,1.06-3.3A5,5,0,0,0,876,66.41a3.66,3.66,0,0,0-3-1.3,3.45,3.45,0,0,0-2.9,1.29,5.12,5.12,0,0,0-1,3.3,5.2,5.2,0,0,0,1,3.31A3.45,3.45,0,0,0,873,74.3,3.66,3.66,0,0,0,876,73Z"/><path d="M885,61h-2.08V58.8H885Zm0,14.93h-2.08V63.46H885Z"/><path d="M897.41,72.46,899,73.61a5.81,5.81,0,0,1-5,2.61,5.61,5.61,0,0,1-4.39-1.84,7.43,7.43,0,0,1,0-9.36A5.58,5.58,0,0,1,894,63.17a5.72,5.72,0,0,1,5,2.59L897.39,67a3.73,3.73,0,0,0-3.34-2,3.49,3.49,0,0,0-2.84,1.31,5.7,5.7,0,0,0,0,6.65A3.46,3.46,0,0,0,894,74.33,3.88,3.88,0,0,0,897.41,72.46Z"/><path d="M912.8,74.3l.26,1.59a3.73,3.73,0,0,1-1.44.24,2.69,2.69,0,0,1-1.62-.49,2.14,2.14,0,0,1-.8-1.5,4.92,4.92,0,0,1-4.3,2.08,4.55,4.55,0,0,1-3.1-1,3.55,3.55,0,0,1-1.15-2.79,3.7,3.7,0,0,1,.29-1.49,2.94,2.94,0,0,1,.71-1,4.18,4.18,0,0,1,1-.64,5.44,5.44,0,0,1,1.13-.39c.34-.07.72-.14,1.15-.2l.81-.1.82-.11a5.83,5.83,0,0,0,.71-.13,3,3,0,0,0,.67-.2,2.45,2.45,0,0,0,.48-.29,1,1,0,0,0,.36-.43,1.38,1.38,0,0,0,.11-.59,1.46,1.46,0,0,0-.84-1.39,4.26,4.26,0,0,0-2-.43,6.33,6.33,0,0,0-3.89,1.32l-1-1.59a8.68,8.68,0,0,1,5-1.58,5.55,5.55,0,0,1,3.53,1,3.62,3.62,0,0,1,1.3,3.07v5.9c0,.9.33,1.35,1,1.35A1.26,1.26,0,0,0,912.8,74.3ZM909,71.14V69a2.5,2.5,0,0,1-.52.51,2,2,0,0,1-.69.33l-.67.18c-.17,0-.46.08-.86.14l-.86.13a5.34,5.34,0,0,0-1.94.64,1.6,1.6,0,0,0-.65,1.47,1.84,1.84,0,0,0,.72,1.59,3.09,3.09,0,0,0,1.87.53,4,4,0,0,0,2.56-.84A3.06,3.06,0,0,0,909,71.14Z"/><path d="M921.58,73.8l.89,1.58a4.29,4.29,0,0,1-2.71.84,3.55,3.55,0,0,1-3.27-1.58,4.63,4.63,0,0,1-.53-2.47v-7H913.8V63.46H916V60h2.09v3.51h4v1.72h-4v7q0,2.16,1.92,2.16A2.53,2.53,0,0,0,921.58,73.8Z"/><path d="M926.76,61h-2.08V58.8h2.08Zm0,14.93h-2.08V63.46h2.08Z"/><path d="M942,69.72a6.65,6.65,0,0,1-1.68,4.68,6.4,6.4,0,0,1-8.94,0,6.69,6.69,0,0,1-1.67-4.68A6.77,6.77,0,0,1,931.36,65a6.37,6.37,0,0,1,8.94,0A6.73,6.73,0,0,1,942,69.72Zm-2.23,0a5.18,5.18,0,0,0-1-3.35,3.46,3.46,0,0,0-2.86-1.31A3.5,3.5,0,0,0,933,66.37,5.78,5.78,0,0,0,933,73a3.47,3.47,0,0,0,2.88,1.31A3.43,3.43,0,0,0,938.7,73,5.13,5.13,0,0,0,939.75,69.72Z"/><path d="M947,75.94h-2.09V63.46H947v2.06a4.93,4.93,0,0,1,4.27-2.35,4.14,4.14,0,0,1,3.19,1.25,4.89,4.89,0,0,1,1.18,3.48v8h-2.09V68.38q0-3.24-2.79-3.24a3.66,3.66,0,0,0-2.7,1.08A3.81,3.81,0,0,0,947,69Z"/><path d="M858.1,104.74H856V87.6h2.09v6.72A4.94,4.94,0,0,1,862.37,92a4.13,4.13,0,0,1,3.19,1.25,4.84,4.84,0,0,1,1.18,3.48v8h-2.09V97.18q0-3.24-2.78-3.24a3.63,3.63,0,0,0-2.7,1.08,3.82,3.82,0,0,0-1.07,2.8Z"/><path d="M872.43,89.81h-2.09V87.6h2.09Zm0,14.93h-2.09V92.26h2.09Z"/><path d="M885.7,101a3.52,3.52,0,0,1-1.37,2.89,5.82,5.82,0,0,1-3.74,1.09,6.12,6.12,0,0,1-5.52-2.66l1.53-1.15a4.8,4.8,0,0,0,4.11,2,3.85,3.85,0,0,0,2.11-.51,1.69,1.69,0,0,0,.79-1.5,1.25,1.25,0,0,0-.72-1.23,13.91,13.91,0,0,0-2.71-.72,9.1,9.1,0,0,1-3.31-1.17,2.72,2.72,0,0,1-1.15-2.45,3.13,3.13,0,0,1,1.35-2.74A5.75,5.75,0,0,1,880.4,92a6.68,6.68,0,0,1,5.06,2.09l-1.39,1.32a4.63,4.63,0,0,0-3.7-1.61,3.86,3.86,0,0,0-1.87.42,1.36,1.36,0,0,0-.77,1.26,1.22,1.22,0,0,0,.18.65,1.85,1.85,0,0,0,.41.46,2.23,2.23,0,0,0,.71.34c.32.1.59.18.83.23l1,.19c.61.11,1.1.22,1.49.31a11.42,11.42,0,0,1,1.29.43,4,4,0,0,1,1.12.65,3.1,3.1,0,0,1,.68,1A3.17,3.17,0,0,1,885.7,101Z"/><path d="M895,102.6l.89,1.58a4.27,4.27,0,0,1-2.71.84,3.52,3.52,0,0,1-3.26-1.58,4.53,4.53,0,0,1-.53-2.47V94h-2.16V92.26h2.16V88.75h2.09v3.51h4V94h-4v7q0,2.16,1.92,2.16A2.51,2.51,0,0,0,895,102.6Z"/><path d="M909.53,98.52a6.65,6.65,0,0,1-1.68,4.68,6.4,6.4,0,0,1-8.94,0,6.69,6.69,0,0,1-1.67-4.68,6.77,6.77,0,0,1,1.67-4.72,6.37,6.37,0,0,1,8.94,0A6.73,6.73,0,0,1,909.53,98.52Zm-2.23,0a5.24,5.24,0,0,0-1-3.35,3.81,3.81,0,0,0-5.75,0,5.78,5.78,0,0,0,0,6.67,3.81,3.81,0,0,0,5.75,0A5.19,5.19,0,0,0,907.3,98.52Z"/><path d="M919.88,92.47l-.68,2a3.1,3.1,0,0,0-1.44-.38,2.85,2.85,0,0,0-2.26,1.12,4.47,4.47,0,0,0-1,3v6.51h-2.09V92.26h2.09v2.11A4.22,4.22,0,0,1,918.17,92,3.11,3.11,0,0,1,919.88,92.47Z"/><path d="M932.5,92.26l-5,13a8,8,0,0,1-1.71,2.93,3.53,3.53,0,0,1-2.59.91,4.14,4.14,0,0,1-2.54-.77l.91-1.53a2.64,2.64,0,0,0,1.49.48,1.78,1.78,0,0,0,1.29-.49,4.65,4.65,0,0,0,.92-1.41l.33-.74-5.28-12.43h2.4l4,9.69,3.53-9.69Z"/><line class="cls-4" x1="-0.37" y1="132.61" x2="1200" y2="132.61"/><line class="cls-4" x1="-0.37" y1="921.61" x2="1200" y2="921.61"/><path class="cls-5" d="M278.56,156.52a16,16,0,1,0,16,16A16,16,0,0,0,278.56,156.52ZM289,167.15l-13.14,13.13-7.76-7.76a1.41,1.41,0,0,1,2-2l5.78,5.78L287,165.17a1.4,1.4,0,0,1,2,0,1.42,1.42,0,0,1,0,2Z"/><rect class="cls-6" x="261" y="155" width="36" height="36"/><path class="cls-5" d="M278.56,392.52a16,16,0,1,0,16,16A16,16,0,0,0,278.56,392.52ZM289,403.15l-13.14,13.13-7.76-7.76a1.41,1.41,0,0,1,2-2l5.78,5.78L287,401.17a1.4,1.4,0,0,1,2,0,1.42,1.42,0,0,1,0,2Z"/><rect class="cls-6" x="261" y="391" width="36" height="36"/><path class="cls-5" d="M278.56,549.52a16,16,0,1,0,16,16A16,16,0,0,0,278.56,549.52ZM289,560.15l-13.14,13.13-7.76-7.76a1.41,1.41,0,0,1,2-2l5.78,5.78L287,558.17a1.4,1.4,0,0,1,2,0,1.42,1.42,0,0,1,0,2Z"/><rect class="cls-6" x="261" y="548" width="36" height="36"/><path class="cls-5" d="M278.56,786.52a16,16,0,1,0,16,16A16,16,0,0,0,278.56,786.52ZM289,797.15l-13.14,13.13-7.76-7.76a1.41,1.41,0,0,1,2-2l5.78,5.78L287,795.17a1.4,1.4,0,0,1,2,0,1.42,1.42,0,0,1,0,2Z"/><rect class="cls-6" x="261" y="785" width="36" height="36"/><path class="cls-5" d="M278.56,865.52a16,16,0,1,0,16,16A16,16,0,0,0,278.56,865.52ZM289,876.15l-13.14,13.13-7.76-7.76a1.41,1.41,0,0,1,2-2l5.78,5.78L287,874.17a1.4,1.4,0,0,1,2,0,1.42,1.42,0,0,1,0,2Z"/><rect class="cls-6" x="261" y="864" width="36" height="36"/><path class="cls-5" d="M278.56,628.52a16,16,0,1,0,16,16A16,16,0,0,0,278.56,628.52ZM289,639.15l-13.14,13.13-7.76-7.76a1.41,1.41,0,0,1,2-2l5.78,5.78L287,637.17a1.4,1.4,0,0,1,2,0,1.42,1.42,0,0,1,0,2Z"/><rect class="cls-6" x="261" y="627" width="36" height="36"/><path class="cls-7" d="M280.64,251l8.29-8.29a1,1,0,0,0-1.41-1.41l-8.29,8.29-8.29-8.3a1,1,0,0,0-1.42,0,1,1,0,0,0,0,1.42l8.3,8.29-8.3,8.29a1,1,0,1,0,1.3,1.52l.11-.11,8.3-8.29,8.29,8.29a1,1,0,0,0,1.41-1.41Z"/><rect class="cls-6" x="261" y="233" width="36" height="36"/><path class="cls-7" d="M688.64,251l8.29-8.29a1,1,0,0,0-1.41-1.41l-8.29,8.29-8.29-8.3a1,1,0,0,0-1.42,0,1,1,0,0,0,0,1.42l8.3,8.29-8.3,8.29a1,1,0,0,0,1.3,1.52l.11-.11,8.3-8.29,8.29,8.29a1,1,0,0,0,1.41-1.41Z"/><rect class="cls-6" x="669" y="233" width="36" height="36"/><path class="cls-5" d="M1097.56,392.52a16,16,0,1,0,16,16A16,16,0,0,0,1097.56,392.52ZM1108,403.15l-13.14,13.13-7.76-7.76a1.41,1.41,0,0,1,2-2l5.78,5.78L1106,401.17a1.4,1.4,0,0,1,2,0,1.42,1.42,0,0,1,0,2Z"/><rect class="cls-6" x="1080" y="391" width="36" height="36"/><path class="cls-5" d="M1097.56,549.52a16,16,0,1,0,16,16A16,16,0,0,0,1097.56,549.52ZM1108,560.15l-13.14,13.13-7.76-7.76a1.41,1.41,0,0,1,2-2l5.78,5.78L1106,558.17a1.4,1.4,0,0,1,2,0,1.42,1.42,0,0,1,0,2Z"/><rect class="cls-6" x="1080" y="548" width="36" height="36"/><path class="cls-7" d="M1099.64,251l8.29-8.29a1,1,0,0,0-1.41-1.41l-8.29,8.29-8.29-8.3a1,1,0,0,0-1.42,0,1,1,0,0,0,0,1.42l8.3,8.29-8.3,8.29a1,1,0,0,0,1.3,1.52l.11-.11,8.3-8.29,8.29,8.29a1,1,0,0,0,1.41-1.41Z"/><rect class="cls-6" x="1080" y="233" width="36" height="36"/><path class="cls-7" d="M1099.64,330l8.29-8.29a1,1,0,0,0-1.41-1.41l-8.29,8.29-8.29-8.3a1,1,0,0,0-1.42,0,1,1,0,0,0,0,1.42l8.3,8.29-8.3,8.29a1,1,0,0,0,1.3,1.52l.11-.11,8.3-8.29,8.29,8.29a1,1,0,0,0,1.41-1.41Z"/><rect class="cls-6" x="1080" y="312" width="36" height="36"/><path class="cls-7" d="M1099.64,172l8.29-8.29a1,1,0,0,0-1.41-1.41l-8.29,8.29-8.29-8.3a1,1,0,0,0-1.42,0,1,1,0,0,0,0,1.42l8.3,8.29-8.3,8.29a1,1,0,0,0,1.3,1.52l.11-.11,8.3-8.29,8.29,8.29a1,1,0,0,0,1.41-1.41Z"/><rect class="cls-6" x="1080" y="154" width="36" height="36"/><path class="cls-7" d="M1099.64,487l8.29-8.29a1,1,0,0,0-1.41-1.41l-8.29,8.29-8.29-8.3a1,1,0,0,0-1.42,0,1,1,0,0,0,0,1.42l8.3,8.29-8.3,8.29a1,1,0,0,0,1.3,1.52l.11-.11,8.3-8.29,8.29,8.29a1,1,0,0,0,1.41-1.41Z"/><rect class="cls-6" x="1080" y="469" width="36" height="36"/><path class="cls-7" d="M1099.64,645l8.29-8.29a1,1,0,0,0-1.41-1.41l-8.29,8.29-8.29-8.3a1,1,0,0,0-1.42,0,1,1,0,0,0,0,1.42l8.3,8.29-8.3,8.29a1,1,0,1,0,1.3,1.52l.11-.11,8.3-8.29,8.29,8.29a1,1,0,0,0,1.41-1.41Z"/><rect class="cls-6" x="1080" y="627" width="36" height="36"/><path class="cls-7" d="M1099.64,724l8.29-8.29a1,1,0,0,0-1.41-1.41l-8.29,8.29-8.29-8.3a1,1,0,0,0-1.42,0,1,1,0,0,0,0,1.42l8.3,8.29-8.3,8.29a1,1,0,1,0,1.3,1.52l.11-.11,8.3-8.29,8.29,8.29a1,1,0,0,0,1.41-1.41Z"/><rect class="cls-6" x="1080" y="706" width="36" height="36"/><path class="cls-7" d="M1099.64,802l8.29-8.29a1,1,0,0,0-1.41-1.41l-8.29,8.29-8.29-8.3a1,1,0,0,0-1.42,0,1,1,0,0,0,0,1.42l8.3,8.29-8.3,8.29a1,1,0,1,0,1.3,1.52l.11-.11,8.3-8.29,8.29,8.29a1,1,0,0,0,1.41-1.41Z"/><rect class="cls-6" x="1080" y="784" width="36" height="36"/><path class="cls-7" d="M1099.64,880l8.29-8.29a1,1,0,0,0-1.41-1.41l-8.29,8.29-8.29-8.3a1,1,0,0,0-1.42,0,1,1,0,0,0,0,1.42l8.3,8.29-8.3,8.29a1,1,0,1,0,1.3,1.52l.11-.11,8.3-8.29,8.29,8.29a1,1,0,0,0,1.41-1.41Z"/><rect class="cls-6" x="1080" y="862" width="36" height="36"/><path class="cls-5" d="M891.56,392.52a16,16,0,1,0,16,16A16,16,0,0,0,891.56,392.52ZM902,403.15l-13.14,13.13-7.76-7.76a1.41,1.41,0,0,1,2-2l5.78,5.78L900,401.17a1.4,1.4,0,0,1,2,0,1.42,1.42,0,0,1,0,2Z"/><rect class="cls-6" x="874" y="391" width="36" height="36"/><path class="cls-5" d="M891.56,549.52a16,16,0,1,0,16,16A16,16,0,0,0,891.56,549.52ZM902,560.15l-13.14,13.13-7.76-7.76a1.41,1.41,0,0,1,2-2l5.78,5.78L900,558.17a1.4,1.4,0,0,1,2,0,1.42,1.42,0,0,1,0,2Z"/><rect class="cls-6" x="874" y="548" width="36" height="36"/><path class="cls-7" d="M893.64,251l8.29-8.29a1,1,0,0,0-1.41-1.41l-8.29,8.29-8.29-8.3a1,1,0,0,0-1.42,0,1,1,0,0,0,0,1.42l8.3,8.29-8.3,8.29a1,1,0,0,0,1.3,1.52l.11-.11,8.3-8.29,8.29,8.29a1,1,0,0,0,1.41-1.41Z"/><rect class="cls-6" x="874" y="233" width="36" height="36"/><path class="cls-7" d="M893.64,330l8.29-8.29a1,1,0,0,0-1.41-1.41l-8.29,8.29-8.29-8.3a1,1,0,0,0-1.42,0,1,1,0,0,0,0,1.42l8.3,8.29-8.3,8.29a1,1,0,0,0,1.3,1.52l.11-.11,8.3-8.29,8.29,8.29a1,1,0,0,0,1.41-1.41Z"/><rect class="cls-6" x="874" y="312" width="36" height="36"/><path class="cls-7" d="M893.64,487l8.29-8.29a1,1,0,0,0-1.41-1.41l-8.29,8.29-8.29-8.3a1,1,0,0,0-1.42,0,1,1,0,0,0,0,1.42l8.3,8.29-8.3,8.29a1,1,0,0,0,1.3,1.52l.11-.11,8.3-8.29,8.29,8.29a1,1,0,0,0,1.41-1.41Z"/><rect class="cls-6" x="874" y="469" width="36" height="36"/><path class="cls-7" d="M893.64,645l8.29-8.29a1,1,0,0,0-1.41-1.41l-8.29,8.29-8.29-8.3a1,1,0,0,0-1.42,0,1,1,0,0,0,0,1.42l8.3,8.29-8.3,8.29a1,1,0,1,0,1.3,1.52l.11-.11,8.3-8.29,8.29,8.29a1,1,0,0,0,1.41-1.41Z"/><rect class="cls-6" x="874" y="627" width="36" height="36"/><path class="cls-7" d="M893.64,724l8.29-8.29a1,1,0,0,0-1.41-1.41l-8.29,8.29-8.29-8.3a1,1,0,0,0-1.42,0,1,1,0,0,0,0,1.42l8.3,8.29-8.3,8.29a1,1,0,1,0,1.3,1.52l.11-.11,8.3-8.29,8.29,8.29a1,1,0,0,0,1.41-1.41Z"/><rect class="cls-6" x="874" y="706" width="36" height="36"/><path class="cls-7" d="M893.64,802l8.29-8.29a1,1,0,0,0-1.41-1.41l-8.29,8.29-8.29-8.3a1,1,0,0,0-1.42,0,1,1,0,0,0,0,1.42l8.3,8.29-8.3,8.29a1,1,0,1,0,1.3,1.52l.11-.11,8.3-8.29,8.29,8.29a1,1,0,0,0,1.41-1.41Z"/><rect class="cls-6" x="874" y="784" width="36" height="36"/><path class="cls-7" d="M893.64,880l8.29-8.29a1,1,0,0,0-1.41-1.41l-8.29,8.29-8.29-8.3a1,1,0,0,0-1.42,0,1,1,0,0,0,0,1.42l8.3,8.29-8.3,8.29a1,1,0,1,0,1.3,1.52l.11-.11,8.3-8.29,8.29,8.29a1,1,0,0,0,1.41-1.41Z"/><rect class="cls-6" x="874" y="862" width="36" height="36"/><path class="cls-7" d="M280.64,329l8.29-8.29a1,1,0,0,0-1.41-1.41l-8.29,8.29-8.29-8.3a1,1,0,0,0-1.42,0,1,1,0,0,0,0,1.42l8.3,8.29-8.3,8.29a1,1,0,1,0,1.3,1.52l.11-.11,8.3-8.29,8.29,8.29a1,1,0,0,0,1.41-1.41Z"/><rect class="cls-6" x="261" y="311" width="36" height="36"/><path class="cls-7" d="M280.64,487l8.29-8.29a1,1,0,0,0-1.41-1.41l-8.29,8.29-8.29-8.3a1,1,0,0,0-1.42,0,1,1,0,0,0,0,1.42l8.3,8.29-8.3,8.29a1,1,0,1,0,1.3,1.52l.11-.11,8.3-8.29,8.29,8.29a1,1,0,0,0,1.41-1.41Z"/><rect class="cls-6" x="261" y="469" width="36" height="36"/><path class="cls-7" d="M280.64,722l8.29-8.29a1,1,0,0,0-1.41-1.41l-8.29,8.29-8.29-8.3a1,1,0,0,0-1.42,0,1,1,0,0,0,0,1.42l8.3,8.29-8.3,8.29a1,1,0,0,0,1.3,1.52l.11-.11,8.3-8.29,8.29,8.29a1,1,0,0,0,1.41-1.41Z"/><rect class="cls-6" x="261" y="704" width="36" height="36"/><path class="cls-5" d="M485.56,156.52a16,16,0,1,0,16,16A16,16,0,0,0,485.56,156.52ZM496,167.15l-13.14,13.13-7.76-7.76a1.41,1.41,0,0,1,2-2l5.78,5.78L494,165.17a1.4,1.4,0,0,1,2,0,1.42,1.42,0,0,1,0,2Z"/><rect class="cls-6" x="468" y="155" width="36" height="36"/><path class="cls-5" d="M485.56,392.52a16,16,0,1,0,16,16A16,16,0,0,0,485.56,392.52ZM496,403.15l-13.14,13.13-7.76-7.76a1.41,1.41,0,0,1,2-2l5.78,5.78L494,401.17a1.4,1.4,0,0,1,2,0,1.42,1.42,0,0,1,0,2Z"/><rect class="cls-6" x="468" y="391" width="36" height="36"/><path class="cls-5" d="M485.56,313.52a16,16,0,1,0,16,16A16,16,0,0,0,485.56,313.52ZM496,324.15l-13.14,13.13-7.76-7.76a1.41,1.41,0,0,1,2-2l5.78,5.78L494,322.17a1.4,1.4,0,0,1,2,0,1.42,1.42,0,0,1,0,2Z"/><rect class="cls-6" x="468" y="312" width="36" height="36"/><path class="cls-5" d="M485.56,235.52a16,16,0,1,0,16,16A16,16,0,0,0,485.56,235.52ZM496,246.15l-13.14,13.13-7.76-7.76a1.41,1.41,0,0,1,2-2l5.78,5.78L494,244.17a1.4,1.4,0,0,1,2,0,1.42,1.42,0,0,1,0,2Z"/><rect class="cls-6" x="468" y="234" width="36" height="36"/><path class="cls-5" d="M485.56,549.52a16,16,0,1,0,16,16A16,16,0,0,0,485.56,549.52ZM496,560.15l-13.14,13.13-7.76-7.76a1.41,1.41,0,0,1,2-2l5.78,5.78L494,558.17a1.4,1.4,0,0,1,2,0,1.42,1.42,0,0,1,0,2Z"/><rect class="cls-6" x="468" y="548" width="36" height="36"/><path class="cls-5" d="M485.56,786.52a16,16,0,1,0,16,16A16,16,0,0,0,485.56,786.52ZM496,797.15l-13.14,13.13-7.76-7.76a1.41,1.41,0,0,1,2-2l5.78,5.78L494,795.17a1.4,1.4,0,0,1,2,0,1.42,1.42,0,0,1,0,2Z"/><rect class="cls-6" x="468" y="785" width="36" height="36"/><path class="cls-5" d="M485.56,862.52a16,16,0,1,0,16,16A16,16,0,0,0,485.56,862.52ZM496,873.15l-13.14,13.13-7.76-7.76a1.41,1.41,0,0,1,2-2l5.78,5.78L494,871.17a1.4,1.4,0,0,1,2,0,1.42,1.42,0,0,1,0,2Z"/><rect class="cls-6" x="468" y="861" width="36" height="36"/><path class="cls-5" d="M485.56,628.52a16,16,0,1,0,16,16A16,16,0,0,0,485.56,628.52ZM496,639.15l-13.14,13.13-7.76-7.76a1.41,1.41,0,0,1,2-2l5.78,5.78L494,637.17a1.4,1.4,0,0,1,2,0,1.42,1.42,0,0,1,0,2Z"/><rect class="cls-6" x="468" y="627" width="36" height="36"/><path class="cls-7" d="M487.64,487l8.29-8.29a1,1,0,0,0-1.41-1.41l-8.29,8.29-8.29-8.3a1,1,0,0,0-1.42,0,1,1,0,0,0,0,1.42l8.3,8.29-8.3,8.29a1,1,0,1,0,1.3,1.52l.11-.11,8.3-8.29,8.29,8.29a1,1,0,0,0,1.41-1.41Z"/><rect class="cls-6" x="468" y="469" width="36" height="36"/><path class="cls-7" d="M487.64,722l8.29-8.29a1,1,0,0,0-1.41-1.41l-8.29,8.29-8.29-8.3a1,1,0,0,0-1.42,0,1,1,0,0,0,0,1.42l8.3,8.29-8.3,8.29a1,1,0,0,0,1.3,1.52l.11-.11,8.3-8.29,8.29,8.29a1,1,0,0,0,1.41-1.41Z"/><rect class="cls-6" x="468" y="704" width="36" height="36"/><path class="cls-5" d="M688.56,156.52a16,16,0,1,0,16,16A16,16,0,0,0,688.56,156.52ZM699,167.15l-13.14,13.13-7.76-7.76a1.41,1.41,0,0,1,2-2l5.78,5.78L697,165.17a1.4,1.4,0,0,1,2,0,1.42,1.42,0,0,1,0,2Z"/><rect class="cls-6" x="671" y="155" width="36" height="36"/><path class="cls-5" d="M891.56,156.52a16,16,0,1,0,16,16A16,16,0,0,0,891.56,156.52ZM902,167.15l-13.14,13.13-7.76-7.76a1.41,1.41,0,0,1,2-2l5.78,5.78L900,165.17a1.4,1.4,0,0,1,2,0,1.42,1.42,0,0,1,0,2Z"/><rect class="cls-6" x="874" y="155" width="36" height="36"/><path class="cls-5" d="M688.56,392.52a16,16,0,1,0,16,16A16,16,0,0,0,688.56,392.52ZM699,403.15l-13.14,13.13-7.76-7.76a1.41,1.41,0,0,1,2-2l5.78,5.78L697,401.17a1.4,1.4,0,0,1,2,0,1.42,1.42,0,0,1,0,2Z"/><rect class="cls-6" x="671" y="391" width="36" height="36"/><path class="cls-5" d="M688.56,313.52a16,16,0,1,0,16,16A16,16,0,0,0,688.56,313.52ZM699,324.15l-13.14,13.13-7.76-7.76a1.41,1.41,0,0,1,2-2l5.78,5.78L697,322.17a1.4,1.4,0,0,1,2,0,1.42,1.42,0,0,1,0,2Z"/><rect class="cls-6" x="671" y="312" width="36" height="36"/><path class="cls-5" d="M688.56,549.52a16,16,0,1,0,16,16A16,16,0,0,0,688.56,549.52ZM699,560.15l-13.14,13.13-7.76-7.76a1.41,1.41,0,0,1,2-2l5.78,5.78L697,558.17a1.4,1.4,0,0,1,2,0,1.42,1.42,0,0,1,0,2Z"/><rect class="cls-6" x="671" y="548" width="36" height="36"/><path class="cls-5" d="M688.56,705.52a16,16,0,1,0,16,16A16,16,0,0,0,688.56,705.52ZM699,716.15l-13.14,13.13-7.76-7.76a1.41,1.41,0,0,1,2-2l5.78,5.78L697,714.17a1.4,1.4,0,0,1,2,0,1.42,1.42,0,0,1,0,2Z"/><rect class="cls-6" x="671" y="704" width="36" height="36"/><path class="cls-5" d="M688.56,862.52a16,16,0,1,0,16,16A16,16,0,0,0,688.56,862.52ZM699,873.15l-13.14,13.13-7.76-7.76a1.41,1.41,0,0,1,2-2l5.78,5.78L697,871.17a1.4,1.4,0,0,1,2,0,1.42,1.42,0,0,1,0,2Z"/><rect class="cls-6" x="671" y="861" width="36" height="36"/><path class="cls-5" d="M688.56,628.52a16,16,0,1,0,16,16A16,16,0,0,0,688.56,628.52ZM699,639.15l-13.14,13.13-7.76-7.76a1.41,1.41,0,0,1,2-2l5.78,5.78L697,637.17a1.4,1.4,0,0,1,2,0,1.42,1.42,0,0,1,0,2Z"/><rect class="cls-6" x="671" y="627" width="36" height="36"/><path class="cls-7" d="M690.64,487l8.29-8.29a1,1,0,0,0-1.41-1.41l-8.29,8.29-8.29-8.3a1,1,0,0,0-1.42,0,1,1,0,0,0,0,1.42l8.3,8.29-8.3,8.29a1,1,0,0,0,1.3,1.52l.11-.11,8.3-8.29,8.29,8.29a1,1,0,0,0,1.41-1.41Z"/><rect class="cls-6" x="671" y="469" width="36" height="36"/><path class="cls-7" d="M690.64,799l8.29-8.29a1,1,0,0,0-1.41-1.41l-8.29,8.29-8.29-8.3a1,1,0,0,0-1.42,0,1,1,0,0,0,0,1.42l8.3,8.29-8.3,8.29a1,1,0,1,0,1.3,1.52l.11-.11,8.3-8.29,8.29,8.29a1,1,0,0,0,1.41-1.41Z"/><rect class="cls-6" x="671" y="781" width="36" height="36"/></g></svg>