<svg xmlns="http://www.w3.org/2000/svg" viewBox="0 0 1200 1204"><defs><style>.cls-1,.cls-8{fill:#f6f6f6;}.cls-1,.cls-2{stroke:#808285;stroke-dasharray:3 5;}.cls-1,.cls-2,.cls-4,.cls-8{stroke-linecap:round;}.cls-1,.cls-2,.cls-4,.cls-6,.cls-8{stroke-miterlimit:10;}.cls-1,.cls-2,.cls-6{stroke-width:2px;}.cls-1,.cls-3,.cls-8{isolation:isolate;}.cls-2,.cls-4,.cls-6{fill:none;}.cls-4,.cls-8{stroke:#231f20;stroke-width:3px;}.cls-5{fill:#231f20;}.cls-6{stroke:#606060;}.cls-7{fill:#606060;}</style></defs><title>Artboard 1 copy 16WHITE</title><g id="Diagrams"><rect class="cls-1" x="79.5" y="75.21" width="1047" height="1047"/><line class="cls-2" x1="79.5" y1="599.28" x2="1126.5" y2="599.28"/><line class="cls-2" x1="603.57" y1="75.21" x2="603.57" y2="1122.21"/><g class="cls-3"><polyline class="cls-4" points="80.07 37.81 80.07 1122.21 1164.47 1122.21"/><polygon class="cls-5" points="65.11 42.19 80.07 16.28 95.03 42.19 65.11 42.19"/><polygon class="cls-5" points="1160.09 1137.17 1186 1122.21 1160.09 1107.25 1160.09 1137.17"/></g><line class="cls-6" x1="308.35" y1="1181.14" x2="391.26" y2="1181.14"/><polygon class="cls-7" points="388.34 1191.11 405.61 1181.14 388.34 1171.17 388.34 1191.11"/><path class="cls-7" d="M101.2,1188.84H98.62v-8.52H88.71v8.52H86.13v-18.29h2.58V1178h9.91v-7.44h2.58Z"/><path class="cls-7" d="M118.94,1181.72a7.61,7.61,0,0,1-1.92,5.36,7.3,7.3,0,0,1-10.23,0,8.52,8.52,0,0,1,0-10.75,7.28,7.28,0,0,1,10.23,0A7.68,7.68,0,0,1,118.94,1181.72Zm-2.55,0a6,6,0,0,0-1.2-3.83,4.37,4.37,0,0,0-6.57,0,6.63,6.63,0,0,0,0,7.64,4.37,4.37,0,0,0,6.57,0A5.91,5.91,0,0,0,116.39,1181.72Z"/><path class="cls-7" d="M141,1174.56l-4,14.28h-2.61L131,1177.63l-3.52,11.21h-2.61l-4-14.28h2.55l2.89,11.39,3.57-11.39h2.19l3.55,11.39,2.91-11.39Z"/><path class="cls-7" d="M158.79,1169.23l-.33,2a7.05,7.05,0,0,0-1.73-.25,2.29,2.29,0,0,0-1.51.42,1.84,1.84,0,0,0-.49,1.45v1.73h3.35v2h-3.35v12.31h-2.39v-12.31h-2.45v-2h2.45v-1.68a3.74,3.74,0,0,1,1.12-3,4.54,4.54,0,0,1,3.13-1A6.58,6.58,0,0,1,158.79,1169.23Z"/><path class="cls-7" d="M173.67,1181.34a6.19,6.19,0,0,1,0,.93H162.41a5,5,0,0,0,1.4,3.45,4.73,4.73,0,0,0,3.41,1.25,5.52,5.52,0,0,0,4.23-1.87l1.59,1.57a7.7,7.7,0,0,1-5.87,2.5,7,7,0,0,1-5.36-2.08,7.47,7.47,0,0,1-1.95-5.34,7.8,7.8,0,0,1,1.91-5.38,6.47,6.47,0,0,1,5.09-2.14,6.4,6.4,0,0,1,4.95,2A7.23,7.23,0,0,1,173.67,1181.34Zm-11.2-.91h8.73a4.5,4.5,0,0,0-1.4-3.06,4.27,4.27,0,0,0-3-1.08,4.2,4.2,0,0,0-3,1.15A4.45,4.45,0,0,0,162.47,1180.43Z"/><path class="cls-7" d="M189.68,1187l.31,1.81a4.37,4.37,0,0,1-1.65.28,3,3,0,0,1-1.86-.57,2.47,2.47,0,0,1-.92-1.71,5.61,5.61,0,0,1-4.91,2.39,5.19,5.19,0,0,1-3.54-1.16,4,4,0,0,1-1.32-3.18,4.21,4.21,0,0,1,.33-1.71,3.33,3.33,0,0,1,.81-1.16,4.75,4.75,0,0,1,1.19-.75,6.7,6.7,0,0,1,1.29-.43c.39-.09.83-.16,1.32-.24l.92-.11.95-.12.81-.15a3.73,3.73,0,0,0,.77-.24,3.33,3.33,0,0,0,.55-.33,1.13,1.13,0,0,0,.41-.49,1.74,1.74,0,0,0,.12-.67,1.68,1.68,0,0,0-1-1.6,4.92,4.92,0,0,0-2.28-.49,7.21,7.21,0,0,0-4.45,1.51l-1.1-1.81a9.9,9.9,0,0,1,5.72-1.81,6.37,6.37,0,0,1,4,1.15,4.17,4.17,0,0,1,1.49,3.51v6.76c0,1,.37,1.54,1.12,1.54A1.39,1.39,0,0,0,189.68,1187Zm-4.36-3.63v-2.47a3,3,0,0,1-.59.59,2.37,2.37,0,0,1-.8.37l-.77.21c-.19,0-.52.1-1,.16l-1,.15a6.17,6.17,0,0,0-2.23.73,1.87,1.87,0,0,0-.74,1.69,2.09,2.09,0,0,0,.83,1.81,3.48,3.48,0,0,0,2.14.61,4.5,4.5,0,0,0,2.92-1A3.47,3.47,0,0,0,185.32,1183.34Z"/><path class="cls-7" d="M203.36,1184.61a4,4,0,0,1-1.57,3.31,6.69,6.69,0,0,1-4.28,1.25q-4.31,0-6.32-3.05l1.76-1.32a5.47,5.47,0,0,0,4.7,2.31,4.39,4.39,0,0,0,2.41-.59,1.93,1.93,0,0,0,.91-1.72,1.4,1.4,0,0,0-.82-1.4,15.58,15.58,0,0,0-3.11-.83,10.37,10.37,0,0,1-3.79-1.34,3.14,3.14,0,0,1-1.31-2.8,3.54,3.54,0,0,1,1.55-3.13,6.47,6.47,0,0,1,3.8-1.07,7.65,7.65,0,0,1,5.8,2.39l-1.6,1.51a5.3,5.3,0,0,0-4.23-1.84,4.42,4.42,0,0,0-2.14.48,1.56,1.56,0,0,0-.88,1.44,1.36,1.36,0,0,0,.21.74,2.08,2.08,0,0,0,.47.54,2.79,2.79,0,0,0,.81.38,7.72,7.72,0,0,0,.94.26l1.12.22c.69.13,1.26.25,1.7.36a11.56,11.56,0,0,1,1.48.49,4.32,4.32,0,0,1,1.28.74,3.63,3.63,0,0,1,1.11,2.67Z"/><path class="cls-7" d="M209.07,1171.75h-2.39v-2.52h2.39Zm0,17.09h-2.39v-14.28h2.39Z"/><path class="cls-7" d="M213.36,1169.23h2.39v7.69a5.84,5.84,0,0,1,5.08-2.69,5.92,5.92,0,0,1,4.77,2.11,8.89,8.89,0,0,1,0,10.71,6,6,0,0,1-4.76,2.12,5.87,5.87,0,0,1-5.08-2.67v2.34h-2.39ZM217,1178a5.83,5.83,0,0,0-1.2,3.77,5.71,5.71,0,0,0,1.22,3.77,4.16,4.16,0,0,0,3.39,1.48,4,4,0,0,0,3.32-1.47,5.93,5.93,0,0,0,1.15-3.78,6,6,0,0,0-1.15-3.79,4,4,0,0,0-3.32-1.48A4.13,4.13,0,0,0,217,1178Z"/><path class="cls-7" d="M233.21,1188.84h-2.39v-19.61h2.39Z"/><path class="cls-7" d="M250.46,1181.34a6,6,0,0,1-.06.93H239.2a4.92,4.92,0,0,0,1.4,3.45A4.69,4.69,0,0,0,244,1187a5.52,5.52,0,0,0,4.23-1.87l1.6,1.57a7.74,7.74,0,0,1-5.88,2.5,7,7,0,0,1-5.36-2.08,7.47,7.47,0,0,1-2-5.34,7.8,7.8,0,0,1,1.91-5.38,6.48,6.48,0,0,1,5.1-2.14,6.37,6.37,0,0,1,4.94,2A7.24,7.24,0,0,1,250.46,1181.34Zm-11.21-.91H248a4.51,4.51,0,0,0-1.41-3.06,4.27,4.27,0,0,0-3-1.08,4.2,4.2,0,0,0-3,1.15A4.49,4.49,0,0,0,239.25,1180.43Z"/><path class="cls-7" d="M263.47,1171.75h-2.39v-2.52h2.39Zm0,17.09h-2.39v-14.28h2.39Z"/><path class="cls-7" d="M275,1186.39l1,1.81a4.9,4.9,0,0,1-3.1,1,4.06,4.06,0,0,1-3.74-1.82,5.3,5.3,0,0,1-.6-2.83v-8h-2.47v-2h2.47v-4H271v4h4.61v2H271v8c0,1.65.73,2.48,2.2,2.48A2.93,2.93,0,0,0,275,1186.39Z"/><path class="cls-7" d="M288.38,1171.75H286v-2.52h2.39Zm0,17.09H286v-14.28h2.39Z"/><path class="cls-7" d="M303.57,1184.61a4,4,0,0,1-1.57,3.31,6.69,6.69,0,0,1-4.28,1.25c-2.88,0-5-1-6.32-3.05l1.76-1.32a5.47,5.47,0,0,0,4.7,2.31,4.39,4.39,0,0,0,2.41-.59,1.93,1.93,0,0,0,.91-1.72,1.41,1.41,0,0,0-.83-1.4,15.23,15.23,0,0,0-3.1-.83,10.3,10.3,0,0,1-3.79-1.34,3.12,3.12,0,0,1-1.32-2.8,3.54,3.54,0,0,1,1.56-3.13,6.47,6.47,0,0,1,3.8-1.07,7.63,7.63,0,0,1,5.79,2.39l-1.59,1.51a5.3,5.3,0,0,0-4.23-1.84,4.42,4.42,0,0,0-2.14.48,1.54,1.54,0,0,0-.88,1.44,1.36,1.36,0,0,0,.21.74,2.05,2.05,0,0,0,.46.54,3.08,3.08,0,0,0,.81.38,8.34,8.34,0,0,0,.95.26l1.11.22q1,.2,1.71.36a11.56,11.56,0,0,1,1.48.49,4.45,4.45,0,0,1,1.28.74,3.63,3.63,0,0,1,1.11,2.67Z"/><line class="cls-6" x1="24" y1="880.77" x2="24" y2="797.86"/><polygon class="cls-7" points="33.97 800.78 24 783.51 14.03 800.78 33.97 800.78"/><path class="cls-7" d="M13.41,1104.92v-2.66l18.29,7V1112l-18.29,7v-2.77l15.27-5.6Z"/><path class="cls-7" d="M29.83,1087.65l1.81-.3a4.18,4.18,0,0,1,.28,1.65,3,3,0,0,1-.57,1.85,2.45,2.45,0,0,1-1.71.92,5.62,5.62,0,0,1,2.39,4.91,5.2,5.2,0,0,1-1.16,3.55,4,4,0,0,1-3.18,1.31,4.13,4.13,0,0,1-1.7-.32,3.28,3.28,0,0,1-1.17-.81,4.63,4.63,0,0,1-.74-1.2,6.57,6.57,0,0,1-.44-1.29q-.12-.57-.24-1.32c0-.18,0-.49-.11-.92s-.09-.74-.12-1-.08-.47-.15-.81a3.69,3.69,0,0,0-.23-.76,4.7,4.7,0,0,0-.33-.55,1.18,1.18,0,0,0-.5-.42,1.71,1.71,0,0,0-.67-.12,1.67,1.67,0,0,0-1.59,1,4.92,4.92,0,0,0-.5,2.28,7.27,7.27,0,0,0,1.51,4.45l-1.81,1.1a9.87,9.87,0,0,1-1.81-5.71,6.4,6.4,0,0,1,1.15-4,4.17,4.17,0,0,1,3.52-1.48h6.75c1,0,1.54-.38,1.54-1.13A1.39,1.39,0,0,0,29.83,1087.65ZM26.21,1092H23.73a2.75,2.75,0,0,1,.59.59,2.53,2.53,0,0,1,.38.79c.09.32.16.58.2.77s.1.52.17,1,.11.78.15,1a6.12,6.12,0,0,0,.72,2.23,1.89,1.89,0,0,0,1.69.74,2.12,2.12,0,0,0,1.82-.82,3.58,3.58,0,0,0,.6-2.15,4.52,4.52,0,0,0-1-2.92A3.46,3.46,0,0,0,26.21,1092Z"/><path class="cls-7" d="M31.7,1082.41v2.38H12.09v-2.38Z"/><path class="cls-7" d="M17.42,1068.32v-2.39H31.7v2.39H29.36a5.75,5.75,0,0,1,2.67,4.89,4.8,4.8,0,0,1-1.43,3.65,5.56,5.56,0,0,1-4,1.34H17.42v-2.39H26.1q3.7,0,3.7-3.15a4.24,4.24,0,0,0-1.23-3.11,4.38,4.38,0,0,0-3.22-1.23Z"/><path class="cls-7" d="M24.2,1048.76a6,6,0,0,1,.93.06V1060a4.92,4.92,0,0,0,3.45-1.4,4.69,4.69,0,0,0,1.25-3.4A5.52,5.52,0,0,0,28,1051l1.57-1.59a7.7,7.7,0,0,1,2.5,5.87,7,7,0,0,1-2.08,5.36,7.47,7.47,0,0,1-5.34,1.95,7.8,7.8,0,0,1-5.38-1.91,7.09,7.09,0,0,1-.11-10A7.26,7.26,0,0,1,24.2,1048.76ZM23.29,1060v-8.73a4.5,4.5,0,0,0-3.06,1.4,4.27,4.27,0,0,0-1.08,3,4.2,4.2,0,0,0,1.15,3A4.49,4.49,0,0,0,23.29,1060Z"/><path class="cls-7" d="M29.25,1030.86l1.82-1a4.93,4.93,0,0,1,1,3.11,4.06,4.06,0,0,1-1.81,3.73,5.33,5.33,0,0,1-2.83.61h-8v2.47h-2v-2.47h-4v-2.39h4v-4.62h2v4.62h8c1.64,0,2.47-.73,2.47-2.2A2.85,2.85,0,0,0,29.25,1030.86Z"/><path class="cls-7" d="M24.59,1014.19a7.6,7.6,0,0,1,5.35,1.92,7.3,7.3,0,0,1,0,10.23,7.64,7.64,0,0,1-5.35,1.91,7.73,7.73,0,0,1-5.4-1.91,7.28,7.28,0,0,1,0-10.23A7.69,7.69,0,0,1,24.59,1014.19Zm0,2.55a6,6,0,0,0-3.84,1.2,4,4,0,0,0-1.49,3.28,4,4,0,0,0,1.49,3.3,6,6,0,0,0,3.84,1.2,5.9,5.9,0,0,0,3.8-1.2,4,4,0,0,0,1.5-3.3,4,4,0,0,0-1.5-3.28A5.9,5.9,0,0,0,24.59,1016.74Z"/><path class="cls-7" d="M29.25,996.15l1.82-1a4.93,4.93,0,0,1,1,3.11,4.07,4.07,0,0,1-1.81,3.73,5.34,5.34,0,0,1-2.83.6h-8v2.48h-2v-2.48h-4v-2.39h4v-4.61h2v4.61h8c1.64,0,2.47-.73,2.47-2.19A2.83,2.83,0,0,0,29.25,996.15Z"/><path class="cls-7" d="M31.7,990.22v2.39H12.09v-2.39h7.69a5.68,5.68,0,0,1-2.69-4.89,4.77,4.77,0,0,1,1.43-3.66,5.6,5.6,0,0,1,4-1.34h9.2v2.39H23.05q-3.71,0-3.71,3.18A4.13,4.13,0,0,0,20.58,989a4.34,4.34,0,0,0,3.21,1.23Z"/><path class="cls-7" d="M24.2,963.33a6,6,0,0,1,.93.06v11.2a4.92,4.92,0,0,0,3.45-1.4,4.71,4.71,0,0,0,1.25-3.41A5.55,5.55,0,0,0,28,965.55L29.53,964a7.74,7.74,0,0,1,2.5,5.88A7,7,0,0,1,30,975.19a7.47,7.47,0,0,1-5.34,1.95,7.79,7.79,0,0,1-5.38-1.9,6.49,6.49,0,0,1-2.14-5.1,6.39,6.39,0,0,1,2-4.94A7.21,7.21,0,0,1,24.2,963.33Zm-.91,11.21V965.8a4.58,4.58,0,0,0-3.06,1.4,4.31,4.31,0,0,0-1.08,3,4.16,4.16,0,0,0,1.15,3A4.5,4.5,0,0,0,23.29,974.54Z"/><path class="cls-7" d="M17.42,943v-2.39H31.7V943H29.36A5.78,5.78,0,0,1,32,947.87a4.77,4.77,0,0,1-1.43,3.65,5.52,5.52,0,0,1-4,1.35H17.42v-2.39H26.1q3.7,0,3.7-3.16a4.21,4.21,0,0,0-1.23-3.1A4.35,4.35,0,0,0,25.35,943Z"/><path class="cls-7" d="M27.47,925.41A4,4,0,0,1,30.78,927,6.72,6.72,0,0,1,32,931.26c0,2.87-1,5-3.05,6.31l-1.32-1.76A5.45,5.45,0,0,0,30,931.12a4.42,4.42,0,0,0-.59-2.42,1.94,1.94,0,0,0-1.72-.9,1.4,1.4,0,0,0-1.4.82,14.93,14.93,0,0,0-.82,3.1,10.29,10.29,0,0,1-1.35,3.79,3.11,3.11,0,0,1-2.8,1.32,3.57,3.57,0,0,1-3.13-1.55,6.54,6.54,0,0,1-1.07-3.8,7.64,7.64,0,0,1,2.39-5.8L21,927.27a5.33,5.33,0,0,0-1.84,4.23,4.44,4.44,0,0,0,.48,2.15,1.55,1.55,0,0,0,1.44.87,1.35,1.35,0,0,0,.74-.2,2.08,2.08,0,0,0,.54-.47,2.79,2.79,0,0,0,.38-.81,7.81,7.81,0,0,0,.26-.95c.06-.26.13-.63.22-1.11.13-.69.25-1.26.36-1.7a11.07,11.07,0,0,1,.49-1.48,4.12,4.12,0,0,1,.75-1.28,3.55,3.55,0,0,1,1.09-.78A3.58,3.58,0,0,1,27.47,925.41Z"/><path class="cls-7" d="M24.2,909.2a6,6,0,0,1,.93.06v11.2a4.92,4.92,0,0,0,3.45-1.4,4.69,4.69,0,0,0,1.25-3.4A5.52,5.52,0,0,0,28,911.43l1.57-1.6a7.74,7.74,0,0,1,2.5,5.88A7,7,0,0,1,30,921.07,7.47,7.47,0,0,1,24.61,923a7.8,7.8,0,0,1-5.38-1.91,6.48,6.48,0,0,1-2.14-5.1,6.41,6.41,0,0,1,2-4.94A7.26,7.26,0,0,1,24.2,909.2Zm-.91,11.21v-8.73a4.5,4.5,0,0,0-3.06,1.4,4.27,4.27,0,0,0-1.08,3,4.2,4.2,0,0,0,1.15,3A4.49,4.49,0,0,0,23.29,920.41Z"/><path class="cls-7" d="M17.67,897.5l2.27.77a3.52,3.52,0,0,0-.44,1.65,3.32,3.32,0,0,0,1.28,2.6,5.21,5.21,0,0,0,3.48,1.08H31.7V906H17.42V903.6h2.41c-1.79-1.11-2.69-2.5-2.69-4.14A3.52,3.52,0,0,1,17.67,897.5Z"/><path class="cls-7" d="M27.47,884.3a4,4,0,0,1,3.31,1.56A6.72,6.72,0,0,1,32,890.15c0,2.87-1,5-3.05,6.31l-1.32-1.76A5.45,5.45,0,0,0,30,890a4.42,4.42,0,0,0-.59-2.42,1.94,1.94,0,0,0-1.72-.9,1.4,1.4,0,0,0-1.4.82,14.93,14.93,0,0,0-.82,3.1,10.29,10.29,0,0,1-1.35,3.79,3.11,3.11,0,0,1-2.8,1.32,3.57,3.57,0,0,1-3.13-1.55,6.57,6.57,0,0,1-1.07-3.8,7.64,7.64,0,0,1,2.39-5.8L21,886.16a5.33,5.33,0,0,0-1.84,4.23,4.44,4.44,0,0,0,.48,2.15,1.55,1.55,0,0,0,1.44.87,1.44,1.44,0,0,0,.74-.2,2.08,2.08,0,0,0,.54-.47,2.79,2.79,0,0,0,.38-.81A7.81,7.81,0,0,0,23,891c.06-.26.13-.63.22-1.11.13-.69.25-1.26.36-1.7a11.07,11.07,0,0,1,.49-1.48,4.12,4.12,0,0,1,.75-1.28,3.55,3.55,0,0,1,1.09-.78A3.58,3.58,0,0,1,27.47,884.3Z"/><path class="cls-7" d="M95.24,1152.22H82.52v-18.29h2.56v15.93H95.24Z"/><path class="cls-7" d="M110.78,1145.11a7.58,7.58,0,0,1-1.92,5.35,7.3,7.3,0,0,1-10.23,0,7.62,7.62,0,0,1-1.91-5.35,7.73,7.73,0,0,1,1.91-5.4,7.28,7.28,0,0,1,10.23,0A7.69,7.69,0,0,1,110.78,1145.11Zm-2.55,0a5.91,5.91,0,0,0-1.2-3.83,4.35,4.35,0,0,0-6.57,0,6.62,6.62,0,0,0,0,7.63,4.35,4.35,0,0,0,6.57,0A5.9,5.9,0,0,0,108.23,1145.11Z"/><path class="cls-7" d="M132.86,1137.94l-4,14.28H126.3L122.84,1141l-3.52,11.21h-2.61l-3.95-14.28h2.55l2.89,11.4,3.57-11.4H124l3.55,11.4,2.91-11.4Z"/><path class="cls-7" d="M1084.06,1152.22h-2.58v-8.51h-9.92v8.51H1069v-18.29h2.58v7.44h9.92v-7.44h2.58Z"/><path class="cls-7" d="M1091.06,1135.14h-2.39v-2.53h2.39Zm0,17.08h-2.39v-14.28h2.39Z"/><path class="cls-7" d="M1108.53,1137.94v12a7.57,7.57,0,0,1-1.54,5.14q-1.92,2.22-6,2.22a10.26,10.26,0,0,1-6-1.7l1.2-2a8,8,0,0,0,4.78,1.48,5.7,5.7,0,0,0,3.74-1.15,4.33,4.33,0,0,0,1.4-3.54v-1.54a5.24,5.24,0,0,1-2.23,2,6.78,6.78,0,0,1-3,.67,6,6,0,0,1-4.66-2,7.74,7.74,0,0,1,.06-10,6.16,6.16,0,0,1,4.71-2,5.62,5.62,0,0,1,5.11,2.69v-2.36Zm-2.36,6.62a4.87,4.87,0,0,0-1.24-3.41,4.46,4.46,0,0,0-3.43-1.34,4.2,4.2,0,0,0-3.34,1.34,5,5,0,0,0-1.17,3.41,5.16,5.16,0,0,0,1.17,3.46,4.16,4.16,0,0,0,3.34,1.37,4.43,4.43,0,0,0,3.42-1.37A5,5,0,0,0,1106.17,1144.56Z"/><path class="cls-7" d="M1115.2,1152.22h-2.39v-19.61h2.39v7.69a5.68,5.68,0,0,1,4.89-2.69,4.78,4.78,0,0,1,3.65,1.43,5.56,5.56,0,0,1,1.35,4v9.2h-2.39v-8.65c0-2.47-1.07-3.71-3.19-3.71a4.16,4.16,0,0,0-3.09,1.24,4.37,4.37,0,0,0-1.22,3.21Z"/><path class="cls-7" d="M572.21,1152.22h-2.53v-15.63l-6,15.63H561.5l-6-15.63v15.63H553v-18.29h3.85l5.79,15.08,5.8-15.08h3.76Z"/><path class="cls-7" d="M589.7,1144.72a8.2,8.2,0,0,1-.05.94H578.44a5,5,0,0,0,1.4,3.44,4.67,4.67,0,0,0,3.41,1.25,5.52,5.52,0,0,0,4.23-1.87l1.59,1.57a7.67,7.67,0,0,1-5.88,2.5,7,7,0,0,1-5.35-2.07,7.51,7.51,0,0,1-2-5.35,7.8,7.8,0,0,1,1.91-5.38,7.09,7.09,0,0,1,10-.11A7.25,7.25,0,0,1,589.7,1144.72Zm-11.2-.9h8.73a4.54,4.54,0,0,0-1.4-3.07,4.29,4.29,0,0,0-3-1.08,4.19,4.19,0,0,0-3,1.15A4.45,4.45,0,0,0,578.5,1143.82Z"/><path class="cls-7" d="M606,1152.22h-2.39v-2.33a5.88,5.88,0,0,1-5.08,2.66,6,6,0,0,1-4.78-2.12,7.94,7.94,0,0,1-1.78-5.32,8.07,8.07,0,0,1,1.78-5.39,6.29,6.29,0,0,1,9.86.58v-7.69H606Zm-3.61-3.36a5.76,5.76,0,0,0,1.22-3.78,5.69,5.69,0,0,0-1.22-3.76,4.17,4.17,0,0,0-3.42-1.49,4,4,0,0,0-3.32,1.47,6.8,6.8,0,0,0,0,7.57,4,4,0,0,0,3.32,1.48A4.17,4.17,0,0,0,602.43,1148.86Z"/><path class="cls-7" d="M612.72,1135.14h-2.39v-2.53h2.39Zm0,17.08h-2.39v-14.28h2.39Z"/><path class="cls-7" d="M626.72,1137.94h2.39v14.28h-2.39v-2.33a5.77,5.77,0,0,1-4.89,2.66,4.8,4.8,0,0,1-3.65-1.43,5.52,5.52,0,0,1-1.35-3.95v-9.23h2.39v8.68c0,2.47,1.06,3.71,3.16,3.71a4.24,4.24,0,0,0,3.11-1.24,4.36,4.36,0,0,0,1.23-3.21Z"/><path class="cls-7" d="M635.78,1152.22h-2.39v-14.28h2.39v2.31a5.4,5.4,0,0,1,4.64-2.64,4.12,4.12,0,0,1,4.29,2.88,5.79,5.79,0,0,1,5-2.88,4.59,4.59,0,0,1,3.56,1.4,5.57,5.57,0,0,1,1.28,3.9v9.31h-2.39v-8.73q0-3.63-3-3.63a3.81,3.81,0,0,0-2.88,1.22,4.41,4.41,0,0,0-1.15,3.15v8h-2.39v-8.73q0-3.63-3-3.63a3.75,3.75,0,0,0-2.88,1.21,4.46,4.46,0,0,0-1.13,3.16Z"/><path class="cls-7" d="M62.85,1107v12.72H44.56v-2.55H60.49V1107Z"/><path class="cls-7" d="M55.74,1091.48a7.58,7.58,0,0,1,5.35,1.92,7.3,7.3,0,0,1,0,10.23,7.62,7.62,0,0,1-5.35,1.91,7.73,7.73,0,0,1-5.4-1.91,7.28,7.28,0,0,1,0-10.23A7.69,7.69,0,0,1,55.74,1091.48Zm0,2.55a5.91,5.91,0,0,0-3.83,1.2,4,4,0,0,0-1.5,3.28,4,4,0,0,0,1.5,3.3,6.66,6.66,0,0,0,7.63,0,4,4,0,0,0,1.5-3.3,4,4,0,0,0-1.5-3.28A5.9,5.9,0,0,0,55.74,1094Z"/><path class="cls-7" d="M48.57,1069.4l14.28,3.95V1076l-11.21,3.46,11.21,3.52v2.61l-14.28,4V1087l11.4-2.88-11.4-3.57v-2.2l11.4-3.55-11.4-2.91Z"/><path class="cls-7" d="M62.85,118.51v2.58H54.34V131h8.51v2.58H44.56V131H52v-9.92H44.56v-2.58Z"/><path class="cls-7" d="M45.77,111.51v2.39H43.24v-2.39Zm17.08,0v2.39H48.57v-2.39Z"/><path class="cls-7" d="M48.57,94h12a7.57,7.57,0,0,1,5.14,1.54q2.22,1.92,2.22,6a10.39,10.39,0,0,1-1.7,6l-2-1.21a8,8,0,0,0,1.48-4.78,5.7,5.7,0,0,0-1.15-3.74A4.33,4.33,0,0,0,61,96.43H59.5a5.24,5.24,0,0,1,2,2.23,6.78,6.78,0,0,1,.67,3,6,6,0,0,1-2,4.66,7.74,7.74,0,0,1-10-.06,6.13,6.13,0,0,1-2-4.71,5.62,5.62,0,0,1,2.69-5.11H48.57Zm6.62,2.37a4.86,4.86,0,0,0-3.41,1.23,4.42,4.42,0,0,0-1.34,3.43,4.17,4.17,0,0,0,1.34,3.34,5,5,0,0,0,3.41,1.17,5.16,5.16,0,0,0,3.46-1.17A4.16,4.16,0,0,0,60,101.07a4.39,4.39,0,0,0-1.37-3.41A4.92,4.92,0,0,0,55.19,96.41Z"/><path class="cls-7" d="M62.85,87.37v2.39H43.24V87.37h7.69a5.68,5.68,0,0,1-2.69-4.89,4.8,4.8,0,0,1,1.43-3.65,5.56,5.56,0,0,1,4-1.35h9.2v2.39H54.2c-2.47,0-3.71,1.07-3.71,3.19a4.16,4.16,0,0,0,1.24,3.09,4.37,4.37,0,0,0,3.21,1.22Z"/><path class="cls-7" d="M62.85,630.21v2.52H47.22l15.63,6v2.23l-15.63,6H62.85v2.47H44.56v-3.84l15.08-5.8L44.56,634v-3.76Z"/><path class="cls-7" d="M55.35,612.71a6.27,6.27,0,0,1,.94.06V624a4.91,4.91,0,0,0,3.44-1.4,4.65,4.65,0,0,0,1.25-3.4,5.52,5.52,0,0,0-1.87-4.23l1.57-1.6a7.7,7.7,0,0,1,2.5,5.88,7,7,0,0,1-2.07,5.36,7.51,7.51,0,0,1-5.35,1.95,7.8,7.8,0,0,1-5.38-1.91,6.49,6.49,0,0,1-2.14-5.1,6.41,6.41,0,0,1,2-4.94A7.21,7.21,0,0,1,55.35,612.71Zm-.9,11.21v-8.74a4.59,4.59,0,0,0-3.07,1.4,4.31,4.31,0,0,0-1.08,3,4.16,4.16,0,0,0,1.15,3A4.46,4.46,0,0,0,54.45,623.92Z"/><path class="cls-7" d="M62.85,596.37v2.39H60.51a6.3,6.3,0,0,1,.55,9.86,8,8,0,0,1-5.32,1.79,8.08,8.08,0,0,1-5.39-1.79,6.29,6.29,0,0,1,.58-9.86H43.24v-2.39ZM59.48,600A6.42,6.42,0,0,0,52,600a4.2,4.2,0,0,0-1.49,3.42,4,4,0,0,0,1.47,3.33,6.8,6.8,0,0,0,7.57,0A4,4,0,0,0,61,603.4,4.18,4.18,0,0,0,59.48,600Z"/><path class="cls-7" d="M45.77,589.7v2.39H43.24V589.7Zm17.08,0v2.39H48.57V589.7Z"/><path class="cls-7" d="M48.57,575.69V573.3H62.85v2.39H60.51a5.78,5.78,0,0,1,2.67,4.89,4.77,4.77,0,0,1-1.43,3.65,5.52,5.52,0,0,1-4,1.35H48.57v-2.39h8.68q3.7,0,3.7-3.16a4.21,4.21,0,0,0-1.23-3.1,4.38,4.38,0,0,0-3.21-1.24Z"/><path class="cls-7" d="M62.85,566.63V569H48.57v-2.39h2.31A5.4,5.4,0,0,1,48.24,562a4.1,4.1,0,0,1,2.88-4.28,5.81,5.81,0,0,1-2.88-5.06,4.57,4.57,0,0,1,1.4-3.55,5.57,5.57,0,0,1,3.9-1.28h9.31v2.39H54.12q-3.63,0-3.63,3a3.82,3.82,0,0,0,1.22,2.89,4.41,4.41,0,0,0,3.15,1.15h8v2.39H54.12q-3.63,0-3.63,3a3.78,3.78,0,0,0,1.21,2.89,4.46,4.46,0,0,0,3.16,1.12Z"/><path class="cls-7" d="M523.43,108.65h-2.52V93l-6,15.62h-2.23l-6-15.62v15.62h-2.47V90.36h3.84l5.8,15.08,5.79-15.08h3.76Z"/><path class="cls-7" d="M540.84,106.79l.31,1.81a4.38,4.38,0,0,1-1.65.27,3,3,0,0,1-1.85-.56,2.42,2.42,0,0,1-.92-1.72,5.62,5.62,0,0,1-4.92,2.39,5.18,5.18,0,0,1-3.54-1.15,4,4,0,0,1-1.32-3.19,4.13,4.13,0,0,1,.33-1.7,3.47,3.47,0,0,1,.81-1.17,4.74,4.74,0,0,1,1.19-.74,6.8,6.8,0,0,1,1.29-.44c.39-.08.83-.16,1.32-.23l.92-.11,1-.12c.2,0,.47-.08.81-.16a3.82,3.82,0,0,0,.77-.23,3.33,3.33,0,0,0,.55-.33,1.19,1.19,0,0,0,.41-.49,1.79,1.79,0,0,0,.12-.68,1.67,1.67,0,0,0-1-1.59,4.92,4.92,0,0,0-2.28-.49,7.21,7.21,0,0,0-4.45,1.51l-1.1-1.82A10,10,0,0,1,533.35,94a6.38,6.38,0,0,1,4,1.16,4.16,4.16,0,0,1,1.49,3.51v6.76c0,1,.37,1.53,1.12,1.53A1.46,1.46,0,0,0,540.84,106.79Zm-4.36-3.63v-2.47a3.29,3.29,0,0,1-.59.59,2.58,2.58,0,0,1-.8.37l-.77.21c-.19,0-.52.1-1,.16l-1,.15a6.17,6.17,0,0,0-2.23.73,1.86,1.86,0,0,0-.74,1.69,2.1,2.1,0,0,0,.83,1.81,3.54,3.54,0,0,0,2.14.6,4.5,4.5,0,0,0,2.92-1A3.47,3.47,0,0,0,536.48,103.16Z"/><path class="cls-7" d="M555.37,94.37l-5.71,14.94a9.37,9.37,0,0,1-1.95,3.35,4,4,0,0,1-3,1,4.87,4.87,0,0,1-2.91-.88l1-1.76a3.06,3.06,0,0,0,1.7.55,2,2,0,0,0,1.48-.56,5.41,5.41,0,0,0,1.05-1.61l.38-.85-6-14.23h2.74l4.56,11.1,4-11.1Z"/><path class="cls-7" d="M557.93,89h2.38v7.69a6.28,6.28,0,0,1,9.86-.57,8.89,8.89,0,0,1,0,10.71,6.3,6.3,0,0,1-9.85-.55v2.33h-2.38Zm3.59,8.72a5.87,5.87,0,0,0-1.21,3.78,5.69,5.69,0,0,0,1.23,3.76,4.14,4.14,0,0,0,3.39,1.49,4,4,0,0,0,3.32-1.47,6.8,6.8,0,0,0,0-7.57,4,4,0,0,0-3.32-1.48A4.15,4.15,0,0,0,561.52,97.76Z"/><path class="cls-7" d="M588.19,101.16a6.22,6.22,0,0,1-.06.93h-11.2a5,5,0,0,0,1.4,3.45,4.69,4.69,0,0,0,3.4,1.25,5.56,5.56,0,0,0,4.23-1.87l1.6,1.56a7.7,7.7,0,0,1-5.88,2.5,7,7,0,0,1-5.36-2.07,7.47,7.47,0,0,1-1.94-5.34,7.82,7.82,0,0,1,1.9-5.39,6.53,6.53,0,0,1,5.1-2.14,6.39,6.39,0,0,1,4.94,2A7.22,7.22,0,0,1,588.19,101.16ZM577,100.25h8.74a4.54,4.54,0,0,0-1.4-3.06,4.27,4.27,0,0,0-3-1.09,4.16,4.16,0,0,0-3,1.16A4.46,4.46,0,0,0,577,100.25Z"/><path class="cls-7" d="M570.31,635h-3l-9.58-15.07V635h-2.48V616.72h3.3l9.31,14.72V616.72h2.47Z"/><path class="cls-7" d="M588.05,627.9a7.61,7.61,0,0,1-1.92,5.36,7.33,7.33,0,0,1-10.23,0A7.65,7.65,0,0,1,574,627.9a7.75,7.75,0,0,1,1.91-5.4,7.28,7.28,0,0,1,10.23,0A7.71,7.71,0,0,1,588.05,627.9Zm-2.55,0a5.93,5.93,0,0,0-1.2-3.83,4.35,4.35,0,0,0-6.57,0,5.88,5.88,0,0,0-1.21,3.83,5.81,5.81,0,0,0,1.21,3.8,4.35,4.35,0,0,0,6.57,0A5.86,5.86,0,0,0,585.5,627.9Z"/><path class="cls-7" d="M1073.44,90.36l-7,10.82v7.47h-2.58v-7.44l-7-10.85h3l5.3,8.52,5.36-8.52Z"/><path class="cls-7" d="M1086.59,101.16a8.14,8.14,0,0,1,0,.93h-11.21a5,5,0,0,0,1.4,3.45,4.71,4.71,0,0,0,3.41,1.25,5.56,5.56,0,0,0,4.23-1.87l1.59,1.56a7.67,7.67,0,0,1-5.88,2.5,7,7,0,0,1-5.35-2.07,7.47,7.47,0,0,1-2-5.34,7.83,7.83,0,0,1,1.91-5.39,6.5,6.5,0,0,1,5.09-2.14,6.43,6.43,0,0,1,5,2A7.26,7.26,0,0,1,1086.59,101.16Zm-11.2-.91h8.73a4.5,4.5,0,0,0-1.4-3.06,4.56,4.56,0,0,0-6,.07A4.4,4.4,0,0,0,1075.39,100.25Z"/><path class="cls-7" d="M1100.71,104.42a4,4,0,0,1-1.57,3.31,6.63,6.63,0,0,1-4.28,1.25c-2.88,0-5-1-6.32-3l1.76-1.31a5.49,5.49,0,0,0,4.7,2.3,4.3,4.3,0,0,0,2.41-.59,1.9,1.9,0,0,0,.91-1.71,1.43,1.43,0,0,0-.82-1.41,15.76,15.76,0,0,0-3.11-.82,10.29,10.29,0,0,1-3.79-1.35,3.1,3.1,0,0,1-1.32-2.8,3.57,3.57,0,0,1,1.56-3.13,6.54,6.54,0,0,1,3.8-1.07,7.67,7.67,0,0,1,5.79,2.39l-1.59,1.51a5.33,5.33,0,0,0-4.23-1.84,4.42,4.42,0,0,0-2.14.48,1.54,1.54,0,0,0-.88,1.44,1.37,1.37,0,0,0,.21.75,2,2,0,0,0,.46.53,2.78,2.78,0,0,0,.81.39c.37.12.69.2,1,.26l1.11.22c.7.12,1.27.24,1.71.35a11.75,11.75,0,0,1,1.48.5,4.23,4.23,0,0,1,1.28.74,3.48,3.48,0,0,1,.78,1.1A3.57,3.57,0,0,1,1100.71,104.42Z"/><path class="cls-7" d="M1036.06,635h-2.52V619.39l-6,15.62h-2.23l-6-15.62V635h-2.47V616.72h3.84l5.8,15.08,5.79-15.08h3.76Z"/><path class="cls-7" d="M1053.47,633.15l.31,1.81a4.38,4.38,0,0,1-1.65.27,3,3,0,0,1-1.86-.56,2.49,2.49,0,0,1-.92-1.72,5.59,5.59,0,0,1-4.91,2.39,5.17,5.17,0,0,1-3.54-1.15,4,4,0,0,1-1.32-3.19,4.16,4.16,0,0,1,.33-1.7,3.47,3.47,0,0,1,.81-1.17,4.74,4.74,0,0,1,1.19-.74,7.59,7.59,0,0,1,1.29-.44c.39-.08.83-.16,1.32-.23l.92-.11,1-.12.81-.15a4.47,4.47,0,0,0,.77-.24,3.8,3.8,0,0,0,.55-.33,1.13,1.13,0,0,0,.41-.49,1.74,1.74,0,0,0,.12-.67,1.67,1.67,0,0,0-1-1.6,4.92,4.92,0,0,0-2.28-.49,7.21,7.21,0,0,0-4.45,1.51l-1.1-1.81a9.91,9.91,0,0,1,5.72-1.82,6.39,6.39,0,0,1,4,1.16,4.17,4.17,0,0,1,1.49,3.51v6.76c0,1,.37,1.54,1.12,1.54A1.46,1.46,0,0,0,1053.47,633.15Zm-4.36-3.63v-2.47a3.29,3.29,0,0,1-.59.59,2.37,2.37,0,0,1-.8.37l-.77.21c-.19,0-.52.1-1,.16l-1,.15a6.17,6.17,0,0,0-2.23.73A1.86,1.86,0,0,0,1042,631a2.1,2.1,0,0,0,.83,1.81,3.48,3.48,0,0,0,2.14.61,4.45,4.45,0,0,0,2.92-1A3.47,3.47,0,0,0,1049.11,629.52Z"/><path class="cls-7" d="M1068,620.73l-5.71,14.94a9.37,9.37,0,0,1-2,3.35,4,4,0,0,1-3,1.05,4.87,4.87,0,0,1-2.91-.88l1-1.76a3,3,0,0,0,1.7.55,2,2,0,0,0,1.48-.56,5.09,5.09,0,0,0,1-1.61l.39-.85-6-14.23h2.74l4.56,11.1,4-11.1Z"/><path class="cls-7" d="M1070.55,615.41h2.39v7.68a6.28,6.28,0,0,1,9.86-.57,8.89,8.89,0,0,1,0,10.71,6,6,0,0,1-4.77,2.11,5.88,5.88,0,0,1-5.08-2.66V635h-2.39Zm3.6,8.72a5.82,5.82,0,0,0-1.21,3.77,5.69,5.69,0,0,0,1.23,3.76,4.14,4.14,0,0,0,3.39,1.49,4,4,0,0,0,3.32-1.47,6.8,6.8,0,0,0,0-7.57,4,4,0,0,0-3.32-1.48A4.13,4.13,0,0,0,1074.15,624.13Z"/><path class="cls-7" d="M1100.82,627.52a6.22,6.22,0,0,1-.06.93h-11.2a4.94,4.94,0,0,0,1.4,3.45,4.69,4.69,0,0,0,3.4,1.25,5.56,5.56,0,0,0,4.23-1.87l1.6,1.56a7.7,7.7,0,0,1-5.88,2.5,7,7,0,0,1-5.36-2.07,7.47,7.47,0,0,1-2-5.34,7.78,7.78,0,0,1,1.91-5.38,6.5,6.5,0,0,1,5.1-2.15,6.37,6.37,0,0,1,4.94,2A7.18,7.18,0,0,1,1100.82,627.52Zm-11.21-.91h8.74a4.54,4.54,0,0,0-1.4-3.06,4.32,4.32,0,0,0-3-1.09,4.16,4.16,0,0,0-3,1.16A4.43,4.43,0,0,0,1089.61,626.61Z"/><rect class="cls-8" x="801" y="104" width="221.5" height="36.5" rx="4.85"/><path class="cls-5" d="M828.65,128.5h-2v-9.77L823,128.5h-1.77l-3.54-9.75v9.75h-2.06v-12h3.1l3.42,9.36,3.42-9.36h3Z"/><path class="cls-5" d="M840.23,123.59c0,.24,0,.47,0,.68H833a2.73,2.73,0,0,0,.85,2,2.9,2.9,0,0,0,2,.71,3.57,3.57,0,0,0,2.73-1.19l1.3,1.24a5.42,5.42,0,0,1-4.11,1.71,4.82,4.82,0,0,1-3.63-1.37,4.87,4.87,0,0,1-1.32-3.53,5.09,5.09,0,0,1,1.29-3.57,4.46,4.46,0,0,1,3.47-1.41,4.36,4.36,0,0,1,3.35,1.33A4.78,4.78,0,0,1,840.23,123.59Zm-7.21-.76h5.21a2.6,2.6,0,0,0-.82-1.77,2.63,2.63,0,0,0-1.77-.62,2.49,2.49,0,0,0-1.82.67A2.58,2.58,0,0,0,833,122.83Z"/><path class="cls-5" d="M851.13,128.5h-2v-1.38a3.78,3.78,0,0,1-3.19,1.6,3.94,3.94,0,0,1-3.16-1.4,5.91,5.91,0,0,1,0-7.09,3.93,3.93,0,0,1,3.16-1.39,3.78,3.78,0,0,1,3.19,1.6v-4.79h2Zm-2-4.71a3.5,3.5,0,0,0-.73-2.28,2.5,2.5,0,0,0-2-.89,2.37,2.37,0,0,0-2,.89,3.6,3.6,0,0,0-.68,2.28,3.54,3.54,0,0,0,.68,2.26,2.37,2.37,0,0,0,2,.89,2.48,2.48,0,0,0,2-.89A3.5,3.5,0,0,0,849.14,123.79Z"/><path class="cls-5" d="M855.74,117.52h-2v-1.87h2Zm0,11h-2v-9.45h2Z"/><path class="cls-5" d="M864.9,125.61l1.5,1a4.81,4.81,0,0,1-7.36.69,5.55,5.55,0,0,1,0-7.09,4.75,4.75,0,0,1,7.3.71L864.85,122a2.53,2.53,0,0,0-2.32-1.42,2.37,2.37,0,0,0-1.95.9,4,4,0,0,0,0,4.59,2.4,2.4,0,0,0,2,.9A2.71,2.71,0,0,0,864.9,125.61Z"/><path class="cls-5" d="M877,128.41a2.67,2.67,0,0,1-1.22.24,2.16,2.16,0,0,1-1.22-.35,1.63,1.63,0,0,1-.67-1.06,3.55,3.55,0,0,1-3.15,1.48,3.49,3.49,0,0,1-2.36-.77,2.72,2.72,0,0,1-.88-2.15,2.8,2.8,0,0,1,.24-1.18,2.67,2.67,0,0,1,.58-.8,2.81,2.81,0,0,1,.88-.48,6.35,6.35,0,0,1,1-.27l1-.15c.43,0,.76-.09,1-.12s.46-.1.71-.17a1,1,0,0,0,.55-.35.9.9,0,0,0,.16-.55.94.94,0,0,0-.56-.92,3,3,0,0,0-1.36-.28,5,5,0,0,0-3,1l-.8-1.49a7,7,0,0,1,3.89-1.15,4.5,4.5,0,0,1,2.78.76,2.8,2.8,0,0,1,1,2.4v4.31c0,.57.22.86.67.86a.87.87,0,0,0,.52-.13Zm-3.4-3.49v-1.44a2.57,2.57,0,0,1-.33.33,1.23,1.23,0,0,1-.46.22l-.43.12-.58.1-.56.08a3.07,3.07,0,0,0-1.3.45,1.12,1.12,0,0,0-.44,1,1.22,1.22,0,0,0,.48,1,2.06,2.06,0,0,0,1.25.35,2.56,2.56,0,0,0,1.69-.57A2.05,2.05,0,0,0,873.63,124.92Z"/><path class="cls-5" d="M883.51,126.54l.8,1.48a3.68,3.68,0,0,1-2.25.7,2.77,2.77,0,0,1-2.56-1.21,3.58,3.58,0,0,1-.45-2v-5h-1.58v-1.53h1.58v-2.53h2v2.53H884v1.53h-2.91v5c0,.94.42,1.41,1.28,1.41A1.81,1.81,0,0,0,883.51,126.54Z"/><path class="cls-5" d="M887.85,117.52h-2v-1.87h2Zm0,11h-2v-9.45h2Z"/><path class="cls-5" d="M899.46,123.79a5,5,0,0,1-1.3,3.55,5.09,5.09,0,0,1-7,0,5.54,5.54,0,0,1,0-7.13,5.12,5.12,0,0,1,7,0A5,5,0,0,1,899.46,123.79Zm-2.12,0a3.68,3.68,0,0,0-.71-2.33,2.58,2.58,0,0,0-3.92,0,3.62,3.62,0,0,0-.72,2.33,3.57,3.57,0,0,0,.72,2.3,2.58,2.58,0,0,0,3.92,0A3.63,3.63,0,0,0,897.34,123.79Z"/><path class="cls-5" d="M903.48,128.5h-2v-9.45h2v1.39a3.69,3.69,0,0,1,3.09-1.6,3.1,3.1,0,0,1,2.4.94,3.7,3.7,0,0,1,.86,2.57v6.15h-2v-5.7c0-1.43-.62-2.15-1.87-2.15a2.43,2.43,0,0,0-2.5,2.56Z"/><path class="cls-5" d="M927.29,128.5h-2.36l-2.41-4.59h-3v4.59h-2.1v-12h5.38a4.54,4.54,0,0,1,3.08,1,3.63,3.63,0,0,1,.44,4.74,3.85,3.85,0,0,1-1.72,1.28Zm-2.48-8.24a1.81,1.81,0,0,0-.58-1.4,2.19,2.19,0,0,0-1.51-.51h-3.23v3.8h3.26a2.16,2.16,0,0,0,1.49-.51A1.79,1.79,0,0,0,924.81,120.26Z"/><path class="cls-5" d="M937.8,123.59c0,.24,0,.47,0,.68h-7.21a2.76,2.76,0,0,0,.85,2,2.94,2.94,0,0,0,2.05.71,3.57,3.57,0,0,0,2.74-1.19l1.3,1.24a5.42,5.42,0,0,1-4.11,1.71,4.79,4.79,0,0,1-3.63-1.37,4.87,4.87,0,0,1-1.32-3.53,5.09,5.09,0,0,1,1.29-3.57,4.46,4.46,0,0,1,3.46-1.41,4.37,4.37,0,0,1,3.36,1.33A4.82,4.82,0,0,1,937.8,123.59Zm-7.2-.76h5.2a2.51,2.51,0,0,0-.82-1.77,2.6,2.6,0,0,0-1.77-.62,2.53,2.53,0,0,0-1.82.67A2.62,2.62,0,0,0,930.6,122.83Z"/><path class="cls-5" d="M941.76,128.5h-2v-9.45h2v1.35a3.55,3.55,0,0,1,3-1.56,2.64,2.64,0,0,1,2.76,1.8,3.88,3.88,0,0,1,3.29-1.8,3,3,0,0,1,2.35.92,3.67,3.67,0,0,1,.82,2.53v6.21h-2v-5.74c0-1.4-.6-2.11-1.78-2.11a2.21,2.21,0,0,0-1.67.7,2.52,2.52,0,0,0-.65,1.82v5.33h-2v-5.74c0-1.4-.6-2.11-1.79-2.11a2.2,2.2,0,0,0-1.66.69,2.52,2.52,0,0,0-.66,1.83Z"/><path class="cls-5" d="M958.43,117.52h-2v-1.87h2Zm0,11h-2v-9.45h2Z"/><path class="cls-5" d="M963,128.5h-2v-9.45h2v1.39a3.69,3.69,0,0,1,3.09-1.6,3.1,3.1,0,0,1,2.4.94,3.7,3.7,0,0,1,.86,2.57v6.15h-2v-5.7c0-1.43-.62-2.15-1.87-2.15a2.43,2.43,0,0,0-2.5,2.56Z"/><path class="cls-5" d="M980.84,128.5h-2v-1.38a3.75,3.75,0,0,1-3.19,1.6,3.92,3.92,0,0,1-3.15-1.4,5.91,5.91,0,0,1,0-7.09,3.91,3.91,0,0,1,3.15-1.39,3.75,3.75,0,0,1,3.19,1.6v-4.79h2Zm-2-4.71a3.45,3.45,0,0,0-.73-2.28,2.47,2.47,0,0,0-2-.89,2.34,2.34,0,0,0-2,.89,3.6,3.6,0,0,0-.69,2.28,3.54,3.54,0,0,0,.69,2.26,2.34,2.34,0,0,0,2,.89,2.48,2.48,0,0,0,2-.89A3.5,3.5,0,0,0,978.84,123.79Z"/><path class="cls-5" d="M992.23,123.59c0,.24,0,.47,0,.68H985a2.72,2.72,0,0,0,.84,2,3,3,0,0,0,2.06.71,3.57,3.57,0,0,0,2.73-1.19l1.3,1.24a5.42,5.42,0,0,1-4.11,1.71,4.79,4.79,0,0,1-3.63-1.37,4.87,4.87,0,0,1-1.32-3.53,5.09,5.09,0,0,1,1.29-3.57,4.46,4.46,0,0,1,3.46-1.41,4.37,4.37,0,0,1,3.36,1.33A4.78,4.78,0,0,1,992.23,123.59Zm-7.2-.76h5.2a2.55,2.55,0,0,0-.81-1.77,2.64,2.64,0,0,0-1.78-.62,2.53,2.53,0,0,0-1.82.67A2.62,2.62,0,0,0,985,122.83Z"/><path class="cls-5" d="M1000.12,119.2l-.58,1.94a2.3,2.3,0,0,0-1.08-.29,2,2,0,0,0-1.61.78,3.06,3.06,0,0,0-.66,2.07v4.8h-2v-9.45h2v1.53a3.13,3.13,0,0,1,2.67-1.71A2.23,2.23,0,0,1,1000.12,119.2Z"/><path class="cls-5" d="M1009.12,125.62a2.7,2.7,0,0,1-1.08,2.25,4.65,4.65,0,0,1-3,.85,4.87,4.87,0,0,1-4.39-2.13l1.41-1a3.56,3.56,0,0,0,3.09,1.49,2.78,2.78,0,0,0,1.43-.32,1,1,0,0,0,.53-.94.84.84,0,0,0-.53-.84,8.44,8.44,0,0,0-1.86-.46,7,7,0,0,1-2.65-.91,2.13,2.13,0,0,1-.91-1.93,2.4,2.4,0,0,1,1.06-2.13,4.54,4.54,0,0,1,2.64-.73,5.32,5.32,0,0,1,4.07,1.65l-1.26,1.15a3.56,3.56,0,0,0-2.82-1.18,2.63,2.63,0,0,0-1.25.27.84.84,0,0,0-.52.79.8.8,0,0,0,.54.79,7.68,7.68,0,0,0,1.71.43c.46.09.85.17,1.17.26a6.32,6.32,0,0,1,1,.34,2.61,2.61,0,0,1,.84.51,2.44,2.44,0,0,1,.52.75A2.38,2.38,0,0,1,1009.12,125.62Z"/><rect class="cls-8" x="882" y="223" width="221.5" height="36.5" rx="4.85"/><path class="cls-5" d="M939.8,236.56a4,4,0,0,1,0,5.61,4.63,4.63,0,0,1-3.2,1h-3.12v4.3h-2.1v-12h5.22A4.57,4.57,0,0,1,939.8,236.56Zm-6.31,4.81h3.1a2.31,2.31,0,0,0,1.64-.53,1.88,1.88,0,0,0,.57-1.47,1.94,1.94,0,0,0-.57-1.5,2.35,2.35,0,0,0-1.64-.52h-3.1Z"/><path class="cls-5" d="M945,247.5h-2.08v-12H945Z"/><path class="cls-5" d="M958.15,247.5h-2.52L950,238.21v9.29h-2v-12h2.67l5.49,9.07v-9.07h2Z"/><path class="cls-5" d="M974.41,236.56a4,4,0,0,1,0,5.61,4.59,4.59,0,0,1-3.2,1H968.1v4.3H966v-12h5.22A4.56,4.56,0,0,1,974.41,236.56Zm-6.31,4.81h3.1a2.35,2.35,0,0,0,1.65-.53,1.88,1.88,0,0,0,.57-1.47,1.94,1.94,0,0,0-.57-1.5,2.4,2.4,0,0,0-1.65-.52h-3.1Z"/><path class="cls-5" d="M983.24,238.2l-.57,1.94a2.3,2.3,0,0,0-1.08-.29,2,2,0,0,0-1.61.78,3.06,3.06,0,0,0-.66,2.07v4.8h-2v-9.45h2v1.53a3.13,3.13,0,0,1,2.66-1.71A2.18,2.18,0,0,1,983.24,238.2Z"/><path class="cls-5" d="M993.48,242.79a5,5,0,0,1-1.3,3.55,5.09,5.09,0,0,1-7,0,5.54,5.54,0,0,1,0-7.13,5.12,5.12,0,0,1,7,0A5,5,0,0,1,993.48,242.79Zm-2.12,0a3.68,3.68,0,0,0-.71-2.33,2.38,2.38,0,0,0-1.95-.9,2.42,2.42,0,0,0-2,.9,3.62,3.62,0,0,0-.71,2.33,3.57,3.57,0,0,0,.71,2.3,2.39,2.39,0,0,0,2,.9,2.35,2.35,0,0,0,1.95-.9A3.63,3.63,0,0,0,991.36,242.79Z"/><path class="cls-5" d="M1000.58,245.54l.79,1.48a3.64,3.64,0,0,1-2.25.7,2.78,2.78,0,0,1-2.56-1.21,3.58,3.58,0,0,1-.45-2v-4.95h-1.58v-1.53h1.58v-2.53h2v2.53H1001v1.53h-2.92v5c0,.94.43,1.41,1.28,1.41A1.86,1.86,0,0,0,1000.58,245.54Z"/><path class="cls-5" d="M1011.7,242.59a4.88,4.88,0,0,1,0,.68h-7.2a2.73,2.73,0,0,0,.85,2,2.94,2.94,0,0,0,2.05.71,3.59,3.59,0,0,0,2.74-1.19l1.3,1.24a5.43,5.43,0,0,1-4.11,1.71,4.82,4.82,0,0,1-3.64-1.37,4.91,4.91,0,0,1-1.31-3.53,5.09,5.09,0,0,1,1.29-3.57,4.46,4.46,0,0,1,3.46-1.41,4.37,4.37,0,0,1,3.36,1.33A4.82,4.82,0,0,1,1011.7,242.59Zm-7.2-.76h5.2a2.51,2.51,0,0,0-.82-1.77,2.6,2.6,0,0,0-1.77-.62,2.53,2.53,0,0,0-1.82.67A2.57,2.57,0,0,0,1004.5,241.83Z"/><path class="cls-5" d="M1020.21,244.61l1.5,1a4.47,4.47,0,0,1-3.94,2.09,4.4,4.4,0,0,1-3.41-1.4,5.52,5.52,0,0,1,0-7.09,4.74,4.74,0,0,1,7.29.71l-1.49,1.06a2.53,2.53,0,0,0-2.32-1.42,2.33,2.33,0,0,0-1.94.9,3.51,3.51,0,0,0-.73,2.29,3.56,3.56,0,0,0,.73,2.3,2.4,2.4,0,0,0,2,.9A2.71,2.71,0,0,0,1020.21,244.61Z"/><path class="cls-5" d="M1028.58,245.54l.8,1.48a3.68,3.68,0,0,1-2.25.7,2.77,2.77,0,0,1-2.56-1.21,3.58,3.58,0,0,1-.45-2v-4.95h-1.58v-1.53h1.58v-2.53h2v2.53H1029v1.53h-2.91v5c0,.94.42,1.41,1.28,1.41A1.81,1.81,0,0,0,1028.58,245.54Z"/><path class="cls-5" d="M1032.92,236.52h-2v-1.87h2Zm0,11h-2v-9.45h2Z"/><path class="cls-5" d="M1044.53,242.79a5,5,0,0,1-1.3,3.55,5.09,5.09,0,0,1-7,0,5.54,5.54,0,0,1,0-7.13,5.12,5.12,0,0,1,7,0A5,5,0,0,1,1044.53,242.79Zm-2.12,0a3.68,3.68,0,0,0-.71-2.33,2.58,2.58,0,0,0-3.92,0,3.62,3.62,0,0,0-.72,2.33,3.57,3.57,0,0,0,.72,2.3,2.58,2.58,0,0,0,3.92,0A3.63,3.63,0,0,0,1042.41,242.79Z"/><path class="cls-5" d="M1048.55,247.5h-2v-9.45h2v1.39a3.69,3.69,0,0,1,3.09-1.6,3.1,3.1,0,0,1,2.4.94,3.7,3.7,0,0,1,.86,2.57v6.15h-2v-5.7c0-1.43-.62-2.15-1.87-2.15a2.43,2.43,0,0,0-2.5,2.56Z"/><rect class="cls-8" x="493" y="318" width="221.5" height="36.5" rx="4.85"/><path class="cls-5" d="M534.71,342.5h-2.05v-9.77l-3.57,9.77h-1.76l-3.55-9.75v9.75h-2v-12h3.1l3.42,9.36,3.42-9.36h3Z"/><path class="cls-5" d="M546.28,337.59c0,.24,0,.47,0,.68h-7.2a2.76,2.76,0,0,0,.84,2A3,3,0,0,0,542,341a3.57,3.57,0,0,0,2.73-1.19L546,341a5.42,5.42,0,0,1-4.11,1.71,4.8,4.8,0,0,1-3.63-1.37,4.87,4.87,0,0,1-1.32-3.53,5.09,5.09,0,0,1,1.29-3.57,4.46,4.46,0,0,1,3.47-1.41,4.36,4.36,0,0,1,3.35,1.33A4.78,4.78,0,0,1,546.28,337.59Zm-7.2-.76h5.21a2.6,2.6,0,0,0-.82-1.77,2.64,2.64,0,0,0-1.78-.62,2.49,2.49,0,0,0-1.81.67A2.58,2.58,0,0,0,539.08,336.83Z"/><path class="cls-5" d="M557.08,342.41a2.67,2.67,0,0,1-1.22.24,2.14,2.14,0,0,1-1.22-.35,1.63,1.63,0,0,1-.67-1.06,3.55,3.55,0,0,1-3.15,1.48,3.49,3.49,0,0,1-2.36-.77,2.72,2.72,0,0,1-.88-2.15,2.8,2.8,0,0,1,.24-1.18,2.51,2.51,0,0,1,.58-.8,2.7,2.7,0,0,1,.88-.48,6.35,6.35,0,0,1,1-.27l1-.15c.43,0,.76-.09,1-.12s.45-.1.71-.17a1,1,0,0,0,.55-.35.9.9,0,0,0,.16-.55.94.94,0,0,0-.56-.92,3,3,0,0,0-1.36-.28,5,5,0,0,0-3,1L548,334a7,7,0,0,1,3.89-1.15,4.52,4.52,0,0,1,2.78.76,2.8,2.8,0,0,1,1,2.4v4.31c0,.57.22.86.67.86a.87.87,0,0,0,.52-.13Zm-3.4-3.49v-1.44a2.57,2.57,0,0,1-.33.33,1.31,1.31,0,0,1-.46.22l-.43.12-.58.1-.56.08a3.07,3.07,0,0,0-1.3.45,1.1,1.1,0,0,0-.44,1,1.22,1.22,0,0,0,.48,1.05,2.06,2.06,0,0,0,1.25.35,2.56,2.56,0,0,0,1.69-.57A2.05,2.05,0,0,0,553.68,338.92Z"/><path class="cls-5" d="M566.21,339.62a2.7,2.7,0,0,1-1.08,2.25,4.62,4.62,0,0,1-3,.85,4.84,4.84,0,0,1-4.39-2.13l1.4-1a3.58,3.58,0,0,0,3.1,1.49,2.8,2.8,0,0,0,1.43-.32,1,1,0,0,0,.53-.94.85.85,0,0,0-.53-.84,8.74,8.74,0,0,0-1.87-.46,6.91,6.91,0,0,1-2.64-.91,2.14,2.14,0,0,1-.92-1.93,2.4,2.4,0,0,1,1.06-2.13,4.55,4.55,0,0,1,2.65-.73,5.3,5.3,0,0,1,4.06,1.65l-1.25,1.15a3.58,3.58,0,0,0-2.83-1.18,2.65,2.65,0,0,0-1.25.27.85.85,0,0,0-.51.79.8.8,0,0,0,.54.79,7.68,7.68,0,0,0,1.71.43c.45.09.84.17,1.17.26a6.22,6.22,0,0,1,1,.34,2.61,2.61,0,0,1,.84.51,2.44,2.44,0,0,1,.52.75A2.38,2.38,0,0,1,566.21,339.62Z"/><path class="cls-5" d="M574.47,333.05h2v9.45h-2v-1.37a3.75,3.75,0,0,1-3.09,1.59,3.1,3.1,0,0,1-2.4-1,3.67,3.67,0,0,1-.86-2.56v-6.16h2v5.71c0,1.43.62,2.14,1.87,2.14a2.43,2.43,0,0,0,1.79-.7,2.52,2.52,0,0,0,.71-1.86Z"/><path class="cls-5" d="M585,333.2l-.57,1.94a2.3,2.3,0,0,0-1.08-.29,2,2,0,0,0-1.61.78,3.06,3.06,0,0,0-.66,2.07v4.8h-2v-9.45h2v1.53a3.13,3.13,0,0,1,2.66-1.71A2.18,2.18,0,0,1,585,333.2Z"/><path class="cls-5" d="M595,337.59a4.88,4.88,0,0,1,0,.68h-7.2a2.73,2.73,0,0,0,.85,2,2.94,2.94,0,0,0,2,.71,3.59,3.59,0,0,0,2.74-1.19L594.7,341a5.4,5.4,0,0,1-4.1,1.71,4.82,4.82,0,0,1-3.64-1.37,4.91,4.91,0,0,1-1.31-3.53,5.09,5.09,0,0,1,1.29-3.57,4.44,4.44,0,0,1,3.46-1.41,4.38,4.38,0,0,1,3.36,1.33A4.82,4.82,0,0,1,595,337.59Zm-7.2-.76H593a2.51,2.51,0,0,0-.82-1.77,2.6,2.6,0,0,0-1.77-.62,2.53,2.53,0,0,0-1.82.67A2.57,2.57,0,0,0,587.81,336.83Z"/><path class="cls-5" d="M599,342.5h-2v-9.45h2v1.35a3.55,3.55,0,0,1,2.95-1.56,2.64,2.64,0,0,1,2.76,1.8,3.88,3.88,0,0,1,3.29-1.8,3,3,0,0,1,2.35.92,3.72,3.72,0,0,1,.82,2.53v6.21h-2v-5.74c0-1.4-.6-2.11-1.78-2.11a2.21,2.21,0,0,0-1.67.7,2.53,2.53,0,0,0-.66,1.82v5.33h-2v-5.74c0-1.4-.59-2.11-1.78-2.11a2.18,2.18,0,0,0-1.66.69,2.52,2.52,0,0,0-.66,1.83Z"/><path class="cls-5" d="M622.42,337.59c0,.24,0,.47,0,.68h-7.2a2.72,2.72,0,0,0,.84,2,3,3,0,0,0,2.06.71,3.57,3.57,0,0,0,2.73-1.19l1.3,1.24a5.42,5.42,0,0,1-4.11,1.71,4.8,4.8,0,0,1-3.63-1.37,4.87,4.87,0,0,1-1.32-3.53,5.09,5.09,0,0,1,1.29-3.57,4.46,4.46,0,0,1,3.46-1.41,4.37,4.37,0,0,1,3.36,1.33A4.78,4.78,0,0,1,622.42,337.59Zm-7.2-.76h5.21a2.6,2.6,0,0,0-.82-1.77,2.64,2.64,0,0,0-1.78-.62,2.49,2.49,0,0,0-1.81.67A2.58,2.58,0,0,0,615.22,336.83Z"/><path class="cls-5" d="M626.38,342.5h-2v-9.45h2v1.39a3.72,3.72,0,0,1,3.1-1.6,3.06,3.06,0,0,1,2.39.94,3.65,3.65,0,0,1,.87,2.57v6.15h-2v-5.7c0-1.43-.63-2.15-1.87-2.15a2.43,2.43,0,0,0-2.51,2.56Z"/><path class="cls-5" d="M640.31,340.54l.8,1.48a3.68,3.68,0,0,1-2.25.7,2.78,2.78,0,0,1-2.56-1.21,3.58,3.58,0,0,1-.45-2v-4.95h-1.58v-1.53h1.58v-2.53h2v2.53h2.92v1.53h-2.92v5c0,.94.42,1.41,1.28,1.41A1.81,1.81,0,0,0,640.31,340.54Z"/><path class="cls-5" d="M650.27,339.62a2.7,2.7,0,0,1-1.08,2.25,4.64,4.64,0,0,1-3,.85,4.84,4.84,0,0,1-4.39-2.13l1.4-1a3.58,3.58,0,0,0,3.1,1.49,2.83,2.83,0,0,0,1.43-.32,1,1,0,0,0,.53-.94.85.85,0,0,0-.53-.84,8.74,8.74,0,0,0-1.87-.46,6.91,6.91,0,0,1-2.64-.91,2.12,2.12,0,0,1-.92-1.93,2.4,2.4,0,0,1,1.06-2.13,4.55,4.55,0,0,1,2.65-.73,5.3,5.3,0,0,1,4.06,1.65l-1.26,1.15a3.55,3.55,0,0,0-2.82-1.18,2.65,2.65,0,0,0-1.25.27.86.86,0,0,0-.52.79.8.8,0,0,0,.54.79,7.83,7.83,0,0,0,1.71.43c.46.09.85.17,1.17.26a6.32,6.32,0,0,1,1,.34,2.61,2.61,0,0,1,.84.51,2.44,2.44,0,0,1,.52.75A2.38,2.38,0,0,1,650.27,339.62Z"/><path class="cls-5" d="M665.86,342.5h-8.54v-12h2.09v10.07h6.45Z"/><path class="cls-5" d="M669.42,331.52h-2v-1.87h2Zm0,11h-2v-9.45h2Z"/><path class="cls-5" d="M679.65,339.62a2.71,2.71,0,0,1-1.09,2.25,4.6,4.6,0,0,1-2.95.85,4.87,4.87,0,0,1-4.39-2.13l1.4-1a3.58,3.58,0,0,0,3.1,1.49,2.78,2.78,0,0,0,1.43-.32,1,1,0,0,0,.53-.94.84.84,0,0,0-.53-.84,8.44,8.44,0,0,0-1.86-.46,7,7,0,0,1-2.65-.91,2.13,2.13,0,0,1-.91-1.93,2.4,2.4,0,0,1,1.06-2.13,4.51,4.51,0,0,1,2.64-.73,5.32,5.32,0,0,1,4.07,1.65l-1.26,1.15a3.58,3.58,0,0,0-2.83-1.18,2.68,2.68,0,0,0-1.25.27.85.85,0,0,0-.51.79.8.8,0,0,0,.54.79,7.68,7.68,0,0,0,1.71.43c.46.09.85.17,1.17.26a6.32,6.32,0,0,1,1,.34,2.61,2.61,0,0,1,.84.51,2.44,2.44,0,0,1,.52.75A2.38,2.38,0,0,1,679.65,339.62Z"/><path class="cls-5" d="M686.72,340.54l.79,1.48a3.64,3.64,0,0,1-2.25.7,2.75,2.75,0,0,1-2.55-1.21,3.5,3.5,0,0,1-.45-2v-4.95h-1.59v-1.53h1.59v-2.53h2v2.53h2.92v1.53h-2.92v5c0,.94.43,1.41,1.28,1.41A1.84,1.84,0,0,0,686.72,340.54Z"/><rect class="cls-8" x="802" y="483" width="221.5" height="36.5" rx="4.85"/><path class="cls-5" d="M818.72,507.5H814v-12h4.75a5.67,5.67,0,0,1,4.36,1.67,6.7,6.7,0,0,1,0,8.64A5.67,5.67,0,0,1,818.72,507.5Zm-2.63-1.91h2.63a3.51,3.51,0,0,0,2.77-1.09,5.09,5.09,0,0,0,0-6,3.51,3.51,0,0,0-2.77-1.1h-2.63Z"/><path class="cls-5" d="M835.74,502.79a5,5,0,0,1-1.3,3.55,5.09,5.09,0,0,1-7,0,5.54,5.54,0,0,1,0-7.13,5.12,5.12,0,0,1,7,0A5,5,0,0,1,835.74,502.79Zm-2.12,0a3.68,3.68,0,0,0-.71-2.33,2.38,2.38,0,0,0-1.95-.9,2.42,2.42,0,0,0-2,.9,3.62,3.62,0,0,0-.72,2.33,3.57,3.57,0,0,0,.72,2.3,2.39,2.39,0,0,0,2,.9,2.35,2.35,0,0,0,1.95-.9A3.63,3.63,0,0,0,833.62,502.79Z"/><path class="cls-5" d="M844.31,504.61l1.5,1a4.81,4.81,0,0,1-7.36.69,5.55,5.55,0,0,1,0-7.09,4.75,4.75,0,0,1,7.3.71L844.26,501a2.53,2.53,0,0,0-2.32-1.42,2.37,2.37,0,0,0-2,.9,4,4,0,0,0,0,4.59,2.39,2.39,0,0,0,2,.9A2.71,2.71,0,0,0,844.31,504.61Z"/><path class="cls-5" d="M852.68,505.54l.79,1.48a3.64,3.64,0,0,1-2.25.7,2.75,2.75,0,0,1-2.55-1.21,3.58,3.58,0,0,1-.45-2v-4.95h-1.59v-1.53h1.59v-2.53h2v2.53h2.91v1.53h-2.91v5c0,.94.42,1.41,1.27,1.41A1.84,1.84,0,0,0,852.68,505.54Z"/><path class="cls-5" d="M864,502.79a5,5,0,0,1-1.3,3.55,5.09,5.09,0,0,1-7,0,5.54,5.54,0,0,1,0-7.13,5.12,5.12,0,0,1,7,0A5,5,0,0,1,864,502.79Zm-2.12,0a3.68,3.68,0,0,0-.71-2.33,2.58,2.58,0,0,0-3.92,0,3.62,3.62,0,0,0-.72,2.33,3.57,3.57,0,0,0,.72,2.3,2.58,2.58,0,0,0,3.92,0A3.63,3.63,0,0,0,861.9,502.79Z"/><path class="cls-5" d="M872,498.2l-.58,1.94a2.3,2.3,0,0,0-1.08-.29,2,2,0,0,0-1.61.78,3.06,3.06,0,0,0-.65,2.07v4.8h-2v-9.45h2v1.53a3.12,3.12,0,0,1,2.66-1.71A2.18,2.18,0,0,1,872,498.2Z"/><path class="cls-5" d="M886.12,495.52h2.25l-4.53,12h-2.25l-4.56-12h2.29L882.7,505Z"/><path class="cls-5" d="M891.79,496.52h-2v-1.87h2Zm0,11h-2v-9.45h2Z"/><path class="cls-5" d="M902,504.62a2.7,2.7,0,0,1-1.08,2.25,4.64,4.64,0,0,1-3,.85,4.84,4.84,0,0,1-4.39-2.13l1.4-1a3.58,3.58,0,0,0,3.1,1.49,2.83,2.83,0,0,0,1.43-.32,1,1,0,0,0,.53-.94.85.85,0,0,0-.53-.84,8.74,8.74,0,0,0-1.87-.46,6.91,6.91,0,0,1-2.64-.91,2.12,2.12,0,0,1-.92-1.93,2.4,2.4,0,0,1,1.06-2.13,4.55,4.55,0,0,1,2.65-.73,5.3,5.3,0,0,1,4.06,1.65l-1.26,1.15a3.55,3.55,0,0,0-2.82-1.18,2.65,2.65,0,0,0-1.25.27.86.86,0,0,0-.52.79.8.8,0,0,0,.54.79,7.83,7.83,0,0,0,1.71.43c.46.09.85.17,1.17.26a6.32,6.32,0,0,1,1,.34,2.61,2.61,0,0,1,.84.51,2.44,2.44,0,0,1,.52.75A2.38,2.38,0,0,1,902,504.62Z"/><path class="cls-5" d="M906,496.52h-2v-1.87h2Zm0,11h-2v-9.45h2Z"/><path class="cls-5" d="M913.7,505.54l.79,1.48a3.64,3.64,0,0,1-2.25.7,2.75,2.75,0,0,1-2.55-1.21,3.58,3.58,0,0,1-.45-2v-4.95h-1.59v-1.53h1.59v-2.53h2v2.53h2.91v1.53h-2.91v5c0,.94.42,1.41,1.27,1.41A1.84,1.84,0,0,0,913.7,505.54Z"/><path class="cls-5" d="M931,507.5h-2.36l-2.41-4.59h-3v4.59h-2.1v-12h5.38a4.54,4.54,0,0,1,3.08,1,3.63,3.63,0,0,1,.44,4.74,3.85,3.85,0,0,1-1.72,1.28Zm-2.48-8.24a1.81,1.81,0,0,0-.58-1.4,2.19,2.19,0,0,0-1.51-.51H923.2v3.8h3.26a2.16,2.16,0,0,0,1.49-.51A1.79,1.79,0,0,0,928.52,499.26Z"/><path class="cls-5" d="M941.51,502.59a4.88,4.88,0,0,1,0,.68h-7.2a2.73,2.73,0,0,0,.85,2,2.94,2.94,0,0,0,2,.71,3.59,3.59,0,0,0,2.74-1.19L941.2,506a5.4,5.4,0,0,1-4.1,1.71,4.82,4.82,0,0,1-3.64-1.37,4.91,4.91,0,0,1-1.31-3.53,5.09,5.09,0,0,1,1.29-3.57,4.46,4.46,0,0,1,3.46-1.41,4.37,4.37,0,0,1,3.36,1.33A4.82,4.82,0,0,1,941.51,502.59Zm-7.2-.76h5.2a2.51,2.51,0,0,0-.82-1.77,2.6,2.6,0,0,0-1.77-.62,2.53,2.53,0,0,0-1.82.67A2.57,2.57,0,0,0,934.31,501.83Z"/><path class="cls-5" d="M945.47,507.5h-2v-9.45h2v1.35a3.55,3.55,0,0,1,2.95-1.56,2.64,2.64,0,0,1,2.76,1.8,3.88,3.88,0,0,1,3.29-1.8,3,3,0,0,1,2.35.92,3.72,3.72,0,0,1,.82,2.53v6.21h-2v-5.74c0-1.4-.6-2.11-1.78-2.11a2.21,2.21,0,0,0-1.67.7,2.53,2.53,0,0,0-.66,1.82v5.33h-2v-5.74c0-1.4-.59-2.11-1.78-2.11a2.18,2.18,0,0,0-1.66.69,2.52,2.52,0,0,0-.66,1.83Z"/><path class="cls-5" d="M962.14,496.52h-2v-1.87h2Zm0,11h-2v-9.45h2Z"/><path class="cls-5" d="M966.75,507.5h-2v-9.45h2v1.39a3.69,3.69,0,0,1,3.09-1.6,3.1,3.1,0,0,1,2.4.94,3.7,3.7,0,0,1,.86,2.57v6.15h-2v-5.7c0-1.43-.62-2.15-1.87-2.15a2.43,2.43,0,0,0-2.5,2.56Z"/><path class="cls-5" d="M984.55,507.5h-2v-1.38a3.75,3.75,0,0,1-3.19,1.6,3.9,3.9,0,0,1-3.15-1.4,5.91,5.91,0,0,1,0-7.09,3.9,3.9,0,0,1,3.15-1.39,3.75,3.75,0,0,1,3.19,1.6v-4.79h2Zm-2-4.71a3.45,3.45,0,0,0-.73-2.28,2.47,2.47,0,0,0-2-.89,2.34,2.34,0,0,0-2,.89,3.6,3.6,0,0,0-.69,2.28,3.54,3.54,0,0,0,.69,2.26,2.34,2.34,0,0,0,2,.89,2.48,2.48,0,0,0,2-.89A3.5,3.5,0,0,0,982.55,502.79Z"/><path class="cls-5" d="M995.94,502.59c0,.24,0,.47,0,.68h-7.2a2.72,2.72,0,0,0,.84,2,2.94,2.94,0,0,0,2.05.71,3.57,3.57,0,0,0,2.74-1.19l1.3,1.24a5.42,5.42,0,0,1-4.11,1.71,4.79,4.79,0,0,1-3.63-1.37,4.87,4.87,0,0,1-1.32-3.53,5.09,5.09,0,0,1,1.29-3.57,4.46,4.46,0,0,1,3.46-1.41,4.37,4.37,0,0,1,3.36,1.33A4.82,4.82,0,0,1,995.94,502.59Zm-7.2-.76h5.2a2.51,2.51,0,0,0-.82-1.77,2.6,2.6,0,0,0-1.77-.62,2.53,2.53,0,0,0-1.82.67A2.62,2.62,0,0,0,988.74,501.83Z"/><path class="cls-5" d="M1003.83,498.2l-.58,1.94a2.3,2.3,0,0,0-1.08-.29,2,2,0,0,0-1.61.78,3.06,3.06,0,0,0-.66,2.07v4.8h-2v-9.45h2v1.53a3.13,3.13,0,0,1,2.67-1.71A2.23,2.23,0,0,1,1003.83,498.2Z"/><path class="cls-5" d="M1012.83,504.62a2.7,2.7,0,0,1-1.08,2.25,4.65,4.65,0,0,1-3,.85,4.87,4.87,0,0,1-4.39-2.13l1.41-1a3.56,3.56,0,0,0,3.09,1.49,2.78,2.78,0,0,0,1.43-.32,1,1,0,0,0,.53-.94.84.84,0,0,0-.53-.84,8.44,8.44,0,0,0-1.86-.46,7,7,0,0,1-2.65-.91,2.13,2.13,0,0,1-.91-1.93,2.4,2.4,0,0,1,1.06-2.13,4.54,4.54,0,0,1,2.64-.73,5.32,5.32,0,0,1,4.07,1.65l-1.26,1.15a3.56,3.56,0,0,0-2.82-1.18,2.7,2.7,0,0,0-1.26.27.85.85,0,0,0-.51.79.8.8,0,0,0,.54.79,7.68,7.68,0,0,0,1.71.43c.46.09.85.17,1.17.26a6.32,6.32,0,0,1,1,.34,2.61,2.61,0,0,1,.84.51,2.44,2.44,0,0,1,.52.75A2.38,2.38,0,0,1,1012.83,504.62Z"/><rect class="cls-8" x="493" y="681" width="221.5" height="36.5" rx="4.85"/><path class="cls-5" d="M557.25,705.5H552.5v-12h4.75a5.7,5.7,0,0,1,4.37,1.67,6.73,6.73,0,0,1,0,8.64A5.7,5.7,0,0,1,557.25,705.5Zm-2.62-1.91h2.62A3.53,3.53,0,0,0,560,702.5a5.09,5.09,0,0,0,0-6,3.54,3.54,0,0,0-2.78-1.1h-2.62Z"/><path class="cls-5" d="M574.28,700.79a5,5,0,0,1-1.3,3.55,5.09,5.09,0,0,1-7,0,5.54,5.54,0,0,1,0-7.13,5.12,5.12,0,0,1,7,0A5,5,0,0,1,574.28,700.79Zm-2.12,0a3.68,3.68,0,0,0-.71-2.33,2.58,2.58,0,0,0-3.92,0,3.62,3.62,0,0,0-.72,2.33,3.57,3.57,0,0,0,.72,2.3,2.58,2.58,0,0,0,3.92,0A3.63,3.63,0,0,0,572.16,700.79Z"/><path class="cls-5" d="M582.85,702.61l1.49,1a4.8,4.8,0,0,1-7.35.69,5.52,5.52,0,0,1,0-7.09,4.75,4.75,0,0,1,7.3.71L582.8,699a2.54,2.54,0,0,0-2.33-1.42,2.36,2.36,0,0,0-1.94.9,3.56,3.56,0,0,0-.72,2.29,3.5,3.5,0,0,0,.73,2.3,2.38,2.38,0,0,0,2,.9A2.72,2.72,0,0,0,582.85,702.61Z"/><path class="cls-5" d="M591.22,703.54,592,705a3.64,3.64,0,0,1-2.25.7,2.75,2.75,0,0,1-2.55-1.21,3.5,3.5,0,0,1-.45-2v-4.95h-1.59v-1.53h1.59v-2.53h2v2.53h2.92v1.53h-2.92v5c0,.94.43,1.41,1.28,1.41A1.84,1.84,0,0,0,591.22,703.54Z"/><path class="cls-5" d="M602.56,700.79a5,5,0,0,1-1.31,3.55,5.08,5.08,0,0,1-7,0,5.51,5.51,0,0,1,0-7.13,5.1,5.1,0,0,1,7,0A5,5,0,0,1,602.56,700.79Zm-2.12,0a3.62,3.62,0,0,0-.72-2.33,2.37,2.37,0,0,0-2-.9,2.4,2.4,0,0,0-2,.9,3.62,3.62,0,0,0-.72,2.33,3.57,3.57,0,0,0,.72,2.3,2.37,2.37,0,0,0,2,.9,2.34,2.34,0,0,0,2-.9A3.57,3.57,0,0,0,600.44,700.79Z"/><path class="cls-5" d="M610.5,696.2l-.58,1.94a2.3,2.3,0,0,0-1.08-.29,2,2,0,0,0-1.61.78,3.06,3.06,0,0,0-.66,2.07v4.8h-2v-9.45h2v1.53a3.13,3.13,0,0,1,2.67-1.71A2.23,2.23,0,0,1,610.5,696.2Z"/><path class="cls-5" d="M619.5,702.62a2.7,2.7,0,0,1-1.08,2.25,4.65,4.65,0,0,1-3,.85,4.87,4.87,0,0,1-4.39-2.13l1.41-1a3.56,3.56,0,0,0,3.09,1.49,2.78,2.78,0,0,0,1.43-.32,1,1,0,0,0,.53-.94A.84.84,0,0,0,617,702a8.44,8.44,0,0,0-1.86-.46,7,7,0,0,1-2.65-.91,2.13,2.13,0,0,1-.91-1.93,2.4,2.4,0,0,1,1.06-2.13,4.54,4.54,0,0,1,2.64-.73,5.32,5.32,0,0,1,4.07,1.65l-1.26,1.15a3.56,3.56,0,0,0-2.82-1.18,2.63,2.63,0,0,0-1.25.27.84.84,0,0,0-.52.79.8.8,0,0,0,.54.79,7.68,7.68,0,0,0,1.71.43c.46.09.85.17,1.17.26a6.32,6.32,0,0,1,1,.34,2.61,2.61,0,0,1,.84.51,2.44,2.44,0,0,1,.52.75A2.38,2.38,0,0,1,619.5,702.62Z"/><path class="cls-5" d="M635.08,705.5h-8.53v-12h2.09v10.07h6.44Z"/><path class="cls-5" d="M638.65,694.52h-2v-1.87h2Zm0,11h-2v-9.45h2Z"/><path class="cls-5" d="M648.87,702.62a2.7,2.7,0,0,1-1.08,2.25,4.62,4.62,0,0,1-2.95.85,4.85,4.85,0,0,1-4.39-2.13l1.4-1a3.58,3.58,0,0,0,3.1,1.49,2.8,2.8,0,0,0,1.43-.32,1,1,0,0,0,.53-.94.85.85,0,0,0-.53-.84,8.77,8.77,0,0,0-1.86-.46,6.91,6.91,0,0,1-2.65-.91,2.14,2.14,0,0,1-.92-1.93,2.42,2.42,0,0,1,1.06-2.13,4.55,4.55,0,0,1,2.65-.73,5.32,5.32,0,0,1,4.07,1.65l-1.26,1.15a3.58,3.58,0,0,0-2.83-1.18,2.65,2.65,0,0,0-1.25.27.85.85,0,0,0-.51.79.8.8,0,0,0,.54.79,7.68,7.68,0,0,0,1.71.43c.45.09.84.17,1.17.26a6.67,6.67,0,0,1,1,.34,2.67,2.67,0,0,1,.83.51,2.47,2.47,0,0,1,.53.75A2.54,2.54,0,0,1,648.87,702.62Z"/><path class="cls-5" d="M656,703.54l.79,1.48a3.64,3.64,0,0,1-2.25.7,2.78,2.78,0,0,1-2.56-1.21,3.58,3.58,0,0,1-.45-2v-4.95H649.9v-1.53h1.58v-2.53h2v2.53h2.92v1.53h-2.92v5c0,.94.43,1.41,1.28,1.41A1.86,1.86,0,0,0,656,703.54Z"/><rect class="cls-8" x="489" y="925" width="221.5" height="36.5" rx="4.85"/><path class="cls-5" d="M525.88,949.5h-2.36l-2.41-4.59h-3v4.59H516v-12h5.38a4.54,4.54,0,0,1,3.08,1,3.67,3.67,0,0,1,.44,4.74,3.91,3.91,0,0,1-1.72,1.28Zm-2.49-8.24a1.8,1.8,0,0,0-.57-1.4,2.21,2.21,0,0,0-1.51-.51h-3.23v3.8h3.26a2.16,2.16,0,0,0,1.49-.51A1.82,1.82,0,0,0,523.39,941.26Z"/><path class="cls-5" d="M536.39,944.59a4.88,4.88,0,0,1,0,.68h-7.2a2.73,2.73,0,0,0,.85,2,2.92,2.92,0,0,0,2,.71,3.6,3.6,0,0,0,2.74-1.19l1.29,1.24a5.41,5.41,0,0,1-4.1,1.71,4.82,4.82,0,0,1-3.64-1.37,4.91,4.91,0,0,1-1.31-3.53,5.12,5.12,0,0,1,1.28-3.57,4.48,4.48,0,0,1,3.47-1.41,4.4,4.4,0,0,1,3.36,1.33A4.82,4.82,0,0,1,536.39,944.59Zm-7.2-.76h5.2a2.51,2.51,0,0,0-.82-1.77,2.6,2.6,0,0,0-1.77-.62,2.51,2.51,0,0,0-1.82.67A2.57,2.57,0,0,0,529.19,943.83Z"/><path class="cls-5" d="M540.35,949.5h-2v-9.45h2v1.35a3.55,3.55,0,0,1,2.95-1.56,2.63,2.63,0,0,1,2.75,1.8,3.9,3.9,0,0,1,3.3-1.8,3,3,0,0,1,2.35.92,3.72,3.72,0,0,1,.82,2.53v6.21h-2v-5.74c0-1.4-.6-2.11-1.79-2.11a2.2,2.2,0,0,0-1.66.7,2.53,2.53,0,0,0-.66,1.82v5.33h-2v-5.74c0-1.4-.59-2.11-1.78-2.11a2.18,2.18,0,0,0-1.66.69,2.52,2.52,0,0,0-.66,1.83Z"/><path class="cls-5" d="M557,938.52h-2v-1.87h2Zm0,11h-2v-9.45h2Z"/><path class="cls-5" d="M561.62,949.5h-2v-9.45h2v1.39a3.72,3.72,0,0,1,3.1-1.6,3.06,3.06,0,0,1,2.39.94,3.65,3.65,0,0,1,.87,2.57v6.15h-2v-5.7c0-1.43-.63-2.15-1.87-2.15a2.45,2.45,0,0,0-2.51,2.56Z"/><path class="cls-5" d="M579.43,949.5h-2v-1.38a3.77,3.77,0,0,1-3.19,1.6,3.94,3.94,0,0,1-3.16-1.4,5.91,5.91,0,0,1,0-7.09,3.93,3.93,0,0,1,3.16-1.39,3.77,3.77,0,0,1,3.19,1.6v-4.79h2Zm-2-4.71a3.45,3.45,0,0,0-.73-2.28,2.49,2.49,0,0,0-2-.89,2.37,2.37,0,0,0-2,.89,3.66,3.66,0,0,0-.68,2.28,3.6,3.6,0,0,0,.68,2.26,2.37,2.37,0,0,0,2,.89,2.48,2.48,0,0,0,2-.89A3.5,3.5,0,0,0,577.43,944.79Z"/><path class="cls-5" d="M590.82,944.59a4.88,4.88,0,0,1,0,.68h-7.2a2.73,2.73,0,0,0,.85,2,2.94,2.94,0,0,0,2.05.71,3.59,3.59,0,0,0,2.74-1.19l1.29,1.24a5.4,5.4,0,0,1-4.1,1.71,4.82,4.82,0,0,1-3.64-1.37,4.91,4.91,0,0,1-1.31-3.53,5.09,5.09,0,0,1,1.29-3.57,4.44,4.44,0,0,1,3.46-1.41,4.38,4.38,0,0,1,3.36,1.33A4.82,4.82,0,0,1,590.82,944.59Zm-7.2-.76h5.2a2.51,2.51,0,0,0-.82-1.77,2.6,2.6,0,0,0-1.77-.62,2.53,2.53,0,0,0-1.82.67A2.57,2.57,0,0,0,583.62,943.83Z"/><path class="cls-5" d="M598.7,940.2l-.57,1.94a2.3,2.3,0,0,0-1.08-.29,2,2,0,0,0-1.61.78,3.06,3.06,0,0,0-.66,2.07v4.8h-2v-9.45h2v1.53a3.13,3.13,0,0,1,2.66-1.71A2.18,2.18,0,0,1,598.7,940.2Z"/><path class="cls-5" d="M609.09,937.3a5.42,5.42,0,0,1,4.7,2.23l-1.59,1.06a3.72,3.72,0,0,0-3.18-1.51,3,3,0,0,0-1.58.38,1.27,1.27,0,0,0-.6,1.15,1.18,1.18,0,0,0,.15.59,1.58,1.58,0,0,0,.34.41,2.38,2.38,0,0,0,.62.3c.29.09.52.17.7.21s.46.12.85.2a15.3,15.3,0,0,1,1.73.44,7.4,7.4,0,0,1,1.39.63,2.73,2.73,0,0,1,1,1,3.09,3.09,0,0,1,.34,1.51,3.34,3.34,0,0,1-1.27,2.73,5.31,5.31,0,0,1-3.46,1.05,6.48,6.48,0,0,1-3.08-.71,4.92,4.92,0,0,1-2-2l1.69-1a3.85,3.85,0,0,0,3.55,1.88,3.15,3.15,0,0,0,1.81-.47,1.49,1.49,0,0,0,.69-1.3,1.23,1.23,0,0,0-.17-.65,1.93,1.93,0,0,0-.37-.45,2.59,2.59,0,0,0-.7-.32,7.31,7.31,0,0,0-.78-.22l-1-.21c-.49-.1-.92-.2-1.28-.31a7.18,7.18,0,0,1-1.11-.45,3.44,3.44,0,0,1-.94-.64,2.56,2.56,0,0,1-.59-.9,3,3,0,0,1-.24-1.23,3.06,3.06,0,0,1,1.21-2.56A5,5,0,0,1,609.09,937.3Z"/><path class="cls-5" d="M621.11,947.54l.79,1.48a3.64,3.64,0,0,1-2.25.7,2.75,2.75,0,0,1-2.55-1.21,3.58,3.58,0,0,1-.45-2v-4.95h-1.59v-1.53h1.59v-2.53h2v2.53h2.91v1.53h-2.91v5c0,.94.42,1.41,1.27,1.41A1.84,1.84,0,0,0,621.11,947.54Z"/><path class="cls-5" d="M632.29,949.41a2.67,2.67,0,0,1-1.22.24,2.19,2.19,0,0,1-1.23-.35,1.58,1.58,0,0,1-.66-1.06,3.58,3.58,0,0,1-3.15,1.48,3.47,3.47,0,0,1-2.36-.77,2.72,2.72,0,0,1-.88-2.15,2.8,2.8,0,0,1,.24-1.18,2.36,2.36,0,0,1,.58-.8,2.7,2.7,0,0,1,.88-.48,6.05,6.05,0,0,1,1-.27l1-.15c.43,0,.75-.09,1-.12s.45-.1.71-.17a1,1,0,0,0,.55-.35.9.9,0,0,0,.16-.55.94.94,0,0,0-.57-.92,3,3,0,0,0-1.36-.28,5,5,0,0,0-3,1L623.2,941a7,7,0,0,1,3.89-1.15,4.54,4.54,0,0,1,2.78.76,2.8,2.8,0,0,1,1,2.4v4.31c0,.57.22.86.66.86a.85.85,0,0,0,.52-.13Zm-3.4-3.49v-1.44a2.57,2.57,0,0,1-.33.33,1.31,1.31,0,0,1-.46.22l-.44.12-.57.1-.56.08a3,3,0,0,0-1.3.45,1.1,1.1,0,0,0-.45,1,1.22,1.22,0,0,0,.48,1.05,2.1,2.1,0,0,0,1.25.35,2.52,2.52,0,0,0,1.69-.57A2,2,0,0,0,628.89,945.92Z"/><path class="cls-5" d="M638.77,947.54l.79,1.48a3.64,3.64,0,0,1-2.25.7,2.75,2.75,0,0,1-2.55-1.21,3.58,3.58,0,0,1-.45-2v-4.95h-1.59v-1.53h1.59v-2.53h2v2.53h2.91v1.53h-2.91v5c0,.94.42,1.41,1.27,1.41A1.84,1.84,0,0,0,638.77,947.54Z"/><path class="cls-5" d="M643.11,938.52h-2v-1.87h2Zm0,11h-2v-9.45h2Z"/><path class="cls-5" d="M653.33,946.62a2.7,2.7,0,0,1-1.08,2.25,4.62,4.62,0,0,1-3,.85,4.85,4.85,0,0,1-4.39-2.13l1.4-1a3.58,3.58,0,0,0,3.1,1.49,2.78,2.78,0,0,0,1.43-.32,1,1,0,0,0,.53-.94.85.85,0,0,0-.53-.84,8.44,8.44,0,0,0-1.86-.46,7,7,0,0,1-2.65-.91,2.14,2.14,0,0,1-.92-1.93,2.41,2.41,0,0,1,1.07-2.13,4.49,4.49,0,0,1,2.64-.73,5.32,5.32,0,0,1,4.07,1.65l-1.26,1.15a3.58,3.58,0,0,0-2.83-1.18,2.65,2.65,0,0,0-1.25.27.85.85,0,0,0-.51.79.8.8,0,0,0,.54.79,7.68,7.68,0,0,0,1.71.43c.46.09.85.17,1.17.26a6.67,6.67,0,0,1,1,.34,2.55,2.55,0,0,1,.83.51,2.47,2.47,0,0,1,.53.75A2.54,2.54,0,0,1,653.33,946.62Z"/><path class="cls-5" d="M660.41,947.54l.79,1.48a3.64,3.64,0,0,1-2.25.7,2.78,2.78,0,0,1-2.56-1.21,3.58,3.58,0,0,1-.45-2v-4.95h-1.58v-1.53h1.58v-2.53h2v2.53h2.92v1.53h-2.92v5c0,.94.43,1.41,1.28,1.41A1.86,1.86,0,0,0,660.41,947.54Z"/><path class="cls-5" d="M664.75,938.52h-2v-1.87h2Zm0,11h-2v-9.45h2Z"/><path class="cls-5" d="M673.91,946.61l1.49,1a4.8,4.8,0,0,1-7.35.69,5.52,5.52,0,0,1,0-7.09,4.75,4.75,0,0,1,7.3.71l-1.5,1.06a2.52,2.52,0,0,0-2.32-1.42,2.36,2.36,0,0,0-1.94.9,3.56,3.56,0,0,0-.72,2.29,3.5,3.5,0,0,0,.73,2.3,2.37,2.37,0,0,0,1.95.9A2.72,2.72,0,0,0,673.91,946.61Z"/><path class="cls-5" d="M684.82,946.62a2.7,2.7,0,0,1-1.08,2.25,4.65,4.65,0,0,1-3,.85,4.87,4.87,0,0,1-4.39-2.13l1.41-1a3.56,3.56,0,0,0,3.09,1.49,2.78,2.78,0,0,0,1.43-.32,1,1,0,0,0,.53-.94.84.84,0,0,0-.53-.84,8.44,8.44,0,0,0-1.86-.46,7,7,0,0,1-2.65-.91,2.13,2.13,0,0,1-.91-1.93,2.4,2.4,0,0,1,1.06-2.13,4.54,4.54,0,0,1,2.64-.73,5.32,5.32,0,0,1,4.07,1.65l-1.26,1.15a3.56,3.56,0,0,0-2.82-1.18,2.7,2.7,0,0,0-1.26.27.85.85,0,0,0-.51.79.8.8,0,0,0,.54.79,7.68,7.68,0,0,0,1.71.43c.46.09.85.17,1.17.26a6.32,6.32,0,0,1,1,.34,2.61,2.61,0,0,1,.84.51,2.44,2.44,0,0,1,.52.75A2.38,2.38,0,0,1,684.82,946.62Z"/><rect class="cls-8" x="114" y="578" width="221.5" height="36.5" rx="4.85"/><path class="cls-5" d="M149.91,590.3a5.46,5.46,0,0,1,4.88,2.57l-1.73,1a3.43,3.43,0,0,0-3.16-1.75,3.38,3.38,0,0,0-2.74,1.19,5.49,5.49,0,0,0,0,6.32,3.45,3.45,0,0,0,2.77,1.17,3.7,3.7,0,0,0,2.38-.77,3,3,0,0,0,1.08-2.1h-3.32v-1.83h5.39a4.64,4.64,0,0,1,.09,1,5.6,5.6,0,0,1-1.52,4,5.39,5.39,0,0,1-4.14,1.6A5.64,5.64,0,0,1,145.6,601a6.32,6.32,0,0,1-1.63-4.49A6.25,6.25,0,0,1,145.6,592,5.69,5.69,0,0,1,149.91,590.3Z"/><path class="cls-5" d="M166.33,602.41a2.67,2.67,0,0,1-1.22.24,2.19,2.19,0,0,1-1.23-.35,1.58,1.58,0,0,1-.66-1.06,3.58,3.58,0,0,1-3.15,1.48,3.47,3.47,0,0,1-2.36-.77,2.72,2.72,0,0,1-.88-2.15,2.8,2.8,0,0,1,.24-1.18,2.36,2.36,0,0,1,.58-.8,2.7,2.7,0,0,1,.88-.48,6.05,6.05,0,0,1,1-.27l1-.15c.43,0,.75-.09,1-.12s.45-.1.71-.17a1,1,0,0,0,.55-.35.9.9,0,0,0,.16-.55.94.94,0,0,0-.57-.92,3,3,0,0,0-1.36-.28,5,5,0,0,0-2.95,1l-.79-1.49a7,7,0,0,1,3.89-1.15,4.54,4.54,0,0,1,2.78.76,2.8,2.8,0,0,1,1,2.4v4.31c0,.57.22.86.66.86a.85.85,0,0,0,.52-.13Zm-3.4-3.49v-1.44a2.57,2.57,0,0,1-.33.33,1.31,1.31,0,0,1-.46.22l-.44.12-.57.1-.56.08a3,3,0,0,0-1.3.45,1.1,1.1,0,0,0-.45,1,1.22,1.22,0,0,0,.48,1.05,2.1,2.1,0,0,0,1.25.35,2.54,2.54,0,0,0,1.69-.57A2,2,0,0,0,162.93,598.92Z"/><path class="cls-5" d="M173.76,593.2l-.57,1.94a2.3,2.3,0,0,0-1.08-.29,2,2,0,0,0-1.61.78,3.06,3.06,0,0,0-.66,2.07v4.8h-2v-9.45h2v1.53a3.13,3.13,0,0,1,2.66-1.71A2.18,2.18,0,0,1,173.76,593.2Z"/><path class="cls-5" d="M184,602.5h-2v-1.38a3.75,3.75,0,0,1-3.18,1.6,3.92,3.92,0,0,1-3.16-1.4,5.91,5.91,0,0,1,0-7.09,3.92,3.92,0,0,1,3.16-1.39,3.75,3.75,0,0,1,3.18,1.6v-4.79h2Zm-2-4.71a3.45,3.45,0,0,0-.73-2.28,2.47,2.47,0,0,0-2-.89,2.37,2.37,0,0,0-2,.89,3.6,3.6,0,0,0-.68,2.28,3.54,3.54,0,0,0,.68,2.26,2.37,2.37,0,0,0,2,.89,2.46,2.46,0,0,0,2-.89A3.5,3.5,0,0,0,182,597.79Z"/><path class="cls-5" d="M195.35,597.59c0,.24,0,.47,0,.68h-7.2a2.73,2.73,0,0,0,.85,2,2.9,2.9,0,0,0,2,.71,3.57,3.57,0,0,0,2.73-1.19L195,601a5.41,5.41,0,0,1-4.1,1.71,4.63,4.63,0,0,1-5-4.9,5.09,5.09,0,0,1,1.29-3.57,4.46,4.46,0,0,1,3.47-1.41,4.36,4.36,0,0,1,3.35,1.33A4.78,4.78,0,0,1,195.35,597.59Zm-7.2-.76h5.2a2.6,2.6,0,0,0-.82-1.77,2.63,2.63,0,0,0-1.77-.62,2.49,2.49,0,0,0-1.82.67A2.53,2.53,0,0,0,188.15,596.83Z"/><path class="cls-5" d="M199.31,602.5h-2v-9.45h2v1.39a3.69,3.69,0,0,1,3.09-1.6,3.1,3.1,0,0,1,2.4.94,3.7,3.7,0,0,1,.86,2.57v6.15h-2v-5.7c0-1.43-.62-2.15-1.87-2.15a2.43,2.43,0,0,0-2.5,2.56Z"/><path class="cls-5" d="M223.3,592.91,221.64,594a3.55,3.55,0,0,0-3.2-1.8,3.42,3.42,0,0,0-2.72,1.19,4.61,4.61,0,0,0-1,3.11,4.73,4.73,0,0,0,1,3.17,3.35,3.35,0,0,0,2.71,1.21,3.56,3.56,0,0,0,3.2-1.89l1.75,1a5.47,5.47,0,0,1-5,2.76,5.58,5.58,0,0,1-4.26-1.74,6.93,6.93,0,0,1,0-8.94,6,6,0,0,1,9.17.87Z"/><path class="cls-5" d="M234.12,597.79a5,5,0,0,1-1.31,3.55,5.08,5.08,0,0,1-7,0,5.51,5.51,0,0,1,0-7.13,5.1,5.1,0,0,1,7,0A5,5,0,0,1,234.12,597.79Zm-2.13,0a3.68,3.68,0,0,0-.71-2.33,2.37,2.37,0,0,0-1.95-.9,2.4,2.4,0,0,0-2,.9,3.62,3.62,0,0,0-.72,2.33,3.57,3.57,0,0,0,.72,2.3,2.37,2.37,0,0,0,2,.9,2.34,2.34,0,0,0,1.95-.9A3.63,3.63,0,0,0,232,597.79Z"/><path class="cls-5" d="M238.13,602.5h-2v-9.45h2v1.35a3.55,3.55,0,0,1,3-1.56,2.64,2.64,0,0,1,2.76,1.8,3.88,3.88,0,0,1,3.29-1.8,3,3,0,0,1,2.35.92,3.72,3.72,0,0,1,.82,2.53v6.21h-2v-5.74c0-1.4-.6-2.11-1.78-2.11a2.21,2.21,0,0,0-1.67.7,2.53,2.53,0,0,0-.66,1.82v5.33h-2v-5.74c0-1.4-.59-2.11-1.78-2.11a2.18,2.18,0,0,0-1.66.69,2.52,2.52,0,0,0-.66,1.83Z"/><path class="cls-5" d="M254.8,602.5h-2v-9.45h2v1.35a3.55,3.55,0,0,1,2.95-1.56,2.63,2.63,0,0,1,2.75,1.8,3.88,3.88,0,0,1,3.3-1.8,3,3,0,0,1,2.35.92,3.72,3.72,0,0,1,.82,2.53v6.21h-2v-5.74c0-1.4-.6-2.11-1.79-2.11a2.2,2.2,0,0,0-1.66.7,2.53,2.53,0,0,0-.66,1.82v5.33h-2v-5.74c0-1.4-.59-2.11-1.78-2.11a2.22,2.22,0,0,0-1.67.69,2.56,2.56,0,0,0-.65,1.83Z"/><path class="cls-5" d="M278.25,597.59c0,.24,0,.47,0,.68H271a2.72,2.72,0,0,0,.84,2,2.94,2.94,0,0,0,2.05.71,3.57,3.57,0,0,0,2.74-1.19L278,601a5.42,5.42,0,0,1-4.11,1.71,4.79,4.79,0,0,1-3.63-1.37,4.87,4.87,0,0,1-1.32-3.53,5.09,5.09,0,0,1,1.29-3.57,4.46,4.46,0,0,1,3.46-1.41,4.37,4.37,0,0,1,3.36,1.33A4.82,4.82,0,0,1,278.25,597.59Zm-7.2-.76h5.2a2.51,2.51,0,0,0-.82-1.77,2.6,2.6,0,0,0-1.77-.62,2.53,2.53,0,0,0-1.82.67A2.62,2.62,0,0,0,271.05,596.83Z"/><path class="cls-5" d="M282.21,602.5h-2v-9.45h2v1.39a3.72,3.72,0,0,1,3.1-1.6,3.06,3.06,0,0,1,2.39.94,3.65,3.65,0,0,1,.87,2.57v6.15h-2v-5.7c0-1.43-.63-2.15-1.88-2.15a2.45,2.45,0,0,0-1.79.71,2.48,2.48,0,0,0-.71,1.85Z"/><path class="cls-5" d="M296.14,600.54l.8,1.48a3.68,3.68,0,0,1-2.25.7,2.76,2.76,0,0,1-2.56-1.21,3.58,3.58,0,0,1-.45-2v-4.95H290.1v-1.53h1.58v-2.53h2v2.53h2.91v1.53h-2.91v5c0,.94.42,1.41,1.27,1.41A1.84,1.84,0,0,0,296.14,600.54Z"/><path class="cls-5" d="M306.1,599.62a2.7,2.7,0,0,1-1.08,2.25,4.65,4.65,0,0,1-3,.85,4.87,4.87,0,0,1-4.39-2.13l1.41-1a3.56,3.56,0,0,0,3.09,1.49,2.78,2.78,0,0,0,1.43-.32,1,1,0,0,0,.54-.94.85.85,0,0,0-.54-.84,8.44,8.44,0,0,0-1.86-.46,6.91,6.91,0,0,1-2.64-.91,2.12,2.12,0,0,1-.92-1.93,2.4,2.4,0,0,1,1.06-2.13,4.55,4.55,0,0,1,2.65-.73,5.31,5.31,0,0,1,4.06,1.65l-1.26,1.15a3.55,3.55,0,0,0-2.82-1.18,2.63,2.63,0,0,0-1.25.27.84.84,0,0,0-.52.79.8.8,0,0,0,.54.79,7.68,7.68,0,0,0,1.71.43c.46.09.85.17,1.17.26a6.32,6.32,0,0,1,1,.34,2.61,2.61,0,0,1,.84.51,2.44,2.44,0,0,1,.52.75A2.38,2.38,0,0,1,306.1,599.62Z"/><rect class="cls-8" x="880" y="538" width="221.5" height="36.5" rx="4.85"/><path class="cls-5" d="M959.78,550.3a5.42,5.42,0,0,1,4.7,2.23l-1.59,1.06a3.72,3.72,0,0,0-3.18-1.51,3,3,0,0,0-1.58.38,1.27,1.27,0,0,0-.6,1.15,1.18,1.18,0,0,0,.15.59,1.58,1.58,0,0,0,.34.41,2.32,2.32,0,0,0,.63.3c.28.09.51.17.69.21s.46.12.85.2a14.76,14.76,0,0,1,1.73.44,7.4,7.4,0,0,1,1.39.63,2.73,2.73,0,0,1,1,1,3.09,3.09,0,0,1,.34,1.51,3.34,3.34,0,0,1-1.27,2.73,5.31,5.31,0,0,1-3.46,1.05,6.51,6.51,0,0,1-3.08-.71,4.92,4.92,0,0,1-2-2l1.69-1a3.86,3.86,0,0,0,3.55,1.88,3.15,3.15,0,0,0,1.81-.47,1.49,1.49,0,0,0,.69-1.3,1.23,1.23,0,0,0-.17-.65,1.93,1.93,0,0,0-.37-.45,2.59,2.59,0,0,0-.7-.32,7.31,7.31,0,0,0-.78-.22l-1-.21c-.49-.1-.92-.2-1.28-.31a7.18,7.18,0,0,1-1.11-.45,3.44,3.44,0,0,1-.94-.64,2.56,2.56,0,0,1-.59-.9,3,3,0,0,1-.24-1.23,3.06,3.06,0,0,1,1.21-2.56A5,5,0,0,1,959.78,550.3Z"/><path class="cls-5" d="M975.51,557.59c0,.24,0,.47,0,.68h-7.21a2.73,2.73,0,0,0,.85,2,2.94,2.94,0,0,0,2,.71,3.57,3.57,0,0,0,2.74-1.19l1.3,1.24a5.42,5.42,0,0,1-4.11,1.71,4.79,4.79,0,0,1-3.63-1.37,4.87,4.87,0,0,1-1.32-3.53,5.09,5.09,0,0,1,1.29-3.57,4.46,4.46,0,0,1,3.46-1.41,4.37,4.37,0,0,1,3.36,1.33A4.82,4.82,0,0,1,975.51,557.59Zm-7.2-.76h5.2a2.51,2.51,0,0,0-.82-1.77,2.6,2.6,0,0,0-1.77-.62,2.53,2.53,0,0,0-1.82.67A2.62,2.62,0,0,0,968.31,556.83Z"/><path class="cls-5" d="M982.55,560.54l.79,1.48a3.64,3.64,0,0,1-2.25.7,2.75,2.75,0,0,1-2.55-1.21,3.5,3.5,0,0,1-.45-2v-4.95H976.5v-1.53h1.59v-2.53h2v2.53H983v1.53h-2.92v5c0,.94.43,1.41,1.28,1.41A1.84,1.84,0,0,0,982.55,560.54Z"/><path class="cls-5" d="M990,560.54l.79,1.48a3.64,3.64,0,0,1-2.25.7,2.78,2.78,0,0,1-2.56-1.21,3.58,3.58,0,0,1-.45-2v-4.95h-1.58v-1.53h1.58v-2.53h2v2.53h2.92v1.53H987.5v5c0,.94.43,1.41,1.28,1.41A1.86,1.86,0,0,0,990,560.54Z"/><path class="cls-5" d="M994.3,551.52h-2v-1.87h2Zm0,11h-2v-9.45h2Z"/><path class="cls-5" d="M998.91,562.5h-2v-9.45h2v1.39a3.72,3.72,0,0,1,3.1-1.6,3.06,3.06,0,0,1,2.39.94,3.65,3.65,0,0,1,.87,2.57v6.15h-2v-5.7c0-1.43-.63-2.15-1.88-2.15a2.45,2.45,0,0,0-1.79.71,2.48,2.48,0,0,0-.71,1.85Z"/><path class="cls-5" d="M1016.75,560.85a5.1,5.1,0,0,1-1,3.47,5.27,5.27,0,0,1-4.15,1.49,7.07,7.07,0,0,1-4-1.09l.86-1.59a5.22,5.22,0,0,0,3.13.94,3.7,3.7,0,0,0,2.32-.68,2.47,2.47,0,0,0,.87-2.09v-.88a3.78,3.78,0,0,1-3.27,1.58,4,4,0,0,1-3.08-1.3,4.59,4.59,0,0,1-1.19-3.25,4.68,4.68,0,0,1,1.21-3.3,4.07,4.07,0,0,1,3.11-1.31,3.68,3.68,0,0,1,3.22,1.6v-1.39h2Zm-2.73-1.38a2.94,2.94,0,0,0,.75-2.06,2.88,2.88,0,0,0-.73-2,2.62,2.62,0,0,0-2-.81,2.46,2.46,0,0,0-2,.81,3,3,0,0,0-.7,2,3.05,3.05,0,0,0,.71,2.06,2.45,2.45,0,0,0,2,.82A2.59,2.59,0,0,0,1014,559.47Z"/><path class="cls-5" d="M1027,559.62a2.7,2.7,0,0,1-1.08,2.25,4.65,4.65,0,0,1-3,.85,4.87,4.87,0,0,1-4.39-2.13l1.41-1a3.56,3.56,0,0,0,3.09,1.49,2.78,2.78,0,0,0,1.43-.32,1,1,0,0,0,.53-.94.84.84,0,0,0-.53-.84,8.44,8.44,0,0,0-1.86-.46,7,7,0,0,1-2.65-.91,2.13,2.13,0,0,1-.91-1.93,2.4,2.4,0,0,1,1.06-2.13,4.54,4.54,0,0,1,2.64-.73,5.32,5.32,0,0,1,4.07,1.65l-1.26,1.15a3.58,3.58,0,0,0-2.82-1.18,2.7,2.7,0,0,0-1.26.27.85.85,0,0,0-.51.79.8.8,0,0,0,.54.79,7.68,7.68,0,0,0,1.71.43c.46.09.85.17,1.17.26a6.32,6.32,0,0,1,1,.34,2.61,2.61,0,0,1,.84.51,2.44,2.44,0,0,1,.52.75A2.38,2.38,0,0,1,1027,559.62Z"/><rect class="cls-8" x="631" y="540" width="221.5" height="36.5" rx="4.85"/><path class="cls-5" d="M697.7,564.5h-8.53v-12h2.09v10.07h6.44Z"/><path class="cls-5" d="M708.27,559.79a5,5,0,0,1-1.31,3.55,5.08,5.08,0,0,1-7,0,5.51,5.51,0,0,1,0-7.13,5.1,5.1,0,0,1,7,0A5,5,0,0,1,708.27,559.79Zm-2.13,0a3.62,3.62,0,0,0-.71-2.33,2.37,2.37,0,0,0-1.95-.9,2.4,2.4,0,0,0-2,.9,3.62,3.62,0,0,0-.72,2.33,3.57,3.57,0,0,0,.72,2.3,2.37,2.37,0,0,0,2,.9,2.34,2.34,0,0,0,1.95-.9A3.57,3.57,0,0,0,706.14,559.79Z"/><path class="cls-5" d="M719.27,562.85a5.05,5.05,0,0,1-1,3.47,5.26,5.26,0,0,1-4.14,1.49,7,7,0,0,1-4-1.09l.86-1.59a5.22,5.22,0,0,0,3.13.94,3.72,3.72,0,0,0,2.32-.68,2.47,2.47,0,0,0,.87-2.09v-.88A3.8,3.8,0,0,1,714,564a4,4,0,0,1-3.08-1.3,4.63,4.63,0,0,1-1.18-3.25,4.68,4.68,0,0,1,1.21-3.3,4.07,4.07,0,0,1,3.11-1.31,3.69,3.69,0,0,1,3.22,1.6v-1.39h2Zm-2.73-1.38a3.21,3.21,0,0,0,0-4.1,2.62,2.62,0,0,0-2-.81,2.49,2.49,0,0,0-2,.81,3,3,0,0,0-.69,2,3.1,3.1,0,0,0,.7,2.06,2.46,2.46,0,0,0,2,.82A2.59,2.59,0,0,0,716.54,561.47Z"/><path class="cls-5" d="M723.86,553.52h-2v-1.87h2Zm0,11h-2v-9.45h2Z"/><path class="cls-5" d="M728.46,564.5h-2v-9.45h2v1.39a3.72,3.72,0,0,1,3.1-1.6,3.06,3.06,0,0,1,2.39.94,3.65,3.65,0,0,1,.87,2.57v6.15h-2v-5.7c0-1.43-.63-2.15-1.87-2.15a2.45,2.45,0,0,0-2.51,2.56Z"/><path class="cls-5" d="M742.2,551.65l-4,14.8H736.6l4-14.8Z"/><path class="cls-5" d="M748.17,552.3a5.41,5.41,0,0,1,4.7,2.23l-1.58,1.06a3.76,3.76,0,0,0-3.19-1.51,2.92,2.92,0,0,0-1.57.38,1.26,1.26,0,0,0-.61,1.15,1.18,1.18,0,0,0,.16.59,1.4,1.4,0,0,0,.34.41,2.09,2.09,0,0,0,.62.3c.29.09.52.17.69.21s.46.12.86.2a15.88,15.88,0,0,1,1.73.44,7.62,7.62,0,0,1,1.38.63,2.69,2.69,0,0,1,1,1,3.21,3.21,0,0,1,.34,1.51,3.35,3.35,0,0,1-1.28,2.73,5.27,5.27,0,0,1-3.46,1.05,6.44,6.44,0,0,1-3.07-.71,5,5,0,0,1-2-2l1.69-1a3.86,3.86,0,0,0,3.55,1.88,3.19,3.19,0,0,0,1.82-.47,1.5,1.5,0,0,0,.68-1.3,1.23,1.23,0,0,0-.17-.65,1.71,1.71,0,0,0-.37-.45,2.5,2.5,0,0,0-.69-.32,7.31,7.31,0,0,0-.78-.22l-1-.21c-.5-.1-.92-.2-1.28-.31a7.7,7.7,0,0,1-1.12-.45,3.53,3.53,0,0,1-.93-.64,2.72,2.72,0,0,1-.6-.9,3.17,3.17,0,0,1-.23-1.23,3.08,3.08,0,0,1,1.2-2.56A5,5,0,0,1,748.17,552.3Z"/><path class="cls-5" d="M757.12,553.52h-2v-1.87h2Zm0,11h-2v-9.45h2Z"/><path class="cls-5" d="M768.71,562.85a5.1,5.1,0,0,1-1,3.47,5.26,5.26,0,0,1-4.14,1.49,7.11,7.11,0,0,1-4-1.09l.87-1.59a5.2,5.2,0,0,0,3.13.94,3.67,3.67,0,0,0,2.31-.68,2.47,2.47,0,0,0,.87-2.09v-.88a3.77,3.77,0,0,1-3.27,1.58,4,4,0,0,1-3.08-1.3,4.63,4.63,0,0,1-1.19-3.25,4.69,4.69,0,0,1,1.22-3.3,4,4,0,0,1,3.1-1.31,3.66,3.66,0,0,1,3.22,1.6v-1.39h2ZM766,561.47a2.94,2.94,0,0,0,.75-2.06,2.88,2.88,0,0,0-.73-2,2.59,2.59,0,0,0-2-.81,2.48,2.48,0,0,0-2,.81,3,3,0,0,0-.69,2,3,3,0,0,0,.7,2.06,2.46,2.46,0,0,0,2,.82A2.57,2.57,0,0,0,766,561.47Z"/><path class="cls-5" d="M773.3,564.5h-2v-9.45h2v1.39a3.72,3.72,0,0,1,3.1-1.6,3.06,3.06,0,0,1,2.39.94,3.65,3.65,0,0,1,.87,2.57v6.15h-2v-5.7c0-1.43-.63-2.15-1.88-2.15a2.45,2.45,0,0,0-1.79.71,2.48,2.48,0,0,0-.71,1.85Z"/><path class="cls-5" d="M784.16,553.52h-2v-1.87h2Zm0,11h-2v-9.45h2Z"/><path class="cls-5" d="M788.76,564.5h-2v-9.45h2v1.39a3.72,3.72,0,0,1,3.1-1.6,3.06,3.06,0,0,1,2.39.94,3.65,3.65,0,0,1,.87,2.57v6.15h-2v-5.7c0-1.43-.63-2.15-1.87-2.15a2.45,2.45,0,0,0-2.51,2.56Z"/><rect class="cls-8" x="114" y="629" width="221.5" height="36.5" rx="4.85"/><path class="cls-5" d="M166.18,653.5h-2.52L158,644.21v9.29h-2v-12h2.66l5.49,9.07v-9.07h2Z"/><path class="cls-5" d="M177.75,648.59a4.88,4.88,0,0,1,0,.68h-7.2a2.73,2.73,0,0,0,.85,2,2.94,2.94,0,0,0,2,.71,3.59,3.59,0,0,0,2.74-1.19l1.29,1.24a5.4,5.4,0,0,1-4.1,1.71,4.82,4.82,0,0,1-3.64-1.37,4.91,4.91,0,0,1-1.31-3.53,5.09,5.09,0,0,1,1.29-3.57,4.46,4.46,0,0,1,3.46-1.41,4.37,4.37,0,0,1,3.36,1.33A4.82,4.82,0,0,1,177.75,648.59Zm-7.2-.76h5.2a2.51,2.51,0,0,0-.82-1.77,2.6,2.6,0,0,0-1.77-.62,2.53,2.53,0,0,0-1.82.67A2.57,2.57,0,0,0,170.55,647.83Z"/><path class="cls-5" d="M188.55,653.41a2.67,2.67,0,0,1-1.22.24,2.19,2.19,0,0,1-1.23-.35,1.58,1.58,0,0,1-.66-1.06,3.58,3.58,0,0,1-3.15,1.48,3.47,3.47,0,0,1-2.36-.77,2.72,2.72,0,0,1-.88-2.15,2.8,2.8,0,0,1,.24-1.18,2.36,2.36,0,0,1,.58-.8,2.7,2.7,0,0,1,.88-.48,6.05,6.05,0,0,1,1-.27l1-.15c.43,0,.75-.09,1-.12s.45-.1.71-.17a1,1,0,0,0,.55-.35.9.9,0,0,0,.16-.55.94.94,0,0,0-.57-.92,3,3,0,0,0-1.36-.28,5,5,0,0,0-2.95,1l-.79-1.49a7,7,0,0,1,3.89-1.15,4.54,4.54,0,0,1,2.78.76,2.8,2.8,0,0,1,1,2.4v4.31c0,.57.22.86.66.86a.85.85,0,0,0,.52-.13Zm-3.4-3.49v-1.44a2.57,2.57,0,0,1-.33.33,1.31,1.31,0,0,1-.46.22l-.44.12-.57.1-.56.08a3,3,0,0,0-1.3.45,1.1,1.1,0,0,0-.45,1,1.22,1.22,0,0,0,.48,1.05,2.1,2.1,0,0,0,1.25.35,2.54,2.54,0,0,0,1.69-.57A2,2,0,0,0,185.15,649.92Z"/><path class="cls-5" d="M196,644.2l-.57,1.94a2.3,2.3,0,0,0-1.08-.29,2,2,0,0,0-1.61.78,3.06,3.06,0,0,0-.66,2.07v4.8h-2v-9.45h2v1.53a3.13,3.13,0,0,1,2.66-1.71A2.18,2.18,0,0,1,196,644.2Z"/><path class="cls-5" d="M197.39,640.65h2v4.79a3.82,3.82,0,0,1,3.2-1.6,3.89,3.89,0,0,1,3.14,1.39,5.9,5.9,0,0,1,0,7.08,3.87,3.87,0,0,1-3.14,1.41,3.82,3.82,0,0,1-3.2-1.6v1.38h-2Zm2,8.14a3.44,3.44,0,0,0,.72,2.26,2.48,2.48,0,0,0,2,.89,2.34,2.34,0,0,0,2-.89,3.54,3.54,0,0,0,.69-2.26,3.63,3.63,0,0,0-.69-2.27,2.32,2.32,0,0,0-2-.9,2.45,2.45,0,0,0-2,.9A3.47,3.47,0,0,0,199.37,648.79Z"/><path class="cls-5" d="M217.17,644.05l-3.74,9.83a6,6,0,0,1-1.34,2.24,2.85,2.85,0,0,1-2,.69,3.61,3.61,0,0,1-2.14-.64l.81-1.41a1.82,1.82,0,0,0,1.11.38,1.2,1.2,0,0,0,.87-.31,3.73,3.73,0,0,0,.63-.93l.25-.52-4-9.33h2.29l2.7,6.83,2.41-6.83Z"/><path class="cls-5" d="M228.92,641.3a5.46,5.46,0,0,1,4.88,2.57l-1.73,1a3.43,3.43,0,0,0-3.16-1.75,3.38,3.38,0,0,0-2.74,1.19,5.49,5.49,0,0,0,0,6.32,3.45,3.45,0,0,0,2.77,1.17,3.7,3.7,0,0,0,2.38-.77,3,3,0,0,0,1.08-2.1H229.1v-1.83h5.39a4.64,4.64,0,0,1,.09,1,5.6,5.6,0,0,1-1.52,4,5.39,5.39,0,0,1-4.14,1.6,5.64,5.64,0,0,1-4.31-1.74,6.32,6.32,0,0,1-1.63-4.49,6.25,6.25,0,0,1,1.63-4.48A5.69,5.69,0,0,1,228.92,641.3Z"/><path class="cls-5" d="M245.34,653.41a2.67,2.67,0,0,1-1.22.24,2.19,2.19,0,0,1-1.23-.35,1.58,1.58,0,0,1-.66-1.06,3.58,3.58,0,0,1-3.15,1.48,3.47,3.47,0,0,1-2.36-.77,2.72,2.72,0,0,1-.88-2.15,2.8,2.8,0,0,1,.24-1.18,2.49,2.49,0,0,1,.57-.8,2.87,2.87,0,0,1,.89-.48,6.05,6.05,0,0,1,1-.27l1-.15c.43,0,.75-.09,1-.12s.45-.1.71-.17a1,1,0,0,0,.55-.35.9.9,0,0,0,.16-.55.94.94,0,0,0-.57-.92,3,3,0,0,0-1.36-.28,5,5,0,0,0-3,1l-.79-1.49a7,7,0,0,1,3.89-1.15,4.54,4.54,0,0,1,2.78.76,2.8,2.8,0,0,1,1,2.4v4.31c0,.57.22.86.66.86a.85.85,0,0,0,.52-.13Zm-3.4-3.49v-1.44a2.1,2.1,0,0,1-.34.33,1.18,1.18,0,0,1-.45.22l-.44.12-.57.1-.56.08a3.12,3.12,0,0,0-1.31.45,1.12,1.12,0,0,0-.44,1,1.22,1.22,0,0,0,.48,1.05,2.1,2.1,0,0,0,1.25.35,2.54,2.54,0,0,0,1.69-.57A2,2,0,0,0,241.94,649.92Z"/><path class="cls-5" d="M252.77,644.2l-.57,1.94a2.3,2.3,0,0,0-1.08-.29,2,2,0,0,0-1.61.78,3.06,3.06,0,0,0-.66,2.07v4.8h-2v-9.45h2v1.53a3.13,3.13,0,0,1,2.66-1.71A2.18,2.18,0,0,1,252.77,644.2Z"/><path class="cls-5" d="M263,653.5h-2v-1.38a3.75,3.75,0,0,1-3.18,1.6,3.92,3.92,0,0,1-3.16-1.4,5.91,5.91,0,0,1,0-7.09,3.92,3.92,0,0,1,3.16-1.39,3.75,3.75,0,0,1,3.18,1.6v-4.79h2Zm-2-4.71a3.45,3.45,0,0,0-.73-2.28,2.47,2.47,0,0,0-2-.89,2.37,2.37,0,0,0-2,.89,3.6,3.6,0,0,0-.68,2.28,3.54,3.54,0,0,0,.68,2.26,2.37,2.37,0,0,0,2,.89,2.46,2.46,0,0,0,2-.89A3.5,3.5,0,0,0,261,648.79Z"/><path class="cls-5" d="M274.35,648.59c0,.24,0,.47,0,.68h-7.2a2.73,2.73,0,0,0,.85,2,2.9,2.9,0,0,0,2,.71,3.57,3.57,0,0,0,2.73-1.19l1.3,1.24a5.42,5.42,0,0,1-4.11,1.71,4.82,4.82,0,0,1-3.63-1.37,4.87,4.87,0,0,1-1.32-3.53,5.09,5.09,0,0,1,1.29-3.57,4.46,4.46,0,0,1,3.47-1.41,4.36,4.36,0,0,1,3.35,1.33A4.78,4.78,0,0,1,274.35,648.59Zm-7.2-.76h5.21a2.6,2.6,0,0,0-.82-1.77,2.63,2.63,0,0,0-1.77-.62,2.49,2.49,0,0,0-1.82.67A2.58,2.58,0,0,0,267.15,647.83Z"/><path class="cls-5" d="M278.31,653.5h-2v-9.45h2v1.39a3.72,3.72,0,0,1,3.1-1.6,3.1,3.1,0,0,1,2.4.94,3.7,3.7,0,0,1,.86,2.57v6.15h-2v-5.7c0-1.43-.63-2.15-1.87-2.15a2.45,2.45,0,0,0-2.51,2.56Z"/><path class="cls-5" d="M294.78,650.62a2.7,2.7,0,0,1-1.08,2.25,4.62,4.62,0,0,1-2.95.85,4.85,4.85,0,0,1-4.39-2.13l1.4-1a3.58,3.58,0,0,0,3.1,1.49,2.78,2.78,0,0,0,1.43-.32,1,1,0,0,0,.53-.94.84.84,0,0,0-.53-.84,8.44,8.44,0,0,0-1.86-.46,7,7,0,0,1-2.65-.91,2.14,2.14,0,0,1-.92-1.93,2.41,2.41,0,0,1,1.07-2.13,4.51,4.51,0,0,1,2.64-.73,5.32,5.32,0,0,1,4.07,1.65l-1.26,1.15a3.58,3.58,0,0,0-2.83-1.18,2.68,2.68,0,0,0-1.25.27.85.85,0,0,0-.51.79.8.8,0,0,0,.54.79,7.68,7.68,0,0,0,1.71.43c.46.09.85.17,1.17.26a6.67,6.67,0,0,1,1,.34,2.61,2.61,0,0,1,.84.51,2.44,2.44,0,0,1,.52.75A2.38,2.38,0,0,1,294.78,650.62Z"/><rect class="cls-8" x="114" y="277" width="221.5" height="36.5" rx="4.85"/><path class="cls-5" d="M151.62,289.3a5.46,5.46,0,0,1,4.88,2.57l-1.73,1.05a3.43,3.43,0,0,0-3.16-1.75,3.38,3.38,0,0,0-2.74,1.19,5.49,5.49,0,0,0,0,6.32,3.45,3.45,0,0,0,2.77,1.17,3.7,3.7,0,0,0,2.38-.77,3,3,0,0,0,1.08-2.1H151.8v-1.83h5.39a4.64,4.64,0,0,1,.09,1,5.6,5.6,0,0,1-1.52,4,5.39,5.39,0,0,1-4.14,1.6,5.64,5.64,0,0,1-4.31-1.74,6.32,6.32,0,0,1-1.63-4.49,6.25,6.25,0,0,1,1.63-4.48A5.69,5.69,0,0,1,151.62,289.3Z"/><path class="cls-5" d="M168,301.41a2.67,2.67,0,0,1-1.22.24,2.19,2.19,0,0,1-1.23-.35,1.58,1.58,0,0,1-.66-1.06,3.58,3.58,0,0,1-3.15,1.48,3.47,3.47,0,0,1-2.36-.77,2.72,2.72,0,0,1-.88-2.15,2.8,2.8,0,0,1,.24-1.18,2.49,2.49,0,0,1,.57-.8,2.87,2.87,0,0,1,.89-.48,6.05,6.05,0,0,1,1-.27l1-.15c.43,0,.75-.09,1-.12s.45-.1.71-.17a1,1,0,0,0,.55-.35.9.9,0,0,0,.16-.55.94.94,0,0,0-.57-.92,3,3,0,0,0-1.36-.28,5,5,0,0,0-2.95,1L159,293a7,7,0,0,1,3.89-1.15,4.54,4.54,0,0,1,2.78.76,2.8,2.8,0,0,1,1,2.4v4.31c0,.57.22.86.66.86a.85.85,0,0,0,.52-.13Zm-3.4-3.49v-1.44a2.57,2.57,0,0,1-.33.33,1.31,1.31,0,0,1-.46.22l-.44.12-.57.1-.56.08a3,3,0,0,0-1.3.45,1.1,1.1,0,0,0-.45,1,1.22,1.22,0,0,0,.48,1.05,2.1,2.1,0,0,0,1.25.35,2.54,2.54,0,0,0,1.69-.57A2,2,0,0,0,164.64,297.92Z"/><path class="cls-5" d="M175.47,292.2l-.57,1.94a2.3,2.3,0,0,0-1.08-.29,2,2,0,0,0-1.61.78,3.06,3.06,0,0,0-.66,2.07v4.8h-2v-9.45h2v1.53a3.13,3.13,0,0,1,2.66-1.71A2.18,2.18,0,0,1,175.47,292.2Z"/><path class="cls-5" d="M185.66,301.5h-2v-1.38a3.75,3.75,0,0,1-3.18,1.6,3.92,3.92,0,0,1-3.16-1.4,5.91,5.91,0,0,1,0-7.09,3.92,3.92,0,0,1,3.16-1.39,3.75,3.75,0,0,1,3.18,1.6v-4.79h2Zm-2-4.71a3.45,3.45,0,0,0-.73-2.28,2.47,2.47,0,0,0-2-.89,2.37,2.37,0,0,0-2,.89,3.6,3.6,0,0,0-.68,2.28,3.54,3.54,0,0,0,.68,2.26,2.37,2.37,0,0,0,2,.89,2.46,2.46,0,0,0,2-.89A3.5,3.5,0,0,0,183.66,296.79Z"/><path class="cls-5" d="M197.06,296.59c0,.24,0,.47,0,.68h-7.2a2.73,2.73,0,0,0,.85,2,2.9,2.9,0,0,0,2.05.71,3.57,3.57,0,0,0,2.73-1.19l1.3,1.24a5.41,5.41,0,0,1-4.1,1.71,4.63,4.63,0,0,1-5-4.9,5.09,5.09,0,0,1,1.29-3.57,4.46,4.46,0,0,1,3.47-1.41,4.36,4.36,0,0,1,3.35,1.33A4.78,4.78,0,0,1,197.06,296.59Zm-7.21-.76h5.21a2.6,2.6,0,0,0-.82-1.77,2.63,2.63,0,0,0-1.77-.62,2.49,2.49,0,0,0-1.82.67A2.58,2.58,0,0,0,189.85,295.83Z"/><path class="cls-5" d="M201,301.5h-2v-9.45h2v1.39a3.69,3.69,0,0,1,3.09-1.6,3.1,3.1,0,0,1,2.4.94,3.7,3.7,0,0,1,.86,2.57v6.15h-2v-5.7c0-1.43-.62-2.15-1.87-2.15a2.43,2.43,0,0,0-2.5,2.56Z"/><path class="cls-5" d="M227.91,301.5h-2.06v-9.77l-3.56,9.77h-1.76L217,291.75v9.75h-2v-12H218l3.42,9.36,3.42-9.36h3Z"/><path class="cls-5" d="M232.69,290.52h-2v-1.87h2Zm0,11h-2v-9.45h2Z"/><path class="cls-5" d="M237.3,301.5h-2v-9.45h2v1.39a3.72,3.72,0,0,1,3.1-1.6,3.06,3.06,0,0,1,2.39.94,3.65,3.65,0,0,1,.87,2.57v6.15h-2v-5.7c0-1.43-.63-2.15-1.88-2.15a2.45,2.45,0,0,0-1.79.71,2.48,2.48,0,0,0-.71,1.85Z"/><path class="cls-5" d="M248.16,290.52h-2v-1.87h2Zm0,11h-2v-9.45h2Z"/><path class="cls-5" d="M261,289.3a5.46,5.46,0,0,1,4.88,2.57l-1.73,1.05a3.43,3.43,0,0,0-3.16-1.75,3.38,3.38,0,0,0-2.74,1.19,5.49,5.49,0,0,0,0,6.32,3.45,3.45,0,0,0,2.77,1.17,3.7,3.7,0,0,0,2.38-.77,3,3,0,0,0,1.08-2.1h-3.32v-1.83h5.39a4.64,4.64,0,0,1,.09,1,5.6,5.6,0,0,1-1.52,4,5.39,5.39,0,0,1-4.14,1.6,5.64,5.64,0,0,1-4.31-1.74,6.32,6.32,0,0,1-1.63-4.49,6.25,6.25,0,0,1,1.63-4.48A5.69,5.69,0,0,1,261,289.3Z"/><path class="cls-5" d="M277.46,301.41a2.67,2.67,0,0,1-1.22.24,2.19,2.19,0,0,1-1.23-.35,1.58,1.58,0,0,1-.66-1.06,3.58,3.58,0,0,1-3.15,1.48,3.47,3.47,0,0,1-2.36-.77,2.72,2.72,0,0,1-.88-2.15,2.8,2.8,0,0,1,.24-1.18,2.49,2.49,0,0,1,.57-.8,2.87,2.87,0,0,1,.89-.48,6.05,6.05,0,0,1,1-.27l1-.15c.43,0,.75-.09,1-.12s.45-.1.71-.17a1,1,0,0,0,.55-.35.9.9,0,0,0,.16-.55.94.94,0,0,0-.57-.92,3,3,0,0,0-1.36-.28,5,5,0,0,0-2.95,1l-.79-1.49a7,7,0,0,1,3.89-1.15,4.54,4.54,0,0,1,2.78.76,2.8,2.8,0,0,1,1,2.4v4.31c0,.57.22.86.66.86a.85.85,0,0,0,.52-.13Zm-3.4-3.49v-1.44a2.57,2.57,0,0,1-.33.33,1.31,1.31,0,0,1-.46.22l-.44.12-.57.1-.56.08a3,3,0,0,0-1.3.45,1.1,1.1,0,0,0-.45,1,1.22,1.22,0,0,0,.48,1.05,2.1,2.1,0,0,0,1.25.35,2.54,2.54,0,0,0,1.69-.57A2,2,0,0,0,274.06,297.92Z"/><path class="cls-5" d="M281,301.5h-2v-9.45h2v1.35a3.55,3.55,0,0,1,2.95-1.56,2.64,2.64,0,0,1,2.76,1.8,3.88,3.88,0,0,1,3.29-1.8,3,3,0,0,1,2.35.92,3.72,3.72,0,0,1,.82,2.53v6.21h-2v-5.74c0-1.4-.6-2.11-1.78-2.11a2.21,2.21,0,0,0-1.67.7,2.53,2.53,0,0,0-.66,1.82v5.33h-2v-5.74c0-1.4-.59-2.11-1.78-2.11a2.18,2.18,0,0,0-1.66.69,2.52,2.52,0,0,0-.66,1.83Z"/><path class="cls-5" d="M304.42,296.59c0,.24,0,.47,0,.68h-7.2a2.72,2.72,0,0,0,.84,2,3,3,0,0,0,2.06.71,3.57,3.57,0,0,0,2.73-1.19l1.3,1.24a5.42,5.42,0,0,1-4.11,1.71,4.8,4.8,0,0,1-3.63-1.37,4.87,4.87,0,0,1-1.32-3.53,5.09,5.09,0,0,1,1.29-3.57,4.46,4.46,0,0,1,3.46-1.41,4.37,4.37,0,0,1,3.36,1.33A4.78,4.78,0,0,1,304.42,296.59Zm-7.2-.76h5.21a2.6,2.6,0,0,0-.82-1.77,2.64,2.64,0,0,0-1.78-.62,2.49,2.49,0,0,0-1.81.67A2.58,2.58,0,0,0,297.22,295.83Z"/><rect class="cls-8" x="360" y="437" width="221.5" height="36.5" rx="4.85"/><path class="cls-5" d="M413.66,449.3a5.41,5.41,0,0,1,4.7,2.23l-1.59,1.06a3.72,3.72,0,0,0-3.18-1.51,3,3,0,0,0-1.58.38,1.27,1.27,0,0,0-.6,1.15,1.18,1.18,0,0,0,.15.59,1.6,1.6,0,0,0,.35.41,2.09,2.09,0,0,0,.62.3c.28.09.52.17.69.21s.46.12.85.2a14.76,14.76,0,0,1,1.73.44,7.4,7.4,0,0,1,1.39.63,2.6,2.6,0,0,1,1,1,3.09,3.09,0,0,1,.34,1.51,3.34,3.34,0,0,1-1.27,2.73,5.31,5.31,0,0,1-3.46,1.05,6.51,6.51,0,0,1-3.08-.71,5,5,0,0,1-2-2l1.69-1a3.86,3.86,0,0,0,3.55,1.88,3.15,3.15,0,0,0,1.81-.47,1.49,1.49,0,0,0,.69-1.3,1.23,1.23,0,0,0-.17-.65,1.93,1.93,0,0,0-.37-.45,2.5,2.5,0,0,0-.69-.32,6.77,6.77,0,0,0-.79-.22l-1-.21c-.49-.1-.91-.2-1.27-.31a6.9,6.9,0,0,1-1.12-.45,3.6,3.6,0,0,1-.94-.64,2.56,2.56,0,0,1-.59-.9,3,3,0,0,1-.23-1.23,3.08,3.08,0,0,1,1.2-2.56A5,5,0,0,1,413.66,449.3Z"/><path class="cls-5" d="M425.69,459.54l.79,1.48a3.68,3.68,0,0,1-2.25.7,2.78,2.78,0,0,1-2.56-1.21,3.58,3.58,0,0,1-.45-2v-4.95h-1.58v-1.53h1.58v-2.53h2v2.53h2.92v1.53h-2.92v5c0,.94.43,1.41,1.28,1.41A1.86,1.86,0,0,0,425.69,459.54Z"/><path class="cls-5" d="M436.81,456.59a4.88,4.88,0,0,1,0,.68h-7.2a2.73,2.73,0,0,0,.85,2,2.94,2.94,0,0,0,2.05.71,3.59,3.59,0,0,0,2.74-1.19L436.5,460a5.4,5.4,0,0,1-4.1,1.71,4.82,4.82,0,0,1-3.64-1.37,4.91,4.91,0,0,1-1.31-3.53,5.09,5.09,0,0,1,1.29-3.57,4.93,4.93,0,0,1,6.82-.08A4.82,4.82,0,0,1,436.81,456.59Zm-7.2-.76h5.2a2.51,2.51,0,0,0-.82-1.77,2.6,2.6,0,0,0-1.77-.62,2.53,2.53,0,0,0-1.82.67A2.57,2.57,0,0,0,429.61,455.83Z"/><path class="cls-5" d="M438.79,452.05h2v1.39a4.1,4.1,0,0,1,6.34-.2,5.89,5.89,0,0,1,0,7.07,4.1,4.1,0,0,1-6.34-.18v4.5h-2Zm2.71,2.47a3.88,3.88,0,0,0,0,4.53,2.47,2.47,0,0,0,2,.89,2.34,2.34,0,0,0,2-.89,4.08,4.08,0,0,0,0-4.54,2.34,2.34,0,0,0-2-.89A2.45,2.45,0,0,0,441.5,454.52Z"/><path class="cls-5" d="M457.92,458.62a2.7,2.7,0,0,1-1.08,2.25,4.62,4.62,0,0,1-2.95.85,4.85,4.85,0,0,1-4.39-2.13l1.4-1a3.58,3.58,0,0,0,3.1,1.49,2.78,2.78,0,0,0,1.43-.32,1,1,0,0,0,.53-.94.85.85,0,0,0-.53-.84,8.44,8.44,0,0,0-1.86-.46,7,7,0,0,1-2.65-.91,2.14,2.14,0,0,1-.92-1.93,2.42,2.42,0,0,1,1.06-2.13,4.55,4.55,0,0,1,2.65-.73,5.32,5.32,0,0,1,4.07,1.65l-1.26,1.15a3.58,3.58,0,0,0-2.83-1.18,2.65,2.65,0,0,0-1.25.27.85.85,0,0,0-.51.79.8.8,0,0,0,.54.79,7.68,7.68,0,0,0,1.71.43c.46.09.84.17,1.17.26a6.67,6.67,0,0,1,1,.34,2.55,2.55,0,0,1,.83.51,2.47,2.47,0,0,1,.53.75A2.54,2.54,0,0,1,457.92,458.62Z"/><path class="cls-5" d="M475.06,451.91,473.4,453a3.55,3.55,0,0,0-3.2-1.8,3.42,3.42,0,0,0-2.72,1.19,4.61,4.61,0,0,0-1,3.11,4.73,4.73,0,0,0,1,3.17,3.35,3.35,0,0,0,2.71,1.21,3.59,3.59,0,0,0,3.21-1.89l1.74,1a5.47,5.47,0,0,1-5,2.76A5.58,5.58,0,0,1,465.9,460a6.28,6.28,0,0,1-1.64-4.49,6.21,6.21,0,0,1,1.63-4.45,6,6,0,0,1,9.17.87Z"/><path class="cls-5" d="M485.88,456.79a5,5,0,0,1-1.31,3.55,5.08,5.08,0,0,1-7,0,5.51,5.51,0,0,1,0-7.13,5.1,5.1,0,0,1,7,0A5,5,0,0,1,485.88,456.79Zm-2.13,0a3.62,3.62,0,0,0-.71-2.33,2.37,2.37,0,0,0-2-.9,2.4,2.4,0,0,0-2,.9,3.62,3.62,0,0,0-.72,2.33,3.57,3.57,0,0,0,.72,2.3,2.37,2.37,0,0,0,2,.9,2.34,2.34,0,0,0,2-.9A3.57,3.57,0,0,0,483.75,456.79Z"/><path class="cls-5" d="M494.16,452.05h2v9.45h-2v-1.37a3.76,3.76,0,0,1-3.1,1.59,3.07,3.07,0,0,1-2.39-1,3.63,3.63,0,0,1-.87-2.56v-6.16h2v5.71c0,1.43.63,2.14,1.87,2.14a2.43,2.43,0,0,0,1.79-.7,2.49,2.49,0,0,0,.72-1.86Z"/><path class="cls-5" d="M500.74,461.5h-2v-9.45h2v1.39a3.72,3.72,0,0,1,3.1-1.6,3.06,3.06,0,0,1,2.39.94,3.65,3.65,0,0,1,.87,2.57v6.15h-2v-5.7c0-1.43-.63-2.15-1.87-2.15a2.43,2.43,0,0,0-2.51,2.56Z"/><path class="cls-5" d="M514.68,459.54l.79,1.48a3.68,3.68,0,0,1-2.25.7,2.78,2.78,0,0,1-2.56-1.21,3.58,3.58,0,0,1-.45-2v-4.95h-1.58v-1.53h1.58v-2.53h2v2.53h2.92v1.53h-2.92v5c0,.94.43,1.41,1.28,1.41A1.86,1.86,0,0,0,514.68,459.54Z"/><path class="cls-5" d="M525.8,456.59a4.88,4.88,0,0,1,0,.68h-7.2a2.73,2.73,0,0,0,.85,2,2.94,2.94,0,0,0,2.05.71,3.59,3.59,0,0,0,2.74-1.19l1.29,1.24a5.4,5.4,0,0,1-4.1,1.71,4.82,4.82,0,0,1-3.64-1.37,4.91,4.91,0,0,1-1.31-3.53,5.09,5.09,0,0,1,1.29-3.57,4.44,4.44,0,0,1,3.46-1.41,4.38,4.38,0,0,1,3.36,1.33A4.82,4.82,0,0,1,525.8,456.59Zm-7.2-.76h5.2a2.51,2.51,0,0,0-.82-1.77,2.6,2.6,0,0,0-1.77-.62,2.53,2.53,0,0,0-1.82.67A2.57,2.57,0,0,0,518.6,455.83Z"/><path class="cls-5" d="M533.68,452.2l-.57,1.94a2.3,2.3,0,0,0-1.08-.29,2,2,0,0,0-1.61.78,3.06,3.06,0,0,0-.66,2.07v4.8h-2v-9.45h2v1.53a3.13,3.13,0,0,1,2.66-1.71A2.18,2.18,0,0,1,533.68,452.2Z"/><rect class="cls-8" x="493" y="269" width="221.5" height="36.5" rx="4.85"/><path class="cls-5" d="M546.84,293.5h-2.05v-9.77l-3.56,9.77h-1.77l-3.54-9.75v9.75h-2.06v-12H537l3.42,9.36,3.42-9.36h3Z"/><path class="cls-5" d="M558.42,288.59c0,.24,0,.47,0,.68h-7.2a2.73,2.73,0,0,0,.85,2,2.92,2.92,0,0,0,2.05.71,3.57,3.57,0,0,0,2.73-1.19l1.3,1.24a5.41,5.41,0,0,1-4.1,1.71,4.61,4.61,0,0,1-5-4.9,5.08,5.08,0,0,1,1.28-3.57,4.46,4.46,0,0,1,3.47-1.41,4.36,4.36,0,0,1,3.35,1.33A4.78,4.78,0,0,1,558.42,288.59Zm-7.2-.76h5.2a2.55,2.55,0,0,0-.82-1.77,2.63,2.63,0,0,0-1.77-.62,2.5,2.5,0,0,0-2.61,2.39Z"/><path class="cls-5" d="M569.32,293.5h-2v-1.38a3.78,3.78,0,0,1-3.19,1.6,3.94,3.94,0,0,1-3.16-1.4,5.91,5.91,0,0,1,0-7.09,3.93,3.93,0,0,1,3.16-1.39,3.78,3.78,0,0,1,3.19,1.6v-4.79h2Zm-2-4.71a3.5,3.5,0,0,0-.73-2.28,2.49,2.49,0,0,0-2-.89,2.37,2.37,0,0,0-2,.89,3.66,3.66,0,0,0-.68,2.28,3.6,3.6,0,0,0,.68,2.26,2.37,2.37,0,0,0,2,.89,2.48,2.48,0,0,0,2-.89A3.5,3.5,0,0,0,567.33,288.79Z"/><path class="cls-5" d="M573.93,282.52h-2v-1.87h2Zm0,11h-2v-9.45h2Z"/><path class="cls-5" d="M583.09,290.61l1.5,1a4.81,4.81,0,0,1-7.36.69,5.55,5.55,0,0,1,0-7.09,4.75,4.75,0,0,1,7.3.71L583,287a2.53,2.53,0,0,0-2.32-1.42,2.37,2.37,0,0,0-2,.9,4,4,0,0,0,0,4.59,2.4,2.4,0,0,0,2,.9A2.71,2.71,0,0,0,583.09,290.61Z"/><path class="cls-5" d="M595.23,293.41a2.72,2.72,0,0,1-1.23.24,2.16,2.16,0,0,1-1.22-.35,1.63,1.63,0,0,1-.67-1.06,3.55,3.55,0,0,1-3.15,1.48,3.49,3.49,0,0,1-2.36-.77,2.75,2.75,0,0,1-.88-2.15,2.8,2.8,0,0,1,.24-1.18,2.67,2.67,0,0,1,.58-.8,2.81,2.81,0,0,1,.88-.48,6.35,6.35,0,0,1,1-.27l1-.15c.43,0,.76-.09,1-.12s.46-.1.71-.17a1,1,0,0,0,.55-.35.9.9,0,0,0,.17-.55.94.94,0,0,0-.57-.92,3,3,0,0,0-1.36-.28,5,5,0,0,0-3,1l-.79-1.49a7,7,0,0,1,3.88-1.15,4.5,4.5,0,0,1,2.78.76,2.8,2.8,0,0,1,1,2.4v4.31c0,.57.22.86.67.86A.85.85,0,0,0,595,292Zm-3.41-3.49v-1.44a2.06,2.06,0,0,1-.33.33,1.23,1.23,0,0,1-.46.22l-.43.12-.58.1-.55.08a3.07,3.07,0,0,0-1.31.45,1.12,1.12,0,0,0-.44,1,1.22,1.22,0,0,0,.48,1.05,2.06,2.06,0,0,0,1.25.35,2.56,2.56,0,0,0,1.69-.57A2,2,0,0,0,591.82,289.92Z"/><path class="cls-5" d="M601.7,291.54l.8,1.48a3.68,3.68,0,0,1-2.25.7,2.77,2.77,0,0,1-2.56-1.21,3.58,3.58,0,0,1-.45-2v-4.95h-1.58v-1.53h1.58v-2.53h2v2.53h2.91v1.53h-2.91v5c0,.94.42,1.41,1.28,1.41A1.81,1.81,0,0,0,601.7,291.54Z"/><path class="cls-5" d="M606,282.52h-2v-1.87h2Zm0,11h-2v-9.45h2Z"/><path class="cls-5" d="M617.65,288.79a5,5,0,0,1-1.3,3.55,5.09,5.09,0,0,1-7,0,5.54,5.54,0,0,1,0-7.13,5.12,5.12,0,0,1,7,0A5,5,0,0,1,617.65,288.79Zm-2.12,0a3.68,3.68,0,0,0-.71-2.33,2.58,2.58,0,0,0-3.92,0,3.62,3.62,0,0,0-.72,2.33,3.57,3.57,0,0,0,.72,2.3,2.58,2.58,0,0,0,3.92,0A3.63,3.63,0,0,0,615.53,288.79Z"/><path class="cls-5" d="M621.67,293.5h-2v-9.45h2v1.39a3.69,3.69,0,0,1,3.09-1.6,3.1,3.1,0,0,1,2.4.94,3.7,3.7,0,0,1,.86,2.57v6.15h-2v-5.7c0-1.43-.62-2.15-1.87-2.15a2.43,2.43,0,0,0-2.5,2.56Z"/><path class="cls-5" d="M638.14,290.62a2.7,2.7,0,0,1-1.08,2.25,4.65,4.65,0,0,1-3,.85,4.87,4.87,0,0,1-4.39-2.13l1.41-1a3.56,3.56,0,0,0,3.09,1.49,2.78,2.78,0,0,0,1.43-.32,1,1,0,0,0,.53-.94.84.84,0,0,0-.53-.84,8.44,8.44,0,0,0-1.86-.46,7,7,0,0,1-2.65-.91,2.13,2.13,0,0,1-.91-1.93,2.4,2.4,0,0,1,1.06-2.13,4.54,4.54,0,0,1,2.64-.73,5.32,5.32,0,0,1,4.07,1.65l-1.26,1.15a3.56,3.56,0,0,0-2.82-1.18,2.7,2.7,0,0,0-1.26.27.85.85,0,0,0-.51.79.8.8,0,0,0,.54.79,7.68,7.68,0,0,0,1.71.43c.46.09.85.17,1.17.26a6.32,6.32,0,0,1,1,.34,2.61,2.61,0,0,1,.84.51,2.44,2.44,0,0,1,.52.75A2.38,2.38,0,0,1,638.14,290.62Z"/><path class="cls-5" d="M653.72,293.5h-8.53v-12h2.09v10.07h6.44Z"/><path class="cls-5" d="M657.29,282.52h-2v-1.87h2Zm0,11h-2v-9.45h2Z"/><path class="cls-5" d="M667.51,290.62a2.7,2.7,0,0,1-1.08,2.25,4.62,4.62,0,0,1-2.95.85,4.85,4.85,0,0,1-4.39-2.13l1.4-1a3.58,3.58,0,0,0,3.1,1.49,2.8,2.8,0,0,0,1.43-.32,1,1,0,0,0,.53-.94A.85.85,0,0,0,665,290a8.77,8.77,0,0,0-1.86-.46,6.91,6.91,0,0,1-2.65-.91,2.14,2.14,0,0,1-.92-1.93,2.42,2.42,0,0,1,1.06-2.13,4.55,4.55,0,0,1,2.65-.73,5.32,5.32,0,0,1,4.07,1.65l-1.26,1.15a3.58,3.58,0,0,0-2.83-1.18,2.65,2.65,0,0,0-1.25.27.85.85,0,0,0-.51.79.8.8,0,0,0,.54.79,7.68,7.68,0,0,0,1.71.43c.45.09.84.17,1.17.26a6.67,6.67,0,0,1,1,.34,2.67,2.67,0,0,1,.83.51,2.47,2.47,0,0,1,.53.75A2.54,2.54,0,0,1,667.51,290.62Z"/><path class="cls-5" d="M674.59,291.54l.79,1.48a3.64,3.64,0,0,1-2.25.7,2.78,2.78,0,0,1-2.56-1.21,3.58,3.58,0,0,1-.45-2v-4.95h-1.58v-1.53h1.58v-2.53h2v2.53H675v1.53h-2.92v5c0,.94.43,1.41,1.28,1.41A1.86,1.86,0,0,0,674.59,291.54Z"/><rect class="cls-8" x="780" y="151" width="242.5" height="36.5" rx="5.08"/><path class="cls-5" d="M806,175.5h-2v-9.77l-3.57,9.77h-1.76l-3.55-9.75v9.75H793v-12h3.1l3.42,9.36,3.42-9.36h3Z"/><path class="cls-5" d="M817.59,170.59c0,.24,0,.47,0,.68h-7.2a2.76,2.76,0,0,0,.84,2,3,3,0,0,0,2.06.71,3.57,3.57,0,0,0,2.73-1.19l1.3,1.24a5.42,5.42,0,0,1-4.11,1.71,4.8,4.8,0,0,1-3.63-1.37,4.87,4.87,0,0,1-1.32-3.53,5.09,5.09,0,0,1,1.29-3.57,4.46,4.46,0,0,1,3.47-1.41,4.36,4.36,0,0,1,3.35,1.33A4.78,4.78,0,0,1,817.59,170.59Zm-7.2-.76h5.21a2.6,2.6,0,0,0-.82-1.77,2.64,2.64,0,0,0-1.78-.62,2.49,2.49,0,0,0-1.81.67A2.58,2.58,0,0,0,810.39,169.83Z"/><path class="cls-5" d="M828.39,175.41a2.67,2.67,0,0,1-1.22.24,2.14,2.14,0,0,1-1.22-.35,1.63,1.63,0,0,1-.67-1.06,3.55,3.55,0,0,1-3.15,1.48,3.49,3.49,0,0,1-2.36-.77,2.72,2.72,0,0,1-.88-2.15,2.8,2.8,0,0,1,.24-1.18,2.67,2.67,0,0,1,.58-.8,2.81,2.81,0,0,1,.88-.48,6.35,6.35,0,0,1,1-.27l1-.15c.43,0,.76-.09,1-.12s.46-.1.71-.17a1,1,0,0,0,.55-.35.9.9,0,0,0,.16-.55.94.94,0,0,0-.56-.92,3,3,0,0,0-1.36-.28,5,5,0,0,0-2.95.95l-.8-1.49a7,7,0,0,1,3.89-1.15,4.5,4.5,0,0,1,2.78.76,2.8,2.8,0,0,1,1,2.4v4.31c0,.57.22.86.67.86a.87.87,0,0,0,.52-.13Zm-3.4-3.49v-1.44a2.57,2.57,0,0,1-.33.33,1.23,1.23,0,0,1-.46.22l-.43.12-.58.1-.56.08a3.07,3.07,0,0,0-1.3.45,1.1,1.1,0,0,0-.44,1,1.22,1.22,0,0,0,.48,1,2.06,2.06,0,0,0,1.25.35,2.56,2.56,0,0,0,1.69-.57A2.05,2.05,0,0,0,825,171.92Z"/><path class="cls-5" d="M837.52,172.62a2.7,2.7,0,0,1-1.08,2.25,4.62,4.62,0,0,1-3,.85,4.84,4.84,0,0,1-4.39-2.13l1.4-1a3.58,3.58,0,0,0,3.1,1.49,2.8,2.8,0,0,0,1.43-.32,1,1,0,0,0,.53-.94A.85.85,0,0,0,835,172a8.74,8.74,0,0,0-1.87-.46,6.91,6.91,0,0,1-2.64-.91,2.14,2.14,0,0,1-.92-1.93,2.4,2.4,0,0,1,1.06-2.13,4.55,4.55,0,0,1,2.65-.73,5.33,5.33,0,0,1,4.07,1.65l-1.26,1.15a3.58,3.58,0,0,0-2.83-1.18,2.65,2.65,0,0,0-1.25.27.85.85,0,0,0-.51.79.8.8,0,0,0,.54.79,7.68,7.68,0,0,0,1.71.43c.45.09.84.17,1.17.26a6.22,6.22,0,0,1,1,.34,2.61,2.61,0,0,1,.84.51,2.44,2.44,0,0,1,.52.75A2.38,2.38,0,0,1,837.52,172.62Z"/><path class="cls-5" d="M845.78,166.05h2v9.45h-2v-1.37a3.75,3.75,0,0,1-3.09,1.59,3.1,3.1,0,0,1-2.4-.95,3.67,3.67,0,0,1-.86-2.56v-6.16h2v5.71c0,1.43.62,2.14,1.87,2.14a2.43,2.43,0,0,0,1.79-.7,2.48,2.48,0,0,0,.71-1.86Z"/><path class="cls-5" d="M856.29,166.2l-.57,1.94a2.3,2.3,0,0,0-1.08-.29,2,2,0,0,0-1.61.78,3.06,3.06,0,0,0-.66,2.07v4.8h-2v-9.45h2v1.53a3.13,3.13,0,0,1,2.66-1.71A2.18,2.18,0,0,1,856.29,166.2Z"/><path class="cls-5" d="M866.32,170.59a4.88,4.88,0,0,1,0,.68h-7.2a2.73,2.73,0,0,0,.85,2A2.94,2.94,0,0,0,862,174a3.59,3.59,0,0,0,2.74-1.19L866,174a5.4,5.4,0,0,1-4.1,1.71,4.82,4.82,0,0,1-3.64-1.37,4.91,4.91,0,0,1-1.31-3.53,5.09,5.09,0,0,1,1.29-3.57,4.44,4.44,0,0,1,3.46-1.41,4.38,4.38,0,0,1,3.36,1.33A4.82,4.82,0,0,1,866.32,170.59Zm-7.2-.76h5.2a2.51,2.51,0,0,0-.82-1.77,2.6,2.6,0,0,0-1.77-.62,2.53,2.53,0,0,0-1.82.67A2.57,2.57,0,0,0,859.12,169.83Z"/><path class="cls-5" d="M870.28,175.5h-2v-9.45h2v1.35a3.55,3.55,0,0,1,3-1.56,2.64,2.64,0,0,1,2.76,1.8,3.88,3.88,0,0,1,3.29-1.8,3,3,0,0,1,2.35.92,3.72,3.72,0,0,1,.82,2.53v6.21h-2v-5.74c0-1.4-.6-2.11-1.78-2.11a2.21,2.21,0,0,0-1.67.7,2.53,2.53,0,0,0-.66,1.82v5.33h-2v-5.74c0-1.4-.59-2.11-1.78-2.11a2.18,2.18,0,0,0-1.66.69,2.52,2.52,0,0,0-.66,1.83Z"/><path class="cls-5" d="M893.73,170.59c0,.24,0,.47,0,.68h-7.2a2.76,2.76,0,0,0,.84,2,3,3,0,0,0,2.06.71,3.57,3.57,0,0,0,2.73-1.19l1.3,1.24a5.42,5.42,0,0,1-4.11,1.71,4.8,4.8,0,0,1-3.63-1.37,4.87,4.87,0,0,1-1.32-3.53,5.09,5.09,0,0,1,1.29-3.57,4.46,4.46,0,0,1,3.47-1.41,4.36,4.36,0,0,1,3.35,1.33A4.78,4.78,0,0,1,893.73,170.59Zm-7.2-.76h5.21a2.6,2.6,0,0,0-.82-1.77,2.64,2.64,0,0,0-1.78-.62,2.49,2.49,0,0,0-1.81.67A2.58,2.58,0,0,0,886.53,169.83Z"/><path class="cls-5" d="M897.69,175.5h-2v-9.45h2v1.39a3.72,3.72,0,0,1,3.1-1.6,3.06,3.06,0,0,1,2.39.94,3.65,3.65,0,0,1,.87,2.57v6.15h-2v-5.7c0-1.43-.63-2.15-1.87-2.15a2.43,2.43,0,0,0-2.51,2.56Z"/><path class="cls-5" d="M911.63,173.54l.79,1.48a3.64,3.64,0,0,1-2.25.7,2.78,2.78,0,0,1-2.56-1.21,3.58,3.58,0,0,1-.45-2v-4.95h-1.58v-1.53h1.58v-2.53h2v2.53h2.92v1.53h-2.92v5c0,.94.43,1.41,1.28,1.41A1.86,1.86,0,0,0,911.63,173.54Z"/><path class="cls-5" d="M928.92,175.5h-2.36l-2.41-4.59h-3v4.59H919v-12h5.38a4.52,4.52,0,0,1,3.08,1,3.63,3.63,0,0,1,.44,4.74,3.85,3.85,0,0,1-1.72,1.28Zm-2.48-8.24a1.78,1.78,0,0,0-.58-1.4,2.17,2.17,0,0,0-1.51-.51h-3.22v3.8h3.26a2.13,2.13,0,0,0,1.48-.51A1.79,1.79,0,0,0,926.44,167.26Z"/><path class="cls-5" d="M939.43,170.59c0,.24,0,.47,0,.68h-7.2a2.76,2.76,0,0,0,.84,2,3,3,0,0,0,2.06.71,3.57,3.57,0,0,0,2.73-1.19l1.3,1.24a5.42,5.42,0,0,1-4.11,1.71,4.8,4.8,0,0,1-3.63-1.37,4.87,4.87,0,0,1-1.32-3.53,5.09,5.09,0,0,1,1.29-3.57,4.46,4.46,0,0,1,3.47-1.41,4.36,4.36,0,0,1,3.35,1.33A4.78,4.78,0,0,1,939.43,170.59Zm-7.2-.76h5.21a2.6,2.6,0,0,0-.82-1.77,2.64,2.64,0,0,0-1.78-.62,2.49,2.49,0,0,0-1.81.67A2.58,2.58,0,0,0,932.23,169.83Z"/><path class="cls-5" d="M943.39,175.5h-2v-9.45h2v1.35a3.56,3.56,0,0,1,3-1.56,2.63,2.63,0,0,1,2.75,1.8,3.88,3.88,0,0,1,3.29-1.8,3,3,0,0,1,2.35.92,3.67,3.67,0,0,1,.82,2.53v6.21h-2v-5.74c0-1.4-.59-2.11-1.78-2.11a2.19,2.19,0,0,0-1.66.7,2.53,2.53,0,0,0-.66,1.82v5.33h-2v-5.74c0-1.4-.6-2.11-1.78-2.11a2.2,2.2,0,0,0-1.67.69,2.52,2.52,0,0,0-.66,1.83Z"/><path class="cls-5" d="M960.06,164.52h-2v-1.87h2Zm0,11h-2v-9.45h2Z"/><path class="cls-5" d="M964.67,175.5h-2v-9.45h2v1.39a3.71,3.71,0,0,1,3.1-1.6,3.07,3.07,0,0,1,2.39.94,3.65,3.65,0,0,1,.86,2.57v6.15h-2v-5.7c0-1.43-.62-2.15-1.87-2.15a2.43,2.43,0,0,0-1.79.71,2.48,2.48,0,0,0-.71,1.85Z"/><path class="cls-5" d="M982.47,175.5h-2v-1.38a3.75,3.75,0,0,1-3.18,1.6,3.92,3.92,0,0,1-3.16-1.4,5.91,5.91,0,0,1,0-7.09,3.92,3.92,0,0,1,3.16-1.39,3.75,3.75,0,0,1,3.18,1.6v-4.79h2Zm-2-4.71a3.45,3.45,0,0,0-.73-2.28,2.47,2.47,0,0,0-2-.89,2.37,2.37,0,0,0-2,.89,3.6,3.6,0,0,0-.68,2.28,3.54,3.54,0,0,0,.68,2.26,2.37,2.37,0,0,0,2,.89,2.46,2.46,0,0,0,2-.89A3.5,3.5,0,0,0,980.47,170.79Z"/><path class="cls-5" d="M993.87,170.59c0,.24,0,.47,0,.68h-7.2a2.73,2.73,0,0,0,.85,2,2.92,2.92,0,0,0,2,.71,3.57,3.57,0,0,0,2.73-1.19l1.3,1.24a5.41,5.41,0,0,1-4.1,1.71,4.61,4.61,0,0,1-5-4.9,5.08,5.08,0,0,1,1.28-3.57,4.48,4.48,0,0,1,3.47-1.41,4.36,4.36,0,0,1,3.35,1.33A4.78,4.78,0,0,1,993.87,170.59Zm-7.2-.76h5.2a2.55,2.55,0,0,0-.82-1.77,2.63,2.63,0,0,0-1.77-.62,2.51,2.51,0,0,0-1.82.67A2.57,2.57,0,0,0,986.67,169.83Z"/><path class="cls-5" d="M1001.75,166.2l-.58,1.94a2.3,2.3,0,0,0-1.08-.29,2,2,0,0,0-1.61.78,3.06,3.06,0,0,0-.65,2.07v4.8h-2v-9.45h2v1.53a3.12,3.12,0,0,1,2.66-1.71A2.18,2.18,0,0,1,1001.75,166.2Z"/><path class="cls-5" d="M1010.75,172.62a2.7,2.7,0,0,1-1.08,2.25,4.62,4.62,0,0,1-2.95.85,4.84,4.84,0,0,1-4.39-2.13l1.4-1a3.58,3.58,0,0,0,3.1,1.49,2.8,2.8,0,0,0,1.43-.32,1,1,0,0,0,.53-.94.85.85,0,0,0-.53-.84,8.74,8.74,0,0,0-1.87-.46,6.91,6.91,0,0,1-2.64-.91,2.14,2.14,0,0,1-.92-1.93,2.4,2.4,0,0,1,1.06-2.13,4.55,4.55,0,0,1,2.65-.73,5.3,5.3,0,0,1,4.06,1.65l-1.25,1.15a3.58,3.58,0,0,0-2.83-1.18,2.65,2.65,0,0,0-1.25.27.85.85,0,0,0-.51.79.8.8,0,0,0,.54.79,7.68,7.68,0,0,0,1.71.43c.45.09.84.17,1.17.26a6.22,6.22,0,0,1,1,.34,2.61,2.61,0,0,1,.84.51,2.44,2.44,0,0,1,.52.75A2.38,2.38,0,0,1,1010.75,172.62Z"/></g></svg>