<?xml version="1.0" encoding="utf-8"?>
<!-- Generator: Adobe Illustrator 23.0.1, SVG Export Plug-In . SVG Version: 6.00 Build 0)  -->
<svg version="1.1" id="Layer_1" xmlns="http://www.w3.org/2000/svg" xmlns:xlink="http://www.w3.org/1999/xlink" x="0px" y="0px"
	 viewBox="0 0 215.3 133.7" style="enable-background:new 0 0 215.3 133.7;" xml:space="preserve">
<style type="text/css">
	.st0{fill:#231F20;}
	.st1{fill:#BE1E2D;}
	.st2{fill:#EF5355;}
	.st3{fill:#FFFFFF;}
	.st4{fill:#EC1C24;}
	.st5{fill:#42BEED;stroke:#FFFFFF;stroke-width:8;stroke-miterlimit:10;}
	.st6{fill:#35B6E9;stroke:#FFFFFF;stroke-width:8;stroke-miterlimit:10;}
	.st7{fill:#59C4EF;stroke:#FFFFFF;stroke-width:8;stroke-miterlimit:10;}
	.st8{fill:#71CAED;stroke:#FFFFFF;stroke-width:8;stroke-miterlimit:10;}
	.st9{fill:#A0D9EF;stroke:#FFFFFF;stroke-width:8;stroke-miterlimit:10;}
	.st10{fill:#87D1ED;stroke:#FFFFFF;stroke-width:8;stroke-miterlimit:10;}
	.st11{fill:#2CA9E1;stroke:#FFFFFF;stroke-width:8;stroke-miterlimit:10;}
	.st12{fill:#2AAEE4;stroke:#FFFFFF;stroke-width:8;stroke-miterlimit:10;}
	.st13{fill:none;stroke:#FFFFFF;stroke-width:8;stroke-miterlimit:10;}
</style>
<circle class="st2" cx="69.2" cy="66.9" r="66.9"/>
<g>
	<path class="st3" d="M24.8,44.5H37V62h17.3v9.7H37v17.5H24.8V44.5z"/>
	<path class="st3" d="M62.5,44.5h29.8v10H62.5V44.5z M62.5,62h29.7v9.8H74.8v7.4h17.4v9.9H62.5V62z"/>
	<path class="st3" d="M101.5,44.5h12.2v44.6h-12.2V44.5z"/>
</g>
<g>
	<path class="st3" d="M171.5,60c-1.7,2.1-5.4,6.8-10.9,14.3c-2.3,3.1-4.5,5.7-6.5,7.9c-2.3,2.4-4.2,3.6-5.7,3.6
		c-1,0-1.9-0.6-2.6-1.7c-0.4-0.8-0.7-1.7-0.7-2.8c0-3.5,1.5-8.4,4.6-14.5c3-5.9,7-11.7,11.8-17.3c2-2.3,3.4-3.5,4.2-3.5
		c0.3,0,0.5,0.1,0.8,0.3c0.3,0.3,0.5,0.6,0.5,1.1c0,0.6-0.5,1.3-1.4,2.2c-0.2,0.2-1.7,2-4.5,5.3c-3.6,4.2-6.8,9.1-9.5,14.8
		c-1.2,2.4-2.1,4.7-2.7,7c-0.5,1.6-0.7,2.8-0.7,3.7c0,0.4,0.1,0.7,0.3,1c0.2,0.4,0.6,0.6,1,0.6c0.8,0,1.8-0.8,3.3-2.4
		c3.6-4.1,9.4-11.4,17.5-22c2-2.7,4.3-5.5,6.9-8.4c0.7-0.8,1.2-1.4,1.7-1.7c0.4-0.4,0.9-0.6,1.4-0.6c0.4,0,0.7,0.1,1,0.4
		c0.3,0.3,0.4,0.5,0.4,0.9c0,0.5-0.4,1.4-1.3,2.7c-4.4,6.6-7.9,12.9-10.4,18.9c-2.5,5.9-3.8,10.3-3.9,13.2c0,1-0.1,1.7-0.2,1.9
		c-0.2,0.3-0.4,0.5-0.8,0.5c-0.6,0-1.1-0.3-1.5-0.8c-0.3-0.4-0.5-0.9-0.5-1.5c0-1.3,0.3-3.2,1-5.8c0.8-3.2,2.2-6.7,4.1-10.6
		C168,66.5,169.2,64.3,171.5,60z"/>
	<path class="st3" d="M188.6,63c0-0.3,0-0.5,0-0.8c0-1.8-0.2-4.7-0.6-8.9c-0.3-2.8-0.7-4.9-1.1-6.2c-0.3-0.7-0.4-1.1-0.4-1.3
		c0-0.4,0.2-0.7,0.5-1c0.3-0.3,0.7-0.4,1-0.4c0.7,0,1.2,0.4,1.5,1.2c0.6,1.5,1.1,3.8,1.4,7.1c0.2,2,0.5,4.3,0.8,6.9
		c4.5-4.5,8-7.7,10.5-9.8c3.4-2.9,5.4-4.3,6-4.3c0.4,0,0.7,0.2,0.9,0.6c0.2,0.3,0.2,0.6,0.2,0.9c0,0.8-0.5,1.6-1.4,2.4
		c-0.5,0.4-2.1,1.7-4.6,3.8c-3.1,2.6-6.9,6.1-11.4,10.7c0.1,10.1,1.1,17.5,3.1,22.2c0.2,0.4,0.3,0.8,0.3,1.2c0,0.4-0.2,0.8-0.5,1.1
		c-0.3,0.4-0.8,0.6-1.3,0.6c-0.8,0-1.4-0.5-1.8-1.5c-0.7-1.9-1.3-5-1.8-9.4c-0.4-4-0.7-7.7-0.9-11.2c-6.8,7-11.8,12.8-14.9,17.3
		c-0.7,1.1-1.4,1.7-2,1.7c-0.4,0-0.7-0.2-1-0.6c-0.2-0.3-0.3-0.5-0.3-0.8c0-0.7,0.6-1.8,1.8-3.3C177.9,74.7,183.3,68.6,188.6,63z"/>
</g>
</svg>
