<?xml version="1.0" encoding="utf-8"?>
<!-- Generator: Adobe Illustrator 23.0.1, SVG Export Plug-In . SVG Version: 6.00 Build 0)  -->
<svg version="1.1" id="Layer_1" xmlns="http://www.w3.org/2000/svg" xmlns:xlink="http://www.w3.org/1999/xlink" x="0px" y="0px"
	 viewBox="0 0 164.1 162.3" style="enable-background:new 0 0 164.1 162.3;" xml:space="preserve">
<style type="text/css">
	.st0{fill:#231F20;}
	.st1{fill:#BE1E2D;}
	.st2{fill:#EF5355;}
	.st3{fill:#FFFFFF;}
	.st4{fill:#EC1C24;}
	.st5{fill:#42BEED;stroke:#FFFFFF;stroke-width:8;stroke-miterlimit:10;}
	.st6{fill:#35B6E9;stroke:#FFFFFF;stroke-width:8;stroke-miterlimit:10;}
	.st7{fill:#59C4EF;stroke:#FFFFFF;stroke-width:8;stroke-miterlimit:10;}
	.st8{fill:#71CAED;stroke:#FFFFFF;stroke-width:8;stroke-miterlimit:10;}
	.st9{fill:#A0D9EF;stroke:#FFFFFF;stroke-width:8;stroke-miterlimit:10;}
	.st10{fill:#87D1ED;stroke:#FFFFFF;stroke-width:8;stroke-miterlimit:10;}
	.st11{fill:#2CA9E1;stroke:#FFFFFF;stroke-width:8;stroke-miterlimit:10;}
	.st12{fill:#2AAEE4;stroke:#FFFFFF;stroke-width:8;stroke-miterlimit:10;}
	.st13{fill:none;stroke:#FFFFFF;stroke-width:8;stroke-miterlimit:10;}
</style>
<g>
	<path class="st2" d="M23.4,0.2v55.7h30V0.2h23.5v55.7c0,5.8-1.5,10.8-4.6,14.9c-3.4,4.5-7.9,6.8-13.5,6.8H17.9
		c-5.6,0-10.1-2.3-13.5-6.8c-3-4.1-4.6-9.1-4.6-14.8V0.2H23.4z"/>
</g>
<g>
	<path class="st3" d="M53.4,162.3v-55.7h-30v55.7H-0.1v-55.7c0-5.8,1.5-10.8,4.6-14.9c3.4-4.5,7.9-6.8,13.5-6.8h40.9
		c5.6,0,10.1,2.3,13.5,6.8c3,4.1,4.6,9.1,4.6,14.8v55.7H53.4z"/>
</g>
<path class="st2" d="M97.6,0.2c10,0.1,18.9,3.1,26.5,8.9c2.3,1.8,4.6,3.8,6.7,6.1c4.7-5.1,10.6-9.1,17.6-12.1
	c4.4-1.9,9.6-2.9,15.7-2.9v17.2c-9.6,0.1-16.2,4.1-19.9,11.8c-1.5,3.3-2.3,6.4-2.3,9.4c0,3.3,0.8,6.6,2.4,9.9
	c3.8,8,10.4,11.9,19.8,11.9v17.1c-7.4,0-13.4-1.1-18.2-3.3c-4.3-2-9.2-5.7-14.6-11.2l-1.2,1.2c-3.7,3.7-8.1,6.8-13.1,9.4
	c-4.8,2.5-11.3,3.8-19.4,3.8v-17c9.7-0.1,16.3-4.2,20-12.2c1.4-3,2.1-6.2,2.3-9.6v-0.2v-0.2c0-2.9-0.7-5.9-2.1-8.9
	c-3.6-8-10.4-12-20.3-12V0.2z"/>
<path class="st3" d="M120.2,84.8h21.2v77.4h-21.2V84.8z"/>
</svg>
