<?xml version="1.0" encoding="utf-8"?>
<!-- Generator: Adobe Illustrator 23.0.1, SVG Export Plug-In . SVG Version: 6.00 Build 0)  -->
<svg version="1.1" xmlns="http://www.w3.org/2000/svg" xmlns:xlink="http://www.w3.org/1999/xlink" x="0px" y="0px"
	 viewBox="0 0 143.5 80" style="enable-background:new 0 0 143.5 80;" xml:space="preserve">
<style type="text/css">
	.st0{fill-rule:evenodd;clip-rule:evenodd;fill:#6A6DAA;}
	.st1{fill:#FFFFFF;stroke:#231F20;stroke-miterlimit:10;}
	.st2{fill:#FFFFFF;}
	.st3{fill:none;stroke:#231F20;stroke-miterlimit:10;}
	.st4{fill:none;stroke:#231F20;stroke-width:0.25;stroke-miterlimit:10;}
	.st5{fill:#231F20;}
	.st6{fill:#808285;}
	.st7{enable-background:new    ;}
	.st8{fill:#C0E7F1;}
	.st9{fill:#EBF7FA;}
	.st10{fill:#AED1EE;}
	.st11{fill:#6EA8DC;}
	.st12{fill:#4689AE;}
	.st13{fill:#F45245;}
	.st14{fill:#68E55E;}
	.st15{fill:#4A4A4A;}
	.st16{fill:#60B845;enable-background:new    ;}
	.st17{fill:#FBCD67;enable-background:new    ;}
	.st18{fill:#FAB828;enable-background:new    ;}
	.st19{fill:#F7831B;enable-background:new    ;}
	.st20{fill:#DF3B3E;enable-background:new    ;}
	.st21{fill:#089CDB;enable-background:new    ;}
	.st22{fill:#943A95;enable-background:new    ;}
	.st23{fill:url(#Silent_Button_2_);}
	.st24{fill:url(#Volume_Up_Button_2_);}
	.st25{fill:url(#Volume_Down_Button_2_);}
	.st26{fill:url(#Power_Button_2_);}
	.st27{fill:#000100;}
	.st28{fill:none;}
	.st29{fill:none;stroke:#FFFFFF;stroke-width:4;stroke-miterlimit:10;}
	.st30{opacity:0.801;fill:url(#Shadow_1_);enable-background:new    ;}
	.st31{opacity:0.801;fill:url(#Shadow-2_1_);enable-background:new    ;}
	.st32{opacity:0.403;fill:#ACACAC;enable-background:new    ;}
	.st33{fill:#202022;}
	.st34{fill:#133456;}
	.st35{fill:#2771BD;}
	.st36{fill:url(#Rectangle_1_);}
	.st37{fill:url(#_2_1_);}
	.st38{fill:url(#_1_1_);}
	.st39{fill:url(#_2-2_2_);}
	.st40{fill:url(#_1-2_2_);}
	.st41{fill:#AAAAAA;}
	.st42{clip-path:url(#SVGID_2_);}
	.st43{fill:url(#);}
	.st44{fill:#1F1F1F;stroke:#FFFFFF;stroke-miterlimit:10;}
	.st45{fill:#1A1A1A;stroke:#FFFFFF;stroke-miterlimit:10;}
	.st46{fill:#58595B;}
	.st47{fill:none;stroke:#939598;stroke-width:3;stroke-miterlimit:10;}
	.st48{fill:#939598;}
	.st49{fill:#F6F6F6;}
	.st50{fill:none;stroke:#808285;stroke-width:2;stroke-linecap:round;stroke-miterlimit:10;stroke-dasharray:3.008,5.0134;}
	.st51{fill:none;stroke:#231F20;stroke-width:2;stroke-linecap:round;stroke-miterlimit:10;}
	.st52{fill:none;stroke:#939598;stroke-width:2;stroke-miterlimit:10;}
	.st53{fill:none;stroke:#808285;stroke-width:2;stroke-linecap:round;stroke-miterlimit:10;stroke-dasharray:2.9721,4.9535;}
	.st54{fill:none;stroke:#808285;stroke-width:2;stroke-linecap:round;stroke-miterlimit:10;stroke-dasharray:3.0448,5.0747;}
	.st55{fill:#6A6DAA;}
	.st56{clip-path:url(#SVGID_8_);}
	.st57{clip-path:url(#SVGID_10_);}
	.st58{clip-path:url(#SVGID_12_);}
	.st59{clip-path:url(#SVGID_14_);}
	.st60{clip-path:url(#SVGID_16_);}
	.st61{clip-path:url(#SVGID_18_);}
	.st62{clip-path:url(#SVGID_20_);}
	.st63{clip-path:url(#SVGID_22_);}
	.st64{clip-path:url(#SVGID_24_);}
	.st65{clip-path:url(#SVGID_26_);}
	.st66{clip-path:url(#SVGID_28_);}
	.st67{clip-path:url(#SVGID_30_);}
	.st68{clip-path:url(#SVGID_32_);}
	.st69{clip-path:url(#SVGID_34_);}
	.st70{clip-path:url(#SVGID_36_);}
	.st71{clip-path:url(#SVGID_38_);}
	.st72{clip-path:url(#SVGID_40_);}
	.st73{clip-path:url(#SVGID_42_);}
	.st74{clip-path:url(#SVGID_44_);}
	.st75{clip-path:url(#SVGID_46_);}
	.st76{clip-path:url(#SVGID_48_);}
	.st77{clip-path:url(#SVGID_50_);}
	.st78{clip-path:url(#SVGID_52_);}
	.st79{clip-path:url(#SVGID_54_);}
	.st80{clip-path:url(#SVGID_56_);}
	.st81{clip-path:url(#SVGID_58_);}
	.st82{clip-path:url(#SVGID_60_);}
	.st83{clip-path:url(#SVGID_62_);}
	.st84{fill:#2AF73C;stroke:#FFFFFF;}
	.st85{fill:#202020;}
</style>
<g id="Layer_1">
</g>
<g id="Layer_2">
</g>
<g id="Layer_3">
	<g id="Group_367" transform="translate(1792.222 432.875)">
		<path id="Path_1132" class="st2" d="M-1718.4-429.8c0.3-0.4,2.2-0.9,2.4-0.2c0.2,0.5-0.5,0.9-0.7,1.3c-0.6,1.2-0.6,2.4-1,3.7
			c-0.3,1.1-0.6,1.7-0.6,3c0,1,0.2,2.3,0,3.2c-0.2,1-0.7,1.2-0.7,2.4c0,1.2,0.4,1.5,0.6,2.6c0.4,1.7-0.6,3.8,0,5.4
			c0.7,1.9,2-1.5,3-2.3c0.9-0.8,0.9-1.1,1.5-2c0.4-0.5,1.4-1.7,2.1-1.7c1.7,0.1,0,2.2-0.4,2.8c-0.5,0.8-6.9,7-4.1,8
			c1.6,0.6,4.8-5.4,5.7-6.5c1.4-1.7,2.8-3.8,4.1-5.7c1.2-1.6,2.3-3.3,3.8-4.8c1.3-1.3,1.9-2.9,2.8-4.5c-1.3-0.9-1.3,1.1-2.1,1.2
			c-1.9,0.3,0.2-2.7,0.6-3c1-1,4.6-4.9,6.1-4.5c3,0.8-1.3,5.5-2.1,6.7c-0.6,0.8-1.1,1.9-1.6,2.7c-0.8,1.1-1.6,1.5-2.2,2.8
			c-1.3,2.6-3.5,4.2-5.2,6.6c-1.5,2.1-2.9,4.2-4.4,6.3c-1.5,2.1-3.7,4-5,6.3c-0.3,0.6-3.4,5.4-3.5,5.3c0.5,0.4,6-2.1,6.4-2.2
			c1.9-0.8,3.8-1.6,5.8-2.3c1.3-0.4,3.2-0.9,4.3-1.7c1.1-0.8,1.1-2.3,1.4-3.7c0.6-2.3,1.5-4.4,2.2-6.6c0.7-2,1.8-3.8,2.6-5.7
			c0.8-2,0.8-3.8,2.1-5.6c0.6-0.9,1-1.7,1.4-2.7c0.3-0.7,0.9-2.4,1.9-2.3c1.7,0.1,0.6,1.8,0.4,2.5c-0.4,1.4-0.5,3.2-0.5,4.7
			c0,3.3-0.1,6.6-0.1,9.9c0,1.2,0.3,2.1,0.5,3.3c0.2,1.3-0.5,2.1,0.8,2.3c0.6,0.1,2-0.9,2.7-1.1c0.4-0.1,1.2-0.2,1.7-0.2
			c1-0.2,2-0.6,3-0.9c2.1-0.7,4.5-0.9,6.6-1.7c0.7-0.3,1.2-0.6,2-0.8c0.9-0.2,1.8-0.8,2.7-0.9c0.4-0.1,0.8,0.4,1.2,0.5
			c0.7,0.1,1-0.1,1.6-0.2c1.5-0.3,2.1-0.8,3.5,0c1,0.6,1.6,1.3,0.5,2.3c-1.1,1-2.4,0.1-3.5-0.2c-2.2-0.6-5-0.1-7.1,0.7
			c-4.1,1.7-8.4,2.2-12.6,3.7c-0.8,0.3-2,0.4-2.4,1.3c-0.4,0.8,0.4,2.3,0.6,3c0.5,1.8,1.4,3.5,1.6,5.3c0.2,1.7,0.9,3.1,1.7,4.5
			c0.3,0.6,1.4,1.8,1.5,2.1c0.1,0.3-0.2,0.6,0,0.9c0.3,0.5,0.7,0.8,1,1.3c1.3,1.5,2.4,3.7,4.4,4.4c2.8,0.9,3-0.8,4.3-2.8
			c0.4-0.6-0.2-0.7,0.6-0.9c0.6-0.1,0.7,0,1,0.4c0.1,0.3-0.3,1.8-0.5,2.1c-1.1,2.2-3.6,3.9-6.2,3.1c-3.6-1.1-5.3-5.1-6.8-8.1
			c-0.6-1.1-1.1-2.1-1.7-3.1c-0.2-0.3-0.4,0-0.5-0.4c-0.2-0.4-0.1-0.7-0.1-1.2c-0.3-2.1-1.6-3.8-2-5.9c-0.1-0.8,0-3.2-0.5-3.8
			c-0.7-0.8-0.8-0.2-1.8,0c-2,0.5-5,0.8-6.7,1.9c-1.5,0.9-1,1-1.4,2.6c-0.2,0.9-0.8,1.8-1,2.7c-0.4,1.4-0.7,2.4-1.2,3.7
			c-0.4,0.9-0.4,1.9-0.8,2.7c-0.4,1-0.9,1.9-1.3,2.9c-0.4,1-0.6,2.3-0.9,3.4c-0.3,0.9-0.7,1.9-1.2,2.7c-0.7,1-0.7,1.9-1.3,3
			c-0.2,0.3-0.5,0.8-0.6,1.1c-0.2,0.4-0.2,0.9-0.3,1.3c-0.3,0.8-1.6,3.1-2.6,2.9c-2.1-0.3-0.9-4.7-0.6-5.8c0.3-1-0.1-2.2,0.2-3.3
			c0.3-1.2,0.9-1.7,0.9-3.2c0-1,0.1-2-1.4-1.5c-0.6,0.2-0.9,1.1-1.4,1.3c-0.3,0.1-0.7,0.2-1,0.2c-1.3,1.5-3.1,2.5-4.6,3.9
			c-1.6,1.4-2.7,3.2-4.4,4.5c-1.5,1.2-2,2.5-3.1,4c-0.4,0.6-1,0.7-1.5,1.2c-0.2,0.4-0.3,0.8-0.5,1.1c-0.3,0.2-0.6,0.3-1,0.5
			c-0.9,1-1.5,2.4-2.3,3.5c-0.7,0.9-1.6,1.6-2.4,2.4c-0.7,0.7-0.8,1.5-1.3,2.3c-0.9,1.2-2.1,2.1-3,3.4c-0.8,1.2-1.9,3.2-3.8,2.7
			c-3.1-0.9,1.2-8.1,2-9.7c0.7-1.5,1.6-3,2.4-4.5c0.5-0.9,1.2-1.6,1.8-2.5c0.7-1,0.7-2.4,1.3-3.4c0.8-1.3,1.8-2.3,2.5-3.7
			c0.3-0.6,0.9-1.3,1.3-1.9c0.4-0.6,0.8-1.4,1.2-1.9c0.9-1.3,1.9-2.6,2.9-3.8c0.4-0.5,2.9-3.6,2.7-4.1c-0.4-0.7-3.6,1.6-4.1,1.7
			c-1.6,0.5-3.1,1.1-4.7,1.6c-2.5,0.8-5,2.4-6.4,4.5c-1.1,1.7-2.2,3-3.7,4.5c-1.5,1.5-3.1,3.6-4.7,4.8c-1.5,1.1-3.4,1.9-5.2,2.7
			c-0.7,0.3-1.8,0.7-2.4,1.2c-0.5,0.4-0.6,1-1.3,1.3c-1.3,0.7-3.2,1-4.5,1.5c-1.7,0.6-3.5,1-5.1,1.7c-1.5,0.7-2.9,0.9-4.3,1.4
			c-1.4,0.5-3,1.1-4.4,1.5c-3.4,0.8-7,1.9-10.7,1.8c-1.6,0-3.5-0.4-2.4-2.6c0.8-1.7,3-2.8,4.5-3.8c3.5-2.3,7.3-3.6,10.9-5.5
			c1-0.5,1.9-1,3-1.4c1.1-0.4,2.2-0.9,3.3-1.4c0.2-0.1,1.8-1.2,1.8-1.2c1-0.2,2.9-0.7,3.5-1.6c0.7-1-0.1-1.9-0.2-2.8
			c-0.2-1.5,0.3-3,0-4.4c-0.1-0.4-0.6-0.7-0.6-1c-0.1-0.7,0.4-2-0.1-2.6c-0.6-0.6-2.9-0.4-3.6-0.3c-1.5,0.3-2.5,0.8-4.2,0.7
			c-2.8-0.1-4.2-1.8-2.6-4.4c1.3-2.1,3.3-3.1,5.1-4.7c0.7-0.6,5-4.7,4.7-5c-0.2-0.3-1.6,0.4-1.8,0.5c-1,0.2-0.1,0.1-1.2,0.1
			c-1-0.1-2.5-0.3-3.1-1.3c-1.2-2.1,1.6-4,2.4-5.5c1.3-2.3-2.2-1.6-2.7-3.8c-0.3-1.6,1-1.7,1.9-2.4c0.3-0.2,0.7-0.8,1-0.9
			c0.6-0.3,1.1-0.2,1.7-0.5c1.2-0.6,1.7-1.3,3-1.7c1-0.3,1.5-0.7,2.5-1.3c1.2-0.7,2.6-1.3,3.8-2.1c1.1-0.7,2.4-1.7,3.7-1.7
			c3.7-0.1-0.9,4.3-2.1,5c-0.4,0.2-1,0.2-1.4,0.5c-0.7,0.5-1.2,1.5-1.8,2.1c-1,1.2-2,1.9-3.3,2.6c-1.2,0.7-1.1,1.4-1.9,2.5
			c-0.7,0.9-1.9,2-2.8,2.7c-0.8,0.7-1.1,0.9-1.5,1.9c-0.7,2.1-0.2,2,1.6,1.6c0.7-0.2,1.8-0.2,2.2-0.9c0.2-0.4-0.3-0.9-0.2-1.2
			c0.1-0.7,0-1.9,1.1-1.4c0.6,0.3,0.3,2,0.9,2.4c1,0.6,1.9-0.6,2.5,0.8c0.5,1.3-0.6,1.8-1.4,2.5c-1.5,1.2-1.5,2.1-1.4,3.9
			c0,0.5,0.3,2.2,0,2.6c-0.6,0.8-1.3-0.2-1.5-0.9c-0.3-0.7,0.2-2.1-0.3-2.3c-0.5-0.2-2.8,1.6-3.1,1.9c-0.9,0.8-1.6,1.5-2.5,2.3
			c-0.5,0.4-3.2,2.4-2.9,3.3c0.4,1,6,0.4,7.1,0.2c2.1-0.4,1.2-1.2,2.4-2.5c1-1,0.5-0.5,0.8,0.8c0.4,1.5,0.9,0.8,2.2,0.6
			c1.3-0.2,2.1-0.3,3.3-0.7c0.9-0.4,1.9-0.4,2.8-0.7c1.3-0.3,2.4-1,3.7-1.5c4-1.5,8.1-2.5,11.5,0.5c0.4,0.4,1.4,2.3,1.4,2.7
			c0,0.9-0.9,1.2-0.7,2.4c0.2,1.5,0.3,1.3,1.5,0.8c1.1-0.4,2-1,3.1-1.4c1.1-0.4,2.1-1.3,3.2-1.7c0.9-0.3,1.9-0.1,2.8-0.6
			c0.8-0.4,1.5-1,2.3-1.3c1.2-0.5,2.2-0.7,3.1-1.8c0.9-1.2,1.8-2.1,2.7-3.3c0.2-0.3,0.2-0.8,0.5-1.2c0.6-0.8,2-1.3,2.4-2.2
			c0.6-1.5-0.5-2.4-1.8-1.8c-1.2,0.5-1.9,2.2-2.9,2.7c-1.9,0.9-4.7-1.9-5-3.8c-0.6-3.8,3.7-2.2,5.5-1.8c1.5,0.4,1.8,0.6,2.2-1.3
			c0.3-1.6-0.7-2.2-0.7-3.8c-0.1-3.9-0.2-8,0-11.9c0.1-1.8,0.4-3,0.9-4.7C-1719.3-427.5-1719-429-1718.4-429.8z M-1733.8-375.3
			c0.1,0.7-0.9,1.3-1.2,1.9c-0.4,0.7-0.4,1.3-0.9,2.1c-1,1.5-1.5,3.1-2.4,4.6c-0.5,0.9-6,9.2-4.6,9.6c0.8,0.3,4.2-4.1,4.6-4.7
			c1.1-1.8,2.8-3.1,3.9-4.8c2.1-3.2,4.9-6.2,7.8-9c1.8-1.8,3.5-3.8,5.4-5.4c0.9-0.7,1.9-1.2,2.7-2c1-0.9,1.4-1.5,2.5-2
			c1.2-0.5,4.8-2.2,5.3,0.3c0.2,0.8-0.7,2.3-0.7,3.3c-0.1,1.2-0.5,1.5-0.7,2.6c-0.1,0.7-0.1,2.1,0.8,1.4c0.3-0.2,0.6-1.4,0.8-1.8
			c0.8-1.6,1.5-3.3,2.3-4.9c0.9-1.8,1.1-3.7,1.8-5.5c0.7-1.8,1-3.5,1.6-5.2c0.1-0.4,0.7-1.7,0.7-2.1c0.1-1.7-1.2-1-2.3-0.6
			c-1.6,0.5-3.1,1.1-4.7,1.6c-1.8,0.6-3.5,1.1-5.3,1.7c-0.8,0.3-1.6,1.1-2.4,1.4c-0.8,0.3-1.6,0.4-2.4,0.8c-3.2,1.9-5.7,5.7-7.7,8.9
			c-0.5,0.8-0.6,1.7-1.1,2.5c-0.6,0.8-1.2,1.4-1.7,2.2C-1732.1-377.6-1733.6-376.3-1733.8-375.3L-1733.8-375.3z M-1762-379.6
			c-0.2,1,0.4,2.2,1.3,2.3c0.5,0,1.6-0.7,2.1-0.9c0.3-0.2,0.5-0.5,0.8-0.7c0.3,0,0.6,0,1,0c2.5-1.1,5.4-2,8-3.1
			c1.4-0.6,2.6-1.7,4-2.1c1-0.3,2.5-0.5,3.2-1.4c1.4-1.8,0.6-5.1-1.1-6.4c-2.3-1.8-5.9-0.2-8.3,0.7c-2.3,0.9-4.8,1.6-7,2.2
			c-1.8,0.5-5.7,0-5.4,2.7c0.1,0.9,0.5,1.3,0.7,2c0.2,0.7-0.2,1.5,0,2.2C-1762.4-381.2-1761.9-380.8-1762-379.6z M-1758.4-371.9
			c0.3,1.5-1.3,2.6-2.5,1.6c-1-0.8-0.3-3-1.2-3.8c-1.2-0.9-4.8,1.8-6,2.5c-2.7,1.5-5.8,2.5-8.6,3.8c-1.3,0.6-2.5,1.4-3.8,2.1
			c-1.3,0.6-2.7,1-4,1.7c-0.5,0.3-2.6,2.2-2.3,2.9c0.3,0.8,3.5-0.4,4.3-0.5c0.8-0.1,1.2-0.7,1.9-0.9c0.7-0.2,1.5,0.1,2.3-0.1
			c1.2-0.3,2.5-0.7,3.6-1.1c2.6-0.9,5.4-1.7,8.1-2.4c2.5-0.7,5-2,7.4-3.2c3.1-1.5,5.6-3,8.4-5.1c1.5-1.2,3-1.9,4.2-3.5
			c0.4-0.5,3.5-3.9,3-4.4c-0.3-0.3-4.2,1.7-4.8,1.9c-2.2,0.7-4.4,1.7-6.4,2.7c-1.4,0.7-4.2,1.1-5.3,2.5c-0.7,0.9-0.4,1.6,0.5,2.1
			C-1758.9-372.6-1758.4-373.8-1758.4-371.9L-1758.4-371.9z M-1693.4-416.3c-0.1-1.3,0.6-4.1-0.9-2.8c-1.3,1.2-1.9,4-2.3,5.5
			c-0.3,1.4-0.9,2.7-1.4,4.1c-0.5,1.5-1.6,3.1-2,4.6c-0.1,0.4-0.5,2.3-0.4,2.4c0.2,0.9,0.7,0.7,1.7,0.4c1.5-0.4,3.1-1.3,4.4-2.1
			c2.5-1.6,0.7-3.6,0.7-6.1C-1693.5-412.3-1693.4-414.3-1693.4-416.3z M-1767.6-410.2c0,0.2,0,0.5,0.1,0.7c0.4,0.2,4.8-2.9,2.8-3.8
			c-0.3-0.1-2.1,0.8-2.3,0.9C-1767.7-411.8-1767.7-411.2-1767.6-410.2z M-1761.1-415.6c-1.1,0.1-3.3,2.7-1.3,2.2
			C-1761.9-413.6-1760.2-415.3-1761.1-415.6z M-1723.9-402.6c0.3,1.1,1.8,1.1,1.1-0.1C-1723.2-403.3-1723.7-403.1-1723.9-402.6z"/>
		<path id="Path_1133" class="st2" d="M-1670-394.1c-1.2-0.5-0.9,0.4-1-1.2c0-1.3,0.1-2.7,0.1-3.9c0-1.4-0.3-2.4,1.4-2.5
			c1.5-0.1,3,1.3,3.7,2.5c0.7,1.2,0.8,1.7,2,2.5c0.7,0.5,1.4,1.1,1.9,1.8c0.4,0.5,0.4,1.1,0.9,1.7c0.6,0.8,0.9,0.8,1.6,1.2
			c1.5,0.9,2.7,1.9,4.4,2.2c1,0.2,4.3-0.6,4.8,0.5c0.7,1.5-1.1,1.5-1.8,1.9c-0.9,0.6-1.3,2.4-2.6,1.7c-0.5-0.3-0.8-1-1.2-1.4
			c-0.4-0.4-1.5-0.9-2-1.2c-1.2-0.8-2.5-1.3-3.6-2.3c-1.2-1.1-1.8-2.3-2.9-3.5c-0.9-1-2.4-3.3-3.6-3.8
			C-1670.3-398.4-1668.1-394.6-1670-394.1z"/>
		<path id="Path_1134" class="st2" d="M-1761.3-429.6c0,1-0.2,1.7-0.4,2.5c-0.1,0.3-0.1,1.5-0.3,1.8c-1,2-1.4-0.7-1.4-1.5
			c0-1.1-0.6-4.6,0.5-5.1C-1761.1-433-1761.4-430.5-1761.3-429.6z"/>
		<path id="Path_1135" class="st2" d="M-1762.7-420.1c-0.1,1.1-0.3,2.4-1.1,1.1C-1764.6-420.2-1762.9-423.3-1762.7-420.1z"/>
	</g>
	<g id="Group_367_1_" transform="translate(1792.222 432.875)">
		<path id="Path_1132_1_" class="st5" d="M-1575.2-430.6c0.1-0.1,0.3-0.3,0.5-0.3c0.2-0.2,0.5-0.2,0.8-0.2c0.2,0,0.4,0,0.7,0
			c0.2,0,0.4,0.1,0.5,0.3c0.1,0.2,0.1,0.4-0.1,0.5l-0.4,0.4c-0.1,0.1-0.1,0.3-0.3,0.4l0,0c-0.1,0.3-0.3,0.6-0.5,0.9v0
			c0,0.2,0,0.3-0.1,0.5c-0.3,0.5-0.4,1.1-0.4,1.6c0.1,0.5-0.1,0.9-0.5,1.2c-0.2,0.2-0.3,0.4-0.2,0.7c0,0.9,0,1.8,0,2.7
			c0,0.6,0,1.3,0.1,1.9c0.1,0.4-0.1,0.7-0.4,1c-0.3,0.3-0.4,0.6-0.4,1c0,0.7,0,1.3,0,1.9c0,0.4,0.1,0.8,0.4,1.1
			c0.3,0.3,0.4,0.7,0.3,1.2c0,0.1,0,0.2,0,0.3c0.2,0.5,0.2,1,0.1,1.5c-0.1,0.8,0,1.6-0.1,2.5c0,0.4,0,0.8,0.2,1.1
			c0.1,0.4,0.4,0.5,0.7,0.1c0.2-0.2,0.4-0.5,0.4-0.8c0.1-0.4,0.2-0.7,0.5-1c0.6-0.7,1.2-1.3,2-1.7c0.4-0.2,0.6-0.5,0.6-1
			c0.1-0.4,0.3-0.7,0.6-1c0.4-0.4,0.7-0.7,1.1-1c0.3-0.3,0.9-0.4,1.3-0.1c0.2,0.1,0.2,0.4,0.1,0.6c0,0,0,0,0,0
			c-0.5,0.5-0.9,1.2-1.1,1.9c-0.1,0.3-0.3,0.5-0.6,0.6c-0.4,0.1-0.8,0.5-0.8,1c0,0.3-0.2,0.5-0.4,0.7c-0.5,0.5-1,0.9-1.4,1.4
			c-0.3,0.2-0.4,0.5-0.5,0.9c-0.1,0.3-0.2,0.6-0.5,0.8c-0.1,0.1-0.2,0.2-0.2,0.4c0,0.3-0.2,0.5-0.4,0.7c-0.3,0.4-0.3,1,0,1.5
			c0.6,0.7,0.9,0.7,1.7,0.1c0.4-0.4,0.9-0.6,1.1-1.1c0-0.1,0.1-0.1,0.1-0.2c0-0.5,0.3-0.7,0.7-1c0.6-0.4,1-1,1.1-1.7
			c0-0.1,0.1-0.3,0.2-0.3v0c0.1-0.3,0.2-0.5,0.4-0.7c0.1-0.1,0.3-0.2,0.4-0.3c0.4-0.4,0.8-0.7,0.8-1.3c0-0.1,0.1-0.2,0.2-0.2
			c0.1-0.1,0.2-0.2,0.3-0.2c0,0,0.1,0,0.1-0.1l1.2-1.2c0.1-0.1,0.2-0.3,0.2-0.4c0.1-0.4,0.3-0.8,0.7-1.1c0.1-0.1,0.3-0.3,0.3-0.5
			c0.1-0.2,0.2-0.4,0.4-0.5c0.4-0.2,0.6-0.6,0.7-1.1c0-0.2,0.1-0.3,0.2-0.5c0.4-0.5,0.9-1,1.4-1.4c0.3-0.2,0.5-0.6,0.5-1
			c0-0.3,0.2-0.6,0.4-0.7c0.7-0.6,1.3-1.3,2-1.9c0.3-0.2,0.4-0.5,0.5-0.9c0-0.3,0.1-0.6,0.3-0.8c0.6-0.5,1-1.2,1.2-2
			c0.1-0.1,0.1-0.2,0.2-0.3c-0.4-0.3-1-0.2-1.4,0.3c0,0-0.1,0.1-0.1,0.1c-0.1,0.2-0.2,0.4-0.4,0.6c-0.2,0.3-0.6,0.4-0.9,0.2
			c-0.3-0.1-0.4-0.3-0.3-0.7c0-0.5,0.2-0.9,0.6-1.2c0.2-0.2,0.5-0.5,0.6-0.7c0.1-0.2,0.3-0.5,0.4-0.7c0.1-0.1,0.2-0.1,0.3-0.1
			c0,0,0.1,0,0.1-0.1c0.6-0.3,1.1-0.8,1.5-1.2c0.3-0.4,0.7-0.8,1.1-1.1c0.1-0.1,0.3-0.2,0.4-0.3c0.6-0.7,1.4-1.2,2.2-1.4
			c0.2-0.1,0.5-0.1,0.7,0.1c0.8,0.6,1.1,1.7,0.5,2.6c-0.1,0.2-0.3,0.3-0.4,0.5c-0.5,0.3-0.8,0.8-0.8,1.3c0,0.1-0.1,0.3-0.2,0.3
			c-0.4,0.5-0.8,1-1.3,1.5c-0.2,0.1-0.3,0.4-0.3,0.6c0,0.3-0.1,0.6-0.4,0.8c-0.3,0.2-0.5,0.5-0.7,0.7c-0.3,0.2-0.5,0.5-0.5,0.9
			c0,0.3-0.2,0.6-0.4,0.7c-0.6,0.3-0.9,0.9-1.5,1.2c-0.2,0.1-0.3,0.3-0.3,0.6c0,0.5-0.2,1-0.6,1.3c-0.2,0.2-0.4,0.5-0.5,0.8
			c-0.2,0.8-0.8,1.4-1.5,1.8c-0.5,0.2-0.8,0.7-0.8,1.2c0,0.2-0.1,0.5-0.3,0.6c-0.9,0.7-1.6,1.5-2.2,2.4c-0.1,0.8-0.8,1.1-1.3,1.6
			c-0.2,0.2-0.4,0.5-0.3,0.8c0,0.3-0.1,0.6-0.3,0.8c-0.5,0.4-0.9,0.9-1.4,1.3c-0.3,0.2-0.5,0.5-0.5,0.9c0,0.3-0.2,0.5-0.4,0.7
			c-0.7,0.5-1.2,1.2-1.4,2c-0.1,0.4-0.3,0.7-0.6,0.9c-0.4,0.4-0.9,0.9-1.4,1.3c-0.2,0.1-0.3,0.3-0.3,0.4c0,0.7-0.7,1-1.1,1.4
			c-0.3,0.3-0.5,0.6-0.5,1c0,0.2-0.1,0.4-0.2,0.5c-0.1,0.1-0.2,0.3-0.3,0.5c-0.2,0.4-0.5,0.7-0.8,0.9c-0.3,0.1-0.5,0.5-0.5,0.8
			c0,0.4-0.2,0.7-0.5,0.8c-0.2,0.1-0.4,0.2-0.6,0.4c-0.2,0.2-0.3,0.4-0.1,0.5s0.3,0.1,0.4,0c0.4-0.3,0.9-0.5,1.5-0.5
			c0.3,0,0.6-0.2,0.9-0.4c0.3-0.2,0.6-0.3,1-0.2c0.6,0,1.2-0.1,1.7-0.5c0.5-0.3,0.9-0.5,1.4-0.8c0.1-0.1,0.2-0.1,0.3-0.1
			c0.5,0,1-0.2,1.5-0.5c0.1,0,0.1-0.1,0.2-0.1c0.5,0,0.9-0.2,1.2-0.6c0.1-0.1,0.3-0.2,0.5-0.2c0.2,0,0.5,0,0.7,0
			c0.3,0,0.5-0.1,0.7-0.3c0.1-0.2,0.3-0.3,0.5-0.3c0.7-0.2,1.3-0.4,1.9-0.7c0.8-0.4,1.6-0.7,2.4-1c0.5-0.1,0.8-0.5,0.8-1
			c0-0.5,0.2-1,0.5-1.4c0.2-0.3,0.2-0.6,0.2-0.9c-0.1-0.6,0-1.2,0.3-1.7c0.1-0.2,0.2-0.5,0.2-0.8c-0.1-0.4,0.1-0.7,0.4-1
			c0.2-0.2,0.4-0.4,0.4-0.7c0-0.3,0.1-0.6,0.3-0.8c0.3-0.3,0.4-0.7,0.4-1c-0.1-0.5,0.1-0.9,0.3-1.3c0.1-0.1,0.1-0.2,0.1-0.4
			c0-0.4,0.2-0.8,0.5-1.1c0.3-0.4,0.5-0.8,0.5-1.3c0-0.4,0.1-0.8,0.5-1.1c0.2-0.2,0.3-0.4,0.3-0.6c0-0.2,0.1-0.5,0.3-0.6
			c0.3-0.2,0.5-0.6,0.4-0.9c0-0.5,0.1-1.1,0.4-1.5c0.1-0.2,0.1-0.4,0.1-0.6c0-0.3,0.1-0.6,0.4-0.8c0.3-0.2,0.4-0.5,0.3-0.8
			c-0.1-0.4,0.1-0.8,0.5-1c0.2-0.2,0.4-0.4,0.4-0.7c0-0.3,0.2-0.6,0.5-0.8c0.6-0.5,1-1.2,1-2c0-0.4,0.1-0.8,0.4-1
			c0.2-0.1,0.3-0.3,0.3-0.5c0.2-0.4,0.5-0.7,1-0.9c0.2-0.1,0.4-0.1,0.5,0.1c0.2,0.2,0.4,0.3,0.5,0.5c0.3,0.3,0.4,0.7,0.1,1
			c-0.4,0.4-0.6,0.9-0.5,1.5c0,0.2,0,0.5,0,0.7c0,0.3-0.1,0.6-0.2,0.9c-0.2,0.3-0.3,0.6-0.2,0.9c0,1.9,0,3.8,0,5.7
			c0.1,1.3,0.1,2.6-0.1,3.9c0,0.3,0,0.6,0,1c0,0.9,0,1.8-0.1,2.6c0,0.4,0.1,0.8,0.3,1.1c0.2,0.4,0.3,0.8,0.2,1.3
			c-0.1,0.5-0.1,1-0.1,1.4c0,0.6,0.4,0.9,0.9,0.5c0.6-0.3,1.3-0.6,1.9-0.8c0.5-0.2,1.1-0.3,1.7-0.2c0.3,0,0.6-0.1,0.9-0.3
			c0.3-0.3,0.7-0.4,1.1-0.3c0.4,0.1,0.9-0.1,1.2-0.3c0.3-0.2,0.6-0.3,1-0.3c0.4,0,0.7-0.1,1.1-0.1c0.2,0,0.4-0.1,0.6-0.3
			c0.2-0.3,0.6-0.4,0.9-0.4c0.4,0,0.8,0,1.3-0.1c0.2,0,0.4-0.1,0.6-0.2c0.6-0.4,1.4-0.6,2.1-0.6c0.3,0,0.6-0.1,0.7-0.3
			c0.2-0.3,0.6-0.5,1-0.5c0.1,0,0.2,0,0.3,0c0.7,0.1,1.5-0.1,2-0.6c0.1-0.1,0.3-0.3,0.5-0.3c0.3,0.1,0.5,0,0.8,0.2
			c0.8,0.5,1.8,0.5,2.5-0.1c0.2-0.2,0.5-0.3,0.8-0.3c0.3,0,0.7,0,1,0c0.4-0.1,0.9,0.1,1.1,0.4c0.1,0.1,0.2,0.1,0.3,0.2
			c0.5,0,1,0.4,1.1,0.9c0.1,0.5,0,1-0.3,1.3c-0.1,0.1-0.2,0.2-0.3,0.2c-0.4,0.2-0.8,0.3-1.3,0.5c-0.5,0-1-0.1-1.4-0.3
			c-0.1-0.1-0.3-0.1-0.5-0.2c-0.5-0.3-1.1-0.2-1.7-0.5c-0.3-0.1-0.6-0.1-0.8,0.1c-0.3,0.2-0.6,0.2-0.9,0.2c-0.6,0-1.2,0-1.8,0.1
			c-0.5,0.1-1.1-0.1-1.4,0.5c0,0.1-0.2,0-0.3,0.1c-0.5,0-0.9,0.2-1.4,0.3c-0.5,0.3-1.1,0.3-1.5,0.8c0,0.1-0.2,0-0.3,0.1
			c-0.5-0.1-1,0-1.5,0.2c-0.3,0.2-0.7,0.3-1,0.3c-0.2,0-0.5,0-0.7,0c-0.4,0-0.8,0.1-1.1,0.4c-0.3,0.3-0.7,0.4-1.1,0.3
			c-0.3,0-0.5,0-0.8,0.1c-0.6,0.4-1.3,0.5-2.1,0.5c-0.2,0-0.4,0.1-0.6,0.2c-0.4,0.4-1,0.6-1.6,0.6c-0.4,0-0.7,0.1-1,0.3
			c-0.2,0.1-0.5,0.2-0.7,0.3c-0.4,0-0.7,0.3-0.7,0.7c-0.1,0.4-0.1,0.8,0,1.2c0,0.3,0.1,0.5,0.4,0.6c0.3,0.2,0.5,0.6,0.4,0.9
			c-0.2,0.6,0,1.3,0.4,1.8c0.2,0.2,0.3,0.5,0.3,0.8c0,0.4,0.2,0.7,0.4,1c0.2,0.2,0.3,0.6,0.3,0.9c-0.1,0.4,0,0.8,0.3,1.1
			c-0.1,0-0.2,0.1-0.1,0.2c0,0,0,0,0,0c0.2,0.3,0.1,0.6,0.2,0.9c0,0.3,0.1,0.6,0.3,0.9c0.2,0.2,0.3,0.5,0.3,0.8
			c0,0.6,0.2,1.2,0.7,1.6c0.2,0.1,0.4,0.2,0.4,0.5c0.1,0.5,0.3,1,0.7,1.4c0.2,0.4,0.4,0.6,0.9,0.5c0,0.1-0.1,0.2,0,0.4
			c-0.3,1,0.5,1.4,1,1.9c0.2,0.2,0.4,0.3,0.6,0.5c0.3,0.2,0.5,0.5,0.5,0.8c0,0.3,0.2,0.6,0.4,0.7c0.2,0.1,0.3,0.4,0.5,0.5
			c0.4,0.4,0.8,0.8,1,1.4c0.1,0.3,0.4,0.3,0.6,0.3c0.4,0,0.8,0.1,1,0.5c0.1,0.1,0.2,0.2,0.4,0.2c0.1,0,0.2,0,0.3,0
			c1.4,0.3,2-0.7,2.7-1.7c0,0,0-0.1,0.1-0.1c0.1-0.6,0.3-1.1,0.7-1.5c0.2-0.2,0.1-0.6,0.2-0.9c0.3,0.1,0.5-0.1,0.8-0.1
			c0.5,0,0.8,0.3,0.6,0.8c0,0.1-0.1,0.2-0.2,0.3c-0.2,0.3-0.2,0.6-0.1,0.9c0,0.3-0.1,0.6-0.4,0.9c-0.2,0.2-0.4,0.4-0.6,0.6
			c-0.3,0.3-0.6,0.6-0.7,1c0,0.2-0.2,0.4-0.3,0.4c-0.4,0.1-0.7,0.3-0.9,0.6c-0.2,0.1-0.4,0.2-0.6,0.2c-1,0-2,0-3,0
			c-0.3,0-0.6-0.1-0.8-0.4c-0.3-0.4-0.8-0.7-1.3-0.7c-0.6-0.1-0.7-0.2-0.8-0.8c0-0.3-0.2-0.6-0.5-0.8c-0.1-0.1-0.3-0.2-0.4-0.3
			c-0.3-0.4-0.7-0.8-1.1-1.1c-0.3-0.2-0.3-0.6-0.3-0.9c0-0.5-0.2-0.7-0.6-0.8c-0.2-0.2-0.3-0.6-0.2-0.9c0.1-0.4-0.1-0.8-0.4-1
			c-0.2-0.1-0.3-0.3-0.4-0.5c-0.2-0.5-0.4-1-0.7-1.5c-0.2-0.6-0.8-1-0.9-1.6c-0.1-0.2-0.3-0.2-0.5-0.2c-0.2,0,0-0.5-0.4-0.4
			c0.3-0.7,0-1.4,0.1-2.1c0-0.2-0.1-0.3-0.2-0.4c-0.1,0-0.1-0.1-0.2-0.2c-0.4-0.7-0.7-1.4-1.1-2.1c0-0.1,0-0.2,0-0.3
			c0.1-0.2,0-0.5-0.2-0.7c-0.3-0.4-0.4-0.8-0.4-1.3c0-0.3,0-0.5,0-0.8c0.1-0.5,0-0.9-0.3-1.3c-0.2-0.2-0.2-0.5-0.2-0.7
			c0-0.3,0-0.6,0-0.9c0-0.3-0.2-0.6-0.4-0.7c-0.2-0.1-0.5,0-0.7,0.2c-0.3,0.3-0.7,0.4-1.1,0.3c-0.7-0.1-1.4,0.1-1.9,0.5
			c-0.1,0.1-0.3,0.1-0.5,0.1c-0.2,0-0.4,0.1-0.6,0.2c-0.2,0.2-0.5,0.3-0.8,0.3c-0.3,0-0.7,0-1,0c-0.3,0-0.5,0.1-0.7,0.3
			c-0.3,0.3-0.7,0.4-1.1,0.4c-0.7-0.1-1.3,0.4-1.3,1.1c0,0.1,0,0.2,0,0.2c0,0.4,0,0.9-0.1,1.3c0,0.3-0.1,0.6-0.4,0.9
			c-0.3,0.3-0.4,0.6-0.4,1c0,0.3-0.1,0.6-0.3,0.9c-0.3,0.6-0.5,1.2-0.5,1.9c0.1,0.5-0.1,1.1-0.5,1.5c-0.2,0.2-0.4,0.6-0.3,0.9
			c0.1,0.4-0.1,0.7-0.4,0.9c-0.3,0.1-0.4,0.4-0.3,0.7c0,0.2,0,0.5,0,0.7c0,0.3-0.1,0.6-0.4,0.8c-0.3,0.2-0.4,0.5-0.3,0.8
			c0.2,0.5-0.1,1.1-0.5,1.3c-0.2,0.1-0.4,0.4-0.3,0.7c0,0.5-0.1,0.9-0.2,1.4c-0.1,0.7-0.4,1.4-0.8,2c-0.1,0.1-0.1,0.3-0.1,0.4
			c0.1,0.3-0.1,0.6-0.3,0.7c-0.2,0.2-0.4,0.4-0.4,0.7c0,0.4-0.3,0.7-0.6,0.9c-0.2,0.1-0.3,0.3-0.3,0.5c0,0.2,0,0.3,0,0.5
			c0,0.5,0.1,0.9-0.4,1.2c-0.2,0.1-0.2,0.3-0.3,0.5c0,0.4-0.2,0.7-0.5,0.8c-0.2,0.1-0.4,0.4-0.3,0.7c0.1,0.6-0.2,1.3-0.6,1.7
			c-0.4,0.4-0.8,0.9-1.1,1.4c-0.1,0.2-0.3,0.3-0.5,0.5c-0.1,0.1-0.3,0.1-0.4,0c-0.6-0.3-1-0.8-1.1-1.5c0-1,0-2,0-3
			c0-0.3,0-0.5,0.1-0.8c0.1,0,0.1-0.1,0.1-0.1c0-0.2,0.1-0.3,0.2-0.4c0,0,0,0,0,0l0.2-0.2c0.3-0.1,0.3-0.4,0.3-0.6
			c0-0.7-0.1-1.4-0.2-2c-0.1-0.4,0-0.8,0.2-1.1c0.1-0.1,0.2-0.2,0.3-0.2c0.2-0.3,0.3-0.6,0.3-1c0-0.8,0-1.5,0.1-2.3
			c0-0.2,0.1-0.4-0.1-0.6c-0.1-0.1-0.2-0.2-0.3-0.2c-0.6-0.1-1.2-0.2-1.6,0.3c-0.1,0.1-0.1,0.2-0.2,0.3c-0.2,0-0.2,0.1-0.3,0.2
			c-0.1,0.1-0.1,0.2-0.3,0.3v0c0,0.1-0.1,0.2-0.2,0.2l0,0c-0.3,0.3-0.7,0.1-1.1,0.2l0,0c-0.4,0.5-0.9,0.9-1.4,1.3
			c-0.4,0.3-0.8,0.7-1.2,1.1c-0.4,0.4-0.9,0.7-1.4,1c-0.1,0-0.2,0.1-0.2,0.2c-0.2,0.3-0.5,0.6-0.8,0.8c-0.3,0.3-0.6,0.6-0.8,0.9
			c-0.7,1.1-1.6,2-2.6,2.8c-0.6,0.5-1.2,0.9-1.8,1.4c-0.5,0.5-1,1.1-1.4,1.8c0,0-0.1,0.1-0.1,0.2c-0.2,0.6-0.5,1.2-1,1.7
			c-0.1,0.2-0.3,0.3-0.5,0.3c-0.5,0.2-0.8,0.6-0.9,1.1c0,0.4-0.3,0.7-0.7,0.8c-0.4,0.1-0.7,0.3-0.8,0.7c0,0.1,0,0.2-0.1,0.3
			c-0.5,0.5-0.7,1.2-1.3,1.7c-0.3,0.2-0.5,0.5-0.6,0.8c0,0.1-0.1,0.2-0.2,0.3c-0.7,0.9-1.5,1.7-2.4,2.5c-0.3,0.2-0.6,0.5-0.8,0.8
			c-0.2,0.2-0.3,0.5-0.3,0.8c0,0.5-0.3,1-0.8,1.3c-0.3,0.2-0.6,0.4-0.8,0.6c-0.2,0.2-0.4,0.4-0.6,0.6c-0.2,0.2-0.3,0.4-0.4,0.6
			c-0.2,0.6-0.6,1.1-1.1,1.6c-0.2,0.2-0.4,0.4-0.4,0.7c0,0.2-0.1,0.4-0.2,0.5c-0.1,0.2-0.2,0.4-0.5,0.4c-0.3,0-0.5,0.1-0.7,0.3
			c-0.5,0.3-1.1,0.4-1.6,0.4c-0.2,0-0.4-0.1-0.6-0.2c-0.2-0.1-0.3-0.3-0.3-0.5c0-1,0-2,0-2.9c0-0.4,0.1-0.8,0.5-1
			c0.1-0.1,0.2-0.3,0.3-0.4c0.1-0.3,0.3-0.6,0.5-0.8c0.2-0.2,0.3-0.4,0.3-0.7c0-0.6,0.2-1.2,0.6-1.6c0.4-0.4,0.7-1,0.8-1.6
			c0-0.3,0.2-0.6,0.4-0.8c0.1-0.1,0.2-0.3,0.3-0.4c0-0.2,0.1-0.3,0.3-0.4c0.3-0.2,0.5-0.5,0.6-0.9c0.1-0.8,0.5-1.5,1-2.1
			c0.1-0.2,0.3-0.3,0.3-0.5c0.2-0.5,0.5-1,0.9-1.4c0.4-0.4,0.7-0.9,0.9-1.5c0.4-0.9,0.7-1.8,1-2.7c0.1-0.2,0.3-0.4,0.5-0.6
			c0.3-0.2,0.5-0.5,0.7-0.9c0.1-0.2,0.2-0.2,0.4-0.4c0.4-0.3,0.7-0.7,0.7-1.2c0-0.3,0.1-0.5,0.4-0.7c0.1-0.1,0.3-0.3,0.4-0.4
			c0.4-0.3,0.7-0.7,0.7-1.2c0.1-0.3,0.2-0.6,0.5-0.8c0.4-0.3,0.6-0.7,0.7-1.2c0.1-0.3,0.2-0.6,0.5-0.8c0.3-0.3,0.6-0.7,1-1
			c0.2-0.2,0.3-0.4,0.4-0.6c0.1-0.4,0.4-0.8,0.7-1.1c0.1,0,0.1-0.1,0.1-0.2c0.4-0.7,0.9-1.3,1.5-1.8c0.1-0.1,0.3-0.2,0.3-0.4
			c0.1-0.8,0.5-1.4,1.1-2c0.1-0.1,0.2-0.2,0.2-0.3c0.1-0.1,0.1-0.2,0.1-0.3c0-0.1-0.2-0.1-0.2-0.1c-0.5,0.4-1.1,0.5-1.8,0.5
			c0,0-0.1,0-0.1,0.1c-0.2,0.4-0.7,0.7-1.2,0.6c-0.1,0-0.2,0.1-0.3,0.2c-0.3,0.4-0.8,0.6-1.3,0.5c-0.5,0-0.9,0-1.2,0.5
			c0,0.1-0.1,0.1-0.2,0.2c-0.4,0.1-0.8,0.2-1,0.5c-0.3,0.2-0.7,0.3-1.1,0.2c-0.4-0.1-0.8,0.1-1.1,0.4c-0.2,0.2-0.4,0.2-0.7,0.3
			c-0.8,0.1-1.5,0.3-2.1,0.8c-0.2,0.2-0.4,0.2-0.6,0.4c-0.3,0.3-0.5,0.5-0.7,0.8c-0.2,0.4-0.6,0.6-1,0.7c-0.3,0-0.5,0.2-0.5,0.5
			c0,0,0,0,0,0c-0.1,0.3-0.2,0.6-0.5,0.8c-0.5,0.4-0.8,0.9-0.9,1.4c-0.1,0.3-0.3,0.6-0.5,0.8c-0.1,0.1-0.2,0.2-0.2,0.2
			c-1,1.3-2.4,2.3-3.5,3.5c-0.1,0.1-0.3,0.3-0.4,0.4c-0.4,0.2-0.7,0.5-1,0.9c-0.3,0.4-0.6,0.6-0.9,1c-0.3,0.5-0.7,0.9-1.1,1.3
			c-0.2,0.2-0.5,0.4-0.8,0.4c-0.3,0-0.5,0.1-0.7,0.3c-0.2,0.2-0.5,0.4-0.7,0.6c-0.6,0.6-1.5,1-2.4,1.2c-0.3,0.1-0.5,0.2-0.8,0.4
			c-0.7,0.4-1.3,0.7-2,1c-0.3,0.1-0.6,0.2-0.7,0.5c0,0,0,0.1-0.1,0.1c-0.2,0.7-0.9,1.1-1.6,0.9c-0.3,0-0.6,0.1-0.8,0.3
			c-0.3,0.3-0.7,0.5-1.1,0.5c-0.2,0-0.4,0.1-0.5,0.3c-0.2,0.4-0.7,0.6-1.1,0.5c-0.4-0.1-0.7,0-1,0.3c-0.1,0.1-0.3,0.2-0.4,0.2
			c-0.5,0.2-1,0.3-1.5,0.5c-0.3,0.1-0.6,0.1-0.8,0.1c-0.4,0-0.8,0.1-1.1,0.3c-0.2,0.2-0.6,0.3-0.9,0.3c-0.3,0-0.6,0.1-0.8,0.3
			c-0.4,0.4-0.9,0.5-1.4,0.4c-0.3-0.1-0.6,0.1-0.8,0.3c-0.2,0.3-0.6,0.4-1,0.4c-0.1,0-0.3,0-0.4,0c-0.3-0.1-0.6,0.1-0.7,0.3
			c-0.1,0.2-0.4,0.3-0.6,0.4c-0.4,0.1-0.9,0.1-1.3,0.1c-0.3,0-0.6,0.1-0.9,0.3c-0.3,0.4-0.8,0.5-1.3,0.4c-0.1,0-0.3,0-0.4,0
			c-0.4,0-0.8,0-1.1,0.4c-0.1,0.2-0.4,0.3-0.6,0.3c-0.2,0-0.3,0-0.5,0c-0.4-0.1-0.8,0.1-1.1,0.4c-0.2,0.2-0.4,0.3-0.7,0.3
			c-0.6,0-1.2,0-1.8,0c-0.6,0-1.1,0-1.6,0.2c-0.4,0.1-0.9,0.3-1.3,0.3c-0.2,0.1-0.5,0.1-0.7,0c-0.8-0.1-1.6-0.1-2.5-0.1
			c-0.7,0-0.9-0.2-0.9-0.9c0-0.4,0-0.8,0-1.2c0-0.3,0.1-0.7,0.4-0.9c0.5-0.4,0.9-0.8,1.2-1.4c0.2-0.4,0.7-0.7,1.1-0.8
			c0.2-0.1,0.5-0.2,0.6-0.4c0.3-0.3,0.6-0.5,1-0.7c0.3-0.1,0.5-0.3,0.7-0.5c0.2-0.2,0.4-0.3,0.7-0.4c0.4-0.1,0.8-0.4,1-0.7
			c0.1-0.1,0.1-0.1,0.2-0.2c0.6-0.1,1-0.5,1.6-0.7c0.1,0,0.1,0,0.2-0.1c0.8-0.6,1.7-1,2.7-1.3c0.2-0.1,0.4-0.2,0.5-0.4
			c0.1-0.2,0.3-0.3,0.5-0.3c0.3,0,0.6-0.1,0.9-0.3c0.3-0.2,0.6-0.3,0.9-0.3c0.2,0,0.4-0.1,0.5-0.2c0.3-0.3,0.6-0.4,1-0.4
			c0.1,0,0.1,0,0.2,0c0.1,0,0.2-0.1,0.2-0.2c0.1-0.3,0.4-0.5,0.8-0.5c0.2,0,0.3-0.1,0.4-0.2c0.2,0.1,0.4-0.1,0.6-0.1
			c0.4,0,0.7-0.1,1-0.4c0.4-0.4,1-0.6,1.5-0.5c0.3,0,0.6,0,0.8-0.2c0.4-0.5,1.1-0.6,1.5-1.1c0.1-0.1,0.2-0.1,0.4-0.1
			c0.4-0.1,0.7-0.2,1-0.5c0.1,0,0.1-0.1,0-0.2c0.2,0,0.3-0.1,0.5-0.1c0.3-0.1,0.7-0.2,1-0.3c0.7-0.3,1.4-0.6,2-1
			c0.3-0.2,0.4-0.4,0.4-0.7c0-0.4-0.1-0.9-0.1-1.3c0-0.1,0-0.2-0.1-0.3c-0.3-0.5-0.4-1-0.4-1.5c0-0.6,0-1.3,0.1-1.9
			c0-0.6,0-1.2-0.1-1.8c0-0.2-0.1-0.4-0.3-0.5c-0.3-0.3-0.4-0.7-0.4-1.1c0.1-0.5,0.1-1,0.1-1.5c0-0.4-0.3-0.7-0.7-0.8
			c-0.1,0-0.3,0-0.4,0c-0.9,0-1.8,0-2.8,0c-0.3,0-0.5,0.1-0.7,0.3c-0.2,0.2-0.4,0.3-0.6,0.3c-1.3,0.1-2.6,0.2-3.9,0.1
			c-0.3,0-0.6-0.1-0.7-0.4c-0.2-0.2-0.4-0.4-0.7-0.4c-0.1,0-0.3,0-0.4-0.1c-0.3-0.1-0.5-0.4-0.5-0.7c0-0.5,0-1.1,0-1.6
			c0-0.3,0.1-0.5,0.3-0.7c0.2-0.2,0.3-0.4,0.4-0.6c0.1-0.3,0.2-0.6,0.5-0.8c0.2-0.1,0.3-0.3,0.4-0.5c0.4-0.5,0.8-1,1.2-1.4
			c0.1-0.2,0.4-0.3,0.6-0.4c0.5-0.1,1-0.4,1.4-0.9c0.3-0.3,0.7-0.6,1-0.9c0.5-0.3,0.9-0.7,1.2-1.2c0.1-0.2,0.3-0.4,0.5-0.6
			c0.6-0.5,1.2-1.1,1.7-1.7c0.4-0.4,0.9-0.8,1.4-1.1c0.2-0.1,0.3-0.2,0.2-0.4c-0.1-0.2-0.2-0.1-0.4-0.1c-0.3,0-0.6,0.1-0.8,0.1
			c-0.3,0-0.5,0.2-0.8,0.3c-0.3,0.4-0.8,0.4-1.2,0.1c0,0-0.1-0.1-0.1-0.1c-0.2-0.2-0.5-0.2-0.7-0.3c-0.2,0-0.5,0-0.7,0
			c-1,0-1.8-0.7-1.8-1.7c0-0.4,0-0.8,0-1.3c0-0.3,0.1-0.6,0.4-0.9c0.3-0.3,0.5-0.5,0.8-0.8c0.1-0.1,0.2-0.2,0.2-0.3
			c0.1-0.4,0.4-0.8,0.8-1.1c0.4-0.4,0.6-0.9,1-1.2c0.2-0.2,0.1-0.6-0.1-0.8c-0.1-0.1-0.2-0.1-0.4-0.2c-0.6-0.2-1.1-0.5-1.5-1
			c-0.3-0.3-0.6-0.6-0.9-0.8c-0.2-0.1-0.3-0.3-0.3-0.5c0-0.3,0-0.6,0-0.9c0-0.2,0.1-0.3,0.2-0.4c0.6-0.4,1-1.1,1.8-1.2
			c0.3,0,0.5-0.2,0.7-0.5c0.1-0.2,0.2-0.3,0.4-0.5c0.2-0.3,0.6-0.4,0.9-0.4c0.5,0.1,1.1-0.1,1.4-0.6c0.2-0.2,0.4-0.4,0.6-0.6
			c0.1-0.1,0.3-0.3,0.4-0.3c0.8,0,1.4-0.6,2.2-0.5c0.1,0,0.3-0.1,0.4-0.2c0.3-0.2,0.6-0.4,0.9-0.7c0.3-0.3,0.8-0.6,1.2-0.6
			c0.3,0,0.5-0.2,0.7-0.4c0.2-0.2,0.4-0.4,0.7-0.3c0.3,0,0.6-0.2,0.8-0.4c0.7-0.5,1.3-1,2-1.5c0.1-0.1,0.3-0.2,0.4-0.2
			c0.5-0.1,1.1-0.3,1.5-0.6c0.5-0.2,1.1-0.3,1.7-0.2c0.6,0.1,0.8,0.3,0.7,0.9c0,0.2-0.1,0.3-0.2,0.5c-0.7,1-1.5,1.9-2.3,2.7
			c-0.2,0.2-0.4,0.4-0.6,0.6c-0.3,0.4-0.8,0.6-1.2,0.7c-0.5,0.1-1,0.3-1.3,0.8c-0.8,1.1-1.7,2.1-2.7,3c-0.1,0.1-0.2,0.2-0.3,0.3
			c-0.4,0.5-1,0.9-1.6,1c-0.7,0.1-1.3,0.7-1.4,1.4c-0.2,0.6-0.5,1.1-1,1.5c-0.6,0.5-1.2,1.1-1.8,1.8c-0.4,0.4-0.8,0.7-1.3,0.9
			c-0.4,0.1-0.6,0.5-0.5,0.9c0,0.3-0.1,0.5-0.3,0.7c-0.2,0.2-0.2,0.4-0.2,0.7c0,0.3,0,0.5-0.1,0.8c-0.1,0.4,0,0.5,0.5,0.6
			c0.5,0.1,1.1-0.1,1.5-0.4c0.2-0.2,0.5-0.3,0.8-0.2c0.3,0,0.6-0.1,0.9-0.2c0.2-0.1,0.4-0.3,0.5-0.5c0.2-0.2,0.2-0.4,0-0.6
			c-0.4-0.5-0.2-1.2-0.1-1.8c0-0.3,0.4-0.3,0.7-0.3c0.2,0,0.4,0.2,0.4,0.4c0,0,0,0.1,0,0.1c0,0.3,0.1,0.6,0.3,0.8
			c0.1,0.2,0.2,0.5,0.2,0.7c0,0.4,0.2,0.6,0.5,0.6c0.4,0,0.8,0,1.1-0.1c0.9,0,1.1,0.3,1.2,1.1c0,0.1,0,0.2,0,0.3
			c0.1,0.6-0.2,1.2-0.7,1.4c-0.7,0.5-1.4,1.1-2,1.7c-0.2,0.2-0.3,0.5-0.3,0.8c0.1,0.7,0,1.3,0.1,2c0,0.1,0,0.2,0,0.2
			c-0.2,0.5-0.1,0.9,0,1.4c0.1,0.3,0.1,0.7,0,1.1c-0.1,0.2-0.2,0.4-0.4,0.4c-0.2,0-0.4-0.2-0.5-0.4c-0.1-0.4-0.3-0.7-0.7-1
			c-0.3-0.3-0.4-0.8-0.2-1.2c0.1-0.3,0.2-0.5,0.3-0.8c0.1-0.3,0-0.4-0.3-0.4c-0.3,0-0.7,0.2-0.9,0.4c-0.7,0.6-1.4,1.1-2.2,1.5
			c-0.2,0.1-0.4,0.4-0.4,0.6c-0.1,0.3-0.3,0.6-0.7,0.7c-0.5,0.2-1,0.6-1.4,1c-0.7,0.7-1.4,1.3-2.1,2c-0.2,0.2-0.3,0.3-0.5,0.4
			c-0.3,0.2-0.5,0.5-0.4,0.9c0,0.3,0.3,0.5,0.6,0.5c0,0,0,0,0,0c1.4-0.4,2.8-0.1,4.2-0.2c0.2,0,0.5,0,0.7-0.1c0.3-0.1,0.6-0.1,1-0.1
			c0.5,0,1,0.1,1.5,0c0.4,0,0.7-0.3,0.9-0.6c0.5-0.7,0.5-1.5,0.9-2.2c0.1-0.2,0.2-0.4,0.4-0.4c0.2,0,0.3,0.2,0.3,0.5
			c0,0.5,0,0.9,0,1.4c0,0.5,0.1,0.6,0.6,0.7c0.4,0.1,0.8,0,1.2-0.2c0.3-0.2,0.7-0.2,1.1-0.2c0.3,0,0.7,0,1,0c0.4,0,0.8-0.1,1.1-0.4
			c0.2-0.2,0.4-0.3,0.7-0.3c0.5,0,0.9-0.1,1.2-0.5c0.3-0.2,0.6-0.3,1-0.3c0.4,0.1,0.9,0,1.3-0.1c0.7-0.4,1.4-0.7,2.2-0.9
			c0.3-0.1,0.5-0.3,0.9-0.4c0,0,0.1-0.1,0.1-0.1c0.6-0.1,1.3-0.3,1.9-0.6c0.4-0.1,0.8-0.3,1.2-0.5c0.3-0.2,0.7-0.4,1.1-0.4
			c1.3,0,2.6,0.1,3.8,0.1c0,0,0,0,0.1,0c1.3,0,0.9-0.1,1.9,1c0.2,0.3,0.6,0.5,1,0.5c0.1,0,0.2,0,0.2,0.1c0.5,0.4,1,0.8,1.1,1.4
			c0,0.2,0,0.5,0.1,0.7c0,0.3,0.2,0.5,0.4,0.7c0.3,0.2,0.4,0.5,0.2,0.8c0,0.1-0.1,0.1-0.2,0.2c-0.5,0.3-0.7,0.9-0.5,1.4
			c0.1,0.2,0,0.5,0,0.7c-0.1,0.2-0.1,0.5,0,0.7c0.2,0.3,0.6,0.4,0.9,0.2c0.1-0.1,0.2-0.1,0.2-0.2c0.1-0.2,0.4-0.4,0.6-0.5
			c0.2-0.1,0.5-0.2,0.6-0.4c0.3-0.3,0.8-0.5,1.2-0.4c0.3,0.1,0.6,0,0.8-0.3c0.2-0.3,0.6-0.4,0.9-0.4c0.2,0,0.4-0.1,0.6-0.2
			c0.4-0.3,0.9-0.6,1.3-0.9c0.4-0.3,0.8-0.4,1.2-0.3c0.4,0.1,0.8,0,1.1-0.3c0.2-0.1,0.5-0.2,0.7-0.2c0.3,0,0.6-0.1,0.8-0.3
			c0.4-0.3,0.8-0.6,1.1-0.9c0.2-0.2,0.6-0.3,0.9-0.2c0.5,0.1,1-0.1,1.3-0.5c0.2-0.2,0.4-0.3,0.6-0.3c0.3,0,0.6-0.2,0.8-0.5
			c0.3-0.4,0.6-0.8,0.8-1.2c0.3-0.7,0.8-1.3,1.4-1.7c0.7-0.3,1.1-0.9,1.1-1.6c0-0.2,0.1-0.4,0.3-0.5c0.7-0.6,1.3-1.2,2-1.8
			c0.3-0.2,0.5-0.6,0.5-1c0.1-0.5-0.1-0.9-0.3-1.3c-0.3-0.3-0.8-0.5-1.2-0.3c-0.3,0.2-0.7,0.4-0.9,0.6c-0.4,0.4-0.9,0.7-1.3,1
			c-0.4,0.3-0.7,0.6-0.9,1c-0.1,0.3-0.4,0.4-0.7,0.4c-0.3,0-0.5,0-0.8,0c-0.3,0-0.6-0.1-0.7-0.4c-0.1-0.2-0.3-0.4-0.5-0.5
			c-0.5-0.3-1-0.7-1.5-0.9c-0.2-0.1-0.4-0.4-0.4-0.7c0-0.3-0.2-0.7-0.4-0.9c-0.6-0.8-0.5-1.9,0.2-2.6c0.5-0.5,1.2-0.8,1.9-0.7
			c0.3,0,0.5,0,0.8,0c0.4,0,0.8,0.1,1,0.5c0.2,0.2,0.5,0.4,0.8,0.3c0.4,0,0.8,0.1,1,0.4c0.3,0.3,0.9,0.3,1.2,0c0,0,0,0,0.1-0.1
			c0.4-0.4,0.7-0.9,0.6-1.5c0-0.3,0-0.7,0.1-1c0.1-0.4,0.1-0.7-0.3-0.9c-0.4-0.2-0.6-0.6-0.5-1.1c0-1.3,0-2.5,0-3.8
			c0-1.4,0.1-2.8,0-4.2c0-1.7,0-3.4,0-5.1c0-0.4-0.1-0.8,0.2-1.1c0-0.3,0-0.5,0-0.8c-0.2-0.2-0.2-0.6,0-0.8c0,0,0-0.1,0-0.1
			c0-0.2,0.1-0.4,0.2-0.5l0,0c0-0.2,0.1-0.4,0.2-0.5c0-0.2,0.2-0.4,0.2-0.6l0-1c0,0,0-0.1,0-0.1c0-0.2,0.1-0.4,0.2-0.5l0,0
			c0-0.1,0.1-0.2,0.2-0.3l0,0l0.2-0.4c0,0,0,0,0-0.1c0-0.3,0.1-0.5,0.2-0.8l0-0.1C-1575.5-430.2-1575.4-430.4-1575.2-430.6
			L-1575.2-430.6z M-1590.9-374.9c0.1,0.3-0.1,0.6-0.3,0.8c-0.7,0.4-1.1,1.1-1.1,1.9c0,0.3-0.2,0.7-0.4,0.9
			c-0.3,0.3-0.5,0.6-0.8,0.9c-0.1,0.1-0.2,0.3-0.3,0.4c0,0.4-0.2,0.7-0.5,0.9c-0.2,0.1-0.4,0.4-0.4,0.6c0,0.3-0.1,0.6-0.3,0.9
			c-0.1,0.1-0.2,0.3-0.2,0.5c0,0.5-0.2,0.9-0.6,1.2c-0.3,0.3-0.6,0.7-0.8,1.1c-0.3,0.5-0.6,1.1-0.9,1.6c0,0,0,0.1-0.1,0.1
			c-0.3,0.3-0.6,0.8-0.7,1.2c-0.3,0.7-0.6,1.3-1,2c-0.3,0.6-0.6,1.2-0.9,1.7c0,0,0,0.1,0,0.2c0,0.5-0.1,1-0.1,1.4
			c0,0.1,0,0.2,0.1,0.2c0.1,0,0.1,0,0.2-0.1c0.2-0.2,0.4-0.4,0.6-0.6c0.5-0.6,1.1-1.2,1.8-1.6c0.7-0.4,1.3-1.1,1.7-1.9
			c0.3-0.7,0.8-1.3,1.2-1.9c0.1-0.1,0.2-0.2,0.3-0.3c0.5-0.4,1-0.8,1.3-1.4c0.2-0.5,0.6-0.9,1-1.2c0.5-0.4,0.9-0.9,1-1.6
			c0.1-0.4,0.4-0.7,0.8-0.9c0.3-0.1,0.5-0.3,0.6-0.6c0.2-0.4,0.5-0.8,0.9-1.1c0.4-0.2,0.7-0.6,0.8-1c0.1-0.5,0.4-0.9,0.7-1.2
			c0.3-0.3,0.6-0.5,0.8-0.8c0.8-0.8,1.5-1.6,2.3-2.3c1.1-1,2.1-2.1,3.1-3c1-0.9,1.7-1.9,2.8-2.8c0.5-0.5,1.1-1,1.8-1.3
			c0.2-0.1,0.4-0.2,0.6-0.3c0.7-0.6,1.4-1.3,1.9-2.1c0.2-0.3,0.5-0.5,0.9-0.5c0.2,0,0.3,0,0.5-0.1c0,0,0.1,0,0.1-0.1
			c0.7-0.5,1.6-0.4,2.2-0.9c1-0.1,2-0.2,2.7,0.7c0.4,0.5,0.5,0.8,0.1,1.4c-0.2,0.3-0.3,0.6-0.4,0.9c-0.1,0.9-0.2,1.7-0.1,2.6
			c0,0.4,0,0.6-0.4,0.8c-0.2,0.1-0.3,0.3-0.3,0.6c0,0.6,0,1.1,0,1.7c0,0.4,0.2,0.5,0.6,0.3c0.2-0.1,0.4-0.3,0.4-0.5
			c0-0.4,0.1-0.7,0.4-0.9c0.2-0.1,0.3-0.3,0.3-0.5c0-0.3,0.1-0.6,0.4-0.7c0.3-0.2,0.4-0.4,0.4-0.8c0-0.2,0.1-0.4,0.2-0.6
			c0.4-0.4,0.6-1,0.6-1.5c0-0.3,0.2-0.6,0.4-0.8c0.2-0.1,0.3-0.4,0.3-0.6c0-0.3,0.1-0.5,0.3-0.7c0.1-0.1,0.3-0.3,0.3-0.5
			c0-0.6,0.2-1.2,0.5-1.8c0.2-0.4,0.2-0.8,0.1-1.2c0-0.4,0.1-0.8,0.4-1.1c0.2-0.2,0.3-0.5,0.3-0.8c0-0.3,0.1-0.7,0.3-0.9
			c0.3-0.3,0.4-0.7,0.4-1c0-0.2,0-0.5,0-0.7c-0.1-0.5,0.1-1,0.4-1.3c0.3-0.3,0.4-0.6,0.3-1c0-0.2,0-0.4,0-0.6c0-0.3,0.1-0.7,0.4-0.9
			c0.4-0.3,0.5-0.9,0.4-1.4c-0.1-0.4-0.4-0.6-0.7-0.3c-0.5,0.3-1.1,0.5-1.7,0.5c-0.5-0.1-1.1,0.1-1.4,0.5c-0.1,0.1-0.2,0.1-0.3,0.1
			c-0.3,0.1-0.7,0.2-1.1,0.2c-0.3,0-0.5,0.1-0.7,0.3c-0.2,0.3-0.5,0.4-0.8,0.4c-0.2,0-0.3,0.1-0.5,0.1c-0.5,0.2-1,0.4-1.5,0.4
			c-0.1,0-0.2,0-0.3,0.1c-0.4,0.3-0.8,0.5-1.3,0.6c-0.1,0-0.2,0.1-0.3,0.1c-0.3,0.4-0.8,0.5-1.3,0.4c-0.5,0-0.9,0.1-1.3,0.5
			c-0.2,0.2-0.4,0.3-0.7,0.4c-0.1,0-0.3,0-0.4,0.2c-0.2,0.4-0.7,0.6-1.1,0.5c-0.4-0.1-0.8,0.1-1.1,0.4c-0.2,0.2-0.5,0.4-0.8,0.4
			c-0.3,0-0.6,0.2-0.8,0.4c-0.6,0.7-1.5,1.1-2,2c-0.1,0.1-0.1,0.1-0.2,0.2c-0.5,0.4-1.1,0.9-1.5,1.5c-0.2,0.2-0.3,0.4-0.3,0.6
			c0,0.3-0.2,0.6-0.4,0.8c-0.4,0.5-1,0.8-1.1,1.5c0,0,0,0.1-0.1,0.1c-0.4,0.6-0.8,1.2-1.3,1.7c-0.3,0.2-0.4,0.5-0.4,0.8
			c0,0.2-0.1,0.5-0.3,0.7c-0.1,0.1-0.2,0.1-0.2,0.3c-0.2,0.8-0.7,1.6-1.5,1.9c-0.1,0.1-0.2,0.2-0.2,0.4c0,0.5-0.2,0.9-0.6,1.1
			c-0.5,0.4-1,0.7-0.9,1.4c0,0.1-0.1,0.1-0.1,0.2c-0.2,0.4-0.4,0.7-0.7,0.9c-0.1,0-0.1,0-0.2,0.2l-0.2,0.3
			C-1591-375.1-1590.9-375-1590.9-374.9L-1590.9-374.9z M-1619.7-379.4c-0.2,0.7,0.1,1.5,0.6,2c0,0,0,0.1,0.1,0.1
			c0.2,0.3,0.3,0.3,0.7,0.2c0.8-0.2,1.3-0.8,2.1-1c0.1,0,0.2-0.1,0.3-0.3c0.2-0.4,0.8-0.6,1.2-0.5c0.4,0.1,0.8,0,0.9-0.4
			c0.2-0.2,0.4-0.4,0.7-0.4c0.5-0.1,1.1-0.2,1.6-0.4c0.9-0.3,1.8-0.7,2.6-1.2c0.2-0.2,0.5-0.3,0.7-0.3c0.2,0,0.5-0.1,0.7-0.1
			c0.7-0.2,1.4-0.5,2-0.9c0.2-0.1,0.4-0.3,0.6-0.4c0.2-0.1,0.4-0.2,0.6-0.4c0.2-0.2,0.4-0.3,0.7-0.3c0.4,0,0.8-0.2,1.1-0.5
			c0.2-0.3,0.6-0.4,0.9-0.2c0.3,0.1,0.7,0,0.9-0.3c0.4-0.4,0.9-0.7,1.5-0.9c0.2-0.1,0.4-0.3,0.4-0.5c0.2-0.8,0.2-1.6,0.2-2.4
			c0-0.3-0.1-0.6,0-0.9c0.1-0.3,0-0.6-0.3-0.8c-0.3-0.2-0.4-0.5-0.4-0.8c0-0.3-0.2-0.4-0.3-0.6c-0.4-0.4-0.9-0.7-1.4-1
			c-0.5-0.3-1-0.4-1.5-0.4c-0.5,0-0.9,0-1.4,0.1c-0.2,0-0.5,0.1-0.7,0.2c-0.5,0.3-1,0.5-1.6,0.4c-0.4,0-0.8,0.1-1.1,0.3
			c-0.4,0.3-0.9,0.5-1.5,0.5c-0.3,0-0.5,0.1-0.7,0.2c-0.3,0.3-0.6,0.4-1,0.4c-0.3,0-0.6,0.1-0.9,0.2c-0.4,0.2-0.9,0.3-1.4,0.3
			c-0.3,0-0.7,0.1-1,0.3c-0.4,0.3-0.8,0.4-1.3,0.3c-0.4-0.1-0.8,0.1-1,0.4c-0.2,0.3-0.5,0.4-0.8,0.4c-0.4,0-0.8,0-1.2-0.1
			c-0.3-0.1-0.7,0-1,0.2c-0.5,0.4-1.1,0.6-1.8,0.5c-0.7,0-0.9,0.2-0.8,0.9c0,0.6,0.1,1.1,0.1,1.7c0,0.3,0.1,0.5,0.4,0.7
			c0.2,0.2,0.4,0.5,0.4,0.7c0,0.6,0,1.2,0,1.8c-0.1,0.3,0.1,0.7,0.3,0.9c0.3,0.3,0.5,0.7,0.5,1.2L-1619.7-379.4z M-1616.1-371.5
			L-1616.1-371.5c0,0.3,0,0.6,0,1c0,0.4-0.3,0.7-0.7,0.8c-0.3,0.1-0.7,0.1-1,0.1c-0.7,0-0.9-0.1-1.1-0.8c-0.1-0.4-0.2-0.7-0.5-1
			c-0.1-0.1-0.2-0.3-0.2-0.5c0-0.2,0-0.5,0-0.7c0-0.6-0.4-1.1-0.9-1.3c-0.3-0.1-0.6-0.1-0.8,0.1c-0.1,0.1-0.3,0.3-0.5,0.3
			c-0.3,0.1-0.6,0.3-0.8,0.6c-0.2,0.2-0.4,0.3-0.7,0.3c-0.3,0-0.6,0.1-0.8,0.4c-0.2,0.2-0.5,0.4-0.8,0.4c-0.2,0-0.4,0.1-0.6,0.3
			c-0.2,0.2-0.3,0.4-0.6,0.4c-0.3,0-0.5,0.1-0.7,0.4c-0.2,0.3-0.6,0.4-1,0.4c-0.4,0-0.7,0.1-1,0.3c-0.8,0.5-1.8,0.9-2.7,1.1
			c-0.1,0-0.2,0-0.3,0.1c-0.2,0.3-0.6,0.5-0.9,0.5c-0.4,0.4-0.9,0.7-1.5,0.8c-0.2,0.1-0.4,0.2-0.6,0.4c-0.9,0.6-2,0.7-2.7,1.5
			c-0.1,0.1-0.3,0.2-0.4,0.2c-0.4,0.1-0.7,0.3-1,0.6c-0.1,0.2-0.3,0.2-0.6,0.2c-0.2,0-0.5,0-0.6,0.2c-0.2,0.2-0.5,0.3-0.8,0.3
			c-0.3,0-0.6,0.1-0.9,0.3c-0.6,0.3-1.2,0.7-1.7,1.2c-0.4,0.2-0.7,0.6-0.9,1.1c-0.1,0.4-0.2,0.7-0.5,0.9c-0.1,0.1-0.2,0.2-0.1,0.4
			c0.1,0.1,0.2,0.1,0.4,0.1c0.8,0.1,1.6-0.1,2.3-0.6c0.2-0.2,0.5-0.2,0.8-0.2c0.4,0,0.9,0,1.3,0c0.5,0,1-0.2,1.3-0.6
			c0.2-0.3,0.5-0.4,0.9-0.3c0.5,0.1,1.1,0.1,1.6,0c0.2,0,0.4,0,0.5-0.2c0.6-0.4,1.4-0.6,2.1-0.6c0.1,0,0.2,0,0.3,0
			c0.3,0,0.6-0.1,0.8-0.3c0.2-0.2,0.5-0.4,0.8-0.4c0.4,0,0.8-0.1,1.1-0.4c0.4-0.3,1-0.4,1.5-0.3c0.2,0.1,0.5,0,0.7,0
			c0.4-0.2,0.9-0.3,1.4-0.3c0.3,0,0.6-0.1,0.9-0.3c0.3-0.4,0.7-0.5,1.2-0.5c0.4,0,0.9-0.1,1.2-0.4c0.2-0.2,0.6-0.3,0.9-0.3
			c0.5,0.1,1-0.1,1.4-0.5c0.1-0.2,0.4-0.3,0.6-0.3c0.3,0.1,0.7-0.1,0.9-0.4c0.1-0.2,0.3-0.3,0.5-0.3c0.3-0.1,0.7,0,0.9-0.2
			c0.3-0.2,0.7-0.4,1.1-0.5c0.7-0.3,1.3-0.7,2-1c0.3-0.2,0.6-0.3,1-0.3c0.1,0,0.2,0,0.3-0.1c0.4-0.3,0.8-0.6,1.3-0.6
			c0.1-0.1,0.3-0.2,0.4-0.3c0.3-0.3,0.6-0.5,0.8-0.8c0.2-0.2,0.4-0.4,0.7-0.4c0.2,0,0.5-0.1,0.6-0.3c0.2-0.2,0.4-0.4,0.7-0.5
			c0.2-0.1,0.4-0.2,0.6-0.4c0.4-0.4,0.8-0.8,1.2-1.2c0.4-0.4,0.9-0.7,1.4-0.9c0.7-0.2,1.3-0.7,1.7-1.2c0.3-0.4,0.6-0.8,1-1.1
			c0.4-0.4,0.8-0.9,1-1.4c0.1-0.4,0.3-0.7,0.6-0.9c0.4-0.3,0.9-0.6,1.2-1c0.4-0.3,0.6-0.7,0.6-1.2c0-0.3-0.1-0.4-0.4-0.3
			c-0.3,0.2-0.7,0.3-1.1,0.4c-0.2,0-0.3,0.1-0.4,0.3c-0.2,0.2-0.4,0.4-0.7,0.4c-0.3,0-0.7,0.2-0.9,0.4c-0.2,0.3-0.6,0.4-1,0.4
			c-0.2,0-0.3,0-0.5,0.1c-0.4,0.2-0.8,0.3-1.3,0.4c-0.2,0-0.3,0.1-0.4,0.2c-0.2,0.3-0.6,0.4-0.9,0.4c-0.2,0-0.5,0.1-0.7,0.3
			c-0.4,0.3-0.8,0.5-1.3,0.5c-0.3,0-0.6,0.1-0.8,0.3c-0.2,0.3-0.6,0.5-1,0.5c-0.2,0-0.3,0.1-0.4,0.2c-0.3,0.3-0.8,0.5-1.2,0.5
			c-0.2,0-0.5-0.1-0.7,0.1c-0.3,0.4-0.8,0.6-1.3,0.7c-0.1,0-0.1,0.1-0.2,0.1c-0.3,0.3-0.6,0.4-1,0.5c-0.5,0.1-0.9,0.4-1.1,0.8
			c-0.2,0.2-0.1,0.5-0.2,0.8c-0.1,0.4,0.3,0.7,0.6,0.9c0.2,0.2,0.5,0.1,0.7,0c0,0,0.1,0,0.1-0.1c0.3-0.1,0.7,0,0.8,0.3
			c0,0.1,0,0.2,0,0.2C-1616.1-372-1616.1-371.8-1616.1-371.5L-1616.1-371.5z M-1549.8-416.7c-0.1-0.8-0.1-1.6-0.1-2.4
			c0-0.2,0-0.5,0-0.7c0-0.2-0.1-0.4-0.3-0.4c-0.2,0-0.3,0.1-0.4,0.2c-0.2,0.5-0.6,1-0.9,1.5c0,0,0,0.1,0,0.2c-0.2,0.7-0.5,1.4-1,2
			c-0.3,0.4-0.4,0.9-0.4,1.4c0.1,0.5,0,0.9-0.3,1.3c-0.2,0.3-0.3,0.6-0.3,1c0.1,0.4-0.1,0.7-0.4,1c-0.2,0.2-0.4,0.5-0.3,0.8
			c0,0.2,0,0.3,0,0.5c0,0.2-0.1,0.5-0.3,0.6c-0.4,0.2-0.7,0.7-0.5,1.2c0.1,0.4-0.1,0.9-0.4,1.2c-0.2,0.2-0.4,0.5-0.3,0.8
			c0,0.3-0.1,0.7-0.3,0.9c-0.3,0.3-0.5,0.8-0.4,1.2c0,0.2,0,0.3,0,0.5c0.1,0.5,0,1-0.4,1.3c-0.3,0.3-0.2,0.5,0.2,0.6
			c0.1,0,0.3,0,0.4,0c0.3-0.1,0.5-0.1,0.8-0.1c0.3,0,0.5-0.1,0.7-0.3c0.3-0.3,0.7-0.4,1.1-0.5c0.3,0,0.6-0.2,0.8-0.4
			c0.1-0.2,0.4-0.3,0.6-0.3c0.5,0,0.9-0.2,1.3-0.6c0.1-0.1,0.3-0.2,0.4-0.3c0.6,0,0.9-0.5,1.2-0.9c0.5-0.6,0.5-1.5,0-2.1
			c-0.2-0.2-0.3-0.5-0.4-0.8c-0.2-1.1-0.2-2.3,0-3.4c0.1-0.2,0-0.4,0-0.6c-0.2-0.5-0.2-1.1,0-1.6c0-0.2,0.1-0.4,0-0.6
			C-1549.8-415.1-1549.8-415.9-1549.8-416.7L-1549.8-416.7z M-1625.4-410.6c0,0.1,0,0.3,0,0.4c0,0.3,0.2,0.4,0.4,0.2
			c0.1,0,0.1-0.1,0.2-0.1c0.6-0.6,1.3-1.2,2-1.6c0.4-0.2,0.7-0.6,0.9-1c0.2-0.4,0.1-0.8-0.3-1.1c-0.3-0.1-0.6-0.1-0.8,0.2
			c-0.3,0.3-0.7,0.4-1.1,0.5c-0.7,0.2-1.2,0.7-1.4,1.4c-0.1,0.2-0.1,0.4,0,0.6C-1625.4-411-1625.4-410.8-1625.4-410.6z
			 M-1618.8-416.1c-0.2,0-0.5,0-0.7,0.1c-0.5,0.4-1,0.8-1.4,1.3c-0.2,0.2-0.2,0.5-0.1,0.8c0.2,0.2,0.6,0.2,0.8,0
			c0,0,0.1-0.1,0.1-0.1c0.6-0.5,1.1-1,1.5-1.7c0.1-0.1,0.2-0.3,0.1-0.4C-1618.6-416.1-1618.7-416.1-1618.8-416.1L-1618.8-416.1z
			 M-1580.9-402.8c0.1,0.4,0.4,0.8,0.8,0.9c0.2,0,0.3,0,0.4-0.2c0.3-0.4,0.2-0.9-0.2-1.1c-0.1,0-0.1-0.1-0.2-0.1
			C-1580.6-403.5-1580.9-403.3-1580.9-402.8L-1580.9-402.8z"/>
	</g>
</g>
</svg>
