<?xml version="1.0" encoding="utf-8"?>
<!-- Generator: Adobe Illustrator 23.0.1, SVG Export Plug-In . SVG Version: 6.00 Build 0)  -->
<svg version="1.1" id="Layer_1" xmlns="http://www.w3.org/2000/svg" xmlns:xlink="http://www.w3.org/1999/xlink" x="0px" y="0px"
	 viewBox="0 0 319.6 173" style="enable-background:new 0 0 319.6 173;" xml:space="preserve">
<style type="text/css">
	.st0{fill:#231F20;}
	.st1{fill:#BE1E2D;}
	.st2{fill:#EF5355;}
	.st3{fill:#FFFFFF;}
	.st4{fill:#EC1C24;}
	.st5{fill:#42BEED;stroke:#FFFFFF;stroke-width:8;stroke-miterlimit:10;}
	.st6{fill:#35B6E9;stroke:#FFFFFF;stroke-width:8;stroke-miterlimit:10;}
	.st7{fill:#59C4EF;stroke:#FFFFFF;stroke-width:8;stroke-miterlimit:10;}
	.st8{fill:#71CAED;stroke:#FFFFFF;stroke-width:8;stroke-miterlimit:10;}
	.st9{fill:#A0D9EF;stroke:#FFFFFF;stroke-width:8;stroke-miterlimit:10;}
	.st10{fill:#87D1ED;stroke:#FFFFFF;stroke-width:8;stroke-miterlimit:10;}
	.st11{fill:#2CA9E1;stroke:#FFFFFF;stroke-width:8;stroke-miterlimit:10;}
	.st12{fill:#2AAEE4;stroke:#FFFFFF;stroke-width:8;stroke-miterlimit:10;}
	.st13{fill:none;stroke:#FFFFFF;stroke-width:8;stroke-miterlimit:10;}
</style>
<path class="st2" d="M135.7,0H37.2C16.7,0,0,16.7,0,37.2v98.5C0,156.3,16.7,173,37.2,173h98.5c20.6,0,37.2-16.7,37.2-37.2V37.2
	C173,16.7,156.3,0,135.7,0z M71.2,120.7h-8.1V88H26.6v32.6h-8.1V51.3h8.1v29.5h36.5V51.3h8.1V120.7z M128.9,58.5H98.3v22.3h28.8V88
	H98.3v25.5h30.6v7.2H90.3V51.3h38.7V58.5z M152.4,120.7h-8.1V51.3h8.1V120.7z"/>
<path class="st3" d="M249,51.3v44.9c0,7.9-2.4,14.1-7.2,18.6c-4.8,4.5-11.3,6.8-19.7,6.8c-8.4,0-14.8-2.3-19.4-6.8
	c-4.6-4.6-6.9-10.8-6.9-18.8V51.3h8.1v45.3c0,5.8,1.6,10.2,4.7,13.3c3.2,3.1,7.8,4.6,13.9,4.6c5.9,0,10.4-1.6,13.5-4.7
	c3.2-3.1,4.7-7.6,4.7-13.4V51.3H249z"/>
<path class="st3" d="M313.5,120.7h-9.2l-18.6-30.5l-19,30.5h-8.5l23.1-36.2l-21.5-33.1h8.9l17.2,27.5l17.4-27.5h8.6l-21.5,32.8
	L313.5,120.7z"/>
</svg>
