<?xml version="1.0" encoding="utf-8"?>
<!-- Generator: Adobe Illustrator 23.0.1, SVG Export Plug-In . SVG Version: 6.00 Build 0)  -->
<svg version="1.1" id="Layer_1" xmlns="http://www.w3.org/2000/svg" xmlns:xlink="http://www.w3.org/1999/xlink" x="0px" y="0px"
	 viewBox="0 0 136.3 85.5" style="enable-background:new 0 0 136.3 85.5;" xml:space="preserve">
<style type="text/css">
	.st0{fill:#010101;}
	.st1{fill:#ED1C24;}
	.st2{fill:#FFFFFF;}
	.st3{fill:#F05455;}
	.st4{fill:#E6E7E8;}
	.st5{fill:#EA4753;}
	.st6{fill:#A31E22;}
</style>
<path class="st2" d="M11,0v35.8h41.4v9.6H11v40.1H0V0H11z M96.7,45.4H63.5v30.8h37.1v9.3H52.4V0h46.2v9.3H63.5v27h33.3V45.4z
	 M125.9,32.8v52.7h-11V32.8H125.9z"/>
<g transform="matrix(1,0,0,-1,37.966102,1343.4237)">
	<path class="st3" d="M82.3,1316.1c-0.3,0-0.6,0.1-0.8,0.3l-11.1,10.7c-0.1,0.1-0.3,0.2-0.5,0.5c-0.2,0.2-0.5,0.6-1,1.2
		c-0.5,0.6-0.9,1.1-1.2,1.7c-0.4,0.6-0.7,1.3-1,2.2c-0.3,0.8-0.4,1.7-0.4,2.5c0,2.6,0.8,4.7,2.3,6.1s3.6,2.2,6.3,2.2
		c0.7,0,1.5-0.1,2.3-0.4c0.8-0.3,1.5-0.6,2.1-1c0.7-0.4,1.2-0.8,1.7-1.2c0.5-0.4,0.9-0.8,1.4-1.2c0.4,0.4,0.9,0.8,1.4,1.2
		c0.5,0.4,1,0.8,1.7,1.2c0.7,0.4,1.4,0.8,2.1,1c0.8,0.3,1.5,0.4,2.3,0.4c2.7,0,4.7-0.7,6.3-2.2c1.5-1.5,2.3-3.5,2.3-6.1
		c0-2.6-1.4-5.3-4.1-8l-11.1-10.7C82.9,1316.2,82.6,1316.1,82.3,1316.1"/>
</g>
</svg>
