<?xml version="1.0" encoding="utf-8"?>
<!-- Generator: Adobe Illustrator 23.0.1, SVG Export Plug-In . SVG Version: 6.00 Build 0)  -->
<svg version="1.1" xmlns="http://www.w3.org/2000/svg" xmlns:xlink="http://www.w3.org/1999/xlink" x="0px" y="0px"
	 viewBox="0 0 360 485" style="enable-background:new 0 0 360 485;" xml:space="preserve">
<style type="text/css">
	.st0{enable-background:new    ;}
	.st1{fill:#F6F6F6;}
	.st2{fill:none;stroke:#808285;stroke-width:2;stroke-linecap:round;stroke-miterlimit:10;stroke-dasharray:3.008,5.0134;}
	.st3{fill:none;stroke:#231F20;stroke-width:2;stroke-linecap:round;stroke-miterlimit:10;}
	.st4{fill:#231F20;}
	.st5{fill-rule:evenodd;clip-rule:evenodd;fill:#6A6DAA;}
	.st6{fill:#FFFFFF;stroke:#231F20;stroke-miterlimit:10;}
	.st7{fill:#FFFFFF;}
	.st8{fill:none;stroke:#231F20;stroke-miterlimit:10;}
	.st9{fill:none;stroke:#231F20;stroke-width:0.25;stroke-miterlimit:10;}
	.st10{fill:#808285;}
	.st11{fill:#C0E7F1;}
	.st12{fill:#EBF7FA;}
	.st13{fill:#AED1EE;}
	.st14{fill:#6EA8DC;}
	.st15{fill:#4689AE;}
	.st16{fill:#F45245;}
	.st17{fill:#68E55E;}
	.st18{fill:#4A4A4A;}
	.st19{fill:#60B845;enable-background:new    ;}
	.st20{fill:#FBCD67;enable-background:new    ;}
	.st21{fill:#FAB828;enable-background:new    ;}
	.st22{fill:#F7831B;enable-background:new    ;}
	.st23{fill:#DF3B3E;enable-background:new    ;}
	.st24{fill:#089CDB;enable-background:new    ;}
	.st25{fill:#943A95;enable-background:new    ;}
	.st26{fill:url(#Silent_Button_2_);}
	.st27{fill:url(#Volume_Up_Button_2_);}
	.st28{fill:url(#Volume_Down_Button_2_);}
	.st29{fill:url(#Power_Button_2_);}
	.st30{fill:#000100;}
	.st31{fill:none;}
	.st32{fill:none;stroke:#FFFFFF;stroke-width:4;stroke-miterlimit:10;}
	.st33{opacity:0.801;fill:url(#Shadow_1_);enable-background:new    ;}
	.st34{opacity:0.801;fill:url(#Shadow-2_1_);enable-background:new    ;}
	.st35{opacity:0.403;fill:#ACACAC;enable-background:new    ;}
	.st36{fill:#202022;}
	.st37{fill:#133456;}
	.st38{fill:#2771BD;}
	.st39{fill:url(#Rectangle_1_);}
	.st40{fill:url(#_2_1_);}
	.st41{fill:url(#_1_1_);}
	.st42{fill:url(#_2-2_2_);}
	.st43{fill:url(#_1-2_2_);}
	.st44{fill:#AAAAAA;}
	.st45{clip-path:url(#SVGID_2_);}
	.st46{fill:url(#);}
	.st47{fill:#1F1F1F;stroke:#FFFFFF;stroke-miterlimit:10;}
	.st48{fill:#1A1A1A;stroke:#FFFFFF;stroke-miterlimit:10;}
	.st49{fill:#58595B;}
	.st50{fill:none;stroke:#939598;stroke-width:3;stroke-miterlimit:10;}
	.st51{fill:#939598;}
	.st52{fill:none;stroke:#939598;stroke-width:2;stroke-miterlimit:10;}
	.st53{fill:none;stroke:#808285;stroke-width:2;stroke-linecap:round;stroke-miterlimit:10;stroke-dasharray:2.9721,4.9535;}
	.st54{fill:none;stroke:#808285;stroke-width:2;stroke-linecap:round;stroke-miterlimit:10;stroke-dasharray:3.0448,5.0747;}
	.st55{clip-path:url(#SVGID_8_);}
	.st56{clip-path:url(#SVGID_10_);}
	.st57{clip-path:url(#SVGID_12_);}
	.st58{clip-path:url(#SVGID_14_);}
	.st59{clip-path:url(#SVGID_16_);}
	.st60{clip-path:url(#SVGID_18_);}
	.st61{fill-rule:evenodd;clip-rule:evenodd;fill:#58595B;}
	.st62{fill:#2AF73C;stroke:#FFFFFF;}
	.st63{fill:none;stroke:#58595B;stroke-width:0.1;}
	.st64{fill:#6D6E71;}
</style>
<symbol  id="Circle" viewBox="-121 -121 242 242">
	<g class="st0">
		<circle class="st1" cx="0" cy="0" r="120"/>
		<circle class="st2" cx="0" cy="0" r="120"/>
	</g>
	<circle class="st3" cx="0" cy="0" r="11"/>
	<circle class="st4" cx="0" cy="0" r="3"/>
</symbol>
<g id="Layer_1">
	<g>
		<g>
			<line class="st50" x1="75.4" y1="136.4" x2="207.9" y2="136.4"/>
			<g>
				<polygon class="st51" points="198,148.7 195.9,146.5 206.8,136.4 195.9,126.3 198,124.1 211.2,136.4 				"/>
			</g>
		</g>
	</g>
	<g>
		<g>
			<line class="st50" x1="284.6" y1="138.5" x2="284.6" y2="271"/>
			<g>
				<polygon class="st51" points="272.3,261 274.5,259 284.6,269.8 294.7,259 296.9,261 284.6,274.2 				"/>
			</g>
		</g>
	</g>
	<g>
		<g>
			<line class="st50" x1="74.7" y1="346.8" x2="74.7" y2="214.3"/>
			<g>
				<polygon class="st51" points="87,224.3 84.8,226.3 74.7,215.5 64.7,226.3 62.5,224.3 74.7,211.1 				"/>
			</g>
		</g>
	</g>
	
		<use xlink:href="#Circle"  width="242" height="242" id="XMLID_13_" x="-121" y="-121" transform="matrix(0.6174 0 0 -0.6174 74.7381 136.413)" style="overflow:visible;"/>
	
		<use xlink:href="#Circle"  width="242" height="242" id="XMLID_12_" x="-121" y="-121" transform="matrix(0.6174 0 0 -0.6174 285.2619 136.413)" style="overflow:visible;"/>
	<g>
		<g>
			<line class="st50" x1="284.6" y1="348.9" x2="152.1" y2="348.9"/>
			<g>
				<polygon class="st51" points="162,336.7 164.1,338.9 153.2,348.9 164.1,359 162,361.2 148.8,348.9 				"/>
			</g>
		</g>
	</g>
	
		<use xlink:href="#Circle"  width="242" height="242" id="XMLID_15_" x="-121" y="-121" transform="matrix(0.6174 0 0 -0.6174 74.7381 348.9255)" style="overflow:visible;"/>
	
		<use xlink:href="#Circle"  width="242" height="242" id="XMLID_14_" x="-121" y="-121" transform="matrix(0.6174 0 0 -0.6174 285.2619 348.9255)" style="overflow:visible;"/>
	<g>
		<rect y="4" class="st31" width="180" height="28.7"/>
		<path d="M66.7,8.3h-7.3v18.6h-3V8.3h-7.2V5.5h17.5V8.3z"/>
		<path d="M72.8,26.8H70V4h2.8v9c1.4-2.1,3.3-3.1,5.7-3.1c1.8,0,3.2,0.6,4.3,1.7c1,1.1,1.6,2.7,1.6,4.6v10.7h-2.8V16.7
			c0-2.9-1.2-4.3-3.7-4.3c-1.5,0-2.7,0.5-3.6,1.4s-1.4,2.2-1.4,3.7V26.8z"/>
		<path d="M91.9,6.9h-2.8V4h2.8V6.9z M91.9,26.8h-2.8V10.2h2.8V26.8z"/>
		<path d="M99.6,26.8h-2.8V10.2h2.8v2.8c1.4-2.1,3.3-3.1,5.7-3.1c1.8,0,3.2,0.6,4.3,1.7c1,1.1,1.6,2.7,1.6,4.6v10.7h-2.8V16.7
			c0-2.9-1.2-4.3-3.7-4.3c-1.5,0-2.7,0.5-3.6,1.4c-1,1-1.4,2.2-1.4,3.7V26.8z"/>
		<path d="M118.8,18.8l8.4-8.6h3.5l-6.7,6.8l7.6,9.8H128l-6-8l-3.2,3.2v4.7H116V4h2.8V18.8z"/>
	</g>
	<g>
		<rect x="180" y="4" class="st31" width="180" height="28.7"/>
		<path d="M228.3,26.8h-8.3V5.5h8.3c3.2,0,5.7,1,7.6,3c1.8,2,2.8,4.5,2.8,7.7c0,3.1-0.9,5.7-2.8,7.7
			C234.1,25.8,231.6,26.8,228.3,26.8z M223.1,24.1h5.2c2.3,0,4.1-0.7,5.3-2.1c1.2-1.4,1.9-3.3,1.9-5.8c0-2.4-0.6-4.4-1.9-5.8
			c-1.2-1.4-3-2.1-5.3-2.1h-5.2V24.1z"/>
		<path d="M257.7,18.1c0,0.4,0,0.8-0.1,1.1h-13.1c0.1,1.7,0.6,3,1.6,4c1,1,2.3,1.5,4,1.5c1.9,0,3.6-0.7,4.9-2.2l1.9,1.8
			c-1.8,1.9-4.1,2.9-6.8,2.9c-2.6,0-4.7-0.8-6.2-2.4c-1.5-1.6-2.3-3.7-2.3-6.2c0-2.5,0.7-4.6,2.2-6.3s3.5-2.5,5.9-2.5
			c2.4,0,4.3,0.8,5.8,2.4C257,13.7,257.7,15.7,257.7,18.1z M244.7,17h10.2c-0.1-1.5-0.7-2.7-1.6-3.6s-2.1-1.3-3.5-1.3
			c-1.4,0-2.6,0.4-3.5,1.3S244.8,15.6,244.7,17z"/>
		<path d="M274.2,21.9c0,1.6-0.6,2.9-1.8,3.9s-2.9,1.5-5,1.5c-3.3,0-5.8-1.2-7.4-3.6l2-1.5c1.3,1.8,3.1,2.7,5.5,2.7
			c1.2,0,2.1-0.2,2.8-0.7c0.7-0.5,1.1-1.1,1.1-2c0-0.8-0.3-1.3-1-1.6c-0.6-0.3-1.8-0.6-3.6-1c-1.9-0.4-3.4-0.9-4.4-1.6
			s-1.5-1.8-1.5-3.3c0-1.6,0.6-2.8,1.8-3.6s2.7-1.2,4.4-1.2c2.7,0,5,0.9,6.8,2.8l-1.9,1.8c-1.2-1.4-2.9-2.1-4.9-2.1
			c-1,0-1.8,0.2-2.5,0.6c-0.7,0.4-1,0.9-1,1.7c0,0.3,0.1,0.6,0.2,0.9s0.3,0.5,0.5,0.6c0.2,0.2,0.5,0.3,0.9,0.4
			c0.4,0.1,0.8,0.2,1.1,0.3c0.3,0.1,0.7,0.1,1.3,0.3c0.8,0.1,1.5,0.3,2,0.4c0.5,0.1,1.1,0.3,1.7,0.6s1.1,0.5,1.5,0.9
			c0.4,0.3,0.7,0.7,0.9,1.3C274.1,20.6,274.2,21.2,274.2,21.9z"/>
		<path d="M280.8,6.9h-2.8V4h2.8V6.9z M280.8,26.8h-2.8V10.2h2.8V26.8z"/>
		<path d="M301.2,10.2v14c0,2.6-0.6,4.6-1.8,6c-1.5,1.7-3.8,2.6-7,2.6c-2.7,0-5-0.7-6.9-2l1.4-2.3c1.6,1.2,3.5,1.7,5.6,1.7
			c1.8,0,3.3-0.4,4.4-1.3s1.6-2.3,1.6-4.1v-1.8c-0.6,1-1.5,1.8-2.6,2.3c-1.1,0.5-2.3,0.8-3.5,0.8c-2.2,0-4-0.8-5.4-2.3
			c-1.4-1.5-2.1-3.5-2.1-5.8c0-2.3,0.7-4.3,2.2-5.8c1.4-1.5,3.3-2.3,5.5-2.3c2.7,0,4.7,1,6,3.1v-2.8H301.2z M298.4,17.9
			c0-1.6-0.5-2.9-1.4-4c-1-1-2.3-1.6-4-1.6c-1.7,0-3,0.5-3.9,1.6c-0.9,1-1.4,2.4-1.4,4c0,1.6,0.5,3,1.4,4c0.9,1.1,2.2,1.6,3.9,1.6
			c1.7,0,3-0.5,4-1.6C298,20.9,298.4,19.5,298.4,17.9z"/>
		<path d="M309,26.8h-2.8V10.2h2.8v2.8c1.4-2.1,3.3-3.1,5.7-3.1c1.8,0,3.2,0.6,4.3,1.7s1.6,2.7,1.6,4.6v10.7h-2.8V16.7
			c0-2.9-1.2-4.3-3.7-4.3c-1.5,0-2.7,0.5-3.6,1.4s-1.4,2.2-1.4,3.7V26.8z"/>
	</g>
	<g>
		<rect x="180" y="36.6" class="st31" width="180" height="20.9"/>
		<path class="st49" d="M233.3,50.8l0.2,1.5c-0.4,0.1-0.8,0.2-1.3,0.2c-0.6,0-1.1-0.2-1.5-0.5c-0.4-0.3-0.6-0.8-0.7-1.4
			c-0.9,1.3-2.2,1.9-3.9,1.9c-1.2,0-2.1-0.3-2.8-0.9c-0.7-0.6-1.1-1.5-1.1-2.6c0-0.5,0.1-1,0.3-1.4s0.4-0.7,0.6-0.9
			c0.3-0.2,0.6-0.4,1-0.6c0.4-0.2,0.7-0.3,1-0.4c0.3-0.1,0.7-0.1,1.1-0.2c0.1,0,0.4,0,0.7-0.1c0.3,0,0.6-0.1,0.8-0.1
			s0.4-0.1,0.6-0.1c0.3-0.1,0.5-0.1,0.6-0.2c0.1-0.1,0.3-0.2,0.4-0.3c0.2-0.1,0.3-0.2,0.3-0.4c0.1-0.2,0.1-0.3,0.1-0.5
			c0-0.6-0.3-1-0.8-1.3c-0.5-0.3-1.1-0.4-1.8-0.4c-1.3,0-2.5,0.4-3.6,1.2l-0.9-1.5c1.4-1,2.9-1.5,4.6-1.5c1.4,0,2.4,0.3,3.2,0.9
			c0.8,0.6,1.2,1.6,1.2,2.8v5.4c0,0.8,0.3,1.2,0.9,1.2C232.9,50.9,233.1,50.9,233.3,50.8z M229.8,47.9v-2c-0.1,0.2-0.3,0.3-0.5,0.5
			c-0.2,0.1-0.4,0.2-0.6,0.3c-0.3,0.1-0.5,0.1-0.6,0.2c-0.2,0-0.4,0.1-0.8,0.1c-0.4,0.1-0.6,0.1-0.8,0.1c-0.8,0.1-1.4,0.3-1.8,0.6
			c-0.4,0.3-0.6,0.7-0.6,1.4s0.2,1.1,0.7,1.5c0.4,0.3,1,0.5,1.7,0.5c0.9,0,1.7-0.3,2.3-0.8C229.5,49.7,229.8,48.9,229.8,47.9z"/>
		<path class="st49" d="M237.4,52.3h-1.9V40.8h1.9v1.9c1-1.4,2.3-2.2,3.9-2.2c1.2,0,2.2,0.4,2.9,1.1c0.7,0.8,1.1,1.8,1.1,3.2v7.4
			h-1.9v-6.9c0-2-0.9-3-2.6-3c-1,0-1.8,0.3-2.5,1c-0.7,0.7-1,1.5-1,2.6V52.3z"/>
		<path class="st49" d="M259.2,52.3h-1.9v-1.9c-1,1.4-2.4,2.1-4.1,2.1c-1.6,0-2.9-0.6-3.8-1.7c-1-1.1-1.4-2.6-1.4-4.3
			c0-1.7,0.5-3.2,1.4-4.3s2.2-1.7,3.8-1.7c1.7,0,3.1,0.7,4.1,2.2v-6.2h1.9V52.3z M256.3,49.6c0.7-0.8,1-1.8,1-3c0-1.2-0.3-2.2-1-3
			c-0.7-0.8-1.6-1.2-2.7-1.2c-1.2,0-2,0.4-2.7,1.2c-0.6,0.8-0.9,1.8-0.9,3c0,1.2,0.3,2.2,0.9,3c0.6,0.8,1.5,1.2,2.7,1.2
			C254.7,50.8,255.6,50.4,256.3,49.6z"/>
		<path class="st49" d="M268.5,36.6h1.9v6.2c1-1.4,2.4-2.2,4.1-2.2c1.6,0,2.9,0.6,3.8,1.7c1,1.1,1.4,2.6,1.4,4.3
			c0,1.7-0.5,3.2-1.4,4.3c-1,1.1-2.2,1.7-3.8,1.7c-1.7,0-3.1-0.7-4.1-2.1v1.9h-1.9V36.6z M271.4,43.5c-0.6,0.8-1,1.8-1,3
			c0,1.2,0.3,2.2,1,3s1.6,1.2,2.7,1.2c1.2,0,2-0.4,2.7-1.2c0.6-0.8,0.9-1.8,0.9-3c0-1.2-0.3-2.2-0.9-3c-0.6-0.8-1.5-1.2-2.7-1.2
			C273,42.3,272.1,42.7,271.4,43.5z"/>
		<path class="st49" d="M290.3,40.8h1.9v11.4h-1.9v-1.9c-1,1.4-2.3,2.1-3.9,2.1c-1.2,0-2.2-0.4-2.9-1.1c-0.7-0.8-1.1-1.8-1.1-3.2
			v-7.4h1.9v7c0,2,0.8,3,2.5,3c1,0,1.8-0.3,2.5-1c0.7-0.7,1-1.5,1-2.6V40.8z"/>
		<path class="st49" d="M297.5,38.6h-1.9v-2h1.9V38.6z M297.5,52.3h-1.9V40.8h1.9V52.3z"/>
		<path class="st49" d="M302.9,52.3H301V36.6h1.9V52.3z"/>
		<path class="st49" d="M316.9,52.3H315v-1.9c-1,1.4-2.4,2.1-4.1,2.1c-1.6,0-2.9-0.6-3.8-1.7c-1-1.1-1.4-2.6-1.4-4.3
			c0-1.7,0.5-3.2,1.4-4.3c1-1.1,2.2-1.7,3.8-1.7c1.7,0,3.1,0.7,4.1,2.2v-6.2h1.9V52.3z M314.1,49.6c0.7-0.8,1-1.8,1-3
			c0-1.2-0.3-2.2-1-3s-1.6-1.2-2.7-1.2c-1.2,0-2,0.4-2.7,1.2c-0.6,0.8-0.9,1.8-0.9,3c0,1.2,0.3,2.2,0.9,3s1.5,1.2,2.7,1.2
			C312.5,50.8,313.4,50.4,314.1,49.6z"/>
	</g>
	<g>
		<rect x="90.9" y="213.5" class="st31" width="179" height="21.4"/>
		<path class="st49" d="M115.5,227.6c1,0,1.8-0.3,2.4-0.8c0.6-0.5,0.9-1.3,0.9-2.3c0-0.9-0.3-1.7-0.9-2.2c-0.6-0.5-1.4-0.8-2.4-0.8
			c-1.3,0-2.4,0.5-3.1,1.4l-1.3-0.6l0.5-7.7h8.4v1.9h-6.8l-0.4,4.2c0.9-0.6,1.9-0.9,3.1-0.9c1.4,0,2.6,0.4,3.5,1.3
			c0.9,0.9,1.4,2,1.4,3.4c0,1.4-0.5,2.6-1.5,3.6c-1,1-2.3,1.5-3.9,1.5c-2.4,0-4.2-0.9-5.2-2.8l1.7-1
			C112.7,226.9,113.9,227.6,115.5,227.6z"/>
		<path class="st49" d="M140.2,229.2h-1.9v-1.9c-1,1.4-2.4,2.1-4.1,2.1c-1.6,0-2.9-0.6-3.8-1.7c-1-1.1-1.4-2.6-1.4-4.3
			c0-1.7,0.5-3.2,1.4-4.3c1-1.1,2.2-1.7,3.8-1.7c1.7,0,3.1,0.7,4.1,2.2v-6.2h1.9V229.2z M137.3,226.5c0.7-0.8,1-1.8,1-3
			c0-1.2-0.3-2.2-1-3s-1.6-1.2-2.7-1.2c-1.2,0-2,0.4-2.7,1.2s-0.9,1.8-0.9,3c0,1.2,0.3,2.2,0.9,3s1.5,1.2,2.7,1.2
			C135.8,227.7,136.7,227.3,137.3,226.5z"/>
		<path class="st49" d="M153.9,227.7l0.2,1.5c-0.4,0.1-0.8,0.2-1.3,0.2c-0.6,0-1.1-0.2-1.5-0.5c-0.4-0.3-0.6-0.8-0.7-1.4
			c-0.9,1.3-2.2,1.9-3.9,1.9c-1.2,0-2.1-0.3-2.8-0.9s-1.1-1.5-1.1-2.6c0-0.5,0.1-1,0.3-1.4c0.2-0.4,0.4-0.7,0.6-0.9
			c0.3-0.2,0.6-0.4,1-0.6c0.4-0.2,0.7-0.3,1-0.4c0.3-0.1,0.7-0.1,1.1-0.2c0.1,0,0.4,0,0.7-0.1c0.3,0,0.6-0.1,0.8-0.1
			c0.2,0,0.4-0.1,0.6-0.1s0.5-0.1,0.6-0.2c0.1-0.1,0.3-0.2,0.4-0.3c0.2-0.1,0.3-0.2,0.3-0.4c0.1-0.2,0.1-0.3,0.1-0.5
			c0-0.6-0.3-1-0.8-1.3c-0.5-0.3-1.1-0.4-1.8-0.4c-1.3,0-2.5,0.4-3.6,1.2l-0.9-1.5c1.4-1,2.9-1.5,4.6-1.5c1.4,0,2.4,0.3,3.2,0.9
			s1.2,1.6,1.2,2.8v5.4c0,0.8,0.3,1.2,0.9,1.2C153.5,227.9,153.8,227.8,153.9,227.7z M150.4,224.8v-2c-0.1,0.2-0.3,0.3-0.5,0.5
			c-0.2,0.1-0.4,0.2-0.6,0.3s-0.5,0.1-0.6,0.2c-0.2,0-0.4,0.1-0.8,0.1c-0.4,0.1-0.6,0.1-0.8,0.1c-0.8,0.1-1.4,0.3-1.8,0.6
			c-0.4,0.3-0.6,0.7-0.6,1.4s0.2,1.1,0.7,1.5c0.4,0.3,1,0.5,1.7,0.5c0.9,0,1.7-0.3,2.3-0.8C150.1,226.6,150.4,225.8,150.4,224.8z"/>
		<path class="st49" d="M165.6,217.7l-4.6,12c-0.5,1.2-1,2.1-1.6,2.7c-0.6,0.6-1.4,0.8-2.4,0.8c-0.9,0-1.7-0.2-2.3-0.7l0.8-1.4
			c0.4,0.3,0.9,0.4,1.4,0.4c0.5,0,0.9-0.2,1.2-0.5c0.3-0.3,0.6-0.7,0.8-1.3l0.3-0.7l-4.8-11.4h2.2l3.7,8.9l3.2-8.9H165.6z"/>
		<path class="st49" d="M176.3,225.8c0,1.1-0.4,2-1.3,2.7c-0.8,0.7-2,1-3.4,1c-2.3,0-4-0.8-5.1-2.4l1.4-1.1c0.9,1.2,2.1,1.8,3.8,1.8
			c0.8,0,1.5-0.2,1.9-0.5c0.5-0.3,0.7-0.8,0.7-1.4c0-0.5-0.2-0.9-0.7-1.1c-0.4-0.2-1.3-0.4-2.5-0.7c-1.3-0.2-2.3-0.6-3-1.1
			c-0.7-0.5-1.1-1.2-1.1-2.2c0-1.1,0.4-1.9,1.2-2.5c0.8-0.6,1.8-0.9,3-0.9c1.9,0,3.4,0.6,4.6,1.9l-1.3,1.2c-0.9-1-2-1.5-3.4-1.5
			c-0.7,0-1.2,0.1-1.7,0.4s-0.7,0.6-0.7,1.2c0,0.2,0.1,0.4,0.2,0.6c0.1,0.2,0.2,0.3,0.4,0.4s0.4,0.2,0.6,0.3
			c0.3,0.1,0.5,0.2,0.8,0.2s0.5,0.1,0.9,0.2c0.6,0.1,1,0.2,1.4,0.3c0.4,0.1,0.7,0.2,1.2,0.4c0.4,0.2,0.8,0.4,1,0.6
			c0.2,0.2,0.5,0.5,0.6,0.9C176.2,224.9,176.3,225.3,176.3,225.8z"/>
		<path class="st49" d="M189.8,214.3c1.1,0,2.2,0.2,3.1,0.7s1.7,1.1,2.4,1.9l-1.6,1.1c-0.9-1.3-2.3-1.9-4-1.9
			c-0.9,0-1.6,0.2-2.1,0.5c-0.6,0.3-0.8,0.9-0.8,1.6c0,0.3,0.1,0.6,0.2,0.8c0.1,0.2,0.3,0.4,0.4,0.6s0.4,0.3,0.8,0.4
			c0.4,0.1,0.6,0.2,0.9,0.3c0.2,0.1,0.6,0.1,1.1,0.3c0.7,0.2,1.2,0.3,1.7,0.4c0.4,0.1,0.9,0.3,1.4,0.5c0.5,0.2,0.9,0.5,1.2,0.8
			c0.3,0.3,0.6,0.6,0.8,1.1c0.2,0.4,0.3,1,0.3,1.5c0,1.3-0.5,2.4-1.5,3.3c-1,0.8-2.4,1.2-4,1.2c-1.3,0-2.5-0.3-3.6-0.8
			c-1-0.5-1.8-1.3-2.4-2.2l1.7-1.1c1,1.5,2.4,2.3,4.4,2.3c1,0,1.8-0.2,2.4-0.7c0.6-0.4,0.9-1.1,0.9-1.8c0-0.3,0-0.5-0.1-0.7
			c-0.1-0.2-0.2-0.4-0.4-0.6c-0.2-0.2-0.4-0.3-0.5-0.4c-0.2-0.1-0.4-0.2-0.8-0.3c-0.4-0.1-0.7-0.2-0.9-0.3s-0.6-0.1-1.1-0.3
			c-0.7-0.1-1.3-0.3-1.8-0.5c-0.5-0.2-1-0.4-1.5-0.7c-0.5-0.3-0.9-0.7-1.1-1.2s-0.4-1.1-0.4-1.7c0-1.3,0.5-2.3,1.4-3
			C187,214.6,188.3,214.3,189.8,214.3z"/>
		<path class="st49" d="M198.2,217.7h1.9v1.9c1-1.4,2.4-2.2,4.1-2.2c1.6,0,2.9,0.6,3.8,1.7c1,1.1,1.4,2.6,1.4,4.3
			c0,1.7-0.5,3.2-1.4,4.3c-1,1.1-2.2,1.7-3.8,1.7c-1.7,0-3.1-0.7-4.1-2.1v5.7h-1.9V217.7z M201.1,220.5c-0.6,0.8-1,1.8-1,3
			c0,1.2,0.3,2.2,1,3c0.7,0.8,1.6,1.2,2.7,1.2c1.2,0,2-0.4,2.7-1.2c0.6-0.8,0.9-1.8,0.9-3s-0.3-2.2-0.9-3s-1.5-1.2-2.7-1.2
			C202.7,219.3,201.8,219.7,201.1,220.5z"/>
		<path class="st49" d="M219,217.9l-0.6,1.8c-0.4-0.2-0.9-0.4-1.3-0.4c-0.8,0-1.5,0.3-2.1,1s-0.9,1.6-0.9,2.8v6h-1.9v-11.4h1.9v1.9
			c0.9-1.4,2-2.2,3.3-2.2C218,217.5,218.5,217.7,219,217.9z"/>
		<path class="st49" d="M222.7,215.5h-1.9v-2h1.9V215.5z M222.7,229.2h-1.9v-11.4h1.9V229.2z"/>
		<path class="st49" d="M228.1,229.2h-1.9v-11.4h1.9v1.9c1-1.4,2.3-2.2,3.9-2.2c1.2,0,2.2,0.4,2.9,1.1c0.7,0.8,1.1,1.8,1.1,3.2v7.4
			h-1.9v-6.9c0-2-0.9-3-2.6-3c-1,0-1.8,0.3-2.5,1s-1,1.5-1,2.6V229.2z"/>
		<path class="st49" d="M249.9,217.7v9.6c0,1.8-0.4,3.2-1.2,4.1c-1,1.2-2.6,1.8-4.8,1.8c-1.8,0-3.4-0.5-4.8-1.4l1-1.6
			c1.1,0.8,2.4,1.2,3.8,1.2c1.2,0,2.2-0.3,3-0.9c0.7-0.6,1.1-1.6,1.1-2.8v-1.2c-0.4,0.7-1,1.2-1.8,1.6s-1.5,0.5-2.4,0.5
			c-1.5,0-2.8-0.5-3.7-1.6c-1-1-1.4-2.4-1.4-4c0-1.6,0.5-3,1.5-4c1-1.1,2.2-1.6,3.8-1.6c1.8,0,3.2,0.7,4.1,2.2v-1.9H249.9z M248,223
			c0-1.1-0.3-2-1-2.7s-1.6-1.1-2.8-1.1c-1.2,0-2,0.4-2.7,1.1s-0.9,1.6-0.9,2.7c0,1.1,0.3,2,0.9,2.8s1.5,1.1,2.7,1.1s2.1-0.4,2.7-1.1
			C247.6,225.1,248,224.2,248,223z"/>
	</g>
	<g>
		<rect x="52.7" y="237.6" class="st31" width="254.7" height="48.1"/>
		<path class="st4" d="M118.7,253.3h-2.4l-7.7-12.1v12.1h-2v-14.7h2.6l7.5,11.8v-11.8h2V253.3z"/>
		<path class="st4" d="M132.8,247.3c0,0.3,0,0.5,0,0.7h-9c0.1,1.2,0.4,2.1,1.1,2.8s1.6,1,2.7,1c1.3,0,2.5-0.5,3.4-1.5l1.3,1.3
			c-1.2,1.3-2.8,2-4.7,2c-1.8,0-3.2-0.6-4.3-1.7c-1-1.1-1.6-2.5-1.6-4.3c0-1.7,0.5-3.2,1.5-4.3c1-1.1,2.4-1.7,4.1-1.7
			c1.6,0,3,0.5,4,1.6C132.3,244.3,132.8,245.6,132.8,247.3z M123.8,246.6h7c-0.1-1.1-0.5-1.9-1.1-2.5c-0.6-0.6-1.4-0.9-2.4-0.9
			c-1,0-1.8,0.3-2.4,0.9C124.2,244.8,123.8,245.6,123.8,246.6z"/>
		<path class="st4" d="M145,253.3h-2.3l-3.3-4.6l-3.3,4.6h-2.3l4.4-6l-4-5.5h2.3l2.9,4.2l2.9-4.2h2.3l-4,5.5L145,253.3z"/>
		<path class="st4" d="M152.9,251.3l0.8,1.5c-0.7,0.5-1.5,0.8-2.5,0.8c-1.4,0-2.4-0.5-3-1.5c-0.3-0.5-0.5-1.3-0.5-2.3v-6.4h-2v-1.6
			h2v-3.2h1.9v3.2h3.7v1.6h-3.7v6.4c0,1.3,0.6,2,1.8,2C152,251.8,152.4,251.6,152.9,251.3z"/>
		<path class="st4" d="M163.9,253.3h-2v-14.7h2V253.3z"/>
		<path class="st4" d="M173.5,251.3l0.8,1.5c-0.7,0.5-1.5,0.8-2.5,0.8c-1.4,0-2.4-0.5-3-1.5c-0.3-0.5-0.5-1.3-0.5-2.3v-6.4h-2v-1.6
			h2v-3.2h1.9v3.2h3.7v1.6h-3.7v6.4c0,1.3,0.6,2,1.8,2C172.6,251.8,173.1,251.6,173.5,251.3z"/>
		<path class="st4" d="M186.6,247.3c0,0.3,0,0.5,0,0.7h-9c0.1,1.2,0.4,2.1,1.1,2.8s1.6,1,2.7,1c1.3,0,2.5-0.5,3.4-1.5l1.3,1.3
			c-1.2,1.3-2.8,2-4.7,2c-1.8,0-3.2-0.6-4.3-1.7c-1-1.1-1.6-2.5-1.6-4.3c0-1.7,0.5-3.2,1.5-4.3c1-1.1,2.4-1.7,4.1-1.7
			c1.6,0,3,0.5,4,1.6C186.1,244.3,186.6,245.6,186.6,247.3z M177.7,246.6h7c-0.1-1.1-0.5-1.9-1.1-2.5c-0.6-0.6-1.4-0.9-2.4-0.9
			c-1,0-1.8,0.3-2.4,0.9C178.1,244.8,177.7,245.6,177.7,246.6z"/>
		<path class="st4" d="M196,242l-0.6,1.8c-0.4-0.2-0.9-0.4-1.3-0.4c-0.8,0-1.5,0.3-2.1,1c-0.6,0.7-0.9,1.6-0.9,2.8v6h-1.9v-11.4h1.9
			v1.9c0.9-1.4,2-2.2,3.3-2.2C195.1,241.6,195.6,241.8,196,242z"/>
		<path class="st4" d="M208.1,251.8l0.2,1.5c-0.4,0.1-0.8,0.2-1.3,0.2c-0.6,0-1.1-0.2-1.5-0.5c-0.4-0.3-0.6-0.8-0.7-1.4
			c-0.9,1.3-2.2,1.9-3.9,1.9c-1.2,0-2.1-0.3-2.8-0.9c-0.7-0.6-1.1-1.5-1.1-2.6c0-0.5,0.1-1,0.3-1.4s0.4-0.7,0.6-0.9
			c0.3-0.2,0.6-0.4,1-0.6c0.4-0.2,0.7-0.3,1-0.4c0.3-0.1,0.7-0.1,1.1-0.2c0.1,0,0.4,0,0.7-0.1c0.3,0,0.6-0.1,0.8-0.1
			c0.2,0,0.4-0.1,0.6-0.1c0.3-0.1,0.5-0.1,0.6-0.2c0.1-0.1,0.3-0.2,0.4-0.3c0.2-0.1,0.3-0.2,0.3-0.4c0.1-0.2,0.1-0.3,0.1-0.5
			c0-0.6-0.3-1-0.8-1.3c-0.5-0.3-1.1-0.4-1.8-0.4c-1.3,0-2.5,0.4-3.6,1.2l-0.9-1.5c1.4-1,2.9-1.5,4.6-1.5c1.4,0,2.4,0.3,3.2,0.9
			c0.8,0.6,1.2,1.6,1.2,2.8v5.4c0,0.8,0.3,1.2,0.9,1.2C207.7,252,207.9,251.9,208.1,251.8z M204.6,248.9v-2
			c-0.1,0.2-0.3,0.3-0.5,0.5c-0.2,0.1-0.4,0.2-0.6,0.3c-0.3,0.1-0.5,0.1-0.6,0.2c-0.2,0-0.4,0.1-0.8,0.1c-0.4,0.1-0.6,0.1-0.8,0.1
			c-0.8,0.1-1.4,0.3-1.8,0.6c-0.4,0.3-0.6,0.7-0.6,1.4s0.2,1.1,0.7,1.5c0.4,0.3,1,0.5,1.7,0.5c0.9,0,1.7-0.3,2.3-0.8
			S204.6,249.9,204.6,248.9z"/>
		<path class="st4" d="M216.2,251.3l0.8,1.5c-0.7,0.5-1.5,0.8-2.5,0.8c-1.4,0-2.4-0.5-3-1.5c-0.3-0.5-0.5-1.3-0.5-2.3v-6.4h-2v-1.6
			h2v-3.2h1.9v3.2h3.7v1.6h-3.7v6.4c0,1.3,0.6,2,1.8,2C215.3,251.8,215.7,251.6,216.2,251.3z"/>
		<path class="st4" d="M220.9,239.6H219v-2h1.9V239.6z M220.9,253.3H219v-11.4h1.9V253.3z"/>
		<path class="st4" d="M234.9,247.6c0,1.7-0.5,3.2-1.5,4.3c-1,1.1-2.4,1.7-4.1,1.7c-1.7,0-3.1-0.6-4.1-1.7c-1-1.1-1.5-2.5-1.5-4.3
			c0-1.8,0.5-3.2,1.5-4.3c1-1.1,2.4-1.7,4.1-1.7c1.7,0,3.1,0.6,4.1,1.7C234.3,244.4,234.9,245.8,234.9,247.6z M232.8,247.6
			c0-1.2-0.3-2.3-1-3.1c-0.6-0.8-1.5-1.2-2.6-1.2s-2,0.4-2.6,1.2c-0.6,0.8-1,1.8-1,3.1c0,1.2,0.3,2.2,1,3c0.6,0.8,1.5,1.2,2.6,1.2
			s2-0.4,2.6-1.2C232.5,249.8,232.8,248.8,232.8,247.6z"/>
		<path class="st4" d="M239.5,253.3h-1.9v-11.4h1.9v1.9c1-1.4,2.3-2.2,3.9-2.2c1.2,0,2.2,0.4,2.9,1.1c0.7,0.8,1.1,1.8,1.1,3.2v7.4
			h-1.9v-6.9c0-2-0.9-3-2.6-3c-1,0-1.8,0.3-2.5,1c-0.7,0.7-1,1.5-1,2.6V253.3z"/>
		<path class="st4" d="M253.4,244.2H251v-2.3h2.4V244.2z M253.4,253.3H251V251h2.4V253.3z"/>
		<path class="st4" d="M156.2,279.7h-2.3l-3.1-5.9h-4.2v5.9h-2.1V265h6.4c1.5,0,2.7,0.4,3.6,1.2s1.3,1.8,1.3,3.1
			c0,1-0.3,1.8-0.8,2.5c-0.5,0.7-1.3,1.2-2.2,1.6L156.2,279.7z M153.6,269.5c0-0.8-0.3-1.4-0.8-1.9s-1.2-0.7-2.1-0.7h-4.3v5.1h4.4
			c0.8,0,1.5-0.2,2-0.7S153.6,270.2,153.6,269.5z"/>
		<path class="st4" d="M168.9,273.7c0,0.3,0,0.5,0,0.7h-9c0.1,1.2,0.4,2.1,1.1,2.8c0.7,0.7,1.6,1,2.7,1c1.3,0,2.5-0.5,3.4-1.5
			l1.3,1.3c-1.2,1.3-2.8,2-4.7,2c-1.8,0-3.2-0.6-4.3-1.7c-1-1.1-1.6-2.5-1.6-4.3c0-1.7,0.5-3.2,1.5-4.3c1-1.1,2.4-1.7,4.1-1.7
			c1.6,0,3,0.5,4,1.6C168.4,270.7,168.9,272,168.9,273.7z M159.9,273h7c-0.1-1.1-0.5-1.9-1.1-2.5c-0.6-0.6-1.4-0.9-2.4-0.9
			c-1,0-1.8,0.3-2.4,0.9C160.3,271.2,160,272,159.9,273z"/>
		<path class="st4" d="M171.4,268.2h1.9v1.9c1-1.4,2.4-2.2,4.1-2.2c1.6,0,2.9,0.6,3.8,1.7c1,1.1,1.4,2.6,1.4,4.3s-0.5,3.2-1.4,4.3
			c-1,1.1-2.2,1.7-3.8,1.7c-1.7,0-3.1-0.7-4.1-2.1v5.7h-1.9V268.2z M174.3,271c-0.6,0.8-1,1.8-1,3c0,1.2,0.3,2.2,1,3
			c0.7,0.8,1.6,1.2,2.7,1.2c1.2,0,2-0.4,2.7-1.2c0.6-0.8,0.9-1.8,0.9-3c0-1.2-0.3-2.2-0.9-3s-1.5-1.2-2.7-1.2
			C175.9,269.8,175,270.2,174.3,271z"/>
		<path class="st4" d="M195.7,273.7c0,0.3,0,0.5,0,0.7h-9c0.1,1.2,0.4,2.1,1.1,2.8c0.7,0.7,1.6,1,2.7,1c1.3,0,2.5-0.5,3.4-1.5
			l1.3,1.3c-1.2,1.3-2.8,2-4.7,2c-1.8,0-3.2-0.6-4.3-1.7c-1-1.1-1.6-2.5-1.6-4.3c0-1.7,0.5-3.2,1.5-4.3c1-1.1,2.4-1.7,4.1-1.7
			c1.6,0,3,0.5,4,1.6S195.7,272,195.7,273.7z M186.7,273h7c-0.1-1.1-0.5-1.9-1.1-2.5c-0.6-0.6-1.4-0.9-2.4-0.9c-1,0-1.8,0.3-2.4,0.9
			C187.1,271.2,186.8,272,186.7,273z"/>
		<path class="st4" d="M208.5,278.2l0.2,1.5c-0.4,0.1-0.8,0.2-1.3,0.2c-0.6,0-1.1-0.2-1.5-0.5s-0.6-0.8-0.7-1.4
			c-0.9,1.3-2.2,1.9-3.9,1.9c-1.2,0-2.1-0.3-2.8-0.9c-0.7-0.6-1.1-1.5-1.1-2.6c0-0.5,0.1-1,0.3-1.4c0.2-0.4,0.4-0.7,0.6-0.9
			c0.3-0.2,0.6-0.4,1-0.6c0.4-0.2,0.7-0.3,1-0.4c0.3-0.1,0.7-0.1,1.1-0.2c0.1,0,0.4,0,0.7-0.1c0.3,0,0.6-0.1,0.8-0.1
			c0.2,0,0.4-0.1,0.6-0.1c0.3-0.1,0.5-0.1,0.6-0.2s0.3-0.2,0.4-0.3c0.2-0.1,0.3-0.2,0.3-0.4c0.1-0.2,0.1-0.3,0.1-0.5
			c0-0.6-0.3-1-0.8-1.3c-0.5-0.3-1.1-0.4-1.8-0.4c-1.3,0-2.5,0.4-3.6,1.2l-0.9-1.5c1.4-1,2.9-1.5,4.6-1.5c1.4,0,2.4,0.3,3.2,0.9
			s1.2,1.6,1.2,2.8v5.4c0,0.8,0.3,1.2,0.9,1.2C208.1,278.4,208.3,278.3,208.5,278.2z M205,275.3v-2c-0.1,0.2-0.3,0.3-0.5,0.5
			c-0.2,0.1-0.4,0.2-0.6,0.3s-0.5,0.1-0.6,0.2c-0.2,0-0.4,0.1-0.8,0.1c-0.4,0.1-0.6,0.1-0.8,0.1c-0.8,0.1-1.4,0.3-1.8,0.6
			c-0.4,0.3-0.6,0.7-0.6,1.4c0,0.6,0.2,1.1,0.7,1.5c0.4,0.3,1,0.5,1.7,0.5c0.9,0,1.7-0.3,2.3-0.8C204.7,277.1,205,276.3,205,275.3z"
			/>
		<path class="st4" d="M216.5,277.7l0.8,1.5c-0.7,0.5-1.5,0.8-2.5,0.8c-1.4,0-2.4-0.5-3-1.5c-0.3-0.5-0.5-1.3-0.5-2.3v-6.4h-2v-1.6
			h2V265h1.9v3.2h3.7v1.6h-3.7v6.4c0,1.3,0.6,2,1.8,2C215.6,278.2,216.1,278,216.5,277.7z"/>
	</g>
	<g>
		<rect y="36.6" class="st31" width="180" height="20.9"/>
		<path class="st49" d="M51.9,50.8l0.2,1.5c-0.4,0.1-0.8,0.2-1.3,0.2c-0.6,0-1.1-0.2-1.5-0.5s-0.6-0.8-0.7-1.4
			c-0.9,1.3-2.2,1.9-3.9,1.9c-1.2,0-2.1-0.3-2.8-0.9c-0.7-0.6-1.1-1.5-1.1-2.6c0-0.5,0.1-1,0.3-1.4s0.4-0.7,0.6-0.9
			c0.3-0.2,0.6-0.4,1-0.6c0.4-0.2,0.7-0.3,1-0.4c0.3-0.1,0.7-0.1,1.1-0.2c0.1,0,0.4,0,0.7-0.1c0.3,0,0.6-0.1,0.8-0.1
			c0.2,0,0.4-0.1,0.6-0.1c0.3-0.1,0.5-0.1,0.6-0.2c0.1-0.1,0.3-0.2,0.4-0.3c0.2-0.1,0.3-0.2,0.3-0.4c0.1-0.2,0.1-0.3,0.1-0.5
			c0-0.6-0.3-1-0.8-1.3c-0.5-0.3-1.1-0.4-1.8-0.4c-1.3,0-2.5,0.4-3.6,1.2L41.3,42c1.4-1,2.9-1.5,4.6-1.5c1.4,0,2.4,0.3,3.2,0.9
			c0.8,0.6,1.2,1.6,1.2,2.8v5.4c0,0.8,0.3,1.2,0.9,1.2C51.5,50.9,51.7,50.9,51.9,50.8z M48.4,47.9v-2c-0.1,0.2-0.3,0.3-0.5,0.5
			c-0.2,0.1-0.4,0.2-0.6,0.3s-0.5,0.1-0.6,0.2s-0.4,0.1-0.8,0.1c-0.4,0.1-0.6,0.1-0.8,0.1c-0.8,0.1-1.4,0.3-1.8,0.6
			c-0.4,0.3-0.6,0.7-0.6,1.4s0.2,1.1,0.7,1.5c0.4,0.3,1,0.5,1.7,0.5c0.9,0,1.7-0.3,2.3-0.8S48.4,48.9,48.4,47.9z"/>
		<path class="st49" d="M56,52.3h-1.9V40.8H56v1.9c1-1.4,2.3-2.2,3.9-2.2c1.2,0,2.2,0.4,2.9,1.1c0.7,0.8,1.1,1.8,1.1,3.2v7.4H62
			v-6.9c0-2-0.9-3-2.6-3c-1,0-1.8,0.3-2.5,1c-0.7,0.7-1,1.5-1,2.6V52.3z"/>
		<path class="st49" d="M77.8,52.3h-1.9v-1.9c-1,1.4-2.4,2.1-4.1,2.1c-1.6,0-2.9-0.6-3.8-1.7c-1-1.1-1.4-2.6-1.4-4.3
			c0-1.7,0.5-3.2,1.4-4.3c1-1.1,2.2-1.7,3.8-1.7c1.7,0,3.1,0.7,4.1,2.2v-6.2h1.9V52.3z M74.9,49.6c0.7-0.8,1-1.8,1-3
			c0-1.2-0.3-2.2-1-3s-1.6-1.2-2.7-1.2c-1.2,0-2,0.4-2.7,1.2c-0.6,0.8-0.9,1.8-0.9,3c0,1.2,0.3,2.2,0.9,3s1.5,1.2,2.7,1.2
			C73.3,50.8,74.2,50.4,74.9,49.6z"/>
		<path class="st49" d="M95.9,48.9c0,1.1-0.4,2-1.3,2.7c-0.8,0.7-2,1-3.4,1c-2.3,0-4-0.8-5.1-2.4l1.4-1.1c0.9,1.2,2.1,1.8,3.8,1.8
			c0.8,0,1.5-0.2,1.9-0.5S94,49.6,94,49c0-0.5-0.2-0.9-0.7-1.1c-0.4-0.2-1.3-0.4-2.5-0.7c-1.3-0.2-2.3-0.6-3-1.1
			c-0.7-0.5-1.1-1.2-1.1-2.2c0-1.1,0.4-1.9,1.2-2.5c0.8-0.6,1.8-0.9,3-0.9c1.9,0,3.4,0.6,4.6,1.9l-1.3,1.2c-0.9-1-2-1.5-3.4-1.5
			c-0.7,0-1.2,0.1-1.7,0.4c-0.5,0.3-0.7,0.6-0.7,1.2c0,0.2,0.1,0.4,0.2,0.6c0.1,0.2,0.2,0.3,0.4,0.4c0.1,0.1,0.4,0.2,0.6,0.3
			c0.3,0.1,0.5,0.2,0.8,0.2s0.5,0.1,0.9,0.2c0.6,0.1,1,0.2,1.4,0.3c0.4,0.1,0.7,0.2,1.2,0.4c0.4,0.2,0.8,0.4,1,0.6
			c0.2,0.2,0.5,0.5,0.6,0.9C95.8,48,95.9,48.4,95.9,48.9z"/>
		<path class="st49" d="M109.1,46.6c0,1.7-0.5,3.2-1.5,4.3c-1,1.1-2.4,1.7-4.1,1.7c-1.7,0-3.1-0.6-4.1-1.7c-1-1.1-1.5-2.5-1.5-4.3
			c0-1.8,0.5-3.2,1.5-4.3c1-1.1,2.4-1.7,4.1-1.7c1.7,0,3.1,0.6,4.1,1.7C108.5,43.4,109.1,44.8,109.1,46.6z M107,46.6
			c0-1.2-0.3-2.3-1-3.1c-0.6-0.8-1.5-1.2-2.6-1.2c-1.1,0-2,0.4-2.6,1.2c-0.6,0.8-1,1.8-1,3.1c0,1.2,0.3,2.2,1,3s1.5,1.2,2.6,1.2
			c1.1,0,2-0.4,2.6-1.2C106.7,48.8,107,47.8,107,46.6z"/>
		<path class="st49" d="M113.7,52.3h-1.9V36.6h1.9V52.3z"/>
		<path class="st49" d="M127,40.8l-4.6,11.4h-2l-4.6-11.4h2.2l3.5,9.2l3.5-9.2H127z"/>
		<path class="st49" d="M139.2,46.3c0,0.3,0,0.5,0,0.7h-9c0.1,1.2,0.4,2.1,1.1,2.8c0.7,0.7,1.6,1,2.7,1c1.3,0,2.5-0.5,3.4-1.5
			l1.3,1.3c-1.2,1.3-2.8,2-4.7,2c-1.8,0-3.2-0.6-4.3-1.7s-1.6-2.5-1.6-4.3c0-1.7,0.5-3.2,1.5-4.3c1-1.1,2.4-1.7,4.1-1.7
			c1.6,0,3,0.5,4,1.6C138.7,43.3,139.2,44.6,139.2,46.3z M130.2,45.5h7c-0.1-1.1-0.5-1.9-1.1-2.5c-0.6-0.6-1.4-0.9-2.4-0.9
			c-1,0-1.8,0.3-2.4,0.9C130.7,43.8,130.3,44.6,130.2,45.5z"/>
	</g>
	<g>
		<rect y="429.9" class="st31" width="180" height="28.7"/>
		<path d="M47.2,452.7h-3v-21.3h3V452.7z"/>
		<path d="M67.9,452.7h-2.8V450c-1.5,2.1-3.4,3.1-5.9,3.1c-2.3,0-4.2-0.8-5.6-2.5c-1.4-1.6-2.1-3.7-2.1-6.2c0-2.5,0.7-4.6,2.1-6.3
			c1.4-1.6,3.2-2.5,5.6-2.5c2.5,0,4.4,1,5.9,3.1v-9h2.8V452.7z M63.7,448.8c0.9-1.2,1.4-2.6,1.4-4.4s-0.5-3.2-1.4-4.4
			c-0.9-1.2-2.3-1.7-4-1.7c-1.7,0-3,0.6-3.9,1.7c-0.9,1.1-1.3,2.6-1.3,4.4s0.4,3.3,1.3,4.4c0.9,1.2,2.2,1.7,3.9,1.7
			C61.4,450.6,62.7,450,63.7,448.8z"/>
		<path d="M87.9,444c0,0.4,0,0.8-0.1,1.1H74.8c0.1,1.7,0.6,3,1.6,4s2.3,1.5,4,1.5c1.9,0,3.6-0.7,4.9-2.2l1.9,1.8
			c-1.8,1.9-4.1,2.9-6.8,2.9c-2.6,0-4.7-0.8-6.2-2.4c-1.5-1.6-2.3-3.7-2.3-6.2c0-2.5,0.7-4.6,2.2-6.3c1.5-1.7,3.5-2.5,5.9-2.5
			c2.4,0,4.3,0.8,5.8,2.4C87.2,439.7,87.9,441.6,87.9,444z M74.8,442.9H85c-0.1-1.5-0.7-2.7-1.6-3.6c-0.9-0.8-2.1-1.3-3.5-1.3
			c-1.4,0-2.6,0.4-3.5,1.3C75.5,440.3,74.9,441.5,74.8,442.9z"/>
		<path d="M106.5,450.6l0.4,2.1c-0.5,0.2-1.2,0.3-1.9,0.3c-0.9,0-1.6-0.2-2.2-0.7c-0.6-0.4-0.9-1.1-1.1-2c-1.3,1.9-3.2,2.8-5.7,2.8
			c-1.7,0-3.1-0.4-4.1-1.3c-1-0.9-1.5-2.1-1.5-3.7c0-0.7,0.1-1.4,0.4-2c0.3-0.6,0.6-1,0.9-1.4c0.4-0.3,0.8-0.6,1.4-0.9
			c0.6-0.2,1.1-0.4,1.5-0.5c0.4-0.1,1-0.2,1.5-0.3c0.2,0,0.6-0.1,1.1-0.1c0.5-0.1,0.9-0.1,1.1-0.1c0.2,0,0.5-0.1,0.9-0.2
			s0.7-0.2,0.9-0.3c0.2-0.1,0.4-0.2,0.6-0.4s0.4-0.4,0.5-0.6c0.1-0.2,0.1-0.5,0.1-0.8c0-0.9-0.4-1.5-1.1-1.9
			c-0.7-0.4-1.6-0.6-2.7-0.6c-1.9,0-3.6,0.6-5.2,1.8l-1.3-2.1c2-1.4,4.3-2.1,6.7-2.1c2,0,3.6,0.4,4.7,1.3c1.2,0.9,1.7,2.3,1.7,4.1
			v7.9c0,1.2,0.4,1.8,1.3,1.8C106,450.8,106.3,450.7,106.5,450.6z M101.5,446.3v-2.9c-0.2,0.3-0.4,0.5-0.7,0.7
			c-0.2,0.2-0.6,0.3-0.9,0.4c-0.4,0.1-0.7,0.2-0.9,0.2c-0.2,0.1-0.6,0.1-1.1,0.2s-0.9,0.1-1.2,0.2c-1.2,0.2-2,0.5-2.6,0.8
			c-0.6,0.4-0.9,1-0.9,2s0.3,1.6,1,2.1c0.6,0.5,1.5,0.7,2.5,0.7c1.3,0,2.5-0.4,3.4-1.1C101,448.9,101.5,447.8,101.5,446.3z"/>
		<path d="M118.3,449.9l1.2,2.1c-1,0.7-2.2,1.1-3.6,1.1c-2,0-3.5-0.7-4.4-2.1c-0.5-0.7-0.7-1.8-0.7-3.3v-9.3h-2.9v-2.3h2.9v-4.7h2.8
			v4.7h5.4v2.3h-5.4v9.3c0,1.9,0.9,2.9,2.6,2.9C116.9,450.6,117.7,450.4,118.3,449.9z"/>
		<path d="M137.4,444c0,0.4,0,0.8-0.1,1.1h-13.1c0.1,1.7,0.6,3,1.6,4c1,1,2.3,1.5,4,1.5c1.9,0,3.6-0.7,4.9-2.2l1.9,1.8
			c-1.8,1.9-4.1,2.9-6.8,2.9c-2.6,0-4.7-0.8-6.2-2.4c-1.5-1.6-2.3-3.7-2.3-6.2c0-2.5,0.7-4.6,2.2-6.3s3.5-2.5,5.9-2.5
			c2.4,0,4.3,0.8,5.8,2.4C136.7,439.7,137.4,441.6,137.4,444z M124.3,442.9h10.2c-0.1-1.5-0.7-2.7-1.6-3.6s-2.1-1.3-3.5-1.3
			c-1.4,0-2.6,0.4-3.5,1.3C125,440.3,124.4,441.5,124.3,442.9z"/>
	</g>
	<g>
		<rect x="0.2" y="462.5" class="st31" width="179.8" height="20.9"/>
		<path class="st49" d="M58.5,476.7l0.2,1.5c-0.4,0.1-0.8,0.2-1.3,0.2c-0.6,0-1.1-0.2-1.5-0.5c-0.4-0.3-0.6-0.8-0.7-1.4
			c-0.9,1.3-2.2,1.9-3.9,1.9c-1.2,0-2.1-0.3-2.8-0.9c-0.7-0.6-1.1-1.5-1.1-2.6c0-0.5,0.1-1,0.3-1.4c0.2-0.4,0.4-0.7,0.6-0.9
			c0.3-0.2,0.6-0.4,1-0.6c0.4-0.2,0.7-0.3,1-0.4c0.3-0.1,0.7-0.1,1.1-0.2c0.1,0,0.4,0,0.7-0.1s0.6-0.1,0.8-0.1
			c0.2,0,0.4-0.1,0.6-0.1c0.3-0.1,0.5-0.1,0.6-0.2c0.1-0.1,0.3-0.2,0.4-0.3c0.2-0.1,0.3-0.2,0.3-0.4s0.1-0.3,0.1-0.5
			c0-0.6-0.3-1-0.8-1.3c-0.5-0.3-1.1-0.4-1.8-0.4c-1.3,0-2.5,0.4-3.6,1.2l-0.9-1.5c1.4-1,2.9-1.5,4.6-1.5c1.4,0,2.4,0.3,3.2,0.9
			c0.8,0.6,1.2,1.6,1.2,2.8v5.4c0,0.8,0.3,1.2,0.9,1.2C58.1,476.9,58.3,476.8,58.5,476.7z M55,473.8v-2c-0.1,0.2-0.3,0.3-0.5,0.5
			c-0.2,0.1-0.4,0.2-0.6,0.3c-0.3,0.1-0.5,0.1-0.6,0.2c-0.2,0-0.4,0.1-0.8,0.1s-0.6,0.1-0.8,0.1c-0.8,0.1-1.4,0.3-1.8,0.6
			c-0.4,0.3-0.6,0.7-0.6,1.4s0.2,1.1,0.7,1.5s1,0.5,1.7,0.5c0.9,0,1.7-0.3,2.3-0.8C54.7,475.6,55,474.8,55,473.8z"/>
		<path class="st49" d="M62.6,478.2h-1.9v-11.4h1.9v1.9c1-1.4,2.3-2.2,3.9-2.2c1.2,0,2.2,0.4,2.9,1.1c0.7,0.8,1.1,1.8,1.1,3.2v7.4
			h-1.9v-6.9c0-2-0.9-3-2.6-3c-1,0-1.8,0.3-2.5,1c-0.7,0.7-1,1.5-1,2.6V478.2z"/>
		<path class="st49" d="M84.4,478.2h-1.9v-1.9c-1,1.4-2.4,2.1-4.1,2.1c-1.6,0-2.9-0.6-3.8-1.7c-1-1.1-1.4-2.6-1.4-4.3
			c0-1.7,0.5-3.2,1.4-4.3c1-1.1,2.2-1.7,3.8-1.7c1.7,0,3.1,0.7,4.1,2.2v-6.2h1.9V478.2z M81.5,475.5c0.7-0.8,1-1.8,1-3
			c0-1.2-0.3-2.2-1-3s-1.6-1.2-2.7-1.2c-1.2,0-2,0.4-2.7,1.2c-0.6,0.8-0.9,1.8-0.9,3s0.3,2.2,0.9,3c0.6,0.8,1.5,1.2,2.7,1.2
			C79.9,476.7,80.8,476.3,81.5,475.5z"/>
		<path class="st49" d="M99.6,476.2l0.8,1.5c-0.7,0.5-1.5,0.8-2.5,0.8c-1.4,0-2.4-0.5-3-1.5c-0.3-0.5-0.5-1.3-0.5-2.3v-6.4h-2v-1.6
			h2v-3.2h1.9v3.2h3.7v1.6h-3.7v6.4c0,1.3,0.6,2,1.8,2C98.7,476.7,99.1,476.5,99.6,476.2z"/>
		<path class="st49" d="M112.7,472.2c0,0.3,0,0.5,0,0.7h-9c0.1,1.2,0.4,2.1,1.1,2.8c0.7,0.7,1.6,1,2.7,1c1.3,0,2.5-0.5,3.4-1.5
			l1.3,1.3c-1.2,1.3-2.8,2-4.7,2c-1.8,0-3.2-0.6-4.3-1.7c-1-1.1-1.6-2.5-1.6-4.3c0-1.7,0.5-3.2,1.5-4.3c1-1.1,2.4-1.7,4.1-1.7
			c1.6,0,3,0.5,4,1.6C112.2,469.2,112.7,470.5,112.7,472.2z M103.7,471.4h7c-0.1-1.1-0.5-1.9-1.1-2.5c-0.6-0.6-1.4-0.9-2.4-0.9
			c-1,0-1.8,0.3-2.4,0.9S103.8,470.5,103.7,471.4z"/>
		<path class="st49" d="M124,474.8c0,1.1-0.4,2-1.3,2.7c-0.8,0.7-2,1-3.4,1c-2.3,0-4-0.8-5.1-2.4l1.4-1.1c0.9,1.2,2.1,1.8,3.8,1.8
			c0.8,0,1.5-0.2,1.9-0.5s0.7-0.8,0.7-1.4c0-0.5-0.2-0.9-0.7-1.1c-0.4-0.2-1.3-0.4-2.5-0.7c-1.3-0.2-2.3-0.6-3-1.1
			c-0.7-0.5-1.1-1.2-1.1-2.2c0-1.1,0.4-1.9,1.2-2.5c0.8-0.6,1.8-0.9,3-0.9c1.9,0,3.4,0.6,4.6,1.9l-1.3,1.2c-0.9-1-2-1.5-3.4-1.5
			c-0.7,0-1.2,0.1-1.7,0.4c-0.5,0.3-0.7,0.6-0.7,1.2c0,0.2,0.1,0.4,0.2,0.6s0.2,0.3,0.4,0.4c0.1,0.1,0.4,0.2,0.6,0.3
			c0.3,0.1,0.5,0.2,0.8,0.2c0.2,0,0.5,0.1,0.9,0.2c0.6,0.1,1,0.2,1.4,0.3s0.7,0.2,1.2,0.4c0.4,0.2,0.8,0.4,1,0.6
			c0.2,0.2,0.5,0.5,0.6,0.9S124,474.3,124,474.8z"/>
		<path class="st49" d="M132.5,476.2l0.8,1.5c-0.7,0.5-1.5,0.8-2.5,0.8c-1.4,0-2.4-0.5-3-1.5c-0.3-0.5-0.5-1.3-0.5-2.3v-6.4h-2v-1.6
			h2v-3.2h1.9v3.2h3.7v1.6h-3.7v6.4c0,1.3,0.6,2,1.8,2C131.6,476.7,132.1,476.5,132.5,476.2z"/>
	</g>
	<g>
		<rect x="180" y="429.9" class="st31" width="180" height="28.7"/>
		<path d="M229.4,452.7h-2.9v-18.2l-6.9,18.2h-2.6l-7-18.2v18.2H207v-21.3h4.5l6.8,17.6l6.8-17.6h4.4V452.7z"/>
		<path d="M249.8,444c0,0.4,0,0.8-0.1,1.1h-13.1c0.1,1.7,0.6,3,1.6,4c1,1,2.3,1.5,4,1.5c1.9,0,3.6-0.7,4.9-2.2l1.9,1.8
			c-1.8,1.9-4.1,2.9-6.8,2.9c-2.6,0-4.7-0.8-6.2-2.4c-1.5-1.6-2.3-3.7-2.3-6.2c0-2.5,0.7-4.6,2.2-6.3s3.5-2.5,5.9-2.5
			c2.4,0,4.3,0.8,5.8,2.4C249,439.7,249.8,441.6,249.8,444z M236.7,442.9h10.2c-0.1-1.5-0.7-2.7-1.6-3.6s-2.1-1.3-3.5-1.3
			c-1.4,0-2.6,0.4-3.5,1.3C237.3,440.3,236.8,441.5,236.7,442.9z"/>
		<path d="M268.4,450.6l0.4,2.1c-0.5,0.2-1.2,0.3-1.9,0.3c-0.9,0-1.6-0.2-2.2-0.7c-0.6-0.4-0.9-1.1-1.1-2c-1.3,1.9-3.2,2.8-5.7,2.8
			c-1.7,0-3.1-0.4-4.1-1.3c-1-0.9-1.5-2.1-1.5-3.7c0-0.7,0.1-1.4,0.4-2c0.3-0.6,0.6-1,0.9-1.4s0.8-0.6,1.4-0.9
			c0.6-0.2,1.1-0.4,1.5-0.5s1-0.2,1.5-0.3c0.2,0,0.6-0.1,1.1-0.1c0.5-0.1,0.9-0.1,1.1-0.1c0.2,0,0.5-0.1,0.9-0.2
			c0.4-0.1,0.7-0.2,0.9-0.3c0.2-0.1,0.4-0.2,0.6-0.4c0.2-0.2,0.4-0.4,0.5-0.6s0.1-0.5,0.1-0.8c0-0.9-0.4-1.5-1.1-1.9
			c-0.7-0.4-1.6-0.6-2.7-0.6c-1.9,0-3.6,0.6-5.2,1.8l-1.3-2.1c2-1.4,4.3-2.1,6.7-2.1c2,0,3.6,0.4,4.7,1.3c1.2,0.9,1.7,2.3,1.7,4.1
			v7.9c0,1.2,0.4,1.8,1.3,1.8C267.9,450.8,268.2,450.7,268.4,450.6z M263.3,446.3v-2.9c-0.2,0.3-0.4,0.5-0.7,0.7
			c-0.2,0.2-0.6,0.3-0.9,0.4c-0.4,0.1-0.7,0.2-0.9,0.2c-0.2,0.1-0.6,0.1-1.1,0.2s-0.9,0.1-1.2,0.2c-1.2,0.2-2,0.5-2.6,0.8
			c-0.6,0.4-0.9,1-0.9,2s0.3,1.6,1,2.1c0.6,0.5,1.5,0.7,2.5,0.7c1.3,0,2.5-0.4,3.4-1.1C262.9,448.9,263.3,447.8,263.3,446.3z"/>
		<path d="M284.4,447.8c0,1.6-0.6,2.9-1.8,3.9s-2.9,1.5-5,1.5c-3.3,0-5.8-1.2-7.4-3.6l2-1.5c1.3,1.8,3.1,2.7,5.5,2.7
			c1.2,0,2.1-0.2,2.8-0.7c0.7-0.5,1.1-1.1,1.1-2c0-0.8-0.3-1.3-1-1.6c-0.6-0.3-1.8-0.6-3.6-1c-1.9-0.4-3.4-0.9-4.4-1.6
			c-1-0.7-1.5-1.8-1.5-3.3c0-1.6,0.6-2.8,1.8-3.6s2.7-1.2,4.4-1.2c2.7,0,5,0.9,6.8,2.8l-1.9,1.8c-1.2-1.4-2.9-2.1-4.9-2.1
			c-1,0-1.8,0.2-2.5,0.6c-0.7,0.4-1,0.9-1,1.7c0,0.3,0.1,0.6,0.2,0.9s0.3,0.5,0.5,0.6c0.2,0.2,0.5,0.3,0.9,0.4
			c0.4,0.1,0.8,0.2,1.1,0.3c0.3,0.1,0.7,0.1,1.3,0.3c0.8,0.1,1.5,0.3,2,0.4c0.5,0.1,1.1,0.3,1.7,0.6c0.6,0.3,1.1,0.5,1.5,0.9
			c0.4,0.3,0.7,0.7,0.9,1.3C284.2,446.5,284.4,447.1,284.4,447.8z"/>
		<path d="M299.6,436.1h2.8v16.6h-2.8V450c-1.5,2.1-3.4,3.1-5.7,3.1c-1.8,0-3.2-0.6-4.3-1.7c-1-1.1-1.6-2.6-1.6-4.6v-10.8h2.8v10.1
			c0,2.9,1.2,4.3,3.7,4.3c1.5,0,2.7-0.5,3.6-1.4s1.4-2.2,1.4-3.7V436.1z"/>
		<path d="M317.2,436.4l-0.9,2.7c-0.6-0.3-1.3-0.5-1.9-0.5c-1.2,0-2.2,0.5-3,1.5s-1.3,2.3-1.3,4v8.7h-2.8v-16.6h2.8v2.8
			c1.3-2.1,2.9-3.1,4.8-3.1C315.8,435.8,316.6,436,317.2,436.4z"/>
		<path d="M334.6,444c0,0.4,0,0.8-0.1,1.1h-13.1c0.1,1.7,0.6,3,1.6,4s2.3,1.5,4,1.5c1.9,0,3.6-0.7,4.9-2.2l1.9,1.8
			c-1.8,1.9-4.1,2.9-6.8,2.9c-2.6,0-4.7-0.8-6.2-2.4c-1.5-1.6-2.3-3.7-2.3-6.2c0-2.5,0.7-4.6,2.2-6.3s3.5-2.5,5.9-2.5
			c2.4,0,4.3,0.8,5.8,2.4C333.9,439.7,334.6,441.6,334.6,444z M321.6,442.9h10.2c-0.1-1.5-0.7-2.7-1.6-3.6c-0.9-0.8-2.1-1.3-3.5-1.3
			c-1.4,0-2.6,0.4-3.5,1.3C322.2,440.3,321.7,441.5,321.6,442.9z"/>
	</g>
	<g>
		<rect x="180" y="462.5" class="st31" width="180" height="20.9"/>
		<path class="st49" d="M232.9,476.7l0.2,1.5c-0.4,0.1-0.8,0.2-1.3,0.2c-0.6,0-1.1-0.2-1.5-0.5c-0.4-0.3-0.6-0.8-0.7-1.4
			c-0.9,1.3-2.2,1.9-3.9,1.9c-1.2,0-2.1-0.3-2.8-0.9c-0.7-0.6-1.1-1.5-1.1-2.6c0-0.5,0.1-1,0.3-1.4c0.2-0.4,0.4-0.7,0.6-0.9
			c0.3-0.2,0.6-0.4,1-0.6c0.4-0.2,0.7-0.3,1-0.4c0.3-0.1,0.7-0.1,1.1-0.2c0.1,0,0.4,0,0.7-0.1c0.3,0,0.6-0.1,0.8-0.1
			c0.2,0,0.4-0.1,0.6-0.1c0.3-0.1,0.5-0.1,0.6-0.2c0.1-0.1,0.3-0.2,0.4-0.3c0.2-0.1,0.3-0.2,0.3-0.4c0.1-0.2,0.1-0.3,0.1-0.5
			c0-0.6-0.3-1-0.8-1.3c-0.5-0.3-1.1-0.4-1.8-0.4c-1.3,0-2.5,0.4-3.6,1.2l-0.9-1.5c1.4-1,2.9-1.5,4.6-1.5c1.4,0,2.4,0.3,3.2,0.9
			c0.8,0.6,1.2,1.6,1.2,2.8v5.4c0,0.8,0.3,1.2,0.9,1.2C232.5,476.9,232.7,476.8,232.9,476.7z M229.4,473.8v-2
			c-0.1,0.2-0.3,0.3-0.5,0.5c-0.2,0.1-0.4,0.2-0.6,0.3s-0.5,0.1-0.6,0.2c-0.2,0-0.4,0.1-0.8,0.1c-0.4,0.1-0.6,0.1-0.8,0.1
			c-0.8,0.1-1.4,0.3-1.8,0.6c-0.4,0.3-0.6,0.7-0.6,1.4s0.2,1.1,0.7,1.5c0.4,0.3,1,0.5,1.7,0.5c0.9,0,1.7-0.3,2.3-0.8
			C229.1,475.6,229.4,474.8,229.4,473.8z"/>
		<path class="st49" d="M237,478.2h-1.9v-11.4h1.9v1.9c1-1.4,2.3-2.2,3.9-2.2c1.2,0,2.2,0.4,2.9,1.1s1.1,1.8,1.1,3.2v7.4h-1.9v-6.9
			c0-2-0.9-3-2.6-3c-1,0-1.8,0.3-2.5,1c-0.7,0.7-1,1.5-1,2.6V478.2z"/>
		<path class="st49" d="M258.8,478.2h-1.9v-1.9c-1,1.4-2.4,2.1-4.1,2.1c-1.6,0-2.9-0.6-3.8-1.7c-1-1.1-1.4-2.6-1.4-4.3
			c0-1.7,0.5-3.2,1.4-4.3c1-1.1,2.2-1.7,3.8-1.7c1.7,0,3.1,0.7,4.1,2.2v-6.2h1.9V478.2z M255.9,475.5c0.7-0.8,1-1.8,1-3
			c0-1.2-0.3-2.2-1-3c-0.7-0.8-1.6-1.2-2.7-1.2c-1.2,0-2,0.4-2.7,1.2c-0.6,0.8-0.9,1.8-0.9,3s0.3,2.2,0.9,3s1.5,1.2,2.7,1.2
			C254.3,476.7,255.2,476.3,255.9,475.5z"/>
		<path class="st49" d="M270.1,478.2h-1.9v-15.7h1.9V478.2z"/>
		<path class="st49" d="M283.9,472.2c0,0.3,0,0.5,0,0.7h-9c0.1,1.2,0.4,2.1,1.1,2.8c0.7,0.7,1.6,1,2.7,1c1.3,0,2.5-0.5,3.4-1.5
			l1.3,1.3c-1.2,1.3-2.8,2-4.7,2c-1.8,0-3.2-0.6-4.3-1.7c-1-1.1-1.6-2.5-1.6-4.3c0-1.7,0.5-3.2,1.5-4.3c1-1.1,2.4-1.7,4.1-1.7
			c1.6,0,3,0.5,4,1.6C283.4,469.2,283.9,470.5,283.9,472.2z M275,471.4h7c-0.1-1.1-0.5-1.9-1.1-2.5c-0.6-0.6-1.4-0.9-2.4-0.9
			c-1,0-1.8,0.3-2.4,0.9C275.4,469.7,275,470.5,275,471.4z"/>
		<path class="st49" d="M296.8,476.7l0.2,1.5c-0.4,0.1-0.8,0.2-1.3,0.2c-0.6,0-1.1-0.2-1.5-0.5c-0.4-0.3-0.6-0.8-0.7-1.4
			c-0.9,1.3-2.2,1.9-3.9,1.9c-1.2,0-2.1-0.3-2.8-0.9c-0.7-0.6-1.1-1.5-1.1-2.6c0-0.5,0.1-1,0.3-1.4c0.2-0.4,0.4-0.7,0.6-0.9
			c0.3-0.2,0.6-0.4,1-0.6c0.4-0.2,0.7-0.3,1-0.4c0.3-0.1,0.7-0.1,1.1-0.2c0.1,0,0.4,0,0.7-0.1c0.3,0,0.6-0.1,0.8-0.1
			c0.2,0,0.4-0.1,0.6-0.1c0.3-0.1,0.5-0.1,0.6-0.2c0.1-0.1,0.3-0.2,0.4-0.3c0.2-0.1,0.3-0.2,0.3-0.4c0.1-0.2,0.1-0.3,0.1-0.5
			c0-0.6-0.3-1-0.8-1.3c-0.5-0.3-1.1-0.4-1.8-0.4c-1.3,0-2.5,0.4-3.6,1.2l-0.9-1.5c1.4-1,2.9-1.5,4.6-1.5c1.4,0,2.4,0.3,3.2,0.9
			c0.8,0.6,1.2,1.6,1.2,2.8v5.4c0,0.8,0.3,1.2,0.9,1.2C296.4,476.9,296.6,476.8,296.8,476.7z M293.3,473.8v-2
			c-0.1,0.2-0.3,0.3-0.5,0.5c-0.2,0.1-0.4,0.2-0.6,0.3s-0.5,0.1-0.6,0.2c-0.2,0-0.4,0.1-0.8,0.1c-0.4,0.1-0.6,0.1-0.8,0.1
			c-0.8,0.1-1.4,0.3-1.8,0.6c-0.4,0.3-0.6,0.7-0.6,1.4s0.2,1.1,0.7,1.5c0.4,0.3,1,0.5,1.7,0.5c0.9,0,1.7-0.3,2.3-0.8
			C293,475.6,293.3,474.8,293.3,473.8z"/>
		<path class="st49" d="M305.8,466.9l-0.6,1.8c-0.4-0.2-0.9-0.4-1.3-0.4c-0.8,0-1.5,0.3-2.1,1c-0.6,0.7-0.9,1.6-0.9,2.8v6H299v-11.4
			h1.9v1.9c0.9-1.4,2-2.2,3.3-2.2C304.8,466.5,305.4,466.7,305.8,466.9z"/>
		<path class="st49" d="M309.6,478.2h-1.9v-11.4h1.9v1.9c1-1.4,2.3-2.2,3.9-2.2c1.2,0,2.2,0.4,2.9,1.1s1.1,1.8,1.1,3.2v7.4h-1.9
			v-6.9c0-2-0.9-3-2.6-3c-1,0-1.8,0.3-2.5,1c-0.7,0.7-1,1.5-1,2.6V478.2z"/>
	</g>
</g>
<g id="Layer_2">
</g>
<g id="Layer_3">
</g>
</svg>
