<?xml version="1.0" encoding="utf-8"?>
<!-- Generator: Adobe Illustrator 23.0.1, SVG Export Plug-In . SVG Version: 6.00 Build 0)  -->
<svg version="1.1" xmlns="http://www.w3.org/2000/svg" xmlns:xlink="http://www.w3.org/1999/xlink" x="0px" y="0px"
	 viewBox="0 0 1200 375" style="enable-background:new 0 0 1200 375;" xml:space="preserve">
<style type="text/css">
	.st0{enable-background:new    ;}
	.st1{fill:#F6F6F6;}
	.st2{fill:none;stroke:#808285;stroke-width:2;stroke-linecap:round;stroke-miterlimit:10;stroke-dasharray:3.008,5.0134;}
	.st3{fill:none;stroke:#231F20;stroke-width:2;stroke-linecap:round;stroke-miterlimit:10;}
	.st4{fill:#231F20;}
	.st5{fill-rule:evenodd;clip-rule:evenodd;fill:#6A6DAA;}
	.st6{fill:#FFFFFF;stroke:#231F20;stroke-miterlimit:10;}
	.st7{fill:#FFFFFF;}
	.st8{fill:none;stroke:#231F20;stroke-miterlimit:10;}
	.st9{fill:none;stroke:#231F20;stroke-width:0.25;stroke-miterlimit:10;}
	.st10{fill:#808285;}
	.st11{fill:#C0E7F1;}
	.st12{fill:#EBF7FA;}
	.st13{fill:#AED1EE;}
	.st14{fill:#6EA8DC;}
	.st15{fill:#4689AE;}
	.st16{fill:#F45245;}
	.st17{fill:#68E55E;}
	.st18{fill:#4A4A4A;}
	.st19{fill:#60B845;enable-background:new    ;}
	.st20{fill:#FBCD67;enable-background:new    ;}
	.st21{fill:#FAB828;enable-background:new    ;}
	.st22{fill:#F7831B;enable-background:new    ;}
	.st23{fill:#DF3B3E;enable-background:new    ;}
	.st24{fill:#089CDB;enable-background:new    ;}
	.st25{fill:#943A95;enable-background:new    ;}
	.st26{fill:url(#Silent_Button_2_);}
	.st27{fill:url(#Volume_Up_Button_2_);}
	.st28{fill:url(#Volume_Down_Button_2_);}
	.st29{fill:url(#Power_Button_2_);}
	.st30{fill:#000100;}
	.st31{fill:none;}
	.st32{fill:none;stroke:#FFFFFF;stroke-width:4;stroke-miterlimit:10;}
	.st33{opacity:0.801;fill:url(#Shadow_1_);enable-background:new    ;}
	.st34{opacity:0.801;fill:url(#Shadow-2_1_);enable-background:new    ;}
	.st35{opacity:0.403;fill:#ACACAC;enable-background:new    ;}
	.st36{fill:#202022;}
	.st37{fill:#133456;}
	.st38{fill:#2771BD;}
	.st39{fill:url(#Rectangle_1_);}
	.st40{fill:url(#_2_1_);}
	.st41{fill:url(#_1_1_);}
	.st42{fill:url(#_2-2_2_);}
	.st43{fill:url(#_1-2_2_);}
	.st44{fill:#AAAAAA;}
	.st45{clip-path:url(#SVGID_2_);}
	.st46{fill:url(#);}
	.st47{fill:#1F1F1F;stroke:#FFFFFF;stroke-miterlimit:10;}
	.st48{fill:#1A1A1A;stroke:#FFFFFF;stroke-miterlimit:10;}
	.st49{fill:#58595B;}
	.st50{fill:none;stroke:#939598;stroke-width:3;stroke-miterlimit:10;}
	.st51{fill:#939598;}
	.st52{fill:none;stroke:#939598;stroke-width:2;stroke-miterlimit:10;}
	.st53{fill:none;stroke:#808285;stroke-width:2;stroke-linecap:round;stroke-miterlimit:10;stroke-dasharray:2.9721,4.9535;}
	.st54{fill:none;stroke:#808285;stroke-width:2;stroke-linecap:round;stroke-miterlimit:10;stroke-dasharray:3.0448,5.0747;}
	.st55{clip-path:url(#SVGID_8_);}
	.st56{clip-path:url(#SVGID_10_);}
	.st57{clip-path:url(#SVGID_12_);}
	.st58{clip-path:url(#SVGID_14_);}
	.st59{clip-path:url(#SVGID_16_);}
	.st60{clip-path:url(#SVGID_18_);}
	.st61{fill-rule:evenodd;clip-rule:evenodd;fill:#58595B;}
	.st62{fill:#2AF73C;stroke:#FFFFFF;}
	.st63{fill:none;stroke:#58595B;stroke-width:0.1;}
	.st64{fill:#6D6E71;}
</style>
<symbol  id="Circle" viewBox="-121 -121 242 242">
	<g class="st0">
		<circle class="st1" cx="0" cy="0" r="120"/>
		<circle class="st2" cx="0" cy="0" r="120"/>
	</g>
	<circle class="st3" cx="0" cy="0" r="11"/>
	<circle class="st4" cx="0" cy="0" r="3"/>
</symbol>
<g id="Layer_1">
	<g>
		<g>
			<line class="st50" x1="116" y1="188" x2="321.9" y2="188"/>
			<g>
				<polygon class="st51" points="312,200.3 309.9,198.1 320.8,188 309.9,178 312,175.8 325.2,188 				"/>
			</g>
		</g>
	</g>
	<g>
		<g>
			<line class="st50" x1="438.1" y1="188" x2="644.1" y2="188"/>
			<g>
				<polygon class="st51" points="634.1,200.3 632.1,198.1 642.9,188 632.1,178 634.1,175.8 647.3,188 				"/>
			</g>
		</g>
	</g>
	<g>
		<g>
			<line class="st50" x1="760.7" y1="188" x2="966.7" y2="188"/>
			<g>
				<polygon class="st51" points="956.7,200.3 954.7,198.1 965.5,188 954.7,178 956.7,175.8 969.9,188 				"/>
			</g>
		</g>
	</g>
	
		<use xlink:href="#Circle"  width="242" height="242" id="XMLID_10_" x="-121" y="-121" transform="matrix(0.9448 0 0 -0.9448 116.3672 188.0257)" style="overflow:visible;"/>
	
		<use xlink:href="#Circle"  width="242" height="242" id="XMLID_9_" x="-121" y="-121" transform="matrix(0.9448 0 0 -0.9448 438.5366 188.0257)" style="overflow:visible;"/>
	
		<use xlink:href="#Circle"  width="242" height="242" id="XMLID_8_" x="-121" y="-121" transform="matrix(0.9448 0 0 -0.9448 760.7061 188.0257)" style="overflow:visible;"/>
	
		<use xlink:href="#Circle"  width="242" height="242" id="XMLID_7_" x="-121" y="-121" transform="matrix(0.9448 0 0 -0.9448 1082.8755 188.0257)" style="overflow:visible;"/>
	<g>
		<rect x="27" y="15.9" class="st31" width="178.4" height="28.7"/>
		<path d="M92.9,20.2h-7.3v18.6h-3V20.2h-7.2v-2.8h17.5V20.2z"/>
		<path d="M99,38.8h-2.8V15.9H99v9c1.4-2.1,3.3-3.1,5.7-3.1c1.8,0,3.2,0.6,4.3,1.7c1,1.1,1.6,2.7,1.6,4.6v10.7h-2.8V28.7
			c0-2.9-1.2-4.3-3.7-4.3c-1.5,0-2.7,0.5-3.6,1.4c-1,1-1.4,2.2-1.4,3.7V38.8z"/>
		<path d="M118.1,18.9h-2.8v-2.9h2.8V18.9z M118.1,38.8h-2.8V22.1h2.8V38.8z"/>
		<path d="M125.9,38.8h-2.8V22.1h2.8v2.8c1.4-2.1,3.3-3.1,5.7-3.1c1.8,0,3.2,0.6,4.3,1.7s1.6,2.7,1.6,4.6v10.7h-2.8V28.7
			c0-2.9-1.2-4.3-3.7-4.3c-1.5,0-2.7,0.5-3.6,1.4c-1,1-1.4,2.2-1.4,3.7V38.8z"/>
		<path d="M145,30.7l8.4-8.6h3.5l-6.7,6.8l7.6,9.8h-3.5l-6-8L145,34v4.7h-2.8V15.9h2.8V30.7z"/>
	</g>
	<g>
		<rect x="349" y="15.9" class="st31" width="178.4" height="28.7"/>
		<path d="M396.6,38.8h-8.3V17.5h8.3c3.2,0,5.7,1,7.6,3s2.8,4.5,2.8,7.7c0,3.1-0.9,5.7-2.8,7.7S399.8,38.8,396.6,38.8z M391.3,36
			h5.2c2.3,0,4.1-0.7,5.3-2.1c1.2-1.4,1.9-3.3,1.9-5.8c0-2.4-0.6-4.4-1.9-5.8c-1.2-1.4-3-2.1-5.3-2.1h-5.2V36z"/>
		<path d="M426,30c0,0.4,0,0.8-0.1,1.1h-13.1c0.1,1.7,0.6,3,1.6,4c1,1,2.3,1.5,4,1.5c1.9,0,3.6-0.7,4.9-2.2l1.9,1.8
			c-1.8,1.9-4.1,2.9-6.8,2.9c-2.6,0-4.7-0.8-6.2-2.4c-1.5-1.6-2.3-3.7-2.3-6.2c0-2.5,0.7-4.6,2.2-6.3s3.5-2.5,5.9-2.5
			c2.4,0,4.3,0.8,5.8,2.4C425.2,25.7,426,27.7,426,30z M412.9,29h10.2c-0.1-1.5-0.7-2.7-1.6-3.6c-0.9-0.8-2.1-1.3-3.5-1.3
			c-1.4,0-2.6,0.4-3.5,1.3C413.5,26.4,413,27.6,412.9,29z"/>
		<path d="M442.4,33.9c0,1.6-0.6,2.9-1.8,3.9c-1.2,1-2.9,1.5-5,1.5c-3.3,0-5.8-1.2-7.4-3.6l2-1.5c1.3,1.8,3.1,2.7,5.5,2.7
			c1.2,0,2.1-0.2,2.8-0.7c0.7-0.5,1.1-1.1,1.1-2c0-0.8-0.3-1.3-1-1.6c-0.6-0.3-1.8-0.6-3.6-1c-1.9-0.4-3.4-0.9-4.4-1.6
			c-1-0.7-1.5-1.8-1.5-3.3c0-1.6,0.6-2.8,1.8-3.6s2.7-1.2,4.4-1.2c2.7,0,5,0.9,6.8,2.8l-1.9,1.8c-1.2-1.4-2.9-2.1-4.9-2.1
			c-1,0-1.8,0.2-2.5,0.6c-0.7,0.4-1,0.9-1,1.7c0,0.3,0.1,0.6,0.2,0.9s0.3,0.5,0.5,0.6s0.5,0.3,0.9,0.4c0.4,0.1,0.8,0.2,1.1,0.3
			c0.3,0.1,0.7,0.1,1.3,0.3c0.8,0.1,1.5,0.3,2,0.4s1.1,0.3,1.7,0.6c0.6,0.3,1.1,0.5,1.5,0.9c0.4,0.3,0.7,0.7,0.9,1.3
			C442.3,32.6,442.4,33.2,442.4,33.9z"/>
		<path d="M449.1,18.9h-2.8v-2.9h2.8V18.9z M449.1,38.8h-2.8V22.1h2.8V38.8z"/>
		<path d="M469.4,22.1v14c0,2.6-0.6,4.6-1.8,6c-1.5,1.7-3.8,2.6-7,2.6c-2.7,0-5-0.7-6.9-2l1.4-2.3c1.6,1.2,3.5,1.7,5.6,1.7
			c1.8,0,3.3-0.4,4.4-1.3s1.6-2.3,1.6-4.1v-1.8c-0.6,1-1.5,1.8-2.6,2.3c-1.1,0.5-2.3,0.8-3.5,0.8c-2.2,0-4-0.8-5.4-2.3
			c-1.4-1.5-2.1-3.5-2.1-5.8c0-2.3,0.7-4.3,2.2-5.8c1.4-1.5,3.3-2.3,5.5-2.3c2.7,0,4.7,1,6,3.1v-2.8H469.4z M466.7,29.9
			c0-1.6-0.5-2.9-1.4-4c-1-1-2.3-1.6-4-1.6c-1.7,0-3,0.5-3.9,1.6c-0.9,1-1.4,2.4-1.4,4c0,1.6,0.5,3,1.4,4c0.9,1.1,2.2,1.6,3.9,1.6
			c1.7,0,3-0.5,4-1.6C466.2,32.8,466.7,31.5,466.7,29.9z"/>
		<path d="M477.2,38.8h-2.8V22.1h2.8v2.8c1.4-2.1,3.3-3.1,5.7-3.1c1.8,0,3.2,0.6,4.3,1.7c1,1.1,1.6,2.7,1.6,4.6v10.7h-2.8V28.7
			c0-2.9-1.2-4.3-3.7-4.3c-1.5,0-2.7,0.5-3.6,1.4s-1.4,2.2-1.4,3.7V38.8z"/>
	</g>
	<g>
		<rect x="349" y="48.5" class="st31" width="179" height="20.9"/>
		<path class="st49" d="M401.8,62.7l0.2,1.5c-0.4,0.1-0.8,0.2-1.3,0.2c-0.6,0-1.1-0.2-1.5-0.5c-0.4-0.3-0.6-0.8-0.7-1.4
			c-0.9,1.3-2.2,1.9-3.9,1.9c-1.2,0-2.1-0.3-2.8-0.9c-0.7-0.6-1.1-1.5-1.1-2.6c0-0.5,0.1-1,0.3-1.4s0.4-0.7,0.6-0.9
			c0.3-0.2,0.6-0.4,1-0.6c0.4-0.2,0.7-0.3,1-0.4c0.3-0.1,0.7-0.1,1.1-0.2c0.1,0,0.4,0,0.7-0.1c0.3,0,0.6-0.1,0.8-0.1
			s0.4-0.1,0.6-0.1c0.3-0.1,0.5-0.1,0.6-0.2c0.1-0.1,0.3-0.2,0.4-0.3c0.2-0.1,0.3-0.2,0.3-0.4c0.1-0.2,0.1-0.3,0.1-0.5
			c0-0.6-0.3-1-0.8-1.3c-0.5-0.3-1.1-0.4-1.8-0.4c-1.3,0-2.5,0.4-3.6,1.2l-0.9-1.5c1.4-1,2.9-1.5,4.6-1.5c1.4,0,2.4,0.3,3.2,0.9
			c0.8,0.6,1.2,1.6,1.2,2.8v5.4c0,0.8,0.3,1.2,0.9,1.2C401.5,62.9,401.7,62.8,401.8,62.7z M398.3,59.8v-2c-0.1,0.2-0.3,0.3-0.5,0.5
			c-0.2,0.1-0.4,0.2-0.6,0.3c-0.3,0.1-0.5,0.1-0.6,0.2c-0.2,0-0.4,0.1-0.8,0.1c-0.4,0.1-0.6,0.1-0.8,0.1c-0.8,0.1-1.4,0.3-1.8,0.6
			c-0.4,0.3-0.6,0.7-0.6,1.4s0.2,1.1,0.7,1.5c0.4,0.3,1,0.5,1.7,0.5c0.9,0,1.7-0.3,2.3-0.8C398,61.6,398.3,60.9,398.3,59.8z"/>
		<path class="st49" d="M406,64.2h-1.9V52.8h1.9v1.9c1-1.4,2.3-2.2,3.9-2.2c1.2,0,2.2,0.4,2.9,1.1c0.7,0.8,1.1,1.8,1.1,3.2v7.4H412
			v-6.9c0-2-0.9-3-2.6-3c-1,0-1.8,0.3-2.5,1c-0.7,0.7-1,1.5-1,2.6V64.2z"/>
		<path class="st49" d="M427.7,64.2h-1.9v-1.9c-1,1.4-2.4,2.1-4.1,2.1c-1.6,0-2.9-0.6-3.8-1.7c-1-1.1-1.4-2.6-1.4-4.3
			c0-1.7,0.5-3.2,1.4-4.3s2.2-1.7,3.8-1.7c1.7,0,3.1,0.7,4.1,2.2v-6.2h1.9V64.2z M424.8,61.5c0.7-0.8,1-1.8,1-3c0-1.2-0.3-2.2-1-3
			c-0.7-0.8-1.6-1.2-2.7-1.2c-1.2,0-2,0.4-2.7,1.2c-0.6,0.8-0.9,1.8-0.9,3c0,1.2,0.3,2.2,0.9,3c0.6,0.8,1.5,1.2,2.7,1.2
			C423.3,62.7,424.2,62.3,424.8,61.5z"/>
		<path class="st49" d="M437.1,48.5h1.9v6.2c1-1.4,2.4-2.2,4.1-2.2c1.6,0,2.9,0.6,3.8,1.7c1,1.1,1.4,2.6,1.4,4.3
			c0,1.7-0.5,3.2-1.4,4.3c-1,1.1-2.2,1.7-3.8,1.7c-1.7,0-3.1-0.7-4.1-2.1v1.9h-1.9V48.5z M440,55.5c-0.6,0.8-1,1.8-1,3
			c0,1.2,0.3,2.2,1,3s1.6,1.2,2.7,1.2c1.2,0,2-0.4,2.7-1.2c0.6-0.8,0.9-1.8,0.9-3c0-1.2-0.3-2.2-0.9-3c-0.6-0.8-1.5-1.2-2.7-1.2
			C441.5,54.3,440.6,54.7,440,55.5z"/>
		<path class="st49" d="M458.8,52.8h1.9v11.4h-1.9v-1.9c-1,1.4-2.3,2.1-3.9,2.1c-1.2,0-2.2-0.4-2.9-1.1c-0.7-0.8-1.1-1.8-1.1-3.2
			v-7.4h1.9v7c0,2,0.8,3,2.5,3c1,0,1.8-0.3,2.5-1c0.7-0.7,1-1.5,1-2.6V52.8z"/>
		<path class="st49" d="M466.1,50.5h-1.9v-2h1.9V50.5z M466.1,64.2h-1.9V52.8h1.9V64.2z"/>
		<path class="st49" d="M471.5,64.2h-1.9V48.5h1.9V64.2z"/>
		<path class="st49" d="M485.5,64.2h-1.9v-1.9c-1,1.4-2.4,2.1-4.1,2.1c-1.6,0-2.9-0.6-3.8-1.7c-1-1.1-1.4-2.6-1.4-4.3
			c0-1.7,0.5-3.2,1.4-4.3c1-1.1,2.2-1.7,3.8-1.7c1.7,0,3.1,0.7,4.1,2.2v-6.2h1.9V64.2z M482.6,61.5c0.7-0.8,1-1.8,1-3
			c0-1.2-0.3-2.2-1-3s-1.6-1.2-2.7-1.2c-1.2,0-2,0.4-2.7,1.2c-0.6,0.8-0.9,1.8-0.9,3c0,1.2,0.3,2.2,0.9,3s1.5,1.2,2.7,1.2
			C481,62.7,481.9,62.3,482.6,61.5z"/>
	</g>
	<g>
		<rect x="510.5" y="316" class="st31" width="179" height="21.4"/>
		<path class="st49" d="M535,330.2c1,0,1.8-0.3,2.4-0.8c0.6-0.5,0.9-1.3,0.9-2.3c0-0.9-0.3-1.7-0.9-2.2c-0.6-0.5-1.4-0.8-2.4-0.8
			c-1.3,0-2.4,0.5-3.1,1.4l-1.3-0.6l0.5-7.7h8.4v1.9h-6.8l-0.4,4.2c0.9-0.6,1.9-0.9,3.1-0.9c1.4,0,2.6,0.4,3.5,1.3s1.4,2,1.4,3.4
			c0,1.4-0.5,2.6-1.5,3.6s-2.3,1.5-3.9,1.5c-2.4,0-4.2-0.9-5.2-2.8l1.7-1C532.3,329.5,533.4,330.2,535,330.2z"/>
		<path class="st49" d="M559.8,331.8h-1.9v-1.9c-1,1.4-2.4,2.1-4.1,2.1c-1.6,0-2.9-0.6-3.8-1.7c-1-1.1-1.4-2.6-1.4-4.3
			c0-1.7,0.5-3.2,1.4-4.3c1-1.1,2.2-1.7,3.8-1.7c1.7,0,3.1,0.7,4.1,2.2V316h1.9V331.8z M556.9,329.1c0.7-0.8,1-1.8,1-3
			c0-1.2-0.3-2.2-1-3c-0.7-0.8-1.6-1.2-2.7-1.2c-1.2,0-2,0.4-2.7,1.2c-0.6,0.8-0.9,1.8-0.9,3c0,1.2,0.3,2.2,0.9,3s1.5,1.2,2.7,1.2
			C555.3,330.3,556.2,329.9,556.9,329.1z"/>
		<path class="st49" d="M573.5,330.3l0.2,1.5c-0.4,0.1-0.8,0.2-1.3,0.2c-0.6,0-1.1-0.2-1.5-0.5s-0.6-0.8-0.7-1.4
			c-0.9,1.3-2.2,1.9-3.9,1.9c-1.2,0-2.1-0.3-2.8-0.9c-0.7-0.6-1.1-1.5-1.1-2.6c0-0.5,0.1-1,0.3-1.4c0.2-0.4,0.4-0.7,0.6-0.9
			c0.3-0.2,0.6-0.4,1-0.6c0.4-0.2,0.7-0.3,1-0.4s0.7-0.1,1.1-0.2c0.1,0,0.4,0,0.7-0.1s0.6-0.1,0.8-0.1s0.4-0.1,0.6-0.1
			c0.3-0.1,0.5-0.1,0.6-0.2c0.1-0.1,0.3-0.2,0.4-0.3c0.2-0.1,0.3-0.2,0.3-0.4c0.1-0.2,0.1-0.3,0.1-0.5c0-0.6-0.3-1-0.8-1.3
			c-0.5-0.3-1.1-0.4-1.8-0.4c-1.3,0-2.5,0.4-3.6,1.2l-0.9-1.5c1.4-1,2.9-1.5,4.6-1.5c1.4,0,2.4,0.3,3.2,0.9c0.8,0.6,1.2,1.6,1.2,2.8
			v5.4c0,0.8,0.3,1.2,0.9,1.2C573.1,330.4,573.3,330.4,573.5,330.3z M570,327.4v-2c-0.1,0.2-0.3,0.3-0.5,0.5
			c-0.2,0.1-0.4,0.2-0.6,0.3c-0.3,0.1-0.5,0.1-0.6,0.2s-0.4,0.1-0.8,0.1c-0.4,0.1-0.6,0.1-0.8,0.1c-0.8,0.1-1.4,0.3-1.8,0.6
			c-0.4,0.3-0.6,0.7-0.6,1.4s0.2,1.1,0.7,1.5c0.4,0.3,1,0.5,1.7,0.5c0.9,0,1.7-0.3,2.3-0.8C569.7,329.2,570,328.4,570,327.4z"/>
		<path class="st49" d="M585.1,320.3l-4.6,12c-0.5,1.2-1,2.1-1.6,2.7c-0.6,0.6-1.4,0.8-2.4,0.8c-0.9,0-1.7-0.2-2.3-0.7l0.8-1.4
			c0.4,0.3,0.9,0.4,1.4,0.4c0.5,0,0.9-0.2,1.2-0.5c0.3-0.3,0.6-0.7,0.8-1.3l0.3-0.7l-4.8-11.4h2.2l3.7,8.9l3.2-8.9H585.1z"/>
		<path class="st49" d="M595.9,328.4c0,1.1-0.4,2-1.3,2.7s-2,1-3.4,1c-2.3,0-4-0.8-5.1-2.4l1.4-1.1c0.9,1.2,2.1,1.8,3.8,1.8
			c0.8,0,1.5-0.2,1.9-0.5c0.5-0.3,0.7-0.8,0.7-1.4c0-0.5-0.2-0.9-0.7-1.1c-0.4-0.2-1.3-0.4-2.5-0.7c-1.3-0.2-2.3-0.6-3-1.1
			c-0.7-0.5-1.1-1.2-1.1-2.2c0-1.1,0.4-1.9,1.2-2.5c0.8-0.6,1.8-0.9,3-0.9c1.9,0,3.4,0.6,4.6,1.9l-1.3,1.2c-0.9-1-2-1.5-3.4-1.5
			c-0.7,0-1.2,0.1-1.7,0.4c-0.5,0.3-0.7,0.6-0.7,1.2c0,0.2,0.1,0.4,0.2,0.6c0.1,0.2,0.2,0.3,0.4,0.4c0.1,0.1,0.4,0.2,0.6,0.3
			c0.3,0.1,0.5,0.2,0.8,0.2c0.2,0,0.5,0.1,0.9,0.2c0.6,0.1,1,0.2,1.4,0.3c0.4,0.1,0.7,0.2,1.2,0.4c0.4,0.2,0.8,0.4,1,0.6
			c0.2,0.2,0.5,0.5,0.6,0.9C595.8,327.5,595.9,327.9,595.9,328.4z"/>
		<path class="st49" d="M609.3,316.8c1.1,0,2.2,0.2,3.1,0.7c1,0.4,1.7,1.1,2.4,1.9l-1.6,1.1c-0.9-1.3-2.3-1.9-4-1.9
			c-0.9,0-1.6,0.2-2.1,0.5c-0.6,0.3-0.8,0.9-0.8,1.6c0,0.3,0.1,0.6,0.2,0.8c0.1,0.2,0.3,0.4,0.4,0.6c0.2,0.1,0.4,0.3,0.8,0.4
			c0.4,0.1,0.6,0.2,0.9,0.3c0.2,0.1,0.6,0.1,1.1,0.3c0.7,0.2,1.2,0.3,1.7,0.4s0.9,0.3,1.4,0.5s0.9,0.5,1.2,0.8
			c0.3,0.3,0.6,0.6,0.8,1.1s0.3,1,0.3,1.5c0,1.3-0.5,2.4-1.5,3.3s-2.4,1.2-4,1.2c-1.3,0-2.5-0.3-3.6-0.8c-1-0.5-1.8-1.3-2.4-2.2
			l1.7-1.1c1,1.5,2.4,2.3,4.4,2.3c1,0,1.8-0.2,2.4-0.7s0.9-1.1,0.9-1.8c0-0.3,0-0.5-0.1-0.7c-0.1-0.2-0.2-0.4-0.4-0.6
			s-0.4-0.3-0.5-0.4c-0.2-0.1-0.4-0.2-0.8-0.3c-0.4-0.1-0.7-0.2-0.9-0.3c-0.2-0.1-0.6-0.1-1.1-0.3c-0.7-0.1-1.3-0.3-1.8-0.5
			c-0.5-0.2-1-0.4-1.5-0.7c-0.5-0.3-0.9-0.7-1.1-1.2c-0.3-0.5-0.4-1.1-0.4-1.7c0-1.3,0.5-2.3,1.4-3
			C606.6,317.2,607.8,316.8,609.3,316.8z"/>
		<path class="st49" d="M617.8,320.3h1.9v1.9c1-1.4,2.4-2.2,4.1-2.2c1.6,0,2.9,0.6,3.8,1.7c1,1.1,1.4,2.6,1.4,4.3
			c0,1.7-0.5,3.2-1.4,4.3c-1,1.1-2.2,1.7-3.8,1.7c-1.7,0-3.1-0.7-4.1-2.1v5.7h-1.9V320.3z M620.7,323c-0.6,0.8-1,1.8-1,3
			c0,1.2,0.3,2.2,1,3s1.6,1.2,2.7,1.2c1.2,0,2-0.4,2.7-1.2c0.6-0.8,0.9-1.8,0.9-3c0-1.2-0.3-2.2-0.9-3c-0.6-0.8-1.5-1.2-2.7-1.2
			C622.2,321.8,621.3,322.2,620.7,323z"/>
		<path class="st49" d="M638.5,320.5l-0.6,1.8c-0.4-0.2-0.9-0.4-1.3-0.4c-0.8,0-1.5,0.3-2.1,1c-0.6,0.7-0.9,1.6-0.9,2.8v6h-1.9
			v-11.4h1.9v1.9c0.9-1.4,2-2.2,3.3-2.2C637.6,320.1,638.1,320.2,638.5,320.5z"/>
		<path class="st49" d="M642.3,318.1h-1.9v-2h1.9V318.1z M642.3,331.8h-1.9v-11.4h1.9V331.8z"/>
		<path class="st49" d="M647.6,331.8h-1.9v-11.4h1.9v1.9c1-1.4,2.3-2.2,3.9-2.2c1.2,0,2.2,0.4,2.9,1.1c0.7,0.8,1.1,1.8,1.1,3.2v7.4
			h-1.9v-6.9c0-2-0.9-3-2.6-3c-1,0-1.8,0.3-2.5,1c-0.7,0.7-1,1.5-1,2.6V331.8z"/>
		<path class="st49" d="M669.4,320.3v9.6c0,1.8-0.4,3.2-1.2,4.1c-1,1.2-2.6,1.8-4.8,1.8c-1.8,0-3.4-0.5-4.8-1.4l1-1.6
			c1.1,0.8,2.4,1.2,3.8,1.2c1.2,0,2.2-0.3,3-0.9c0.7-0.6,1.1-1.6,1.1-2.8v-1.2c-0.4,0.7-1,1.2-1.8,1.6s-1.5,0.5-2.4,0.5
			c-1.5,0-2.8-0.5-3.7-1.6c-1-1-1.4-2.4-1.4-4c0-1.6,0.5-3,1.5-4s2.2-1.6,3.8-1.6c1.8,0,3.2,0.7,4.1,2.2v-1.9H669.4z M667.5,325.6
			c0-1.1-0.3-2-1-2.7c-0.7-0.7-1.6-1.1-2.8-1.1c-1.2,0-2,0.4-2.7,1.1c-0.6,0.7-0.9,1.6-0.9,2.7c0,1.1,0.3,2,0.9,2.8
			c0.6,0.7,1.5,1.1,2.7,1.1c1.2,0,2.1-0.4,2.7-1.1C667.2,327.7,667.5,326.7,667.5,325.6z"/>
	</g>
	<g>
		<rect x="472.3" y="346.1" class="st31" width="254.7" height="21.4"/>
		<path class="st4" d="M497.7,361.9h-2.4l-7.7-12.1v12.1h-2v-14.7h2.6l7.5,11.8v-11.8h2V361.9z"/>
		<path class="st4" d="M511.7,355.8c0,0.3,0,0.5,0,0.7h-9c0.1,1.2,0.4,2.1,1.1,2.8c0.7,0.7,1.6,1,2.7,1c1.3,0,2.5-0.5,3.4-1.5
			l1.3,1.3c-1.2,1.3-2.8,2-4.7,2c-1.8,0-3.2-0.6-4.3-1.7c-1-1.1-1.6-2.5-1.6-4.3c0-1.7,0.5-3.2,1.5-4.3c1-1.1,2.4-1.7,4.1-1.7
			c1.6,0,3,0.5,4,1.6C511.2,352.9,511.7,354.2,511.7,355.8z M502.8,355.1h7c-0.1-1.1-0.5-1.9-1.1-2.5c-0.6-0.6-1.4-0.9-2.4-0.9
			c-1,0-1.8,0.3-2.4,0.9C503.2,353.3,502.8,354.1,502.8,355.1z"/>
		<path class="st4" d="M523.9,361.9h-2.3l-3.3-4.6l-3.3,4.6h-2.3l4.4-6l-4-5.5h2.3l2.9,4.2l2.9-4.2h2.3l-4,5.5L523.9,361.9z"/>
		<path class="st4" d="M531.8,359.9l0.8,1.5c-0.7,0.5-1.5,0.8-2.5,0.8c-1.4,0-2.4-0.5-3-1.5c-0.3-0.5-0.5-1.3-0.5-2.3V352h-2v-1.6h2
			v-3.2h1.9v3.2h3.7v1.6h-3.7v6.4c0,1.3,0.6,2,1.8,2C530.9,360.4,531.4,360.2,531.8,359.9z"/>
		<path class="st4" d="M542.9,361.9h-2v-14.7h2V361.9z"/>
		<path class="st4" d="M552.5,359.9l0.8,1.5c-0.7,0.5-1.5,0.8-2.5,0.8c-1.4,0-2.4-0.5-3-1.5c-0.3-0.5-0.5-1.3-0.5-2.3V352h-2v-1.6h2
			v-3.2h1.9v3.2h3.7v1.6h-3.7v6.4c0,1.3,0.6,2,1.8,2C551.6,360.4,552,360.2,552.5,359.9z"/>
		<path class="st4" d="M565.6,355.8c0,0.3,0,0.5,0,0.7h-9c0.1,1.2,0.4,2.1,1.1,2.8c0.7,0.7,1.6,1,2.7,1c1.3,0,2.5-0.5,3.4-1.5
			l1.3,1.3c-1.2,1.3-2.8,2-4.7,2c-1.8,0-3.2-0.6-4.3-1.7c-1-1.1-1.6-2.5-1.6-4.3c0-1.7,0.5-3.2,1.5-4.3c1-1.1,2.4-1.7,4.1-1.7
			c1.6,0,3,0.5,4,1.6C565.1,352.9,565.6,354.2,565.6,355.8z M556.6,355.1h7c-0.1-1.1-0.5-1.9-1.1-2.5c-0.6-0.6-1.4-0.9-2.4-0.9
			c-1,0-1.8,0.3-2.4,0.9C557.1,353.3,556.7,354.1,556.6,355.1z"/>
		<path class="st4" d="M575,350.6l-0.6,1.8c-0.4-0.2-0.9-0.4-1.3-0.4c-0.8,0-1.5,0.3-2.1,1c-0.6,0.7-0.9,1.6-0.9,2.8v6h-1.9v-11.4
			h1.9v1.9c0.9-1.4,2-2.2,3.3-2.2C574,350.2,574.6,350.3,575,350.6z"/>
		<path class="st4" d="M587.1,360.4l0.2,1.5c-0.4,0.1-0.8,0.2-1.3,0.2c-0.6,0-1.1-0.2-1.5-0.5s-0.6-0.8-0.7-1.4
			c-0.9,1.3-2.2,1.9-3.9,1.9c-1.2,0-2.1-0.3-2.8-0.9c-0.7-0.6-1.1-1.5-1.1-2.6c0-0.5,0.1-1,0.3-1.4c0.2-0.4,0.4-0.7,0.6-0.9
			c0.3-0.2,0.6-0.4,1-0.6c0.4-0.2,0.7-0.3,1-0.4s0.7-0.1,1.1-0.2c0.1,0,0.4,0,0.7-0.1s0.6-0.1,0.8-0.1s0.4-0.1,0.6-0.1
			c0.3-0.1,0.5-0.1,0.6-0.2c0.1-0.1,0.3-0.2,0.4-0.3c0.2-0.1,0.3-0.2,0.3-0.4c0.1-0.2,0.1-0.3,0.1-0.5c0-0.6-0.3-1-0.8-1.3
			c-0.5-0.3-1.1-0.4-1.8-0.4c-1.3,0-2.5,0.4-3.6,1.2l-0.9-1.5c1.4-1,2.9-1.5,4.6-1.5c1.4,0,2.4,0.3,3.2,0.9c0.8,0.6,1.2,1.6,1.2,2.8
			v5.4c0,0.8,0.3,1.2,0.9,1.2C586.7,360.5,586.9,360.5,587.1,360.4z M583.6,357.5v-2c-0.1,0.2-0.3,0.3-0.5,0.5
			c-0.2,0.1-0.4,0.2-0.6,0.3c-0.3,0.1-0.5,0.1-0.6,0.2s-0.4,0.1-0.8,0.1c-0.4,0.1-0.6,0.1-0.8,0.1c-0.8,0.1-1.4,0.3-1.8,0.6
			c-0.4,0.3-0.6,0.7-0.6,1.4s0.2,1.1,0.7,1.5c0.4,0.3,1,0.5,1.7,0.5c0.9,0,1.7-0.3,2.3-0.8C583.3,359.3,583.6,358.5,583.6,357.5z"/>
		<path class="st4" d="M595.1,359.9l0.8,1.5c-0.7,0.5-1.5,0.8-2.5,0.8c-1.4,0-2.4-0.5-3-1.5c-0.3-0.5-0.5-1.3-0.5-2.3V352h-2v-1.6h2
			v-3.2h1.9v3.2h3.7v1.6h-3.7v6.4c0,1.3,0.6,2,1.8,2C594.2,360.4,594.7,360.2,595.1,359.9z"/>
		<path class="st4" d="M599.9,348.2H598v-2h1.9V348.2z M599.9,361.9H598v-11.4h1.9V361.9z"/>
		<path class="st4" d="M613.8,356.2c0,1.7-0.5,3.2-1.5,4.3c-1,1.1-2.4,1.7-4.1,1.7c-1.7,0-3.1-0.6-4.1-1.7c-1-1.1-1.5-2.5-1.5-4.3
			c0-1.8,0.5-3.2,1.5-4.3s2.4-1.7,4.1-1.7c1.7,0,3.1,0.6,4.1,1.7C613.3,353,613.8,354.4,613.8,356.2z M611.8,356.2
			c0-1.2-0.3-2.3-1-3.1c-0.6-0.8-1.5-1.2-2.6-1.2c-1.1,0-2,0.4-2.6,1.2c-0.6,0.8-1,1.8-1,3.1c0,1.2,0.3,2.2,1,3s1.5,1.2,2.6,1.2
			c1.1,0,2-0.4,2.6-1.2C611.5,358.4,611.8,357.4,611.8,356.2z"/>
		<path class="st4" d="M618.4,361.9h-1.9v-11.4h1.9v1.9c1-1.4,2.3-2.2,3.9-2.2c1.2,0,2.2,0.4,2.9,1.1c0.7,0.8,1.1,1.8,1.1,3.2v7.4
			h-1.9v-6.9c0-2-0.9-3-2.6-3c-1,0-1.8,0.3-2.5,1c-0.7,0.7-1,1.5-1,2.6V361.9z"/>
		<path class="st4" d="M632.4,352.7H630v-2.3h2.4V352.7z M632.4,361.9H630v-2.3h2.4V361.9z"/>
		<path class="st4" d="M654.1,361.9h-2.3l-3.1-5.9h-4.2v5.9h-2.1v-14.7h6.4c1.5,0,2.7,0.4,3.6,1.2s1.3,1.8,1.3,3.1
			c0,1-0.3,1.8-0.8,2.5c-0.5,0.7-1.3,1.2-2.2,1.6L654.1,361.9z M651.5,351.6c0-0.8-0.3-1.4-0.8-1.9s-1.2-0.7-2.1-0.7h-4.3v5.1h4.4
			c0.8,0,1.5-0.2,2-0.7S651.5,352.4,651.5,351.6z"/>
		<path class="st4" d="M666.8,355.8c0,0.3,0,0.5,0,0.7h-9c0.1,1.2,0.4,2.1,1.1,2.8c0.7,0.7,1.6,1,2.7,1c1.3,0,2.5-0.5,3.4-1.5
			l1.3,1.3c-1.2,1.3-2.8,2-4.7,2c-1.8,0-3.2-0.6-4.3-1.7c-1-1.1-1.6-2.5-1.6-4.3c0-1.7,0.5-3.2,1.5-4.3c1-1.1,2.4-1.7,4.1-1.7
			c1.6,0,3,0.5,4,1.6C666.3,352.9,666.8,354.2,666.8,355.8z M657.8,355.1h7c-0.1-1.1-0.5-1.9-1.1-2.5c-0.6-0.6-1.4-0.9-2.4-0.9
			c-1,0-1.8,0.3-2.4,0.9C658.2,353.3,657.9,354.1,657.8,355.1z"/>
		<path class="st4" d="M669.3,350.4h1.9v1.9c1-1.4,2.4-2.2,4.1-2.2c1.6,0,2.9,0.6,3.8,1.7c1,1.1,1.4,2.6,1.4,4.3
			c0,1.7-0.5,3.2-1.4,4.3c-1,1.1-2.2,1.7-3.8,1.7c-1.7,0-3.1-0.7-4.1-2.1v5.7h-1.9V350.4z M672.2,353.1c-0.6,0.8-1,1.8-1,3
			c0,1.2,0.3,2.2,1,3c0.7,0.8,1.6,1.2,2.7,1.2c1.2,0,2-0.4,2.7-1.2s0.9-1.8,0.9-3c0-1.2-0.3-2.2-0.9-3s-1.5-1.2-2.7-1.2
			C673.8,351.9,672.9,352.3,672.2,353.1z"/>
		<path class="st4" d="M693.6,355.8c0,0.3,0,0.5,0,0.7h-9c0.1,1.2,0.4,2.1,1.1,2.8c0.7,0.7,1.6,1,2.7,1c1.3,0,2.5-0.5,3.4-1.5
			l1.3,1.3c-1.2,1.3-2.8,2-4.7,2c-1.8,0-3.2-0.6-4.3-1.7c-1-1.1-1.6-2.5-1.6-4.3c0-1.7,0.5-3.2,1.5-4.3c1-1.1,2.4-1.7,4.1-1.7
			c1.6,0,3,0.5,4,1.6C693.1,352.9,693.6,354.2,693.6,355.8z M684.6,355.1h7c-0.1-1.1-0.5-1.9-1.1-2.5c-0.6-0.6-1.4-0.9-2.4-0.9
			c-1,0-1.8,0.3-2.4,0.9C685,353.3,684.7,354.1,684.6,355.1z"/>
		<path class="st4" d="M706.4,360.4l0.2,1.5c-0.4,0.1-0.8,0.2-1.3,0.2c-0.6,0-1.1-0.2-1.5-0.5s-0.6-0.8-0.7-1.4
			c-0.9,1.3-2.2,1.9-3.9,1.9c-1.2,0-2.1-0.3-2.8-0.9c-0.7-0.6-1.1-1.5-1.1-2.6c0-0.5,0.1-1,0.3-1.4s0.4-0.7,0.6-0.9
			c0.3-0.2,0.6-0.4,1-0.6c0.4-0.2,0.7-0.3,1-0.4c0.3-0.1,0.7-0.1,1.1-0.2c0.1,0,0.4,0,0.7-0.1c0.3,0,0.6-0.1,0.8-0.1
			c0.2,0,0.4-0.1,0.6-0.1c0.3-0.1,0.5-0.1,0.6-0.2s0.3-0.2,0.4-0.3c0.2-0.1,0.3-0.2,0.3-0.4c0.1-0.2,0.1-0.3,0.1-0.5
			c0-0.6-0.3-1-0.8-1.3c-0.5-0.3-1.1-0.4-1.8-0.4c-1.3,0-2.5,0.4-3.6,1.2l-0.9-1.5c1.4-1,2.9-1.5,4.6-1.5c1.4,0,2.4,0.3,3.2,0.9
			c0.8,0.6,1.2,1.6,1.2,2.8v5.4c0,0.8,0.3,1.2,0.9,1.2C706,360.5,706.2,360.5,706.4,360.4z M702.9,357.5v-2
			c-0.1,0.2-0.3,0.3-0.5,0.5c-0.2,0.1-0.4,0.2-0.6,0.3s-0.5,0.1-0.6,0.2c-0.2,0-0.4,0.1-0.8,0.1c-0.4,0.1-0.6,0.1-0.8,0.1
			c-0.8,0.1-1.4,0.3-1.8,0.6c-0.4,0.3-0.6,0.7-0.6,1.4s0.2,1.1,0.7,1.5c0.4,0.3,1,0.5,1.7,0.5c0.9,0,1.7-0.3,2.3-0.8
			S702.9,358.5,702.9,357.5z"/>
		<path class="st4" d="M714.5,359.9l0.8,1.5c-0.7,0.5-1.5,0.8-2.5,0.8c-1.4,0-2.4-0.5-3-1.5c-0.3-0.5-0.5-1.3-0.5-2.3V352h-2v-1.6h2
			v-3.2h1.9v3.2h3.7v1.6h-3.7v6.4c0,1.3,0.6,2,1.8,2C713.6,360.4,714,360.2,714.5,359.9z"/>
	</g>
	<g>
		<rect x="27" y="48.5" class="st31" width="178.7" height="20.9"/>
		<path class="st49" d="M78.3,62.7l0.2,1.5c-0.4,0.1-0.8,0.2-1.3,0.2c-0.6,0-1.1-0.2-1.5-0.5c-0.4-0.3-0.6-0.8-0.7-1.4
			c-0.9,1.3-2.2,1.9-3.9,1.9c-1.2,0-2.1-0.3-2.8-0.9c-0.7-0.6-1.1-1.5-1.1-2.6c0-0.5,0.1-1,0.3-1.4s0.4-0.7,0.6-0.9
			c0.3-0.2,0.6-0.4,1-0.6c0.4-0.2,0.7-0.3,1-0.4c0.3-0.1,0.7-0.1,1.1-0.2c0.1,0,0.4,0,0.7-0.1c0.3,0,0.6-0.1,0.8-0.1
			s0.4-0.1,0.6-0.1c0.3-0.1,0.5-0.1,0.6-0.2c0.1-0.1,0.3-0.2,0.4-0.3c0.2-0.1,0.3-0.2,0.3-0.4c0.1-0.2,0.1-0.3,0.1-0.5
			c0-0.6-0.3-1-0.8-1.3c-0.5-0.3-1.1-0.4-1.8-0.4c-1.3,0-2.5,0.4-3.6,1.2L67.7,54c1.4-1,2.9-1.5,4.6-1.5c1.4,0,2.4,0.3,3.2,0.9
			c0.8,0.6,1.2,1.6,1.2,2.8v5.4c0,0.8,0.3,1.2,0.9,1.2C77.9,62.9,78.1,62.8,78.3,62.7z M74.8,59.8v-2c-0.1,0.2-0.3,0.3-0.5,0.5
			c-0.2,0.1-0.4,0.2-0.6,0.3c-0.3,0.1-0.5,0.1-0.6,0.2c-0.2,0-0.4,0.1-0.8,0.1C71.9,59,71.6,59,71.5,59c-0.8,0.1-1.4,0.3-1.8,0.6
			c-0.4,0.3-0.6,0.7-0.6,1.4s0.2,1.1,0.7,1.5c0.4,0.3,1,0.5,1.7,0.5c0.9,0,1.7-0.3,2.3-0.8C74.5,61.6,74.8,60.9,74.8,59.8z"/>
		<path class="st49" d="M82.4,64.2h-1.9V52.8h1.9v1.9c1-1.4,2.3-2.2,3.9-2.2c1.2,0,2.2,0.4,2.9,1.1c0.7,0.8,1.1,1.8,1.1,3.2v7.4
			h-1.9v-6.9c0-2-0.9-3-2.6-3c-1,0-1.8,0.3-2.5,1c-0.7,0.7-1,1.5-1,2.6V64.2z"/>
		<path class="st49" d="M104.1,64.2h-1.9v-1.9c-1,1.4-2.4,2.1-4.1,2.1c-1.6,0-2.9-0.6-3.8-1.7c-1-1.1-1.4-2.6-1.4-4.3
			c0-1.7,0.5-3.2,1.4-4.3s2.2-1.7,3.8-1.7c1.7,0,3.1,0.7,4.1,2.2v-6.2h1.9V64.2z M101.3,61.5c0.7-0.8,1-1.8,1-3c0-1.2-0.3-2.2-1-3
			c-0.7-0.8-1.6-1.2-2.7-1.2c-1.2,0-2,0.4-2.7,1.2c-0.6,0.8-0.9,1.8-0.9,3c0,1.2,0.3,2.2,0.9,3c0.6,0.8,1.5,1.2,2.7,1.2
			C99.7,62.7,100.6,62.3,101.3,61.5z"/>
		<path class="st49" d="M122.3,60.8c0,1.1-0.4,2-1.3,2.7c-0.8,0.7-2,1-3.4,1c-2.3,0-4-0.8-5.1-2.4l1.4-1.1c0.9,1.2,2.1,1.8,3.8,1.8
			c0.8,0,1.5-0.2,1.9-0.5c0.5-0.3,0.7-0.8,0.7-1.4c0-0.5-0.2-0.9-0.7-1.1c-0.4-0.2-1.3-0.4-2.5-0.7c-1.3-0.2-2.3-0.6-3-1.1
			c-0.7-0.5-1.1-1.2-1.1-2.2c0-1.1,0.4-1.9,1.2-2.5c0.8-0.6,1.8-0.9,3-0.9c1.9,0,3.4,0.6,4.6,1.9l-1.3,1.2c-0.9-1-2-1.5-3.4-1.5
			c-0.7,0-1.2,0.1-1.7,0.4c-0.5,0.3-0.7,0.6-0.7,1.2c0,0.2,0.1,0.4,0.2,0.6c0.1,0.2,0.2,0.3,0.4,0.4c0.1,0.1,0.4,0.2,0.6,0.3
			c0.3,0.1,0.5,0.2,0.8,0.2s0.5,0.1,0.9,0.2c0.6,0.1,1,0.2,1.4,0.3c0.4,0.1,0.7,0.2,1.2,0.4c0.4,0.2,0.8,0.4,1,0.6
			c0.2,0.2,0.5,0.5,0.6,0.9C122.2,60,122.3,60.4,122.3,60.8z"/>
		<path class="st49" d="M135.4,58.5c0,1.7-0.5,3.2-1.5,4.3c-1,1.1-2.4,1.7-4.1,1.7c-1.7,0-3.1-0.6-4.1-1.7c-1-1.1-1.5-2.5-1.5-4.3
			c0-1.8,0.5-3.2,1.5-4.3c1-1.1,2.4-1.7,4.1-1.7c1.7,0,3.1,0.6,4.1,1.7S135.4,56.8,135.4,58.5z M133.4,58.5c0-1.2-0.3-2.3-1-3.1
			c-0.6-0.8-1.5-1.2-2.6-1.2s-2,0.4-2.6,1.2c-0.6,0.8-1,1.8-1,3.1c0,1.2,0.3,2.2,1,3c0.6,0.8,1.5,1.2,2.6,1.2s2-0.4,2.6-1.2
			S133.4,59.8,133.4,58.5z"/>
		<path class="st49" d="M140.1,64.2h-1.9V48.5h1.9V64.2z"/>
		<path class="st49" d="M153.3,52.8l-4.6,11.4h-2l-4.6-11.4h2.2l3.5,9.2l3.5-9.2H153.3z"/>
		<path class="st49" d="M165.6,58.2c0,0.3,0,0.5,0,0.7h-9c0.1,1.2,0.4,2.1,1.1,2.8c0.7,0.7,1.6,1,2.7,1c1.3,0,2.5-0.5,3.4-1.5
			l1.3,1.3c-1.2,1.3-2.8,2-4.7,2c-1.8,0-3.2-0.6-4.3-1.7c-1-1.1-1.6-2.5-1.6-4.3c0-1.7,0.5-3.2,1.5-4.3c1-1.1,2.4-1.7,4.1-1.7
			c1.6,0,3,0.5,4,1.6C165.1,55.2,165.6,56.6,165.6,58.2z M156.6,57.5h7c-0.1-1.1-0.5-1.9-1.1-2.5c-0.6-0.6-1.4-0.9-2.4-0.9
			c-1,0-1.8,0.3-2.4,0.9C157,55.7,156.7,56.5,156.6,57.5z"/>
	</g>
	<g>
		<rect x="670.1" y="15.9" class="st31" width="178.4" height="28.7"/>
		<path d="M716.5,38.8h-3V17.5h3V38.8z"/>
		<path d="M737.2,38.8h-2.8v-2.7c-1.5,2.1-3.4,3.1-5.9,3.1c-2.3,0-4.2-0.8-5.6-2.5c-1.4-1.6-2.1-3.7-2.1-6.2c0-2.5,0.7-4.6,2.1-6.3
			c1.4-1.6,3.2-2.5,5.6-2.5c2.5,0,4.4,1,5.9,3.1v-9h2.8V38.8z M732.9,34.9c0.9-1.2,1.4-2.6,1.4-4.4c0-1.8-0.5-3.2-1.4-4.4
			c-1-1.2-2.3-1.7-4-1.7c-1.7,0-3,0.6-3.9,1.7c-0.9,1.1-1.3,2.6-1.3,4.4s0.4,3.3,1.3,4.4c0.9,1.2,2.2,1.7,3.9,1.7
			C730.7,36.6,732,36,732.9,34.9z"/>
		<path d="M757.2,30c0,0.4,0,0.8-0.1,1.1H744c0.1,1.7,0.6,3,1.6,4c1,1,2.3,1.5,4,1.5c1.9,0,3.6-0.7,4.9-2.2l1.9,1.8
			c-1.8,1.9-4.1,2.9-6.8,2.9c-2.6,0-4.7-0.8-6.2-2.4c-1.5-1.6-2.3-3.7-2.3-6.2c0-2.5,0.7-4.6,2.2-6.3s3.5-2.5,5.9-2.5
			c2.4,0,4.3,0.8,5.8,2.4C756.4,25.7,757.2,27.7,757.2,30z M744.1,29h10.2c-0.1-1.5-0.7-2.7-1.6-3.6s-2.1-1.3-3.5-1.3
			c-1.4,0-2.6,0.4-3.5,1.3C744.7,26.4,744.2,27.6,744.1,29z"/>
		<path d="M775.8,36.6l0.4,2.1c-0.5,0.2-1.2,0.3-1.9,0.3c-0.9,0-1.6-0.2-2.2-0.7c-0.6-0.4-0.9-1.1-1.1-2c-1.3,1.9-3.2,2.8-5.7,2.8
			c-1.7,0-3.1-0.4-4.1-1.3c-1-0.9-1.5-2.1-1.5-3.7c0-0.7,0.1-1.4,0.4-2c0.3-0.6,0.6-1,0.9-1.4c0.4-0.3,0.8-0.6,1.4-0.9
			c0.6-0.2,1.1-0.4,1.5-0.5c0.4-0.1,1-0.2,1.5-0.3c0.2,0,0.6-0.1,1.1-0.1s0.9-0.1,1.1-0.1c0.2,0,0.5-0.1,0.9-0.2
			c0.4-0.1,0.7-0.2,0.9-0.3c0.2-0.1,0.4-0.2,0.6-0.4c0.2-0.2,0.4-0.4,0.5-0.6c0.1-0.2,0.1-0.5,0.1-0.8c0-0.9-0.4-1.5-1.1-1.9
			c-0.7-0.4-1.6-0.6-2.7-0.6c-1.9,0-3.6,0.6-5.2,1.8l-1.3-2.1c2-1.4,4.3-2.1,6.7-2.1c2,0,3.6,0.4,4.7,1.3c1.2,0.9,1.7,2.3,1.7,4.1
			v7.9c0,1.2,0.4,1.8,1.3,1.8C775.2,36.9,775.6,36.8,775.8,36.6z M770.7,32.4v-2.9c-0.2,0.3-0.4,0.5-0.7,0.7s-0.6,0.3-0.9,0.4
			c-0.4,0.1-0.7,0.2-0.9,0.2c-0.2,0.1-0.6,0.1-1.1,0.2c-0.5,0.1-0.9,0.1-1.2,0.2c-1.2,0.2-2,0.5-2.6,0.8c-0.6,0.4-0.9,1-0.9,2
			c0,0.9,0.3,1.6,1,2.1c0.6,0.5,1.5,0.7,2.5,0.7c1.3,0,2.5-0.4,3.4-1.1C770.3,35,770.7,33.9,770.7,32.4z"/>
		<path d="M787.5,35.9l1.2,2.1c-1,0.7-2.2,1.1-3.6,1.1c-2,0-3.5-0.7-4.4-2.1c-0.5-0.7-0.7-1.8-0.7-3.3v-9.3h-2.9v-2.3h2.9v-4.7h2.8
			v4.7h5.4v2.3h-5.4v9.3c0,1.9,0.9,2.9,2.6,2.9C786.2,36.6,786.9,36.4,787.5,35.9z"/>
		<path d="M806.7,30c0,0.4,0,0.8-0.1,1.1h-13.1c0.1,1.7,0.6,3,1.6,4s2.3,1.5,4,1.5c1.9,0,3.6-0.7,4.9-2.2l1.9,1.8
			c-1.8,1.9-4.1,2.9-6.8,2.9c-2.6,0-4.7-0.8-6.2-2.4c-1.5-1.6-2.3-3.7-2.3-6.2c0-2.5,0.7-4.6,2.2-6.3c1.5-1.7,3.5-2.5,5.9-2.5
			c2.4,0,4.3,0.8,5.8,2.4C805.9,25.7,806.7,27.7,806.7,30z M793.6,29h10.2c-0.1-1.5-0.7-2.7-1.6-3.6c-0.9-0.8-2.1-1.3-3.5-1.3
			c-1.4,0-2.6,0.4-3.5,1.3C794.2,26.4,793.7,27.6,793.6,29z"/>
	</g>
	<g>
		<rect x="672.3" y="48.5" class="st31" width="179" height="20.9"/>
		<path class="st49" d="M730.2,62.7l0.2,1.5c-0.4,0.1-0.8,0.2-1.3,0.2c-0.6,0-1.1-0.2-1.5-0.5c-0.4-0.3-0.6-0.8-0.7-1.4
			c-0.9,1.3-2.2,1.9-3.9,1.9c-1.2,0-2.1-0.3-2.8-0.9c-0.7-0.6-1.1-1.5-1.1-2.6c0-0.5,0.1-1,0.3-1.4s0.4-0.7,0.6-0.9
			c0.3-0.2,0.6-0.4,1-0.6c0.4-0.2,0.7-0.3,1-0.4c0.3-0.1,0.7-0.1,1.1-0.2c0.1,0,0.4,0,0.7-0.1c0.3,0,0.6-0.1,0.8-0.1
			c0.2,0,0.4-0.1,0.6-0.1c0.3-0.1,0.5-0.1,0.6-0.2s0.3-0.2,0.4-0.3c0.2-0.1,0.3-0.2,0.3-0.4c0.1-0.2,0.1-0.3,0.1-0.5
			c0-0.6-0.3-1-0.8-1.3c-0.5-0.3-1.1-0.4-1.8-0.4c-1.3,0-2.5,0.4-3.6,1.2l-0.9-1.5c1.4-1,2.9-1.5,4.6-1.5c1.4,0,2.4,0.3,3.2,0.9
			c0.8,0.6,1.2,1.6,1.2,2.8v5.4c0,0.8,0.3,1.2,0.9,1.2C729.8,62.9,730.1,62.8,730.2,62.7z M726.7,59.8v-2c-0.1,0.2-0.3,0.3-0.5,0.5
			c-0.2,0.1-0.4,0.2-0.6,0.3s-0.5,0.1-0.6,0.2c-0.2,0-0.4,0.1-0.8,0.1c-0.4,0.1-0.6,0.1-0.8,0.1c-0.8,0.1-1.4,0.3-1.8,0.6
			c-0.4,0.3-0.6,0.7-0.6,1.4s0.2,1.1,0.7,1.5c0.4,0.3,1,0.5,1.7,0.5c0.9,0,1.7-0.3,2.3-0.8S726.7,60.9,726.7,59.8z"/>
		<path class="st49" d="M734.4,64.2h-1.9V52.8h1.9v1.9c1-1.4,2.3-2.2,3.9-2.2c1.2,0,2.2,0.4,2.9,1.1c0.7,0.8,1.1,1.8,1.1,3.2v7.4
			h-1.9v-6.9c0-2-0.9-3-2.6-3c-1,0-1.8,0.3-2.5,1c-0.7,0.7-1,1.5-1,2.6V64.2z"/>
		<path class="st49" d="M756.1,64.2h-1.9v-1.9c-1,1.4-2.4,2.1-4.1,2.1c-1.6,0-2.9-0.6-3.8-1.7c-1-1.1-1.4-2.6-1.4-4.3
			c0-1.7,0.5-3.2,1.4-4.3c1-1.1,2.2-1.7,3.8-1.7c1.7,0,3.1,0.7,4.1,2.2v-6.2h1.9V64.2z M753.2,61.5c0.7-0.8,1-1.8,1-3
			c0-1.2-0.3-2.2-1-3c-0.7-0.8-1.6-1.2-2.7-1.2c-1.2,0-2,0.4-2.7,1.2c-0.6,0.8-0.9,1.8-0.9,3c0,1.2,0.3,2.2,0.9,3s1.5,1.2,2.7,1.2
			C751.6,62.7,752.6,62.3,753.2,61.5z"/>
		<path class="st49" d="M771.3,62.3l0.8,1.5c-0.7,0.5-1.5,0.8-2.5,0.8c-1.4,0-2.4-0.5-3-1.5c-0.3-0.5-0.5-1.3-0.5-2.3v-6.4h-2v-1.6
			h2v-3.2h1.9v3.2h3.7v1.6h-3.7v6.4c0,1.3,0.6,2,1.8,2C770.4,62.8,770.9,62.6,771.3,62.3z"/>
		<path class="st49" d="M784.5,58.2c0,0.3,0,0.5,0,0.7h-9c0.1,1.2,0.4,2.1,1.1,2.8c0.7,0.7,1.6,1,2.7,1c1.3,0,2.5-0.5,3.4-1.5
			l1.3,1.3c-1.2,1.3-2.8,2-4.7,2c-1.8,0-3.2-0.6-4.3-1.7c-1-1.1-1.6-2.5-1.6-4.3c0-1.7,0.5-3.2,1.5-4.3c1-1.1,2.4-1.7,4.1-1.7
			c1.6,0,3,0.5,4,1.6C784,55.2,784.5,56.6,784.5,58.2z M775.5,57.5h7c-0.1-1.1-0.5-1.9-1.1-2.5c-0.6-0.6-1.4-0.9-2.4-0.9
			c-1,0-1.8,0.3-2.4,0.9C775.9,55.7,775.6,56.5,775.5,57.5z"/>
		<path class="st49" d="M795.8,60.8c0,1.1-0.4,2-1.3,2.7c-0.8,0.7-2,1-3.4,1c-2.3,0-4-0.8-5.1-2.4l1.4-1.1c0.9,1.2,2.1,1.8,3.8,1.8
			c0.8,0,1.5-0.2,1.9-0.5c0.5-0.3,0.7-0.8,0.7-1.4c0-0.5-0.2-0.9-0.7-1.1c-0.4-0.2-1.3-0.4-2.5-0.7c-1.3-0.2-2.3-0.6-3-1.1
			c-0.7-0.5-1.1-1.2-1.1-2.2c0-1.1,0.4-1.9,1.2-2.5c0.8-0.6,1.8-0.9,3-0.9c1.9,0,3.4,0.6,4.6,1.9l-1.3,1.2c-0.9-1-2-1.5-3.4-1.5
			c-0.7,0-1.2,0.1-1.7,0.4c-0.5,0.3-0.7,0.6-0.7,1.2c0,0.2,0.1,0.4,0.2,0.6c0.1,0.2,0.2,0.3,0.4,0.4c0.1,0.1,0.4,0.2,0.6,0.3
			c0.3,0.1,0.5,0.2,0.8,0.2c0.2,0,0.5,0.1,0.9,0.2c0.6,0.1,1,0.2,1.4,0.3c0.4,0.1,0.7,0.2,1.2,0.4c0.4,0.2,0.8,0.4,1,0.6
			c0.2,0.2,0.5,0.5,0.6,0.9C795.7,60,795.8,60.4,795.8,60.8z"/>
		<path class="st49" d="M804.3,62.3l0.8,1.5c-0.7,0.5-1.5,0.8-2.5,0.8c-1.4,0-2.4-0.5-3-1.5c-0.3-0.5-0.5-1.3-0.5-2.3v-6.4h-2v-1.6
			h2v-3.2h1.9v3.2h3.7v1.6H801v6.4c0,1.3,0.6,2,1.8,2C803.4,62.8,803.9,62.6,804.3,62.3z"/>
	</g>
	<g>
		<rect x="993.4" y="15.9" class="st31" width="178.4" height="28.7"/>
		<path d="M1041.9,38.8h-2.9V20.6l-6.9,18.2h-2.6l-7-18.2v18.2h-2.9V17.5h4.5l6.8,17.6l6.8-17.6h4.4V38.8z"/>
		<path d="M1062.3,30c0,0.4,0,0.8-0.1,1.1h-13.1c0.1,1.7,0.6,3,1.6,4c1,1,2.3,1.5,4,1.5c1.9,0,3.6-0.7,4.9-2.2l1.9,1.8
			c-1.8,1.9-4.1,2.9-6.8,2.9c-2.6,0-4.7-0.8-6.2-2.4c-1.5-1.6-2.3-3.7-2.3-6.2c0-2.5,0.7-4.6,2.2-6.3s3.5-2.5,5.9-2.5
			c2.4,0,4.3,0.8,5.8,2.4C1061.6,25.7,1062.3,27.7,1062.3,30z M1049.3,29h10.2c-0.1-1.5-0.7-2.7-1.6-3.6s-2.1-1.3-3.5-1.3
			c-1.4,0-2.6,0.4-3.5,1.3S1049.4,27.6,1049.3,29z"/>
		<path d="M1081,36.6l0.4,2.1c-0.5,0.2-1.2,0.3-1.9,0.3c-0.9,0-1.6-0.2-2.2-0.7c-0.6-0.4-0.9-1.1-1.1-2c-1.3,1.9-3.2,2.8-5.7,2.8
			c-1.7,0-3.1-0.4-4.1-1.3s-1.5-2.1-1.5-3.7c0-0.7,0.1-1.4,0.4-2c0.3-0.6,0.6-1,0.9-1.4c0.4-0.3,0.8-0.6,1.4-0.9
			c0.6-0.2,1.1-0.4,1.5-0.5c0.4-0.1,1-0.2,1.5-0.3c0.2,0,0.6-0.1,1.1-0.1c0.5-0.1,0.9-0.1,1.1-0.1c0.2,0,0.5-0.1,0.9-0.2
			c0.4-0.1,0.7-0.2,0.9-0.3c0.2-0.1,0.4-0.2,0.6-0.4c0.2-0.2,0.4-0.4,0.5-0.6c0.1-0.2,0.1-0.5,0.1-0.8c0-0.9-0.4-1.5-1.1-1.9
			c-0.7-0.4-1.6-0.6-2.7-0.6c-1.9,0-3.6,0.6-5.2,1.8l-1.3-2.1c2-1.4,4.3-2.1,6.7-2.1c2,0,3.6,0.4,4.7,1.3s1.7,2.3,1.7,4.1v7.9
			c0,1.2,0.4,1.8,1.3,1.8C1080.4,36.9,1080.7,36.8,1081,36.6z M1075.9,32.4v-2.9c-0.2,0.3-0.4,0.5-0.7,0.7s-0.6,0.3-0.9,0.4
			c-0.4,0.1-0.7,0.2-0.9,0.2c-0.2,0.1-0.6,0.1-1.1,0.2c-0.5,0.1-0.9,0.1-1.2,0.2c-1.2,0.2-2,0.5-2.6,0.8c-0.6,0.4-0.9,1-0.9,2
			c0,0.9,0.3,1.6,1,2.1c0.6,0.5,1.5,0.7,2.5,0.7c1.3,0,2.5-0.4,3.4-1.1C1075.4,35,1075.9,33.9,1075.9,32.4z"/>
		<path d="M1096.9,33.9c0,1.6-0.6,2.9-1.8,3.9s-2.9,1.5-5,1.5c-3.3,0-5.8-1.2-7.4-3.6l2-1.5c1.3,1.8,3.1,2.7,5.5,2.7
			c1.2,0,2.1-0.2,2.8-0.7c0.7-0.5,1.1-1.1,1.1-2c0-0.8-0.3-1.3-1-1.6c-0.6-0.3-1.8-0.6-3.6-1c-1.9-0.4-3.4-0.9-4.4-1.6
			c-1-0.7-1.5-1.8-1.5-3.3c0-1.6,0.6-2.8,1.8-3.6s2.7-1.2,4.4-1.2c2.7,0,5,0.9,6.8,2.8l-1.9,1.8c-1.2-1.4-2.9-2.1-4.9-2.1
			c-1,0-1.8,0.2-2.5,0.6c-0.7,0.4-1,0.9-1,1.7c0,0.3,0.1,0.6,0.2,0.9s0.3,0.5,0.5,0.6c0.2,0.2,0.5,0.3,0.9,0.4
			c0.4,0.1,0.8,0.2,1.1,0.3c0.3,0.1,0.7,0.1,1.3,0.3c0.8,0.1,1.5,0.3,2,0.4c0.5,0.1,1.1,0.3,1.7,0.6s1.1,0.5,1.5,0.9
			c0.4,0.3,0.7,0.7,0.9,1.3C1096.8,32.6,1096.9,33.2,1096.9,33.9z"/>
		<path d="M1112.1,22.1h2.8v16.6h-2.8v-2.7c-1.5,2.1-3.4,3.1-5.7,3.1c-1.8,0-3.2-0.6-4.3-1.7s-1.6-2.6-1.6-4.6V22.1h2.8v10.1
			c0,2.9,1.2,4.3,3.7,4.3c1.5,0,2.7-0.5,3.6-1.4c1-1,1.4-2.2,1.4-3.7V22.1z"/>
		<path d="M1129.8,22.4l-0.9,2.7c-0.6-0.3-1.3-0.5-1.9-0.5c-1.2,0-2.2,0.5-3,1.5c-0.8,1-1.3,2.3-1.3,4v8.7h-2.8V22.1h2.8V25
			c1.3-2.1,2.9-3.1,4.8-3.1C1128.4,21.8,1129.2,22,1129.8,22.4z"/>
		<path d="M1147.2,30c0,0.4,0,0.8-0.1,1.1h-13.1c0.1,1.7,0.6,3,1.6,4s2.3,1.5,4,1.5c1.9,0,3.6-0.7,4.9-2.2l1.9,1.8
			c-1.8,1.9-4.1,2.9-6.8,2.9c-2.6,0-4.7-0.8-6.2-2.4c-1.5-1.6-2.3-3.7-2.3-6.2c0-2.5,0.7-4.6,2.2-6.3s3.5-2.5,5.9-2.5
			c2.4,0,4.3,0.8,5.8,2.4C1146.5,25.7,1147.2,27.7,1147.2,30z M1134.1,29h10.2c-0.1-1.5-0.7-2.7-1.6-3.6c-0.9-0.8-2.1-1.3-3.5-1.3
			c-1.4,0-2.6,0.4-3.5,1.3S1134.2,27.6,1134.1,29z"/>
	</g>
	<g>
		<rect x="993.4" y="48.5" class="st31" width="179" height="20.9"/>
		<path class="st49" d="M1045.8,62.7l0.2,1.5c-0.4,0.1-0.8,0.2-1.3,0.2c-0.6,0-1.1-0.2-1.5-0.5c-0.4-0.3-0.6-0.8-0.7-1.4
			c-0.9,1.3-2.2,1.9-3.9,1.9c-1.2,0-2.1-0.3-2.8-0.9c-0.7-0.6-1.1-1.5-1.1-2.6c0-0.5,0.1-1,0.3-1.4s0.4-0.7,0.6-0.9
			c0.3-0.2,0.6-0.4,1-0.6c0.4-0.2,0.7-0.3,1-0.4c0.3-0.1,0.7-0.1,1.1-0.2c0.1,0,0.4,0,0.7-0.1c0.3,0,0.6-0.1,0.8-0.1
			c0.2,0,0.4-0.1,0.6-0.1c0.3-0.1,0.5-0.1,0.6-0.2c0.1-0.1,0.3-0.2,0.4-0.3c0.2-0.1,0.3-0.2,0.3-0.4c0.1-0.2,0.1-0.3,0.1-0.5
			c0-0.6-0.3-1-0.8-1.3c-0.5-0.3-1.1-0.4-1.8-0.4c-1.3,0-2.5,0.4-3.6,1.2l-0.9-1.5c1.4-1,2.9-1.5,4.6-1.5c1.4,0,2.4,0.3,3.2,0.9
			c0.8,0.6,1.2,1.6,1.2,2.8v5.4c0,0.8,0.3,1.2,0.9,1.2C1045.4,62.9,1045.6,62.8,1045.8,62.7z M1042.3,59.8v-2
			c-0.1,0.2-0.3,0.3-0.5,0.5c-0.2,0.1-0.4,0.2-0.6,0.3s-0.5,0.1-0.6,0.2s-0.4,0.1-0.8,0.1c-0.4,0.1-0.6,0.1-0.8,0.1
			c-0.8,0.1-1.4,0.3-1.8,0.6c-0.4,0.3-0.6,0.7-0.6,1.4s0.2,1.1,0.7,1.5c0.4,0.3,1,0.5,1.7,0.5c0.9,0,1.7-0.3,2.3-0.8
			S1042.3,60.9,1042.3,59.8z"/>
		<path class="st49" d="M1049.9,64.2h-1.9V52.8h1.9v1.9c1-1.4,2.3-2.2,3.9-2.2c1.2,0,2.2,0.4,2.9,1.1c0.7,0.8,1.1,1.8,1.1,3.2v7.4
			h-1.9v-6.9c0-2-0.9-3-2.6-3c-1,0-1.8,0.3-2.5,1c-0.7,0.7-1,1.5-1,2.6V64.2z"/>
		<path class="st49" d="M1071.7,64.2h-1.9v-1.9c-1,1.4-2.4,2.1-4.1,2.1c-1.6,0-2.9-0.6-3.8-1.7c-1-1.1-1.4-2.6-1.4-4.3
			c0-1.7,0.5-3.2,1.4-4.3c1-1.1,2.2-1.7,3.8-1.7c1.7,0,3.1,0.7,4.1,2.2v-6.2h1.9V64.2z M1068.8,61.5c0.7-0.8,1-1.8,1-3
			c0-1.2-0.3-2.2-1-3s-1.6-1.2-2.7-1.2c-1.2,0-2,0.4-2.7,1.2c-0.6,0.8-0.9,1.8-0.9,3c0,1.2,0.3,2.2,0.9,3s1.5,1.2,2.7,1.2
			C1067.2,62.7,1068.1,62.3,1068.8,61.5z"/>
		<path class="st49" d="M1083,64.2h-1.9V48.5h1.9V64.2z"/>
		<path class="st49" d="M1096.8,58.2c0,0.3,0,0.5,0,0.7h-9c0.1,1.2,0.4,2.1,1.1,2.8c0.7,0.7,1.6,1,2.7,1c1.3,0,2.5-0.5,3.4-1.5
			l1.3,1.3c-1.2,1.3-2.8,2-4.7,2c-1.8,0-3.2-0.6-4.3-1.7c-1-1.1-1.6-2.5-1.6-4.3c0-1.7,0.5-3.2,1.5-4.3c1-1.1,2.4-1.7,4.1-1.7
			c1.6,0,3,0.5,4,1.6C1096.3,55.2,1096.8,56.6,1096.8,58.2z M1087.8,57.5h7c-0.1-1.1-0.5-1.9-1.1-2.5c-0.6-0.6-1.4-0.9-2.4-0.9
			c-1,0-1.8,0.3-2.4,0.9C1088.3,55.7,1087.9,56.5,1087.8,57.5z"/>
		<path class="st49" d="M1109.6,62.7l0.2,1.5c-0.4,0.1-0.8,0.2-1.3,0.2c-0.6,0-1.1-0.2-1.5-0.5c-0.4-0.3-0.6-0.8-0.7-1.4
			c-0.9,1.3-2.2,1.9-3.9,1.9c-1.2,0-2.1-0.3-2.8-0.9c-0.7-0.6-1.1-1.5-1.1-2.6c0-0.5,0.1-1,0.3-1.4s0.4-0.7,0.6-0.9
			c0.3-0.2,0.6-0.4,1-0.6c0.4-0.2,0.7-0.3,1-0.4c0.3-0.1,0.7-0.1,1.1-0.2c0.1,0,0.4,0,0.7-0.1c0.3,0,0.6-0.1,0.8-0.1
			c0.2,0,0.4-0.1,0.6-0.1c0.3-0.1,0.5-0.1,0.6-0.2c0.1-0.1,0.3-0.2,0.4-0.3c0.2-0.1,0.3-0.2,0.3-0.4c0.1-0.2,0.1-0.3,0.1-0.5
			c0-0.6-0.3-1-0.8-1.3c-0.5-0.3-1.1-0.4-1.8-0.4c-1.3,0-2.5,0.4-3.6,1.2l-0.9-1.5c1.4-1,2.9-1.5,4.6-1.5c1.4,0,2.4,0.3,3.2,0.9
			c0.8,0.6,1.2,1.6,1.2,2.8v5.4c0,0.8,0.3,1.2,0.9,1.2C1109.3,62.9,1109.5,62.8,1109.6,62.7z M1106.2,59.8v-2
			c-0.1,0.2-0.3,0.3-0.5,0.5c-0.2,0.1-0.4,0.2-0.6,0.3s-0.5,0.1-0.6,0.2s-0.4,0.1-0.8,0.1c-0.4,0.1-0.6,0.1-0.8,0.1
			c-0.8,0.1-1.4,0.3-1.8,0.6c-0.4,0.3-0.6,0.7-0.6,1.4s0.2,1.1,0.7,1.5c0.4,0.3,1,0.5,1.7,0.5c0.9,0,1.7-0.3,2.3-0.8
			S1106.2,60.9,1106.2,59.8z"/>
		<path class="st49" d="M1118.7,53l-0.6,1.8c-0.4-0.2-0.9-0.4-1.3-0.4c-0.8,0-1.5,0.3-2.1,1c-0.6,0.7-0.9,1.6-0.9,2.8v6h-1.9V52.8
			h1.9v1.9c0.9-1.4,2-2.2,3.3-2.2C1117.7,52.6,1118.2,52.7,1118.7,53z"/>
		<path class="st49" d="M1122.4,64.2h-1.9V52.8h1.9v1.9c1-1.4,2.3-2.2,3.9-2.2c1.2,0,2.2,0.4,2.9,1.1c0.7,0.8,1.1,1.8,1.1,3.2v7.4
			h-1.9v-6.9c0-2-0.9-3-2.6-3c-1,0-1.8,0.3-2.5,1c-0.7,0.7-1,1.5-1,2.6V64.2z"/>
	</g>
	<g>
		<g>
			<path class="st52" d="M1082.9,301.4v11.7c0,14.4-11.8,26-26.3,26H143.1c-14.7,0-26.7-11.8-26.7-26.4v-9.1"/>
			<g>
				<polygon class="st51" points="124.5,310.2 123.1,311.6 116.4,304.3 109.7,311.6 108.2,310.2 116.4,301.4 				"/>
			</g>
		</g>
	</g>
</g>
<g id="Layer_2">
</g>
<g id="Layer_3">
</g>
</svg>
