<?xml version="1.0" encoding="utf-8"?>
<!-- Generator: Adobe Illustrator 23.0.1, SVG Export Plug-In . SVG Version: 6.00 Build 0)  -->
<svg version="1.1" xmlns="http://www.w3.org/2000/svg" xmlns:xlink="http://www.w3.org/1999/xlink" x="0px" y="0px"
	 viewBox="0 0 360 782.2" style="enable-background:new 0 0 360 782.2;" xml:space="preserve">
<style type="text/css">
	.st0{enable-background:new    ;}
	.st1{fill:#F6F6F6;}
	.st2{fill:none;stroke:#808285;stroke-width:2;stroke-linecap:round;stroke-miterlimit:10;stroke-dasharray:3.008,5.0134;}
	.st3{fill:none;stroke:#231F20;stroke-width:2;stroke-linecap:round;stroke-miterlimit:10;}
	.st4{fill:#231F20;}
	.st5{fill-rule:evenodd;clip-rule:evenodd;fill:#6A6DAA;}
	.st6{fill:#FFFFFF;stroke:#231F20;stroke-miterlimit:10;}
	.st7{fill:#FFFFFF;}
	.st8{fill:none;stroke:#231F20;stroke-miterlimit:10;}
	.st9{fill:none;stroke:#231F20;stroke-width:0.25;stroke-miterlimit:10;}
	.st10{fill:#808285;}
	.st11{fill:#C0E7F1;}
	.st12{fill:#EBF7FA;}
	.st13{fill:#AED1EE;}
	.st14{fill:#6EA8DC;}
	.st15{fill:#4689AE;}
	.st16{fill:#F45245;}
	.st17{fill:#68E55E;}
	.st18{fill:#4A4A4A;}
	.st19{fill:#60B845;enable-background:new    ;}
	.st20{fill:#FBCD67;enable-background:new    ;}
	.st21{fill:#FAB828;enable-background:new    ;}
	.st22{fill:#F7831B;enable-background:new    ;}
	.st23{fill:#DF3B3E;enable-background:new    ;}
	.st24{fill:#089CDB;enable-background:new    ;}
	.st25{fill:#943A95;enable-background:new    ;}
	.st26{fill:url(#Silent_Button_2_);}
	.st27{fill:url(#Volume_Up_Button_2_);}
	.st28{fill:url(#Volume_Down_Button_2_);}
	.st29{fill:url(#Power_Button_2_);}
	.st30{fill:#000100;}
	.st31{fill:none;}
	.st32{fill:none;stroke:#FFFFFF;stroke-width:4;stroke-miterlimit:10;}
	.st33{opacity:0.801;fill:url(#Shadow_1_);enable-background:new    ;}
	.st34{opacity:0.801;fill:url(#Shadow-2_1_);enable-background:new    ;}
	.st35{opacity:0.403;fill:#ACACAC;enable-background:new    ;}
	.st36{fill:#202022;}
	.st37{fill:#133456;}
	.st38{fill:#2771BD;}
	.st39{fill:url(#Rectangle_1_);}
	.st40{fill:url(#_2_1_);}
	.st41{fill:url(#_1_1_);}
	.st42{fill:url(#_2-2_2_);}
	.st43{fill:url(#_1-2_2_);}
	.st44{fill:#AAAAAA;}
	.st45{clip-path:url(#SVGID_2_);}
	.st46{fill:url(#);}
	.st47{fill:#1F1F1F;stroke:#FFFFFF;stroke-miterlimit:10;}
	.st48{fill:#1A1A1A;stroke:#FFFFFF;stroke-miterlimit:10;}
	.st49{fill:#58595B;}
	.st50{fill:none;stroke:#939598;stroke-width:3;stroke-miterlimit:10;}
	.st51{fill:#939598;}
	.st52{fill:none;stroke:#939598;stroke-width:2;stroke-miterlimit:10;}
	.st53{fill:none;stroke:#808285;stroke-width:2;stroke-linecap:round;stroke-miterlimit:10;stroke-dasharray:2.9721,4.9535;}
	.st54{fill:none;stroke:#808285;stroke-width:2;stroke-linecap:round;stroke-miterlimit:10;stroke-dasharray:3.0448,5.0747;}
	.st55{clip-path:url(#SVGID_8_);}
	.st56{clip-path:url(#SVGID_10_);}
	.st57{clip-path:url(#SVGID_12_);}
	.st58{clip-path:url(#SVGID_14_);}
	.st59{clip-path:url(#SVGID_16_);}
	.st60{clip-path:url(#SVGID_18_);}
	.st61{fill-rule:evenodd;clip-rule:evenodd;fill:#58595B;}
	.st62{fill:#2AF73C;stroke:#FFFFFF;}
	.st63{fill:none;stroke:#58595B;stroke-width:0.1;}
	.st64{fill:#6D6E71;}
</style>
<symbol  id="Circle" viewBox="-121 -121 242 242">
	<g class="st0">
		<circle class="st1" cx="0" cy="0" r="120"/>
		<circle class="st2" cx="0" cy="0" r="120"/>
	</g>
	<circle class="st3" cx="0" cy="0" r="11"/>
	<circle class="st4" cx="0" cy="0" r="3"/>
</symbol>
<g id="Layer_1">
	<g>
		<g>
			<line class="st50" x1="246.2" y1="70.3" x2="246.2" y2="157.4"/>
			<g>
				<polygon class="st51" points="234,147.4 236.2,145.4 246.2,156.2 256.3,145.4 258.5,147.4 246.2,160.6 				"/>
			</g>
		</g>
	</g>
	<g>
		<g>
			<line class="st50" x1="246.2" y1="230.4" x2="246.2" y2="317.4"/>
			<g>
				<polygon class="st51" points="234,307.5 236.2,305.5 246.2,316.3 256.3,305.5 258.5,307.5 246.2,320.7 				"/>
			</g>
		</g>
	</g>
	<g>
		<g>
			<line class="st50" x1="246.2" y1="389.9" x2="246.2" y2="476.9"/>
			<g>
				<polygon class="st51" points="234,467 236.2,464.9 246.2,475.8 256.3,464.9 258.5,467 246.2,480.2 				"/>
			</g>
		</g>
	</g>
	<g>
		<g>
			<line class="st50" x1="246.2" y1="548.8" x2="246.2" y2="635.8"/>
			<g>
				<polygon class="st51" points="234,625.9 236.2,623.8 246.2,634.7 256.3,623.8 258.5,625.9 246.2,639.1 				"/>
			</g>
		</g>
	</g>
	
		<use xlink:href="#Circle"  width="242" height="242" id="XMLID_20_" x="-121" y="-121" transform="matrix(0 0.5734 0.5734 0 246.2321 70.5557)" style="overflow:visible;"/>
	
		<use xlink:href="#Circle"  width="242" height="242" id="XMLID_19_" x="-121" y="-121" transform="matrix(0 0.5734 0.5734 0 246.2321 230.1939)" style="overflow:visible;"/>
	
		<use xlink:href="#Circle"  width="242" height="242" id="XMLID_18_" x="-121" y="-121" transform="matrix(0 0.5734 0.5734 0 246.2321 389.8322)" style="overflow:visible;"/>
	
		<use xlink:href="#Circle"  width="242" height="242" id="XMLID_17_" x="-121" y="-121" transform="matrix(0 0.5734 0.5734 0 246.2321 549.4704)" style="overflow:visible;"/>
	
		<use xlink:href="#Circle"  width="242" height="242" id="XMLID_16_" x="-121" y="-121" transform="matrix(0 0.5734 0.5734 0 246.2321 708.6616)" style="overflow:visible;"/>
	<g>
		<rect x="4.4" y="25.4" class="st31" width="178.4" height="25.3"/>
		<path d="M22.7,48.3H7.2V27h15.1v2.8H10.2v6h10.5v2.6H10.2v7.2h12.4V48.3z"/>
		<path d="M29.5,48.3h-2.8V31.6h2.8v2.7c1.4-2,3.2-3.1,5.4-3.1c2.5,0,4.2,1.1,5,3.4c1.5-2.2,3.4-3.4,5.9-3.4c1.8,0,3.2,0.5,4.1,1.6
			c1,1.1,1.5,2.6,1.5,4.5v10.8h-2.8V38.1c0-2.8-1.2-4.2-3.5-4.2c-1.3,0-2.5,0.5-3.4,1.4c-0.9,0.9-1.3,2.2-1.3,3.7v9.3h-2.8V38.1
			c0-2.8-1.2-4.2-3.5-4.2c-1.4,0-2.5,0.5-3.4,1.4c-0.9,0.9-1.3,2.2-1.3,3.7V48.3z"/>
		<path d="M56.2,31.6H59v2.8c1.5-2.1,3.4-3.1,5.9-3.1c2.3,0,4.2,0.8,5.6,2.5c1.4,1.6,2.1,3.7,2.1,6.2s-0.7,4.6-2.1,6.2
			c-1.4,1.6-3.2,2.5-5.6,2.5c-2.5,0-4.5-1-5.9-3.1v8.3h-2.8V31.6z M60.4,35.6C59.4,36.7,59,38.2,59,40c0,1.8,0.5,3.2,1.4,4.4
			c0.9,1.2,2.3,1.7,4,1.7s3-0.6,3.9-1.7c0.9-1.1,1.3-2.6,1.3-4.4s-0.4-3.3-1.3-4.4c-0.9-1.2-2.2-1.7-3.9-1.7
			C62.6,33.8,61.3,34.4,60.4,35.6z"/>
		<path d="M79.2,48.3h-2.8V25.4h2.8v9c1.4-2.1,3.3-3.1,5.7-3.1c1.8,0,3.2,0.6,4.3,1.7c1,1.1,1.6,2.7,1.6,4.6v10.7H88V38.2
			c0-2.9-1.2-4.3-3.7-4.3c-1.5,0-2.7,0.5-3.6,1.4c-0.9,1-1.4,2.2-1.4,3.7V48.3z"/>
		<path d="M110.5,46.1l0.4,2.1c-0.5,0.2-1.2,0.3-1.9,0.3c-0.9,0-1.6-0.2-2.2-0.7c-0.6-0.4-0.9-1.1-1.1-2c-1.3,1.9-3.2,2.8-5.7,2.8
			c-1.7,0-3.1-0.4-4.1-1.3s-1.5-2.1-1.5-3.7c0-0.7,0.1-1.4,0.4-2c0.3-0.6,0.6-1,0.9-1.4c0.4-0.3,0.8-0.6,1.4-0.9
			c0.6-0.2,1.1-0.4,1.5-0.5c0.4-0.1,1-0.2,1.5-0.3c0.2,0,0.6-0.1,1.1-0.1c0.5-0.1,0.9-0.1,1.1-0.1c0.2,0,0.5-0.1,0.9-0.2
			c0.4-0.1,0.7-0.2,0.9-0.3c0.2-0.1,0.4-0.2,0.6-0.4c0.2-0.2,0.4-0.4,0.5-0.6c0.1-0.2,0.1-0.5,0.1-0.8c0-0.9-0.4-1.5-1.1-1.9
			c-0.7-0.4-1.6-0.6-2.7-0.6c-1.9,0-3.6,0.6-5.2,1.8l-1.3-2.1c2-1.4,4.3-2.1,6.7-2.1c2,0,3.6,0.4,4.7,1.3s1.7,2.3,1.7,4.1v7.9
			c0,1.2,0.4,1.8,1.3,1.8C109.9,46.4,110.2,46.3,110.5,46.1z M105.4,41.9V39c-0.2,0.3-0.4,0.5-0.7,0.7s-0.6,0.3-0.9,0.4
			c-0.4,0.1-0.7,0.2-0.9,0.2s-0.6,0.1-1.1,0.2c-0.5,0.1-0.9,0.1-1.2,0.2c-1.2,0.2-2,0.5-2.6,0.8c-0.6,0.4-0.9,1-0.9,2
			c0,0.9,0.3,1.6,1,2.1c0.6,0.5,1.5,0.7,2.5,0.7c1.3,0,2.5-0.4,3.4-1.1C104.9,44.5,105.4,43.4,105.4,41.9z"/>
		<path d="M122.2,45.4l1.2,2.1c-1,0.7-2.2,1.1-3.6,1.1c-2,0-3.5-0.7-4.4-2.1c-0.5-0.7-0.7-1.8-0.7-3.3v-9.3h-2.9v-2.3h2.9V27h2.8
			v4.7h5.4v2.3h-5.4v9.3c0,1.9,0.9,2.9,2.6,2.9C120.9,46.1,121.6,45.9,122.2,45.4z"/>
		<path d="M129.1,28.4h-2.8v-2.9h2.8V28.4z M129.1,48.3h-2.8V31.6h2.8V48.3z"/>
		<path d="M146.8,43.3c0,1.6-0.6,2.9-1.8,3.9s-2.9,1.5-5,1.5c-3.3,0-5.8-1.2-7.4-3.6l2-1.5c1.3,1.8,3.1,2.7,5.5,2.7
			c1.2,0,2.1-0.2,2.8-0.7c0.7-0.5,1.1-1.1,1.1-2c0-0.8-0.3-1.3-1-1.6c-0.6-0.3-1.8-0.6-3.6-1c-1.9-0.4-3.4-0.9-4.4-1.6
			c-1-0.7-1.5-1.8-1.5-3.3c0-1.6,0.6-2.8,1.8-3.6s2.7-1.2,4.4-1.2c2.7,0,5,0.9,6.8,2.8l-1.9,1.8c-1.2-1.4-2.9-2.1-4.9-2.1
			c-1,0-1.8,0.2-2.5,0.6c-0.7,0.4-1,0.9-1,1.7c0,0.3,0.1,0.6,0.2,0.9s0.3,0.5,0.5,0.6s0.5,0.3,0.9,0.4c0.4,0.1,0.8,0.2,1.1,0.3
			c0.3,0.1,0.7,0.1,1.3,0.3c0.8,0.1,1.5,0.3,2,0.4s1.1,0.3,1.7,0.6s1.1,0.5,1.5,0.9c0.4,0.3,0.7,0.7,0.9,1.3
			C146.7,42.1,146.8,42.7,146.8,43.3z"/>
		<path d="M165.7,39.5c0,0.4,0,0.8-0.1,1.1h-13.1c0.1,1.7,0.6,3,1.6,4c1,1,2.3,1.5,4,1.5c1.9,0,3.6-0.7,4.9-2.2l1.9,1.8
			c-1.8,1.9-4.1,2.9-6.8,2.9c-2.6,0-4.7-0.8-6.2-2.4c-1.5-1.6-2.3-3.7-2.3-6.2c0-2.5,0.7-4.6,2.2-6.3c1.5-1.7,3.5-2.5,5.9-2.5
			c2.4,0,4.3,0.8,5.8,2.4C164.9,35.2,165.7,37.2,165.7,39.5z M152.6,38.5h10.2c-0.1-1.5-0.7-2.7-1.6-3.6c-0.9-0.8-2.1-1.3-3.5-1.3
			c-1.4,0-2.6,0.4-3.5,1.3S152.7,37,152.6,38.5z"/>
	</g>
	<g>
		<rect x="4.5" y="175.3" class="st31" width="178.4" height="25.7"/>
		<path d="M15.6,198.1H7.4v-21.3h8.3c3.2,0,5.7,1,7.6,3c1.8,2,2.8,4.5,2.8,7.7c0,3.1-0.9,5.7-2.8,7.7
			C21.4,197.2,18.9,198.1,15.6,198.1z M10.4,195.4h5.2c2.3,0,4.1-0.7,5.3-2.1c1.2-1.4,1.9-3.3,1.9-5.8c0-2.4-0.6-4.4-1.9-5.8
			s-3-2.1-5.3-2.1h-5.2V195.4z"/>
		<path d="M45.1,189.4c0,0.4,0,0.8-0.1,1.1H31.9c0.1,1.7,0.6,3,1.6,4c1,1,2.3,1.5,4,1.5c1.9,0,3.6-0.7,4.9-2.2l1.9,1.8
			c-1.8,1.9-4.1,2.9-6.8,2.9c-2.6,0-4.7-0.8-6.2-2.4c-1.5-1.6-2.3-3.7-2.3-6.2c0-2.5,0.7-4.6,2.2-6.3c1.5-1.7,3.5-2.5,5.9-2.5
			c2.4,0,4.3,0.8,5.8,2.4C44.3,185.1,45.1,187,45.1,189.4z M32,188.4h10.2c-0.1-1.5-0.7-2.7-1.6-3.6c-0.9-0.8-2.1-1.3-3.5-1.3
			c-1.4,0-2.6,0.4-3.5,1.3C32.6,185.8,32.1,186.9,32,188.4z"/>
		<path d="M57.5,175.3l-0.4,2.3c-0.8-0.2-1.4-0.3-2-0.3c-0.8,0-1.4,0.2-1.8,0.5c-0.4,0.3-0.6,0.9-0.6,1.7v2h3.9v2.3h-3.9v14.3H50
			v-14.3h-2.8v-2.3H50v-2c0-1.5,0.4-2.7,1.3-3.4c0.9-0.8,2.1-1.2,3.6-1.2C56,174.9,56.8,175.1,57.5,175.3z M62.3,178.2h-2.8v-2.9
			h2.8V178.2z M62.3,198.1h-2.8v-16.6h2.8V198.1z"/>
		<path d="M70.1,198.1h-2.8v-16.6h2.8v2.8c1.4-2.1,3.3-3.1,5.7-3.1c1.8,0,3.2,0.6,4.3,1.7c1,1.1,1.6,2.7,1.6,4.6v10.7h-2.8v-10.1
			c0-2.9-1.2-4.3-3.7-4.3c-1.5,0-2.7,0.5-3.6,1.4c-0.9,1-1.4,2.2-1.4,3.7V198.1z"/>
		<path d="M101.4,189.4c0,0.4,0,0.8-0.1,1.1H88.3c0.1,1.7,0.6,3,1.6,4c1,1,2.3,1.5,4,1.5c1.9,0,3.6-0.7,4.9-2.2l1.9,1.8
			c-1.8,1.9-4.1,2.9-6.8,2.9c-2.6,0-4.7-0.8-6.2-2.4c-1.5-1.6-2.3-3.7-2.3-6.2c0-2.5,0.7-4.6,2.2-6.3c1.5-1.7,3.5-2.5,5.9-2.5
			c2.4,0,4.3,0.8,5.8,2.4C100.7,185.1,101.4,187,101.4,189.4z M88.4,188.4h10.2c-0.1-1.5-0.7-2.7-1.6-3.6c-0.9-0.8-2.1-1.3-3.5-1.3
			c-1.4,0-2.6,0.4-3.5,1.3C89,185.8,88.5,186.9,88.4,188.4z"/>
	</g>
	<g>
		<rect x="4.5" y="203.3" class="st31" width="170.8" height="82.3"/>
		<path class="st49" d="M15.9,206.3l-1.3,0.9c-0.8-1.2-1.9-1.8-3.3-1.8c-1.2,0-2.2,0.4-3,1.3c-0.7,0.8-1.1,2-1.1,3.4
			c0,1.4,0.4,2.6,1.1,3.4c0.7,0.9,1.7,1.3,2.9,1.3c1.5,0,2.6-0.6,3.4-1.9l1.4,0.9c-1.1,1.7-2.7,2.5-4.8,2.5c-1.7,0-3.1-0.6-4.2-1.7
			c-1.1-1.2-1.6-2.7-1.6-4.5c0-1.8,0.5-3.3,1.6-4.5c1.1-1.2,2.5-1.7,4.2-1.7C13.2,203.9,14.8,204.7,15.9,206.3z"/>
		<path class="st49" d="M26.5,211.4c0,1.4-0.4,2.6-1.3,3.5c-0.8,0.9-2,1.4-3.3,1.4c-1.4,0-2.5-0.5-3.4-1.4s-1.3-2.1-1.3-3.5
			c0-1.4,0.4-2.6,1.3-3.5c0.8-0.9,2-1.4,3.4-1.4c1.4,0,2.5,0.5,3.3,1.4C26.1,208.8,26.5,210,26.5,211.4z M24.8,211.4
			c0-1-0.3-1.9-0.8-2.5c-0.5-0.7-1.2-1-2.2-1s-1.6,0.3-2.2,1c-0.5,0.7-0.8,1.5-0.8,2.5c0,1,0.3,1.8,0.8,2.5c0.5,0.7,1.2,1,2.2,1
			s1.6-0.3,2.2-1C24.6,213.3,24.8,212.5,24.8,211.4z"/>
		<path class="st49" d="M30.3,216.1h-1.6v-9.4h1.6v1.5c0.8-1.2,1.9-1.8,3.2-1.8c1,0,1.8,0.3,2.4,0.9s0.9,1.5,0.9,2.6v6h-1.6v-5.7
			c0-1.6-0.7-2.4-2.1-2.4c-0.8,0-1.5,0.3-2,0.8c-0.5,0.5-0.8,1.2-0.8,2.1V216.1z"/>
		<path class="st49" d="M46.6,213.3c0,0.9-0.3,1.6-1,2.2s-1.6,0.8-2.8,0.8c-1.9,0-3.3-0.7-4.1-2l1.2-0.9c0.7,1,1.8,1.5,3.1,1.5
			c0.7,0,1.2-0.1,1.6-0.4s0.6-0.6,0.6-1.1c0-0.4-0.2-0.8-0.5-0.9c-0.4-0.2-1-0.3-2-0.5c-1.1-0.2-1.9-0.5-2.5-0.9
			c-0.6-0.4-0.9-1-0.9-1.8c0-0.9,0.3-1.6,1-2.1c0.7-0.5,1.5-0.7,2.5-0.7c1.5,0,2.8,0.5,3.8,1.6l-1,1c-0.7-0.8-1.6-1.2-2.8-1.2
			c-0.6,0-1,0.1-1.4,0.3c-0.4,0.2-0.6,0.5-0.6,0.9c0,0.2,0,0.3,0.1,0.5c0.1,0.1,0.2,0.3,0.3,0.4c0.1,0.1,0.3,0.2,0.5,0.3
			s0.4,0.1,0.6,0.2c0.2,0,0.4,0.1,0.7,0.1c0.5,0.1,0.8,0.2,1.1,0.2c0.3,0.1,0.6,0.2,1,0.3c0.4,0.1,0.6,0.3,0.8,0.5
			c0.2,0.2,0.4,0.4,0.5,0.7S46.6,213,46.6,213.3z"/>
		<path class="st49" d="M53.5,214.5l0.7,1.2c-0.5,0.4-1.2,0.6-2,0.6c-1.1,0-2-0.4-2.4-1.2c-0.3-0.4-0.4-1-0.4-1.9V208h-1.6v-1.3h1.6
			v-2.6h1.6v2.6h3v1.3h-3v5.2c0,1.1,0.5,1.6,1.4,1.6C52.8,214.9,53.2,214.8,53.5,214.5z"/>
		<path class="st49" d="M61.4,206.9l-0.5,1.5c-0.4-0.2-0.7-0.3-1.1-0.3c-0.7,0-1.2,0.3-1.7,0.8c-0.5,0.6-0.7,1.3-0.7,2.3v4.9h-1.6
			v-9.4h1.6v1.6c0.7-1.2,1.6-1.8,2.7-1.8C60.6,206.6,61.1,206.7,61.4,206.9z"/>
		<path class="st49" d="M69.3,206.8h1.6v9.4h-1.6v-1.5c-0.8,1.2-1.9,1.7-3.2,1.7c-1,0-1.8-0.3-2.4-0.9c-0.6-0.6-0.9-1.5-0.9-2.6v-6
			h1.6v5.7c0,1.6,0.7,2.4,2.1,2.4c0.8,0,1.5-0.3,2-0.8s0.8-1.2,0.8-2.1V206.8z"/>
		<path class="st49" d="M80.2,213.5l1.2,0.9c-0.9,1.3-2.2,2-3.8,2c-1.4,0-2.5-0.5-3.3-1.4c-0.8-0.9-1.2-2.1-1.2-3.5s0.4-2.6,1.2-3.5
			c0.8-0.9,1.9-1.4,3.3-1.4c1.6,0,2.8,0.6,3.7,1.9l-1.2,0.9c-0.6-1-1.4-1.5-2.5-1.5c-0.9,0-1.6,0.3-2.1,1c-0.5,0.7-0.8,1.5-0.8,2.5
			s0.3,1.8,0.8,2.5c0.5,0.7,1.2,1,2.1,1C78.7,214.9,79.5,214.4,80.2,213.5z"/>
		<path class="st49" d="M88.1,214.5l0.7,1.2c-0.5,0.4-1.2,0.6-2,0.6c-1.1,0-2-0.4-2.4-1.2c-0.3-0.4-0.4-1-0.4-1.9V208h-1.6v-1.3h1.6
			v-2.6h1.6v2.6h3v1.3h-3v5.2c0,1.1,0.5,1.6,1.4,1.6C87.3,214.9,87.7,214.8,88.1,214.5z"/>
		<path class="st49" d="M14.3,236.5l0.2,1.2c-0.3,0.1-0.6,0.2-1.1,0.2c-0.5,0-0.9-0.1-1.2-0.4c-0.3-0.2-0.5-0.6-0.6-1.1
			c-0.7,1-1.8,1.6-3.2,1.6c-1,0-1.7-0.3-2.3-0.8c-0.6-0.5-0.9-1.2-0.9-2.1c0-0.4,0.1-0.8,0.2-1.1s0.3-0.6,0.5-0.8
			c0.2-0.2,0.5-0.3,0.8-0.5s0.6-0.2,0.8-0.3s0.5-0.1,0.9-0.2c0.1,0,0.3,0,0.6-0.1c0.3,0,0.5-0.1,0.6-0.1c0.1,0,0.3-0.1,0.5-0.1
			c0.2,0,0.4-0.1,0.5-0.2c0.1-0.1,0.2-0.1,0.4-0.2c0.1-0.1,0.2-0.2,0.3-0.3s0.1-0.3,0.1-0.4c0-0.5-0.2-0.8-0.6-1
			c-0.4-0.2-0.9-0.3-1.5-0.3c-1.1,0-2,0.3-2.9,1l-0.7-1.2c1.2-0.8,2.4-1.2,3.7-1.2c1.1,0,2,0.3,2.6,0.8s1,1.3,1,2.3v4.4
			c0,0.7,0.2,1,0.7,1C14,236.6,14.2,236.6,14.3,236.5z M11.4,234.1v-1.6c-0.1,0.2-0.2,0.3-0.4,0.4c-0.1,0.1-0.3,0.2-0.5,0.2
			c-0.2,0.1-0.4,0.1-0.5,0.1s-0.3,0.1-0.6,0.1c-0.3,0-0.5,0.1-0.6,0.1c-0.6,0.1-1.1,0.3-1.5,0.5c-0.3,0.2-0.5,0.6-0.5,1.1
			s0.2,0.9,0.5,1.2c0.4,0.3,0.8,0.4,1.4,0.4c0.8,0,1.4-0.2,1.9-0.6S11.4,235,11.4,234.1z"/>
		<path class="st49" d="M21,228.4h1.6v1.5c0.8-1.2,1.9-1.8,3.3-1.8c1.3,0,2.4,0.5,3.1,1.4c0.8,0.9,1.2,2.1,1.2,3.5
			c0,1.4-0.4,2.6-1.2,3.5s-1.8,1.4-3.1,1.4c-1.4,0-2.5-0.6-3.3-1.7v4.7H21V228.4z M23.3,230.6c-0.5,0.7-0.8,1.5-0.8,2.5
			s0.3,1.8,0.8,2.5c0.5,0.6,1.3,1,2.2,1c0.9,0,1.7-0.3,2.2-1c0.5-0.6,0.8-1.5,0.8-2.5s-0.3-1.8-0.8-2.5c-0.5-0.6-1.2-1-2.2-1
			C24.6,229.6,23.9,229.9,23.3,230.6z"/>
		<path class="st49" d="M41,233c0,1.4-0.4,2.6-1.3,3.5c-0.8,0.9-2,1.4-3.3,1.4c-1.4,0-2.5-0.5-3.4-1.4s-1.3-2.1-1.3-3.5
			c0-1.4,0.4-2.6,1.3-3.5s2-1.4,3.4-1.4c1.4,0,2.5,0.5,3.3,1.4C40.6,230.4,41,231.6,41,233z M39.3,233c0-1-0.3-1.9-0.8-2.5
			c-0.5-0.7-1.2-1-2.2-1s-1.6,0.3-2.2,1c-0.5,0.7-0.8,1.5-0.8,2.5c0,1,0.3,1.8,0.8,2.5c0.5,0.7,1.2,1,2.2,1s1.6-0.3,2.2-1
			C39,234.9,39.3,234.1,39.3,233z"/>
		<path class="st49" d="M44.7,226.5h-1.6v-1.7h1.6V226.5z M44.7,237.7h-1.6v-9.4h1.6V237.7z"/>
		<path class="st49" d="M49.1,237.7h-1.6v-9.4h1.6v1.5c0.8-1.2,1.9-1.8,3.2-1.8c1,0,1.8,0.3,2.4,0.9c0.6,0.6,0.9,1.5,0.9,2.6v6H54
			V232c0-1.6-0.7-2.4-2.1-2.4c-0.8,0-1.5,0.3-2,0.8c-0.5,0.5-0.8,1.2-0.8,2.1V237.7z"/>
		<path class="st49" d="M63.1,236.1l0.7,1.2c-0.5,0.4-1.2,0.6-2,0.6c-1.1,0-2-0.4-2.4-1.2c-0.3-0.4-0.4-1-0.4-1.9v-5.2h-1.6v-1.3
			h1.6v-2.6h1.6v2.6h3v1.3h-3v5.2c0,1.1,0.5,1.6,1.4,1.6C62.3,236.5,62.7,236.4,63.1,236.1z"/>
		<path class="st49" d="M78.9,233c0,1.4-0.4,2.6-1.3,3.5c-0.8,0.9-2,1.4-3.3,1.4c-1.4,0-2.5-0.5-3.4-1.4s-1.3-2.1-1.3-3.5
			c0-1.4,0.4-2.6,1.3-3.5s2-1.4,3.4-1.4c1.4,0,2.5,0.5,3.3,1.4C78.4,230.4,78.9,231.6,78.9,233z M77.2,233c0-1-0.3-1.9-0.8-2.5
			c-0.5-0.7-1.2-1-2.2-1s-1.6,0.3-2.2,1c-0.5,0.7-0.8,1.5-0.8,2.5c0,1,0.3,1.8,0.8,2.5c0.5,0.7,1.2,1,2.2,1s1.6-0.3,2.2-1
			C76.9,234.9,77.2,234.1,77.2,233z"/>
		<path class="st49" d="M85.9,224.9l-0.2,1.3c-0.4-0.1-0.8-0.2-1.1-0.2c-0.4,0-0.8,0.1-1,0.3c-0.2,0.2-0.3,0.5-0.3,0.9v1.1h2.2v1.3
			h-2.2v8.1h-1.6v-8.1h-1.6v-1.3h1.6v-1.1c0-0.9,0.2-1.5,0.7-1.9c0.5-0.4,1.2-0.7,2.1-0.7C85.1,224.7,85.6,224.7,85.9,224.9z"/>
		<path class="st49" d="M100.2,228.4l-3.7,9.4h-1.6l-3.7-9.4h1.8l2.8,7.5l2.8-7.5H100.2z"/>
		<path class="st49" d="M103.4,226.5h-1.6v-1.7h1.6V226.5z M103.4,237.7h-1.6v-9.4h1.6V237.7z"/>
		<path class="st49" d="M114.7,232.8c0,0.2,0,0.4,0,0.6h-7.3c0,1,0.4,1.7,0.9,2.3s1.3,0.8,2.2,0.8c1.1,0,2-0.4,2.8-1.2l1,1
			c-1,1.1-2.3,1.6-3.9,1.6c-1.5,0-2.7-0.5-3.5-1.4c-0.9-0.9-1.3-2.1-1.3-3.5c0-1.4,0.4-2.6,1.3-3.5c0.8-0.9,1.9-1.4,3.3-1.4
			c1.3,0,2.4,0.4,3.2,1.3C114.2,230.4,114.7,231.5,114.7,232.8z M107.3,232.2h5.7c-0.1-0.9-0.4-1.5-0.9-2c-0.5-0.5-1.2-0.7-1.9-0.7
			c-0.8,0-1.5,0.3-2,0.8C107.7,230.7,107.4,231.4,107.3,232.2z"/>
		<path class="st49" d="M129,228.4l-2.6,9.4h-1.7l-2.3-7.3l-2.3,7.3h-1.7l-2.6-9.4h1.7l1.9,7.5l2.3-7.5h1.4l2.3,7.5l1.9-7.5H129z"/>
		<path class="st49" d="M5.9,246.5h1.6v5c0.8-1.2,1.9-1.8,3.3-1.8c1.3,0,2.4,0.5,3.1,1.4c0.8,0.9,1.2,2.1,1.2,3.5
			c0,1.4-0.4,2.6-1.2,3.5c-0.8,0.9-1.8,1.4-3.1,1.4c-1.4,0-2.5-0.6-3.3-1.7v1.5H5.9V246.5z M8.3,252.2c-0.5,0.7-0.8,1.5-0.8,2.5
			c0,1,0.3,1.8,0.8,2.5c0.5,0.6,1.3,1,2.2,1c0.9,0,1.7-0.3,2.2-1s0.8-1.5,0.8-2.5c0-1-0.3-1.8-0.8-2.5c-0.5-0.6-1.2-1-2.2-1
			C9.5,251.2,8.8,251.5,8.3,252.2z"/>
		<path class="st49" d="M25.7,258.1l0.2,1.2c-0.3,0.1-0.6,0.2-1.1,0.2c-0.5,0-0.9-0.1-1.2-0.4s-0.5-0.6-0.6-1.1
			c-0.7,1-1.8,1.6-3.2,1.6c-1,0-1.7-0.3-2.3-0.8c-0.6-0.5-0.9-1.2-0.9-2.1c0-0.4,0.1-0.8,0.2-1.1c0.1-0.3,0.3-0.6,0.5-0.8
			c0.2-0.2,0.5-0.3,0.8-0.5c0.3-0.1,0.6-0.2,0.8-0.3c0.3-0.1,0.5-0.1,0.9-0.2c0.1,0,0.3,0,0.6-0.1s0.5-0.1,0.6-0.1
			c0.1,0,0.3-0.1,0.5-0.1c0.2,0,0.4-0.1,0.5-0.2c0.1-0.1,0.2-0.1,0.4-0.2s0.2-0.2,0.3-0.3s0.1-0.3,0.1-0.4c0-0.5-0.2-0.8-0.6-1
			c-0.4-0.2-0.9-0.3-1.5-0.3c-1.1,0-2,0.3-2.9,1l-0.7-1.2c1.2-0.8,2.4-1.2,3.7-1.2c1.1,0,2,0.3,2.6,0.8c0.6,0.5,1,1.3,1,2.3v4.4
			c0,0.7,0.2,1,0.7,1C25.4,258.2,25.6,258.2,25.7,258.1z M22.8,255.7v-1.6c-0.1,0.2-0.2,0.3-0.4,0.4c-0.1,0.1-0.3,0.2-0.5,0.2
			c-0.2,0.1-0.4,0.1-0.5,0.1c-0.1,0-0.3,0.1-0.6,0.1s-0.5,0.1-0.6,0.1c-0.6,0.1-1.1,0.3-1.5,0.5c-0.3,0.2-0.5,0.6-0.5,1.1
			c0,0.5,0.2,0.9,0.5,1.2c0.4,0.3,0.8,0.4,1.4,0.4c0.8,0,1.4-0.2,1.9-0.6S22.8,256.6,22.8,255.7z"/>
		<path class="st49" d="M34.7,256.5c0,0.9-0.3,1.6-1,2.2s-1.6,0.8-2.8,0.8c-1.9,0-3.3-0.7-4.1-2l1.2-0.9c0.7,1,1.8,1.5,3.1,1.5
			c0.7,0,1.2-0.1,1.6-0.4s0.6-0.6,0.6-1.1c0-0.4-0.2-0.7-0.5-0.9c-0.4-0.2-1-0.3-2-0.5c-1.1-0.2-1.9-0.5-2.5-0.9
			c-0.6-0.4-0.9-1-0.9-1.8c0-0.9,0.3-1.6,1-2.1c0.7-0.5,1.5-0.7,2.5-0.7c1.5,0,2.8,0.5,3.8,1.6l-1,1c-0.7-0.8-1.6-1.2-2.8-1.2
			c-0.6,0-1,0.1-1.4,0.3c-0.4,0.2-0.6,0.5-0.6,0.9c0,0.2,0,0.3,0.1,0.5c0.1,0.1,0.2,0.3,0.3,0.4c0.1,0.1,0.3,0.2,0.5,0.3
			s0.4,0.1,0.6,0.2c0.2,0,0.4,0.1,0.7,0.1c0.5,0.1,0.8,0.2,1.1,0.2c0.3,0.1,0.6,0.2,1,0.3c0.4,0.1,0.6,0.3,0.8,0.5
			c0.2,0.2,0.4,0.4,0.5,0.7S34.7,256.2,34.7,256.5z"/>
		<path class="st49" d="M45.3,254.4c0,0.2,0,0.4,0,0.6h-7.3c0,1,0.4,1.7,0.9,2.3c0.6,0.5,1.3,0.8,2.2,0.8c1.1,0,2-0.4,2.8-1.2l1,1
			c-1,1.1-2.3,1.6-3.9,1.6c-1.5,0-2.7-0.5-3.5-1.4s-1.3-2.1-1.3-3.5c0-1.4,0.4-2.6,1.3-3.5c0.8-0.9,1.9-1.4,3.3-1.4
			c1.3,0,2.4,0.4,3.2,1.3C44.9,252,45.3,253.1,45.3,254.4z M37.9,253.8h5.7c-0.1-0.9-0.4-1.5-0.9-2c-0.5-0.5-1.2-0.7-1.9-0.7
			c-0.8,0-1.5,0.3-2,0.8S38,253,37.9,253.8z"/>
		<path class="st49" d="M56,259.3h-1.6v-1.5c-0.8,1.2-1.9,1.7-3.3,1.7c-1.3,0-2.4-0.5-3.1-1.4c-0.8-0.9-1.2-2.1-1.2-3.5
			c0-1.4,0.4-2.6,1.2-3.5c0.8-0.9,1.8-1.4,3.1-1.4c1.4,0,2.5,0.6,3.3,1.8v-5H56V259.3z M53.6,257.1c0.5-0.7,0.8-1.5,0.8-2.5
			s-0.3-1.8-0.8-2.5c-0.5-0.6-1.3-1-2.2-1c-0.9,0-1.7,0.3-2.2,1c-0.5,0.6-0.8,1.5-0.8,2.5s0.3,1.8,0.8,2.5c0.5,0.6,1.2,1,2.2,1
			C52.3,258.1,53.1,257.8,53.6,257.1z"/>
		<path class="st49" d="M72.3,254.6c0,1.4-0.4,2.6-1.3,3.5c-0.8,0.9-2,1.4-3.3,1.4c-1.4,0-2.5-0.5-3.4-1.4s-1.3-2.1-1.3-3.5
			c0-1.4,0.4-2.6,1.3-3.5c0.8-0.9,2-1.4,3.4-1.4c1.4,0,2.5,0.5,3.3,1.4C71.8,252,72.3,253.2,72.3,254.6z M70.6,254.6
			c0-1-0.3-1.9-0.8-2.5c-0.5-0.7-1.2-1-2.2-1s-1.6,0.3-2.2,1c-0.5,0.7-0.8,1.5-0.8,2.5c0,1,0.3,1.8,0.8,2.5c0.5,0.7,1.2,1,2.2,1
			s1.6-0.3,2.2-1C70.3,256.5,70.6,255.7,70.6,254.6z"/>
		<path class="st49" d="M76,259.3h-1.6V250H76v1.5c0.8-1.2,1.9-1.8,3.2-1.8c1,0,1.8,0.3,2.4,0.9s0.9,1.5,0.9,2.6v6h-1.6v-5.7
			c0-1.6-0.7-2.4-2.1-2.4c-0.8,0-1.5,0.3-2,0.8c-0.5,0.5-0.8,1.2-0.8,2.1V259.3z"/>
		<path class="st49" d="M96.4,250H98v9.4h-1.6v-1.5c-0.8,1.2-1.9,1.7-3.2,1.7c-1,0-1.8-0.3-2.4-0.9c-0.6-0.6-0.9-1.5-0.9-2.6v-6h1.6
			v5.7c0,1.6,0.7,2.4,2.1,2.4c0.8,0,1.5-0.3,2-0.8s0.8-1.2,0.8-2.1V250z"/>
		<path class="st49" d="M108,256.5c0,0.9-0.3,1.6-1,2.2s-1.6,0.8-2.8,0.8c-1.9,0-3.3-0.7-4.1-2l1.2-0.9c0.7,1,1.8,1.5,3.1,1.5
			c0.7,0,1.2-0.1,1.6-0.4s0.6-0.6,0.6-1.1c0-0.4-0.2-0.7-0.5-0.9c-0.4-0.2-1-0.3-2-0.5c-1.1-0.2-1.9-0.5-2.5-0.9
			c-0.6-0.4-0.9-1-0.9-1.8c0-0.9,0.3-1.6,1-2.1c0.7-0.5,1.5-0.7,2.5-0.7c1.5,0,2.8,0.5,3.8,1.6l-1,1c-0.7-0.8-1.6-1.2-2.8-1.2
			c-0.6,0-1,0.1-1.4,0.3c-0.4,0.2-0.6,0.5-0.6,0.9c0,0.2,0,0.3,0.1,0.5c0.1,0.1,0.2,0.3,0.3,0.4c0.1,0.1,0.3,0.2,0.5,0.3
			s0.4,0.1,0.6,0.2c0.2,0,0.4,0.1,0.7,0.1c0.5,0.1,0.8,0.2,1.1,0.2c0.3,0.1,0.6,0.2,1,0.3c0.4,0.1,0.6,0.3,0.8,0.5
			c0.2,0.2,0.4,0.4,0.5,0.7S108,256.2,108,256.5z"/>
		<path class="st49" d="M118.6,254.4c0,0.2,0,0.4,0,0.6h-7.3c0,1,0.4,1.7,0.9,2.3c0.6,0.5,1.3,0.8,2.2,0.8c1.1,0,2-0.4,2.8-1.2l1,1
			c-1,1.1-2.3,1.6-3.9,1.6c-1.5,0-2.7-0.5-3.5-1.4s-1.3-2.1-1.3-3.5c0-1.4,0.4-2.6,1.3-3.5c0.8-0.9,1.9-1.4,3.3-1.4
			c1.3,0,2.4,0.4,3.2,1.3C118.2,252,118.6,253.1,118.6,254.4z M111.2,253.8h5.7c-0.1-0.9-0.4-1.5-0.9-2c-0.5-0.5-1.2-0.7-1.9-0.7
			c-0.8,0-1.5,0.3-2,0.8S111.3,253,111.2,253.8z"/>
		<path class="st49" d="M126.2,250.1l-0.5,1.5c-0.4-0.2-0.7-0.3-1.1-0.3c-0.7,0-1.2,0.3-1.7,0.8c-0.5,0.6-0.7,1.3-0.7,2.3v4.9h-1.6
			V250h1.6v1.6c0.7-1.2,1.6-1.8,2.7-1.8C125.5,249.8,125.9,249.9,126.2,250.1z"/>
		<path class="st49" d="M134.9,256.5c0,0.9-0.3,1.6-1,2.2s-1.6,0.8-2.8,0.8c-1.9,0-3.3-0.7-4.1-2l1.2-0.9c0.7,1,1.8,1.5,3.1,1.5
			c0.7,0,1.2-0.1,1.6-0.4s0.6-0.6,0.6-1.1c0-0.4-0.2-0.7-0.5-0.9c-0.4-0.2-1-0.3-2-0.5c-1.1-0.2-1.9-0.5-2.5-0.9
			c-0.6-0.4-0.9-1-0.9-1.8c0-0.9,0.3-1.6,1-2.1c0.7-0.5,1.5-0.7,2.5-0.7c1.5,0,2.8,0.5,3.8,1.6l-1,1c-0.7-0.8-1.6-1.2-2.8-1.2
			c-0.6,0-1,0.1-1.4,0.3c-0.4,0.2-0.6,0.5-0.6,0.9c0,0.2,0,0.3,0.1,0.5c0.1,0.1,0.2,0.3,0.3,0.4c0.1,0.1,0.3,0.2,0.5,0.3
			s0.4,0.1,0.6,0.2c0.2,0,0.4,0.1,0.7,0.1c0.5,0.1,0.8,0.2,1.1,0.2c0.3,0.1,0.6,0.2,1,0.3c0.4,0.1,0.6,0.3,0.8,0.5
			c0.2,0.2,0.4,0.4,0.5,0.7S134.9,256.2,134.9,256.5z"/>
		<path class="st49" d="M7.5,280.9H5.9v-9.4h1.6v1.5c0.8-1.2,1.9-1.8,3.2-1.8c1,0,1.8,0.3,2.4,0.9c0.6,0.6,0.9,1.5,0.9,2.6v6h-1.6
			v-5.7c0-1.6-0.7-2.4-2.1-2.4c-0.8,0-1.5,0.3-2,0.8c-0.5,0.5-0.8,1.2-0.8,2.1V280.9z"/>
		<path class="st49" d="M25.1,276c0,0.2,0,0.4,0,0.6h-7.3c0,1,0.4,1.7,0.9,2.3s1.3,0.8,2.2,0.8c1.1,0,2-0.4,2.8-1.2l1,1
			c-1,1.1-2.3,1.6-3.9,1.6c-1.5,0-2.7-0.5-3.5-1.4c-0.9-0.9-1.3-2.1-1.3-3.5c0-1.4,0.4-2.6,1.3-3.5c0.8-0.9,1.9-1.4,3.3-1.4
			c1.3,0,2.4,0.4,3.2,1.3C24.7,273.6,25.1,274.7,25.1,276z M17.8,275.4h5.7c-0.1-0.9-0.4-1.5-0.9-2c-0.5-0.5-1.2-0.7-1.9-0.7
			c-0.8,0-1.5,0.3-2,0.8C18.1,273.9,17.8,274.6,17.8,275.4z"/>
		<path class="st49" d="M35.7,276c0,0.2,0,0.4,0,0.6h-7.3c0,1,0.4,1.7,0.9,2.3s1.3,0.8,2.2,0.8c1.1,0,2-0.4,2.8-1.2l1,1
			c-1,1.1-2.3,1.6-3.9,1.6c-1.5,0-2.7-0.5-3.5-1.4c-0.9-0.9-1.3-2.1-1.3-3.5c0-1.4,0.4-2.6,1.3-3.5c0.8-0.9,1.9-1.4,3.3-1.4
			c1.3,0,2.4,0.4,3.2,1.3C35.2,273.6,35.7,274.7,35.7,276z M28.3,275.4H34c-0.1-0.9-0.4-1.5-0.9-2c-0.5-0.5-1.2-0.7-1.9-0.7
			c-0.8,0-1.5,0.3-2,0.8C28.7,273.9,28.4,274.6,28.3,275.4z"/>
		<path class="st49" d="M46.4,280.9h-1.6v-1.5c-0.8,1.2-1.9,1.7-3.3,1.7c-1.3,0-2.4-0.5-3.1-1.4c-0.8-0.9-1.2-2.1-1.2-3.5
			c0-1.4,0.4-2.6,1.2-3.5c0.8-0.9,1.8-1.4,3.1-1.4c1.4,0,2.5,0.6,3.3,1.8v-5h1.6V280.9z M44,278.7c0.5-0.7,0.8-1.5,0.8-2.5
			c0-1-0.3-1.8-0.8-2.5c-0.5-0.6-1.3-1-2.2-1c-0.9,0-1.7,0.3-2.2,1c-0.5,0.6-0.8,1.5-0.8,2.5c0,1,0.3,1.8,0.8,2.5
			c0.5,0.6,1.2,1,2.2,1C42.7,279.7,43.5,279.4,44,278.7z"/>
		<path class="st49" d="M56.3,278.1c0,0.9-0.3,1.6-1,2.2c-0.7,0.5-1.6,0.8-2.8,0.8c-1.9,0-3.3-0.7-4.1-2l1.2-0.9
			c0.7,1,1.8,1.5,3.1,1.5c0.7,0,1.2-0.1,1.6-0.4c0.4-0.3,0.6-0.6,0.6-1.1c0-0.4-0.2-0.8-0.5-0.9c-0.4-0.2-1-0.3-2-0.5
			c-1.1-0.2-1.9-0.5-2.5-0.9c-0.6-0.4-0.9-1-0.9-1.8c0-0.9,0.3-1.6,1-2.1c0.7-0.5,1.5-0.7,2.5-0.7c1.5,0,2.8,0.5,3.8,1.6l-1,1
			c-0.7-0.8-1.6-1.2-2.8-1.2c-0.6,0-1,0.1-1.4,0.3c-0.4,0.2-0.6,0.5-0.6,0.9c0,0.2,0,0.3,0.1,0.5c0.1,0.1,0.2,0.3,0.3,0.4
			c0.1,0.1,0.3,0.2,0.5,0.3s0.4,0.1,0.6,0.2c0.2,0,0.4,0.1,0.7,0.1c0.5,0.1,0.8,0.2,1.1,0.2c0.3,0.1,0.6,0.2,1,0.3
			c0.4,0.1,0.6,0.3,0.8,0.5c0.2,0.2,0.4,0.4,0.5,0.7S56.3,277.8,56.3,278.1z"/>
		<path class="st49" d="M71.7,279.7l0.2,1.2c-0.3,0.1-0.6,0.2-1.1,0.2c-0.5,0-0.9-0.1-1.2-0.4c-0.3-0.2-0.5-0.6-0.6-1.1
			c-0.7,1-1.8,1.6-3.2,1.6c-1,0-1.7-0.3-2.3-0.8c-0.6-0.5-0.9-1.2-0.9-2.1c0-0.4,0.1-0.8,0.2-1.1s0.3-0.6,0.5-0.8
			c0.2-0.2,0.5-0.3,0.8-0.5s0.6-0.2,0.8-0.3s0.5-0.1,0.9-0.2c0.1,0,0.3,0,0.6-0.1c0.3,0,0.5-0.1,0.6-0.1c0.1,0,0.3-0.1,0.5-0.1
			c0.2,0,0.4-0.1,0.5-0.2c0.1-0.1,0.2-0.1,0.4-0.2c0.1-0.1,0.2-0.2,0.3-0.3s0.1-0.3,0.1-0.4c0-0.5-0.2-0.8-0.6-1
			c-0.4-0.2-0.9-0.3-1.5-0.3c-1.1,0-2,0.3-2.9,1l-0.7-1.2c1.2-0.8,2.4-1.2,3.7-1.2c1.1,0,2,0.3,2.6,0.8s1,1.3,1,2.3v4.4
			c0,0.7,0.2,1,0.7,1C71.4,279.8,71.6,279.8,71.7,279.7z M68.9,277.3v-1.6c-0.1,0.2-0.2,0.3-0.4,0.4c-0.1,0.1-0.3,0.2-0.5,0.2
			c-0.2,0.1-0.4,0.1-0.5,0.1s-0.3,0.1-0.6,0.1c-0.3,0-0.5,0.1-0.6,0.1c-0.6,0.1-1.1,0.3-1.5,0.5c-0.3,0.2-0.5,0.6-0.5,1.1
			s0.2,0.9,0.5,1.2c0.4,0.3,0.8,0.4,1.4,0.4c0.8,0,1.4-0.2,1.9-0.6S68.9,278.2,68.9,277.3z"/>
		<path class="st49" d="M75.1,280.9h-1.6v-9.4h1.6v1.5c0.8-1.2,1.9-1.8,3.2-1.8c1,0,1.8,0.3,2.4,0.9c0.6,0.6,0.9,1.5,0.9,2.6v6H80
			v-5.7c0-1.6-0.7-2.4-2.1-2.4c-0.8,0-1.5,0.3-2,0.8c-0.5,0.5-0.8,1.2-0.8,2.1V280.9z"/>
		<path class="st49" d="M92.9,280.9h-1.6v-1.5c-0.8,1.2-1.9,1.7-3.3,1.7c-1.3,0-2.4-0.5-3.1-1.4c-0.8-0.9-1.2-2.1-1.2-3.5
			c0-1.4,0.4-2.6,1.2-3.5c0.8-0.9,1.8-1.4,3.1-1.4c1.4,0,2.5,0.6,3.3,1.8v-5h1.6V280.9z M90.5,278.7c0.5-0.7,0.8-1.5,0.8-2.5
			c0-1-0.3-1.8-0.8-2.5c-0.5-0.6-1.3-1-2.2-1c-0.9,0-1.7,0.3-2.2,1c-0.5,0.6-0.8,1.5-0.8,2.5c0,1,0.3,1.8,0.8,2.5
			c0.5,0.6,1.2,1,2.2,1C89.3,279.7,90,279.4,90.5,278.7z"/>
		<path class="st49" d="M102.1,269.7h-1.6v-1.7h1.6V269.7z M102.1,280.9h-1.6v-9.4h1.6V280.9z"/>
		<path class="st49" d="M106.5,280.9h-1.6v-9.4h1.6v1.5c0.8-1.2,1.9-1.8,3.2-1.8c1,0,1.8,0.3,2.4,0.9c0.6,0.6,0.9,1.5,0.9,2.6v6
			h-1.6v-5.7c0-1.6-0.7-2.4-2.1-2.4c-0.8,0-1.5,0.3-2,0.8c-0.5,0.5-0.8,1.2-0.8,2.1V280.9z"/>
		<path class="st49" d="M122.8,278.1c0,0.9-0.3,1.6-1,2.2c-0.7,0.5-1.6,0.8-2.8,0.8c-1.9,0-3.3-0.7-4.1-2l1.2-0.9
			c0.7,1,1.8,1.5,3.1,1.5c0.7,0,1.2-0.1,1.6-0.4c0.4-0.3,0.6-0.6,0.6-1.1c0-0.4-0.2-0.8-0.5-0.9c-0.4-0.2-1-0.3-2-0.5
			c-1.1-0.2-1.9-0.5-2.5-0.9c-0.6-0.4-0.9-1-0.9-1.8c0-0.9,0.3-1.6,1-2.1c0.7-0.5,1.5-0.7,2.5-0.7c1.5,0,2.8,0.5,3.8,1.6l-1,1
			c-0.7-0.8-1.6-1.2-2.8-1.2c-0.6,0-1,0.1-1.4,0.3c-0.4,0.2-0.6,0.5-0.6,0.9c0,0.2,0,0.3,0.1,0.5c0.1,0.1,0.2,0.3,0.3,0.4
			c0.1,0.1,0.3,0.2,0.5,0.3s0.4,0.1,0.6,0.2c0.2,0,0.4,0.1,0.7,0.1c0.5,0.1,0.8,0.2,1.1,0.2c0.3,0.1,0.6,0.2,1,0.3
			c0.4,0.1,0.6,0.3,0.8,0.5c0.2,0.2,0.4,0.4,0.5,0.7S122.8,277.8,122.8,278.1z"/>
		<path class="st49" d="M126.6,269.7H125v-1.7h1.6V269.7z M126.6,280.9H125v-9.4h1.6V280.9z"/>
		<path class="st49" d="M138,271.6v7.8c0,1.5-0.3,2.6-1,3.4c-0.8,1-2.2,1.5-3.9,1.5c-1.5,0-2.8-0.4-3.9-1.1l0.8-1.3
			c0.9,0.6,1.9,1,3.1,1c1,0,1.8-0.3,2.4-0.8s0.9-1.3,0.9-2.3v-1c-0.4,0.6-0.8,1-1.5,1.3c-0.6,0.3-1.3,0.4-2,0.4
			c-1.2,0-2.3-0.4-3.1-1.3c-0.8-0.9-1.2-1.9-1.2-3.2c0-1.3,0.4-2.4,1.2-3.3s1.8-1.3,3.1-1.3c1.5,0,2.6,0.6,3.3,1.8v-1.5H138z
			 M136.5,275.9c0-0.9-0.3-1.6-0.8-2.2s-1.3-0.9-2.3-0.9c-0.9,0-1.7,0.3-2.2,0.9c-0.5,0.6-0.8,1.3-0.8,2.2c0,0.9,0.3,1.7,0.8,2.3
			c0.5,0.6,1.2,0.9,2.2,0.9c0.9,0,1.7-0.3,2.2-0.9C136.2,277.6,136.5,276.8,136.5,275.9z"/>
		<path class="st49" d="M142.4,280.9h-1.6v-12.9h1.6v5c0.8-1.2,1.9-1.8,3.2-1.8c1,0,1.8,0.3,2.4,0.9c0.6,0.6,0.9,1.5,0.9,2.6v6h-1.6
			v-5.7c0-1.6-0.7-2.4-2.1-2.4c-0.8,0-1.5,0.3-2,0.8c-0.5,0.5-0.8,1.2-0.8,2.1V280.9z"/>
		<path class="st49" d="M156.4,279.3l0.7,1.2c-0.5,0.4-1.2,0.6-2,0.6c-1.1,0-2-0.4-2.4-1.2c-0.3-0.4-0.4-1-0.4-1.9v-5.2h-1.6v-1.3
			h1.6v-2.6h1.6v2.6h3v1.3h-3v5.2c0,1.1,0.5,1.6,1.4,1.6C155.6,279.7,156,279.6,156.4,279.3z"/>
		<path class="st49" d="M165.8,278.1c0,0.9-0.3,1.6-1,2.2c-0.7,0.5-1.6,0.8-2.8,0.8c-1.9,0-3.3-0.7-4.1-2l1.2-0.9
			c0.7,1,1.8,1.5,3.1,1.5c0.7,0,1.2-0.1,1.6-0.4c0.4-0.3,0.6-0.6,0.6-1.1c0-0.4-0.2-0.8-0.5-0.9c-0.4-0.2-1-0.3-2-0.5
			c-1.1-0.2-1.9-0.5-2.5-0.9c-0.6-0.4-0.9-1-0.9-1.8c0-0.9,0.3-1.6,1-2.1c0.7-0.5,1.5-0.7,2.5-0.7c1.5,0,2.8,0.5,3.8,1.6l-1,1
			c-0.7-0.8-1.6-1.2-2.8-1.2c-0.6,0-1,0.1-1.4,0.3c-0.4,0.2-0.6,0.5-0.6,0.9c0,0.2,0,0.3,0.1,0.5c0.1,0.1,0.2,0.3,0.3,0.4
			c0.1,0.1,0.3,0.2,0.5,0.3s0.4,0.1,0.6,0.2c0.2,0,0.4,0.1,0.7,0.1c0.5,0.1,0.8,0.2,1.1,0.2c0.3,0.1,0.6,0.2,1,0.3
			c0.4,0.1,0.6,0.3,0.8,0.5c0.2,0.2,0.4,0.4,0.5,0.7S165.8,277.8,165.8,278.1z"/>
		<path class="st49" d="M169.8,280.9h-1.9V279h1.9V280.9z"/>
	</g>
	<g>
		<rect x="4.4" y="53" class="st31" width="178.7" height="62.7"/>
		<path class="st49" d="M14.3,65.8H6v-12h1.7v10.4h6.7V65.8z"/>
		<path class="st49" d="M24.3,60.9c0,0.2,0,0.4,0,0.6H17c0,1,0.4,1.7,0.9,2.3c0.6,0.5,1.3,0.8,2.2,0.8c1.1,0,2-0.4,2.8-1.2l1,1
			c-1,1.1-2.3,1.6-3.9,1.6c-1.5,0-2.7-0.5-3.5-1.4c-0.9-0.9-1.3-2.1-1.3-3.5c0-1.4,0.4-2.6,1.3-3.5s1.9-1.4,3.3-1.4
			c1.3,0,2.4,0.4,3.2,1.3C23.9,58.5,24.3,59.6,24.3,60.9z M17,60.3h5.7c-0.1-0.9-0.4-1.5-0.9-2c-0.5-0.5-1.2-0.7-1.9-0.7
			c-0.8,0-1.5,0.3-2,0.8C17.3,58.9,17,59.5,17,60.3z"/>
		<path class="st49" d="M34.8,64.6l0.2,1.2c-0.3,0.1-0.6,0.2-1.1,0.2c-0.5,0-0.9-0.1-1.2-0.4c-0.3-0.2-0.5-0.6-0.6-1.1
			c-0.7,1-1.8,1.6-3.2,1.6c-1,0-1.7-0.3-2.3-0.8c-0.6-0.5-0.9-1.2-0.9-2.1c0-0.4,0.1-0.8,0.2-1.1c0.1-0.3,0.3-0.6,0.5-0.8
			c0.2-0.2,0.5-0.3,0.8-0.5c0.3-0.1,0.6-0.2,0.8-0.3c0.3-0.1,0.5-0.1,0.9-0.2c0.1,0,0.3,0,0.6-0.1c0.3,0,0.5-0.1,0.6-0.1
			c0.1,0,0.3-0.1,0.5-0.1c0.2,0,0.4-0.1,0.5-0.2c0.1-0.1,0.2-0.1,0.4-0.2c0.1-0.1,0.2-0.2,0.3-0.3s0.1-0.3,0.1-0.4
			c0-0.5-0.2-0.8-0.6-1c-0.4-0.2-0.9-0.3-1.5-0.3c-1.1,0-2,0.3-2.9,1l-0.7-1.2c1.2-0.8,2.4-1.2,3.7-1.2c1.1,0,2,0.3,2.6,0.8
			c0.6,0.5,1,1.3,1,2.3v4.4c0,0.7,0.2,1,0.7,1C34.5,64.8,34.7,64.7,34.8,64.6z M32,62.2v-1.6c-0.1,0.2-0.2,0.3-0.4,0.4
			c-0.1,0.1-0.3,0.2-0.5,0.2s-0.4,0.1-0.5,0.1c-0.1,0-0.3,0.1-0.6,0.1c-0.3,0-0.5,0.1-0.6,0.1c-0.6,0.1-1.1,0.3-1.5,0.5
			c-0.3,0.2-0.5,0.6-0.5,1.1c0,0.5,0.2,0.9,0.5,1.2c0.4,0.3,0.8,0.4,1.4,0.4c0.8,0,1.4-0.2,1.9-0.6C31.7,63.7,32,63.1,32,62.2z"/>
		<path class="st49" d="M42.2,56.6l-0.5,1.5c-0.4-0.2-0.7-0.3-1.1-0.3c-0.7,0-1.2,0.3-1.7,0.8c-0.5,0.6-0.7,1.3-0.7,2.3v4.9h-1.6
			v-9.4h1.6v1.6c0.7-1.2,1.6-1.8,2.7-1.8C41.4,56.3,41.9,56.4,42.2,56.6z"/>
		<path class="st49" d="M45.3,65.8h-1.6v-9.4h1.6V58c0.8-1.2,1.9-1.8,3.2-1.8c1,0,1.8,0.3,2.4,0.9c0.6,0.6,0.9,1.5,0.9,2.6v6h-1.6
			v-5.7c0-1.6-0.7-2.4-2.1-2.4c-0.8,0-1.5,0.3-2,0.8c-0.5,0.5-0.8,1.2-0.8,2.1V65.8z"/>
		<path class="st49" d="M67.7,64.6l0.2,1.2c-0.3,0.1-0.6,0.2-1.1,0.2c-0.5,0-0.9-0.1-1.2-0.4c-0.3-0.2-0.5-0.6-0.6-1.1
			c-0.7,1-1.8,1.6-3.2,1.6c-1,0-1.7-0.3-2.3-0.8c-0.6-0.5-0.9-1.2-0.9-2.1c0-0.4,0.1-0.8,0.2-1.1c0.1-0.3,0.3-0.6,0.5-0.8
			c0.2-0.2,0.5-0.3,0.8-0.5c0.3-0.1,0.6-0.2,0.8-0.3c0.3-0.1,0.5-0.1,0.9-0.2c0.1,0,0.3,0,0.6-0.1c0.3,0,0.5-0.1,0.6-0.1
			c0.1,0,0.3-0.1,0.5-0.1c0.2,0,0.4-0.1,0.5-0.2c0.1-0.1,0.2-0.1,0.4-0.2c0.1-0.1,0.2-0.2,0.3-0.3s0.1-0.3,0.1-0.4
			c0-0.5-0.2-0.8-0.6-1c-0.4-0.2-0.9-0.3-1.5-0.3c-1.1,0-2,0.3-2.9,1l-0.7-1.2c1.2-0.8,2.4-1.2,3.7-1.2c1.1,0,2,0.3,2.6,0.8
			c0.6,0.5,1,1.3,1,2.3v4.4c0,0.7,0.2,1,0.7,1C67.4,64.8,67.6,64.7,67.7,64.6z M64.9,62.2v-1.6c-0.1,0.2-0.2,0.3-0.4,0.4
			c-0.1,0.1-0.3,0.2-0.5,0.2s-0.4,0.1-0.5,0.1c-0.1,0-0.3,0.1-0.6,0.1c-0.3,0-0.5,0.1-0.6,0.1c-0.6,0.1-1.1,0.3-1.5,0.5
			c-0.3,0.2-0.5,0.6-0.5,1.1c0,0.5,0.2,0.9,0.5,1.2c0.4,0.3,0.8,0.4,1.4,0.4c0.8,0,1.4-0.2,1.9-0.6C64.6,63.7,64.9,63.1,64.9,62.2z"
			/>
		<path class="st49" d="M69.5,53h1.6v5c0.8-1.2,1.9-1.8,3.3-1.8c1.3,0,2.4,0.5,3.1,1.4c0.8,0.9,1.2,2.1,1.2,3.5
			c0,1.4-0.4,2.6-1.2,3.5c-0.8,0.9-1.8,1.4-3.1,1.4c-1.4,0-2.5-0.6-3.3-1.7v1.5h-1.6V53z M71.9,58.7c-0.5,0.7-0.8,1.5-0.8,2.5
			c0,1,0.3,1.8,0.8,2.5c0.5,0.6,1.3,1,2.2,1c0.9,0,1.7-0.3,2.2-1c0.5-0.6,0.8-1.5,0.8-2.5c0-1-0.3-1.8-0.8-2.5s-1.2-1-2.2-1
			C73.2,57.7,72.4,58.1,71.9,58.7z"/>
		<path class="st49" d="M89.5,61.2c0,1.4-0.4,2.6-1.3,3.5c-0.8,0.9-2,1.4-3.3,1.4c-1.4,0-2.5-0.5-3.4-1.4c-0.8-0.9-1.3-2.1-1.3-3.5
			c0-1.4,0.4-2.6,1.3-3.5c0.8-0.9,2-1.4,3.4-1.4c1.4,0,2.5,0.5,3.3,1.4C89.1,58.6,89.5,59.7,89.5,61.2z M87.9,61.2
			c0-1-0.3-1.9-0.8-2.5c-0.5-0.7-1.2-1-2.2-1s-1.6,0.3-2.2,1c-0.5,0.7-0.8,1.5-0.8,2.5c0,1,0.3,1.8,0.8,2.5c0.5,0.7,1.2,1,2.2,1
			s1.6-0.3,2.2-1C87.6,63,87.9,62.2,87.9,61.2z"/>
		<path class="st49" d="M98.1,56.5h1.6v9.4h-1.6v-1.5c-0.8,1.2-1.9,1.7-3.2,1.7c-1,0-1.8-0.3-2.4-0.9c-0.6-0.6-0.9-1.5-0.9-2.6v-6
			h1.6v5.7c0,1.6,0.7,2.4,2.1,2.4c0.8,0,1.5-0.3,2-0.8c0.5-0.5,0.8-1.2,0.8-2.1V56.5z"/>
		<path class="st49" d="M107.2,64.2l0.7,1.2c-0.5,0.4-1.2,0.6-2,0.6c-1.1,0-2-0.4-2.4-1.2c-0.3-0.4-0.4-1-0.4-1.9v-5.2h-1.6v-1.3
			h1.6v-2.6h1.6v2.6h3v1.3h-3V63c0,1.1,0.5,1.6,1.4,1.6C106.5,64.6,106.9,64.5,107.2,64.2z"/>
		<path class="st49" d="M9.2,88.9l-1,0.8C6.1,87.5,5.1,85,5.1,82c0-3,1-5.5,3.1-7.7l1,0.8C7.4,77,6.5,79.3,6.5,82
			C6.5,84.7,7.4,87,9.2,88.9z"/>
		<path class="st49" d="M19.1,86.2l0.2,1.2c-0.3,0.1-0.6,0.2-1.1,0.2c-0.5,0-0.9-0.1-1.2-0.4c-0.3-0.2-0.5-0.6-0.6-1.1
			c-0.7,1-1.8,1.6-3.2,1.6c-1,0-1.7-0.3-2.3-0.8c-0.6-0.5-0.9-1.2-0.9-2.1c0-0.4,0.1-0.8,0.2-1.1c0.1-0.3,0.3-0.6,0.5-0.8
			c0.2-0.2,0.5-0.3,0.8-0.5c0.3-0.1,0.6-0.2,0.8-0.3c0.3-0.1,0.5-0.1,0.9-0.2c0.1,0,0.3,0,0.6-0.1c0.3,0,0.5-0.1,0.6-0.1
			c0.1,0,0.3-0.1,0.5-0.1c0.2,0,0.4-0.1,0.5-0.2c0.1-0.1,0.2-0.1,0.4-0.2c0.1-0.1,0.2-0.2,0.3-0.3s0.1-0.3,0.1-0.4
			c0-0.5-0.2-0.8-0.6-1c-0.4-0.2-0.9-0.3-1.5-0.3c-1.1,0-2,0.3-2.9,1l-0.7-1.2c1.2-0.8,2.4-1.2,3.7-1.2c1.1,0,2,0.3,2.6,0.8
			c0.6,0.5,1,1.3,1,2.3v4.4c0,0.7,0.2,1,0.7,1C18.8,86.4,19,86.3,19.1,86.2z M16.2,83.8v-1.6c-0.1,0.2-0.2,0.3-0.4,0.4
			c-0.1,0.1-0.3,0.2-0.5,0.2S14.9,83,14.8,83c-0.1,0-0.3,0.1-0.6,0.1c-0.3,0-0.5,0.1-0.6,0.1c-0.6,0.1-1.1,0.3-1.5,0.5
			c-0.3,0.2-0.5,0.6-0.5,1.1c0,0.5,0.2,0.9,0.5,1.2c0.4,0.3,0.8,0.4,1.4,0.4c0.8,0,1.4-0.2,1.9-0.6S16.2,84.7,16.2,83.8z"/>
		<path class="st49" d="M22.5,87.4h-1.6v-9.4h1.6v1.5c0.8-1.2,1.9-1.8,3.2-1.8c1,0,1.8,0.3,2.4,0.9c0.6,0.6,0.9,1.5,0.9,2.6v6h-1.6
			v-5.7c0-1.6-0.7-2.4-2.1-2.4c-0.8,0-1.5,0.3-2,0.8c-0.5,0.5-0.8,1.2-0.8,2.1V87.4z"/>
		<path class="st49" d="M40.3,87.4h-1.6v-1.5c-0.8,1.2-1.9,1.7-3.3,1.7c-1.3,0-2.4-0.5-3.1-1.4c-0.8-0.9-1.2-2.1-1.2-3.5
			c0-1.4,0.4-2.6,1.2-3.5c0.8-0.9,1.8-1.4,3.1-1.4c1.4,0,2.5,0.6,3.3,1.8v-5h1.6V87.4z M37.9,85.2c0.5-0.7,0.8-1.5,0.8-2.5
			c0-1-0.3-1.8-0.8-2.5c-0.5-0.6-1.3-1-2.2-1c-0.9,0-1.7,0.3-2.2,1c-0.5,0.6-0.8,1.5-0.8,2.5c0,1,0.3,1.8,0.8,2.5
			c0.5,0.6,1.2,1,2.2,1C36.6,86.2,37.4,85.9,37.9,85.2z"/>
		<path class="st49" d="M60.2,78.1l-2.6,9.4h-1.7l-2.3-7.3l-2.3,7.3h-1.7L47,78.1h1.7l1.9,7.5l2.3-7.5h1.4l2.3,7.5l1.9-7.5H60.2z"/>
		<path class="st49" d="M63.7,76.2h-1.6v-1.7h1.6V76.2z M63.7,87.4h-1.6v-9.4h1.6V87.4z"/>
		<path class="st49" d="M71.3,85.8l0.7,1.2c-0.5,0.4-1.2,0.6-2,0.6c-1.1,0-2-0.4-2.4-1.2c-0.3-0.4-0.4-1-0.4-1.9v-5.2h-1.6v-1.3H67
			v-2.6h1.6v2.6h3v1.3h-3v5.2c0,1.1,0.5,1.6,1.4,1.6C70.5,86.2,70.9,86.1,71.3,85.8z"/>
		<path class="st49" d="M75.1,87.4h-1.6V74.6h1.6v5c0.8-1.2,1.9-1.8,3.2-1.8c1,0,1.8,0.3,2.4,0.9c0.6,0.6,0.9,1.5,0.9,2.6v6h-1.6
			v-5.7c0-1.6-0.7-2.4-2.1-2.4c-0.8,0-1.5,0.3-2,0.8c-0.5,0.5-0.8,1.2-0.8,2.1V87.4z"/>
		<path class="st49" d="M83.1,75.1l1-0.8c2.1,2.2,3.1,4.7,3.1,7.7c0,3-1,5.5-3.1,7.7l-1-0.8c1.8-1.9,2.7-4.2,2.7-6.9
			C85.7,79.3,84.9,77,83.1,75.1z"/>
		<path class="st49" d="M13.7,99.7l-3.7,9.8c-0.4,1-0.8,1.7-1.3,2.2c-0.5,0.5-1.1,0.7-1.9,0.7c-0.7,0-1.4-0.2-1.9-0.6l0.7-1.2
			c0.4,0.2,0.7,0.4,1.1,0.4c0.4,0,0.7-0.1,1-0.4c0.3-0.2,0.5-0.6,0.7-1.1l0.3-0.6l-4-9.3h1.8l3,7.3l2.6-7.3H13.7z"/>
		<path class="st49" d="M23.9,104.4c0,1.4-0.4,2.6-1.3,3.5c-0.8,0.9-2,1.4-3.3,1.4c-1.4,0-2.5-0.5-3.4-1.4c-0.8-0.9-1.3-2.1-1.3-3.5
			c0-1.4,0.4-2.6,1.3-3.5c0.8-0.9,2-1.4,3.4-1.4c1.4,0,2.5,0.5,3.3,1.4C23.5,101.8,23.9,102.9,23.9,104.4z M22.2,104.4
			c0-1-0.3-1.9-0.8-2.5c-0.5-0.7-1.2-1-2.2-1s-1.6,0.3-2.2,1c-0.5,0.7-0.8,1.5-0.8,2.5c0,1,0.3,1.8,0.8,2.5c0.5,0.7,1.2,1,2.2,1
			s1.6-0.3,2.2-1C22,106.2,22.2,105.4,22.2,104.4z"/>
		<path class="st49" d="M32.5,99.7H34v9.4h-1.6v-1.5c-0.8,1.2-1.9,1.7-3.2,1.7c-1,0-1.8-0.3-2.4-0.9c-0.6-0.6-0.9-1.5-0.9-2.6v-6
			h1.6v5.7c0,1.6,0.7,2.4,2.1,2.4c0.8,0,1.5-0.3,2-0.8c0.5-0.5,0.8-1.2,0.8-2.1V99.7z"/>
		<path class="st49" d="M42.4,99.8l-0.5,1.5c-0.4-0.2-0.7-0.3-1.1-0.3c-0.7,0-1.2,0.3-1.7,0.8c-0.5,0.6-0.7,1.3-0.7,2.3v4.9h-1.6
			v-9.4h1.6v1.6c0.7-1.2,1.6-1.8,2.7-1.8C41.6,99.5,42.1,99.6,42.4,99.8z"/>
		<path class="st49" d="M55.1,99.7h1.6v9.4h-1.6v-1.5c-0.8,1.2-1.9,1.7-3.2,1.7c-1,0-1.8-0.3-2.4-0.9c-0.6-0.6-0.9-1.5-0.9-2.6v-6
			h1.6v5.7c0,1.6,0.7,2.4,2.1,2.4c0.8,0,1.5-0.3,2-0.8c0.5-0.5,0.8-1.2,0.8-2.1V99.7z"/>
		<path class="st49" d="M66.7,106.3c0,0.9-0.3,1.6-1,2.2c-0.7,0.5-1.6,0.8-2.8,0.8c-1.9,0-3.3-0.7-4.1-2l1.2-0.9
			c0.7,1,1.8,1.5,3.1,1.5c0.7,0,1.2-0.1,1.6-0.4c0.4-0.3,0.6-0.6,0.6-1.1c0-0.4-0.2-0.8-0.5-0.9c-0.4-0.2-1-0.3-2-0.5
			c-1.1-0.2-1.9-0.5-2.5-0.9c-0.6-0.4-0.9-1-0.9-1.8c0-0.9,0.3-1.6,1-2.1c0.7-0.5,1.5-0.7,2.5-0.7c1.5,0,2.8,0.5,3.8,1.6l-1,1
			c-0.7-0.8-1.6-1.2-2.8-1.2c-0.6,0-1,0.1-1.4,0.3c-0.4,0.2-0.6,0.5-0.6,0.9c0,0.2,0,0.3,0.1,0.5s0.2,0.3,0.3,0.4
			c0.1,0.1,0.3,0.2,0.5,0.3s0.4,0.1,0.6,0.2c0.2,0,0.4,0.1,0.7,0.1c0.5,0.1,0.8,0.2,1.1,0.2c0.3,0.1,0.6,0.2,1,0.3
			c0.4,0.1,0.6,0.3,0.8,0.5c0.2,0.2,0.4,0.4,0.5,0.7S66.7,105.9,66.7,106.3z"/>
		<path class="st49" d="M77.3,104.1c0,0.2,0,0.4,0,0.6h-7.3c0,1,0.4,1.7,0.9,2.3c0.6,0.5,1.3,0.8,2.2,0.8c1.1,0,2-0.4,2.8-1.2l1,1
			c-1,1.1-2.3,1.6-3.9,1.6c-1.5,0-2.7-0.5-3.5-1.4s-1.3-2.1-1.3-3.5c0-1.4,0.4-2.6,1.3-3.5s1.9-1.4,3.3-1.4c1.3,0,2.4,0.4,3.2,1.3
			C76.9,101.7,77.3,102.8,77.3,104.1z M69.9,103.5h5.7c-0.1-0.9-0.4-1.5-0.9-2c-0.5-0.5-1.2-0.7-1.9-0.7c-0.8,0-1.5,0.3-2,0.8
			C70.3,102.1,70,102.7,69.9,103.5z"/>
		<path class="st49" d="M85,99.8l-0.5,1.5c-0.4-0.2-0.7-0.3-1.1-0.3c-0.7,0-1.2,0.3-1.7,0.8c-0.5,0.6-0.7,1.3-0.7,2.3v4.9h-1.6v-9.4
			H81v1.6c0.7-1.2,1.6-1.8,2.7-1.8C84.2,99.5,84.6,99.6,85,99.8z"/>
		<path class="st49" d="M93.6,106.3c0,0.9-0.3,1.6-1,2.2c-0.7,0.5-1.6,0.8-2.8,0.8c-1.9,0-3.3-0.7-4.1-2l1.2-0.9
			c0.7,1,1.8,1.5,3.1,1.5c0.7,0,1.2-0.1,1.6-0.4c0.4-0.3,0.6-0.6,0.6-1.1c0-0.4-0.2-0.8-0.5-0.9c-0.4-0.2-1-0.3-2-0.5
			c-1.1-0.2-1.9-0.5-2.5-0.9c-0.6-0.4-0.9-1-0.9-1.8c0-0.9,0.3-1.6,1-2.1c0.7-0.5,1.5-0.7,2.5-0.7c1.5,0,2.8,0.5,3.8,1.6l-1,1
			c-0.7-0.8-1.6-1.2-2.8-1.2c-0.6,0-1,0.1-1.4,0.3c-0.4,0.2-0.6,0.5-0.6,0.9c0,0.2,0,0.3,0.1,0.5s0.2,0.3,0.3,0.4
			c0.1,0.1,0.3,0.2,0.5,0.3s0.4,0.1,0.6,0.2c0.2,0,0.4,0.1,0.7,0.1c0.5,0.1,0.8,0.2,1.1,0.2c0.3,0.1,0.6,0.2,1,0.3
			c0.4,0.1,0.6,0.3,0.8,0.5c0.2,0.2,0.4,0.4,0.5,0.7S93.6,105.9,93.6,106.3z"/>
		<path class="st49" d="M97.6,109h-1.9v-1.9h1.9V109z"/>
	</g>
	<g>
		<rect x="4.8" y="356.3" class="st31" width="178.4" height="27.2"/>
		<path d="M10.7,379.1h-3v-21.3h3V379.1z"/>
		<path d="M31.4,379.1h-2.8v-2.7c-1.5,2.1-3.4,3.1-5.9,3.1c-2.3,0-4.2-0.8-5.6-2.5c-1.4-1.6-2.1-3.7-2.1-6.2c0-2.5,0.7-4.6,2.1-6.3
			c1.4-1.6,3.2-2.5,5.6-2.5c2.5,0,4.4,1,5.9,3.1v-9h2.8V379.1z M27.2,375.2c0.9-1.2,1.4-2.6,1.4-4.4c0-1.8-0.5-3.2-1.4-4.4
			c-0.9-1.2-2.3-1.7-4-1.7c-1.7,0-3,0.6-3.9,1.7c-0.9,1.1-1.3,2.6-1.3,4.4s0.4,3.3,1.3,4.4s2.2,1.7,3.9,1.7
			C24.9,377,26.2,376.4,27.2,375.2z"/>
		<path d="M51.4,370.4c0,0.4,0,0.8-0.1,1.1H38.2c0.1,1.7,0.6,3,1.6,4c1,1,2.3,1.5,4,1.5c1.9,0,3.6-0.7,4.9-2.2l1.9,1.8
			c-1.8,1.9-4.1,2.9-6.8,2.9c-2.6,0-4.7-0.8-6.2-2.4c-1.5-1.6-2.3-3.7-2.3-6.2c0-2.5,0.7-4.6,2.2-6.3c1.5-1.7,3.5-2.5,5.9-2.5
			c2.4,0,4.3,0.8,5.8,2.4C50.6,366.1,51.4,368,51.4,370.4z M38.3,369.4h10.2c-0.1-1.5-0.7-2.7-1.6-3.6c-0.9-0.8-2.1-1.3-3.5-1.3
			c-1.4,0-2.6,0.4-3.5,1.3C38.9,366.8,38.4,367.9,38.3,369.4z"/>
		<path d="M70,377l0.4,2.1c-0.5,0.2-1.2,0.3-1.9,0.3c-0.9,0-1.6-0.2-2.2-0.7c-0.6-0.4-0.9-1.1-1.1-2c-1.3,1.9-3.2,2.8-5.7,2.8
			c-1.7,0-3.1-0.4-4.1-1.3c-1-0.9-1.5-2.1-1.5-3.7c0-0.7,0.1-1.4,0.4-2s0.6-1,0.9-1.4c0.4-0.3,0.8-0.6,1.4-0.9
			c0.6-0.2,1.1-0.4,1.5-0.5c0.4-0.1,1-0.2,1.5-0.3c0.2,0,0.6-0.1,1.1-0.1c0.5-0.1,0.9-0.1,1.1-0.1c0.2,0,0.5-0.1,0.9-0.2
			c0.4-0.1,0.7-0.2,0.9-0.3c0.2-0.1,0.4-0.2,0.6-0.4c0.2-0.2,0.4-0.4,0.5-0.6c0.1-0.2,0.1-0.5,0.1-0.8c0-0.9-0.4-1.5-1.1-1.9
			c-0.7-0.4-1.6-0.6-2.7-0.6c-1.9,0-3.6,0.6-5.2,1.8l-1.3-2.1c2-1.4,4.3-2.1,6.7-2.1c2,0,3.6,0.4,4.7,1.3c1.2,0.9,1.7,2.3,1.7,4.1
			v7.9c0,1.2,0.4,1.8,1.3,1.8C69.5,377.2,69.8,377.1,70,377z M64.9,372.7v-2.9c-0.2,0.3-0.4,0.5-0.7,0.7c-0.2,0.2-0.6,0.3-0.9,0.4
			c-0.4,0.1-0.7,0.2-0.9,0.2c-0.2,0.1-0.6,0.1-1.1,0.2c-0.5,0.1-0.9,0.1-1.2,0.2c-1.2,0.2-2,0.5-2.6,0.8c-0.6,0.4-0.9,1-0.9,2
			c0,0.9,0.3,1.6,1,2.1c0.6,0.5,1.5,0.7,2.5,0.7c1.3,0,2.5-0.4,3.4-1.1C64.5,375.4,64.9,374.2,64.9,372.7z"/>
		<path d="M81.7,376.3l1.2,2.1c-1,0.7-2.2,1.1-3.6,1.1c-2,0-3.5-0.7-4.4-2.1c-0.5-0.7-0.7-1.8-0.7-3.3v-9.3h-2.9v-2.3h2.9v-4.7H77
			v4.7h5.4v2.3H77v9.3c0,1.9,0.9,2.9,2.6,2.9C80.4,377,81.1,376.8,81.7,376.3z"/>
		<path d="M100.9,370.4c0,0.4,0,0.8-0.1,1.1H87.7c0.1,1.7,0.6,3,1.6,4c1,1,2.3,1.5,4,1.5c1.9,0,3.6-0.7,4.9-2.2l1.9,1.8
			c-1.8,1.9-4.1,2.9-6.8,2.9c-2.6,0-4.7-0.8-6.2-2.4c-1.5-1.6-2.3-3.7-2.3-6.2c0-2.5,0.7-4.6,2.2-6.3c1.5-1.7,3.5-2.5,5.9-2.5
			c2.4,0,4.3,0.8,5.8,2.4C100.1,366.1,100.9,368,100.9,370.4z M87.8,369.4H98c-0.1-1.5-0.7-2.7-1.6-3.6c-0.9-0.8-2.1-1.3-3.5-1.3
			c-1.4,0-2.6,0.4-3.5,1.3C88.4,366.8,87.9,367.9,87.8,369.4z"/>
	</g>
	<g>
		<rect x="4.5" y="385.8" class="st31" width="166.1" height="39.9"/>
		<path class="st49" d="M15.5,395.2c0,1-0.3,1.8-1,2.5c-0.7,0.6-1.7,1-3,1H6.1v-12h5c1.2,0,2.2,0.3,2.9,0.8s1,1.2,1,2.1
			c0,1.2-0.5,2-1.6,2.6c0.7,0.3,1.2,0.7,1.5,1.2S15.5,394.5,15.5,395.2z M13.3,389.7c0-1.1-0.7-1.6-2.2-1.6H7.8v3.4h3.4
			c0.7,0,1.2-0.2,1.6-0.5C13.1,390.8,13.3,390.3,13.3,389.7z M13.8,395.1c0-0.6-0.2-1.1-0.6-1.5s-0.9-0.6-1.6-0.6H7.8v4.1h3.7
			c0.7,0,1.3-0.2,1.7-0.5C13.6,396.2,13.8,395.7,13.8,395.1z"/>
		<path class="st49" d="M23.4,389.4l-0.5,1.5c-0.4-0.2-0.7-0.3-1.1-0.3c-0.7,0-1.2,0.3-1.7,0.8c-0.5,0.6-0.7,1.3-0.7,2.3v4.9h-1.6
			v-9.4h1.6v1.6c0.7-1.2,1.6-1.8,2.7-1.8C22.6,389.1,23,389.2,23.4,389.4z"/>
		<path class="st49" d="M33.3,397.4l0.2,1.2c-0.3,0.1-0.6,0.2-1.1,0.2c-0.5,0-0.9-0.1-1.2-0.4s-0.5-0.6-0.6-1.1
			c-0.7,1-1.8,1.6-3.2,1.6c-1,0-1.7-0.3-2.3-0.8c-0.6-0.5-0.9-1.2-0.9-2.1c0-0.4,0.1-0.8,0.2-1.1c0.1-0.3,0.3-0.6,0.5-0.8
			c0.2-0.2,0.5-0.3,0.8-0.5c0.3-0.1,0.6-0.2,0.8-0.3c0.3-0.1,0.5-0.1,0.9-0.2c0.1,0,0.3,0,0.6-0.1s0.5-0.1,0.6-0.1
			c0.1,0,0.3-0.1,0.5-0.1c0.2,0,0.4-0.1,0.5-0.2c0.1-0.1,0.2-0.1,0.4-0.2s0.2-0.2,0.3-0.3s0.1-0.3,0.1-0.4c0-0.5-0.2-0.8-0.6-1
			c-0.4-0.2-0.9-0.3-1.5-0.3c-1.1,0-2,0.3-2.9,1l-0.7-1.2c1.2-0.8,2.4-1.2,3.7-1.2c1.1,0,2,0.3,2.6,0.8c0.6,0.5,1,1.3,1,2.3v4.4
			c0,0.7,0.2,1,0.7,1C33,397.5,33.1,397.5,33.3,397.4z M30.4,395v-1.6c-0.1,0.2-0.2,0.3-0.4,0.4c-0.1,0.1-0.3,0.2-0.5,0.2
			c-0.2,0.1-0.4,0.1-0.5,0.1c-0.1,0-0.3,0.1-0.6,0.1s-0.5,0.1-0.6,0.1c-0.6,0.1-1.1,0.3-1.5,0.5c-0.3,0.2-0.5,0.6-0.5,1.1
			c0,0.5,0.2,0.9,0.5,1.2c0.4,0.3,0.8,0.4,1.4,0.4c0.8,0,1.4-0.2,1.9-0.6S30.4,395.9,30.4,395z"/>
		<path class="st49" d="M36.7,387.4h-1.6v-1.7h1.6V387.4z M36.7,398.6h-1.6v-9.4h1.6V398.6z"/>
		<path class="st49" d="M41,398.6h-1.6v-9.4H41v1.5c0.8-1.2,1.9-1.8,3.2-1.8c1,0,1.8,0.3,2.4,0.9s0.9,1.5,0.9,2.6v6h-1.6V393
			c0-1.6-0.7-2.4-2.1-2.4c-0.8,0-1.5,0.3-2,0.8c-0.5,0.5-0.8,1.2-0.8,2.1V398.6z"/>
		<path class="st49" d="M57.4,395.9c0,0.9-0.3,1.6-1,2.2s-1.6,0.8-2.8,0.8c-1.9,0-3.3-0.7-4.1-2l1.2-0.9c0.7,1,1.8,1.5,3.1,1.5
			c0.7,0,1.2-0.1,1.6-0.4s0.6-0.6,0.6-1.1c0-0.4-0.2-0.8-0.5-0.9c-0.4-0.2-1-0.3-2-0.5c-1.1-0.2-1.9-0.5-2.5-0.9
			c-0.6-0.4-0.9-1-0.9-1.8c0-0.9,0.3-1.6,1-2.1c0.7-0.5,1.5-0.7,2.5-0.7c1.5,0,2.8,0.5,3.8,1.6l-1,1c-0.7-0.8-1.6-1.2-2.8-1.2
			c-0.6,0-1,0.1-1.4,0.3c-0.4,0.2-0.6,0.5-0.6,0.9c0,0.2,0,0.3,0.1,0.5c0.1,0.1,0.2,0.3,0.3,0.4c0.1,0.1,0.3,0.2,0.5,0.3
			s0.4,0.1,0.6,0.2c0.2,0,0.4,0.1,0.7,0.1c0.5,0.1,0.8,0.2,1.1,0.2c0.3,0.1,0.6,0.2,1,0.3c0.4,0.1,0.6,0.3,0.8,0.5
			c0.2,0.2,0.4,0.4,0.5,0.7S57.4,395.5,57.4,395.9z"/>
		<path class="st49" d="M64.3,397l0.7,1.2c-0.5,0.4-1.2,0.6-2,0.6c-1.1,0-2-0.4-2.4-1.2c-0.3-0.4-0.4-1-0.4-1.9v-5.2h-1.6v-1.3h1.6
			v-2.6h1.6v2.6h3v1.3h-3v5.2c0,1.1,0.5,1.6,1.4,1.6C63.6,397.4,64,397.3,64.3,397z"/>
		<path class="st49" d="M75.2,394c0,1.4-0.4,2.6-1.3,3.5c-0.8,0.9-2,1.4-3.3,1.4c-1.4,0-2.5-0.5-3.4-1.4S66,395.4,66,394
			c0-1.4,0.4-2.6,1.3-3.5c0.8-0.9,2-1.4,3.4-1.4c1.4,0,2.5,0.5,3.3,1.4C74.8,391.3,75.2,392.5,75.2,394z M73.6,394
			c0-1-0.3-1.9-0.8-2.5c-0.5-0.7-1.2-1-2.2-1s-1.6,0.3-2.2,1c-0.5,0.7-0.8,1.5-0.8,2.5c0,1,0.3,1.8,0.8,2.5c0.5,0.7,1.2,1,2.2,1
			s1.6-0.3,2.2-1C73.3,395.8,73.6,395,73.6,394z"/>
		<path class="st49" d="M83,389.4l-0.5,1.5c-0.4-0.2-0.7-0.3-1.1-0.3c-0.7,0-1.2,0.3-1.7,0.8c-0.5,0.6-0.7,1.3-0.7,2.3v4.9h-1.6
			v-9.4H79v1.6c0.7-1.2,1.6-1.8,2.7-1.8C82.2,389.1,82.6,389.2,83,389.4z"/>
		<path class="st49" d="M86.1,398.6h-1.6v-9.4h1.6v1.5c0.8-1.2,1.8-1.7,3-1.7c1.4,0,2.4,0.6,2.8,1.9c0.8-1.3,1.9-1.9,3.3-1.9
			c1,0,1.8,0.3,2.3,0.9c0.6,0.6,0.8,1.5,0.8,2.6v6.1h-1.6v-5.7c0-1.6-0.7-2.4-2-2.4c-0.8,0-1.4,0.3-1.9,0.8
			c-0.5,0.5-0.8,1.2-0.8,2.1v5.2h-1.6v-5.7c0-1.6-0.7-2.4-2-2.4c-0.8,0-1.4,0.3-1.9,0.8c-0.5,0.5-0.7,1.2-0.7,2.1V398.6z"/>
		<path class="st49" d="M107.5,398.6H106v-9.4h1.6v1.5c0.8-1.2,1.8-1.7,3-1.7c1.4,0,2.4,0.6,2.8,1.9c0.8-1.3,1.9-1.9,3.3-1.9
			c1,0,1.8,0.3,2.3,0.9c0.6,0.6,0.8,1.5,0.8,2.6v6.1h-1.6v-5.7c0-1.6-0.7-2.4-2-2.4c-0.8,0-1.4,0.3-1.9,0.8
			c-0.5,0.5-0.8,1.2-0.8,2.1v5.2h-1.6v-5.7c0-1.6-0.7-2.4-2-2.4c-0.8,0-1.4,0.3-1.9,0.8c-0.5,0.5-0.7,1.2-0.7,2.1V398.6z"/>
		<path class="st49" d="M130.9,397.4l0.2,1.2c-0.3,0.1-0.6,0.2-1.1,0.2c-0.5,0-0.9-0.1-1.2-0.4s-0.5-0.6-0.6-1.1
			c-0.7,1-1.8,1.6-3.2,1.6c-1,0-1.7-0.3-2.3-0.8c-0.6-0.5-0.9-1.2-0.9-2.1c0-0.4,0.1-0.8,0.2-1.1c0.1-0.3,0.3-0.6,0.5-0.8
			c0.2-0.2,0.5-0.3,0.8-0.5c0.3-0.1,0.6-0.2,0.8-0.3c0.3-0.1,0.5-0.1,0.9-0.2c0.1,0,0.3,0,0.6-0.1s0.5-0.1,0.6-0.1
			c0.1,0,0.3-0.1,0.5-0.1c0.2,0,0.4-0.1,0.5-0.2c0.1-0.1,0.2-0.1,0.4-0.2s0.2-0.2,0.3-0.3c0.1-0.1,0.1-0.3,0.1-0.4
			c0-0.5-0.2-0.8-0.6-1c-0.4-0.2-0.9-0.3-1.5-0.3c-1.1,0-2,0.3-2.9,1l-0.7-1.2c1.2-0.8,2.4-1.2,3.7-1.2c1.1,0,2,0.3,2.6,0.8
			c0.6,0.5,1,1.3,1,2.3v4.4c0,0.7,0.2,1,0.7,1C130.6,397.5,130.8,397.5,130.9,397.4z M128.1,395v-1.6c-0.1,0.2-0.2,0.3-0.4,0.4
			c-0.1,0.1-0.3,0.2-0.5,0.2c-0.2,0.1-0.4,0.1-0.5,0.1c-0.1,0-0.3,0.1-0.6,0.1s-0.5,0.1-0.6,0.1c-0.6,0.1-1.1,0.3-1.5,0.5
			c-0.3,0.2-0.5,0.6-0.5,1.1c0,0.5,0.2,0.9,0.5,1.2c0.4,0.3,0.8,0.4,1.4,0.4c0.8,0,1.4-0.2,1.9-0.6S128.1,395.9,128.1,395z"/>
		<path class="st49" d="M134.3,398.6h-1.6v-9.4h1.6v1.5c0.8-1.2,1.9-1.8,3.2-1.8c1,0,1.8,0.3,2.4,0.9s0.9,1.5,0.9,2.6v6h-1.6V393
			c0-1.6-0.7-2.4-2.1-2.4c-0.8,0-1.5,0.3-2,0.8c-0.5,0.5-0.8,1.2-0.8,2.1V398.6z"/>
		<path class="st49" d="M151.4,389.3l-3.7,9.8c-0.4,1-0.8,1.7-1.3,2.2c-0.5,0.5-1.1,0.7-1.9,0.7c-0.7,0-1.4-0.2-1.9-0.6l0.7-1.2
			c0.4,0.2,0.7,0.4,1.1,0.4c0.4,0,0.7-0.1,1-0.4s0.5-0.6,0.7-1.1l0.3-0.6l-4-9.3h1.8l3,7.3l2.6-7.3H151.4z"/>
		<path class="st49" d="M5.9,410.9h1.6v1.5c0.8-1.2,1.9-1.8,3.3-1.8c1.3,0,2.4,0.5,3.1,1.4c0.8,0.9,1.2,2.1,1.2,3.5
			s-0.4,2.6-1.2,3.5c-0.8,0.9-1.8,1.4-3.1,1.4c-1.4,0-2.5-0.6-3.3-1.7v4.7H5.9V410.9z M8.3,413.1c-0.5,0.7-0.8,1.5-0.8,2.5
			c0,1,0.3,1.8,0.8,2.5c0.5,0.6,1.3,1,2.2,1c0.9,0,1.7-0.3,2.2-1s0.8-1.5,0.8-2.5c0-1-0.3-1.8-0.8-2.5c-0.5-0.6-1.2-1-2.2-1
			C9.5,412.1,8.8,412.4,8.3,413.1z"/>
		<path class="st49" d="M25.9,415.6c0,1.4-0.4,2.6-1.3,3.5c-0.8,0.9-2,1.4-3.3,1.4c-1.4,0-2.5-0.5-3.4-1.4s-1.3-2.1-1.3-3.5
			c0-1.4,0.4-2.6,1.3-3.5c0.8-0.9,2-1.4,3.4-1.4c1.4,0,2.5,0.5,3.3,1.4C25.5,412.9,25.9,414.1,25.9,415.6z M24.2,415.6
			c0-1-0.3-1.9-0.8-2.5c-0.5-0.7-1.2-1-2.2-1s-1.6,0.3-2.2,1c-0.5,0.7-0.8,1.5-0.8,2.5c0,1,0.3,1.8,0.8,2.5c0.5,0.7,1.2,1,2.2,1
			s1.6-0.3,2.2-1C24,417.4,24.2,416.6,24.2,415.6z"/>
		<path class="st49" d="M35.3,417.5c0,0.9-0.3,1.6-1,2.2s-1.6,0.8-2.8,0.8c-1.9,0-3.3-0.7-4.1-2l1.2-0.9c0.7,1,1.8,1.5,3.1,1.5
			c0.7,0,1.2-0.1,1.6-0.4s0.6-0.6,0.6-1.1c0-0.4-0.2-0.8-0.5-0.9c-0.4-0.2-1-0.3-2-0.5c-1.1-0.2-1.9-0.5-2.5-0.9
			c-0.6-0.4-0.9-1-0.9-1.8c0-0.9,0.3-1.6,1-2.1c0.7-0.5,1.5-0.7,2.5-0.7c1.5,0,2.8,0.5,3.8,1.6l-1,1c-0.7-0.8-1.6-1.2-2.8-1.2
			c-0.6,0-1,0.1-1.4,0.3c-0.4,0.2-0.6,0.5-0.6,0.9c0,0.2,0,0.3,0.1,0.5c0.1,0.1,0.2,0.3,0.3,0.4c0.1,0.1,0.3,0.2,0.5,0.3
			s0.4,0.1,0.6,0.2c0.2,0,0.4,0.1,0.7,0.1c0.5,0.1,0.8,0.2,1.1,0.2c0.3,0.1,0.6,0.2,1,0.3c0.4,0.1,0.6,0.3,0.8,0.5
			c0.2,0.2,0.4,0.4,0.5,0.7S35.3,417.1,35.3,417.5z"/>
		<path class="st49" d="M44.6,417.5c0,0.9-0.3,1.6-1,2.2s-1.6,0.8-2.8,0.8c-1.9,0-3.3-0.7-4.1-2l1.2-0.9c0.7,1,1.8,1.5,3.1,1.5
			c0.7,0,1.2-0.1,1.6-0.4s0.6-0.6,0.6-1.1c0-0.4-0.2-0.8-0.5-0.9c-0.4-0.2-1-0.3-2-0.5c-1.1-0.2-1.9-0.5-2.5-0.9
			c-0.6-0.4-0.9-1-0.9-1.8c0-0.9,0.3-1.6,1-2.1c0.7-0.5,1.5-0.7,2.5-0.7c1.5,0,2.8,0.5,3.8,1.6l-1,1c-0.7-0.8-1.6-1.2-2.8-1.2
			c-0.6,0-1,0.1-1.4,0.3c-0.4,0.2-0.6,0.5-0.6,0.9c0,0.2,0,0.3,0.1,0.5c0.1,0.1,0.2,0.3,0.3,0.4c0.1,0.1,0.3,0.2,0.5,0.3
			s0.4,0.1,0.6,0.2c0.2,0,0.4,0.1,0.7,0.1c0.5,0.1,0.8,0.2,1.1,0.2c0.3,0.1,0.6,0.2,1,0.3c0.4,0.1,0.6,0.3,0.8,0.5
			c0.2,0.2,0.4,0.4,0.5,0.7S44.6,417.1,44.6,417.5z"/>
		<path class="st49" d="M48.3,409h-1.6v-1.7h1.6V409z M48.3,420.2h-1.6v-9.4h1.6V420.2z"/>
		<path class="st49" d="M51.1,407.4h1.6v5c0.8-1.2,1.9-1.8,3.3-1.8c1.3,0,2.4,0.5,3.1,1.4c0.8,0.9,1.2,2.1,1.2,3.5s-0.4,2.6-1.2,3.5
			c-0.8,0.9-1.8,1.4-3.1,1.4c-1.4,0-2.5-0.6-3.3-1.7v1.5h-1.6V407.4z M53.5,413.1c-0.5,0.7-0.8,1.5-0.8,2.5c0,1,0.3,1.8,0.8,2.5
			c0.5,0.6,1.3,1,2.2,1c0.9,0,1.7-0.3,2.2-1s0.8-1.5,0.8-2.5c0-1-0.3-1.8-0.8-2.5c-0.5-0.6-1.2-1-2.2-1
			C54.8,412.1,54,412.4,53.5,413.1z"/>
		<path class="st49" d="M64.1,420.2h-1.6v-12.9h1.6V420.2z"/>
		<path class="st49" d="M75.5,415.3c0,0.2,0,0.4,0,0.6h-7.3c0,1,0.4,1.7,0.9,2.3c0.6,0.5,1.3,0.8,2.2,0.8c1.1,0,2-0.4,2.8-1.2l1,1
			c-1,1.1-2.3,1.6-3.9,1.6c-1.5,0-2.7-0.5-3.5-1.4s-1.3-2.1-1.3-3.5c0-1.4,0.4-2.6,1.3-3.5c0.8-0.9,1.9-1.4,3.3-1.4
			c1.3,0,2.4,0.4,3.2,1.3C75,412.9,75.5,414,75.5,415.3z M68.1,414.7h5.7c-0.1-0.9-0.4-1.5-0.9-2c-0.5-0.5-1.2-0.7-1.9-0.7
			c-0.8,0-1.5,0.3-2,0.8S68.2,413.9,68.1,414.7z"/>
		<path class="st49" d="M89.6,417.5c0,0.9-0.3,1.6-1,2.2s-1.6,0.8-2.8,0.8c-1.9,0-3.3-0.7-4.1-2l1.2-0.9c0.7,1,1.8,1.5,3.1,1.5
			c0.7,0,1.2-0.1,1.6-0.4s0.6-0.6,0.6-1.1c0-0.4-0.2-0.8-0.5-0.9c-0.4-0.2-1-0.3-2-0.5c-1.1-0.2-1.9-0.5-2.5-0.9
			c-0.6-0.4-0.9-1-0.9-1.8c0-0.9,0.3-1.6,1-2.1c0.7-0.5,1.5-0.7,2.5-0.7c1.5,0,2.8,0.5,3.8,1.6l-1,1c-0.7-0.8-1.6-1.2-2.8-1.2
			c-0.6,0-1,0.1-1.4,0.3c-0.4,0.2-0.6,0.5-0.6,0.9c0,0.2,0,0.3,0.1,0.5c0.1,0.1,0.2,0.3,0.3,0.4c0.1,0.1,0.3,0.2,0.5,0.3
			s0.4,0.1,0.6,0.2c0.2,0,0.4,0.1,0.7,0.1c0.5,0.1,0.8,0.2,1.1,0.2c0.3,0.1,0.6,0.2,1,0.3c0.4,0.1,0.6,0.3,0.8,0.5
			c0.2,0.2,0.4,0.4,0.5,0.7S89.6,417.1,89.6,417.5z"/>
		<path class="st49" d="M100.3,415.6c0,1.4-0.4,2.6-1.3,3.5c-0.8,0.9-2,1.4-3.3,1.4c-1.4,0-2.5-0.5-3.4-1.4s-1.3-2.1-1.3-3.5
			c0-1.4,0.4-2.6,1.3-3.5c0.8-0.9,2-1.4,3.4-1.4c1.4,0,2.5,0.5,3.3,1.4C99.9,412.9,100.3,414.1,100.3,415.6z M98.7,415.6
			c0-1-0.3-1.9-0.8-2.5c-0.5-0.7-1.2-1-2.2-1s-1.6,0.3-2.2,1c-0.5,0.7-0.8,1.5-0.8,2.5c0,1,0.3,1.8,0.8,2.5c0.5,0.7,1.2,1,2.2,1
			s1.6-0.3,2.2-1C98.4,417.4,98.7,416.6,98.7,415.6z"/>
		<path class="st49" d="M104.2,420.2h-1.6v-12.9h1.6V420.2z"/>
		<path class="st49" d="M113.4,410.9h1.6v9.4h-1.6v-1.5c-0.8,1.2-1.9,1.7-3.2,1.7c-1,0-1.8-0.3-2.4-0.9c-0.6-0.6-0.9-1.5-0.9-2.6v-6
			h1.6v5.7c0,1.6,0.7,2.4,2.1,2.4c0.8,0,1.5-0.3,2-0.8s0.8-1.2,0.8-2.1V410.9z"/>
		<path class="st49" d="M122.5,418.6l0.7,1.2c-0.5,0.4-1.2,0.6-2,0.6c-1.1,0-2-0.4-2.4-1.2c-0.3-0.4-0.4-1-0.4-1.9v-5.2h-1.6v-1.3
			h1.6v-2.6h1.6v2.6h3v1.3h-3v5.2c0,1.1,0.5,1.6,1.4,1.6C121.8,419,122.2,418.9,122.5,418.6z"/>
		<path class="st49" d="M126.4,409h-1.6v-1.7h1.6V409z M126.4,420.2h-1.6v-9.4h1.6V420.2z"/>
		<path class="st49" d="M137.8,415.6c0,1.4-0.4,2.6-1.3,3.5c-0.8,0.9-2,1.4-3.3,1.4c-1.4,0-2.5-0.5-3.4-1.4s-1.3-2.1-1.3-3.5
			c0-1.4,0.4-2.6,1.3-3.5c0.8-0.9,2-1.4,3.4-1.4c1.4,0,2.5,0.5,3.3,1.4C137.4,412.9,137.8,414.1,137.8,415.6z M136.2,415.6
			c0-1-0.3-1.9-0.8-2.5c-0.5-0.7-1.2-1-2.2-1s-1.6,0.3-2.2,1c-0.5,0.7-0.8,1.5-0.8,2.5c0,1,0.3,1.8,0.8,2.5c0.5,0.7,1.2,1,2.2,1
			s1.6-0.3,2.2-1C135.9,417.4,136.2,416.6,136.2,415.6z"/>
		<path class="st49" d="M141.6,420.2H140v-9.4h1.6v1.5c0.8-1.2,1.9-1.8,3.2-1.8c1,0,1.8,0.3,2.4,0.9s0.9,1.5,0.9,2.6v6h-1.6v-5.7
			c0-1.6-0.7-2.4-2.1-2.4c-0.8,0-1.5,0.3-2,0.8c-0.5,0.5-0.8,1.2-0.8,2.1V420.2z"/>
		<path class="st49" d="M157.9,417.5c0,0.9-0.3,1.6-1,2.2s-1.6,0.8-2.8,0.8c-1.9,0-3.3-0.7-4.1-2l1.2-0.9c0.7,1,1.8,1.5,3.1,1.5
			c0.7,0,1.2-0.1,1.6-0.4s0.6-0.6,0.6-1.1c0-0.4-0.2-0.8-0.5-0.9c-0.4-0.2-1-0.3-2-0.5c-1.1-0.2-1.9-0.5-2.5-0.9
			c-0.6-0.4-0.9-1-0.9-1.8c0-0.9,0.3-1.6,1-2.1c0.7-0.5,1.5-0.7,2.5-0.7c1.5,0,2.8,0.5,3.8,1.6l-1,1c-0.7-0.8-1.6-1.2-2.8-1.2
			c-0.6,0-1,0.1-1.4,0.3c-0.4,0.2-0.6,0.5-0.6,0.9c0,0.2,0,0.3,0.1,0.5c0.1,0.1,0.2,0.3,0.3,0.4c0.1,0.1,0.3,0.2,0.5,0.3
			s0.4,0.1,0.6,0.2c0.2,0,0.4,0.1,0.7,0.1c0.5,0.1,0.8,0.2,1.1,0.2c0.3,0.1,0.6,0.2,1,0.3c0.4,0.1,0.6,0.3,0.8,0.5
			c0.2,0.2,0.4,0.4,0.5,0.7S157.9,417.1,157.9,417.5z"/>
		<path class="st49" d="M161.9,420.2H160v-1.9h1.9V420.2z"/>
	</g>
	<g>
		<rect x="5.2" y="493.1" class="st31" width="178.4" height="26.2"/>
		<path d="M22.5,496.4c1.3,1.2,2,2.8,2,4.8c0,2-0.7,3.6-2,4.8c-1.3,1.2-3.2,1.8-5.6,1.8h-6v8.1H8v-21.3h9
			C19.4,494.6,21.2,495.2,22.5,496.4z M11,505.1h6c1.5,0,2.5-0.3,3.3-1c0.7-0.7,1.1-1.6,1.1-2.8c0-1.2-0.4-2.2-1.1-2.8
			c-0.7-0.7-1.8-1-3.3-1h-6V505.1z"/>
		<path d="M37.8,499.6l-0.9,2.7c-0.6-0.3-1.3-0.5-1.9-0.5c-1.2,0-2.2,0.5-3,1.5c-0.8,1-1.3,2.3-1.3,4v8.7h-2.8v-16.6h2.8v2.8
			c1.3-2.1,2.9-3.1,4.8-3.1C36.4,499,37.2,499.2,37.8,499.6z"/>
		<path d="M55.5,507.7c0,2.5-0.7,4.6-2.2,6.2s-3.5,2.4-6,2.4c-2.5,0-4.5-0.8-6-2.4c-1.5-1.6-2.2-3.7-2.2-6.2c0-2.6,0.7-4.7,2.2-6.3
			c1.5-1.6,3.5-2.4,6-2.4c2.5,0,4.5,0.8,6,2.4S55.5,505.1,55.5,507.7z M52.5,507.7c0-1.8-0.5-3.3-1.4-4.5c-0.9-1.2-2.2-1.7-3.8-1.7
			c-1.6,0-2.9,0.6-3.8,1.7s-1.4,2.7-1.4,4.5c0,1.8,0.5,3.3,1.4,4.4c0.9,1.2,2.2,1.7,3.8,1.7c1.6,0,2.9-0.6,3.8-1.7
			C52.1,510.9,52.5,509.5,52.5,507.7z"/>
		<path d="M67.9,513.1l1.2,2.1c-1,0.7-2.2,1.1-3.6,1.1c-2,0-3.5-0.7-4.4-2.1c-0.5-0.7-0.7-1.8-0.7-3.3v-9.3h-2.9v-2.3h2.9v-4.7h2.8
			v4.7h5.4v2.3h-5.4v9.3c0,1.9,0.9,2.9,2.6,2.9C66.6,513.8,67.3,513.6,67.9,513.1z"/>
		<path d="M87.3,507.7c0,2.5-0.7,4.6-2.2,6.2s-3.5,2.4-6,2.4c-2.5,0-4.5-0.8-6-2.4c-1.5-1.6-2.2-3.7-2.2-6.2c0-2.6,0.7-4.7,2.2-6.3
			c1.5-1.6,3.5-2.4,6-2.4c2.5,0,4.5,0.8,6,2.4S87.3,505.1,87.3,507.7z M84.4,507.7c0-1.8-0.5-3.3-1.4-4.5c-0.9-1.2-2.2-1.7-3.8-1.7
			c-1.6,0-2.9,0.6-3.8,1.7s-1.4,2.7-1.4,4.5c0,1.8,0.5,3.3,1.4,4.4c0.9,1.2,2.2,1.7,3.8,1.7c1.6,0,2.9-0.6,3.8-1.7
			C83.9,510.9,84.4,509.5,84.4,507.7z"/>
		<path d="M99.7,513.1l1.2,2.1c-1,0.7-2.2,1.1-3.6,1.1c-2,0-3.5-0.7-4.4-2.1c-0.5-0.7-0.7-1.8-0.7-3.3v-9.3h-2.9v-2.3h2.9v-4.7H95
			v4.7h5.4v2.3H95v9.3c0,1.9,0.9,2.9,2.6,2.9C98.4,513.8,99.1,513.6,99.7,513.1z"/>
		<path d="M118,499.3l-6.7,17.4c-0.7,1.8-1.4,3.1-2.3,3.9c-0.8,0.8-2,1.2-3.5,1.2c-1.3,0-2.5-0.3-3.4-1l1.2-2c0.6,0.4,1.3,0.6,2,0.6
			c0.7,0,1.3-0.2,1.7-0.7c0.4-0.4,0.9-1.1,1.2-1.9l0.4-1l-7-16.6h3.2l5.3,12.9l4.7-12.9H118z"/>
		<path d="M121,499.3h2.8v2.8c1.5-2.1,3.4-3.1,5.9-3.1c2.3,0,4.2,0.8,5.6,2.5c1.4,1.6,2.1,3.7,2.1,6.2c0,2.5-0.7,4.6-2.1,6.2
			c-1.4,1.6-3.2,2.5-5.6,2.5c-2.5,0-4.5-1-5.9-3.1v8.3H121V499.3z M125.2,503.3c-0.9,1.2-1.4,2.6-1.4,4.4s0.5,3.2,1.4,4.4
			c0.9,1.2,2.3,1.7,4,1.7c1.7,0,3-0.6,3.9-1.7c0.9-1.1,1.3-2.6,1.3-4.4s-0.4-3.3-1.3-4.4s-2.2-1.7-3.9-1.7
			C127.4,501.5,126.1,502.1,125.2,503.3z"/>
		<path d="M156.2,507.2c0,0.4,0,0.8-0.1,1.1h-13.1c0.1,1.7,0.6,3,1.6,4c1,1,2.3,1.5,4,1.5c1.9,0,3.6-0.7,4.9-2.2l1.9,1.8
			c-1.8,1.9-4.1,2.9-6.8,2.9c-2.6,0-4.7-0.8-6.2-2.4c-1.5-1.6-2.3-3.7-2.3-6.2c0-2.5,0.7-4.6,2.2-6.3s3.5-2.5,5.9-2.5
			c2.4,0,4.3,0.8,5.8,2.4C155.5,502.9,156.2,504.8,156.2,507.2z M143.2,506.2h10.2c-0.1-1.5-0.7-2.7-1.6-3.6
			c-0.9-0.8-2.1-1.3-3.5-1.3c-1.4,0-2.6,0.4-3.5,1.3C143.8,503.6,143.3,504.7,143.2,506.2z"/>
	</g>
	<g>
		<rect x="5.2" y="521.6" class="st31" width="165.5" height="85.8"/>
		<path class="st49" d="M16.2,531c0,1-0.3,1.8-1,2.5c-0.7,0.6-1.7,1-3,1H6.8v-12h5c1.2,0,2.2,0.3,2.9,0.8s1,1.2,1,2.1
			c0,1.2-0.5,2-1.6,2.6c0.7,0.3,1.2,0.7,1.5,1.2C16,529.7,16.2,530.3,16.2,531z M14,525.6c0-1.1-0.7-1.6-2.2-1.6H8.5v3.4h3.4
			c0.7,0,1.2-0.2,1.6-0.5S14,526.1,14,525.6z M14.4,530.9c0-0.6-0.2-1.1-0.6-1.5s-0.9-0.6-1.6-0.6H8.5v4.1h3.7
			c0.7,0,1.3-0.2,1.7-0.5C14.2,532,14.4,531.5,14.4,530.9z"/>
		<path class="st49" d="M24.8,525.1h1.6v9.4h-1.6v-1.5c-0.8,1.2-1.9,1.7-3.2,1.7c-1,0-1.8-0.3-2.4-0.9c-0.6-0.6-0.9-1.5-0.9-2.6v-6
			h1.6v5.7c0,1.6,0.7,2.4,2.1,2.4c0.8,0,1.5-0.3,2-0.8c0.5-0.5,0.8-1.2,0.8-2.1V525.1z"/>
		<path class="st49" d="M30.8,523.2h-1.6v-1.7h1.6V523.2z M30.8,534.4h-1.6v-9.4h1.6V534.4z"/>
		<path class="st49" d="M35.2,534.4h-1.6v-12.9h1.6V534.4z"/>
		<path class="st49" d="M46.7,534.4h-1.6v-1.5c-0.8,1.2-1.9,1.7-3.3,1.7c-1.3,0-2.4-0.5-3.1-1.4c-0.8-0.9-1.2-2.1-1.2-3.5
			c0-1.4,0.4-2.6,1.2-3.5c0.8-0.9,1.8-1.4,3.1-1.4c1.4,0,2.5,0.6,3.3,1.8v-5h1.6V534.4z M44.3,532.2c0.5-0.7,0.8-1.5,0.8-2.5
			c0-1-0.3-1.8-0.8-2.5c-0.5-0.6-1.3-1-2.2-1c-0.9,0-1.7,0.3-2.2,1c-0.5,0.6-0.8,1.5-0.8,2.5c0,1,0.3,1.8,0.8,2.5
			c0.5,0.6,1.2,1,2.2,1C43,533.2,43.8,532.9,44.3,532.2z"/>
		<path class="st49" d="M14.9,554.8l0.2,1.2c-0.3,0.1-0.6,0.2-1.1,0.2c-0.5,0-0.9-0.1-1.2-0.4s-0.5-0.6-0.6-1.1
			c-0.7,1-1.8,1.6-3.2,1.6c-1,0-1.7-0.3-2.3-0.8c-0.6-0.5-0.9-1.2-0.9-2.1c0-0.4,0.1-0.8,0.2-1.1c0.1-0.3,0.3-0.6,0.5-0.8
			c0.2-0.2,0.5-0.3,0.8-0.5c0.3-0.1,0.6-0.2,0.8-0.3c0.3-0.1,0.5-0.1,0.9-0.2c0.1,0,0.3,0,0.6-0.1s0.5-0.1,0.6-0.1
			c0.1,0,0.3-0.1,0.5-0.1c0.2,0,0.4-0.1,0.5-0.2c0.1-0.1,0.2-0.1,0.4-0.2s0.2-0.2,0.3-0.3s0.1-0.3,0.1-0.4c0-0.5-0.2-0.8-0.6-1
			c-0.4-0.2-0.9-0.3-1.5-0.3c-1.1,0-2,0.3-2.9,1l-0.7-1.2c1.2-0.8,2.4-1.2,3.7-1.2c1.1,0,2,0.3,2.6,0.8c0.6,0.5,1,1.3,1,2.3v4.4
			c0,0.7,0.2,1,0.7,1C14.6,554.9,14.8,554.9,14.9,554.8z M12.1,552.4v-1.6c-0.1,0.2-0.2,0.3-0.4,0.4c-0.1,0.1-0.3,0.2-0.5,0.2
			c-0.2,0.1-0.4,0.1-0.5,0.1c-0.1,0-0.3,0.1-0.6,0.1s-0.5,0.1-0.6,0.1c-0.6,0.1-1.1,0.3-1.5,0.5c-0.3,0.2-0.5,0.6-0.5,1.1
			c0,0.5,0.2,0.9,0.5,1.2c0.4,0.3,0.8,0.4,1.4,0.4c0.8,0,1.4-0.2,1.9-0.6S12.1,553.3,12.1,552.4z"/>
		<path class="st49" d="M21.6,546.7h1.6v1.5c0.8-1.2,1.9-1.8,3.3-1.8c1.3,0,2.4,0.5,3.1,1.4c0.8,0.9,1.2,2.1,1.2,3.5
			s-0.4,2.6-1.2,3.5c-0.8,0.9-1.8,1.4-3.1,1.4c-1.4,0-2.5-0.6-3.3-1.7v4.7h-1.6V546.7z M24,548.9c-0.5,0.7-0.8,1.5-0.8,2.5
			c0,1,0.3,1.8,0.8,2.5c0.5,0.6,1.3,1,2.2,1c0.9,0,1.7-0.3,2.2-1s0.8-1.5,0.8-2.5c0-1-0.3-1.8-0.8-2.5c-0.5-0.6-1.2-1-2.2-1
			C25.3,547.9,24.5,548.2,24,548.9z"/>
		<path class="st49" d="M38.6,546.8l-0.5,1.5c-0.4-0.2-0.7-0.3-1.1-0.3c-0.7,0-1.2,0.3-1.7,0.8c-0.5,0.6-0.7,1.3-0.7,2.3v4.9H33
			v-9.4h1.6v1.6c0.7-1.2,1.6-1.8,2.7-1.8C37.8,546.5,38.2,546.6,38.6,546.8z"/>
		<path class="st49" d="M48.5,551.4c0,1.4-0.4,2.6-1.3,3.5c-0.8,0.9-2,1.4-3.3,1.4c-1.4,0-2.5-0.5-3.4-1.4s-1.3-2.1-1.3-3.5
			c0-1.4,0.4-2.6,1.3-3.5c0.8-0.9,2-1.4,3.4-1.4c1.4,0,2.5,0.5,3.3,1.4C48.1,548.7,48.5,549.9,48.5,551.4z M46.9,551.4
			c0-1-0.3-1.9-0.8-2.5c-0.5-0.7-1.2-1-2.2-1s-1.6,0.3-2.2,1c-0.5,0.7-0.8,1.5-0.8,2.5c0,1,0.3,1.8,0.8,2.5c0.5,0.7,1.2,1,2.2,1
			s1.6-0.3,2.2-1C46.6,553.2,46.9,552.4,46.9,551.4z"/>
		<path class="st49" d="M55.5,554.4l0.7,1.2c-0.5,0.4-1.2,0.6-2,0.6c-1.1,0-2-0.4-2.4-1.2c-0.3-0.4-0.4-1-0.4-1.9V548h-1.6v-1.3h1.6
			V544h1.6v2.6h3v1.3h-3v5.2c0,1.1,0.5,1.6,1.4,1.6C54.8,554.8,55.2,554.7,55.5,554.4z"/>
		<path class="st49" d="M66.4,551.4c0,1.4-0.4,2.6-1.3,3.5c-0.8,0.9-2,1.4-3.3,1.4c-1.4,0-2.5-0.5-3.4-1.4s-1.3-2.1-1.3-3.5
			c0-1.4,0.4-2.6,1.3-3.5c0.8-0.9,2-1.4,3.4-1.4c1.4,0,2.5,0.5,3.3,1.4C66,548.7,66.4,549.9,66.4,551.4z M64.7,551.4
			c0-1-0.3-1.9-0.8-2.5c-0.5-0.7-1.2-1-2.2-1s-1.6,0.3-2.2,1c-0.5,0.7-0.8,1.5-0.8,2.5c0,1,0.3,1.8,0.8,2.5c0.5,0.7,1.2,1,2.2,1
			s1.6-0.3,2.2-1C64.5,553.2,64.7,552.4,64.7,551.4z"/>
		<path class="st49" d="M73.4,554.4l0.7,1.2c-0.5,0.4-1.2,0.6-2,0.6c-1.1,0-2-0.4-2.4-1.2c-0.3-0.4-0.4-1-0.4-1.9V548h-1.6v-1.3h1.6
			V544h1.6v2.6h3v1.3h-3v5.2c0,1.1,0.5,1.6,1.4,1.6C72.7,554.8,73.1,554.7,73.4,554.4z"/>
		<path class="st49" d="M83.7,546.7l-3.7,9.8c-0.4,1-0.8,1.7-1.3,2.2c-0.5,0.5-1.1,0.7-1.9,0.7c-0.7,0-1.4-0.2-1.9-0.6l0.7-1.2
			c0.4,0.2,0.7,0.4,1.1,0.4c0.4,0,0.7-0.1,1-0.4s0.5-0.6,0.7-1.1l0.3-0.6l-4-9.3h1.8l3,7.3l2.6-7.3H83.7z"/>
		<path class="st49" d="M85.3,546.7h1.6v1.5c0.8-1.2,1.9-1.8,3.3-1.8c1.3,0,2.4,0.5,3.1,1.4c0.8,0.9,1.2,2.1,1.2,3.5
			s-0.4,2.6-1.2,3.5c-0.8,0.9-1.8,1.4-3.1,1.4c-1.4,0-2.5-0.6-3.3-1.7v4.7h-1.6V546.7z M87.7,548.9c-0.5,0.7-0.8,1.5-0.8,2.5
			c0,1,0.3,1.8,0.8,2.5c0.5,0.6,1.3,1,2.2,1c0.9,0,1.7-0.3,2.2-1s0.8-1.5,0.8-2.5c0-1-0.3-1.8-0.8-2.5c-0.5-0.6-1.2-1-2.2-1
			C89,547.9,88.2,548.2,87.7,548.9z"/>
		<path class="st49" d="M105.2,551.1c0,0.2,0,0.4,0,0.6h-7.3c0,1,0.4,1.7,0.9,2.3c0.6,0.5,1.3,0.8,2.2,0.8c1.1,0,2-0.4,2.8-1.2l1,1
			c-1,1.1-2.3,1.6-3.9,1.6c-1.5,0-2.7-0.5-3.5-1.4s-1.3-2.1-1.3-3.5c0-1.4,0.4-2.6,1.3-3.5c0.8-0.9,1.9-1.4,3.3-1.4
			c1.3,0,2.4,0.4,3.2,1.3C104.8,548.7,105.2,549.8,105.2,551.1z M97.8,550.5h5.7c-0.1-0.9-0.4-1.5-0.9-2c-0.5-0.5-1.2-0.7-1.9-0.7
			c-0.8,0-1.5,0.3-2,0.8S97.9,549.7,97.8,550.5z"/>
		<path class="st49" d="M15.2,573c0,1.4-0.4,2.6-1.3,3.5c-0.8,0.9-2,1.4-3.3,1.4c-1.4,0-2.5-0.5-3.4-1.4s-1.3-2.1-1.3-3.5
			c0-1.4,0.4-2.6,1.3-3.5s2-1.4,3.4-1.4c1.4,0,2.5,0.5,3.3,1.4C14.7,570.3,15.2,571.5,15.2,573z M13.5,573c0-1-0.3-1.9-0.8-2.5
			c-0.5-0.7-1.2-1-2.2-1s-1.6,0.3-2.2,1c-0.5,0.7-0.8,1.5-0.8,2.5c0,1,0.3,1.8,0.8,2.5c0.5,0.7,1.2,1,2.2,1s1.6-0.3,2.2-1
			C13.2,574.8,13.5,574,13.5,573z"/>
		<path class="st49" d="M22.2,564.8l-0.2,1.3c-0.4-0.1-0.8-0.2-1.1-0.2c-0.4,0-0.8,0.1-1,0.3c-0.2,0.2-0.3,0.5-0.3,0.9v1.1h2.2v1.3
			h-2.2v8.1H18v-8.1h-1.6v-1.3H18v-1.1c0-0.9,0.2-1.5,0.7-1.9c0.5-0.4,1.2-0.7,2.1-0.7C21.4,564.6,21.9,564.6,22.2,564.8z"/>
		<path class="st49" d="M36.5,568.3l-3.7,9.8c-0.4,1-0.8,1.7-1.3,2.2c-0.5,0.5-1.1,0.7-1.9,0.7c-0.7,0-1.4-0.2-1.9-0.6l0.7-1.2
			c0.4,0.2,0.7,0.4,1.1,0.4c0.4,0,0.7-0.1,1-0.4c0.3-0.2,0.5-0.6,0.7-1.1l0.3-0.6l-4-9.3h1.8l3,7.3l2.6-7.3H36.5z"/>
		<path class="st49" d="M46.7,573c0,1.4-0.4,2.6-1.3,3.5c-0.8,0.9-2,1.4-3.3,1.4c-1.4,0-2.5-0.5-3.4-1.4s-1.3-2.1-1.3-3.5
			c0-1.4,0.4-2.6,1.3-3.5s2-1.4,3.4-1.4c1.4,0,2.5,0.5,3.3,1.4C46.2,570.3,46.7,571.5,46.7,573z M45,573c0-1-0.3-1.9-0.8-2.5
			c-0.5-0.7-1.2-1-2.2-1s-1.6,0.3-2.2,1c-0.5,0.7-0.8,1.5-0.8,2.5c0,1,0.3,1.8,0.8,2.5c0.5,0.7,1.2,1,2.2,1s1.6-0.3,2.2-1
			C44.7,574.8,45,574,45,573z"/>
		<path class="st49" d="M55.2,568.3h1.6v9.4h-1.6v-1.5c-0.8,1.2-1.9,1.7-3.2,1.7c-1,0-1.8-0.3-2.4-0.9c-0.6-0.6-0.9-1.5-0.9-2.6v-6
			h1.6v5.7c0,1.6,0.7,2.4,2.1,2.4c0.8,0,1.5-0.3,2-0.8c0.5-0.5,0.8-1.2,0.8-2.1V568.3z"/>
		<path class="st49" d="M65.2,568.4l-0.5,1.5c-0.4-0.2-0.7-0.3-1.1-0.3c-0.7,0-1.2,0.3-1.7,0.8c-0.5,0.6-0.7,1.3-0.7,2.3v4.9h-1.6
			v-9.4h1.6v1.6c0.7-1.2,1.6-1.8,2.7-1.8C64.4,568.1,64.8,568.2,65.2,568.4z"/>
		<path class="st49" d="M13.7,596.5c0,0.9-0.3,1.6-1,2.2s-1.6,0.8-2.8,0.8c-1.9,0-3.3-0.7-4.1-2l1.2-0.9c0.7,1,1.8,1.5,3.1,1.5
			c0.7,0,1.2-0.1,1.6-0.4s0.6-0.6,0.6-1.1c0-0.4-0.2-0.8-0.5-0.9c-0.4-0.2-1-0.3-2-0.5c-1.1-0.2-1.9-0.5-2.5-0.9
			c-0.6-0.4-0.9-1-0.9-1.8c0-0.9,0.3-1.6,1-2.1c0.7-0.5,1.5-0.7,2.5-0.7c1.5,0,2.8,0.5,3.8,1.6l-1,1c-0.7-0.8-1.6-1.2-2.8-1.2
			c-0.6,0-1,0.1-1.4,0.3c-0.4,0.2-0.6,0.5-0.6,0.9c0,0.2,0,0.3,0.1,0.5c0.1,0.1,0.2,0.3,0.3,0.4c0.1,0.1,0.3,0.2,0.5,0.3
			s0.4,0.1,0.6,0.2c0.2,0,0.4,0.1,0.7,0.1c0.5,0.1,0.8,0.2,1.1,0.2c0.3,0.1,0.6,0.2,1,0.3c0.4,0.1,0.6,0.3,0.8,0.5
			c0.2,0.2,0.4,0.4,0.5,0.7S13.7,596.1,13.7,596.5z"/>
		<path class="st49" d="M24.5,594.6c0,1.4-0.4,2.6-1.3,3.5c-0.8,0.9-2,1.4-3.3,1.4c-1.4,0-2.5-0.5-3.4-1.4s-1.3-2.1-1.3-3.5
			c0-1.4,0.4-2.6,1.3-3.5c0.8-0.9,2-1.4,3.4-1.4c1.4,0,2.5,0.5,3.3,1.4C24.1,591.9,24.5,593.1,24.5,594.6z M22.8,594.6
			c0-1-0.3-1.9-0.8-2.5c-0.5-0.7-1.2-1-2.2-1s-1.6,0.3-2.2,1c-0.5,0.7-0.8,1.5-0.8,2.5c0,1,0.3,1.8,0.8,2.5c0.5,0.7,1.2,1,2.2,1
			s1.6-0.3,2.2-1C22.5,596.4,22.8,595.6,22.8,594.6z"/>
		<path class="st49" d="M28.3,599.2h-1.6v-12.9h1.6V599.2z"/>
		<path class="st49" d="M37.5,589.9h1.6v9.4h-1.6v-1.5c-0.8,1.2-1.9,1.7-3.2,1.7c-1,0-1.8-0.3-2.4-0.9c-0.6-0.6-0.9-1.5-0.9-2.6v-6
			h1.6v5.7c0,1.6,0.7,2.4,2.1,2.4c0.8,0,1.5-0.3,2-0.8s0.8-1.2,0.8-2.1V589.9z"/>
		<path class="st49" d="M46.7,597.6l0.7,1.2c-0.5,0.4-1.2,0.6-2,0.6c-1.1,0-2-0.4-2.4-1.2c-0.3-0.4-0.4-1-0.4-1.9v-5.2h-1.6v-1.3
			h1.6v-2.6H44v2.6h3v1.3h-3v5.2c0,1.1,0.5,1.6,1.4,1.6C45.9,598,46.3,597.9,46.7,597.6z"/>
		<path class="st49" d="M50.6,588H49v-1.7h1.6V588z M50.6,599.2H49v-9.4h1.6V599.2z"/>
		<path class="st49" d="M62,594.6c0,1.4-0.4,2.6-1.3,3.5c-0.8,0.9-2,1.4-3.3,1.4c-1.4,0-2.5-0.5-3.4-1.4s-1.3-2.1-1.3-3.5
			c0-1.4,0.4-2.6,1.3-3.5c0.8-0.9,2-1.4,3.4-1.4c1.4,0,2.5,0.5,3.3,1.4C61.6,591.9,62,593.1,62,594.6z M60.3,594.6
			c0-1-0.3-1.9-0.8-2.5c-0.5-0.7-1.2-1-2.2-1s-1.6,0.3-2.2,1c-0.5,0.7-0.8,1.5-0.8,2.5c0,1,0.3,1.8,0.8,2.5c0.5,0.7,1.2,1,2.2,1
			s1.6-0.3,2.2-1C60,596.4,60.3,595.6,60.3,594.6z"/>
		<path class="st49" d="M65.7,599.2h-1.6v-9.4h1.6v1.5c0.8-1.2,1.9-1.8,3.2-1.8c1,0,1.8,0.3,2.4,0.9s0.9,1.5,0.9,2.6v6h-1.6v-5.7
			c0-1.6-0.7-2.4-2.1-2.4c-0.8,0-1.5,0.3-2,0.8c-0.5,0.5-0.8,1.2-0.8,2.1V599.2z"/>
		<path class="st49" d="M82.1,596.5c0,0.9-0.3,1.6-1,2.2s-1.6,0.8-2.8,0.8c-1.9,0-3.3-0.7-4.1-2l1.2-0.9c0.7,1,1.8,1.5,3.1,1.5
			c0.7,0,1.2-0.1,1.6-0.4s0.6-0.6,0.6-1.1c0-0.4-0.2-0.8-0.5-0.9c-0.4-0.2-1-0.3-2-0.5c-1.1-0.2-1.9-0.5-2.5-0.9
			c-0.6-0.4-0.9-1-0.9-1.8c0-0.9,0.3-1.6,1-2.1c0.7-0.5,1.5-0.7,2.5-0.7c1.5,0,2.8,0.5,3.8,1.6l-1,1c-0.7-0.8-1.6-1.2-2.8-1.2
			c-0.6,0-1,0.1-1.4,0.3c-0.4,0.2-0.6,0.5-0.6,0.9c0,0.2,0,0.3,0.1,0.5c0.1,0.1,0.2,0.3,0.3,0.4c0.1,0.1,0.3,0.2,0.5,0.3
			s0.4,0.1,0.6,0.2c0.2,0,0.4,0.1,0.7,0.1c0.5,0.1,0.8,0.2,1.1,0.2c0.3,0.1,0.6,0.2,1,0.3c0.4,0.1,0.6,0.3,0.8,0.5
			c0.2,0.2,0.4,0.4,0.5,0.7S82.1,596.1,82.1,596.5z"/>
		<path class="st49" d="M86.1,599.2h-1.9v-1.9h1.9V599.2z"/>
	</g>
	<g>
		<rect x="4.8" y="644.3" class="st31" width="178.4" height="26.3"/>
		<path d="M23.2,648.6h-7.3v18.6h-3v-18.6H5.7v-2.8h17.5V648.6z"/>
		<path d="M38.9,658.4c0,0.4,0,0.8-0.1,1.1H25.8c0.1,1.7,0.6,3,1.6,4s2.3,1.5,4,1.5c1.9,0,3.6-0.7,4.9-2.2l1.9,1.8
			c-1.8,1.9-4.1,2.9-6.8,2.9c-2.6,0-4.7-0.8-6.2-2.4c-1.5-1.6-2.3-3.7-2.3-6.2c0-2.5,0.7-4.6,2.2-6.3s3.5-2.5,5.9-2.5
			c2.4,0,4.3,0.8,5.8,2.4C38.2,654,38.9,656,38.9,658.4z M25.9,657.3h10.2c-0.1-1.5-0.7-2.7-1.6-3.6c-0.9-0.8-2.1-1.3-3.5-1.3
			c-1.4,0-2.6,0.4-3.5,1.3S26,655.9,25.9,657.3z"/>
		<path d="M55.4,662.2c0,1.6-0.6,2.9-1.8,3.9s-2.9,1.5-5,1.5c-3.3,0-5.8-1.2-7.4-3.6l2-1.5c1.3,1.8,3.1,2.7,5.5,2.7
			c1.2,0,2.1-0.2,2.8-0.7c0.7-0.5,1.1-1.1,1.1-2c0-0.8-0.3-1.3-1-1.6s-1.8-0.6-3.6-1c-1.9-0.4-3.4-0.9-4.4-1.6
			c-1-0.7-1.5-1.8-1.5-3.3c0-1.6,0.6-2.8,1.8-3.6c1.2-0.8,2.7-1.2,4.4-1.2c2.7,0,5,0.9,6.8,2.8l-1.9,1.8c-1.2-1.4-2.9-2.1-4.9-2.1
			c-1,0-1.8,0.2-2.5,0.6s-1,0.9-1,1.7c0,0.3,0.1,0.6,0.2,0.9c0.2,0.3,0.3,0.5,0.5,0.6c0.2,0.2,0.5,0.3,0.9,0.4
			c0.4,0.1,0.8,0.2,1.1,0.3c0.3,0.1,0.7,0.1,1.3,0.3c0.8,0.2,1.5,0.3,2,0.4c0.5,0.1,1.1,0.3,1.7,0.6s1.1,0.5,1.5,0.9
			c0.4,0.3,0.7,0.7,0.9,1.3C55.3,660.9,55.4,661.5,55.4,662.2z"/>
		<path d="M67.7,664.3l1.2,2.1c-1,0.7-2.2,1.1-3.6,1.1c-2,0-3.5-0.7-4.4-2.1c-0.5-0.7-0.7-1.8-0.7-3.3v-9.3h-2.9v-2.3h2.9v-4.7H63
			v4.7h5.4v2.3H63v9.3c0,1.9,0.9,2.9,2.6,2.9C66.4,665,67.1,664.7,67.7,664.3z"/>
	</g>
	<g>
		<rect x="4.8" y="672.8" class="st31" width="165.8" height="102.2"/>
		<path class="st49" d="M14.6,674.7c0.7,0.7,1.1,1.6,1.1,2.7c0,1.1-0.4,2-1.1,2.7s-1.8,1-3.1,1H8.1v4.6H6.5v-12h5
			C12.8,673.7,13.9,674,14.6,674.7z M8.1,679.6h3.3c0.8,0,1.4-0.2,1.9-0.6c0.4-0.4,0.6-0.9,0.6-1.6c0-0.7-0.2-1.2-0.6-1.6
			c-0.4-0.4-1-0.6-1.9-0.6H8.1V679.6z"/>
		<path class="st49" d="M24,676.3h1.6v9.4H24v-1.5c-0.8,1.2-1.9,1.7-3.2,1.7c-1,0-1.8-0.3-2.4-0.9s-0.9-1.5-0.9-2.6v-6h1.6v5.7
			c0,1.6,0.7,2.4,2.1,2.4c0.8,0,1.5-0.3,2-0.8c0.5-0.5,0.8-1.2,0.8-2.1V676.3z"/>
		<path class="st49" d="M33.2,684.1l0.7,1.2c-0.5,0.4-1.2,0.6-2,0.6c-1.1,0-2-0.4-2.4-1.2c-0.3-0.4-0.4-1-0.4-1.9v-5.2h-1.6v-1.3H29
			v-2.6h1.6v2.6h3v1.3h-3v5.2c0,1.1,0.5,1.6,1.4,1.6C32.4,684.5,32.8,684.3,33.2,684.1z"/>
		<path class="st49" d="M48.3,676.3l-3.7,9.8c-0.4,1-0.8,1.7-1.3,2.2c-0.5,0.5-1.1,0.7-1.9,0.7c-0.7,0-1.4-0.2-1.9-0.6l0.7-1.2
			c0.4,0.2,0.7,0.4,1.1,0.4c0.4,0,0.7-0.1,1-0.4c0.3-0.2,0.5-0.6,0.7-1.1l0.3-0.6l-4-9.3H41l3,7.3l2.6-7.3H48.3z"/>
		<path class="st49" d="M58.5,681c0,1.4-0.4,2.6-1.3,3.5s-2,1.4-3.3,1.4c-1.4,0-2.5-0.5-3.4-1.4s-1.3-2.1-1.3-3.5
			c0-1.4,0.4-2.6,1.3-3.5c0.8-0.9,2-1.4,3.4-1.4c1.4,0,2.5,0.5,3.3,1.4C58.1,678.4,58.5,679.6,58.5,681z M56.8,681
			c0-1-0.3-1.9-0.8-2.5c-0.5-0.7-1.2-1-2.2-1c-0.9,0-1.6,0.3-2.2,1c-0.5,0.7-0.8,1.5-0.8,2.5c0,1,0.3,1.8,0.8,2.5
			c0.5,0.7,1.2,1,2.2,1c0.9,0,1.6-0.3,2.2-1C56.6,682.9,56.8,682,56.8,681z"/>
		<path class="st49" d="M67.1,676.3h1.6v9.4h-1.6v-1.5c-0.8,1.2-1.9,1.7-3.2,1.7c-1,0-1.8-0.3-2.4-0.9s-0.9-1.5-0.9-2.6v-6h1.6v5.7
			c0,1.6,0.7,2.4,2.1,2.4c0.8,0,1.5-0.3,2-0.8c0.5-0.5,0.8-1.2,0.8-2.1V676.3z"/>
		<path class="st49" d="M77,676.5l-0.5,1.5c-0.4-0.2-0.7-0.3-1.1-0.3c-0.7,0-1.2,0.3-1.7,0.8c-0.5,0.6-0.7,1.3-0.7,2.3v4.9h-1.6
			v-9.4H73v1.6c0.7-1.2,1.6-1.8,2.7-1.8C76.2,676.1,76.6,676.2,77,676.5z"/>
		<path class="st49" d="M6.2,697.9h1.6v1.5c0.8-1.2,1.9-1.8,3.3-1.8c1.3,0,2.4,0.5,3.1,1.4s1.2,2.1,1.2,3.5s-0.4,2.6-1.2,3.5
			c-0.8,0.9-1.8,1.4-3.1,1.4c-1.4,0-2.5-0.6-3.3-1.7v4.7H6.2V697.9z M8.6,700.1c-0.5,0.7-0.8,1.5-0.8,2.5c0,1,0.3,1.8,0.8,2.5
			c0.5,0.6,1.3,1,2.2,1c0.9,0,1.7-0.3,2.2-1s0.8-1.5,0.8-2.5c0-1-0.3-1.8-0.8-2.5s-1.2-1-2.2-1C9.9,699.2,9.1,699.5,8.6,700.1z"/>
		<path class="st49" d="M23.2,698.1l-0.5,1.5c-0.4-0.2-0.7-0.3-1.1-0.3c-0.7,0-1.2,0.3-1.7,0.8c-0.5,0.6-0.7,1.3-0.7,2.3v4.9h-1.6
			v-9.4h1.6v1.6c0.7-1.2,1.6-1.8,2.7-1.8C22.4,697.7,22.8,697.8,23.2,698.1z"/>
		<path class="st49" d="M33.1,702.6c0,1.4-0.4,2.6-1.3,3.5s-2,1.4-3.3,1.4c-1.4,0-2.5-0.5-3.4-1.4s-1.3-2.1-1.3-3.5
			c0-1.4,0.4-2.6,1.3-3.5c0.8-0.9,2-1.4,3.4-1.4c1.4,0,2.5,0.5,3.3,1.4C32.7,700,33.1,701.2,33.1,702.6z M31.5,702.6
			c0-1-0.3-1.9-0.8-2.5c-0.5-0.7-1.2-1-2.2-1c-0.9,0-1.6,0.3-2.2,1c-0.5,0.7-0.8,1.5-0.8,2.5c0,1,0.3,1.8,0.8,2.5
			c0.5,0.7,1.2,1,2.2,1c0.9,0,1.6-0.3,2.2-1C31.2,704.5,31.5,703.6,31.5,702.6z"/>
		<path class="st49" d="M40.1,705.7l0.7,1.2c-0.5,0.4-1.2,0.6-2,0.6c-1.1,0-2-0.4-2.4-1.2c-0.3-0.4-0.4-1-0.4-1.9v-5.2h-1.6v-1.3
			h1.6v-2.6h1.6v2.6h3v1.3h-3v5.2c0,1.1,0.5,1.6,1.4,1.6C39.4,706.1,39.8,705.9,40.1,705.7z"/>
		<path class="st49" d="M51,702.6c0,1.4-0.4,2.6-1.3,3.5s-2,1.4-3.3,1.4c-1.4,0-2.5-0.5-3.4-1.4s-1.3-2.1-1.3-3.5
			c0-1.4,0.4-2.6,1.3-3.5c0.8-0.9,2-1.4,3.4-1.4c1.4,0,2.5,0.5,3.3,1.4C50.6,700,51,701.2,51,702.6z M49.4,702.6
			c0-1-0.3-1.9-0.8-2.5c-0.5-0.7-1.2-1-2.2-1c-0.9,0-1.6,0.3-2.2,1c-0.5,0.7-0.8,1.5-0.8,2.5c0,1,0.3,1.8,0.8,2.5
			c0.5,0.7,1.2,1,2.2,1c0.9,0,1.6-0.3,2.2-1C49.1,704.5,49.4,703.6,49.4,702.6z"/>
		<path class="st49" d="M58,705.7l0.7,1.2c-0.5,0.4-1.2,0.6-2,0.6c-1.1,0-2-0.4-2.4-1.2c-0.3-0.4-0.4-1-0.4-1.9v-5.2h-1.6v-1.3h1.6
			v-2.6h1.6v2.6h3v1.3h-3v5.2c0,1.1,0.5,1.6,1.4,1.6C57.3,706.1,57.7,705.9,58,705.7z"/>
		<path class="st49" d="M68.3,697.9l-3.7,9.8c-0.4,1-0.8,1.7-1.3,2.2c-0.5,0.5-1.1,0.7-1.9,0.7c-0.7,0-1.4-0.2-1.9-0.6l0.7-1.2
			c0.4,0.2,0.7,0.4,1.1,0.4c0.4,0,0.7-0.1,1-0.4c0.3-0.2,0.5-0.6,0.7-1.1l0.3-0.6l-4-9.3H61l3,7.3l2.6-7.3H68.3z"/>
		<path class="st49" d="M70,697.9h1.6v1.5c0.8-1.2,1.9-1.8,3.3-1.8c1.3,0,2.4,0.5,3.1,1.4s1.2,2.1,1.2,3.5s-0.4,2.6-1.2,3.5
			c-0.8,0.9-1.8,1.4-3.1,1.4c-1.4,0-2.5-0.6-3.3-1.7v4.7H70V697.9z M72.3,700.1c-0.5,0.7-0.8,1.5-0.8,2.5c0,1,0.3,1.8,0.8,2.5
			c0.5,0.6,1.3,1,2.2,1c0.9,0,1.7-0.3,2.2-1s0.8-1.5,0.8-2.5c0-1-0.3-1.8-0.8-2.5s-1.2-1-2.2-1C73.6,699.2,72.8,699.5,72.3,700.1z"
			/>
		<path class="st49" d="M89.8,702.4c0,0.2,0,0.4,0,0.6h-7.3c0,1,0.4,1.7,0.9,2.3c0.6,0.5,1.3,0.8,2.2,0.8c1.1,0,2-0.4,2.8-1.2l1,1
			c-1,1.1-2.3,1.6-3.9,1.6c-1.5,0-2.7-0.5-3.5-1.4c-0.9-0.9-1.3-2.1-1.3-3.5c0-1.4,0.4-2.6,1.3-3.5c0.8-0.9,1.9-1.4,3.3-1.4
			c1.3,0,2.4,0.4,3.2,1.3C89.4,699.9,89.8,701,89.8,702.4z M82.4,701.8h5.7c-0.1-0.9-0.4-1.5-0.9-2c-0.5-0.5-1.2-0.7-1.9-0.7
			c-0.8,0-1.5,0.3-2,0.8C82.8,700.3,82.5,701,82.4,701.8z"/>
		<path class="st49" d="M99,704.5c0,0.9-0.3,1.6-1,2.2c-0.7,0.5-1.6,0.8-2.8,0.8c-1.9,0-3.3-0.7-4.1-2l1.2-0.9
			c0.7,1,1.8,1.5,3.1,1.5c0.7,0,1.2-0.1,1.6-0.4c0.4-0.3,0.6-0.6,0.6-1.1c0-0.4-0.2-0.8-0.5-0.9c-0.4-0.2-1-0.3-2-0.5
			c-1.1-0.2-1.9-0.5-2.5-0.9s-0.9-1-0.9-1.8c0-0.9,0.3-1.6,1-2.1c0.7-0.5,1.5-0.7,2.5-0.7c1.5,0,2.8,0.5,3.8,1.6l-1,1
			c-0.7-0.8-1.6-1.2-2.8-1.2c-0.6,0-1,0.1-1.4,0.3c-0.4,0.2-0.6,0.5-0.6,0.9c0,0.2,0,0.3,0.1,0.5s0.2,0.3,0.3,0.4s0.3,0.2,0.5,0.3
			s0.4,0.1,0.6,0.2c0.2,0,0.4,0.1,0.7,0.1c0.5,0.1,0.8,0.2,1.1,0.2c0.3,0.1,0.6,0.2,1,0.3c0.4,0.1,0.6,0.3,0.8,0.5
			c0.2,0.2,0.4,0.4,0.5,0.7C99,703.8,99,704.1,99,704.5z"/>
		<path class="st49" d="M7.8,717.7H6.2V716h1.6V717.7z M7.8,728.9H6.2v-9.4h1.6V728.9z"/>
		<path class="st49" d="M12.2,728.9h-1.6v-9.4h1.6v1.5c0.8-1.2,1.9-1.8,3.2-1.8c1,0,1.8,0.3,2.4,0.9c0.6,0.6,0.9,1.5,0.9,2.6v6h-1.6
			v-5.7c0-1.6-0.7-2.4-2.1-2.4c-0.8,0-1.5,0.3-2,0.8c-0.5,0.5-0.8,1.2-0.8,2.1V728.9z"/>
		<path class="st49" d="M31.1,716l-0.2,1.3c-0.4-0.1-0.8-0.2-1.1-0.2c-0.4,0-0.8,0.1-1,0.3c-0.2,0.2-0.3,0.5-0.3,0.9v1.1h2.2v1.3
			h-2.2v8.1h-1.6v-8.1h-1.6v-1.3h1.6v-1.1c0-0.9,0.2-1.5,0.7-1.9c0.5-0.4,1.2-0.7,2.1-0.7C30.3,715.8,30.7,715.9,31.1,716z"/>
		<path class="st49" d="M38.1,719.7l-0.5,1.5c-0.4-0.2-0.7-0.3-1.1-0.3c-0.7,0-1.2,0.3-1.7,0.8c-0.5,0.6-0.7,1.3-0.7,2.3v4.9h-1.6
			v-9.4h1.6v1.6c0.7-1.2,1.6-1.8,2.7-1.8C37.3,719.3,37.7,719.4,38.1,719.7z"/>
		<path class="st49" d="M48,724.2c0,1.4-0.4,2.6-1.3,3.5s-2,1.4-3.3,1.4c-1.4,0-2.5-0.5-3.4-1.4s-1.3-2.1-1.3-3.5
			c0-1.4,0.4-2.6,1.3-3.5c0.8-0.9,2-1.4,3.4-1.4c1.4,0,2.5,0.5,3.3,1.4C47.6,721.6,48,722.8,48,724.2z M46.4,724.2
			c0-1-0.3-1.9-0.8-2.5c-0.5-0.7-1.2-1-2.2-1c-0.9,0-1.6,0.3-2.2,1c-0.5,0.7-0.8,1.5-0.8,2.5c0,1,0.3,1.8,0.8,2.5
			c0.5,0.7,1.2,1,2.2,1c0.9,0,1.6-0.3,2.2-1C46.1,726,46.4,725.2,46.4,724.2z"/>
		<path class="st49" d="M51.8,728.9h-1.6v-9.4h1.6v1.5c0.8-1.2,1.9-1.8,3.2-1.8c1,0,1.8,0.3,2.4,0.9c0.6,0.6,0.9,1.5,0.9,2.6v6h-1.6
			v-5.7c0-1.6-0.7-2.4-2.1-2.4c-0.8,0-1.5,0.3-2,0.8c-0.5,0.5-0.8,1.2-0.8,2.1V728.9z"/>
		<path class="st49" d="M65.7,727.3l0.7,1.2c-0.5,0.4-1.2,0.6-2,0.6c-1.1,0-2-0.4-2.4-1.2c-0.3-0.4-0.4-1-0.4-1.9v-5.2h-1.6v-1.3
			h1.6v-2.6h1.6v2.6h3v1.3h-3v5.2c0,1.1,0.5,1.6,1.4,1.6C65,727.7,65.4,727.5,65.7,727.3z"/>
		<path class="st49" d="M14.8,745.8c0,1.4-0.4,2.6-1.3,3.5s-2,1.4-3.3,1.4c-1.4,0-2.5-0.5-3.4-1.4s-1.3-2.1-1.3-3.5
			c0-1.4,0.4-2.6,1.3-3.5s2-1.4,3.4-1.4c1.4,0,2.5,0.5,3.3,1.4S14.8,744.4,14.8,745.8z M13.2,745.8c0-1-0.3-1.9-0.8-2.5
			c-0.5-0.7-1.2-1-2.2-1c-0.9,0-1.6,0.3-2.2,1c-0.5,0.7-0.8,1.5-0.8,2.5c0,1,0.3,1.8,0.8,2.5c0.5,0.7,1.2,1,2.2,1
			c0.9,0,1.6-0.3,2.2-1C12.9,747.7,13.2,746.8,13.2,745.8z"/>
		<path class="st49" d="M21.9,737.6l-0.2,1.3c-0.4-0.1-0.8-0.2-1.1-0.2c-0.4,0-0.8,0.1-1,0.3c-0.2,0.2-0.3,0.5-0.3,0.9v1.1h2.2v1.3
			h-2.2v8.1h-1.6v-8.1h-1.6v-1.3h1.6V740c0-0.9,0.2-1.5,0.7-1.9s1.2-0.7,2.1-0.7C21.1,737.4,21.6,737.5,21.9,737.6z"/>
		<path class="st49" d="M34.6,741.1h1.6v9.4h-1.6v-1.5c-0.8,1.2-1.9,1.7-3.2,1.7c-1,0-1.8-0.3-2.4-0.9c-0.6-0.6-0.9-1.5-0.9-2.6v-6
			h1.6v5.7c0,1.6,0.7,2.4,2.1,2.4c0.8,0,1.5-0.3,2-0.8c0.5-0.5,0.8-1.2,0.8-2.1V741.1z"/>
		<path class="st49" d="M46.1,747.7c0,0.9-0.3,1.6-1,2.2c-0.7,0.5-1.6,0.8-2.8,0.8c-1.9,0-3.3-0.7-4.1-2l1.2-0.9
			c0.7,1,1.8,1.5,3.1,1.5c0.7,0,1.2-0.1,1.6-0.4c0.4-0.3,0.6-0.6,0.6-1.1c0-0.4-0.2-0.8-0.5-0.9c-0.4-0.2-1-0.3-2-0.5
			c-1.1-0.2-1.9-0.5-2.5-0.9c-0.6-0.4-0.9-1-0.9-1.8c0-0.9,0.3-1.6,1-2.1c0.7-0.5,1.5-0.7,2.5-0.7c1.5,0,2.8,0.5,3.8,1.6l-1,1
			c-0.7-0.8-1.6-1.2-2.8-1.2c-0.6,0-1,0.1-1.4,0.3c-0.4,0.2-0.6,0.5-0.6,0.9c0,0.2,0,0.3,0.1,0.5s0.2,0.3,0.3,0.4
			c0.1,0.1,0.3,0.2,0.5,0.3s0.4,0.1,0.6,0.2c0.2,0,0.4,0.1,0.7,0.1c0.5,0.1,0.8,0.2,1.1,0.2s0.6,0.2,1,0.3c0.4,0.1,0.6,0.3,0.8,0.5
			c0.2,0.2,0.4,0.4,0.5,0.7C46,747,46.1,747.3,46.1,747.7z"/>
		<path class="st49" d="M56.7,745.6c0,0.2,0,0.4,0,0.6h-7.3c0,1,0.4,1.7,0.9,2.3c0.6,0.5,1.3,0.8,2.2,0.8c1.1,0,2-0.4,2.8-1.2l1,1
			c-1,1.1-2.3,1.6-3.9,1.6c-1.5,0-2.7-0.5-3.5-1.4c-0.9-0.9-1.3-2.1-1.3-3.5c0-1.4,0.4-2.6,1.3-3.5c0.8-0.9,1.9-1.4,3.3-1.4
			c1.3,0,2.4,0.4,3.2,1.3C56.3,743.1,56.7,744.2,56.7,745.6z M49.4,745h5.7c-0.1-0.9-0.4-1.5-0.9-2c-0.5-0.5-1.2-0.7-1.9-0.7
			c-0.8,0-1.5,0.3-2,0.8S49.4,744.2,49.4,745z"/>
		<path class="st49" d="M64.4,741.3l-0.5,1.5c-0.4-0.2-0.7-0.3-1.1-0.3c-0.7,0-1.2,0.3-1.7,0.8c-0.5,0.6-0.7,1.3-0.7,2.3v4.9h-1.6
			v-9.4h1.6v1.6c0.7-1.2,1.6-1.8,2.7-1.8C63.6,740.9,64,741,64.4,741.3z"/>
		<path class="st49" d="M73,747.7c0,0.9-0.3,1.6-1,2.2c-0.7,0.5-1.6,0.8-2.8,0.8c-1.9,0-3.3-0.7-4.1-2l1.2-0.9
			c0.7,1,1.8,1.5,3.1,1.5c0.7,0,1.2-0.1,1.6-0.4c0.4-0.3,0.6-0.6,0.6-1.1c0-0.4-0.2-0.8-0.5-0.9c-0.4-0.2-1-0.3-2-0.5
			c-1.1-0.2-1.9-0.5-2.5-0.9c-0.6-0.4-0.9-1-0.9-1.8c0-0.9,0.3-1.6,1-2.1c0.7-0.5,1.5-0.7,2.5-0.7c1.5,0,2.8,0.5,3.8,1.6l-1,1
			c-0.7-0.8-1.6-1.2-2.8-1.2c-0.6,0-1,0.1-1.4,0.3c-0.4,0.2-0.6,0.5-0.6,0.9c0,0.2,0,0.3,0.1,0.5s0.2,0.3,0.3,0.4
			c0.1,0.1,0.3,0.2,0.5,0.3s0.4,0.1,0.6,0.2c0.2,0,0.4,0.1,0.7,0.1c0.5,0.1,0.8,0.2,1.1,0.2s0.6,0.2,1,0.3c0.4,0.1,0.6,0.3,0.8,0.5
			c0.2,0.2,0.4,0.4,0.5,0.7C73,747,73,747.3,73,747.7z"/>
		<path class="st49" d="M11.1,759.2l-0.2,1.3c-0.4-0.1-0.8-0.2-1.1-0.2c-0.4,0-0.8,0.1-1,0.3c-0.2,0.2-0.3,0.5-0.3,0.9v1.1h2.2v1.3
			H8.5v8.1H6.9V764H5.3v-1.3h1.6v-1.1c0-0.9,0.2-1.5,0.7-1.9c0.5-0.4,1.2-0.7,2.1-0.7C10.3,759,10.8,759.1,11.1,759.2z"/>
		<path class="st49" d="M21,767.4c0,1.4-0.4,2.6-1.3,3.5s-2,1.4-3.3,1.4c-1.4,0-2.5-0.5-3.4-1.4s-1.3-2.1-1.3-3.5
			c0-1.4,0.4-2.6,1.3-3.5s2-1.4,3.4-1.4c1.4,0,2.5,0.5,3.3,1.4S21,766,21,767.4z M19.4,767.4c0-1-0.3-1.9-0.8-2.5
			c-0.5-0.7-1.2-1-2.2-1c-0.9,0-1.6,0.3-2.2,1c-0.5,0.7-0.8,1.5-0.8,2.5c0,1,0.3,1.8,0.8,2.5c0.5,0.7,1.2,1,2.2,1
			c0.9,0,1.6-0.3,2.2-1C19.1,769.3,19.4,768.4,19.4,767.4z"/>
		<path class="st49" d="M28.8,762.9l-0.5,1.5c-0.4-0.2-0.7-0.3-1.1-0.3c-0.7,0-1.2,0.3-1.7,0.8c-0.5,0.6-0.7,1.3-0.7,2.3v4.9h-1.6
			v-9.4h1.6v1.6c0.7-1.2,1.6-1.8,2.7-1.8C28,762.5,28.4,762.6,28.8,762.9z"/>
		<path class="st49" d="M40,759.2l-0.2,1.3c-0.4-0.1-0.8-0.2-1.1-0.2c-0.4,0-0.8,0.1-1,0.3c-0.2,0.2-0.3,0.5-0.3,0.9v1.1h2.2v1.3
			h-2.2v8.1h-1.6V764h-1.6v-1.3h1.6v-1.1c0-0.9,0.2-1.5,0.7-1.9c0.5-0.4,1.2-0.7,2.1-0.7C39.2,759,39.7,759.1,40,759.2z"/>
		<path class="st49" d="M49.8,767.2c0,0.2,0,0.4,0,0.6h-7.3c0,1,0.4,1.7,0.9,2.3c0.6,0.5,1.3,0.8,2.2,0.8c1.1,0,2-0.4,2.8-1.2l1,1
			c-1,1.1-2.3,1.6-3.9,1.6c-1.5,0-2.7-0.5-3.5-1.4c-0.9-0.9-1.3-2.1-1.3-3.5c0-1.4,0.4-2.6,1.3-3.5s1.9-1.4,3.3-1.4
			c1.3,0,2.4,0.4,3.2,1.3C49.4,764.7,49.8,765.8,49.8,767.2z M42.5,766.6h5.7c-0.1-0.9-0.4-1.5-0.9-2c-0.5-0.5-1.2-0.7-1.9-0.7
			c-0.8,0-1.5,0.3-2,0.8C42.8,765.1,42.5,765.8,42.5,766.6z"/>
		<path class="st49" d="M60.3,767.2c0,0.2,0,0.4,0,0.6H53c0,1,0.4,1.7,0.9,2.3c0.6,0.5,1.3,0.8,2.2,0.8c1.1,0,2-0.4,2.8-1.2l1,1
			c-1,1.1-2.3,1.6-3.9,1.6c-1.5,0-2.7-0.5-3.5-1.4c-0.9-0.9-1.3-2.1-1.3-3.5c0-1.4,0.4-2.6,1.3-3.5s1.9-1.4,3.3-1.4
			c1.3,0,2.4,0.4,3.2,1.3C59.9,764.7,60.3,765.8,60.3,767.2z M53,766.6h5.7c-0.1-0.9-0.4-1.5-0.9-2c-0.5-0.5-1.2-0.7-1.9-0.7
			c-0.8,0-1.5,0.3-2,0.8C53.4,765.1,53.1,765.8,53,766.6z"/>
		<path class="st49" d="M71.1,772.1h-1.6v-1.5c-0.8,1.2-1.9,1.7-3.3,1.7c-1.3,0-2.4-0.5-3.1-1.4c-0.8-0.9-1.2-2.1-1.2-3.5
			c0-1.4,0.4-2.6,1.2-3.5c0.8-0.9,1.8-1.4,3.1-1.4c1.4,0,2.5,0.6,3.3,1.8v-5h1.6V772.1z M68.7,769.9c0.5-0.7,0.8-1.5,0.8-2.5
			s-0.3-1.8-0.8-2.5c-0.5-0.6-1.3-1-2.2-1c-0.9,0-1.7,0.3-2.2,1c-0.5,0.6-0.8,1.5-0.8,2.5s0.3,1.8,0.8,2.5c0.5,0.6,1.2,1,2.2,1
			C67.4,770.8,68.2,770.5,68.7,769.9z"/>
		<path class="st49" d="M73.9,759.2h1.6v5c0.8-1.2,1.9-1.8,3.3-1.8c1.3,0,2.4,0.5,3.1,1.4s1.2,2.1,1.2,3.5s-0.4,2.6-1.2,3.5
			s-1.8,1.4-3.1,1.4c-1.4,0-2.5-0.6-3.3-1.7v1.5h-1.6V759.2z M76.2,764.9c-0.5,0.7-0.8,1.5-0.8,2.5s0.3,1.8,0.8,2.5
			c0.5,0.6,1.3,1,2.2,1c0.9,0,1.7-0.3,2.2-1c0.5-0.6,0.8-1.5,0.8-2.5s-0.3-1.8-0.8-2.5c-0.5-0.6-1.2-1-2.2-1
			C77.5,764,76.7,764.3,76.2,764.9z"/>
		<path class="st49" d="M93.6,770.8l0.2,1.2c-0.3,0.1-0.6,0.2-1.1,0.2c-0.5,0-0.9-0.1-1.2-0.4s-0.5-0.6-0.6-1.1
			c-0.7,1-1.8,1.6-3.2,1.6c-1,0-1.7-0.3-2.3-0.8s-0.9-1.2-0.9-2.1c0-0.4,0.1-0.8,0.2-1.1c0.1-0.3,0.3-0.6,0.5-0.8s0.5-0.3,0.8-0.5
			s0.6-0.2,0.8-0.3c0.3-0.1,0.5-0.1,0.9-0.2c0.1,0,0.3,0,0.6-0.1c0.3,0,0.5-0.1,0.6-0.1c0.1,0,0.3-0.1,0.5-0.1
			c0.2,0,0.4-0.1,0.5-0.2s0.2-0.1,0.4-0.2s0.2-0.2,0.3-0.3c0.1-0.1,0.1-0.3,0.1-0.4c0-0.5-0.2-0.8-0.6-1s-0.9-0.3-1.5-0.3
			c-1.1,0-2,0.3-2.9,1l-0.7-1.2c1.2-0.8,2.4-1.2,3.7-1.2c1.1,0,2,0.3,2.6,0.8c0.6,0.5,1,1.3,1,2.3v4.4c0,0.7,0.2,1,0.7,1
			C93.3,771,93.5,770.9,93.6,770.8z M90.8,768.5v-1.6c-0.1,0.2-0.2,0.3-0.4,0.4c-0.1,0.1-0.3,0.2-0.5,0.2c-0.2,0.1-0.4,0.1-0.5,0.1
			c-0.1,0-0.3,0.1-0.6,0.1c-0.3,0-0.5,0.1-0.6,0.1c-0.6,0.1-1.1,0.3-1.5,0.5c-0.3,0.2-0.5,0.6-0.5,1.1c0,0.5,0.2,0.9,0.5,1.2
			c0.4,0.3,0.8,0.4,1.4,0.4c0.8,0,1.4-0.2,1.9-0.6C90.5,769.9,90.8,769.3,90.8,768.5z"/>
		<path class="st49" d="M102,769.5l1.2,0.9c-0.9,1.3-2.2,2-3.8,2c-1.4,0-2.5-0.5-3.3-1.4s-1.2-2.1-1.2-3.5s0.4-2.6,1.2-3.5
			s1.9-1.4,3.3-1.4c1.6,0,2.8,0.6,3.7,1.9l-1.2,0.9c-0.6-1-1.4-1.5-2.5-1.5c-0.9,0-1.6,0.3-2.1,1c-0.5,0.7-0.8,1.5-0.8,2.5
			s0.3,1.8,0.8,2.5c0.5,0.7,1.2,1,2.1,1C100.5,770.9,101.3,770.4,102,769.5z"/>
		<path class="st49" d="M106.7,767.6l4.7-4.8h2l-3.8,3.8l4.3,5.5h-2l-3.4-4.5l-1.8,1.8v2.7h-1.6v-12.9h1.6V767.6z"/>
		<path class="st49" d="M117.2,772.1h-1.9v-1.9h1.9V772.1z"/>
	</g>
	<g>
		<g>
			<path class="st52" d="M317.6,387.2h5.6c8.7,0,15.8,7.2,15.8,16v290.4c0,8.9-7.2,16.2-16,16.2h-7.5"/>
			<g>
				<polygon class="st51" points="324.2,395.3 325.6,393.9 318.3,387.2 325.6,380.4 324.2,379 315.4,387.2 				"/>
			</g>
		</g>
	</g>
	<g>
		<g>
			<path class="st52" d="M317.6,70.6h17.2c8.7,0,15.8,7.2,15.8,16v607c0,8.9-7.2,16.2-13.7,16.2h-19.1"/>
			<g>
				<polygon class="st51" points="324.2,78.7 325.6,77.3 318.3,70.6 325.6,63.8 324.2,62.4 315.4,70.6 				"/>
			</g>
		</g>
	</g>
	<g>
		<g>
			<path class="st52" d="M315.8,709.7h13c8.7,0,15.8-7.2,15.8-16V246.4c0-8.9-7.2-16.2-16-16.2H318"/>
			<g>
				<polygon class="st51" points="324.6,222 326,223.5 318.7,230.2 326,236.9 324.6,238.4 315.8,230.2 				"/>
			</g>
		</g>
	</g>
	<g>
		<g>
			<path class="st52" d="M317.3,387.4h0.6c8.7,0,14.7,7.1,14.7,15.8v130.2c0,8.8-7.2,16-16,16h-1.4"/>
			<g>
				<polygon class="st51" points="323.1,396.4 324.6,395.1 318,387.7 325.9,381.7 324.6,380.1 315.1,387.4 				"/>
			</g>
		</g>
	</g>
</g>
<g id="Layer_2">
</g>
<g id="Layer_3">
</g>
</svg>
