<svg id="Diagrams" xmlns="http://www.w3.org/2000/svg" viewBox="0 0 1200 559.53"><defs><style>.cls-1,.cls-10,.cls-5,.cls-9{isolation:isolate;}.cls-10,.cls-2,.cls-5{fill:#f6f6f6;}.cls-11,.cls-3,.cls-4,.cls-7,.cls-9{fill:none;}.cls-3,.cls-4,.cls-5,.cls-9{stroke:#808285;}.cls-10,.cls-3,.cls-4,.cls-5,.cls-9{stroke-linecap:round;}.cls-10,.cls-11,.cls-3,.cls-4,.cls-5,.cls-7,.cls-9{stroke-miterlimit:10;}.cls-3,.cls-4,.cls-5,.cls-7{stroke-width:2px;}.cls-4{stroke-dasharray:3.02 5.03;}.cls-5,.cls-9{stroke-dasharray:3 5;}.cls-6{fill:#58595b;}.cls-7{stroke:#939598;}.cls-8{fill:#939598;}.cls-10{stroke:#231f20;stroke-width:3px;}.cls-11{stroke:#58595b;}.cls-12{fill:#231f20;}</style></defs><title>Design_M_NEWWHITE</title><g class="cls-1"><rect class="cls-2" x="134.21" y="87.33" width="386.04" height="386.04" transform="translate(-102.39 313.5) rotate(-45)"/><polyline class="cls-3" points="328.3 552.27 327.24 553.33 326.17 552.27"/><line class="cls-4" x1="322.62" y1="548.71" x2="57.1" y2="283.19"/><polyline class="cls-3" points="55.32 281.41 54.26 280.35 55.32 279.29"/><line class="cls-4" x1="58.88" y1="275.74" x2="324.4" y2="10.22"/><polyline class="cls-3" points="326.17 8.44 327.24 7.38 328.3 8.44"/><line class="cls-4" x1="331.85" y1="11.99" x2="597.37" y2="277.51"/><polyline class="cls-3" points="599.15 279.29 600.21 280.35 599.15 281.41"/><line class="cls-4" x1="595.59" y1="284.97" x2="330.07" y2="550.49"/></g><g class="cls-1"><rect class="cls-2" x="679.93" y="87.33" width="386.04" height="386.04" transform="translate(57.44 699.39) rotate(-45)"/><polyline class="cls-3" points="874.02 552.27 872.96 553.33 871.89 552.27"/><line class="cls-4" x1="868.34" y1="548.71" x2="602.82" y2="283.19"/><polyline class="cls-3" points="601.04 281.41 599.98 280.35 601.04 279.29"/><line class="cls-4" x1="604.6" y1="275.74" x2="870.12" y2="10.22"/><polyline class="cls-3" points="871.89 8.44 872.96 7.38 874.02 8.44"/><line class="cls-4" x1="877.57" y1="11.99" x2="1143.09" y2="277.51"/><polyline class="cls-3" points="1144.87 279.29 1145.93 280.35 1144.87 281.41"/><line class="cls-4" x1="1141.31" y1="284.97" x2="875.79" y2="550.49"/></g><line class="cls-5" x1="327.24" y1="8.82" x2="327.24" y2="552.81"/><line class="cls-5" x1="872.96" y1="8.82" x2="872.96" y2="552.81"/><path d="M175,258.23h-6.19v-16H175a7.4,7.4,0,0,1,5.69,2.23,9.08,9.08,0,0,1,0,11.52A7.37,7.37,0,0,1,175,258.23Zm-3.91-2.07H175a5.06,5.06,0,0,0,4-1.59,7.41,7.41,0,0,0,0-8.67,5.06,5.06,0,0,0-4-1.59h-3.91Z"/><path d="M187.85,243.3h-2.09v-2.21h2.09Zm0,14.93h-2.09V245.75h2.09Z"/><path d="M201.12,254.53a3.52,3.52,0,0,1-1.37,2.89,5.82,5.82,0,0,1-3.74,1.09,6.12,6.12,0,0,1-5.52-2.66L192,254.7a4.8,4.8,0,0,0,4.11,2,3.85,3.85,0,0,0,2.11-.51,1.69,1.69,0,0,0,.79-1.5,1.25,1.25,0,0,0-.72-1.23,13.91,13.91,0,0,0-2.71-.72,9.1,9.1,0,0,1-3.31-1.17,2.72,2.72,0,0,1-1.15-2.45,3.13,3.13,0,0,1,1.35-2.74,5.75,5.75,0,0,1,3.33-.93,6.68,6.68,0,0,1,5.06,2.09l-1.39,1.32a4.63,4.63,0,0,0-3.7-1.61,3.86,3.86,0,0,0-1.87.42,1.36,1.36,0,0,0-.77,1.26,1.22,1.22,0,0,0,.18.65,1.85,1.85,0,0,0,.41.46,2.23,2.23,0,0,0,.71.34c.32.1.59.18.83.23l1,.19c.61.11,1.1.22,1.49.31a11.42,11.42,0,0,1,1.29.43,4,4,0,0,1,1.12.65,3.1,3.1,0,0,1,.68,1A3.17,3.17,0,0,1,201.12,254.53Z"/><path d="M212.69,254.75l1.61,1.15a5.82,5.82,0,0,1-5,2.61,5.63,5.63,0,0,1-4.4-1.84,7.46,7.46,0,0,1,0-9.36,5.6,5.6,0,0,1,4.4-1.85,5.71,5.71,0,0,1,5,2.59l-1.56,1.25a3.73,3.73,0,0,0-3.33-2,3.51,3.51,0,0,0-2.85,1.31,5.74,5.74,0,0,0,0,6.65,3.49,3.49,0,0,0,2.82,1.31A3.89,3.89,0,0,0,212.69,254.75Z"/><path d="M228.22,252a6.65,6.65,0,0,1-1.68,4.68,6.4,6.4,0,0,1-8.94,0,6.64,6.64,0,0,1-1.67-4.68,6.73,6.73,0,0,1,1.67-4.72,6.37,6.37,0,0,1,8.94,0A6.73,6.73,0,0,1,228.22,252ZM226,252a5.18,5.18,0,0,0-1-3.35,3.48,3.48,0,0,0-2.87-1.31,3.53,3.53,0,0,0-2.88,1.31,5.82,5.82,0,0,0,0,6.67,3.5,3.5,0,0,0,2.88,1.31,3.45,3.45,0,0,0,2.87-1.31A5.13,5.13,0,0,0,226,252Z"/><path d="M241.66,245.75l-5,12.48h-2.18l-5-12.48h2.35l3.77,10,3.77-10Z"/><path d="M255,251.67a6.2,6.2,0,0,1-.05.82h-9.79a4.3,4.3,0,0,0,1.22,3,4.11,4.11,0,0,0,3,1.09,4.84,4.84,0,0,0,3.7-1.63l1.39,1.37a6.71,6.71,0,0,1-5.14,2.18,6.12,6.12,0,0,1-4.68-1.81,6.56,6.56,0,0,1-1.7-4.67,6.78,6.78,0,0,1,1.67-4.7,6.19,6.19,0,0,1,8.77-.1A6.32,6.32,0,0,1,255,251.67Zm-9.79-.79h7.63a4,4,0,0,0-1.22-2.67,3.72,3.72,0,0,0-2.6-1,3.64,3.64,0,0,0-2.65,1A3.91,3.91,0,0,0,245.21,250.88Z"/><path d="M265.22,246l-.67,2a3.1,3.1,0,0,0-1.44-.38,2.89,2.89,0,0,0-2.27,1.12,4.52,4.52,0,0,0-.94,3v6.51h-2.09V245.75h2.09v2.11a4.22,4.22,0,0,1,3.62-2.35A3.05,3.05,0,0,1,265.22,246Z"/><path d="M408.53,258.23h-6.19v-16h6.19a7.38,7.38,0,0,1,5.69,2.23,9,9,0,0,1,0,11.52A7.35,7.35,0,0,1,408.53,258.23Zm-3.91-2.07h3.91a5.06,5.06,0,0,0,4-1.59,7.41,7.41,0,0,0,0-8.67,5.06,5.06,0,0,0-4-1.59h-3.91Z"/><path d="M430.59,251.67a6.2,6.2,0,0,1,0,.82h-9.79a4.3,4.3,0,0,0,1.22,3,4.1,4.1,0,0,0,3,1.09,4.84,4.84,0,0,0,3.7-1.63l1.39,1.37a6.71,6.71,0,0,1-5.14,2.18,6.12,6.12,0,0,1-4.68-1.81,6.52,6.52,0,0,1-1.7-4.67,6.78,6.78,0,0,1,1.67-4.7,6.19,6.19,0,0,1,8.77-.1A6.32,6.32,0,0,1,430.59,251.67Zm-9.79-.79h7.63a4,4,0,0,0-1.22-2.67,3.72,3.72,0,0,0-2.6-1,3.64,3.64,0,0,0-2.65,1A3.91,3.91,0,0,0,420.8,250.88Z"/><path d="M439.9,241.09l-.29,1.73a6,6,0,0,0-1.51-.22,2,2,0,0,0-1.32.37,1.59,1.59,0,0,0-.43,1.26v1.52h2.93v1.72h-2.93v10.76h-2.09V247.47h-2.13v-1.72h2.13v-1.47a3.28,3.28,0,0,1,1-2.58,4,4,0,0,1,2.73-.87A5.62,5.62,0,0,1,439.9,241.09Zm3.65,2.21h-2.09v-2.21h2.09Zm0,14.93h-2.09V245.75h2.09Z"/><path d="M449.38,258.23h-2.09V245.75h2.09v2.06a4.94,4.94,0,0,1,4.27-2.35,4.17,4.17,0,0,1,3.2,1.25,4.88,4.88,0,0,1,1.17,3.48v8h-2.09v-7.56c0-2.16-.92-3.24-2.78-3.24a3.63,3.63,0,0,0-2.7,1.08,3.82,3.82,0,0,0-1.07,2.8Z"/><path d="M472.88,251.67a6.2,6.2,0,0,1-.05.82H463a4.3,4.3,0,0,0,1.22,3,4.08,4.08,0,0,0,3,1.09,4.84,4.84,0,0,0,3.69-1.63l1.4,1.37a6.74,6.74,0,0,1-5.14,2.18,6.09,6.09,0,0,1-4.68-1.81,6.52,6.52,0,0,1-1.7-4.67,6.82,6.82,0,0,1,1.66-4.7,6.21,6.21,0,0,1,8.78-.1A6.37,6.37,0,0,1,472.88,251.67Zm-9.8-.79h7.64a4,4,0,0,0-1.23-2.67,3.7,3.7,0,0,0-2.59-1,3.62,3.62,0,0,0-2.65,1A3.87,3.87,0,0,0,463.08,250.88Z"/><path d="M733.6,258.23H722v-16h11.33v2.07h-9.07v4.51h7.9v1.94h-7.9v5.4h9.31Z"/><path d="M747.28,258.23h-2.54l-3.55-5-3.56,5h-2.54l4.82-6.51-4.39-6H738l3.22,4.58,3.17-4.58h2.47l-4.37,6Z"/><path d="M749.54,245.75h2.09v2.06a5.1,5.1,0,0,1,4.44-2.35,5.16,5.16,0,0,1,4.17,1.85,7.78,7.78,0,0,1,0,9.36,5.2,5.2,0,0,1-4.16,1.84,5.12,5.12,0,0,1-4.44-2.32v6.21h-2.09Zm3.14,3a5.1,5.1,0,0,0-1,3.3,5,5,0,0,0,1.06,3.29,3.65,3.65,0,0,0,3,1.29,3.45,3.45,0,0,0,2.9-1.28,5.91,5.91,0,0,0,0-6.61,3.44,3.44,0,0,0-2.9-1.3A3.63,3.63,0,0,0,752.68,248.71Z"/><path d="M766.89,258.23H764.8V241.09h2.09Z"/><path d="M782.18,252a6.65,6.65,0,0,1-1.68,4.68,6.4,6.4,0,0,1-8.94,0,6.69,6.69,0,0,1-1.67-4.68,6.77,6.77,0,0,1,1.67-4.72,6.37,6.37,0,0,1,8.94,0A6.73,6.73,0,0,1,782.18,252ZM780,252a5.18,5.18,0,0,0-1.05-3.35,3.47,3.47,0,0,0-2.87-1.31,3.53,3.53,0,0,0-2.88,1.31,5.82,5.82,0,0,0,0,6.67,3.5,3.5,0,0,0,2.88,1.31,3.44,3.44,0,0,0,2.87-1.31A5.13,5.13,0,0,0,780,252Z"/><path d="M792.52,246l-.67,2a3.1,3.1,0,0,0-1.44-.38,2.87,2.87,0,0,0-2.27,1.12,4.53,4.53,0,0,0-.95,3v6.51h-2.08V245.75h2.08v2.11a4.25,4.25,0,0,1,3.63-2.35A3.05,3.05,0,0,1,792.52,246Z"/><path d="M805.58,251.67a6.2,6.2,0,0,1-.05.82h-9.79a4.3,4.3,0,0,0,1.22,3,4.1,4.1,0,0,0,3,1.09,4.82,4.82,0,0,0,3.69-1.63l1.4,1.37a6.73,6.73,0,0,1-5.14,2.18,6.12,6.12,0,0,1-4.68-1.81,6.52,6.52,0,0,1-1.7-4.67,6.82,6.82,0,0,1,1.66-4.7,5.68,5.68,0,0,1,4.46-1.87,5.6,5.6,0,0,1,4.32,1.77A6.37,6.37,0,0,1,805.58,251.67Zm-9.79-.79h7.63a3.91,3.91,0,0,0-1.23-2.67,3.68,3.68,0,0,0-2.59-1,3.64,3.64,0,0,0-2.65,1A3.86,3.86,0,0,0,795.79,250.88Z"/><path d="M951.79,258.23H940.22v-16h11.33v2.07h-9.07v4.51h7.89v1.94h-7.89v5.4h9.31Z"/><path d="M965.47,258.23h-2.54l-3.56-5-3.55,5h-2.54l4.82-6.51-4.39-6h2.52l3.22,4.58,3.16-4.58h2.48l-4.37,6Z"/><path d="M978.69,251.67a6.4,6.4,0,0,1,0,.82h-9.8a4.35,4.35,0,0,0,1.23,3,4.07,4.07,0,0,0,3,1.09,4.84,4.84,0,0,0,3.7-1.63l1.39,1.37a6.71,6.71,0,0,1-5.13,2.18,6.09,6.09,0,0,1-4.68-1.81,6.52,6.52,0,0,1-1.71-4.67,6.83,6.83,0,0,1,1.67-4.7,5.66,5.66,0,0,1,4.45-1.87,5.6,5.6,0,0,1,4.32,1.77A6.32,6.32,0,0,1,978.69,251.67Zm-9.79-.79h7.63a4,4,0,0,0-1.22-2.67,3.7,3.7,0,0,0-2.59-1,3.62,3.62,0,0,0-2.65,1A3.87,3.87,0,0,0,968.9,250.88Z"/><path d="M990.17,254.75l1.6,1.15a5.8,5.8,0,0,1-5,2.61,5.62,5.62,0,0,1-4.39-1.84,7.46,7.46,0,0,1,0-9.36,5.6,5.6,0,0,1,4.39-1.85,5.71,5.71,0,0,1,5,2.59l-1.56,1.25a3.73,3.73,0,0,0-3.33-2,3.49,3.49,0,0,0-2.85,1.31,5.7,5.7,0,0,0,0,6.65,3.46,3.46,0,0,0,2.82,1.31A3.9,3.9,0,0,0,990.17,254.75Z"/><path d="M1002.86,245.75H1005v12.48h-2.09v-2a5,5,0,0,1-4.27,2.32,4.17,4.17,0,0,1-3.19-1.24,4.84,4.84,0,0,1-1.18-3.46v-8.06h2.09v7.58q0,3.24,2.76,3.24a3.67,3.67,0,0,0,2.71-1.08,3.81,3.81,0,0,0,1.08-2.81Z"/><path d="M1015.05,256.09l.89,1.58a4.27,4.27,0,0,1-2.71.84,3.52,3.52,0,0,1-3.26-1.58,4.53,4.53,0,0,1-.53-2.47v-7h-2.16v-1.72h2.16v-3.51h2.09v3.51h4v1.72h-4v7q0,2.16,1.92,2.16A2.51,2.51,0,0,0,1015.05,256.09Z"/><path d="M1029.41,251.67a6.2,6.2,0,0,1-.05.82h-9.79a4.3,4.3,0,0,0,1.22,3,4.08,4.08,0,0,0,3,1.09,4.84,4.84,0,0,0,3.69-1.63l1.39,1.37a6.71,6.71,0,0,1-5.13,2.18,6.09,6.09,0,0,1-4.68-1.81,6.52,6.52,0,0,1-1.71-4.67,6.83,6.83,0,0,1,1.67-4.7,5.66,5.66,0,0,1,4.45-1.87,5.57,5.57,0,0,1,4.32,1.77A6.33,6.33,0,0,1,1029.41,251.67Zm-9.8-.79h7.64a4,4,0,0,0-1.23-2.67,3.7,3.7,0,0,0-2.59-1,3.62,3.62,0,0,0-2.65,1A3.87,3.87,0,0,0,1019.61,250.88Z"/><path class="cls-6" d="M577.48,40.27H576V29.61h1.49Z"/><path class="cls-6" d="M584.41,38.85l.59,1a2.87,2.87,0,0,1-1.81.56A2.35,2.35,0,0,1,581,39.41a3.06,3.06,0,0,1-.36-1.65V33.1h-1.44V32h1.44V29.61h1.4V32h2.68V33.1h-2.68v4.66c0,1,.42,1.44,1.28,1.44A1.72,1.72,0,0,0,584.41,38.85Z"/><path class="cls-6" d="M594,35.9a4,4,0,0,1,0,.55h-6.52a2.84,2.84,0,0,0,.81,2,2.71,2.71,0,0,0,2,.73,3.21,3.21,0,0,0,2.46-1.09l.93.92a4.5,4.5,0,0,1-3.43,1.45,4.07,4.07,0,0,1-3.12-1.21,4.37,4.37,0,0,1-1.13-3.11A4.52,4.52,0,0,1,587,33a4.13,4.13,0,0,1,5.85-.07A4.24,4.24,0,0,1,594,35.9Zm-6.53-.53h5.09a2.66,2.66,0,0,0-.82-1.78A2.51,2.51,0,0,0,590,33a2.45,2.45,0,0,0-1.77.67A2.6,2.6,0,0,0,587.45,35.37Z"/><path class="cls-6" d="M600.79,32.09l-.45,1.33a2,2,0,0,0-1-.25,1.91,1.91,0,0,0-1.51.74,3,3,0,0,0-.63,2v4.34h-1.39V32h1.39v1.41a2.82,2.82,0,0,1,2.42-1.57A2,2,0,0,1,600.79,32.09Z"/><path class="cls-6" d="M609.59,39.18l.18,1.06a2.67,2.67,0,0,1-1,.16,1.74,1.74,0,0,1-1.08-.33,1.44,1.44,0,0,1-.54-1,3.26,3.26,0,0,1-2.86,1.39,3,3,0,0,1-2.07-.67,2.35,2.35,0,0,1-.76-1.86,2.4,2.4,0,0,1,.19-1,2,2,0,0,1,.47-.68,2.78,2.78,0,0,1,.7-.43,4,4,0,0,1,.75-.26l.77-.13.53-.07.55-.07a3.18,3.18,0,0,0,.48-.09,2,2,0,0,0,.44-.13,2.23,2.23,0,0,0,.32-.19.6.6,0,0,0,.24-.29,1,1,0,0,0-.48-1.32,2.93,2.93,0,0,0-1.33-.29,4.16,4.16,0,0,0-2.59.88l-.64-1.06a5.76,5.76,0,0,1,3.32-1.05,3.74,3.74,0,0,1,2.36.67,2.45,2.45,0,0,1,.86,2v3.93q0,.9.66.9A.79.79,0,0,0,609.59,39.18Zm-2.54-2.11V35.63a1.6,1.6,0,0,1-.35.34,1.31,1.31,0,0,1-.46.22l-.45.12c-.11,0-.3.06-.57.1l-.57.08a3.51,3.51,0,0,0-1.3.43,1.06,1.06,0,0,0-.43,1A1.24,1.24,0,0,0,603.4,39a2.1,2.1,0,0,0,1.25.35,2.64,2.64,0,0,0,1.7-.56A2,2,0,0,0,607.05,37.07Z"/><path class="cls-6" d="M615.45,38.85l.59,1a2.87,2.87,0,0,1-1.81.56,2.35,2.35,0,0,1-2.17-1.05,3.06,3.06,0,0,1-.36-1.65V33.1h-1.44V32h1.44V29.61h1.4V32h2.68V33.1H613.1v4.66c0,1,.42,1.44,1.28,1.44A1.72,1.72,0,0,0,615.45,38.85Z"/><path class="cls-6" d="M625,35.9a4,4,0,0,1,0,.55h-6.52a2.84,2.84,0,0,0,.81,2,2.71,2.71,0,0,0,2,.73,3.21,3.21,0,0,0,2.46-1.09l.93.92a4.5,4.5,0,0,1-3.43,1.45,4.07,4.07,0,0,1-3.12-1.21A4.37,4.37,0,0,1,617,36.14,4.52,4.52,0,0,1,618.08,33a4.13,4.13,0,0,1,5.85-.07A4.24,4.24,0,0,1,625,35.9Zm-6.53-.53h5.09a2.66,2.66,0,0,0-.82-1.78A2.51,2.51,0,0,0,621,33a2.45,2.45,0,0,0-1.77.67A2.6,2.6,0,0,0,618.49,35.37Z"/><path class="cls-6" d="M577.48,530.63H576V520h1.49Z"/><path class="cls-6" d="M584.41,529.21l.59,1a2.81,2.81,0,0,1-1.81.56,2.35,2.35,0,0,1-2.17-1.05,3.06,3.06,0,0,1-.36-1.65v-4.66h-1.44v-1.15h1.44V520h1.4v2.34h2.68v1.15h-2.68v4.66c0,1,.42,1.44,1.28,1.44A1.72,1.72,0,0,0,584.41,529.21Z"/><path class="cls-6" d="M594,526.26a4,4,0,0,1,0,.55h-6.52a2.84,2.84,0,0,0,.81,2,2.71,2.71,0,0,0,2,.73,3.21,3.21,0,0,0,2.46-1.09l.93.92a4.5,4.5,0,0,1-3.43,1.45,4.07,4.07,0,0,1-3.12-1.21,4.37,4.37,0,0,1-1.13-3.11,4.52,4.52,0,0,1,1.11-3.13,4.13,4.13,0,0,1,5.85-.07A4.24,4.24,0,0,1,594,526.26Zm-6.53-.53h5.09a2.66,2.66,0,0,0-.82-1.78,2.51,2.51,0,0,0-1.73-.63,2.45,2.45,0,0,0-1.77.67A2.6,2.6,0,0,0,587.45,525.73Z"/><path class="cls-6" d="M600.79,522.45l-.45,1.33a2,2,0,0,0-1-.25,1.91,1.91,0,0,0-1.51.74,3,3,0,0,0-.63,2v4.34h-1.39v-8.32h1.39v1.41a2.82,2.82,0,0,1,2.42-1.57A2,2,0,0,1,600.79,522.45Z"/><path class="cls-6" d="M609.59,529.54l.18,1.06a2.67,2.67,0,0,1-1,.16,1.74,1.74,0,0,1-1.08-.33,1.44,1.44,0,0,1-.54-1,3.26,3.26,0,0,1-2.86,1.39,3,3,0,0,1-2.07-.67,2.35,2.35,0,0,1-.76-1.86,2.4,2.4,0,0,1,.19-1,2,2,0,0,1,.47-.68,2.78,2.78,0,0,1,.7-.43,4,4,0,0,1,.75-.26l.77-.13.53-.07.55-.07a3.18,3.18,0,0,0,.48-.09,2,2,0,0,0,.44-.13,2.23,2.23,0,0,0,.32-.19.6.6,0,0,0,.24-.29.93.93,0,0,0,.08-.39,1,1,0,0,0-.56-.93,2.93,2.93,0,0,0-1.33-.29,4.16,4.16,0,0,0-2.59.88l-.64-1.06a5.76,5.76,0,0,1,3.32-1,3.74,3.74,0,0,1,2.36.67,2.45,2.45,0,0,1,.86,2.05v3.93q0,.9.66.9A.79.79,0,0,0,609.59,529.54Zm-2.54-2.11V526a1.6,1.6,0,0,1-.35.34,1.31,1.31,0,0,1-.46.22l-.45.12c-.11,0-.3.06-.57.1l-.57.08a3.51,3.51,0,0,0-1.3.43,1.06,1.06,0,0,0-.43,1,1.24,1.24,0,0,0,.48,1.06,2.1,2.1,0,0,0,1.25.35,2.64,2.64,0,0,0,1.7-.56A2,2,0,0,0,607.05,527.43Z"/><path class="cls-6" d="M615.45,529.21l.59,1a2.81,2.81,0,0,1-1.81.56,2.35,2.35,0,0,1-2.17-1.05,3.06,3.06,0,0,1-.36-1.65v-4.66h-1.44v-1.15h1.44V520h1.4v2.34h2.68v1.15H613.1v4.66c0,1,.42,1.44,1.28,1.44A1.72,1.72,0,0,0,615.45,529.21Z"/><path class="cls-6" d="M625,526.26a4,4,0,0,1,0,.55h-6.52a2.84,2.84,0,0,0,.81,2,2.71,2.71,0,0,0,2,.73,3.21,3.21,0,0,0,2.46-1.09l.93.92a4.5,4.5,0,0,1-3.43,1.45,4.07,4.07,0,0,1-3.12-1.21A4.37,4.37,0,0,1,617,526.5a4.52,4.52,0,0,1,1.11-3.13,4.13,4.13,0,0,1,5.85-.07A4.24,4.24,0,0,1,625,526.26Zm-6.53-.53h5.09a2.66,2.66,0,0,0-.82-1.78,2.51,2.51,0,0,0-1.73-.63,2.45,2.45,0,0,0-1.77.67A2.6,2.6,0,0,0,618.49,525.73Z"/><path class="cls-6" d="M207.08,279.41a2.88,2.88,0,0,1-.91,2.2,3.7,3.7,0,0,1-2.63.85h-4.81V271.81h4.46a4.18,4.18,0,0,1,2.55.67,2.24,2.24,0,0,1,.89,1.89,2.45,2.45,0,0,1-1.39,2.3,2.81,2.81,0,0,1,1.84,2.74Zm-2-4.83c0-.94-.66-1.41-2-1.41h-2.91v3h3a2.06,2.06,0,0,0,1.4-.44A1.5,1.5,0,0,0,205.13,274.58Zm.38,4.75A1.79,1.79,0,0,0,205,278a2,2,0,0,0-1.46-.5h-3.33v3.62h3.27a2.15,2.15,0,0,0,1.48-.47A1.67,1.67,0,0,0,205.51,279.33Z"/><path class="cls-6" d="M214.78,274.14h1.39v8.32h-1.39V281.1a3.37,3.37,0,0,1-2.85,1.56,2.76,2.76,0,0,1-2.13-.84,3.22,3.22,0,0,1-.78-2.3v-5.38h1.39v5.06c0,1.44.61,2.16,1.84,2.16a2.47,2.47,0,0,0,1.81-.72,2.52,2.52,0,0,0,.72-1.87Z"/><path class="cls-6" d="M220.06,272.51h-1.4V271h1.4Zm0,9.95h-1.4v-8.32h1.4Z"/><path class="cls-6" d="M224,282.46H222.6V271H224Z"/><path class="cls-6" d="M234.18,282.46h-1.39V281.1a3.66,3.66,0,0,1-5.74.32,4.6,4.6,0,0,1-1-3.1,4.68,4.68,0,0,1,1-3.14,3.66,3.66,0,0,1,5.74.34V271h1.39Zm-2.1-2a3.75,3.75,0,0,0,0-4.39,2.46,2.46,0,0,0-2-.86,2.31,2.31,0,0,0-1.94.85,4,4,0,0,0,0,4.41,2.3,2.3,0,0,0,1.94.87A2.42,2.42,0,0,0,232.08,280.5Z"/><path class="cls-6" d="M167.33,293.34h1.39v8.32h-1.39V300.3a3.37,3.37,0,0,1-2.85,1.56,2.76,2.76,0,0,1-2.13-.84,3.22,3.22,0,0,1-.78-2.3v-5.38H163v5.06c0,1.44.61,2.16,1.84,2.16a2.45,2.45,0,0,0,1.81-.72,2.52,2.52,0,0,0,.72-1.87Z"/><path class="cls-6" d="M172.61,301.66h-1.39v-8.32h1.39v1.38a3.3,3.3,0,0,1,2.85-1.57,2.79,2.79,0,0,1,2.12.83,3.23,3.23,0,0,1,.79,2.32v5.36H177v-5q0-2.16-1.86-2.16a2.41,2.41,0,0,0-1.8.72,2.54,2.54,0,0,0-.71,1.88Z"/><path class="cls-6" d="M188.42,301.66H187V300.3a3.66,3.66,0,0,1-5.74.32,4.65,4.65,0,0,1-1-3.1,4.74,4.74,0,0,1,1-3.14,3.66,3.66,0,0,1,5.74.34v-4.48h1.4Zm-2.11-2a3.75,3.75,0,0,0,0-4.39,2.45,2.45,0,0,0-2-.86,2.33,2.33,0,0,0-1.94.85,4,4,0,0,0,0,4.41,2.31,2.31,0,0,0,1.94.87A2.4,2.4,0,0,0,186.31,299.7Z"/><path class="cls-6" d="M198.41,297.3a4.16,4.16,0,0,1,0,.54h-6.52a2.89,2.89,0,0,0,.81,2,2.75,2.75,0,0,0,2,.73,3.24,3.24,0,0,0,2.46-1.09l.93.91a4.5,4.5,0,0,1-3.43,1.46,4.1,4.1,0,0,1-3.12-1.21,4.39,4.39,0,0,1-1.13-3.11,4.55,4.55,0,0,1,1.11-3.14,3.79,3.79,0,0,1,3-1.25,3.74,3.74,0,0,1,2.88,1.19A4.22,4.22,0,0,1,198.41,297.3Zm-6.52-.53H197a2.64,2.64,0,0,0-.81-1.79,2.68,2.68,0,0,0-3.5,0A2.61,2.61,0,0,0,191.89,296.77Z"/><path class="cls-6" d="M205.23,293.49l-.45,1.33a2,2,0,0,0-1-.26,1.94,1.94,0,0,0-1.51.74,3,3,0,0,0-.63,2v4.33h-1.39v-8.32h1.39v1.41a2.83,2.83,0,0,1,2.41-1.57A2.06,2.06,0,0,1,205.23,293.49Z"/><path class="cls-6" d="M212.93,299.2a2.38,2.38,0,0,1-.91,1.93,3.94,3.94,0,0,1-2.5.73,4.09,4.09,0,0,1-3.68-1.78l1-.77a3.19,3.19,0,0,0,2.74,1.35,2.54,2.54,0,0,0,1.41-.35,1.12,1.12,0,0,0,.53-1,.82.82,0,0,0-.49-.81,8.64,8.64,0,0,0-1.8-.48,6.05,6.05,0,0,1-2.21-.79,1.82,1.82,0,0,1-.77-1.63,2.07,2.07,0,0,1,.9-1.82,3.82,3.82,0,0,1,2.22-.63,4.5,4.5,0,0,1,3.38,1.39l-.93.88a3.12,3.12,0,0,0-2.47-1.07,2.61,2.61,0,0,0-1.24.28.91.91,0,0,0-.51.84.77.77,0,0,0,.12.43,1.24,1.24,0,0,0,.27.32,1.59,1.59,0,0,0,.47.22,4.72,4.72,0,0,0,.55.15l.65.13c.4.08.73.14,1,.21a6.31,6.31,0,0,1,.87.29,2.33,2.33,0,0,1,.74.43,2.15,2.15,0,0,1,.46.64A2.17,2.17,0,0,1,212.93,299.2Z"/><path class="cls-6" d="M219.1,300.24l.6,1.06a2.91,2.91,0,0,1-1.81.56,2.37,2.37,0,0,1-2.18-1.06,3.12,3.12,0,0,1-.35-1.65V294.5h-1.44v-1.16h1.44V291h1.39v2.33h2.69v1.16h-2.69v4.65c0,1,.43,1.44,1.28,1.44A1.7,1.7,0,0,0,219.1,300.24Z"/><path class="cls-6" d="M228.62,300.58l.18,1.05a2.47,2.47,0,0,1-1,.16,1.74,1.74,0,0,1-1.08-.33,1.45,1.45,0,0,1-.54-1,3.27,3.27,0,0,1-2.86,1.4,3.05,3.05,0,0,1-2.07-.68,2.65,2.65,0,0,1-.57-2.84,1.86,1.86,0,0,1,.47-.68,2.8,2.8,0,0,1,.7-.44,3.87,3.87,0,0,1,.75-.25l.77-.14.53-.06.56-.07.47-.09a1.9,1.9,0,0,0,.44-.14,2.3,2.3,0,0,0,.33-.19A.63.63,0,0,0,226,296a.93.93,0,0,0,.08-.39,1,1,0,0,0-.56-.93,2.93,2.93,0,0,0-1.33-.29,4.24,4.24,0,0,0-2.59.88l-.64-1.05a5.7,5.7,0,0,1,3.32-1.06,3.8,3.8,0,0,1,2.36.67,2.45,2.45,0,0,1,.86,2.05v3.94c0,.6.22.89.66.89A.84.84,0,0,0,228.62,300.58Zm-2.54-2.12V297a1.89,1.89,0,0,1-.34.35,1.46,1.46,0,0,1-.47.21l-.45.12c-.11,0-.3.06-.57.1l-.57.09a3.53,3.53,0,0,0-1.3.42,1.09,1.09,0,0,0-.43,1,1.21,1.21,0,0,0,.48,1.05,2,2,0,0,0,1.25.35,2.58,2.58,0,0,0,1.7-.56A2,2,0,0,0,226.08,298.46Z"/><path class="cls-6" d="M231.63,301.66h-1.39v-8.32h1.39v1.38a3.3,3.3,0,0,1,2.85-1.57,2.82,2.82,0,0,1,2.13.83,3.27,3.27,0,0,1,.78,2.32v5.36H236v-5q0-2.16-1.86-2.16a2.44,2.44,0,0,0-1.8.72,2.58,2.58,0,0,0-.71,1.88Z"/><path class="cls-6" d="M247.44,301.66h-1.39V300.3a3.67,3.67,0,0,1-5.75.32,4.65,4.65,0,0,1-1-3.1,4.74,4.74,0,0,1,1-3.14,3.67,3.67,0,0,1,5.75.34v-4.48h1.39Zm-2.11-2a3.71,3.71,0,0,0,0-4.39,2.43,2.43,0,0,0-2-.86,2.29,2.29,0,0,0-1.93.85,3.92,3.92,0,0,0,0,4.41,2.28,2.28,0,0,0,1.93.87A2.39,2.39,0,0,0,245.33,299.7Z"/><path class="cls-6" d="M251.33,291.71h-1.4v-1.47h1.4Zm0,10h-1.4v-8.32h1.4Z"/><path class="cls-6" d="M255.21,301.66h-1.39v-8.32h1.39v1.38a3.33,3.33,0,0,1,2.85-1.57,2.79,2.79,0,0,1,2.13.83,3.27,3.27,0,0,1,.78,2.32v5.36h-1.39v-5c0-1.44-.62-2.16-1.85-2.16a2.45,2.45,0,0,0-1.81.72,2.58,2.58,0,0,0-.71,1.88Z"/><path class="cls-6" d="M271.05,293.34v7a3.84,3.84,0,0,1-4.4,4.29,6,6,0,0,1-3.47-1l.7-1.14a4.62,4.62,0,0,0,2.79.86,3.27,3.27,0,0,0,2.17-.67,2.49,2.49,0,0,0,.82-2.06v-.9a3.08,3.08,0,0,1-1.29,1.16,4,4,0,0,1-1.75.39,3.51,3.51,0,0,1-2.71-1.14,4.49,4.49,0,0,1,0-5.81,3.6,3.6,0,0,1,2.74-1.16,3.28,3.28,0,0,1,3,1.57v-1.38Zm-1.37,3.86a2.81,2.81,0,0,0-.72-2,2.56,2.56,0,0,0-2-.79,2.43,2.43,0,0,0-1.95.79,2.92,2.92,0,0,0-.68,2,3,3,0,0,0,.68,2,2.43,2.43,0,0,0,1.95.8,2.58,2.58,0,0,0,2-.8A2.93,2.93,0,0,0,269.68,297.2Z"/><path class="cls-6" d="M174.69,319.78l.17,1.05a2.41,2.41,0,0,1-1,.16,1.78,1.78,0,0,1-1.08-.33,1.41,1.41,0,0,1-.53-1,3.28,3.28,0,0,1-2.87,1.4,3,3,0,0,1-2.06-.68,2.32,2.32,0,0,1-.77-1.85,2.5,2.5,0,0,1,.19-1,1.88,1.88,0,0,1,.48-.68,2.56,2.56,0,0,1,.69-.44,4.38,4.38,0,0,1,.75-.25l.77-.14L170,316l.55-.07.47-.09a1.85,1.85,0,0,0,.45-.14,2.23,2.23,0,0,0,.32-.19.73.73,0,0,0,.24-.29.94.94,0,0,0,.07-.39,1,1,0,0,0-.56-.93,2.87,2.87,0,0,0-1.33-.29,4.24,4.24,0,0,0-2.59.88l-.64-1a5.75,5.75,0,0,1,3.33-1.06,3.77,3.77,0,0,1,2.35.67,2.43,2.43,0,0,1,.87,2.05V319c0,.6.21.89.65.89A.88.88,0,0,0,174.69,319.78Zm-2.55-2.12v-1.44a1.62,1.62,0,0,1-.34.35,1.4,1.4,0,0,1-.46.21l-.45.12c-.11,0-.3.06-.57.1l-.58.09a3.53,3.53,0,0,0-1.29.42,1.09,1.09,0,0,0-.43,1,1.21,1.21,0,0,0,.48,1.05,2,2,0,0,0,1.24.35,2.61,2.61,0,0,0,1.71-.56A2,2,0,0,0,172.14,317.66Z"/><path class="cls-6" d="M177.7,320.86h-1.4v-8.32h1.4v1.38a3.28,3.28,0,0,1,2.84-1.57,2.79,2.79,0,0,1,2.13.83,3.23,3.23,0,0,1,.79,2.32v5.36h-1.4v-5c0-1.44-.61-2.16-1.85-2.16a2.41,2.41,0,0,0-1.8.72,2.54,2.54,0,0,0-.71,1.88Z"/><path class="cls-6" d="M193.5,320.86h-1.39V319.5a3.66,3.66,0,0,1-5.74.32,4.6,4.6,0,0,1-1-3.1,4.68,4.68,0,0,1,1-3.14,3.66,3.66,0,0,1,5.74.34v-4.48h1.39Zm-2.1-2a3.75,3.75,0,0,0,0-4.39,2.45,2.45,0,0,0-2-.86,2.33,2.33,0,0,0-1.94.85,4,4,0,0,0,0,4.41,2.31,2.31,0,0,0,1.94.87A2.4,2.4,0,0,0,191.4,318.9Z"/><path class="cls-6" d="M207.82,316.5a4.16,4.16,0,0,1,0,.54h-6.53a2.94,2.94,0,0,0,.82,2,2.75,2.75,0,0,0,2,.73,3.25,3.25,0,0,0,2.47-1.09l.93.91a4.5,4.5,0,0,1-3.43,1.46,4.1,4.1,0,0,1-3.12-1.21,4.35,4.35,0,0,1-1.13-3.11,4.55,4.55,0,0,1,1.11-3.14,3.79,3.79,0,0,1,3-1.25,3.74,3.74,0,0,1,2.88,1.19A4.22,4.22,0,0,1,207.82,316.5ZM201.3,316h5.08a2.64,2.64,0,0,0-.81-1.79,2.68,2.68,0,0,0-3.5,0A2.61,2.61,0,0,0,201.3,316Z"/><path class="cls-6" d="M211.09,320.86H209.7v-8.32h1.39v1.35a3.12,3.12,0,0,1,2.7-1.54,2.4,2.4,0,0,1,2.5,1.68,3.37,3.37,0,0,1,2.94-1.68,2.62,2.62,0,0,1,2.07.82,3.22,3.22,0,0,1,.75,2.27v5.42h-1.39v-5.08c0-1.41-.58-2.12-1.75-2.12a2.21,2.21,0,0,0-1.68.72,2.53,2.53,0,0,0-.67,1.83v4.65h-1.39v-5.08c0-1.41-.58-2.12-1.75-2.12a2.2,2.2,0,0,0-1.68.71,2.62,2.62,0,0,0-.65,1.84Z"/><path class="cls-6" d="M224.45,312.54h1.39v1.38a3.41,3.41,0,0,1,3-1.57,3.45,3.45,0,0,1,2.78,1.23,5.2,5.2,0,0,1,0,6.24,3.66,3.66,0,0,1-5.74-.32v4.15h-1.39Zm2.09,2a3.37,3.37,0,0,0-.7,2.2,3.33,3.33,0,0,0,.71,2.19,2.43,2.43,0,0,0,2,.87,2.3,2.3,0,0,0,1.93-.86,3.44,3.44,0,0,0,.68-2.2,3.49,3.49,0,0,0-.68-2.21,2.3,2.3,0,0,0-1.93-.86A2.41,2.41,0,0,0,226.54,314.52Z"/><path class="cls-6" d="M242,319.78l.18,1.05a2.47,2.47,0,0,1-1,.16,1.74,1.74,0,0,1-1.08-.33,1.41,1.41,0,0,1-.54-1,3.27,3.27,0,0,1-2.86,1.4,3,3,0,0,1-2.07-.68,2.65,2.65,0,0,1-.57-2.84,1.86,1.86,0,0,1,.47-.68,2.8,2.8,0,0,1,.7-.44,3.87,3.87,0,0,1,.75-.25l.77-.14.53-.06.55-.07.48-.09a1.9,1.9,0,0,0,.44-.14,1.79,1.79,0,0,0,.32-.19.6.6,0,0,0,.24-.29.93.93,0,0,0,.08-.39,1,1,0,0,0-.56-.93,2.93,2.93,0,0,0-1.33-.29,4.22,4.22,0,0,0-2.59.88l-.64-1a5.7,5.7,0,0,1,3.32-1.06A3.8,3.8,0,0,1,240,313a2.45,2.45,0,0,1,.86,2.05V319c0,.6.22.89.66.89A.87.87,0,0,0,242,319.78Zm-2.54-2.12v-1.44a1.66,1.66,0,0,1-.35.35,1.31,1.31,0,0,1-.46.21l-.45.12c-.11,0-.3.06-.57.1l-.57.09a3.53,3.53,0,0,0-1.3.42,1.09,1.09,0,0,0-.43,1,1.21,1.21,0,0,0,.48,1.05,2,2,0,0,0,1.25.35,2.58,2.58,0,0,0,1.7-.56A2,2,0,0,0,239.49,317.66Z"/><path class="cls-6" d="M247.89,319.44l.59,1.06a2.87,2.87,0,0,1-1.81.56A2.36,2.36,0,0,1,244.5,320a3,3,0,0,1-.36-1.65V313.7H242.7v-1.16h1.44v-2.33h1.4v2.33h2.68v1.16h-2.68v4.65c0,1,.42,1.44,1.28,1.44A1.72,1.72,0,0,0,247.89,319.44Z"/><path class="cls-6" d="M251.34,320.86H250V309.44h1.39v4.48a3.3,3.3,0,0,1,2.85-1.57,2.79,2.79,0,0,1,2.13.83,3.27,3.27,0,0,1,.78,2.32v5.36h-1.39v-5c0-1.44-.62-2.16-1.85-2.16a2.41,2.41,0,0,0-1.8.72,2.55,2.55,0,0,0-.72,1.88Z"/><path class="cls-6" d="M266.5,312.54l-3.33,8.71A5.44,5.44,0,0,1,262,323.2a2.34,2.34,0,0,1-1.73.61,2.8,2.8,0,0,1-1.69-.51l.61-1a1.71,1.71,0,0,0,1,.32,1.17,1.17,0,0,0,.86-.33,2.83,2.83,0,0,0,.61-.93l.22-.5-3.52-8.29H260l2.66,6.47,2.35-6.47Z"/><path class="cls-6" d="M378.4,282.46h-4.13V271.81h4.13a4.88,4.88,0,0,1,3.79,1.49,6,6,0,0,1,0,7.68A4.91,4.91,0,0,1,378.4,282.46Zm-2.61-1.37h2.61a3.35,3.35,0,0,0,2.66-1.07,4.9,4.9,0,0,0,0-5.77,3.35,3.35,0,0,0-2.66-1.07h-2.61Z"/><path class="cls-6" d="M393.1,278.1a4.16,4.16,0,0,1,0,.54h-6.53a2.89,2.89,0,0,0,.82,2,2.75,2.75,0,0,0,2,.73,3.28,3.28,0,0,0,2.47-1.09l.92.91a4.47,4.47,0,0,1-3.42,1.46,4.1,4.1,0,0,1-3.12-1.21,4.35,4.35,0,0,1-1.14-3.11,4.51,4.51,0,0,1,1.12-3.14,3.78,3.78,0,0,1,3-1.25,3.71,3.71,0,0,1,2.88,1.19A4.18,4.18,0,0,1,393.1,278.1Zm-6.53-.53h5.09a2.68,2.68,0,0,0-.81-1.79,2.51,2.51,0,0,0-1.73-.63,2.46,2.46,0,0,0-1.77.67A2.66,2.66,0,0,0,386.57,277.57Z"/><path class="cls-6" d="M399.31,271l-.19,1.15a4.58,4.58,0,0,0-1-.14,1.28,1.28,0,0,0-.88.25,1.05,1.05,0,0,0-.29.84v1h1.95v1.16h-1.95v7.16h-1.39V275.3h-1.42v-1.16h1.42v-1a2.17,2.17,0,0,1,.66-1.72,2.62,2.62,0,0,1,1.82-.59A3.74,3.74,0,0,1,399.31,271Zm2.43,1.47h-1.39V271h1.39Zm0,9.95h-1.39v-8.32h1.39Z"/><path class="cls-6" d="M405.63,282.46h-1.39v-8.32h1.39v1.38a3.28,3.28,0,0,1,2.85-1.57,2.82,2.82,0,0,1,2.13.83,3.27,3.27,0,0,1,.78,2.32v5.36H410v-5q0-2.16-1.86-2.16a2.44,2.44,0,0,0-1.8.72,2.58,2.58,0,0,0-.71,1.88Z"/><path class="cls-6" d="M421.29,278.1a4.16,4.16,0,0,1,0,.54h-6.53a2.94,2.94,0,0,0,.82,2,2.75,2.75,0,0,0,2,.73,3.26,3.26,0,0,0,2.47-1.09l.92.91a4.47,4.47,0,0,1-3.42,1.46,4.1,4.1,0,0,1-3.12-1.21,4.35,4.35,0,0,1-1.13-3.11,4.55,4.55,0,0,1,1.11-3.14,3.79,3.79,0,0,1,3-1.25,3.7,3.7,0,0,1,2.87,1.19A4.18,4.18,0,0,1,421.29,278.1Zm-6.53-.53h5.09a2.64,2.64,0,0,0-.81-1.79,2.51,2.51,0,0,0-1.73-.63,2.46,2.46,0,0,0-1.77.67A2.66,2.66,0,0,0,414.76,277.57Z"/><path class="cls-6" d="M428.88,278.45l4.17-4.31h1.76l-3.36,3.41,3.8,4.91h-1.76l-3-4-1.6,1.62v2.36h-1.39V271h1.39Z"/><path class="cls-6" d="M443.76,278.1a2.83,2.83,0,0,1,0,.54H437.2a2.89,2.89,0,0,0,.81,2,2.77,2.77,0,0,0,2,.73,3.24,3.24,0,0,0,2.46-1.09l.93.91a4.5,4.5,0,0,1-3.43,1.46,4.1,4.1,0,0,1-3.12-1.21,4.39,4.39,0,0,1-1.13-3.11,4.55,4.55,0,0,1,1.11-3.14,3.79,3.79,0,0,1,3-1.25,3.74,3.74,0,0,1,2.88,1.19A4.22,4.22,0,0,1,443.76,278.1Zm-6.53-.53h5.09a2.69,2.69,0,0,0-.82-1.79,2.68,2.68,0,0,0-3.5,0A2.61,2.61,0,0,0,437.23,277.57Z"/><path class="cls-6" d="M452.7,274.14l-3.33,8.71a5.59,5.59,0,0,1-1.13,1.95,2.36,2.36,0,0,1-1.73.61,2.83,2.83,0,0,1-1.7-.51l.61-1a1.71,1.71,0,0,0,1,.32,1.21,1.21,0,0,0,.87-.33,3,3,0,0,0,.6-.93l.23-.5-3.52-8.29h1.6l2.65,6.47,2.36-6.47Z"/><path class="cls-6" d="M462.84,271l-.19,1.15a4.5,4.5,0,0,0-1-.14,1.32,1.32,0,0,0-.88.25,1,1,0,0,0-.28.84v1h1.95v1.16h-1.95v7.16h-1.4V275.3h-1.42v-1.16h1.42v-1a2.17,2.17,0,0,1,.66-1.72,2.66,2.66,0,0,1,1.82-.59A3.7,3.7,0,0,1,462.84,271Zm2.52,11.42H464V271h1.4Z"/><path class="cls-6" d="M475.55,278.32a4.45,4.45,0,0,1-1.12,3.12,4.25,4.25,0,0,1-6,0,5,5,0,0,1,0-6.26,4.22,4.22,0,0,1,6,0A4.49,4.49,0,0,1,475.55,278.32Zm-1.49,0a3.42,3.42,0,0,0-.7-2.23,2.31,2.31,0,0,0-1.91-.87,2.34,2.34,0,0,0-1.92.87,3.89,3.89,0,0,0,0,4.45,2.34,2.34,0,0,0,1.92.87,2.31,2.31,0,0,0,1.91-.87A3.43,3.43,0,0,0,474.06,278.32Z"/><path class="cls-6" d="M488.41,274.14l-2.3,8.32h-1.52l-2-6.52-2.05,6.52H479l-2.3-8.32h1.49l1.68,6.64,2.08-6.64h1.28l2.06,6.64,1.7-6.64Z"/><path class="cls-6" d="M496.46,280a2.35,2.35,0,0,1-.91,1.93,3.94,3.94,0,0,1-2.5.73,4.1,4.1,0,0,1-3.68-1.78l1-.77a3.17,3.17,0,0,0,2.73,1.35,2.54,2.54,0,0,0,1.41-.35,1.12,1.12,0,0,0,.53-1,.82.82,0,0,0-.48-.81,8.79,8.79,0,0,0-1.81-.48,6.05,6.05,0,0,1-2.21-.79,1.82,1.82,0,0,1-.77-1.63,2.07,2.07,0,0,1,.91-1.82,3.77,3.77,0,0,1,2.21-.63,4.5,4.5,0,0,1,3.38,1.39l-.93.88a3.11,3.11,0,0,0-2.46-1.07,2.65,2.65,0,0,0-1.25.28.91.91,0,0,0-.51.84.77.77,0,0,0,.12.43,1.24,1.24,0,0,0,.27.32,1.59,1.59,0,0,0,.47.22,5.32,5.32,0,0,0,.55.15l.65.13c.41.08.74.14,1,.21a5.89,5.89,0,0,1,.87.29,2.22,2.22,0,0,1,.74.43,2,2,0,0,1,.46.64A2,2,0,0,1,496.46,280Z"/><path class="cls-6" d="M500,280.77v1.57a3.28,3.28,0,0,1-1.26,2.54l-.51-.53a2,2,0,0,0,.88-1.55v-.34h-.82v-1.69Z"/><path class="cls-6" d="M406.19,293.34h1.39v1.38a3.44,3.44,0,0,1,3-1.57,3.49,3.49,0,0,1,2.79,1.23,4.72,4.72,0,0,1,1,3.12,4.64,4.64,0,0,1-1.05,3.12,3.66,3.66,0,0,1-5.74-.32v4.15h-1.39Zm2.1,2a3.4,3.4,0,0,0-.71,2.2,3.33,3.33,0,0,0,.71,2.19,2.43,2.43,0,0,0,2,.87,2.3,2.3,0,0,0,1.93-.86,3.44,3.44,0,0,0,.68-2.2,3.49,3.49,0,0,0-.68-2.21,2.3,2.3,0,0,0-1.93-.86A2.39,2.39,0,0,0,408.29,295.32Z"/><path class="cls-6" d="M421.26,293.49l-.45,1.33a2,2,0,0,0-1-.26,1.94,1.94,0,0,0-1.51.74,3,3,0,0,0-.63,2v4.33h-1.39v-8.32h1.39v1.41a2.83,2.83,0,0,1,2.41-1.57A2.06,2.06,0,0,1,421.26,293.49Z"/><path class="cls-6" d="M430.11,297.52a4.41,4.41,0,0,1-1.12,3.12,4.25,4.25,0,0,1-6,0,5,5,0,0,1,0-6.26,4.22,4.22,0,0,1,6,0A4.44,4.44,0,0,1,430.11,297.52Zm-1.49,0a3.47,3.47,0,0,0-.69-2.23,2.55,2.55,0,0,0-3.84,0,3.89,3.89,0,0,0,0,4.45,2.55,2.55,0,0,0,3.84,0A3.46,3.46,0,0,0,428.62,297.52Z"/><path class="cls-6" d="M432.06,290.24h1.39v4.48a3.67,3.67,0,0,1,5.75-.34,4.72,4.72,0,0,1,1,3.12,4.64,4.64,0,0,1-1.05,3.12,3.66,3.66,0,0,1-5.74-.32v1.36h-1.39Zm2.1,5.08a3.4,3.4,0,0,0-.71,2.2,3.33,3.33,0,0,0,.71,2.19,2.43,2.43,0,0,0,2,.87,2.33,2.33,0,0,0,1.94-.86,3.44,3.44,0,0,0,.67-2.2,3.48,3.48,0,0,0-.67-2.21,2.33,2.33,0,0,0-1.94-.86A2.4,2.4,0,0,0,434.16,295.32Z"/><path class="cls-6" d="M443.63,301.66h-1.39V290.24h1.39Z"/><path class="cls-6" d="M453.68,297.3a4.16,4.16,0,0,1,0,.54h-6.53a2.89,2.89,0,0,0,.81,2,2.77,2.77,0,0,0,2,.73,3.24,3.24,0,0,0,2.46-1.09l.93.91a4.5,4.5,0,0,1-3.42,1.46,4.07,4.07,0,0,1-3.12-1.21,4.35,4.35,0,0,1-1.14-3.11,4.55,4.55,0,0,1,1.11-3.14,3.79,3.79,0,0,1,3-1.25,3.74,3.74,0,0,1,2.88,1.19A4.18,4.18,0,0,1,453.68,297.3Zm-6.53-.53h5.09a2.69,2.69,0,0,0-.82-1.79,2.49,2.49,0,0,0-1.73-.63,2.46,2.46,0,0,0-1.76.67A2.57,2.57,0,0,0,447.15,296.77Z"/><path class="cls-6" d="M456.94,301.66h-1.39v-8.32h1.39v1.35a3.14,3.14,0,0,1,2.71-1.54,2.39,2.39,0,0,1,2.49,1.68,3.39,3.39,0,0,1,2.95-1.68,2.65,2.65,0,0,1,2.07.82,3.26,3.26,0,0,1,.74,2.27v5.42h-1.39v-5.08c0-1.41-.58-2.12-1.74-2.12a2.18,2.18,0,0,0-1.68.72,2.54,2.54,0,0,0-.68,1.83v4.65H461v-5.08c0-1.41-.58-2.12-1.74-2.12a2.19,2.19,0,0,0-1.68.71,2.58,2.58,0,0,0-.66,1.84Z"/><path class="cls-6" d="M386.8,319.78l.17,1.05a2.41,2.41,0,0,1-1,.16,1.78,1.78,0,0,1-1.08-.33,1.41,1.41,0,0,1-.53-1,3.28,3.28,0,0,1-2.86,1.4,3,3,0,0,1-2.07-.68,2.32,2.32,0,0,1-.77-1.85,2.5,2.5,0,0,1,.19-1,1.88,1.88,0,0,1,.48-.68,2.73,2.73,0,0,1,.69-.44,4.38,4.38,0,0,1,.75-.25l.77-.14.54-.06.55-.07.47-.09a1.85,1.85,0,0,0,.45-.14,2.23,2.23,0,0,0,.32-.19.73.73,0,0,0,.24-.29.94.94,0,0,0,.07-.39,1,1,0,0,0-.56-.93,2.87,2.87,0,0,0-1.33-.29,4.24,4.24,0,0,0-2.59.88l-.64-1a5.75,5.75,0,0,1,3.33-1.06,3.77,3.77,0,0,1,2.35.67,2.43,2.43,0,0,1,.87,2.05V319c0,.6.22.89.65.89A.88.88,0,0,0,386.8,319.78Zm-2.55-2.12v-1.44a1.62,1.62,0,0,1-.34.35,1.4,1.4,0,0,1-.46.21l-.45.12c-.11,0-.3.06-.57.1l-.58.09a3.53,3.53,0,0,0-1.29.42,1.09,1.09,0,0,0-.43,1,1.21,1.21,0,0,0,.48,1.05,2,2,0,0,0,1.24.35,2.61,2.61,0,0,0,1.71-.56A2,2,0,0,0,384.25,317.66Z"/><path class="cls-6" d="M389.81,320.86h-1.4v-8.32h1.4v1.38a3.28,3.28,0,0,1,2.85-1.57,2.79,2.79,0,0,1,2.12.83,3.23,3.23,0,0,1,.79,2.32v5.36h-1.4v-5c0-1.44-.61-2.16-1.85-2.16a2.41,2.41,0,0,0-1.8.72,2.54,2.54,0,0,0-.71,1.88Z"/><path class="cls-6" d="M405.62,320.86h-1.4V319.5a3.66,3.66,0,0,1-5.74.32,4.65,4.65,0,0,1-1-3.1,4.74,4.74,0,0,1,1-3.14,3.66,3.66,0,0,1,5.74.34v-4.48h1.4Zm-2.11-2a3.75,3.75,0,0,0,0-4.39,2.45,2.45,0,0,0-2-.86,2.33,2.33,0,0,0-1.94.85,4,4,0,0,0,0,4.41,2.31,2.31,0,0,0,1.94.87A2.4,2.4,0,0,0,403.51,318.9Z"/><path class="cls-6" d="M412.43,312.54h1.39v1.38a3.41,3.41,0,0,1,3-1.57,3.47,3.47,0,0,1,2.79,1.23,4.72,4.72,0,0,1,1,3.12,4.64,4.64,0,0,1-1.05,3.12,3.66,3.66,0,0,1-5.74-.32v4.15h-1.39Zm2.1,2a3.38,3.38,0,0,0-.71,2.2,3.33,3.33,0,0,0,.71,2.19,2.43,2.43,0,0,0,2,.87,2.33,2.33,0,0,0,1.94-.86,3.49,3.49,0,0,0,.67-2.2,3.54,3.54,0,0,0-.67-2.21,2.33,2.33,0,0,0-1.94-.86A2.4,2.4,0,0,0,414.53,314.52Z"/><path class="cls-6" d="M430,319.78l.18,1.05a2.47,2.47,0,0,1-1,.16,1.74,1.74,0,0,1-1.08-.33,1.45,1.45,0,0,1-.54-1,3.27,3.27,0,0,1-2.86,1.4,3,3,0,0,1-2.06-.68,2.29,2.29,0,0,1-.77-1.85,2.33,2.33,0,0,1,.19-1,2,2,0,0,1,.47-.68,2.8,2.8,0,0,1,.7-.44,4.38,4.38,0,0,1,.75-.25l.77-.14.53-.06.56-.07.47-.09a2,2,0,0,0,.45-.14l.32-.19a.73.73,0,0,0,.24-.29,1.13,1.13,0,0,0,.07-.39,1,1,0,0,0-.56-.93,2.93,2.93,0,0,0-1.33-.29,4.24,4.24,0,0,0-2.59.88l-.64-1a5.7,5.7,0,0,1,3.33-1.06A3.79,3.79,0,0,1,428,313a2.45,2.45,0,0,1,.86,2.05V319c0,.6.22.89.66.89A.84.84,0,0,0,430,319.78Zm-2.54-2.12v-1.44a1.89,1.89,0,0,1-.34.35,1.46,1.46,0,0,1-.47.21,3.08,3.08,0,0,1-.45.12c-.11,0-.3.06-.56.1l-.58.09a3.53,3.53,0,0,0-1.3.42,1.11,1.11,0,0,0-.43,1,1.21,1.21,0,0,0,.48,1.05,2,2,0,0,0,1.25.35,2.58,2.58,0,0,0,1.7-.56A2,2,0,0,0,427.47,317.66Z"/><path class="cls-6" d="M433,310.91h-1.39v-1.47H433Zm0,9.95h-1.39v-8.32H433Z"/><path class="cls-6" d="M436.91,320.86h-1.39v-8.32h1.39v1.38a3.28,3.28,0,0,1,2.85-1.57,2.82,2.82,0,0,1,2.13.83,3.27,3.27,0,0,1,.78,2.32v5.36h-1.39v-5q0-2.16-1.86-2.16a2.44,2.44,0,0,0-1.8.72,2.58,2.58,0,0,0-.71,1.88Z"/><path class="cls-6" d="M449.39,312.54h1.39v1.38a3.41,3.41,0,0,1,3-1.57,3.49,3.49,0,0,1,2.79,1.23,4.72,4.72,0,0,1,1,3.12,4.64,4.64,0,0,1-1.05,3.12,3.66,3.66,0,0,1-5.74-.32v4.15h-1.39Zm2.1,2a3.38,3.38,0,0,0-.71,2.2,3.33,3.33,0,0,0,.71,2.19,2.43,2.43,0,0,0,2,.87,2.33,2.33,0,0,0,1.94-.86,3.49,3.49,0,0,0,.67-2.2,3.54,3.54,0,0,0-.67-2.21,2.33,2.33,0,0,0-1.94-.86A2.39,2.39,0,0,0,451.49,314.52Z"/><path class="cls-6" d="M467.17,316.72a4.45,4.45,0,0,1-1.12,3.12,4.25,4.25,0,0,1-6,0,4.93,4.93,0,0,1,0-6.26,4.22,4.22,0,0,1,6,0A4.49,4.49,0,0,1,467.17,316.72Zm-1.49,0a3.42,3.42,0,0,0-.7-2.23,2.31,2.31,0,0,0-1.91-.87,2.34,2.34,0,0,0-1.92.87,3.89,3.89,0,0,0,0,4.45,2.34,2.34,0,0,0,1.92.87,2.31,2.31,0,0,0,1.91-.87A3.43,3.43,0,0,0,465.68,316.72Z"/><path class="cls-6" d="M470.51,310.91h-1.39v-1.47h1.39Zm0,9.95h-1.39v-8.32h1.39Z"/><path class="cls-6" d="M474.4,320.86H473v-8.32h1.4v1.38a3.28,3.28,0,0,1,2.85-1.57,2.79,2.79,0,0,1,2.12.83,3.23,3.23,0,0,1,.79,2.32v5.36h-1.4v-5c0-1.44-.61-2.16-1.85-2.16a2.41,2.41,0,0,0-1.8.72,2.54,2.54,0,0,0-.71,1.88Z"/><path class="cls-6" d="M486.8,319.44l.59,1.06a2.87,2.87,0,0,1-1.81.56A2.39,2.39,0,0,1,483.4,320a3.12,3.12,0,0,1-.35-1.65V313.7h-1.44v-1.16h1.44v-2.33h1.39v2.33h2.69v1.16h-2.69v4.65c0,1,.43,1.44,1.28,1.44A1.73,1.73,0,0,0,486.8,319.44Z"/><path class="cls-6" d="M495.21,318.4a2.35,2.35,0,0,1-.91,1.93,3.94,3.94,0,0,1-2.5.73,4.1,4.1,0,0,1-3.68-1.78l1-.77a3.17,3.17,0,0,0,2.73,1.35,2.54,2.54,0,0,0,1.41-.35,1.12,1.12,0,0,0,.53-1,.82.82,0,0,0-.48-.81,8.79,8.79,0,0,0-1.81-.48,6.32,6.32,0,0,1-2.21-.79,1.81,1.81,0,0,1-.76-1.63,2.07,2.07,0,0,1,.9-1.82,3.78,3.78,0,0,1,2.22-.63,4.48,4.48,0,0,1,3.37,1.39l-.93.88a3.1,3.1,0,0,0-2.46-1.07,2.65,2.65,0,0,0-1.25.28.91.91,0,0,0-.51.84.77.77,0,0,0,.12.43,1.24,1.24,0,0,0,.27.32,1.59,1.59,0,0,0,.47.22,4.81,4.81,0,0,0,.56.15l.64.13c.41.07.74.14,1,.21a6.22,6.22,0,0,1,.86.29,2.22,2.22,0,0,1,.74.43,2,2,0,0,1,.46.64A2,2,0,0,1,495.21,318.4Z"/><path class="cls-6" d="M710.19,282.46h-1.48V271.81h1.48Z"/><path class="cls-6" d="M720.53,282.46h-1.39V281.1a3.43,3.43,0,0,1-3,1.56,3.46,3.46,0,0,1-2.79-1.24,4.65,4.65,0,0,1-1-3.1,4.74,4.74,0,0,1,1-3.14,3.49,3.49,0,0,1,2.79-1.23,3.44,3.44,0,0,1,3,1.57V271h1.39Zm-2.1-2a3.75,3.75,0,0,0,0-4.39,2.47,2.47,0,0,0-2-.86,2.31,2.31,0,0,0-1.93.85,4,4,0,0,0,0,4.41,2.29,2.29,0,0,0,1.93.87A2.42,2.42,0,0,0,718.43,280.5Z"/><path class="cls-6" d="M730.53,278.1a4.16,4.16,0,0,1,0,.54H724a2.89,2.89,0,0,0,.82,2,2.75,2.75,0,0,0,2,.73,3.24,3.24,0,0,0,2.46-1.09l.93.91a4.48,4.48,0,0,1-3.42,1.46,4.1,4.1,0,0,1-3.12-1.21,4.35,4.35,0,0,1-1.14-3.11,4.51,4.51,0,0,1,1.12-3.14,3.78,3.78,0,0,1,3-1.25,3.71,3.71,0,0,1,2.88,1.19A4.18,4.18,0,0,1,730.53,278.1Zm-6.53-.53h5.09a2.65,2.65,0,0,0-.82-1.79,2.67,2.67,0,0,0-3.49,0A2.61,2.61,0,0,0,724,277.57Z"/><path class="cls-6" d="M739.86,281.38l.17,1.05a2.41,2.41,0,0,1-1,.16,1.78,1.78,0,0,1-1.08-.33,1.41,1.41,0,0,1-.53-1,3.28,3.28,0,0,1-2.86,1.4,3,3,0,0,1-2.07-.68,2.32,2.32,0,0,1-.77-1.85,2.5,2.5,0,0,1,.19-1,1.88,1.88,0,0,1,.48-.68,2.73,2.73,0,0,1,.69-.44,4.38,4.38,0,0,1,.75-.25l.77-.14.54-.06.55-.07.47-.09a1.85,1.85,0,0,0,.45-.14,2.23,2.23,0,0,0,.32-.19.73.73,0,0,0,.24-.29.94.94,0,0,0,.07-.39,1,1,0,0,0-.56-.93,2.87,2.87,0,0,0-1.33-.29,4.24,4.24,0,0,0-2.59.88l-.64-1.05a5.75,5.75,0,0,1,3.33-1.06,3.77,3.77,0,0,1,2.35.67,2.43,2.43,0,0,1,.87,2.05v3.94c0,.6.22.89.65.89A.88.88,0,0,0,739.86,281.38Zm-2.55-2.12v-1.44a1.62,1.62,0,0,1-.34.35,1.4,1.4,0,0,1-.46.21l-.45.12c-.11,0-.3.06-.57.1l-.58.09a3.53,3.53,0,0,0-1.29.42,1.09,1.09,0,0,0-.43,1,1.21,1.21,0,0,0,.48,1,2,2,0,0,0,1.24.35,2.61,2.61,0,0,0,1.71-.56A2,2,0,0,0,737.31,279.26Z"/><path class="cls-6" d="M745.72,281l.59,1.06a2.89,2.89,0,0,1-1.81.56,2.39,2.39,0,0,1-2.18-1.06A3.12,3.12,0,0,1,742,280V275.3h-1.44v-1.16H742v-2.33h1.39v2.33h2.69v1.16h-2.69V280c0,1,.43,1.44,1.28,1.44A1.73,1.73,0,0,0,745.72,281Z"/><path class="cls-6" d="M755.28,278.1a4.16,4.16,0,0,1,0,.54h-6.53a2.94,2.94,0,0,0,.82,2,2.75,2.75,0,0,0,2,.73,3.28,3.28,0,0,0,2.47-1.09l.92.91a4.47,4.47,0,0,1-3.42,1.46,4.1,4.1,0,0,1-3.12-1.21,4.35,4.35,0,0,1-1.14-3.11,4.51,4.51,0,0,1,1.12-3.14,3.78,3.78,0,0,1,3-1.25,3.71,3.71,0,0,1,2.88,1.19A4.18,4.18,0,0,1,755.28,278.1Zm-6.53-.53h5.09a2.64,2.64,0,0,0-.81-1.79,2.51,2.51,0,0,0-1.73-.63,2.46,2.46,0,0,0-1.77.67A2.66,2.66,0,0,0,748.75,277.57Z"/><path class="cls-6" d="M758.77,280.77v1.57a3.28,3.28,0,0,1-1.26,2.54l-.52-.53a2,2,0,0,0,.88-1.55v-.34h-.81v-1.69Z"/><path class="cls-6" d="M771.84,280a2.35,2.35,0,0,1-.91,1.93,3.94,3.94,0,0,1-2.5.73,4.1,4.1,0,0,1-3.68-1.78l1-.77a3.18,3.18,0,0,0,2.74,1.35,2.52,2.52,0,0,0,1.4-.35,1.12,1.12,0,0,0,.53-1,.82.82,0,0,0-.48-.81,8.79,8.79,0,0,0-1.81-.48A6.12,6.12,0,0,1,766,278a1.81,1.81,0,0,1-.76-1.63,2.07,2.07,0,0,1,.9-1.82,3.78,3.78,0,0,1,2.22-.63,4.48,4.48,0,0,1,3.37,1.39l-.93.88a3.1,3.1,0,0,0-2.46-1.07,2.65,2.65,0,0,0-1.25.28.91.91,0,0,0-.51.84.77.77,0,0,0,.12.43,1.24,1.24,0,0,0,.27.32,1.59,1.59,0,0,0,.47.22,4.81,4.81,0,0,0,.56.15l.64.13c.41.08.74.14,1,.21a6.22,6.22,0,0,1,.86.29,2.22,2.22,0,0,1,.74.43,2,2,0,0,1,.46.64A2,2,0,0,1,771.84,280Z"/><path class="cls-6" d="M775.17,278.45l4.18-4.31h1.76l-3.36,3.41,3.79,4.91h-1.76l-3-4-1.6,1.62v2.36h-1.39V271h1.39Z"/><path class="cls-6" d="M790.05,278.1a4.16,4.16,0,0,1,0,.54h-6.53a2.89,2.89,0,0,0,.82,2,2.75,2.75,0,0,0,2,.73,3.24,3.24,0,0,0,2.46-1.09l.93.91a4.48,4.48,0,0,1-3.42,1.46,4.1,4.1,0,0,1-3.12-1.21,4.35,4.35,0,0,1-1.14-3.11,4.55,4.55,0,0,1,1.11-3.14,3.81,3.81,0,0,1,3-1.25,3.71,3.71,0,0,1,2.88,1.19A4.18,4.18,0,0,1,790.05,278.1Zm-6.53-.53h5.09a2.65,2.65,0,0,0-.82-1.79,2.67,2.67,0,0,0-3.49,0A2.61,2.61,0,0,0,783.52,277.57Z"/><path class="cls-6" d="M796.16,281l.59,1.06a2.86,2.86,0,0,1-1.8.56,2.37,2.37,0,0,1-2.18-1.06,3.12,3.12,0,0,1-.35-1.65V275.3H791v-1.16h1.44v-2.33h1.39v2.33h2.69v1.16h-2.69V280c0,1,.43,1.44,1.28,1.44A1.7,1.7,0,0,0,796.16,281Z"/><path class="cls-6" d="M804,280.14l1.07.77a3.86,3.86,0,0,1-3.36,1.75,3.7,3.7,0,0,1-2.92-1.24,4.94,4.94,0,0,1,0-6.24,3.73,3.73,0,0,1,2.92-1.23,3.83,3.83,0,0,1,3.32,1.73l-1,.83a2.51,2.51,0,0,0-2.23-1.29,2.31,2.31,0,0,0-1.89.87,3.77,3.77,0,0,0,0,4.43,2.3,2.3,0,0,0,1.88.87A2.56,2.56,0,0,0,804,280.14Z"/><path class="cls-6" d="M808.19,282.46H806.8V271h1.39v4.48A3.3,3.3,0,0,1,811,274a2.79,2.79,0,0,1,2.13.83,3.27,3.27,0,0,1,.78,2.32v5.36h-1.39v-5c0-1.44-.62-2.16-1.85-2.16a2.41,2.41,0,0,0-1.8.72,2.55,2.55,0,0,0-.72,1.88Z"/><path class="cls-6" d="M818,280.77v1.57a3.28,3.28,0,0,1-1.26,2.54l-.52-.53a2,2,0,0,0,.88-1.55v-.34h-.81v-1.69Z"/><path class="cls-6" d="M726.37,293.34h1.39v1.38a3.67,3.67,0,0,1,5.75-.34,4.72,4.72,0,0,1,1,3.12,4.64,4.64,0,0,1-1,3.12,3.66,3.66,0,0,1-5.74-.32v4.15h-1.39Zm2.1,2a3.4,3.4,0,0,0-.71,2.2,3.33,3.33,0,0,0,.71,2.19,2.43,2.43,0,0,0,2,.87,2.33,2.33,0,0,0,1.94-.86,3.49,3.49,0,0,0,.67-2.2,3.54,3.54,0,0,0-.67-2.21,2.33,2.33,0,0,0-1.94-.86A2.4,2.4,0,0,0,728.47,295.32Z"/><path class="cls-6" d="M741.44,293.49l-.45,1.33a2,2,0,0,0-1-.26,1.94,1.94,0,0,0-1.51.74,3,3,0,0,0-.63,2v4.33H736.5v-8.32h1.39v1.41a2.84,2.84,0,0,1,2.42-1.57A2.05,2.05,0,0,1,741.44,293.49Z"/><path class="cls-6" d="M750.29,297.52a4.41,4.41,0,0,1-1.12,3.12,4.25,4.25,0,0,1-6,0,5,5,0,0,1,0-6.26,4.22,4.22,0,0,1,6,0A4.44,4.44,0,0,1,750.29,297.52Zm-1.49,0a3.47,3.47,0,0,0-.69-2.23,2.55,2.55,0,0,0-3.84,0,3.89,3.89,0,0,0,0,4.45,2.55,2.55,0,0,0,3.84,0A3.46,3.46,0,0,0,748.8,297.52Z"/><path class="cls-6" d="M756.48,300.24l.59,1.06a2.86,2.86,0,0,1-1.8.56,2.37,2.37,0,0,1-2.18-1.06,3.12,3.12,0,0,1-.35-1.65V294.5H751.3v-1.16h1.44V291h1.39v2.33h2.69v1.16h-2.69v4.65c0,1,.43,1.44,1.28,1.44A1.7,1.7,0,0,0,756.48,300.24Z"/><path class="cls-6" d="M766.19,297.52a4.41,4.41,0,0,1-1.12,3.12,3.83,3.83,0,0,1-3,1.22,3.87,3.87,0,0,1-3-1.22,5,5,0,0,1,0-6.26,3.85,3.85,0,0,1,3-1.23,3.8,3.8,0,0,1,3,1.23A4.44,4.44,0,0,1,766.19,297.52Zm-1.48,0a3.48,3.48,0,0,0-.7-2.23,2.31,2.31,0,0,0-1.91-.87,2.34,2.34,0,0,0-1.92.87,3.84,3.84,0,0,0,0,4.45,2.34,2.34,0,0,0,1.92.87,2.31,2.31,0,0,0,1.91-.87A3.47,3.47,0,0,0,764.71,297.52Z"/><path class="cls-6" d="M772.39,300.24l.59,1.06a2.89,2.89,0,0,1-1.81.56A2.39,2.39,0,0,1,769,300.8a3.12,3.12,0,0,1-.35-1.65V294.5H767.2v-1.16h1.44V291H770v2.33h2.69v1.16H770v4.65c0,1,.43,1.44,1.28,1.44A1.73,1.73,0,0,0,772.39,300.24Z"/><path class="cls-6" d="M781.52,293.34l-3.33,8.71a5.5,5.5,0,0,1-1.13,1.95,2.36,2.36,0,0,1-1.73.61,2.83,2.83,0,0,1-1.7-.51l.61-1a1.71,1.71,0,0,0,1,.32,1.19,1.19,0,0,0,.87-.33,3.18,3.18,0,0,0,.61-.93l.22-.5-3.52-8.29H775l2.66,6.47,2.35-6.47Z"/><path class="cls-6" d="M783,293.34h1.39v1.38a3.66,3.66,0,0,1,5.74-.34,5.2,5.2,0,0,1,0,6.24,3.66,3.66,0,0,1-5.74-.32v4.15H783Zm2.09,2a3.45,3.45,0,0,0-.7,2.2,3.33,3.33,0,0,0,.71,2.19,2.43,2.43,0,0,0,2,.87,2.3,2.3,0,0,0,1.93-.86,3.44,3.44,0,0,0,.68-2.2,3.49,3.49,0,0,0-.68-2.21,2.3,2.3,0,0,0-1.93-.86A2.42,2.42,0,0,0,785.1,295.32Z"/><path class="cls-6" d="M800.64,297.3a4.16,4.16,0,0,1,0,.54h-6.53a2.89,2.89,0,0,0,.82,2,2.75,2.75,0,0,0,2,.73,3.28,3.28,0,0,0,2.47-1.09l.92.91a4.48,4.48,0,0,1-3.42,1.46,4.1,4.1,0,0,1-3.12-1.21,4.35,4.35,0,0,1-1.14-3.11,4.51,4.51,0,0,1,1.12-3.14,3.78,3.78,0,0,1,3-1.25,3.71,3.71,0,0,1,2.88,1.19A4.18,4.18,0,0,1,800.64,297.3Zm-6.53-.53h5.09a2.68,2.68,0,0,0-.81-1.79,2.51,2.51,0,0,0-1.73-.63,2.46,2.46,0,0,0-1.77.67A2.66,2.66,0,0,0,794.11,296.77Z"/><path class="cls-6" d="M915.48,282.46H914V271.81h1.49Z"/><path class="cls-6" d="M919.56,282.46h-1.39v-8.32h1.39v1.38a3.3,3.3,0,0,1,2.85-1.57,2.81,2.81,0,0,1,2.13.83,3.27,3.27,0,0,1,.78,2.32v5.36h-1.39v-5q0-2.16-1.86-2.16a2.44,2.44,0,0,0-1.8.72,2.58,2.58,0,0,0-.71,1.88Z"/><path class="cls-6" d="M932,281l.59,1.06a2.86,2.86,0,0,1-1.8.56,2.37,2.37,0,0,1-2.18-1.06,3,3,0,0,1-.35-1.65V275.3h-1.44v-1.16h1.44v-2.33h1.39v2.33h2.69v1.16h-2.69V280c0,1,.43,1.44,1.28,1.44A1.7,1.7,0,0,0,932,281Z"/><path class="cls-6" d="M941.53,278.1a4.16,4.16,0,0,1,0,.54H935a2.85,2.85,0,0,0,.82,2,2.75,2.75,0,0,0,2,.73,3.24,3.24,0,0,0,2.46-1.09l.93.91a4.5,4.5,0,0,1-3.42,1.46,4.07,4.07,0,0,1-3.12-1.21,4.35,4.35,0,0,1-1.14-3.11,4.55,4.55,0,0,1,1.11-3.14,3.79,3.79,0,0,1,3-1.25,3.71,3.71,0,0,1,2.88,1.19A4.18,4.18,0,0,1,941.53,278.1Zm-6.53-.53h5.09a2.69,2.69,0,0,0-.82-1.79,2.49,2.49,0,0,0-1.73-.63,2.46,2.46,0,0,0-1.76.67A2.57,2.57,0,0,0,935,277.57Z"/><path class="cls-6" d="M948.35,274.29l-.45,1.33a2,2,0,0,0-1-.26,1.93,1.93,0,0,0-1.51.74,3,3,0,0,0-.64,2v4.33H943.4v-8.32h1.39v1.41a2.84,2.84,0,0,1,2.42-1.57A2.06,2.06,0,0,1,948.35,274.29Z"/><path class="cls-6" d="M957.15,281.38l.17,1.05a2.41,2.41,0,0,1-1,.16,1.74,1.74,0,0,1-1.08-.33,1.41,1.41,0,0,1-.53-1,3.3,3.3,0,0,1-2.87,1.4,3,3,0,0,1-2.06-.68,2.63,2.63,0,0,1-.58-2.84,2,2,0,0,1,.47-.68,2.8,2.8,0,0,1,.7-.44,4.38,4.38,0,0,1,.75-.25l.77-.14.54-.06.55-.07.47-.09a1.85,1.85,0,0,0,.45-.14,2.23,2.23,0,0,0,.32-.19.73.73,0,0,0,.24-.29,1.13,1.13,0,0,0,.07-.39,1,1,0,0,0-.56-.93,2.9,2.9,0,0,0-1.33-.29,4.24,4.24,0,0,0-2.59.88l-.64-1.05a5.7,5.7,0,0,1,3.33-1.06,3.79,3.79,0,0,1,2.35.67,2.45,2.45,0,0,1,.86,2.05v3.94c0,.6.22.89.66.89A.9.9,0,0,0,957.15,281.38Zm-2.55-2.12v-1.44a1.62,1.62,0,0,1-.34.35,1.46,1.46,0,0,1-.47.21,3.38,3.38,0,0,1-.44.12l-.57.1-.58.09a3.4,3.4,0,0,0-1.29.42,1.1,1.1,0,0,0-.44,1,1.21,1.21,0,0,0,.48,1,2,2,0,0,0,1.25.35,2.63,2.63,0,0,0,1.71-.56A2,2,0,0,0,954.6,279.26Z"/><path class="cls-6" d="M964.54,280.14l1.07.77a3.86,3.86,0,0,1-3.36,1.75,3.72,3.72,0,0,1-2.93-1.24,5,5,0,0,1,0-6.24,3.75,3.75,0,0,1,2.93-1.23,3.82,3.82,0,0,1,3.31,1.73l-1,.83a2.48,2.48,0,0,0-2.22-1.29,2.34,2.34,0,0,0-1.9.87,3.81,3.81,0,0,0,0,4.43,2.31,2.31,0,0,0,1.88.87A2.58,2.58,0,0,0,964.54,280.14Z"/><path class="cls-6" d="M971.58,281l.59,1.06a2.87,2.87,0,0,1-1.81.56,2.36,2.36,0,0,1-2.17-1.06,3,3,0,0,1-.36-1.65V275.3h-1.44v-1.16h1.44v-2.33h1.4v2.33h2.68v1.16h-2.68V280c0,1,.42,1.44,1.28,1.44A1.72,1.72,0,0,0,971.58,281Z"/><path class="cls-6" d="M975,272.51h-1.39V271H975Zm0,9.95h-1.39v-8.32H975Z"/><path class="cls-6" d="M984.62,274.14l-3.33,8.32h-1.46l-3.33-8.32h1.57l2.51,6.66,2.52-6.66Z"/><path class="cls-6" d="M993.51,278.1a4.16,4.16,0,0,1,0,.54H987a2.94,2.94,0,0,0,.82,2,2.75,2.75,0,0,0,2,.73,3.28,3.28,0,0,0,2.47-1.09l.92.91a4.47,4.47,0,0,1-3.42,1.46,4.1,4.1,0,0,1-3.12-1.21,4.35,4.35,0,0,1-1.14-3.11,4.51,4.51,0,0,1,1.12-3.14,3.78,3.78,0,0,1,3-1.25,3.71,3.71,0,0,1,2.88,1.19A4.18,4.18,0,0,1,993.51,278.1Zm-6.53-.53h5.09a2.64,2.64,0,0,0-.81-1.79,2.51,2.51,0,0,0-1.73-.63,2.46,2.46,0,0,0-1.77.67A2.66,2.66,0,0,0,987,277.57Z"/><path class="cls-6" d="M1007.35,282.46H1006V281.1a3.66,3.66,0,0,1-5.74.32,4.6,4.6,0,0,1-1-3.1,4.68,4.68,0,0,1,1-3.14,3.66,3.66,0,0,1,5.74.34V271h1.39Zm-2.1-2a3.75,3.75,0,0,0,0-4.39,2.46,2.46,0,0,0-2-.86,2.31,2.31,0,0,0-1.94.85,4,4,0,0,0,0,4.41,2.3,2.3,0,0,0,1.94.87A2.42,2.42,0,0,0,1005.25,280.5Z"/><path class="cls-6" d="M1017.35,278.1a4.16,4.16,0,0,1,0,.54h-6.53a2.89,2.89,0,0,0,.82,2,2.75,2.75,0,0,0,2,.73,3.28,3.28,0,0,0,2.47-1.09l.92.91a4.47,4.47,0,0,1-3.42,1.46,4.1,4.1,0,0,1-3.12-1.21,4.35,4.35,0,0,1-1.14-3.11,4.51,4.51,0,0,1,1.12-3.14,3.78,3.78,0,0,1,3-1.25,3.71,3.71,0,0,1,2.88,1.19A4.18,4.18,0,0,1,1017.35,278.1Zm-6.53-.53h5.09a2.64,2.64,0,0,0-.81-1.79,2.51,2.51,0,0,0-1.73-.63,2.46,2.46,0,0,0-1.77.67A2.66,2.66,0,0,0,1010.82,277.57Z"/><path class="cls-6" d="M1025.58,280a2.36,2.36,0,0,1-.92,1.93,3.91,3.91,0,0,1-2.49.73,4.09,4.09,0,0,1-3.68-1.78l1-.77a3.19,3.19,0,0,0,2.74,1.35,2.58,2.58,0,0,0,1.41-.35,1.12,1.12,0,0,0,.52-1,.82.82,0,0,0-.48-.81,8.84,8.84,0,0,0-1.8-.48,6.05,6.05,0,0,1-2.21-.79,1.82,1.82,0,0,1-.77-1.63,2.07,2.07,0,0,1,.9-1.82A3.82,3.82,0,0,1,1022,274a4.5,4.5,0,0,1,3.38,1.39l-.93.88a3.12,3.12,0,0,0-2.47-1.07,2.61,2.61,0,0,0-1.24.28.92.92,0,0,0-.52.84.77.77,0,0,0,.12.43,1.1,1.1,0,0,0,.28.32,1.48,1.48,0,0,0,.47.22,4.72,4.72,0,0,0,.55.15l.65.13c.4.08.73.14,1,.21a5.81,5.81,0,0,1,.86.29,2.39,2.39,0,0,1,.75.43,2,2,0,0,1,.45.64A2,2,0,0,1,1025.58,280Z"/><path class="cls-6" d="M1028.9,272.51h-1.39V271h1.39Zm0,9.95h-1.39v-8.32h1.39Z"/><path class="cls-6" d="M1039.08,274.14v7a3.85,3.85,0,0,1-4.4,4.29,6,6,0,0,1-3.47-1l.7-1.14a4.62,4.62,0,0,0,2.79.86,3.29,3.29,0,0,0,2.17-.67,2.49,2.49,0,0,0,.82-2.06v-.9a3,3,0,0,1-1.3,1.16,4,4,0,0,1-1.74.39,3.5,3.5,0,0,1-2.71-1.14,4.49,4.49,0,0,1,0-5.81,3.59,3.59,0,0,1,2.74-1.16,3.26,3.26,0,0,1,3,1.57v-1.38ZM1037.7,278a2.81,2.81,0,0,0-.72-2,2.55,2.55,0,0,0-2-.79,2.41,2.41,0,0,0-1.94.79,2.92,2.92,0,0,0-.68,2,3,3,0,0,0,.68,2,2.41,2.41,0,0,0,1.94.8,2.58,2.58,0,0,0,2-.8A2.92,2.92,0,0,0,1037.7,278Z"/><path class="cls-6" d="M1043,282.46h-1.39v-8.32H1043v1.38a3.28,3.28,0,0,1,2.85-1.57,2.79,2.79,0,0,1,2.12.83,3.23,3.23,0,0,1,.79,2.32v5.36h-1.39v-5q0-2.16-1.86-2.16a2.41,2.41,0,0,0-1.8.72,2.54,2.54,0,0,0-.71,1.88Z"/><path class="cls-6" d="M1052.74,280.77v1.57a3.28,3.28,0,0,1-1.26,2.54l-.51-.53a2,2,0,0,0,.88-1.55v-.34H1051v-1.69Z"/><path class="cls-6" d="M955,300.24l.59,1.06a2.89,2.89,0,0,1-1.81.56,2.39,2.39,0,0,1-2.18-1.06,3.12,3.12,0,0,1-.35-1.65V294.5h-1.44v-1.16h1.44V291h1.39v2.33h2.69v1.16h-2.69v4.65c0,1,.43,1.44,1.28,1.44A1.73,1.73,0,0,0,955,300.24Z"/><path class="cls-6" d="M964.59,297.3a4.16,4.16,0,0,1,0,.54H958a2.94,2.94,0,0,0,.82,2,2.75,2.75,0,0,0,2,.73,3.28,3.28,0,0,0,2.47-1.09l.92.91a4.47,4.47,0,0,1-3.42,1.46,4.1,4.1,0,0,1-3.12-1.21,4.35,4.35,0,0,1-1.14-3.11,4.51,4.51,0,0,1,1.12-3.14,3.78,3.78,0,0,1,3-1.25,3.71,3.71,0,0,1,2.88,1.19A4.18,4.18,0,0,1,964.59,297.3Zm-6.53-.53h5.09a2.64,2.64,0,0,0-.81-1.79,2.51,2.51,0,0,0-1.73-.63,2.46,2.46,0,0,0-1.77.67A2.66,2.66,0,0,0,958.06,296.77Z"/><path class="cls-6" d="M972.82,299.2a2.38,2.38,0,0,1-.91,1.93,4,4,0,0,1-2.5.73,4.09,4.09,0,0,1-3.68-1.78l1-.77a3.19,3.19,0,0,0,2.74,1.35,2.56,2.56,0,0,0,1.41-.35,1.12,1.12,0,0,0,.52-1,.82.82,0,0,0-.48-.81,8.83,8.83,0,0,0-1.8-.48,6.05,6.05,0,0,1-2.21-.79,1.82,1.82,0,0,1-.77-1.63,2.07,2.07,0,0,1,.9-1.82,3.82,3.82,0,0,1,2.22-.63,4.5,4.5,0,0,1,3.38,1.39l-.93.88a3.12,3.12,0,0,0-2.47-1.07,2.61,2.61,0,0,0-1.24.28.92.92,0,0,0-.52.84.77.77,0,0,0,.12.43,1.1,1.1,0,0,0,.28.32,1.59,1.59,0,0,0,.47.22,4.72,4.72,0,0,0,.55.15l.65.13c.4.08.73.14,1,.21a5.81,5.81,0,0,1,.86.29,2.28,2.28,0,0,1,.75.43,2,2,0,0,1,.45.64A2,2,0,0,1,972.82,299.2Z"/><path class="cls-6" d="M979,300.24l.59,1.06a2.86,2.86,0,0,1-1.8.56,2.37,2.37,0,0,1-2.18-1.06,3.12,3.12,0,0,1-.35-1.65V294.5h-1.44v-1.16h1.44V291h1.39v2.33h2.69v1.16h-2.69v4.65c0,1,.43,1.44,1.28,1.44A1.7,1.7,0,0,0,979,300.24Z"/><path class="cls-6" d="M982.67,300v1.57a3.28,3.28,0,0,1-1.26,2.54l-.51-.53a2,2,0,0,0,.88-1.55v-.34H981V300Z"/><path class="cls-6" d="M996.85,300.58l.17,1.05a2.41,2.41,0,0,1-1,.16,1.78,1.78,0,0,1-1.08-.33,1.41,1.41,0,0,1-.53-1,3.28,3.28,0,0,1-2.87,1.4,3,3,0,0,1-2.06-.68,2.32,2.32,0,0,1-.77-1.85,2.5,2.5,0,0,1,.19-1,1.88,1.88,0,0,1,.48-.68,2.56,2.56,0,0,1,.69-.44,4.38,4.38,0,0,1,.75-.25l.77-.14.54-.06.55-.07.47-.09a1.85,1.85,0,0,0,.45-.14,2.23,2.23,0,0,0,.32-.19.73.73,0,0,0,.24-.29.94.94,0,0,0,.07-.39,1,1,0,0,0-.56-.93,2.87,2.87,0,0,0-1.33-.29,4.24,4.24,0,0,0-2.59.88l-.64-1.05a5.75,5.75,0,0,1,3.33-1.06,3.77,3.77,0,0,1,2.35.67,2.43,2.43,0,0,1,.87,2.05v3.94c0,.6.21.89.65.89A.88.88,0,0,0,996.85,300.58Zm-2.55-2.12V297a1.62,1.62,0,0,1-.34.35,1.4,1.4,0,0,1-.46.21l-.45.12c-.11,0-.3.06-.57.1l-.58.09a3.53,3.53,0,0,0-1.29.42,1.09,1.09,0,0,0-.43,1,1.21,1.21,0,0,0,.48,1.05,2,2,0,0,0,1.24.35,2.61,2.61,0,0,0,1.71-.56A2,2,0,0,0,994.3,298.46Z"/><path class="cls-6" d="M999.86,301.66h-1.4v-8.32h1.4v1.38a3.3,3.3,0,0,1,2.84-1.57,2.79,2.79,0,0,1,2.13.83,3.23,3.23,0,0,1,.79,2.32v5.36h-1.4v-5c0-1.44-.61-2.16-1.85-2.16a2.41,2.41,0,0,0-1.8.72,2.54,2.54,0,0,0-.71,1.88Z"/><path class="cls-6" d="M1015.66,301.66h-1.39V300.3a3.66,3.66,0,0,1-5.74.32,4.6,4.6,0,0,1-1-3.1,4.68,4.68,0,0,1,1-3.14,3.66,3.66,0,0,1,5.74.34v-4.48h1.39Zm-2.1-2a3.75,3.75,0,0,0,0-4.39,2.45,2.45,0,0,0-2-.86,2.33,2.33,0,0,0-1.94.85,4,4,0,0,0,0,4.41,2.31,2.31,0,0,0,1.94.87A2.4,2.4,0,0,0,1013.56,299.7Z"/><path class="cls-6" d="M925.6,310.91h-1.39v-1.47h1.39Zm0,9.95h-1.39v-8.32h1.39Z"/><path class="cls-6" d="M929.49,320.86H928.1v-8.32h1.39v1.35a3.12,3.12,0,0,1,2.7-1.54,2.4,2.4,0,0,1,2.5,1.68,3.37,3.37,0,0,1,2.94-1.68,2.62,2.62,0,0,1,2.07.82,3.22,3.22,0,0,1,.75,2.27v5.42h-1.39v-5.08c0-1.41-.58-2.12-1.75-2.12a2.21,2.21,0,0,0-1.68.72,2.53,2.53,0,0,0-.67,1.83v4.65h-1.39v-5.08c0-1.41-.58-2.12-1.75-2.12a2.2,2.2,0,0,0-1.68.71,2.62,2.62,0,0,0-.65,1.84Z"/><path class="cls-6" d="M942.85,312.54h1.39v1.38a3.41,3.41,0,0,1,3-1.57,3.45,3.45,0,0,1,2.78,1.23,5.2,5.2,0,0,1,0,6.24,3.66,3.66,0,0,1-5.74-.32v4.15h-1.39Zm2.09,2a3.37,3.37,0,0,0-.7,2.2,3.33,3.33,0,0,0,.71,2.19,2.43,2.43,0,0,0,2,.87,2.3,2.3,0,0,0,1.93-.86,3.44,3.44,0,0,0,.68-2.2,3.49,3.49,0,0,0-.68-2.21,2.3,2.3,0,0,0-1.93-.86A2.42,2.42,0,0,0,944.94,314.52Z"/><path class="cls-6" d="M954.42,320.86H953V309.44h1.4Z"/><path class="cls-6" d="M964.46,316.5a4.16,4.16,0,0,1,0,.54h-6.52a2.89,2.89,0,0,0,.81,2,2.75,2.75,0,0,0,2,.73,3.25,3.25,0,0,0,2.47-1.09l.93.91a4.5,4.5,0,0,1-3.43,1.46,4.1,4.1,0,0,1-3.12-1.21,4.35,4.35,0,0,1-1.13-3.11,4.55,4.55,0,0,1,1.11-3.14,3.79,3.79,0,0,1,3-1.25,3.74,3.74,0,0,1,2.88,1.19A4.22,4.22,0,0,1,964.46,316.5Zm-6.52-.53H963a2.64,2.64,0,0,0-.81-1.79,2.68,2.68,0,0,0-3.5,0A2.61,2.61,0,0,0,957.94,316Z"/><path class="cls-6" d="M967.73,320.86h-1.39v-8.32h1.39v1.35a3.12,3.12,0,0,1,2.7-1.54,2.4,2.4,0,0,1,2.5,1.68,3.37,3.37,0,0,1,2.94-1.68,2.66,2.66,0,0,1,2.08.82,3.26,3.26,0,0,1,.74,2.27v5.42H977.3v-5.08c0-1.41-.58-2.12-1.75-2.12a2.21,2.21,0,0,0-1.68.72,2.53,2.53,0,0,0-.67,1.83v4.65h-1.39v-5.08c0-1.41-.58-2.12-1.75-2.12a2.2,2.2,0,0,0-1.68.71,2.62,2.62,0,0,0-.65,1.84Z"/><path class="cls-6" d="M988.59,316.5a4.16,4.16,0,0,1,0,.54H982a2.94,2.94,0,0,0,.82,2,2.75,2.75,0,0,0,2,.73,3.28,3.28,0,0,0,2.47-1.09l.92.91a4.47,4.47,0,0,1-3.42,1.46,4.1,4.1,0,0,1-3.12-1.21,4.35,4.35,0,0,1-1.14-3.11,4.51,4.51,0,0,1,1.12-3.14,3.78,3.78,0,0,1,3-1.25,3.71,3.71,0,0,1,2.88,1.19A4.18,4.18,0,0,1,988.59,316.5Zm-6.53-.53h5.09a2.64,2.64,0,0,0-.81-1.79,2.51,2.51,0,0,0-1.73-.63,2.46,2.46,0,0,0-1.77.67A2.66,2.66,0,0,0,982.06,316Z"/><path class="cls-6" d="M991.86,320.86h-1.4v-8.32h1.4v1.38a3.28,3.28,0,0,1,2.84-1.57,2.79,2.79,0,0,1,2.13.83,3.23,3.23,0,0,1,.79,2.32v5.36h-1.4v-5c0-1.44-.61-2.16-1.85-2.16a2.41,2.41,0,0,0-1.8.72,2.54,2.54,0,0,0-.71,1.88Z"/><path class="cls-6" d="M1004.26,319.44l.59,1.06a2.87,2.87,0,0,1-1.81.56,2.39,2.39,0,0,1-2.18-1.06,3.12,3.12,0,0,1-.35-1.65V313.7h-1.44v-1.16h1.44v-2.33h1.39v2.33h2.69v1.16h-2.69v4.65c0,1,.43,1.44,1.28,1.44A1.73,1.73,0,0,0,1004.26,319.44Z"/><path class="cls-6" d="M1013.78,319.78l.17,1.05a2.41,2.41,0,0,1-1,.16,1.76,1.76,0,0,1-1.08-.33,1.41,1.41,0,0,1-.53-1,3.28,3.28,0,0,1-2.87,1.4,3,3,0,0,1-2.06-.68,2.63,2.63,0,0,1-.58-2.84,2,2,0,0,1,.47-.68,2.8,2.8,0,0,1,.7-.44,4.38,4.38,0,0,1,.75-.25l.77-.14.54-.06.55-.07.47-.09a1.85,1.85,0,0,0,.45-.14,2.23,2.23,0,0,0,.32-.19.73.73,0,0,0,.24-.29.94.94,0,0,0,.07-.39,1,1,0,0,0-.56-.93,2.9,2.9,0,0,0-1.33-.29,4.24,4.24,0,0,0-2.59.88l-.64-1a5.7,5.7,0,0,1,3.33-1.06,3.79,3.79,0,0,1,2.35.67,2.42,2.42,0,0,1,.86,2.05V319c0,.6.22.89.66.89A.9.9,0,0,0,1013.78,319.78Zm-2.55-2.12v-1.44a1.62,1.62,0,0,1-.34.35,1.36,1.36,0,0,1-.47.21,3.38,3.38,0,0,1-.44.12l-.57.1-.58.09a3.47,3.47,0,0,0-1.29.42,1.1,1.1,0,0,0-.44,1,1.21,1.21,0,0,0,.48,1.05,2,2,0,0,0,1.25.35,2.63,2.63,0,0,0,1.71-.56A2,2,0,0,0,1011.23,317.66Z"/><path class="cls-6" d="M1019.63,319.44l.59,1.06a2.86,2.86,0,0,1-1.8.56,2.37,2.37,0,0,1-2.18-1.06,3.12,3.12,0,0,1-.35-1.65V313.7h-1.44v-1.16h1.44v-2.33h1.39v2.33H1020v1.16h-2.69v4.65c0,1,.43,1.44,1.28,1.44A1.7,1.7,0,0,0,1019.63,319.44Z"/><path class="cls-6" d="M1023.09,310.91h-1.39v-1.47h1.39Zm0,9.95h-1.39v-8.32h1.39Z"/><path class="cls-6" d="M1033.23,316.72a4.41,4.41,0,0,1-1.12,3.12,4.25,4.25,0,0,1-6,0,5,5,0,0,1,0-6.26,4.22,4.22,0,0,1,6,0A4.44,4.44,0,0,1,1033.23,316.72Zm-1.49,0a3.47,3.47,0,0,0-.69-2.23,2.54,2.54,0,0,0-3.83,0,3.84,3.84,0,0,0,0,4.45,2.54,2.54,0,0,0,3.83,0A3.48,3.48,0,0,0,1031.74,316.72Z"/><path class="cls-6" d="M1036.58,320.86h-1.4v-8.32h1.4v1.38a3.28,3.28,0,0,1,2.84-1.57,2.79,2.79,0,0,1,2.13.83,3.28,3.28,0,0,1,.79,2.32v5.36h-1.4v-5c0-1.44-.61-2.16-1.85-2.16a2.41,2.41,0,0,0-1.8.72,2.54,2.54,0,0,0-.71,1.88Z"/><path class="cls-7" d="M473.08,465.75v26.39c0,11.36,9.2,19.07,20.55,19.07H706.28a20.84,20.84,0,0,0,20.83-20.84V463.58"/><polygon class="cls-8" points="464.9 472.38 466.37 473.74 473.08 466.52 479.79 473.74 481.26 472.38 473.08 463.58 464.9 472.38"/><path class="cls-7" d="M727.11,94.3V67.91c0-11.35-9.2-19.06-20.55-19.06H493.91a20.83,20.83,0,0,0-20.83,20.83V96.47"/><polygon class="cls-8" points="735.29 87.68 733.83 86.31 727.11 93.53 720.4 86.31 718.93 87.68 727.11 96.47 735.29 87.68"/><line class="cls-9" x1="599.98" y1="65.2" x2="599.98" y2="496.22"/><line class="cls-9" x1="54.2" y1="65.2" x2="54.2" y2="496.22"/><line class="cls-9" x1="1145.78" y1="64.4" x2="1145.78" y2="495.42"/><circle class="cls-10" cx="54.2" cy="279.76" r="51.28"/><circle class="cls-10" cx="599.98" cy="279.76" r="51.28"/><circle class="cls-10" cx="1144.77" cy="279.76" r="51.28"/><path class="cls-6" d="M150.38,172.62l-2.92,2.92L139.93,168l2.91-2.92a4.93,4.93,0,0,1,3.74-1.63,6,6,0,0,1,5.43,5.43A4.91,4.91,0,0,1,150.38,172.62Zm-2.82.87,1.85-1.84a3.38,3.38,0,0,0,1.13-2.64,4.92,4.92,0,0,0-4.09-4.08,3.36,3.36,0,0,0-2.63,1.13L142,167.9Z"/><path class="cls-6" d="M149.42,159.51l-1,1-1-1,1-1Zm7,7-1,1-5.88-5.88,1-1Z"/><path class="cls-6" d="M157.35,153.89l3.53,8.23-1,1-8.24-3.53,1.11-1.11,6.48,2.93L156.27,155Z"/><path class="cls-6" d="M166.43,150.39a3.9,3.9,0,0,1,.36.41l-4.61,4.61a2.86,2.86,0,0,0,2,.85,2.73,2.73,0,0,0,1.91-.89,3.25,3.25,0,0,0,1-2.51h1.3a4.51,4.51,0,0,1-1.4,3.45,4.09,4.09,0,0,1-3.06,1.35,4.34,4.34,0,0,1-3-1.4,4.52,4.52,0,0,1-1.43-3,3.77,3.77,0,0,1,1.22-3,3.68,3.68,0,0,1,2.87-1.2A4.15,4.15,0,0,1,166.43,150.39Zm-5,4.24L165,151a2.67,2.67,0,0,0-1.84-.69,2.51,2.51,0,0,0-1.67.78,2.44,2.44,0,0,0-.77,1.72A2.57,2.57,0,0,0,161.44,154.63Z"/><path class="cls-6" d="M168.56,142.88l.62,1.25a2.15,2.15,0,0,0-.86.5,1.93,1.93,0,0,0-.54,1.6,3,3,0,0,0,1,1.88l3.07,3.06-1,1L165,146.27l1-1,1,1a2.81,2.81,0,0,1,.6-2.81A2,2,0,0,1,168.56,142.88Z"/><path class="cls-6" d="M174.74,136.5l4.93,4.93a3.84,3.84,0,0,1-.08,6.14,6,6,0,0,1-3.16,1.76l-.3-1.3a4.66,4.66,0,0,0,2.58-1.36,3.32,3.32,0,0,0,1.06-2,2.48,2.48,0,0,0-.88-2l-.63-.64a3.12,3.12,0,0,1-.1,1.74,4,4,0,0,1-1,1.51,3.46,3.46,0,0,1-2.72,1.11,4.49,4.49,0,0,1-4.09-4.13,3.61,3.61,0,0,1,1.12-2.76,3.31,3.31,0,0,1,3.22-1l-1-1Zm1.75,3.7a2.81,2.81,0,0,0-1.91-.9,2.59,2.59,0,0,0-2,.86,2.42,2.42,0,0,0-.82,1.93,3,3,0,0,0,.92,1.89,3,3,0,0,0,1.91.94,2.39,2.39,0,0,0,1.94-.81,2.57,2.57,0,0,0,.84-2A2.87,2.87,0,0,0,176.49,140.2Z"/><path class="cls-6" d="M176.33,132.59l-1,1-1-1,1-1Zm7,7-1,1-5.89-5.89,1-1Z"/><path class="cls-6" d="M186.12,136.88l-1,1L179.25,132l1-1,1,1a3.3,3.3,0,0,1,.9-3.12,2.82,2.82,0,0,1,2.1-.92A3.28,3.28,0,0,1,186.4,129l3.79,3.79-1,1-3.57-3.56c-1-1-2-1.09-2.84-.21a2.43,2.43,0,0,0-.76,1.78,2.53,2.53,0,0,0,.82,1.82Z"/><path class="cls-6" d="M191.44,119.8l4.93,4.93a3.85,3.85,0,0,1-.08,6.15,6,6,0,0,1-3.16,1.75l-.3-1.3a4.66,4.66,0,0,0,2.58-1.36,3.32,3.32,0,0,0,1.06-2,2.54,2.54,0,0,0-.88-2l-.64-.63a3,3,0,0,1-.09,1.73,3.9,3.9,0,0,1-1,1.51,3.46,3.46,0,0,1-2.72,1.11,4.49,4.49,0,0,1-4.09-4.13,3.61,3.61,0,0,1,1.12-2.76,3.26,3.26,0,0,1,3.21-1l-1-1Zm1.75,3.7a2.85,2.85,0,0,0-1.91-.9,2.6,2.6,0,0,0-2,.87,2.39,2.39,0,0,0-.82,1.92,2.92,2.92,0,0,0,.92,1.89,3,3,0,0,0,1.91.94,2.4,2.4,0,0,0,1.94-.81,2.57,2.57,0,0,0,.84-2A2.92,2.92,0,0,0,193.19,123.5Z"/><line class="cls-11" x1="196.29" y1="120.57" x2="220.31" y2="96.56"/><polygon class="cls-6" points="222.8 101.11 225.38 91.48 215.75 94.06 222.8 101.11"/><path class="cls-6" d="M439.36,94.9,438,94.64a3.62,3.62,0,0,0-3.65-4.29,4.36,4.36,0,0,0-2.82,1.42A4.47,4.47,0,0,0,430,94.62a3.3,3.3,0,0,0,1,2.65,3.37,3.37,0,0,0,3.29,1l.31,1.44a4.75,4.75,0,0,1-4.55-1.43,4.86,4.86,0,0,1-1.56-3.75,6.22,6.22,0,0,1,5.61-5.61,5.21,5.21,0,0,1,5.19,6Z"/><path class="cls-6" d="M442.79,104.78a4.45,4.45,0,0,1-3,1.42,4.27,4.27,0,0,1-4.21-4.22A5,5,0,0,1,440,97.55a4.25,4.25,0,0,1,4.21,4.22A4.49,4.49,0,0,1,442.79,104.78Zm-1.05-1a3.44,3.44,0,0,0,1.08-2.07,2.3,2.3,0,0,0-.73-2,2.35,2.35,0,0,0-2-.74A3.44,3.44,0,0,0,438,100a3.37,3.37,0,0,0-1.07,2.06,2.34,2.34,0,0,0,.74,2,2.3,2.3,0,0,0,2,.73A3.45,3.45,0,0,0,441.74,103.73Z"/><path class="cls-6" d="M442.22,110.08l-1-1,5.88-5.88,1,1-1,1a3.29,3.29,0,0,1,3.13.9,2.79,2.79,0,0,1,.91,2.09,3.23,3.23,0,0,1-1.08,2.2l-3.79,3.79-1-1,3.57-3.56c1-1,1.09-2,.21-2.84a2.41,2.41,0,0,0-1.78-.76,2.5,2.5,0,0,0-1.83.82Z"/><path class="cls-6" d="M458.83,114.92l-8.23,3.53-1-1,3.53-8.24,1.1,1.11-2.93,6.48,6.49-2.93Z"/><path class="cls-6" d="M462.33,124a4.13,4.13,0,0,1-.41.37l-4.62-4.62a2.89,2.89,0,0,0-.84,2,2.73,2.73,0,0,0,.89,1.91,3.25,3.25,0,0,0,2.51,1v1.3a4.52,4.52,0,0,1-3.45-1.39,4.12,4.12,0,0,1-1.35-3.06,4.34,4.34,0,0,1,1.4-3,4.56,4.56,0,0,1,3-1.43,3.77,3.77,0,0,1,3,1.22,3.68,3.68,0,0,1,1.2,2.87A4.19,4.19,0,0,1,462.33,124Zm-4.24-5,3.59,3.6a2.66,2.66,0,0,0,.69-1.84,2.51,2.51,0,0,0-.78-1.67,2.44,2.44,0,0,0-1.72-.77A2.62,2.62,0,0,0,458.09,119Z"/><path class="cls-6" d="M469.84,126.13l-1.26.62a2,2,0,0,0-.49-.86,2,2,0,0,0-1.6-.54,3,3,0,0,0-1.88,1l-3.06,3.07-1-1,5.89-5.89,1,1-1,1a2.83,2.83,0,0,1,2.82.6A2.07,2.07,0,0,1,469.84,126.13Z"/><path class="cls-6" d="M476.22,132.31l-4.93,4.93a4.35,4.35,0,0,1-2.75,1.48,4.43,4.43,0,0,1-3.4-1.56,6,6,0,0,1-1.75-3.16l1.3-.3a4.66,4.66,0,0,0,1.36,2.58,3.32,3.32,0,0,0,2,1.06,2.5,2.5,0,0,0,2-.88l.63-.63a3.09,3.09,0,0,1-1.73-.1,3.9,3.9,0,0,1-1.51-1,3.46,3.46,0,0,1-1.11-2.72,4.49,4.49,0,0,1,4.13-4.09,3.64,3.64,0,0,1,2.76,1.12,3.28,3.28,0,0,1,1,3.22l1-1Zm-3.7,1.75a2.85,2.85,0,0,0,.9-1.91,2.59,2.59,0,0,0-.86-2,2.42,2.42,0,0,0-1.93-.82,3.26,3.26,0,0,0-2.83,2.83,2.39,2.39,0,0,0,.81,1.94,2.54,2.54,0,0,0,2,.84A2.87,2.87,0,0,0,472.52,134.06Z"/><path class="cls-6" d="M473.09,140.94l-1-1,5.89-5.89,1,1Zm7-7-1-1,1-1,1,1Z"/><path class="cls-6" d="M475.84,143.69l-1-1,5.88-5.88,1,1-1,1a3.32,3.32,0,0,1,3.12.9,2.84,2.84,0,0,1,.92,2.1A3.28,3.28,0,0,1,483.7,144l-3.79,3.79-1-1,3.57-3.57c1-1,1.09-2,.21-2.84a2.43,2.43,0,0,0-1.78-.76,2.57,2.57,0,0,0-1.83.82Z"/><path class="cls-6" d="M492.92,149,488,153.94a3.85,3.85,0,0,1-6.15-.08,6,6,0,0,1-1.75-3.16l1.3-.3a4.66,4.66,0,0,0,1.36,2.58,3.32,3.32,0,0,0,2,1.06,2.54,2.54,0,0,0,2-.88l.63-.64a3,3,0,0,1-1.73-.09,3.9,3.9,0,0,1-1.51-1,3.46,3.46,0,0,1-1.11-2.72,4.49,4.49,0,0,1,4.13-4.09,3.61,3.61,0,0,1,2.76,1.12,3.27,3.27,0,0,1,1,3.21l1-1Zm-3.7,1.75a2.8,2.8,0,0,0,.89-1.91,2.55,2.55,0,0,0-.86-2,2.39,2.39,0,0,0-1.92-.82,2.9,2.9,0,0,0-1.89.92,3,3,0,0,0-.94,1.91,2.39,2.39,0,0,0,.81,1.94,2.57,2.57,0,0,0,2,.84A2.87,2.87,0,0,0,489.22,150.76Z"/><line class="cls-11" x1="492.57" y1="154.28" x2="516.59" y2="178.3"/><polygon class="cls-6" points="512.03 180.79 521.66 183.38 519.08 173.74 512.03 180.79"/><path class="cls-6" d="M694.06,172.62l-2.91,2.92L683.61,168l2.92-2.92a4.91,4.91,0,0,1,3.73-1.63,6,6,0,0,1,5.43,5.43A4.88,4.88,0,0,1,694.06,172.62Zm-2.81.87,1.84-1.84a3.35,3.35,0,0,0,1.13-2.64,4.93,4.93,0,0,0-4.08-4.08,3.39,3.39,0,0,0-2.64,1.13l-1.84,1.84Z"/><path class="cls-6" d="M693.1,159.51l-1,1-1-1,1-1Zm7,7-1,1-5.89-5.88,1-1Z"/><path class="cls-6" d="M701,153.89l3.53,8.23-1,1-8.23-3.53,1.11-1.11,6.48,2.93L700,155Z"/><path class="cls-6" d="M710.12,150.39a3.9,3.9,0,0,1,.36.41l-4.62,4.61a2.88,2.88,0,0,0,2,.85,2.73,2.73,0,0,0,1.92-.89,3.24,3.24,0,0,0,1-2.51h1.3a4.5,4.5,0,0,1-1.39,3.45,4.12,4.12,0,0,1-3.06,1.35,4.32,4.32,0,0,1-3-1.4,4.57,4.57,0,0,1-1.44-3,3.81,3.81,0,0,1,1.22-3,3.69,3.69,0,0,1,2.87-1.2A4.17,4.17,0,0,1,710.12,150.39Zm-5,4.24,3.6-3.59a2.67,2.67,0,0,0-1.84-.69,2.49,2.49,0,0,0-1.67.78,2.41,2.41,0,0,0-.78,1.72A2.58,2.58,0,0,0,705.13,154.63Z"/><path class="cls-6" d="M712.24,142.88l.63,1.25a2.08,2.08,0,0,0-.86.5,1.93,1.93,0,0,0-.55,1.6,3.06,3.06,0,0,0,1,1.88l3.06,3.06-1,1-5.88-5.89,1-1,1,1a2.81,2.81,0,0,1,.6-2.81A1.93,1.93,0,0,1,712.24,142.88Z"/><path class="cls-6" d="M718.42,136.5l4.94,4.93a4.44,4.44,0,0,1,1.48,2.75,4.4,4.4,0,0,1-1.56,3.39,6.06,6.06,0,0,1-3.16,1.76l-.31-1.3a4.59,4.59,0,0,0,2.58-1.36,3.28,3.28,0,0,0,1.07-2,2.49,2.49,0,0,0-.89-2l-.63-.64a3,3,0,0,1-.1,1.74,4,4,0,0,1-1,1.51,3.48,3.48,0,0,1-2.73,1.11,4.49,4.49,0,0,1-4.08-4.13,3.57,3.57,0,0,1,1.12-2.76,3.29,3.29,0,0,1,3.21-1l-1-1Zm1.76,3.7a2.83,2.83,0,0,0-1.92-.9,2.6,2.6,0,0,0-2,.86,2.49,2.49,0,0,0-.82,1.93,2.94,2.94,0,0,0,.93,1.89,3,3,0,0,0,1.9.94,2.38,2.38,0,0,0,1.94-.81,2.55,2.55,0,0,0,.85-2A2.92,2.92,0,0,0,720.18,140.2Z"/><path class="cls-6" d="M720,132.59l-1,1-1-1,1-1Zm7,7-1,1-5.88-5.89,1-1Z"/><path class="cls-6" d="M729.8,136.88l-1,1L722.94,132l1-1,1,1a3.3,3.3,0,0,1,.91-3.12,2.8,2.8,0,0,1,2.09-.92,3.33,3.33,0,0,1,2.2,1.09l3.79,3.79-1,1-3.56-3.56c-1-1-2-1.09-2.84-.21a2.4,2.4,0,0,0-.77,1.78,2.57,2.57,0,0,0,.82,1.82Z"/><path class="cls-6" d="M735.12,119.8l4.93,4.93a3.84,3.84,0,0,1-.08,6.15,6,6,0,0,1-3.15,1.75l-.31-1.3a4.59,4.59,0,0,0,2.58-1.36,3.34,3.34,0,0,0,1.07-2,2.55,2.55,0,0,0-.89-2l-.63-.63a3.09,3.09,0,0,1-.1,1.73,4,4,0,0,1-.95,1.51,3.49,3.49,0,0,1-2.73,1.11,4.49,4.49,0,0,1-4.08-4.13,3.57,3.57,0,0,1,1.12-2.76,3.26,3.26,0,0,1,3.21-1l-1-1Zm1.75,3.7a2.83,2.83,0,0,0-1.91-.9,2.62,2.62,0,0,0-2,.87,2.43,2.43,0,0,0-.82,1.92,3.29,3.29,0,0,0,2.83,2.83,2.38,2.38,0,0,0,1.94-.81,2.55,2.55,0,0,0,.85-2A2.88,2.88,0,0,0,736.87,123.5Z"/><line class="cls-11" x1="739.97" y1="120.57" x2="763.99" y2="96.56"/><polygon class="cls-6" points="766.48 101.11 769.06 91.48 759.43 94.06 766.48 101.11"/><path class="cls-6" d="M983.05,94.9l-1.42-.26a3.3,3.3,0,0,0-1-3.22A3.36,3.36,0,0,0,978,90.35a4.36,4.36,0,0,0-2.82,1.42,4.46,4.46,0,0,0-1.44,2.85,3.29,3.29,0,0,0,1,2.65,3.38,3.38,0,0,0,3.3,1l.3,1.44a4.75,4.75,0,0,1-4.55-1.43,4.85,4.85,0,0,1-1.55-3.75,6.2,6.2,0,0,1,5.61-5.61,5.21,5.21,0,0,1,5.19,6Z"/><path class="cls-6" d="M986.47,104.78a4.41,4.41,0,0,1-3,1.42,4.27,4.27,0,0,1-4.22-4.22,4.43,4.43,0,0,1,1.42-3,4.48,4.48,0,0,1,3-1.44,4.25,4.25,0,0,1,4.22,4.22A4.46,4.46,0,0,1,986.47,104.78Zm-1.05-1a3.51,3.51,0,0,0,1.09-2.07,2.3,2.3,0,0,0-.74-2,2.33,2.33,0,0,0-2-.74,3.46,3.46,0,0,0-2.08,1.08,3.43,3.43,0,0,0-1.07,2.06,2.34,2.34,0,0,0,.74,2,2.31,2.31,0,0,0,2,.73A3.43,3.43,0,0,0,985.42,103.73Z"/><path class="cls-6" d="M985.91,110.08l-1-1,5.89-5.88,1,1-1,1a3.27,3.27,0,0,1,3.12.9,2.8,2.8,0,0,1,.92,2.09,3.29,3.29,0,0,1-1.09,2.2L990,114.15l-1-1,3.56-3.56c1-1,1.09-2,.22-2.84A2.43,2.43,0,0,0,991,106a2.49,2.49,0,0,0-1.82.82Z"/><path class="cls-6" d="M1002.52,114.92l-8.24,3.53-1-1,3.53-8.24,1.11,1.11L995,116.77l6.48-2.93Z"/><path class="cls-6" d="M1006,124a4.15,4.15,0,0,1-.4.37l-4.62-4.62a2.85,2.85,0,0,0-.84,2,2.71,2.71,0,0,0,.88,1.91,3.27,3.27,0,0,0,2.52,1v1.3a4.5,4.5,0,0,1-3.45-1.39,4.1,4.1,0,0,1-1.36-3.06,4.39,4.39,0,0,1,1.4-3,4.56,4.56,0,0,1,3-1.43,3.79,3.79,0,0,1,3,1.22,3.75,3.75,0,0,1,1.2,2.87A4.21,4.21,0,0,1,1006,124Zm-4.24-5,3.6,3.6a2.6,2.6,0,0,0,.68-1.84,2.5,2.5,0,0,0-.77-1.67,2.46,2.46,0,0,0-1.73-.77A2.64,2.64,0,0,0,1001.77,119Z"/><path class="cls-6" d="M1013.53,126.13l-1.26.62a2,2,0,0,0-.5-.86,1.94,1.94,0,0,0-1.59-.54,3,3,0,0,0-1.88,1l-3.07,3.07-1-1,5.88-5.89,1,1-1,1a2.83,2.83,0,0,1,2.82.6A2.15,2.15,0,0,1,1013.53,126.13Z"/><path class="cls-6" d="M1019.91,132.31l-4.94,4.93a4.32,4.32,0,0,1-2.75,1.48,4.4,4.4,0,0,1-3.39-1.56,5.94,5.94,0,0,1-1.75-3.16l1.3-.3a4.66,4.66,0,0,0,1.36,2.58,3.32,3.32,0,0,0,2,1.06,2.51,2.51,0,0,0,2-.88l.63-.63a3.12,3.12,0,0,1-1.74-.1,4,4,0,0,1-1.51-1,3.53,3.53,0,0,1-1.11-2.72,4.49,4.49,0,0,1,4.13-4.09,3.62,3.62,0,0,1,2.76,1.12,3.27,3.27,0,0,1,1,3.22l1-1Zm-3.7,1.75a2.84,2.84,0,0,0,.89-1.91,2.59,2.59,0,0,0-.86-2,2.42,2.42,0,0,0-1.93-.82,2.93,2.93,0,0,0-1.88.92,3,3,0,0,0-.95,1.91,2.45,2.45,0,0,0,.81,1.94,2.57,2.57,0,0,0,2,.84A2.89,2.89,0,0,0,1016.21,134.06Z"/><path class="cls-6" d="M1016.77,140.94l-1-1,5.88-5.89,1,1Zm7-7-1-1,1-1,1,1Z"/><path class="cls-6" d="M1019.52,143.69l-1-1,5.88-5.88,1,1-1,1a3.31,3.31,0,0,1,3.12.9,2.8,2.8,0,0,1,.92,2.1,3.2,3.2,0,0,1-1.09,2.19l-3.79,3.79-1-1,3.56-3.57c1-1,1.09-2,.22-2.84a2.45,2.45,0,0,0-1.78-.76,2.54,2.54,0,0,0-1.83.82Z"/><path class="cls-6" d="M1036.6,149l-4.93,4.93a3.84,3.84,0,0,1-6.14-.08,6,6,0,0,1-1.76-3.16l1.31-.3a4.64,4.64,0,0,0,1.35,2.58,3.34,3.34,0,0,0,2,1.06,2.51,2.51,0,0,0,2-.88l.64-.64a3,3,0,0,1-1.74-.09,4,4,0,0,1-1.51-1,3.53,3.53,0,0,1-1.11-2.72,4.49,4.49,0,0,1,4.13-4.09,3.58,3.58,0,0,1,2.76,1.12,3.27,3.27,0,0,1,1,3.21l1-1Zm-3.7,1.75a2.81,2.81,0,0,0,.9-1.91,2.59,2.59,0,0,0-.86-2,2.42,2.42,0,0,0-1.93-.82,2.88,2.88,0,0,0-1.88.92,3,3,0,0,0-1,1.91,2.39,2.39,0,0,0,.81,1.94,2.59,2.59,0,0,0,2,.84A2.87,2.87,0,0,0,1032.9,150.76Z"/><line class="cls-11" x1="1036.25" y1="154.28" x2="1060.27" y2="178.3"/><polygon class="cls-6" points="1055.71 180.79 1065.35 183.38 1062.77 173.74 1055.71 180.79"/><path class="cls-12" d="M27.47,274.56a4,4,0,0,1,0,5.61,4.64,4.64,0,0,1-3.21,1H21.16v4.3H19.05v-12h5.22A4.6,4.6,0,0,1,27.47,274.56Zm-6.31,4.81h3.09a2.35,2.35,0,0,0,1.65-.53,1.88,1.88,0,0,0,.57-1.47,1.94,1.94,0,0,0-.57-1.5,2.4,2.4,0,0,0-1.65-.52H21.16Z"/><path class="cls-12" d="M36.29,276.2l-.57,1.94a2.3,2.3,0,0,0-1.08-.29,2,2,0,0,0-1.61.78,3.06,3.06,0,0,0-.66,2.07v4.8h-2v-9.45h2v1.53A3.13,3.13,0,0,1,35,275.87,2.17,2.17,0,0,1,36.29,276.2Z"/><path class="cls-12" d="M46.54,280.79a5,5,0,0,1-1.31,3.55,5.08,5.08,0,0,1-7,0,5.51,5.51,0,0,1,0-7.13,5.1,5.1,0,0,1,7,0A5,5,0,0,1,46.54,280.79Zm-2.13,0a3.59,3.59,0,0,0-.71-2.32,2.34,2.34,0,0,0-2-.9,2.37,2.37,0,0,0-2,.9,4.07,4.07,0,0,0,0,4.62,2.37,2.37,0,0,0,2,.9,2.34,2.34,0,0,0,2-.9A3.57,3.57,0,0,0,44.41,280.79Z"/><path class="cls-12" d="M48.57,272.65h2v4.79a3.84,3.84,0,0,1,3.2-1.6,3.92,3.92,0,0,1,3.15,1.39,5.92,5.92,0,0,1,0,7.09,3.93,3.93,0,0,1-3.15,1.4,3.84,3.84,0,0,1-3.2-1.6v1.38h-2Zm2,8.14a3.44,3.44,0,0,0,.72,2.26,2.48,2.48,0,0,0,2,.89,2.37,2.37,0,0,0,2-.89,3.6,3.6,0,0,0,.68-2.26,3.69,3.69,0,0,0-.68-2.27,2.35,2.35,0,0,0-2-.9,2.46,2.46,0,0,0-2,.9A3.47,3.47,0,0,0,50.55,280.79Z"/><path class="cls-12" d="M62.11,285.5h-2V272.65h2Z"/><path class="cls-12" d="M73.52,280.59a4.88,4.88,0,0,1,0,.68h-7.2a2.73,2.73,0,0,0,.85,2,2.92,2.92,0,0,0,2.05.71,3.6,3.6,0,0,0,2.74-1.19L73.21,284a5.41,5.41,0,0,1-4.1,1.71,4.82,4.82,0,0,1-3.64-1.37,4.91,4.91,0,0,1-1.31-3.53,5.09,5.09,0,0,1,1.29-3.57,4.93,4.93,0,0,1,6.82-.08A4.82,4.82,0,0,1,73.52,280.59Zm-7.2-.76h5.2a2.53,2.53,0,0,0-.82-1.77,2.6,2.6,0,0,0-1.77-.62,2.51,2.51,0,0,0-1.82.67A2.57,2.57,0,0,0,66.32,279.83Z"/><path class="cls-12" d="M77.48,285.5h-2v-9.45h2v1.35a3.55,3.55,0,0,1,3-1.56,2.63,2.63,0,0,1,2.75,1.8,3.9,3.9,0,0,1,3.3-1.8,3,3,0,0,1,2.35.92,3.74,3.74,0,0,1,.82,2.53v6.21h-2v-5.74c0-1.4-.6-2.1-1.79-2.1a2.2,2.2,0,0,0-1.66.69,2.54,2.54,0,0,0-.66,1.83v5.32h-2v-5.74c0-1.4-.59-2.1-1.78-2.1a2.17,2.17,0,0,0-1.66.68,2.55,2.55,0,0,0-.66,1.84Z"/><path class="cls-12" d="M591.32,274.56a4,4,0,0,1,0,5.61,4.63,4.63,0,0,1-3.2,1H585v4.3h-2.1v-12h5.22A4.57,4.57,0,0,1,591.32,274.56ZM585,279.37h3.1a2.31,2.31,0,0,0,1.64-.53,1.88,1.88,0,0,0,.57-1.47,1.94,1.94,0,0,0-.57-1.5,2.35,2.35,0,0,0-1.64-.52H585Z"/><path class="cls-12" d="M596.24,285.5h-2V272.65h2Z"/><path class="cls-12" d="M607.71,285.41a2.67,2.67,0,0,1-1.22.24,2.19,2.19,0,0,1-1.23-.35,1.63,1.63,0,0,1-.67-1.06,3.55,3.55,0,0,1-3.14,1.48,3.46,3.46,0,0,1-2.36-.77,2.71,2.71,0,0,1-.89-2.15,2.8,2.8,0,0,1,.25-1.18,2.49,2.49,0,0,1,.57-.8,2.87,2.87,0,0,1,.89-.48,6.05,6.05,0,0,1,1-.27l1-.15c.43,0,.75-.09,1-.12s.45-.1.71-.17a1,1,0,0,0,.55-.35.89.89,0,0,0,.16-.54,1,1,0,0,0-.57-.93,3,3,0,0,0-1.36-.28,5,5,0,0,0-3,1l-.79-1.49a7,7,0,0,1,3.89-1.15,4.54,4.54,0,0,1,2.78.76,2.81,2.81,0,0,1,1,2.41v4.3c0,.57.22.86.66.86a.93.93,0,0,0,.52-.12Zm-3.4-3.49v-1.44a2.1,2.1,0,0,1-.34.33,1.18,1.18,0,0,1-.45.22l-.44.12-.57.1-.56.08a3.12,3.12,0,0,0-1.31.45,1.12,1.12,0,0,0-.44,1,1.21,1.21,0,0,0,.48,1.05,2.08,2.08,0,0,0,1.25.35,2.54,2.54,0,0,0,1.69-.57A2,2,0,0,0,604.31,281.92Z"/><path class="cls-12" d="M611.22,285.5h-2v-9.45h2v1.39a3.69,3.69,0,0,1,3.09-1.6,3.1,3.1,0,0,1,2.4.94,3.65,3.65,0,0,1,.86,2.57v6.15h-2v-5.7c0-1.43-.62-2.14-1.87-2.14a2.43,2.43,0,0,0-1.79.7,2.49,2.49,0,0,0-.71,1.85Z"/><path class="cls-12" d="M1114.46,273.3a5.42,5.42,0,0,1,4.7,2.23l-1.59,1.06a3.75,3.75,0,0,0-3.18-1.51,3,3,0,0,0-1.58.38,1.27,1.27,0,0,0-.6,1.15,1.18,1.18,0,0,0,.15.59,1.6,1.6,0,0,0,.35.41,2.09,2.09,0,0,0,.62.3c.28.09.52.17.69.21s.46.12.85.2a17.07,17.07,0,0,1,1.73.44,7.4,7.4,0,0,1,1.39.63,2.6,2.6,0,0,1,1,1,3.09,3.09,0,0,1,.34,1.51,3.37,3.37,0,0,1-1.27,2.74,5.37,5.37,0,0,1-3.46,1,6.51,6.51,0,0,1-3.08-.71,5,5,0,0,1-2-2l1.69-1a3.87,3.87,0,0,0,3.55,1.87,3.15,3.15,0,0,0,1.81-.47,1.48,1.48,0,0,0,.69-1.3,1.23,1.23,0,0,0-.17-.65,1.68,1.68,0,0,0-.37-.44,2.21,2.21,0,0,0-.69-.33,7.36,7.36,0,0,0-.79-.22l-1-.21c-.49-.1-.91-.2-1.28-.31a5.62,5.62,0,0,1-1.11-.45,3.44,3.44,0,0,1-.94-.64,2.56,2.56,0,0,1-.59-.9,3,3,0,0,1-.24-1.23,3.06,3.06,0,0,1,1.21-2.55A4.94,4.94,0,0,1,1114.46,273.3Z"/><path class="cls-12" d="M1130.41,280.79a5,5,0,0,1-1.31,3.55,5.08,5.08,0,0,1-7,0,5.51,5.51,0,0,1,0-7.13,5.1,5.1,0,0,1,7,0A5,5,0,0,1,1130.41,280.79Zm-2.13,0a3.59,3.59,0,0,0-.71-2.32,2.34,2.34,0,0,0-2-.9,2.37,2.37,0,0,0-2,.9,4.07,4.07,0,0,0,0,4.62,2.37,2.37,0,0,0,2,.9,2.34,2.34,0,0,0,2-.9A3.57,3.57,0,0,0,1128.28,280.79Z"/><path class="cls-12" d="M1134.44,285.5h-2V272.65h2Z"/><path class="cls-12" d="M1143.33,276.05h2v9.45h-2v-1.36a3.76,3.76,0,0,1-3.09,1.58,3.1,3.1,0,0,1-2.4-1,3.67,3.67,0,0,1-.86-2.56v-6.16h2v5.71c0,1.43.62,2.14,1.87,2.14a2.43,2.43,0,0,0,1.79-.7,2.47,2.47,0,0,0,.71-1.85Z"/><path class="cls-12" d="M1153,283.54l.79,1.48a3.57,3.57,0,0,1-2.25.7,2.78,2.78,0,0,1-2.56-1.21,3.58,3.58,0,0,1-.45-2v-4.95H1147v-1.53h1.58v-2.53h2v2.53h2.92v1.53h-2.92v5c0,.94.43,1.41,1.28,1.41A1.86,1.86,0,0,0,1153,283.54Z"/><path class="cls-12" d="M1157.34,274.52h-2v-1.87h2Zm0,11h-2v-9.45h2Z"/><path class="cls-12" d="M1169,280.79a5,5,0,0,1-1.31,3.55,5.08,5.08,0,0,1-7,0,5.51,5.51,0,0,1,0-7.13,5.1,5.1,0,0,1,7,0A5,5,0,0,1,1169,280.79Zm-2.13,0a3.65,3.65,0,0,0-.71-2.32,2.34,2.34,0,0,0-1.95-.9,2.37,2.37,0,0,0-2,.9,4.07,4.07,0,0,0,0,4.62,2.37,2.37,0,0,0,2,.9,2.34,2.34,0,0,0,1.95-.9A3.63,3.63,0,0,0,1166.82,280.79Z"/><path class="cls-12" d="M1173,285.5h-2v-9.45h2v1.39a3.71,3.71,0,0,1,3.1-1.6,3.07,3.07,0,0,1,2.39.94,3.65,3.65,0,0,1,.86,2.57v6.15h-2v-5.7c0-1.43-.62-2.14-1.87-2.14a2.43,2.43,0,0,0-1.79.7,2.49,2.49,0,0,0-.71,1.85Z"/></svg>