<svg id="Diagrams" xmlns="http://www.w3.org/2000/svg" viewBox="0 0 360 800.46"><defs><style>.cls-1,.cls-10,.cls-5,.cls-9{isolation:isolate;}.cls-10,.cls-2,.cls-5{fill:#f6f6f6;}.cls-11,.cls-3,.cls-4,.cls-7,.cls-9{fill:none;}.cls-3,.cls-4,.cls-5,.cls-9{stroke:#808285;}.cls-10,.cls-3,.cls-4,.cls-5,.cls-9{stroke-linecap:round;}.cls-10,.cls-11,.cls-3,.cls-4,.cls-5,.cls-7,.cls-9{stroke-miterlimit:10;}.cls-3,.cls-4,.cls-5,.cls-7{stroke-width:2px;}.cls-4{stroke-dasharray:3.01 5.01;}.cls-5,.cls-9{stroke-dasharray:3 5;}.cls-6{fill:#58595b;}.cls-7{stroke:#939598;}.cls-8{fill:#939598;}.cls-10{stroke:#231f20;stroke-width:3px;}.cls-11{stroke:#58595b;}.cls-12{fill:#231f20;}</style></defs><title>Design_XS_NEWWHITE</title><g class="cls-1"><rect class="cls-2" x="55.74" y="99.44" width="248.52" height="248.52" transform="translate(-105.46 192.8) rotate(-45)"/><polyline class="cls-3" points="5.33 224.76 4.27 223.7 5.33 222.64"/><line class="cls-4" x1="8.87" y1="219.1" x2="177.17" y2="50.8"/><polyline class="cls-3" points="178.94 49.03 180 47.97 181.06 49.03"/><line class="cls-4" x1="184.6" y1="52.57" x2="352.9" y2="220.87"/><polyline class="cls-3" points="354.67 222.64 355.73 223.7 354.67 224.76"/><line class="cls-4" x1="351.13" y1="228.31" x2="182.83" y2="396.6"/><polyline class="cls-3" points="181.06 398.37 180 399.43 178.94 398.37"/><line class="cls-4" x1="175.4" y1="394.83" x2="7.1" y2="226.53"/></g><g class="cls-1"><rect class="cls-2" x="55.74" y="450.76" width="248.52" height="248.52" transform="translate(-353.88 295.7) rotate(-45)"/><polyline class="cls-3" points="5.33 576.08 4.27 575.02 5.33 573.96"/><line class="cls-4" x1="8.87" y1="570.42" x2="177.17" y2="402.12"/><polyline class="cls-3" points="178.94 400.35 180 399.29 181.06 400.35"/><line class="cls-4" x1="184.6" y1="403.89" x2="352.9" y2="572.19"/><polyline class="cls-3" points="354.67 573.96 355.73 575.02 354.67 576.08"/><line class="cls-4" x1="351.13" y1="579.63" x2="182.83" y2="747.92"/><polyline class="cls-3" points="181.06 749.69 180 750.75 178.94 749.69"/><line class="cls-4" x1="175.4" y1="746.15" x2="7.1" y2="577.85"/></g><line class="cls-5" x1="354.8" y1="223.7" x2="4.6" y2="223.7"/><line class="cls-5" x1="354.8" y1="575.02" x2="4.6" y2="575.02"/><path d="M138.67,137h-6.19V121h6.19a7.35,7.35,0,0,1,5.69,2.23,9,9,0,0,1,0,11.52A7.35,7.35,0,0,1,138.67,137Zm-3.91-2.07h3.91a5.06,5.06,0,0,0,4-1.59,7.4,7.4,0,0,0,0-8.66,5,5,0,0,0-4-1.6h-3.91Z"/><path d="M151.56,122h-2.09v-2.21h2.09Zm0,14.93h-2.09V124.47h2.09Z"/><path d="M164.83,133.25a3.5,3.5,0,0,1-1.36,2.89,5.85,5.85,0,0,1-3.75,1.1,6.13,6.13,0,0,1-5.52-2.67l1.54-1.15a4.78,4.78,0,0,0,4.1,2,3.75,3.75,0,0,0,2.11-.52,1.67,1.67,0,0,0,.8-1.5,1.22,1.22,0,0,0-.72-1.22,12.71,12.71,0,0,0-2.72-.72A9.09,9.09,0,0,1,156,130.3a2.72,2.72,0,0,1-1.15-2.45,3.09,3.09,0,0,1,1.36-2.73,5.65,5.65,0,0,1,3.32-.94,6.68,6.68,0,0,1,5.06,2.09l-1.39,1.32a4.65,4.65,0,0,0-3.69-1.61,3.9,3.9,0,0,0-1.88.42,1.35,1.35,0,0,0-.76,1.26,1.2,1.2,0,0,0,.18.65,1.87,1.87,0,0,0,.4.47,2.36,2.36,0,0,0,.71.33,7.27,7.27,0,0,0,.83.23l1,.19c.61.12,1.11.22,1.49.31a11.76,11.76,0,0,1,1.3.44,3.39,3.39,0,0,1,1.11.65,3,3,0,0,1,1,2.32Z"/><path d="M176.4,133.47l1.61,1.15a5.81,5.81,0,0,1-5,2.62,5.6,5.6,0,0,1-4.39-1.85,7.43,7.43,0,0,1,0-9.36,5.6,5.6,0,0,1,4.39-1.85,5.75,5.75,0,0,1,5,2.59L176.38,128a3.72,3.72,0,0,0-3.34-1.94,3.48,3.48,0,0,0-2.84,1.3,5.7,5.7,0,0,0,0,6.65,3.43,3.43,0,0,0,2.82,1.31A3.86,3.86,0,0,0,176.4,133.47Z"/><path d="M191.93,130.73a6.62,6.62,0,0,1-1.68,4.68,6.37,6.37,0,0,1-8.94,0,6.66,6.66,0,0,1-1.67-4.68,6.73,6.73,0,0,1,1.67-4.71,6.35,6.35,0,0,1,8.94,0A6.69,6.69,0,0,1,191.93,130.73Zm-2.23,0a5.2,5.2,0,0,0-1-3.35,3.45,3.45,0,0,0-2.86-1.3,3.52,3.52,0,0,0-2.89,1.3,5.2,5.2,0,0,0-1.05,3.35,5.14,5.14,0,0,0,1.05,3.33,3.53,3.53,0,0,0,2.89,1.31,3.46,3.46,0,0,0,2.86-1.31A5.14,5.14,0,0,0,189.7,130.73Z"/><path d="M205.37,124.47l-5,12.48h-2.19l-5-12.48h2.35l3.77,10,3.77-10Z"/><path d="M218.71,130.4a6.24,6.24,0,0,1,0,.81h-9.8a4.33,4.33,0,0,0,1.23,3,4.08,4.08,0,0,0,3,1.1,4.85,4.85,0,0,0,3.7-1.64l1.39,1.37a6.71,6.71,0,0,1-5.13,2.19,6.12,6.12,0,0,1-4.68-1.81,6.54,6.54,0,0,1-1.71-4.67,6.84,6.84,0,0,1,1.67-4.71,5.66,5.66,0,0,1,4.45-1.87,5.58,5.58,0,0,1,4.32,1.78A6.29,6.29,0,0,1,218.71,130.4Zm-9.79-.8h7.63a4,4,0,0,0-1.22-2.67,3.76,3.76,0,0,0-2.59-1,3.66,3.66,0,0,0-2.65,1A3.87,3.87,0,0,0,208.92,129.6Z"/><path d="M228.94,124.68l-.67,2a3,3,0,0,0-1.44-.39,2.9,2.9,0,0,0-2.27,1.12,4.55,4.55,0,0,0-.95,3V137h-2.09V124.47h2.09v2.11a4.22,4.22,0,0,1,3.62-2.35A3.09,3.09,0,0,1,228.94,124.68Z"/><path d="M151.24,258.2h-6.19v-16h6.19a7.38,7.38,0,0,1,5.69,2.23,9.08,9.08,0,0,1,0,11.52A7.41,7.41,0,0,1,151.24,258.2Zm-3.91-2.07h3.91a5,5,0,0,0,4-1.59,7.37,7.37,0,0,0,0-8.67,5,5,0,0,0-4-1.59h-3.91Z"/><path d="M173.29,251.65a6.24,6.24,0,0,1,0,.81h-9.8a4.33,4.33,0,0,0,1.23,3,4.08,4.08,0,0,0,3,1.1,4.85,4.85,0,0,0,3.7-1.64l1.39,1.37a6.71,6.71,0,0,1-5.13,2.19,6.12,6.12,0,0,1-4.68-1.81,6.54,6.54,0,0,1-1.71-4.67,6.84,6.84,0,0,1,1.67-4.71,5.66,5.66,0,0,1,4.45-1.87,5.58,5.58,0,0,1,4.32,1.78A6.29,6.29,0,0,1,173.29,251.65Zm-9.79-.8h7.63a4,4,0,0,0-1.22-2.67,3.75,3.75,0,0,0-2.59-1,3.66,3.66,0,0,0-2.65,1A3.87,3.87,0,0,0,163.5,250.85Z"/><path d="M182.61,241.06l-.29,1.73a6.62,6.62,0,0,0-1.51-.22,1.94,1.94,0,0,0-1.32.38,1.56,1.56,0,0,0-.44,1.26v1.51H182v1.73h-2.93V258.2H177V247.45h-2.14v-1.73H177v-1.46a3.25,3.25,0,0,1,1-2.58,4,4,0,0,1,2.74-.88A5.88,5.88,0,0,1,182.61,241.06Zm3.64,2.21h-2.08v-2.21h2.08Zm0,14.93h-2.08V245.72h2.08Z"/><path d="M192.09,258.2H190V245.72h2.09v2.06a5,5,0,0,1,4.27-2.35,4.18,4.18,0,0,1,3.19,1.25,4.89,4.89,0,0,1,1.18,3.48v8h-2.09v-7.56q0-3.24-2.79-3.24a3.66,3.66,0,0,0-2.7,1.08,3.82,3.82,0,0,0-1.06,2.81Z"/><path d="M215.58,251.65a4.73,4.73,0,0,1-.05.81h-9.79a4.29,4.29,0,0,0,1.23,3,4.08,4.08,0,0,0,3,1.1,4.85,4.85,0,0,0,3.7-1.64L215,256.3a6.72,6.72,0,0,1-5.14,2.19,6.15,6.15,0,0,1-4.68-1.81,6.58,6.58,0,0,1-1.7-4.67,6.84,6.84,0,0,1,1.67-4.71,5.65,5.65,0,0,1,4.45-1.87,5.58,5.58,0,0,1,4.32,1.78A6.29,6.29,0,0,1,215.58,251.65Zm-9.79-.8h7.63a4,4,0,0,0-1.22-2.67,3.76,3.76,0,0,0-2.59-1,3.68,3.68,0,0,0-2.66,1A3.91,3.91,0,0,0,205.79,250.85Z"/><path d="M150.11,488.89H138.54v-16h11.33V475H140.8v4.51h7.89v1.95H140.8v5.4h9.31Z"/><path d="M163.79,488.89h-2.54l-3.56-5-3.55,5H151.6l4.82-6.5-4.39-6h2.52l3.22,4.58,3.16-4.58h2.48l-4.37,6Z"/><path d="M166.05,476.41h2.08v2.06a5.5,5.5,0,0,1,8.62-.5,7.78,7.78,0,0,1,0,9.36,5.22,5.22,0,0,1-4.17,1.85,5.16,5.16,0,0,1-4.44-2.33v6.22h-2.08Zm3.14,3a5.14,5.14,0,0,0-1.06,3.3A5,5,0,0,0,169.2,486a3.62,3.62,0,0,0,3,1.3,3.46,3.46,0,0,0,2.9-1.29,5.17,5.17,0,0,0,1-3.3,5.26,5.26,0,0,0-1-3.31,3.46,3.46,0,0,0-2.9-1.29A3.61,3.61,0,0,0,169.19,479.37Z"/><path d="M183.4,488.89h-2.09V471.75h2.09Z"/><path d="M198.69,482.67a6.66,6.66,0,0,1-1.68,4.68,6.37,6.37,0,0,1-8.94,0,6.61,6.61,0,0,1-1.67-4.68,6.69,6.69,0,0,1,1.67-4.71,6.35,6.35,0,0,1,8.94,0A6.74,6.74,0,0,1,198.69,482.67Zm-2.24,0a5.15,5.15,0,0,0-1-3.34,3.45,3.45,0,0,0-2.87-1.31,3.5,3.5,0,0,0-2.88,1.31,5.82,5.82,0,0,0,0,6.67,3.53,3.53,0,0,0,2.88,1.31,3.48,3.48,0,0,0,2.87-1.31A5.14,5.14,0,0,0,196.45,482.67Z"/><path d="M209,476.63l-.67,2a3,3,0,0,0-1.44-.39,2.9,2.9,0,0,0-2.27,1.12,4.55,4.55,0,0,0-1,3v6.5h-2.09V476.41h2.09v2.11a4.25,4.25,0,0,1,3.63-2.35A3,3,0,0,1,209,476.63Z"/><path d="M222.08,482.34a6.24,6.24,0,0,1,0,.81h-9.79a4.33,4.33,0,0,0,1.22,3,4.12,4.12,0,0,0,3,1.09,4.84,4.84,0,0,0,3.69-1.63l1.39,1.36a6.71,6.71,0,0,1-5.13,2.19,6.12,6.12,0,0,1-4.68-1.81A6.54,6.54,0,0,1,210,482.7a6.84,6.84,0,0,1,1.67-4.71,5.69,5.69,0,0,1,4.45-1.87,5.59,5.59,0,0,1,4.32,1.78A6.29,6.29,0,0,1,222.08,482.34Zm-9.79-.79h7.63a3.91,3.91,0,0,0-1.22-2.68,3.75,3.75,0,0,0-2.59-.95,3.66,3.66,0,0,0-2.65,1A3.88,3.88,0,0,0,212.29,481.55Z"/><path d="M147.29,610.54H135.72v-16h11.33v2.06H138v4.51h7.89v2H138v5.4h9.31Z"/><path d="M161,610.54h-2.54l-3.56-5-3.55,5h-2.54l4.82-6.5-4.39-6h2.52l3.22,4.59,3.16-4.59h2.48l-4.37,6Z"/><path d="M174.19,604a6.5,6.5,0,0,1,0,.82h-9.8a4.35,4.35,0,0,0,1.23,3,4.07,4.07,0,0,0,3,1.09,4.84,4.84,0,0,0,3.7-1.63l1.39,1.37a6.74,6.74,0,0,1-5.13,2.18,6.09,6.09,0,0,1-4.68-1.81,6.52,6.52,0,0,1-1.71-4.67,6.81,6.81,0,0,1,1.67-4.7,5.66,5.66,0,0,1,4.45-1.87,5.6,5.6,0,0,1,4.32,1.77A6.32,6.32,0,0,1,174.19,604Zm-9.79-.79H172a4,4,0,0,0-1.22-2.68,3.74,3.74,0,0,0-2.59-.94,3.65,3.65,0,0,0-2.65,1A3.92,3.92,0,0,0,164.4,603.2Z"/><path d="M185.67,607.06l1.6,1.16a5.8,5.8,0,0,1-5,2.61,5.6,5.6,0,0,1-4.39-1.85,7.46,7.46,0,0,1,0-9.36,5.62,5.62,0,0,1,4.39-1.84,5.71,5.71,0,0,1,5,2.59l-1.56,1.25a3.73,3.73,0,0,0-3.33-2,3.49,3.49,0,0,0-2.85,1.31,5.7,5.7,0,0,0,0,6.65,3.46,3.46,0,0,0,2.82,1.31A3.89,3.89,0,0,0,185.67,607.06Z"/><path d="M198.36,598.06h2.09v12.48h-2.09v-2a5,5,0,0,1-4.27,2.33,4.14,4.14,0,0,1-3.19-1.25,4.8,4.8,0,0,1-1.18-3.45v-8.07h2.09v7.59q0,3.24,2.76,3.24a3.67,3.67,0,0,0,2.71-1.08,3.81,3.81,0,0,0,1.08-2.81Z"/><path d="M210.55,608.41l.89,1.58a4.27,4.27,0,0,1-2.71.84,3.54,3.54,0,0,1-3.26-1.58,4.56,4.56,0,0,1-.53-2.47v-7h-2.16v-1.73h2.16v-3.5H207v3.5h4v1.73h-4v7q0,2.16,1.92,2.16A2.51,2.51,0,0,0,210.55,608.41Z"/><path d="M224.91,604a6.32,6.32,0,0,1,0,.82h-9.79a4.3,4.3,0,0,0,1.22,3,4.08,4.08,0,0,0,3,1.09,4.84,4.84,0,0,0,3.69-1.63l1.39,1.37a6.74,6.74,0,0,1-5.13,2.18,6.09,6.09,0,0,1-4.68-1.81,6.52,6.52,0,0,1-1.71-4.67,6.81,6.81,0,0,1,1.67-4.7,5.66,5.66,0,0,1,4.45-1.87,5.57,5.57,0,0,1,4.32,1.77A6.33,6.33,0,0,1,224.91,604Zm-9.8-.79h7.64a4,4,0,0,0-1.23-2.68,3.74,3.74,0,0,0-2.59-.94,3.65,3.65,0,0,0-2.65,1A3.92,3.92,0,0,0,215.11,603.2Z"/><path class="cls-6" d="M341.41,376.67v-1.49h10.66v1.49Z"/><path class="cls-6" d="M342.84,383.6l-1.06.59a2.87,2.87,0,0,1-.56-1.81,2.35,2.35,0,0,1,1.06-2.17,3,3,0,0,1,1.65-.35h4.65v-1.44h1.15v1.44h2.34v1.39h-2.34v2.69h-1.15v-2.69h-4.65c-1,0-1.44.43-1.44,1.28A1.64,1.64,0,0,0,342.84,383.6Z"/><path class="cls-6" d="M345.78,393.17a4.16,4.16,0,0,1-.54,0v-6.53a2.85,2.85,0,0,0-2,.82,2.75,2.75,0,0,0-.73,2,3.24,3.24,0,0,0,1.09,2.46l-.91.93a4.5,4.5,0,0,1-1.46-3.42,4,4,0,0,1,1.21-3.12,4.35,4.35,0,0,1,3.11-1.14,4.55,4.55,0,0,1,3.14,1.11,3.79,3.79,0,0,1,1.25,3,3.71,3.71,0,0,1-1.19,2.88A4.18,4.18,0,0,1,345.78,393.17Zm.53-6.53v5.09a2.64,2.64,0,0,0,1.78-.82,2.45,2.45,0,0,0,.64-1.73,2.42,2.42,0,0,0-.68-1.76A2.55,2.55,0,0,0,346.31,386.64Z"/><path class="cls-6" d="M349.59,400l-1.33-.44a2,2,0,0,0,.26-1,1.94,1.94,0,0,0-.75-1.52,3,3,0,0,0-2-.63h-4.34V395h8.32v1.39h-1.4a2.83,2.83,0,0,1,1.56,2.42A2,2,0,0,1,349.59,400Z"/><path class="cls-6" d="M342.5,408.79l-1.05.17a2.44,2.44,0,0,1-.16-1,1.8,1.8,0,0,1,.32-1.08,1.5,1.5,0,0,1,1-.54,3.28,3.28,0,0,1-1.39-2.86,3.06,3.06,0,0,1,.67-2.06,2.32,2.32,0,0,1,1.86-.77,2.4,2.4,0,0,1,1,.19,2,2,0,0,1,.68.47,2.52,2.52,0,0,1,.43.7,3.74,3.74,0,0,1,.26.75c.05.22.09.48.14.77,0,.11,0,.28.06.53s.06.44.07.56l.09.47a1.85,1.85,0,0,0,.14.45,1.58,1.58,0,0,0,.19.32.67.67,0,0,0,.29.24,1.13,1.13,0,0,0,.39.07,1,1,0,0,0,.93-.56,2.9,2.9,0,0,0,.28-1.33,4.18,4.18,0,0,0-.88-2.59l1.06-.64a5.78,5.78,0,0,1,1.06,3.33,3.73,3.73,0,0,1-.68,2.35,2.43,2.43,0,0,1-2,.86h-3.94q-.9,0-.9.66A.9.9,0,0,0,342.5,408.79Zm2.11-2.55h1.44a2.18,2.18,0,0,1-.34-.34,1.71,1.71,0,0,1-.22-.47l-.12-.45c0-.11-.05-.3-.09-.56s-.07-.46-.09-.58a3.59,3.59,0,0,0-.42-1.29,1.1,1.1,0,0,0-1-.44,1.21,1.21,0,0,0-1,.48,2,2,0,0,0-.36,1.25,2.68,2.68,0,0,0,.56,1.71A2.05,2.05,0,0,0,344.61,406.24Z"/><path class="cls-6" d="M342.84,414.64l-1.06.59a2.86,2.86,0,0,1-.56-1.8,2.35,2.35,0,0,1,1.06-2.18,3,3,0,0,1,1.65-.35h4.65v-1.44h1.15v1.44h2.34v1.39h-2.34V415h-1.15v-2.69h-4.65c-1,0-1.44.43-1.44,1.28A1.66,1.66,0,0,0,342.84,414.64Z"/><path class="cls-6" d="M345.78,424.21a4.16,4.16,0,0,1-.54,0v-6.53a2.85,2.85,0,0,0-2,.82,2.75,2.75,0,0,0-.73,2,3.24,3.24,0,0,0,1.09,2.46l-.91.93a4.5,4.5,0,0,1-1.46-3.42,4,4,0,0,1,1.21-3.12,4.35,4.35,0,0,1,3.11-1.14,4.55,4.55,0,0,1,3.14,1.11,3.79,3.79,0,0,1,1.25,3,3.71,3.71,0,0,1-1.19,2.88A4.18,4.18,0,0,1,345.78,424.21Zm.53-6.53v5.09a2.64,2.64,0,0,0,1.78-.82,2.45,2.45,0,0,0,.64-1.73,2.42,2.42,0,0,0-.68-1.76A2.55,2.55,0,0,0,346.31,417.68Z"/><path class="cls-6" d="M170.79,158.13a2.87,2.87,0,0,1-.91,2.2,3.69,3.69,0,0,1-2.62.86h-4.82V150.53h4.47a4.24,4.24,0,0,1,2.54.67,2.23,2.23,0,0,1,.9,1.89,2.47,2.47,0,0,1-1.4,2.31,2.82,2.82,0,0,1,1.37,1.08A2.85,2.85,0,0,1,170.79,158.13Zm-1.95-4.83q0-1.41-2-1.41H164v3h3a2,2,0,0,0,1.4-.44A1.51,1.51,0,0,0,168.84,153.3Zm.39,4.75a1.81,1.81,0,0,0-.5-1.33,2,2,0,0,0-1.46-.49H164v3.61h3.26a2.13,2.13,0,0,0,1.49-.47A1.67,1.67,0,0,0,169.23,158.05Z"/><path class="cls-6" d="M178.49,152.87h1.39v8.32h-1.39v-1.36a3.38,3.38,0,0,1-2.85,1.55,2.82,2.82,0,0,1-2.13-.83,3.25,3.25,0,0,1-.78-2.31v-5.37h1.39v5c0,1.44.62,2.16,1.84,2.16a2.45,2.45,0,0,0,1.81-.72,2.52,2.52,0,0,0,.72-1.87Z"/><path class="cls-6" d="M183.77,151.24h-1.39v-1.48h1.39Zm0,9.95h-1.39v-8.32h1.39Z"/><path class="cls-6" d="M187.71,161.19h-1.4V149.76h1.4Z"/><path class="cls-6" d="M197.9,161.19h-1.4v-1.36a3.67,3.67,0,0,1-5.74.32,5.2,5.2,0,0,1,0-6.24,3.67,3.67,0,0,1,5.74.33v-4.48h1.4Zm-2.11-2a3.34,3.34,0,0,0,.71-2.2,3.28,3.28,0,0,0-.71-2.19,2.42,2.42,0,0,0-2-.87,2.3,2.3,0,0,0-1.93.86,3.44,3.44,0,0,0-.68,2.2,3.51,3.51,0,0,0,.68,2.21,2.3,2.3,0,0,0,1.93.86A2.42,2.42,0,0,0,195.79,159.23Z"/><path class="cls-6" d="M131,172.07h1.39v8.32H131V179a3.35,3.35,0,0,1-2.85,1.55,2.79,2.79,0,0,1-2.12-.83,3.21,3.21,0,0,1-.79-2.31v-5.37h1.39v5.05c0,1.44.62,2.16,1.84,2.16a2.45,2.45,0,0,0,1.81-.72,2.52,2.52,0,0,0,.72-1.87Z"/><path class="cls-6" d="M136.32,180.39h-1.39v-8.32h1.39v1.37a3.32,3.32,0,0,1,2.85-1.56,2.77,2.77,0,0,1,2.13.83,3.26,3.26,0,0,1,.78,2.32v5.36h-1.39v-5q0-2.16-1.86-2.16a2.44,2.44,0,0,0-1.8.72,2.56,2.56,0,0,0-.71,1.87Z"/><path class="cls-6" d="M152.13,180.39h-1.39V179a3.68,3.68,0,0,1-5.75.32,5.2,5.2,0,0,1,0-6.24,3.68,3.68,0,0,1,5.75.33V169h1.39Zm-2.1-2a3.4,3.4,0,0,0,.71-2.2A3.33,3.33,0,0,0,150,174a2.44,2.44,0,0,0-2-.87,2.3,2.3,0,0,0-1.93.86,3.44,3.44,0,0,0-.67,2.2,3.5,3.5,0,0,0,.67,2.21,2.3,2.3,0,0,0,1.93.86A2.44,2.44,0,0,0,150,178.43Z"/><path class="cls-6" d="M162.13,176a4.06,4.06,0,0,1,0,.54h-6.53a2.85,2.85,0,0,0,.81,2,2.74,2.74,0,0,0,2,.73,3.21,3.21,0,0,0,2.46-1.09l.93.91a4.5,4.5,0,0,1-3.42,1.46,4,4,0,0,1-3.12-1.21,4.34,4.34,0,0,1-1.14-3.11,4.57,4.57,0,0,1,1.11-3.14,3.78,3.78,0,0,1,3-1.24,3.7,3.7,0,0,1,2.88,1.18A4.2,4.2,0,0,1,162.13,176Zm-6.53-.53h5.09a2.64,2.64,0,0,0-.82-1.78,2.49,2.49,0,0,0-1.73-.63,2.41,2.41,0,0,0-1.76.67A2.57,2.57,0,0,0,155.6,175.49Z"/><path class="cls-6" d="M169,172.21l-.45,1.33a2,2,0,0,0-1-.26A1.91,1.91,0,0,0,166,174a3,3,0,0,0-.64,2v4.34H164v-8.32h1.39v1.41a2.82,2.82,0,0,1,2.42-1.57A2.06,2.06,0,0,1,169,172.21Z"/><path class="cls-6" d="M176.64,177.92a2.33,2.33,0,0,1-.91,1.93,3.88,3.88,0,0,1-2.5.73,4.08,4.08,0,0,1-3.68-1.78l1-.76a3.19,3.19,0,0,0,2.73,1.34,2.54,2.54,0,0,0,1.41-.34,1.14,1.14,0,0,0,.53-1,.82.82,0,0,0-.48-.82,8.79,8.79,0,0,0-1.81-.48,6.06,6.06,0,0,1-2.21-.78,1.84,1.84,0,0,1-.76-1.64,2.08,2.08,0,0,1,.9-1.82,3.77,3.77,0,0,1,2.22-.62,4.44,4.44,0,0,1,3.37,1.39l-.93.88a3.08,3.08,0,0,0-2.46-1.07,2.54,2.54,0,0,0-1.25.28.89.89,0,0,0-.51.84.8.8,0,0,0,.12.43,1.18,1.18,0,0,0,.27.31,1.59,1.59,0,0,0,.47.22l.56.16.64.12,1,.21a7.37,7.37,0,0,1,.87.29,2.41,2.41,0,0,1,.74.43,2.11,2.11,0,0,1,.46.64A2.06,2.06,0,0,1,176.64,177.92Z"/><path class="cls-6" d="M182.82,179l.59,1.06a2.87,2.87,0,0,1-1.81.56,2.37,2.37,0,0,1-2.18-1.06,3.1,3.1,0,0,1-.35-1.64v-4.66h-1.44v-1.15h1.44v-2.34h1.39v2.34h2.69v1.15h-2.69v4.66q0,1.44,1.29,1.44A1.67,1.67,0,0,0,182.82,179Z"/><path class="cls-6" d="M192.34,179.3l.17,1.06a2.6,2.6,0,0,1-1,.16,1.78,1.78,0,0,1-1.08-.33,1.43,1.43,0,0,1-.53-1,3.28,3.28,0,0,1-2.87,1.39,3,3,0,0,1-2.06-.67,2.36,2.36,0,0,1-.77-1.86,2.4,2.4,0,0,1,.19-1,2,2,0,0,1,.48-.68,2.54,2.54,0,0,1,.69-.43,4.5,4.5,0,0,1,.75-.26c.23-.05.48-.09.77-.13l.54-.07.55-.07c.12,0,.27,0,.47-.09a2.58,2.58,0,0,0,.45-.13,2.36,2.36,0,0,0,.32-.2.71.71,0,0,0,.24-.28,1,1,0,0,0,.07-.4,1,1,0,0,0-.56-.92,2.78,2.78,0,0,0-1.33-.29,4.18,4.18,0,0,0-2.59.88l-.64-1.06a5.77,5.77,0,0,1,3.33-1.05,3.71,3.71,0,0,1,2.35.67,2.42,2.42,0,0,1,.86,2v3.93q0,.9.66.9A.82.82,0,0,0,192.34,179.3Zm-2.55-2.11v-1.44a1.56,1.56,0,0,1-.34.34,1.37,1.37,0,0,1-.47.22l-.44.12a4.57,4.57,0,0,1-.57.09l-.58.09a3.45,3.45,0,0,0-1.29.43,1.07,1.07,0,0,0-.44,1,1.26,1.26,0,0,0,.48,1.06,2.1,2.1,0,0,0,1.25.35,2.68,2.68,0,0,0,1.71-.56A2,2,0,0,0,189.79,177.19Z"/><path class="cls-6" d="M195.34,180.39H194v-8.32h1.39v1.37a3.32,3.32,0,0,1,2.85-1.56,2.76,2.76,0,0,1,2.13.83,3.26,3.26,0,0,1,.78,2.32v5.36h-1.39v-5c0-1.44-.62-2.16-1.85-2.16a2.41,2.41,0,0,0-1.8.72,2.52,2.52,0,0,0-.72,1.87Z"/><path class="cls-6" d="M211.15,180.39h-1.39V179a3.67,3.67,0,0,1-5.74.32,5.2,5.2,0,0,1,0-6.24,3.67,3.67,0,0,1,5.74.33V169h1.39Zm-2.1-2a3.4,3.4,0,0,0,.71-2.2,3.33,3.33,0,0,0-.71-2.19,2.44,2.44,0,0,0-2-.87,2.32,2.32,0,0,0-1.94.86,3.44,3.44,0,0,0-.67,2.2,3.5,3.5,0,0,0,.67,2.21,2.32,2.32,0,0,0,1.94.86A2.44,2.44,0,0,0,209.05,178.43Z"/><path class="cls-6" d="M215,170.44h-1.39V169H215Zm0,9.95h-1.39v-8.32H215Z"/><path class="cls-6" d="M218.93,180.39h-1.39v-8.32h1.39v1.37a3.29,3.29,0,0,1,2.85-1.56,2.75,2.75,0,0,1,2.12.83,3.22,3.22,0,0,1,.79,2.32v5.36h-1.4v-5c0-1.44-.61-2.16-1.85-2.16a2.41,2.41,0,0,0-1.8.72,2.52,2.52,0,0,0-.71,1.87Z"/><path class="cls-6" d="M234.77,172.07v7a3.84,3.84,0,0,1-4.4,4.29,6.06,6.06,0,0,1-3.48-1l.71-1.14a4.62,4.62,0,0,0,2.78.87,3.38,3.38,0,0,0,2.18-.67,2.54,2.54,0,0,0,.81-2.07v-.89a3.08,3.08,0,0,1-1.29,1.16,4,4,0,0,1-1.75.39,3.5,3.5,0,0,1-2.71-1.15,4.5,4.5,0,0,1,0-5.8,3.54,3.54,0,0,1,2.74-1.16,3.26,3.26,0,0,1,3,1.56v-1.37Zm-1.38,3.85a2.81,2.81,0,0,0-.72-2,2.59,2.59,0,0,0-2-.78,2.43,2.43,0,0,0-1.94.78,2.87,2.87,0,0,0-.68,2,3,3,0,0,0,.68,2,2.41,2.41,0,0,0,1.94.8,2.56,2.56,0,0,0,2-.8A2.87,2.87,0,0,0,233.39,175.92Z"/><path class="cls-6" d="M138.4,198.5l.18,1.06a2.67,2.67,0,0,1-1,.16,1.74,1.74,0,0,1-1.08-.33,1.47,1.47,0,0,1-.54-1,3.26,3.26,0,0,1-2.86,1.39,3,3,0,0,1-2.07-.67,2.35,2.35,0,0,1-.76-1.86,2.4,2.4,0,0,1,.19-1,2,2,0,0,1,.47-.68,2.52,2.52,0,0,1,.7-.43,4,4,0,0,1,.75-.26c.22,0,.48-.09.77-.13l.53-.07.55-.07.48-.09a2.7,2.7,0,0,0,.44-.13,1.87,1.87,0,0,0,.32-.2.58.58,0,0,0,.24-.28,1,1,0,0,0,.08-.4,1,1,0,0,0-.56-.92,2.8,2.8,0,0,0-1.33-.29,4.16,4.16,0,0,0-2.59.88l-.64-1.06a5.76,5.76,0,0,1,3.32-1,3.74,3.74,0,0,1,2.36.67,2.45,2.45,0,0,1,.86,2.05v3.93q0,.9.66.9A.77.77,0,0,0,138.4,198.5Zm-2.54-2.11V195a1.6,1.6,0,0,1-.35.34,1.52,1.52,0,0,1-.46.22l-.45.12c-.11,0-.3.06-.57.09l-.57.09a3.51,3.51,0,0,0-1.3.43,1.06,1.06,0,0,0-.43,1,1.24,1.24,0,0,0,.48,1.06,2.1,2.1,0,0,0,1.25.35,2.64,2.64,0,0,0,1.7-.56A2,2,0,0,0,135.86,196.39Z"/><path class="cls-6" d="M141.41,199.59H140v-8.32h1.39v1.37a3.29,3.29,0,0,1,2.85-1.56,2.79,2.79,0,0,1,2.13.83,3.26,3.26,0,0,1,.78,2.32v5.36h-1.39v-5q0-2.16-1.86-2.16a2.44,2.44,0,0,0-1.8.72,2.56,2.56,0,0,0-.71,1.87Z"/><path class="cls-6" d="M157.22,199.59h-1.39v-1.36a3.68,3.68,0,0,1-5.75.32,5.2,5.2,0,0,1,0-6.24,3.68,3.68,0,0,1,5.75.33v-4.48h1.39Zm-2.11-2a3.35,3.35,0,0,0,.72-2.2,3.28,3.28,0,0,0-.72-2.19,2.41,2.41,0,0,0-2-.87,2.3,2.3,0,0,0-1.93.86,3.44,3.44,0,0,0-.68,2.2,3.51,3.51,0,0,0,.68,2.21,2.3,2.3,0,0,0,1.93.86A2.41,2.41,0,0,0,155.11,197.63Z"/><path class="cls-6" d="M171.54,195.22a4.16,4.16,0,0,1,0,.54H165a2.85,2.85,0,0,0,.81,2,2.73,2.73,0,0,0,2,.73,3.21,3.21,0,0,0,2.46-1.09l.93.91a4.5,4.5,0,0,1-3.42,1.46,4,4,0,0,1-3.12-1.21,4.34,4.34,0,0,1-1.14-3.11,4.57,4.57,0,0,1,1.11-3.14,3.78,3.78,0,0,1,3-1.24,3.73,3.73,0,0,1,2.88,1.18A4.2,4.2,0,0,1,171.54,195.22Zm-6.53-.53h5.09a2.64,2.64,0,0,0-.82-1.78,2.49,2.49,0,0,0-1.73-.63,2.41,2.41,0,0,0-1.76.67A2.57,2.57,0,0,0,165,194.69Z"/><path class="cls-6" d="M174.8,199.59h-1.39v-8.32h1.39v1.34a3.16,3.16,0,0,1,2.71-1.53,2.38,2.38,0,0,1,2.49,1.68,3.39,3.39,0,0,1,2.95-1.68,2.68,2.68,0,0,1,2.07.81,3.28,3.28,0,0,1,.74,2.27v5.43h-1.39V194.5c0-1.41-.58-2.11-1.74-2.11a2.2,2.2,0,0,0-1.68.71,2.56,2.56,0,0,0-.68,1.83v4.66h-1.39V194.5c0-1.41-.58-2.11-1.74-2.11a2.18,2.18,0,0,0-1.68.7,2.59,2.59,0,0,0-.66,1.84Z"/><path class="cls-6" d="M188.16,191.27h1.39v1.37a3.68,3.68,0,0,1,5.75-.33,5.18,5.18,0,0,1,0,6.24,3.67,3.67,0,0,1-5.74-.32v4.14h-1.39Zm2.1,2a3.42,3.42,0,0,0-.71,2.2,3.33,3.33,0,0,0,.72,2.2,2.42,2.42,0,0,0,2,.86,2.31,2.31,0,0,0,1.94-.86,3.95,3.95,0,0,0,0-4.4,2.31,2.31,0,0,0-1.94-.87A2.4,2.4,0,0,0,190.26,193.24Z"/><path class="cls-6" d="M205.75,198.5l.17,1.06a2.6,2.6,0,0,1-1,.16,1.76,1.76,0,0,1-1.08-.33,1.43,1.43,0,0,1-.53-1,3.28,3.28,0,0,1-2.87,1.39,3,3,0,0,1-2.06-.67,2.36,2.36,0,0,1-.77-1.86,2.4,2.4,0,0,1,.19-1,2.09,2.09,0,0,1,.47-.68,2.52,2.52,0,0,1,.7-.43,4.5,4.5,0,0,1,.75-.26c.23,0,.48-.09.77-.13l.54-.07.55-.07.47-.09a2.58,2.58,0,0,0,.45-.13,2.36,2.36,0,0,0,.32-.2.71.71,0,0,0,.24-.28,1,1,0,0,0,.07-.4,1,1,0,0,0-.56-.92,2.78,2.78,0,0,0-1.33-.29,4.18,4.18,0,0,0-2.59.88l-.64-1.06a5.77,5.77,0,0,1,3.33-1,3.73,3.73,0,0,1,2.35.67,2.42,2.42,0,0,1,.86,2.05v3.93q0,.9.66.9A.82.82,0,0,0,205.75,198.5Zm-2.55-2.11V195a1.56,1.56,0,0,1-.34.34,1.58,1.58,0,0,1-.47.22l-.44.12c-.12,0-.31.06-.57.09l-.58.09a3.45,3.45,0,0,0-1.29.43,1.07,1.07,0,0,0-.44,1,1.24,1.24,0,0,0,.48,1.06,2.1,2.1,0,0,0,1.25.35,2.68,2.68,0,0,0,1.71-.56A2.05,2.05,0,0,0,203.2,196.39Z"/><path class="cls-6" d="M211.6,198.16l.59,1.06a2.86,2.86,0,0,1-1.8.56,2.35,2.35,0,0,1-2.18-1.06,3.1,3.1,0,0,1-.35-1.64v-4.66h-1.44v-1.15h1.44v-2.34h1.39v2.34h2.69v1.15h-2.69v4.66c0,1,.43,1.44,1.28,1.44A1.65,1.65,0,0,0,211.6,198.16Z"/><path class="cls-6" d="M215.06,199.59h-1.39V188.16h1.39v4.48a3.29,3.29,0,0,1,2.85-1.56,2.75,2.75,0,0,1,2.12.83,3.22,3.22,0,0,1,.79,2.32v5.36h-1.39v-5q0-2.16-1.86-2.16a2.41,2.41,0,0,0-1.8.72,2.52,2.52,0,0,0-.71,1.87Z"/><path class="cls-6" d="M230.21,191.27l-3.33,8.7a5.4,5.4,0,0,1-1.13,1.95,2.37,2.37,0,0,1-1.73.61,2.83,2.83,0,0,1-1.7-.51l.61-1a1.79,1.79,0,0,0,1,.32,1.21,1.21,0,0,0,.87-.33,3,3,0,0,0,.6-.94l.23-.49-3.52-8.29h1.6l2.65,6.46,2.36-6.46Z"/><path class="cls-6" d="M121.1,282.44H117V271.78h4.12a4.94,4.94,0,0,1,3.8,1.49,6.07,6.07,0,0,1,0,7.68A4.94,4.94,0,0,1,121.1,282.44Zm-2.6-1.38h2.6a3.38,3.38,0,0,0,2.67-1.06,5,5,0,0,0,0-5.78,3.38,3.38,0,0,0-2.67-1.06h-2.6Z"/><path class="cls-6" d="M135.81,278.07a2.77,2.77,0,0,1,0,.54h-6.52a2.85,2.85,0,0,0,.81,2,2.73,2.73,0,0,0,2,.73,3.21,3.21,0,0,0,2.46-1.09l.93.91a4.5,4.5,0,0,1-3.43,1.46,4.07,4.07,0,0,1-3.12-1.21,4.37,4.37,0,0,1-1.13-3.11,4.57,4.57,0,0,1,1.11-3.14,3.78,3.78,0,0,1,3-1.24,3.73,3.73,0,0,1,2.88,1.18A4.24,4.24,0,0,1,135.81,278.07Zm-6.53-.53h5.09a2.64,2.64,0,0,0-.82-1.78,2.51,2.51,0,0,0-1.73-.63,2.45,2.45,0,0,0-1.77.67A2.6,2.6,0,0,0,129.28,277.54Z"/><path class="cls-6" d="M142,271l-.19,1.16a4,4,0,0,0-1-.15,1.32,1.32,0,0,0-.88.25,1.08,1.08,0,0,0-.28.84v1h1.95v1.15h-1.95v7.17h-1.4v-7.17h-1.42v-1.15h1.42v-1a2.17,2.17,0,0,1,.66-1.72,2.65,2.65,0,0,1,1.82-.58A4,4,0,0,1,142,271Zm2.44,1.48h-1.4V271h1.4Zm0,9.95h-1.4v-8.32h1.4Z"/><path class="cls-6" d="M148.33,282.44h-1.39v-8.32h1.39v1.37a3.32,3.32,0,0,1,2.85-1.56,2.76,2.76,0,0,1,2.13.83,3.26,3.26,0,0,1,.78,2.32v5.36H152.7v-5c0-1.44-.62-2.16-1.85-2.16a2.41,2.41,0,0,0-1.8.72,2.52,2.52,0,0,0-.72,1.87Z"/><path class="cls-6" d="M164,278.07a4.06,4.06,0,0,1,0,.54h-6.53a2.85,2.85,0,0,0,.81,2,2.73,2.73,0,0,0,2,.73,3.21,3.21,0,0,0,2.46-1.09l.93.91a4.5,4.5,0,0,1-3.42,1.46,4,4,0,0,1-3.12-1.21,4.34,4.34,0,0,1-1.14-3.11,4.57,4.57,0,0,1,1.11-3.14,3.78,3.78,0,0,1,3-1.24,3.73,3.73,0,0,1,2.88,1.18A4.2,4.2,0,0,1,164,278.07Zm-6.53-.53h5.09a2.64,2.64,0,0,0-.82-1.78,2.49,2.49,0,0,0-1.73-.63,2.41,2.41,0,0,0-1.76.67A2.57,2.57,0,0,0,157.47,277.54Z"/><path class="cls-6" d="M171.58,278.42l4.18-4.3h1.76l-3.36,3.41,3.79,4.91h-1.76l-3-4-1.6,1.62v2.37h-1.39V271h1.39Z"/><path class="cls-6" d="M186.46,278.07a4.06,4.06,0,0,1,0,.54H179.9a2.86,2.86,0,0,0,.82,2,2.7,2.7,0,0,0,2,.73,3.24,3.24,0,0,0,2.47-1.09l.92.91a4.47,4.47,0,0,1-3.42,1.46,4.07,4.07,0,0,1-3.12-1.21,4.34,4.34,0,0,1-1.14-3.11,4.53,4.53,0,0,1,1.12-3.14,3.77,3.77,0,0,1,3-1.24,3.7,3.7,0,0,1,2.88,1.18A4.2,4.2,0,0,1,186.46,278.07Zm-6.53-.53H185a2.64,2.64,0,0,0-.81-1.78,2.51,2.51,0,0,0-1.73-.63,2.42,2.42,0,0,0-1.77.67A2.66,2.66,0,0,0,179.93,277.54Z"/><path class="cls-6" d="M195.41,274.12l-3.33,8.7a5.26,5.26,0,0,1-1.14,1.95,2.34,2.34,0,0,1-1.73.61,2.8,2.8,0,0,1-1.69-.51l.61-1a1.79,1.79,0,0,0,1,.32,1.17,1.17,0,0,0,.86-.33,2.88,2.88,0,0,0,.61-.94l.22-.49-3.52-8.29h1.6l2.66,6.46,2.35-6.46Z"/><path class="cls-6" d="M205.55,271l-.19,1.16a4.11,4.11,0,0,0-1-.15,1.28,1.28,0,0,0-.88.25,1.08,1.08,0,0,0-.29.84v1h1.95v1.15h-1.95v7.17h-1.39v-7.17h-1.42v-1.15h1.42v-1a2.17,2.17,0,0,1,.66-1.72,2.62,2.62,0,0,1,1.82-.58A4,4,0,0,1,205.55,271Zm2.51,11.43h-1.39V271h1.39Z"/><path class="cls-6" d="M218.25,278.29a4.41,4.41,0,0,1-1.12,3.12,4.25,4.25,0,0,1-6,0,4.45,4.45,0,0,1-1.11-3.12,4.5,4.5,0,0,1,1.11-3.14,4.25,4.25,0,0,1,6,0A4.46,4.46,0,0,1,218.25,278.29Zm-1.48,0a3.5,3.5,0,0,0-.7-2.23,2.31,2.31,0,0,0-1.91-.87,2.34,2.34,0,0,0-1.92.87,3.84,3.84,0,0,0,0,4.45,2.34,2.34,0,0,0,1.92.87,2.31,2.31,0,0,0,1.91-.87A3.47,3.47,0,0,0,216.77,278.29Z"/><path class="cls-6" d="M231.12,274.12l-2.31,8.32h-1.52l-2-6.53-2.05,6.53h-1.52l-2.3-8.32h1.48l1.68,6.64,2.08-6.64h1.28l2.07,6.64,1.69-6.64Z"/><path class="cls-6" d="M239.16,280a2.33,2.33,0,0,1-.91,1.93,3.85,3.85,0,0,1-2.49.73,4.07,4.07,0,0,1-3.68-1.78l1-.76a3.2,3.2,0,0,0,2.74,1.34,2.58,2.58,0,0,0,1.41-.34,1.13,1.13,0,0,0,.52-1,.82.82,0,0,0-.48-.82,8.84,8.84,0,0,0-1.8-.48,6.06,6.06,0,0,1-2.21-.78,1.85,1.85,0,0,1-.77-1.64,2.08,2.08,0,0,1,.9-1.82,3.79,3.79,0,0,1,2.22-.62,4.46,4.46,0,0,1,3.38,1.39l-.93.88a3.09,3.09,0,0,0-2.47-1.07,2.5,2.5,0,0,0-1.24.28.88.88,0,0,0-.52.84.8.8,0,0,0,.12.43,1.05,1.05,0,0,0,.28.31,1.48,1.48,0,0,0,.47.22l.55.16.65.12,1,.21a7.93,7.93,0,0,1,.86.29,2.6,2.6,0,0,1,.75.43,2.09,2.09,0,0,1,.45.64A2.06,2.06,0,0,1,239.16,280Z"/><path class="cls-6" d="M242.72,280.74v1.57a3.24,3.24,0,0,1-1.27,2.54l-.51-.52a2,2,0,0,0,.88-1.56v-.33H241v-1.7Z"/><path class="cls-6" d="M148.89,293.32h1.4v1.37a3.42,3.42,0,0,1,3-1.56,3.45,3.45,0,0,1,2.78,1.23,5.18,5.18,0,0,1,0,6.24,3.66,3.66,0,0,1-5.73-.32v4.14h-1.4Zm2.1,2a3.41,3.41,0,0,0-.7,2.2,3.32,3.32,0,0,0,.71,2.2,2.42,2.42,0,0,0,2,.86,2.32,2.32,0,0,0,1.94-.86,3.95,3.95,0,0,0,0-4.4,2.3,2.3,0,0,0-1.94-.87A2.4,2.4,0,0,0,151,295.29Z"/><path class="cls-6" d="M164,293.46l-.45,1.33a2,2,0,0,0-1-.26,1.91,1.91,0,0,0-1.51.75,3,3,0,0,0-.64,2v4.34H159v-8.32h1.39v1.41a2.82,2.82,0,0,1,2.42-1.57A2.06,2.06,0,0,1,164,293.46Z"/><path class="cls-6" d="M172.82,297.49a4.45,4.45,0,0,1-1.12,3.12,4.25,4.25,0,0,1-6,0,4.41,4.41,0,0,1-1.12-3.12,4.46,4.46,0,0,1,1.12-3.14,4.25,4.25,0,0,1,6,0A4.5,4.5,0,0,1,172.82,297.49Zm-1.49,0a3.5,3.5,0,0,0-.7-2.23,2.31,2.31,0,0,0-1.91-.87,2.34,2.34,0,0,0-1.92.87,3.84,3.84,0,0,0,0,4.45,2.34,2.34,0,0,0,1.92.87,2.31,2.31,0,0,0,1.91-.87A3.47,3.47,0,0,0,171.33,297.49Z"/><path class="cls-6" d="M174.77,290.21h1.39v4.48a3.42,3.42,0,0,1,3-1.56,3.45,3.45,0,0,1,2.78,1.23,5.18,5.18,0,0,1,0,6.24,3.66,3.66,0,0,1-5.73-.32v1.36h-1.39Zm2.09,5.08a3.79,3.79,0,0,0,0,4.4,2.43,2.43,0,0,0,2,.86,2.31,2.31,0,0,0,1.93-.86,3.95,3.95,0,0,0,0-4.4,2.29,2.29,0,0,0-1.93-.87A2.41,2.41,0,0,0,176.86,295.29Z"/><path class="cls-6" d="M186.33,301.64h-1.39V290.21h1.39Z"/><path class="cls-6" d="M196.38,297.27a4.06,4.06,0,0,1,0,.54h-6.53a2.9,2.9,0,0,0,.82,2,2.7,2.7,0,0,0,2,.73,3.24,3.24,0,0,0,2.47-1.09l.92.91a4.47,4.47,0,0,1-3.42,1.46,4.07,4.07,0,0,1-3.12-1.21,4.34,4.34,0,0,1-1.14-3.11,4.53,4.53,0,0,1,1.12-3.14,3.77,3.77,0,0,1,3-1.24,3.7,3.7,0,0,1,2.88,1.18A4.2,4.2,0,0,1,196.38,297.27Zm-6.53-.53h5.09a2.59,2.59,0,0,0-.81-1.78,2.51,2.51,0,0,0-1.73-.63,2.42,2.42,0,0,0-1.77.67A2.66,2.66,0,0,0,189.85,296.74Z"/><path class="cls-6" d="M199.65,301.64h-1.4v-8.32h1.4v1.34a3.14,3.14,0,0,1,2.7-1.53,2.4,2.4,0,0,1,2.5,1.68,3.36,3.36,0,0,1,2.94-1.68,2.65,2.65,0,0,1,2.07.81,3.24,3.24,0,0,1,.75,2.27v5.43h-1.4v-5.09c0-1.41-.58-2.11-1.74-2.11a2.24,2.24,0,0,0-1.68.71,2.57,2.57,0,0,0-.67,1.83v4.66h-1.39v-5.09c0-1.41-.58-2.11-1.75-2.11a2.2,2.2,0,0,0-1.68.7,2.62,2.62,0,0,0-.65,1.84Z"/><path class="cls-6" d="M129.5,319.75l.18,1.06a2.67,2.67,0,0,1-1,.16,1.74,1.74,0,0,1-1.08-.33,1.47,1.47,0,0,1-.54-1,3.26,3.26,0,0,1-2.86,1.39,3,3,0,0,1-2.06-.67,2.32,2.32,0,0,1-.77-1.86,2.4,2.4,0,0,1,.19-1,2,2,0,0,1,.47-.68,2.52,2.52,0,0,1,.7-.43,4.21,4.21,0,0,1,.75-.26c.22-.05.48-.09.77-.13l.53-.07.56-.07.47-.09a3.25,3.25,0,0,0,.45-.13,3.19,3.19,0,0,0,.32-.2.71.71,0,0,0,.24-.28,1.24,1.24,0,0,0,.07-.4,1,1,0,0,0-.56-.92,2.8,2.8,0,0,0-1.33-.29,4.18,4.18,0,0,0-2.59.88l-.64-1.06a5.77,5.77,0,0,1,3.33-1.05,3.73,3.73,0,0,1,2.35.67,2.45,2.45,0,0,1,.86,2.05V319q0,.9.66.9A.77.77,0,0,0,129.5,319.75ZM127,317.64V316.2a1.82,1.82,0,0,1-.34.34,1.71,1.71,0,0,1-.47.22l-.45.12c-.11,0-.3.06-.56.09l-.58.09a3.51,3.51,0,0,0-1.3.43,1.08,1.08,0,0,0-.43,1,1.24,1.24,0,0,0,.48,1.06,2.1,2.1,0,0,0,1.25.35,2.64,2.64,0,0,0,1.7-.56A2,2,0,0,0,127,317.64Z"/><path class="cls-6" d="M132.51,320.84h-1.39v-8.32h1.39v1.37a3.32,3.32,0,0,1,2.85-1.56,2.77,2.77,0,0,1,2.13.83,3.26,3.26,0,0,1,.78,2.32v5.36h-1.39v-5q0-2.16-1.86-2.16a2.44,2.44,0,0,0-1.8.72,2.56,2.56,0,0,0-.71,1.87Z"/><path class="cls-6" d="M148.32,320.84h-1.39v-1.36a3.68,3.68,0,0,1-5.75.32,5.2,5.2,0,0,1,0-6.24,3.68,3.68,0,0,1,5.75.33v-4.48h1.39Zm-2.1-2a3.4,3.4,0,0,0,.71-2.2,3.33,3.33,0,0,0-.71-2.19,2.44,2.44,0,0,0-2-.87,2.31,2.31,0,0,0-1.93.86,3.44,3.44,0,0,0-.67,2.2,3.5,3.5,0,0,0,.67,2.21,2.31,2.31,0,0,0,1.93.86A2.44,2.44,0,0,0,146.22,318.88Z"/><path class="cls-6" d="M155.14,312.52h1.39v1.37a3.42,3.42,0,0,1,3-1.56,3.45,3.45,0,0,1,2.78,1.23,5.18,5.18,0,0,1,0,6.24,3.66,3.66,0,0,1-5.73-.32v4.14h-1.39Zm2.09,2a3.41,3.41,0,0,0-.7,2.2,3.32,3.32,0,0,0,.71,2.2,2.43,2.43,0,0,0,2,.86,2.29,2.29,0,0,0,1.93-.86,3.95,3.95,0,0,0,0-4.4,2.29,2.29,0,0,0-1.93-.87A2.41,2.41,0,0,0,157.23,314.49Z"/><path class="cls-6" d="M172.72,319.75l.18,1.06a2.67,2.67,0,0,1-1,.16,1.74,1.74,0,0,1-1.08-.33,1.4,1.4,0,0,1-.54-1,3.27,3.27,0,0,1-2.86,1.39,3,3,0,0,1-2.07-.67,2.36,2.36,0,0,1-.77-1.86,2.4,2.4,0,0,1,.2-1,1.83,1.83,0,0,1,.47-.68,2.46,2.46,0,0,1,.69-.43,4.29,4.29,0,0,1,.76-.26c.22-.05.48-.09.76-.13l.54-.07.55-.07.47-.09a2.58,2.58,0,0,0,.45-.13,2.36,2.36,0,0,0,.32-.2.71.71,0,0,0,.24-.28,1,1,0,0,0,.07-.4,1,1,0,0,0-.56-.92,2.74,2.74,0,0,0-1.32-.29,4.21,4.21,0,0,0-2.6.88l-.64-1.06a5.81,5.81,0,0,1,3.33-1.05,3.71,3.71,0,0,1,2.35.67,2.43,2.43,0,0,1,.87,2.05V319c0,.6.22.9.65.9A.8.8,0,0,0,172.72,319.75Zm-2.54-2.11V316.2a1.86,1.86,0,0,1-.35.34,1.64,1.64,0,0,1-.46.22l-.45.12c-.11,0-.3.06-.57.09l-.57.09a3.51,3.51,0,0,0-1.3.43,1.06,1.06,0,0,0-.43,1,1.24,1.24,0,0,0,.48,1.06,2.08,2.08,0,0,0,1.25.35,2.64,2.64,0,0,0,1.7-.56A2.06,2.06,0,0,0,170.18,317.64Z"/><path class="cls-6" d="M175.73,310.89h-1.4v-1.48h1.4Zm0,9.95h-1.4v-8.32h1.4Z"/><path class="cls-6" d="M179.61,320.84h-1.39v-8.32h1.39v1.37a3.32,3.32,0,0,1,2.85-1.56,2.76,2.76,0,0,1,2.13.83,3.26,3.26,0,0,1,.78,2.32v5.36H184v-5c0-1.44-.62-2.16-1.85-2.16a2.41,2.41,0,0,0-1.8.72,2.52,2.52,0,0,0-.72,1.87Z"/><path class="cls-6" d="M192.09,312.52h1.4v1.37a3.42,3.42,0,0,1,3-1.56,3.45,3.45,0,0,1,2.78,1.23,5.18,5.18,0,0,1,0,6.24,3.66,3.66,0,0,1-5.73-.32v4.14h-1.4Zm2.1,2a3.41,3.41,0,0,0-.7,2.2,3.32,3.32,0,0,0,.71,2.2,2.42,2.42,0,0,0,2,.86,2.29,2.29,0,0,0,1.94-.86,3.95,3.95,0,0,0,0-4.4,2.3,2.3,0,0,0-1.94-.87A2.4,2.4,0,0,0,194.19,314.49Z"/><path class="cls-6" d="M209.87,316.69a4.41,4.41,0,0,1-1.12,3.12,4.25,4.25,0,0,1-6,0,4.45,4.45,0,0,1-1.11-3.12,4.5,4.5,0,0,1,1.11-3.14,4.25,4.25,0,0,1,6,0A4.46,4.46,0,0,1,209.87,316.69Zm-1.49,0a3.49,3.49,0,0,0-.69-2.23,2.55,2.55,0,0,0-3.84,0,3.89,3.89,0,0,0,0,4.45,2.55,2.55,0,0,0,3.84,0A3.46,3.46,0,0,0,208.38,316.69Z"/><path class="cls-6" d="M213.21,310.89h-1.39v-1.48h1.39Zm0,9.95h-1.39v-8.32h1.39Z"/><path class="cls-6" d="M217.1,320.84h-1.39v-8.32h1.39v1.37a3.32,3.32,0,0,1,2.85-1.56,2.77,2.77,0,0,1,2.13.83,3.26,3.26,0,0,1,.78,2.32v5.36h-1.39v-5q0-2.16-1.86-2.16a2.44,2.44,0,0,0-1.8.72,2.56,2.56,0,0,0-.71,1.87Z"/><path class="cls-6" d="M229.5,319.41l.59,1.06a2.86,2.86,0,0,1-1.8.56,2.35,2.35,0,0,1-2.18-1.06,3,3,0,0,1-.35-1.64v-4.66h-1.44v-1.15h1.44v-2.34h1.39v2.34h2.69v1.15h-2.69v4.66c0,1,.43,1.44,1.28,1.44A1.65,1.65,0,0,0,229.5,319.41Z"/><path class="cls-6" d="M237.92,318.37a2.36,2.36,0,0,1-.91,1.93,3.88,3.88,0,0,1-2.5.73,4.07,4.07,0,0,1-3.68-1.78l1-.76a3.21,3.21,0,0,0,2.74,1.34,2.54,2.54,0,0,0,1.41-.34,1.14,1.14,0,0,0,.53-1,.82.82,0,0,0-.49-.82,8.64,8.64,0,0,0-1.8-.48,6.06,6.06,0,0,1-2.21-.78,1.85,1.85,0,0,1-.77-1.64,2.08,2.08,0,0,1,.9-1.82,3.81,3.81,0,0,1,2.22-.62,4.46,4.46,0,0,1,3.38,1.39l-.93.88a3.08,3.08,0,0,0-2.46-1.07,2.51,2.51,0,0,0-1.25.28.89.89,0,0,0-.51.84.8.8,0,0,0,.12.43,1.18,1.18,0,0,0,.27.31,1.59,1.59,0,0,0,.47.22l.55.16.65.12,1,.21a8,8,0,0,1,.87.29,2.53,2.53,0,0,1,.74.43,2.11,2.11,0,0,1,.46.64A2.21,2.21,0,0,1,237.92,318.37Z"/><path class="cls-6" d="M126.7,513.13h-1.48V502.47h1.48Z"/><path class="cls-6" d="M137,513.13h-1.39v-1.36a3.68,3.68,0,0,1-5.75.32,4.66,4.66,0,0,1-1-3.1,4.72,4.72,0,0,1,1-3.14,3.67,3.67,0,0,1,5.75.34v-4.48H137Zm-2.11-2a3.33,3.33,0,0,0,.72-2.2,3.28,3.28,0,0,0-.72-2.19,2.41,2.41,0,0,0-2-.87,2.3,2.3,0,0,0-1.93.86,3.44,3.44,0,0,0-.67,2.2,3.48,3.48,0,0,0,.67,2.21,2.3,2.3,0,0,0,1.93.86A2.41,2.41,0,0,0,134.93,511.17Z"/><path class="cls-6" d="M147,508.76a4.06,4.06,0,0,1,0,.54h-6.53a2.85,2.85,0,0,0,.81,2,2.74,2.74,0,0,0,2,.73,3.21,3.21,0,0,0,2.46-1.09l.93.92a4.49,4.49,0,0,1-3.42,1.45,4,4,0,0,1-3.12-1.21A4.34,4.34,0,0,1,139,509a4.52,4.52,0,0,1,1.11-3.13,4.13,4.13,0,0,1,5.85-.07A4.2,4.2,0,0,1,147,508.76Zm-6.53-.53h5.09a2.66,2.66,0,0,0-.82-1.78,2.49,2.49,0,0,0-1.73-.63,2.41,2.41,0,0,0-1.76.67A2.57,2.57,0,0,0,140.51,508.23Z"/><path class="cls-6" d="M156.37,512l.17,1.06a2.6,2.6,0,0,1-1,.16,1.78,1.78,0,0,1-1.08-.33,1.43,1.43,0,0,1-.53-1,3.28,3.28,0,0,1-2.87,1.39,3,3,0,0,1-2.06-.67,2.36,2.36,0,0,1-.77-1.86,2.4,2.4,0,0,1,.19-1,2.09,2.09,0,0,1,.47-.68,2.78,2.78,0,0,1,.7-.43,4.5,4.5,0,0,1,.75-.26c.23-.05.48-.09.77-.13l.54-.07.55-.07a3.1,3.1,0,0,0,.47-.09,1.92,1.92,0,0,0,.45-.13,2.23,2.23,0,0,0,.32-.19.73.73,0,0,0,.24-.29.94.94,0,0,0,.07-.39,1,1,0,0,0-.56-.93,2.9,2.9,0,0,0-1.33-.29,4.18,4.18,0,0,0-2.59.88l-.64-1.06a5.77,5.77,0,0,1,3.33-1.05,3.73,3.73,0,0,1,2.35.67,2.42,2.42,0,0,1,.86,2v3.93q0,.9.66.9A.82.82,0,0,0,156.37,512Zm-2.55-2.11v-1.44a1.56,1.56,0,0,1-.34.34,1.37,1.37,0,0,1-.47.22l-.44.12-.57.1-.58.08a3.45,3.45,0,0,0-1.29.43,1.08,1.08,0,0,0-.44,1,1.24,1.24,0,0,0,.48,1.06,2.1,2.1,0,0,0,1.25.35,2.68,2.68,0,0,0,1.71-.56A2,2,0,0,0,153.82,509.93Z"/><path class="cls-6" d="M162.22,511.71l.59,1.05a2.86,2.86,0,0,1-1.8.56,2.37,2.37,0,0,1-2.18-1.05,3.16,3.16,0,0,1-.35-1.65V506H157v-1.15h1.44v-2.34h1.39v2.34h2.69V506h-2.69v4.66c0,1,.43,1.44,1.28,1.44A1.7,1.7,0,0,0,162.22,511.71Z"/><path class="cls-6" d="M171.79,508.76a4.06,4.06,0,0,1,0,.54h-6.53a2.86,2.86,0,0,0,.82,2,2.7,2.7,0,0,0,2,.73,3.21,3.21,0,0,0,2.46-1.09l.93.92a4.47,4.47,0,0,1-3.42,1.45,4.07,4.07,0,0,1-3.12-1.21,4.34,4.34,0,0,1-1.14-3.11,4.52,4.52,0,0,1,1.11-3.13,3.78,3.78,0,0,1,3-1.25,3.7,3.7,0,0,1,2.88,1.18A4.2,4.2,0,0,1,171.79,508.76Zm-6.53-.53h5.09a2.62,2.62,0,0,0-.82-1.78,2.48,2.48,0,0,0-1.72-.63,2.42,2.42,0,0,0-1.77.67A2.61,2.61,0,0,0,165.26,508.23Z"/><path class="cls-6" d="M175.28,511.43V513a3.27,3.27,0,0,1-1.27,2.55l-.51-.53a2,2,0,0,0,.88-1.55v-.34h-.81v-1.7Z"/><path class="cls-6" d="M188.35,510.67a2.32,2.32,0,0,1-.91,1.92,3.88,3.88,0,0,1-2.5.73,4.1,4.1,0,0,1-3.68-1.77l1-.77a3.19,3.19,0,0,0,2.73,1.34,2.54,2.54,0,0,0,1.41-.34,1.12,1.12,0,0,0,.53-1,.82.82,0,0,0-.48-.82,8.79,8.79,0,0,0-1.81-.48,6.06,6.06,0,0,1-2.21-.78,1.83,1.83,0,0,1-.77-1.63,2.1,2.1,0,0,1,.91-1.83,3.83,3.83,0,0,1,2.21-.62,4.45,4.45,0,0,1,3.38,1.39l-.93.88a3.11,3.11,0,0,0-2.46-1.07,2.54,2.54,0,0,0-1.25.28.89.89,0,0,0-.51.84.8.8,0,0,0,.12.43,1.18,1.18,0,0,0,.27.31,1.57,1.57,0,0,0,.47.23c.22.06.4.12.55.15l.65.13c.41.07.74.14,1,.2a7.37,7.37,0,0,1,.87.29,2.41,2.41,0,0,1,.74.43,2.11,2.11,0,0,1,.46.64A2.07,2.07,0,0,1,188.35,510.67Z"/><path class="cls-6" d="M191.68,509.11l4.17-4.3h1.76l-3.36,3.41,3.8,4.91h-1.76l-3-4-1.6,1.61v2.37h-1.39V501.71h1.39Z"/><path class="cls-6" d="M206.56,508.76a4.06,4.06,0,0,1,0,.54H200a2.85,2.85,0,0,0,.81,2,2.73,2.73,0,0,0,2,.73,3.21,3.21,0,0,0,2.46-1.09l.93.92a4.49,4.49,0,0,1-3.42,1.45,4,4,0,0,1-3.12-1.21,4.34,4.34,0,0,1-1.14-3.11,4.52,4.52,0,0,1,1.11-3.13,4.13,4.13,0,0,1,5.85-.07A4.2,4.2,0,0,1,206.56,508.76Zm-6.53-.53h5.09a2.66,2.66,0,0,0-.82-1.78,2.49,2.49,0,0,0-1.73-.63,2.41,2.41,0,0,0-1.76.67A2.57,2.57,0,0,0,200,508.23Z"/><path class="cls-6" d="M212.67,511.71l.59,1.05a2.87,2.87,0,0,1-1.81.56,2.36,2.36,0,0,1-2.17-1.05,3.07,3.07,0,0,1-.35-1.65V506h-1.44v-1.15h1.44v-2.34h1.39v2.34H213V506h-2.69v4.66c0,1,.42,1.44,1.28,1.44A1.72,1.72,0,0,0,212.67,511.71Z"/><path class="cls-6" d="M220.51,510.81l1.07.77a3.88,3.88,0,0,1-3.36,1.74,3.76,3.76,0,0,1-2.93-1.23,5,5,0,0,1,0-6.24,4.06,4.06,0,0,1,6.24.5l-1,.83a2.47,2.47,0,0,0-2.22-1.3,2.34,2.34,0,0,0-1.9.87,3.83,3.83,0,0,0,0,4.44,2.31,2.31,0,0,0,1.88.87A2.59,2.59,0,0,0,220.51,510.81Z"/><path class="cls-6" d="M224.7,513.13h-1.39V501.71h1.39v4.48a3.3,3.3,0,0,1,2.85-1.57,2.77,2.77,0,0,1,2.13.83,3.26,3.26,0,0,1,.78,2.32v5.36h-1.39v-5q0-2.16-1.86-2.16a2.44,2.44,0,0,0-1.8.72,2.56,2.56,0,0,0-.71,1.87Z"/><path class="cls-6" d="M234.48,511.43V513a3.27,3.27,0,0,1-1.27,2.55l-.51-.53a2,2,0,0,0,.88-1.55v-.34h-.81v-1.7Z"/><path class="cls-6" d="M142.88,524h1.39v1.38a3.41,3.41,0,0,1,3-1.57,3.45,3.45,0,0,1,2.78,1.23,4.63,4.63,0,0,1,1,3.12,4.68,4.68,0,0,1-1,3.12,3.48,3.48,0,0,1-2.78,1.23,3.44,3.44,0,0,1-3-1.55v4.14h-1.39Zm2.09,2a3.77,3.77,0,0,0,0,4.39,2.45,2.45,0,0,0,2,.86,2.29,2.29,0,0,0,1.93-.85,3.92,3.92,0,0,0,0-4.41,2.28,2.28,0,0,0-1.93-.87A2.39,2.39,0,0,0,145,526Z"/><path class="cls-6" d="M158,524.15l-.45,1.33a2,2,0,0,0-1-.25A1.91,1.91,0,0,0,155,526a3,3,0,0,0-.63,2v4.34H153V524h1.39v1.41a2.81,2.81,0,0,1,2.41-1.57A2.06,2.06,0,0,1,158,524.15Z"/><path class="cls-6" d="M166.8,528.19a4.41,4.41,0,0,1-1.12,3.12,4.27,4.27,0,0,1-6,0,4.45,4.45,0,0,1-1.11-3.12,4.52,4.52,0,0,1,1.11-3.15,4.25,4.25,0,0,1,6,0A4.48,4.48,0,0,1,166.8,528.19Zm-1.49,0a3.47,3.47,0,0,0-.7-2.24,2.31,2.31,0,0,0-1.91-.87,2.34,2.34,0,0,0-1.92.87,3.47,3.47,0,0,0-.7,2.24,3.4,3.4,0,0,0,.7,2.21,2.34,2.34,0,0,0,1.92.87,2.31,2.31,0,0,0,1.91-.87A3.4,3.4,0,0,0,165.31,528.19Z"/><path class="cls-6" d="M173,530.91l.59,1.05a2.81,2.81,0,0,1-1.81.56,2.36,2.36,0,0,1-2.17-1,3.07,3.07,0,0,1-.35-1.65v-4.66h-1.44V524h1.44v-2.34h1.39V524h2.69v1.15h-2.69v4.66c0,1,.42,1.44,1.28,1.44A1.72,1.72,0,0,0,173,530.91Z"/><path class="cls-6" d="M182.7,528.19a4.41,4.41,0,0,1-1.12,3.12,4.27,4.27,0,0,1-6,0,4.45,4.45,0,0,1-1.11-3.12,4.52,4.52,0,0,1,1.11-3.15,4.25,4.25,0,0,1,6,0A4.48,4.48,0,0,1,182.7,528.19Zm-1.49,0a3.52,3.52,0,0,0-.69-2.24,2.54,2.54,0,0,0-3.83,0,3.47,3.47,0,0,0-.71,2.24,3.41,3.41,0,0,0,.71,2.21,2.54,2.54,0,0,0,3.83,0A3.45,3.45,0,0,0,181.21,528.19Z"/><path class="cls-6" d="M188.89,530.91l.6,1.05a2.83,2.83,0,0,1-1.81.56,2.37,2.37,0,0,1-2.18-1,3.16,3.16,0,0,1-.35-1.65v-4.66h-1.44V524h1.44v-2.34h1.39V524h2.69v1.15h-2.69v4.66c0,1,.43,1.44,1.28,1.44A1.68,1.68,0,0,0,188.89,530.91Z"/><path class="cls-6" d="M198,524l-3.33,8.7a5.55,5.55,0,0,1-1.13,2,2.41,2.41,0,0,1-1.73.6,2.83,2.83,0,0,1-1.7-.51l.61-1a1.79,1.79,0,0,0,1,.32,1.21,1.21,0,0,0,.87-.33,3,3,0,0,0,.6-.94l.23-.49L189.92,524h1.6l2.65,6.46,2.36-6.46Z"/><path class="cls-6" d="M199.52,524h1.39v1.38a3.4,3.4,0,0,1,3-1.57,3.45,3.45,0,0,1,2.78,1.23,5.18,5.18,0,0,1,0,6.24,3.66,3.66,0,0,1-5.73-.32v4.14h-1.39Zm2.09,2a3.77,3.77,0,0,0,0,4.39,2.44,2.44,0,0,0,2,.86,2.29,2.29,0,0,0,1.93-.85,4,4,0,0,0,0-4.41,2.28,2.28,0,0,0-1.93-.87A2.39,2.39,0,0,0,201.61,526Z"/><path class="cls-6" d="M217.15,528a4.22,4.22,0,0,1,0,.55h-6.53a2.84,2.84,0,0,0,.81,2,2.74,2.74,0,0,0,2,.73,3.21,3.21,0,0,0,2.46-1.09l.93.92a4.49,4.49,0,0,1-3.42,1.45,4,4,0,0,1-3.12-1.21,4.34,4.34,0,0,1-1.14-3.11,4.52,4.52,0,0,1,1.11-3.13,3.75,3.75,0,0,1,3-1.25,3.7,3.7,0,0,1,2.88,1.18A4.2,4.2,0,0,1,217.15,528Zm-6.53-.53h5.09a2.66,2.66,0,0,0-.82-1.78,2.49,2.49,0,0,0-1.73-.63,2.41,2.41,0,0,0-1.76.67A2.57,2.57,0,0,0,210.62,527.43Z"/><path class="cls-6" d="M111,634.78h-1.49V624.13H111Z"/><path class="cls-6" d="M115.06,634.78h-1.39v-8.32h1.39v1.38a3.29,3.29,0,0,1,2.85-1.57,2.82,2.82,0,0,1,2.13.83,3.27,3.27,0,0,1,.78,2.32v5.36h-1.39v-5q0-2.16-1.86-2.16a2.44,2.44,0,0,0-1.8.72,2.58,2.58,0,0,0-.71,1.88Z"/><path class="cls-6" d="M127.46,633.36l.59,1a2.8,2.8,0,0,1-1.8.56,2.37,2.37,0,0,1-2.18-1.05,3,3,0,0,1-.35-1.65v-4.66h-1.44v-1.15h1.44v-2.33h1.39v2.33h2.69v1.15h-2.69v4.66c0,1,.43,1.44,1.28,1.44A1.72,1.72,0,0,0,127.46,633.36Z"/><path class="cls-6" d="M137,630.41a4.22,4.22,0,0,1,0,.55h-6.53a2.89,2.89,0,0,0,.81,2,2.78,2.78,0,0,0,2,.72,3.23,3.23,0,0,0,2.46-1.08l.93.91a4.49,4.49,0,0,1-3.42,1.45,4.07,4.07,0,0,1-3.12-1.2,4.38,4.38,0,0,1-1.14-3.12,4.54,4.54,0,0,1,1.11-3.13,4.13,4.13,0,0,1,5.85-.07A4.2,4.2,0,0,1,137,630.41Zm-6.53-.52h5.09a2.67,2.67,0,0,0-.82-1.79,2.49,2.49,0,0,0-1.73-.63,2.41,2.41,0,0,0-1.76.67A2.57,2.57,0,0,0,130.5,629.89Z"/><path class="cls-6" d="M143.84,626.61l-.44,1.32a2,2,0,0,0-1-.25,2,2,0,0,0-1.52.74,3,3,0,0,0-.63,2v4.33H138.9v-8.32h1.39v1.41a2.84,2.84,0,0,1,2.42-1.57A1.93,1.93,0,0,1,143.84,626.61Z"/><path class="cls-6" d="M152.64,633.69l.18,1.06a2.47,2.47,0,0,1-1,.16,1.74,1.74,0,0,1-1.08-.33,1.47,1.47,0,0,1-.54-1,3.26,3.26,0,0,1-2.86,1.39,3,3,0,0,1-2.06-.67,2.3,2.3,0,0,1-.77-1.85,2.41,2.41,0,0,1,.19-1,2.21,2.21,0,0,1,.47-.68,3.1,3.1,0,0,1,.7-.43,3.65,3.65,0,0,1,.75-.25c.22-.05.48-.1.77-.14l.53-.06.56-.08.47-.08a2.72,2.72,0,0,0,.45-.14l.32-.19a.73.73,0,0,0,.24-.29,1.13,1.13,0,0,0,.07-.39,1,1,0,0,0-.56-.93,2.93,2.93,0,0,0-1.33-.29,4.24,4.24,0,0,0-2.59.88l-.64-1a5.7,5.7,0,0,1,3.33-1.06,3.73,3.73,0,0,1,2.35.67,2.45,2.45,0,0,1,.86,2v3.94c0,.59.22.89.66.89A.77.77,0,0,0,152.64,633.69Zm-2.54-2.11v-1.44a1.89,1.89,0,0,1-.34.35,1.46,1.46,0,0,1-.47.21,3.08,3.08,0,0,1-.45.12c-.11,0-.3.06-.56.1l-.58.09a3.35,3.35,0,0,0-1.3.42,1.11,1.11,0,0,0-.43,1,1.23,1.23,0,0,0,.48,1.06,2,2,0,0,0,1.25.35,2.58,2.58,0,0,0,1.7-.56A2,2,0,0,0,150.1,631.58Z"/><path class="cls-6" d="M160,632.46l1.07.77a3.88,3.88,0,0,1-3.36,1.74,3.75,3.75,0,0,1-2.93-1.23,5,5,0,0,1,0-6.24,3.75,3.75,0,0,1,2.93-1.23,3.82,3.82,0,0,1,3.31,1.73l-1,.83a2.49,2.49,0,0,0-2.22-1.3,2.34,2.34,0,0,0-1.9.88,3.81,3.81,0,0,0,0,4.43,2.3,2.3,0,0,0,1.88.87A2.58,2.58,0,0,0,160,632.46Z"/><path class="cls-6" d="M167.08,633.36l.59,1a2.81,2.81,0,0,1-1.81.56,2.38,2.38,0,0,1-2.18-1.05,3.12,3.12,0,0,1-.35-1.65v-4.66h-1.44v-1.15h1.44v-2.33h1.39v2.33h2.69v1.15h-2.69v4.66c0,1,.43,1.44,1.28,1.44A1.73,1.73,0,0,0,167.08,633.36Z"/><path class="cls-6" d="M170.53,624.83h-1.39v-1.47h1.39Zm0,9.95h-1.39v-8.32h1.39Z"/><path class="cls-6" d="M180.12,626.46l-3.33,8.32h-1.46L172,626.46h1.57l2.51,6.66,2.52-6.66Z"/><path class="cls-6" d="M189,630.41a4.22,4.22,0,0,1,0,.55h-6.53a2.89,2.89,0,0,0,.82,2,2.74,2.74,0,0,0,2,.72,3.27,3.27,0,0,0,2.47-1.08l.92.91a4.46,4.46,0,0,1-3.42,1.45,4.1,4.1,0,0,1-3.12-1.2,4.38,4.38,0,0,1-1.14-3.12,4.5,4.5,0,0,1,1.12-3.13,3.78,3.78,0,0,1,3-1.25,3.74,3.74,0,0,1,2.88,1.18A4.2,4.2,0,0,1,189,630.41Zm-6.53-.52h5.09a2.66,2.66,0,0,0-.81-1.79,2.51,2.51,0,0,0-1.73-.63,2.42,2.42,0,0,0-1.77.67A2.66,2.66,0,0,0,182.48,629.89Z"/><path class="cls-6" d="M202.85,634.78h-1.39v-1.36a3.67,3.67,0,0,1-5.74.32,4.6,4.6,0,0,1-1-3.1,4.67,4.67,0,0,1,1-3.14,3.66,3.66,0,0,1,5.74.34v-4.48h1.39Zm-2.1-2a3.75,3.75,0,0,0,0-4.39,2.43,2.43,0,0,0-2-.86,2.31,2.31,0,0,0-1.94.85,4,4,0,0,0,0,4.41,2.29,2.29,0,0,0,1.94.86A2.44,2.44,0,0,0,200.75,632.82Z"/><path class="cls-6" d="M212.85,630.41a4.22,4.22,0,0,1,0,.55h-6.53a2.89,2.89,0,0,0,.82,2,2.74,2.74,0,0,0,2,.72,3.27,3.27,0,0,0,2.47-1.08l.92.91a4.46,4.46,0,0,1-3.42,1.45,4.1,4.1,0,0,1-3.12-1.2,4.38,4.38,0,0,1-1.14-3.12,4.5,4.5,0,0,1,1.12-3.13,3.78,3.78,0,0,1,3-1.25,3.74,3.74,0,0,1,2.88,1.18A4.2,4.2,0,0,1,212.85,630.41Zm-6.53-.52h5.09a2.66,2.66,0,0,0-.81-1.79,2.51,2.51,0,0,0-1.73-.63,2.42,2.42,0,0,0-1.77.67A2.66,2.66,0,0,0,206.32,629.89Z"/><path class="cls-6" d="M221.08,632.32a2.36,2.36,0,0,1-.92,1.93,3.9,3.9,0,0,1-2.49.72A4.09,4.09,0,0,1,214,633.2l1-.77a3.17,3.17,0,0,0,2.74,1.34,2.58,2.58,0,0,0,1.41-.34,1.12,1.12,0,0,0,.52-1,.83.83,0,0,0-.48-.82,10.43,10.43,0,0,0-1.8-.48,6.06,6.06,0,0,1-2.21-.78,1.82,1.82,0,0,1-.77-1.63,2.09,2.09,0,0,1,.9-1.83,3.87,3.87,0,0,1,2.22-.62,4.46,4.46,0,0,1,3.38,1.39l-.93.88a3.12,3.12,0,0,0-2.47-1.07,2.5,2.5,0,0,0-1.24.28.9.9,0,0,0-.52.84.8.8,0,0,0,.12.43.94.94,0,0,0,.28.31,1.46,1.46,0,0,0,.47.23,4.24,4.24,0,0,0,.55.15l.65.13q.6.1,1,.21a7.07,7.07,0,0,1,.86.28,2.6,2.6,0,0,1,.75.44,2,2,0,0,1,.45.64A2,2,0,0,1,221.08,632.32Z"/><path class="cls-6" d="M224.4,624.83H223v-1.47h1.39Zm0,9.95H223v-8.32h1.39Z"/><path class="cls-6" d="M234.58,626.46v7a3.85,3.85,0,0,1-4.4,4.29,5.94,5.94,0,0,1-3.47-1l.7-1.13a4.62,4.62,0,0,0,2.79.86,3.29,3.29,0,0,0,2.17-.67,2.54,2.54,0,0,0,.82-2.06v-.9a3,3,0,0,1-1.3,1.16,4,4,0,0,1-1.74.39,3.5,3.5,0,0,1-2.71-1.14,4.49,4.49,0,0,1,0-5.81,3.59,3.59,0,0,1,2.74-1.16,3.27,3.27,0,0,1,3,1.57v-1.38Zm-1.38,3.86a2.85,2.85,0,0,0-.72-2,2.58,2.58,0,0,0-2-.78,2.43,2.43,0,0,0-1.94.78,3,3,0,0,0-.68,2,3,3,0,0,0,.68,2,2.38,2.38,0,0,0,1.94.8,2.55,2.55,0,0,0,2-.8A2.88,2.88,0,0,0,233.2,630.32Z"/><path class="cls-6" d="M238.47,634.78h-1.39v-8.32h1.39v1.38a3.28,3.28,0,0,1,2.85-1.57,2.79,2.79,0,0,1,2.12.83,3.23,3.23,0,0,1,.79,2.32v5.36h-1.4v-5c0-1.44-.61-2.16-1.85-2.16a2.41,2.41,0,0,0-1.8.72,2.54,2.54,0,0,0-.71,1.88Z"/><path class="cls-6" d="M248.24,633.09v1.56A3.28,3.28,0,0,1,247,637.2l-.51-.53a2,2,0,0,0,.88-1.55v-.34h-.82v-1.69Z"/><path class="cls-6" d="M150.52,652.56l.6,1.05a2.84,2.84,0,0,1-1.81.57,2.37,2.37,0,0,1-2.18-1.06,3.12,3.12,0,0,1-.35-1.65v-4.66h-1.44v-1.15h1.44v-2.33h1.39v2.33h2.69v1.15h-2.69v4.66c0,1,.43,1.44,1.28,1.44A1.68,1.68,0,0,0,150.52,652.56Z"/><path class="cls-6" d="M160.09,649.61a4.22,4.22,0,0,1,0,.55h-6.53a2.89,2.89,0,0,0,.82,2,2.74,2.74,0,0,0,2,.72,3.27,3.27,0,0,0,2.47-1.08l.92.91a4.47,4.47,0,0,1-3.42,1.46,4.1,4.1,0,0,1-3.12-1.21,4.38,4.38,0,0,1-1.14-3.12,4.5,4.5,0,0,1,1.12-3.13,3.78,3.78,0,0,1,3-1.25,3.74,3.74,0,0,1,2.88,1.18A4.2,4.2,0,0,1,160.09,649.61Zm-6.53-.52h5.09a2.66,2.66,0,0,0-.81-1.79,2.51,2.51,0,0,0-1.73-.63,2.42,2.42,0,0,0-1.77.67A2.66,2.66,0,0,0,153.56,649.09Z"/><path class="cls-6" d="M168.32,651.52a2.36,2.36,0,0,1-.92,1.93,3.91,3.91,0,0,1-2.49.73,4.09,4.09,0,0,1-3.68-1.78l1-.77A3.17,3.17,0,0,0,165,653a2.58,2.58,0,0,0,1.41-.34,1.12,1.12,0,0,0,.52-1,.83.83,0,0,0-.48-.82,9.78,9.78,0,0,0-1.8-.47,6.24,6.24,0,0,1-2.21-.79,1.82,1.82,0,0,1-.77-1.63,2.09,2.09,0,0,1,.9-1.83,3.89,3.89,0,0,1,2.22-.62,4.46,4.46,0,0,1,3.38,1.39l-.93.88a3.12,3.12,0,0,0-2.47-1.07,2.5,2.5,0,0,0-1.24.28.9.9,0,0,0-.52.84.8.8,0,0,0,.12.43.94.94,0,0,0,.28.31,1.46,1.46,0,0,0,.47.23,4.24,4.24,0,0,0,.55.15l.65.13q.6.11,1,.21a7.07,7.07,0,0,1,.86.28,2.6,2.6,0,0,1,.75.44,2,2,0,0,1,.45.64A2,2,0,0,1,168.32,651.52Z"/><path class="cls-6" d="M174.49,652.56l.59,1.05a2.81,2.81,0,0,1-1.8.57,2.37,2.37,0,0,1-2.18-1.06,3.12,3.12,0,0,1-.35-1.65v-4.66h-1.44v-1.15h1.44v-2.33h1.39v2.33h2.69v1.15h-2.69v4.66c0,1,.43,1.44,1.28,1.44A1.7,1.7,0,0,0,174.49,652.56Z"/><path class="cls-6" d="M178.17,652.29v1.56a3.28,3.28,0,0,1-1.26,2.55l-.51-.53a2,2,0,0,0,.88-1.55V654h-.82v-1.69Z"/><path class="cls-6" d="M192.35,652.89l.17,1.06a2.41,2.41,0,0,1-1,.16,1.78,1.78,0,0,1-1.08-.33,1.43,1.43,0,0,1-.53-1,3.28,3.28,0,0,1-2.87,1.4,3,3,0,0,1-2.06-.68,2.33,2.33,0,0,1-.77-1.85,2.58,2.58,0,0,1,.19-1,2.07,2.07,0,0,1,.48-.68,2.82,2.82,0,0,1,.69-.43,4.38,4.38,0,0,1,.75-.25c.23,0,.48-.1.77-.14l.54-.06.55-.08a4.61,4.61,0,0,0,.47-.08,2.44,2.44,0,0,0,.45-.14,2.23,2.23,0,0,0,.32-.19.73.73,0,0,0,.24-.29.94.94,0,0,0,.07-.39,1,1,0,0,0-.56-.93,2.87,2.87,0,0,0-1.33-.29,4.24,4.24,0,0,0-2.59.88l-.64-1.05a5.75,5.75,0,0,1,3.33-1.06,3.71,3.71,0,0,1,2.35.67,2.43,2.43,0,0,1,.87,2.05v3.94c0,.59.21.89.65.89A.82.82,0,0,0,192.35,652.89Zm-2.55-2.11v-1.44a1.62,1.62,0,0,1-.34.35,1.4,1.4,0,0,1-.46.21l-.45.12c-.11,0-.3.06-.57.1l-.58.09a3.35,3.35,0,0,0-1.29.42,1.08,1.08,0,0,0-.43,1,1.23,1.23,0,0,0,.48,1.06,2,2,0,0,0,1.24.35,2.61,2.61,0,0,0,1.71-.56A2,2,0,0,0,189.8,650.78Z"/><path class="cls-6" d="M195.36,654H194v-8.32h1.4V647a3.28,3.28,0,0,1,2.84-1.57,2.79,2.79,0,0,1,2.13.83,3.28,3.28,0,0,1,.79,2.32V654h-1.4v-5c0-1.44-.61-2.16-1.85-2.16a2.41,2.41,0,0,0-1.8.72,2.54,2.54,0,0,0-.71,1.88Z"/><path class="cls-6" d="M211.16,654h-1.39v-1.36a3.42,3.42,0,0,1-3,1.56,3.46,3.46,0,0,1-2.78-1.24,4.6,4.6,0,0,1-1-3.1,4.67,4.67,0,0,1,1-3.14,3.66,3.66,0,0,1,5.74.34v-4.48h1.39Zm-2.1-2a3.75,3.75,0,0,0,0-4.39,2.43,2.43,0,0,0-2-.86,2.31,2.31,0,0,0-1.94.85,4,4,0,0,0,0,4.41,2.29,2.29,0,0,0,1.94.86A2.44,2.44,0,0,0,209.06,652Z"/><path class="cls-6" d="M121.1,663.23h-1.39v-1.47h1.39Zm0,9.95h-1.39v-8.32h1.39Z"/><path class="cls-6" d="M125,673.18H123.6v-8.32H125v1.35a3.12,3.12,0,0,1,2.7-1.54,2.4,2.4,0,0,1,2.5,1.68,3.37,3.37,0,0,1,2.94-1.68,2.62,2.62,0,0,1,2.07.82,3.22,3.22,0,0,1,.75,2.27v5.42h-1.39v-5.09c0-1.4-.59-2.11-1.75-2.11a2.24,2.24,0,0,0-1.68.71,2.57,2.57,0,0,0-.67,1.84v4.65h-1.39v-5.09c0-1.4-.58-2.11-1.75-2.11a2.2,2.2,0,0,0-1.68.71,2.62,2.62,0,0,0-.65,1.84Z"/><path class="cls-6" d="M138.35,664.86h1.39v1.38a3.4,3.4,0,0,1,3-1.57,3.45,3.45,0,0,1,2.78,1.23,4.63,4.63,0,0,1,1,3.12,4.68,4.68,0,0,1-1,3.12,3.48,3.48,0,0,1-2.78,1.23,3.41,3.41,0,0,1-3-1.55V676h-1.39Zm2.09,2a3.77,3.77,0,0,0,0,4.39,2.41,2.41,0,0,0,2,.86,2.29,2.29,0,0,0,1.93-.85,3.92,3.92,0,0,0,0-4.41,2.27,2.27,0,0,0-1.93-.86A2.41,2.41,0,0,0,140.44,666.84Z"/><path class="cls-6" d="M149.92,673.18h-1.4V661.76h1.4Z"/><path class="cls-6" d="M160,668.81a4.22,4.22,0,0,1,0,.55H153.4a2.94,2.94,0,0,0,.82,2,2.74,2.74,0,0,0,2,.72,3.25,3.25,0,0,0,2.47-1.08l.93.91a4.5,4.5,0,0,1-3.43,1.45,4.1,4.1,0,0,1-3.12-1.2,4.37,4.37,0,0,1-1.13-3.12,4.54,4.54,0,0,1,1.11-3.13,4.13,4.13,0,0,1,5.85-.07A4.23,4.23,0,0,1,160,668.81Zm-6.52-.52h5.08a2.62,2.62,0,0,0-.81-1.79,2.51,2.51,0,0,0-1.73-.63,2.45,2.45,0,0,0-1.77.67A2.61,2.61,0,0,0,153.44,668.29Z"/><path class="cls-6" d="M163.23,673.18h-1.39v-8.32h1.39v1.35a3.12,3.12,0,0,1,2.7-1.54,2.4,2.4,0,0,1,2.5,1.68,3.37,3.37,0,0,1,2.94-1.68,2.62,2.62,0,0,1,2.07.82,3.22,3.22,0,0,1,.75,2.27v5.42H172.8v-5.09c0-1.4-.59-2.11-1.75-2.11a2.24,2.24,0,0,0-1.68.71,2.57,2.57,0,0,0-.67,1.84v4.65h-1.39v-5.09c0-1.4-.58-2.11-1.75-2.11a2.2,2.2,0,0,0-1.68.71,2.62,2.62,0,0,0-.65,1.84Z"/><path class="cls-6" d="M184.09,668.81a4.22,4.22,0,0,1,0,.55h-6.53a2.89,2.89,0,0,0,.82,2,2.74,2.74,0,0,0,2,.72A3.27,3.27,0,0,0,182.8,671l.92.91a4.46,4.46,0,0,1-3.42,1.45,4.1,4.1,0,0,1-3.12-1.2,4.38,4.38,0,0,1-1.14-3.12,4.5,4.5,0,0,1,1.12-3.13,3.78,3.78,0,0,1,3-1.25,3.74,3.74,0,0,1,2.88,1.18A4.2,4.2,0,0,1,184.09,668.81Zm-6.53-.52h5.09a2.66,2.66,0,0,0-.81-1.79,2.51,2.51,0,0,0-1.73-.63,2.42,2.42,0,0,0-1.77.67A2.66,2.66,0,0,0,177.56,668.29Z"/><path class="cls-6" d="M187.36,673.18H186v-8.32h1.4v1.38a3.28,3.28,0,0,1,2.84-1.57,2.79,2.79,0,0,1,2.13.83,3.28,3.28,0,0,1,.79,2.32v5.36h-1.4v-5c0-1.44-.61-2.16-1.85-2.16a2.41,2.41,0,0,0-1.8.72,2.53,2.53,0,0,0-.71,1.87Z"/><path class="cls-6" d="M199.76,671.76l.59,1a2.83,2.83,0,0,1-1.81.56,2.38,2.38,0,0,1-2.18-1,3.12,3.12,0,0,1-.35-1.65V666h-1.44v-1.15H196v-2.33h1.39v2.33h2.69V666H197.4v4.66c0,1,.43,1.44,1.28,1.44A1.73,1.73,0,0,0,199.76,671.76Z"/><path class="cls-6" d="M209.28,672.09l.17,1.06a2.44,2.44,0,0,1-1,.16,1.74,1.74,0,0,1-1.08-.33,1.47,1.47,0,0,1-.54-1,3.26,3.26,0,0,1-2.86,1.39,3,3,0,0,1-2.06-.67,2.33,2.33,0,0,1-.77-1.85,2.41,2.41,0,0,1,.19-1,2,2,0,0,1,.47-.67,2.8,2.8,0,0,1,.7-.44,3.65,3.65,0,0,1,.75-.25c.23,0,.48-.1.77-.14l.54-.06.55-.07.47-.09a2.44,2.44,0,0,0,.45-.14,2.23,2.23,0,0,0,.32-.19.73.73,0,0,0,.24-.29,1.13,1.13,0,0,0,.07-.39,1,1,0,0,0-.56-.93,2.9,2.9,0,0,0-1.33-.29,4.24,4.24,0,0,0-2.59.88l-.64-1a5.7,5.7,0,0,1,3.33-1.06,3.73,3.73,0,0,1,2.35.67,2.45,2.45,0,0,1,.86,2v3.94c0,.59.22.89.66.89A.82.82,0,0,0,209.28,672.09ZM206.73,670v-1.44a1.89,1.89,0,0,1-.34.35,1.46,1.46,0,0,1-.47.21,3.38,3.38,0,0,1-.44.12l-.57.1c-.27,0-.46.06-.58.09a3.24,3.24,0,0,0-1.29.42,1.08,1.08,0,0,0-.44,1,1.23,1.23,0,0,0,.48,1.06,2,2,0,0,0,1.25.35,2.63,2.63,0,0,0,1.71-.56A2,2,0,0,0,206.73,670Z"/><path class="cls-6" d="M215.13,671.76l.59,1a2.8,2.8,0,0,1-1.8.56,2.37,2.37,0,0,1-2.18-1,3,3,0,0,1-.35-1.65V666H210v-1.15h1.44v-2.33h1.39v2.33h2.69V666h-2.69v4.66c0,1,.43,1.44,1.28,1.44A1.7,1.7,0,0,0,215.13,671.76Z"/><path class="cls-6" d="M218.59,663.23H217.2v-1.47h1.39Zm0,9.95H217.2v-8.32h1.39Z"/><path class="cls-6" d="M228.73,669a4.41,4.41,0,0,1-1.12,3.12,4.27,4.27,0,0,1-6,0,4.45,4.45,0,0,1-1.11-3.12,4.52,4.52,0,0,1,1.11-3.15,4.25,4.25,0,0,1,6,0A4.48,4.48,0,0,1,228.73,669Zm-1.49,0a3.47,3.47,0,0,0-.69-2.23,2.53,2.53,0,0,0-3.84,0,3.87,3.87,0,0,0,0,4.44,2.53,2.53,0,0,0,3.84,0A3.45,3.45,0,0,0,227.24,669Z"/><path class="cls-6" d="M232.07,673.18h-1.39v-8.32h1.39v1.38a3.3,3.3,0,0,1,2.85-1.57,2.79,2.79,0,0,1,2.13.83,3.27,3.27,0,0,1,.78,2.32v5.36h-1.39v-5c0-1.44-.62-2.16-1.85-2.16a2.41,2.41,0,0,0-1.8.72,2.54,2.54,0,0,0-.72,1.87Z"/><path class="cls-7" d="M302.92,490.2H321.2c8.12,0,13.64-6.59,13.64-14.71V323.29a14.92,14.92,0,0,0-14.91-14.91H300.75"/><polygon class="cls-8" points="309.55 498.38 310.91 496.91 303.69 490.2 310.91 483.48 309.55 482.02 300.75 490.2 309.55 498.38"/><path class="cls-6" d="M15.77,421.9v1.49H5.12V421.9Z"/><path class="cls-6" d="M14.35,415l1.05-.6a2.83,2.83,0,0,1,.56,1.81,2.37,2.37,0,0,1-1.05,2.18,3.14,3.14,0,0,1-1.65.35H8.6v1.44H7.45v-1.44H5.12v-1.39H7.45v-2.69H8.6v2.69h4.66c1,0,1.44-.43,1.44-1.28A1.68,1.68,0,0,0,14.35,415Z"/><path class="cls-6" d="M11.4,405.41a4.22,4.22,0,0,1,.55,0V412a2.85,2.85,0,0,0,2-.82,2.7,2.7,0,0,0,.73-2,3.24,3.24,0,0,0-1.09-2.47l.92-.92A4.46,4.46,0,0,1,16,409.2a4.07,4.07,0,0,1-1.21,3.12,4.34,4.34,0,0,1-3.11,1.14,4.48,4.48,0,0,1-3.13-1.12,3.75,3.75,0,0,1-1.25-3,3.7,3.7,0,0,1,1.18-2.88A4.2,4.2,0,0,1,11.4,405.41Zm-.53,6.53v-5.09a2.66,2.66,0,0,0-1.78.81,2.51,2.51,0,0,0-.63,1.73,2.42,2.42,0,0,0,.67,1.77A2.66,2.66,0,0,0,10.87,411.94Z"/><path class="cls-6" d="M7.59,398.59l1.33.45a2,2,0,0,0-.25,1,1.9,1.9,0,0,0,.74,1.51,3,3,0,0,0,2,.63h4.34v1.4H7.45v-1.4H8.86a2.81,2.81,0,0,1-1.57-2.41A2.06,2.06,0,0,1,7.59,398.59Z"/><path class="cls-6" d="M14.68,389.79l1.06-.17a2.41,2.41,0,0,1,.16,1,1.78,1.78,0,0,1-.33,1.08,1.43,1.43,0,0,1-1,.53A3.28,3.28,0,0,1,16,395.06a3,3,0,0,1-.67,2.06,2.36,2.36,0,0,1-1.86.77,2.57,2.57,0,0,1-1-.19,2,2,0,0,1-.68-.48,2.54,2.54,0,0,1-.43-.69,3.65,3.65,0,0,1-.25-.75c-.05-.23-.1-.48-.14-.77,0-.11,0-.29-.07-.54s0-.43-.07-.55a3.1,3.1,0,0,0-.09-.47,1.92,1.92,0,0,0-.13-.45,2.23,2.23,0,0,0-.19-.32.73.73,0,0,0-.29-.24.94.94,0,0,0-.39-.07,1,1,0,0,0-.93.56,2.87,2.87,0,0,0-.29,1.33,4.18,4.18,0,0,0,.88,2.59l-1.06.64a5.79,5.79,0,0,1-1.05-3.33,3.71,3.71,0,0,1,.67-2.35,2.43,2.43,0,0,1,2.05-.87h3.93c.6,0,.9-.21.9-.65A.8.8,0,0,0,14.68,389.79Zm-2.11,2.55H11.13a1.56,1.56,0,0,1,.34.34,1.23,1.23,0,0,1,.22.46l.12.45c0,.11.06.3.1.57a4.82,4.82,0,0,0,.09.58,3.35,3.35,0,0,0,.42,1.29,1.07,1.07,0,0,0,1,.43,1.24,1.24,0,0,0,1.06-.48,2.07,2.07,0,0,0,.35-1.24,2.66,2.66,0,0,0-.56-1.71A2,2,0,0,0,12.57,392.34Z"/><path class="cls-6" d="M14.35,383.94l1.05-.6a2.83,2.83,0,0,1,.56,1.81,2.37,2.37,0,0,1-1.05,2.18,3.14,3.14,0,0,1-1.65.35H8.6v1.44H7.45v-1.44H5.12v-1.39H7.45V383.6H8.6v2.69h4.66c1,0,1.44-.43,1.44-1.28A1.68,1.68,0,0,0,14.35,383.94Z"/><path class="cls-6" d="M11.4,374.37a4.22,4.22,0,0,1,.55,0v6.53a2.85,2.85,0,0,0,2-.82,2.7,2.7,0,0,0,.73-2,3.24,3.24,0,0,0-1.09-2.47l.92-.92A4.46,4.46,0,0,1,16,378.16a4.07,4.07,0,0,1-1.21,3.12,4.34,4.34,0,0,1-3.11,1.14,4.48,4.48,0,0,1-3.13-1.12,3.75,3.75,0,0,1-1.25-3,3.7,3.7,0,0,1,1.18-2.88A4.2,4.2,0,0,1,11.4,374.37Zm-.53,6.53v-5.09a2.61,2.61,0,0,0-1.78.81,2.51,2.51,0,0,0-.63,1.73,2.42,2.42,0,0,0,.67,1.77A2.66,2.66,0,0,0,10.87,380.9Z"/><path class="cls-7" d="M54.27,308.38H36c-8.12,0-13.64,6.59-13.64,14.71v152.2A14.91,14.91,0,0,0,37.26,490.2H56.43"/><polygon class="cls-8" points="47.64 300.2 46.27 301.67 53.5 308.38 46.27 315.09 47.64 316.56 56.43 308.38 47.64 300.2"/><line class="cls-9" x1="318.51" y1="399.29" x2="41.03" y2="399.29"/><line class="cls-9" x1="318.51" y1="47.93" x2="41.03" y2="47.93"/><line class="cls-9" x1="319.03" y1="750.66" x2="41.54" y2="750.66"/><circle class="cls-10" cx="180.38" cy="47.89" r="42.68"/><circle class="cls-10" cx="180.34" cy="399.22" r="42.68"/><circle class="cls-10" cx="180.38" cy="750.82" r="42.68"/><path class="cls-6" d="M247.69,106.85l-2.92-2.92,7.53-7.53,2.92,2.92a4.9,4.9,0,0,1,1.63,3.73,6,6,0,0,1-5.43,5.43A4.91,4.91,0,0,1,247.69,106.85Zm-.87-2.82,1.84,1.85A3.38,3.38,0,0,0,251.3,107a4.93,4.93,0,0,0,4.08-4.08,3.37,3.37,0,0,0-1.13-2.64l-1.84-1.84Z"/><path class="cls-6" d="M253.76,112.93l-1-1,5.88-5.88,1,1Zm7-7-1-1,1-1,1,1Z"/><path class="cls-6" d="M266.42,113.82l-8.23,3.53-1-1,3.53-8.24,1.11,1.11-2.93,6.49,6.48-2.93Z"/><path class="cls-6" d="M269.92,122.9a4.13,4.13,0,0,1-.41.37l-4.61-4.62a2.86,2.86,0,0,0-.85,2,2.75,2.75,0,0,0,.89,1.92,3.24,3.24,0,0,0,2.51,1v1.3a4.53,4.53,0,0,1-3.45-1.39,4.12,4.12,0,0,1-1.35-3.06,4.34,4.34,0,0,1,1.4-3,4.56,4.56,0,0,1,3-1.43,3.77,3.77,0,0,1,3,1.22,3.68,3.68,0,0,1,1.2,2.87A4.15,4.15,0,0,1,269.92,122.9Zm-4.24-5,3.59,3.59a2.66,2.66,0,0,0,.69-1.84,2.49,2.49,0,0,0-.78-1.66,2.41,2.41,0,0,0-1.72-.78A2.58,2.58,0,0,0,265.68,117.92Z"/><path class="cls-6" d="M277.43,125l-1.25.62a2.11,2.11,0,0,0-.5-.85,1.93,1.93,0,0,0-1.6-.55,3,3,0,0,0-1.88,1l-3.06,3.07-1-1,5.89-5.89,1,1-1,1a2.81,2.81,0,0,1,2.81.6A2.07,2.07,0,0,1,277.43,125Z"/><path class="cls-6" d="M283.81,131.21l-4.93,4.93a3.83,3.83,0,0,1-6.14-.08,6,6,0,0,1-1.76-3.15l1.3-.31a4.66,4.66,0,0,0,1.36,2.58,3.26,3.26,0,0,0,2,1.06,2.48,2.48,0,0,0,2-.88l.64-.63a3.12,3.12,0,0,1-1.74-.1,4.07,4.07,0,0,1-1.51-.95A3.49,3.49,0,0,1,274,131a4.49,4.49,0,0,1,4.13-4.08,3.57,3.57,0,0,1,2.76,1.11,3.28,3.28,0,0,1,1,3.22l1-1Zm-3.7,1.75a2.79,2.79,0,0,0,.9-1.91,2.6,2.6,0,0,0-.86-2,2.46,2.46,0,0,0-1.93-.82,3,3,0,0,0-1.89.92,3,3,0,0,0-.94,1.91,2.38,2.38,0,0,0,.81,1.94,2.51,2.51,0,0,0,2,.84A2.83,2.83,0,0,0,280.11,133Z"/><path class="cls-6" d="M280.68,139.84l-1-1,5.89-5.89,1,1Zm7-7-1-1,1-1,1,1Z"/><path class="cls-6" d="M283.43,142.59l-1-1,5.89-5.89,1,1-1,1a3.32,3.32,0,0,1,3.12.9,2.84,2.84,0,0,1,.92,2.1,3.28,3.28,0,0,1-1.09,2.19l-3.79,3.79-1-1,3.56-3.56c1-1,1.09-2,.21-2.84a2.4,2.4,0,0,0-1.78-.77,2.57,2.57,0,0,0-1.82.82Z"/><path class="cls-6" d="M300.51,147.91l-4.93,4.93a4.35,4.35,0,0,1-2.75,1.48,4.39,4.39,0,0,1-3.4-1.56,6,6,0,0,1-1.75-3.15l1.3-.31a4.66,4.66,0,0,0,1.36,2.58,3.27,3.27,0,0,0,2,1.06,2.5,2.5,0,0,0,2-.88l.63-.63a3.09,3.09,0,0,1-1.73-.1,4,4,0,0,1-1.51-1,3.49,3.49,0,0,1-1.11-2.73,4.49,4.49,0,0,1,4.13-4.09,3.64,3.64,0,0,1,2.76,1.12,3.28,3.28,0,0,1,1,3.22l1-1Zm-3.7,1.75a2.83,2.83,0,0,0,.9-1.91,2.62,2.62,0,0,0-.86-2,2.46,2.46,0,0,0-1.93-.82,3.26,3.26,0,0,0-2.83,2.83,2.39,2.39,0,0,0,.81,1.94,2.54,2.54,0,0,0,2,.84A2.87,2.87,0,0,0,296.81,149.66Z"/><line class="cls-11" x1="299.74" y1="152.76" x2="323.75" y2="176.78"/><polygon class="cls-6" points="319.2 179.27 328.83 181.85 326.25 172.22 319.2 179.27"/><path class="cls-6" d="M265.26,323.29l-.26,1.42a3.6,3.6,0,0,0-4.29,3.64,4.33,4.33,0,0,0,1.42,2.83,4.43,4.43,0,0,0,2.84,1.44,3.26,3.26,0,0,0,2.65-1,3.39,3.39,0,0,0,1-3.29L270,328a4.76,4.76,0,0,1-1.42,4.55,4.88,4.88,0,0,1-3.75,1.55,6.22,6.22,0,0,1-5.62-5.61,5.23,5.23,0,0,1,6-5.19Z"/><path class="cls-6" d="M275.14,319.86a4.49,4.49,0,0,1,1.41,3,4.25,4.25,0,0,1-4.21,4.22,5,5,0,0,1-4.43-4.43,3.82,3.82,0,0,1,1.24-3,3.87,3.87,0,0,1,3-1.24A4.53,4.53,0,0,1,275.14,319.86Zm-1.06,1.06a3.4,3.4,0,0,0-2.07-1.09,2.34,2.34,0,0,0-2,.73,2.36,2.36,0,0,0-.74,2,3.49,3.49,0,0,0,1.08,2.08,3.41,3.41,0,0,0,2.07,1.06,2.55,2.55,0,0,0,2.71-2.71A3.45,3.45,0,0,0,274.08,320.92Z"/><path class="cls-6" d="M280.43,320.43l-1,1-5.89-5.88,1-1,1,1a3.3,3.3,0,0,1,.91-3.12,2.77,2.77,0,0,1,2.09-.92,3.24,3.24,0,0,1,2.19,1.09l3.79,3.79-1,1L280,313.78c-1-1-2-1.09-2.84-.22a2.43,2.43,0,0,0-.77,1.78,2.58,2.58,0,0,0,.82,1.83Z"/><path class="cls-6" d="M285.27,303.82l3.53,8.24-1,1-8.23-3.53,1.1-1.11,6.49,2.93-2.93-6.48Z"/><path class="cls-6" d="M294.36,300.32a5.26,5.26,0,0,1,.36.41l-4.62,4.62a2.91,2.91,0,0,0,2,.84,2.73,2.73,0,0,0,1.92-.89,3.23,3.23,0,0,0,1-2.51h1.3a4.47,4.47,0,0,1-1.39,3.45,4,4,0,0,1-3.06,1.35,4.33,4.33,0,0,1-3-1.39,4.6,4.6,0,0,1-1.44-3,3.82,3.82,0,0,1,1.22-3,3.76,3.76,0,0,1,2.87-1.2A4.26,4.26,0,0,1,294.36,300.32Zm-5,4.25L293,301a2.61,2.61,0,0,0-1.84-.68,2.48,2.48,0,0,0-1.67.77,2.43,2.43,0,0,0-.78,1.73A2.62,2.62,0,0,0,289.37,304.57Z"/><path class="cls-6" d="M296.48,292.81l.63,1.26a1.93,1.93,0,0,0-1.41,2.09,3,3,0,0,0,1,1.88l3.06,3.07-1,1-5.88-5.88,1-1,1,1a2.83,2.83,0,0,1,.6-2.82A2,2,0,0,1,296.48,292.81Z"/><path class="cls-6" d="M302.66,286.43l4.93,4.93a3.85,3.85,0,0,1-.07,6.15,6.08,6.08,0,0,1-3.16,1.75l-.31-1.3a4.59,4.59,0,0,0,2.58-1.36,3.34,3.34,0,0,0,1.07-2,2.55,2.55,0,0,0-.89-2l-.63-.63a3,3,0,0,1-.1,1.74,4,4,0,0,1-.95,1.51,3.52,3.52,0,0,1-2.73,1.1,4,4,0,0,1-2.78-1.3,4.12,4.12,0,0,1-1.3-2.83,3.57,3.57,0,0,1,1.12-2.76,3.26,3.26,0,0,1,3.21-1l-1-1Zm1.75,3.7a2.82,2.82,0,0,0-1.91-.89,2.53,2.53,0,0,0-2,.86,2.41,2.41,0,0,0-.82,1.93,2.86,2.86,0,0,0,.92,1.88,3,3,0,0,0,1.9.94,2.4,2.4,0,0,0,1.94-.8,2.58,2.58,0,0,0,.85-2A2.9,2.9,0,0,0,304.41,290.13Z"/><path class="cls-6" d="M304.26,282.53l-1,1-1-1,1-1Zm7,7-1,1-5.88-5.88,1-1Z"/><path class="cls-6" d="M314,286.82l-1,1-5.88-5.88,1-1,1,1a3.31,3.31,0,0,1,.91-3.13,2.79,2.79,0,0,1,2.09-.91,3.27,3.27,0,0,1,2.2,1.08l3.79,3.79-1,1-3.56-3.57c-1-1-2-1.09-2.84-.21a2.41,2.41,0,0,0-.76,1.78,2.52,2.52,0,0,0,.82,1.83Z"/><path class="cls-6" d="M319.36,269.73l4.93,4.94a3.83,3.83,0,0,1-.08,6.14,6,6,0,0,1-3.15,1.75l-.31-1.3a4.66,4.66,0,0,0,2.58-1.36,3.27,3.27,0,0,0,1.06-2,2.51,2.51,0,0,0-.88-2l-.63-.63a3.12,3.12,0,0,1-.1,1.74,4.07,4.07,0,0,1-.95,1.51,3.56,3.56,0,0,1-2.73,1.11,4.49,4.49,0,0,1-4.08-4.13,3.55,3.55,0,0,1,1.12-2.76,3.24,3.24,0,0,1,3.21-1l-1-1Zm1.75,3.7a2.82,2.82,0,0,0-1.91-.89,2.6,2.6,0,0,0-2,.86,2.44,2.44,0,0,0-.82,1.93,2.93,2.93,0,0,0,.92,1.88,3,3,0,0,0,1.91,1,2.44,2.44,0,0,0,1.94-.81,2.54,2.54,0,0,0,.84-2A2.85,2.85,0,0,0,321.11,273.43Z"/><line class="cls-11" x1="259.06" y1="334.75" x2="235.04" y2="358.76"/><polygon class="cls-6" points="232.55 354.21 229.97 363.84 239.6 361.26 232.55 354.21"/><path class="cls-6" d="M247.69,457.17l-2.92-2.92,7.53-7.53,2.92,2.91a4.93,4.93,0,0,1,1.63,3.74,5.38,5.38,0,0,1-1.74,3.68,5.48,5.48,0,0,1-3.69,1.75A4.91,4.91,0,0,1,247.69,457.17Zm-.87-2.82,1.84,1.85a3.38,3.38,0,0,0,2.64,1.13,4.92,4.92,0,0,0,4.08-4.09,3.36,3.36,0,0,0-1.13-2.63l-1.84-1.85Z"/><path class="cls-6" d="M253.76,463.24l-1-1,5.88-5.88,1,1Zm7-7-1-1,1-1,1,1Z"/><path class="cls-6" d="M266.42,464.14l-8.23,3.53-1-1,3.53-8.24,1.11,1.11L258.87,466l6.48-2.93Z"/><path class="cls-6" d="M269.92,473.22a3.9,3.9,0,0,1-.41.36L264.9,469a2.86,2.86,0,0,0-.85,2,2.73,2.73,0,0,0,.89,1.91,3.25,3.25,0,0,0,2.51,1v1.3a4.51,4.51,0,0,1-3.45-1.4,4.09,4.09,0,0,1-1.35-3.06,4.34,4.34,0,0,1,1.4-3,4.52,4.52,0,0,1,3-1.43,3.8,3.8,0,0,1,3,1.21,3.71,3.71,0,0,1,1.2,2.88A4.17,4.17,0,0,1,269.92,473.22Zm-4.24-5,3.59,3.6A2.67,2.67,0,0,0,270,470a2.49,2.49,0,0,0-.78-1.67,2.44,2.44,0,0,0-1.72-.77A2.57,2.57,0,0,0,265.68,468.23Z"/><path class="cls-6" d="M277.43,475.35l-1.25.62a2.15,2.15,0,0,0-.5-.86,1.93,1.93,0,0,0-1.6-.54,3,3,0,0,0-1.88,1l-3.06,3.07-1-1,5.89-5.88,1,1-1,1a2.81,2.81,0,0,1,2.81.6A2.07,2.07,0,0,1,277.43,475.35Z"/><path class="cls-6" d="M283.81,481.53l-4.93,4.93a3.84,3.84,0,0,1-6.14-.08,6,6,0,0,1-1.76-3.16l1.3-.3a4.66,4.66,0,0,0,1.36,2.58,3.32,3.32,0,0,0,2,1.06,2.51,2.51,0,0,0,2-.88l.64-.63a3.12,3.12,0,0,1-1.74-.1,4,4,0,0,1-1.51-1,3.46,3.46,0,0,1-1.11-2.72,4.49,4.49,0,0,1,4.13-4.09,3.58,3.58,0,0,1,2.76,1.12,3.27,3.27,0,0,1,1,3.22l1-1Zm-3.7,1.75a2.81,2.81,0,0,0,.9-1.91,2.59,2.59,0,0,0-.86-2,2.42,2.42,0,0,0-1.93-.82,3,3,0,0,0-1.89.92,3,3,0,0,0-.94,1.91,2.39,2.39,0,0,0,.81,1.94,2.57,2.57,0,0,0,2,.84A2.87,2.87,0,0,0,280.11,483.28Z"/><path class="cls-6" d="M280.68,490.16l-1-1,5.89-5.88,1,1Zm7-7-1-1,1-1,1,1Z"/><path class="cls-6" d="M283.43,492.91l-1-1,5.89-5.88,1,1-1,1a3.27,3.27,0,0,1,3.12.9,2.82,2.82,0,0,1,.92,2.09,3.29,3.29,0,0,1-1.09,2.2L287.5,497l-1-1,3.56-3.57c1-1,1.09-2,.21-2.84a2.39,2.39,0,0,0-1.78-.76,2.53,2.53,0,0,0-1.82.82Z"/><path class="cls-6" d="M300.51,498.22l-4.93,4.94a3.85,3.85,0,0,1-6.15-.08,6,6,0,0,1-1.75-3.16l1.3-.3a4.66,4.66,0,0,0,1.36,2.58,3.32,3.32,0,0,0,2,1.06,2.53,2.53,0,0,0,2-.88l.63-.64a3,3,0,0,1-1.73-.09,3.9,3.9,0,0,1-1.51-1,3.47,3.47,0,0,1-1.11-2.73,4.49,4.49,0,0,1,4.13-4.08,3.61,3.61,0,0,1,2.76,1.12,3.26,3.26,0,0,1,1,3.21l1-1Zm-3.7,1.76a2.85,2.85,0,0,0,.9-1.91,2.62,2.62,0,0,0-.86-2,2.42,2.42,0,0,0-1.93-.82,2.92,2.92,0,0,0-1.89.92,3,3,0,0,0-.94,1.91,2.4,2.4,0,0,0,.81,1.94,2.57,2.57,0,0,0,2,.84A2.92,2.92,0,0,0,296.81,500Z"/><line class="cls-11" x1="299.74" y1="503.08" x2="323.75" y2="527.09"/><polygon class="cls-6" points="319.2 529.59 328.83 532.17 326.25 522.54 319.2 529.59"/><path class="cls-6" d="M265.26,673.61,265,675a3.61,3.61,0,0,0-4.29,3.65,4.31,4.31,0,0,0,1.42,2.82,4.5,4.5,0,0,0,2.84,1.45,3.29,3.29,0,0,0,2.65-1,3.39,3.39,0,0,0,1-3.29l1.43-.31a4.74,4.74,0,0,1-1.42,4.55,4.89,4.89,0,0,1-3.75,1.56,6.24,6.24,0,0,1-5.62-5.61,4.85,4.85,0,0,1,1.55-3.74A4.79,4.79,0,0,1,265.26,673.61Z"/><path class="cls-6" d="M275.14,670.18a4.49,4.49,0,0,1,1.41,3,4.25,4.25,0,0,1-4.21,4.21,5,5,0,0,1-4.43-4.43,4.23,4.23,0,0,1,4.21-4.21A4.53,4.53,0,0,1,275.14,670.18Zm-1.06,1.05a3.44,3.44,0,0,0-2.07-1.08,2.31,2.31,0,0,0-2,.73,2.34,2.34,0,0,0-.74,2,3.44,3.44,0,0,0,1.08,2.07,3.48,3.48,0,0,0,2.07,1.07,2.33,2.33,0,0,0,2-.74,2.3,2.3,0,0,0,.74-2A3.47,3.47,0,0,0,274.08,671.23Z"/><path class="cls-6" d="M280.43,670.75l-1,1-5.89-5.88,1-1,1,1a3.31,3.31,0,0,1,.91-3.13,2.75,2.75,0,0,1,2.09-.91,3.23,3.23,0,0,1,2.19,1.08l3.79,3.79-1,1L280,664.09c-1-1-2-1.09-2.84-.21a2.42,2.42,0,0,0-.77,1.78,2.59,2.59,0,0,0,.82,1.83Z"/><path class="cls-6" d="M285.27,654.14l3.53,8.23-1,1-8.23-3.53,1.1-1.11,6.49,2.93-2.93-6.48Z"/><path class="cls-6" d="M294.36,650.64a3.9,3.9,0,0,1,.36.41l-4.62,4.61a2.88,2.88,0,0,0,2,.85,2.73,2.73,0,0,0,1.92-.89,3.24,3.24,0,0,0,1-2.51h1.3a4.5,4.5,0,0,1-1.39,3.45,4.09,4.09,0,0,1-3.06,1.35,4.3,4.3,0,0,1-3-1.4,4.57,4.57,0,0,1-1.44-3,3.79,3.79,0,0,1,1.22-3,3.69,3.69,0,0,1,2.87-1.2A4.17,4.17,0,0,1,294.36,650.64Zm-5,4.24,3.6-3.59a2.67,2.67,0,0,0-1.84-.69,2.49,2.49,0,0,0-1.67.78,2.41,2.41,0,0,0-.78,1.72A2.58,2.58,0,0,0,289.37,654.88Z"/><path class="cls-6" d="M296.48,643.13l.63,1.25a2.08,2.08,0,0,0-.86.5,1.93,1.93,0,0,0-.55,1.6,3.06,3.06,0,0,0,1,1.88l3.06,3.06-1,1-5.88-5.89,1-1,1,1a2.81,2.81,0,0,1,.6-2.81A2,2,0,0,1,296.48,643.13Z"/><path class="cls-6" d="M302.66,636.75l4.93,4.93a3.84,3.84,0,0,1-.07,6.14,6.1,6.1,0,0,1-3.16,1.76l-.31-1.3a4.59,4.59,0,0,0,2.58-1.36,3.33,3.33,0,0,0,1.07-2,2.52,2.52,0,0,0-.89-2l-.63-.64a3,3,0,0,1-.1,1.74,3.87,3.87,0,0,1-.95,1.51,3.49,3.49,0,0,1-2.73,1.11,4.49,4.49,0,0,1-4.08-4.13,3.57,3.57,0,0,1,1.12-2.76,3.26,3.26,0,0,1,3.21-1l-1-1Zm1.75,3.7a2.79,2.79,0,0,0-1.91-.9,2.57,2.57,0,0,0-2,.86,2.42,2.42,0,0,0-.82,1.93,2.88,2.88,0,0,0,.92,1.89,3,3,0,0,0,1.9.94,2.38,2.38,0,0,0,1.94-.81,2.55,2.55,0,0,0,.85-2A2.88,2.88,0,0,0,304.41,640.45Z"/><path class="cls-6" d="M304.26,632.84l-1,1-1-1,1-1Zm7,7-1,1L304.43,635l1-1Z"/><path class="cls-6" d="M314,637.13l-1,1-5.88-5.89,1-1,1,1a3.3,3.3,0,0,1,.91-3.12,2.8,2.8,0,0,1,2.09-.92,3.33,3.33,0,0,1,2.2,1.09l3.79,3.79-1,1-3.56-3.57c-1-1-2-1.09-2.84-.21a2.39,2.39,0,0,0-.76,1.78,2.53,2.53,0,0,0,.82,1.83Z"/><path class="cls-6" d="M319.36,620.05l4.93,4.93a3.84,3.84,0,0,1-.08,6.15,6,6,0,0,1-3.15,1.75l-.31-1.3a4.66,4.66,0,0,0,2.58-1.36,3.27,3.27,0,0,0,1.06-2,2.51,2.51,0,0,0-.88-2l-.63-.63a3.09,3.09,0,0,1-.1,1.73,4,4,0,0,1-.95,1.51,3.49,3.49,0,0,1-2.73,1.11,4.49,4.49,0,0,1-4.08-4.13,3.57,3.57,0,0,1,1.12-2.76,3.26,3.26,0,0,1,3.21-1l-1-1Zm1.75,3.7a2.74,2.74,0,0,0-1.91-.89,2.53,2.53,0,0,0-2,.86,2.43,2.43,0,0,0-.82,1.92,3.26,3.26,0,0,0,2.83,2.83,2.38,2.38,0,0,0,1.94-.81,2.51,2.51,0,0,0,.84-2A2.83,2.83,0,0,0,321.11,623.75Z"/><line class="cls-11" x1="259.06" y1="685.06" x2="235.04" y2="709.08"/><polygon class="cls-6" points="232.55 704.52 229.97 714.15 239.6 711.58 232.55 704.52"/><path class="cls-12" d="M153.85,42.24a4,4,0,0,1,0,5.61,4.63,4.63,0,0,1-3.2,1h-3.12v4.3h-2.1v-12h5.22A4.57,4.57,0,0,1,153.85,42.24Zm-6.31,4.81h3.1a2.31,2.31,0,0,0,1.64-.53,1.88,1.88,0,0,0,.57-1.47,1.94,1.94,0,0,0-.57-1.5,2.35,2.35,0,0,0-1.64-.52h-3.1Z"/><path class="cls-12" d="M162.68,43.88l-.58,1.94a2.3,2.3,0,0,0-1.08-.29,2,2,0,0,0-1.61.78,3.06,3.06,0,0,0-.66,2.07v4.8h-2V43.73h2v1.53a3.13,3.13,0,0,1,2.67-1.71A2.23,2.23,0,0,1,162.68,43.88Z"/><path class="cls-12" d="M172.92,48.47a5,5,0,0,1-1.3,3.55,5.09,5.09,0,0,1-7,0,5.51,5.51,0,0,1,0-7.13,5.12,5.12,0,0,1,7,0A5,5,0,0,1,172.92,48.47Zm-2.12,0a3.65,3.65,0,0,0-.71-2.32,2.58,2.58,0,0,0-3.92,0,4.07,4.07,0,0,0,0,4.62,2.58,2.58,0,0,0,3.92,0A3.63,3.63,0,0,0,170.8,48.47Z"/><path class="cls-12" d="M175,40.33h2v4.79a3.85,3.85,0,0,1,3.21-1.6,3.9,3.9,0,0,1,3.14,1.39,5.92,5.92,0,0,1,0,7.09,3.91,3.91,0,0,1-3.14,1.4,3.85,3.85,0,0,1-3.21-1.6v1.38h-2Zm2,8.14a3.49,3.49,0,0,0,.72,2.27,2.51,2.51,0,0,0,2,.88,2.39,2.39,0,0,0,2-.88,3.65,3.65,0,0,0,.68-2.27,3.69,3.69,0,0,0-.68-2.27,2.35,2.35,0,0,0-2-.9,2.47,2.47,0,0,0-2,.9A3.53,3.53,0,0,0,176.93,48.47Z"/><path class="cls-12" d="M188.49,53.18h-2V40.33h2Z"/><path class="cls-12" d="M199.9,48.27c0,.24,0,.47,0,.68h-7.2a2.72,2.72,0,0,0,.84,2,2.94,2.94,0,0,0,2.05.71,3.57,3.57,0,0,0,2.74-1.19l1.3,1.24a5.42,5.42,0,0,1-4.11,1.71A4.79,4.79,0,0,1,191.86,52a4.87,4.87,0,0,1-1.32-3.53,5.09,5.09,0,0,1,1.29-3.57,4.46,4.46,0,0,1,3.46-1.41,4.37,4.37,0,0,1,3.36,1.33A4.78,4.78,0,0,1,199.9,48.27Zm-7.2-.76h5.2a2.55,2.55,0,0,0-.82-1.77,2.6,2.6,0,0,0-1.77-.62,2.53,2.53,0,0,0-1.82.67A2.62,2.62,0,0,0,192.7,47.51Z"/><path class="cls-12" d="M203.86,53.18h-2V43.73h2v1.35a3.56,3.56,0,0,1,2.95-1.56,2.64,2.64,0,0,1,2.76,1.8,3.88,3.88,0,0,1,3.29-1.8,3,3,0,0,1,2.35.93A3.64,3.64,0,0,1,216,47v6.21h-2V47.44c0-1.4-.59-2.1-1.78-2.1a2.22,2.22,0,0,0-1.67.69,2.53,2.53,0,0,0-.65,1.83v5.32h-2V47.44c0-1.4-.6-2.1-1.79-2.1a2.19,2.19,0,0,0-1.66.68,2.55,2.55,0,0,0-.66,1.84Z"/><path class="cls-12" d="M171.87,394.08a3.62,3.62,0,0,1,1.16,2.81,3.56,3.56,0,0,1-1.15,2.8,4.64,4.64,0,0,1-3.21,1h-3.11V405h-2.11V393h5.22A4.63,4.63,0,0,1,171.87,394.08Zm-6.31,4.81h3.1a2.31,2.31,0,0,0,1.64-.52,2.22,2.22,0,0,0,0-3,2.31,2.31,0,0,0-1.64-.52h-3.1Z"/><path class="cls-12" d="M176.79,405h-2V392.18h2Z"/><path class="cls-12" d="M188.26,404.94a2.84,2.84,0,0,1-1.23.23,2.18,2.18,0,0,1-1.22-.35,1.58,1.58,0,0,1-.67-1.05,3.57,3.57,0,0,1-3.15,1.47,3.4,3.4,0,0,1-2.35-.77,2.7,2.7,0,0,1-.89-2.14,2.59,2.59,0,0,1,.25-1.18,2.38,2.38,0,0,1,.57-.8,2.82,2.82,0,0,1,.88-.49,6.14,6.14,0,0,1,1-.27c.28,0,.62-.09,1-.14s.76-.09,1-.13a4.79,4.79,0,0,0,.71-.17,1.06,1.06,0,0,0,.55-.34,1,1,0,0,0-.41-1.48,3.14,3.14,0,0,0-1.36-.28,4.93,4.93,0,0,0-2.95,1l-.79-1.5a7.08,7.08,0,0,1,3.89-1.15,4.54,4.54,0,0,1,2.78.77,2.83,2.83,0,0,1,1,2.4v4.3c0,.58.23.87.67.87a.92.92,0,0,0,.52-.13Zm-3.4-3.49V400a2.1,2.1,0,0,1-.34.33,1.16,1.16,0,0,1-.46.21l-.43.12a4.57,4.57,0,0,1-.57.1l-.56.08a3.43,3.43,0,0,0-1.31.45,1.14,1.14,0,0,0-.44,1,1.21,1.21,0,0,0,.48,1,2,2,0,0,0,1.25.36,2.54,2.54,0,0,0,1.69-.57A2.05,2.05,0,0,0,184.86,401.45Z"/><path class="cls-12" d="M191.77,405h-2v-9.45h2V397a3.72,3.72,0,0,1,3.09-1.6,3.1,3.1,0,0,1,2.4.95,3.67,3.67,0,0,1,.86,2.56V405h-2v-5.71c0-1.43-.62-2.14-1.87-2.14a2.43,2.43,0,0,0-1.79.7,2.48,2.48,0,0,0-.71,1.86Z"/><path class="cls-12" d="M150.28,743.54a5.4,5.4,0,0,1,4.69,2.24l-1.58,1.06a3.76,3.76,0,0,0-3.19-1.51,2.94,2.94,0,0,0-1.57.37,1.29,1.29,0,0,0-.6,1.16,1.14,1.14,0,0,0,.15.58,1.64,1.64,0,0,0,.34.42,2,2,0,0,0,.62.29l.7.22.85.2a15.3,15.3,0,0,1,1.73.44,7.32,7.32,0,0,1,1.38.63,2.67,2.67,0,0,1,1,1,3.12,3.12,0,0,1,.34,1.51,3.38,3.38,0,0,1-1.28,2.74,5.26,5.26,0,0,1-3.45,1,6.37,6.37,0,0,1-3.08-.71,4.93,4.93,0,0,1-2-2l1.7-1a3.82,3.82,0,0,0,3.54,1.87,3.11,3.11,0,0,0,1.82-.47,1.46,1.46,0,0,0,.68-1.29,1.2,1.2,0,0,0-.17-.66,1.63,1.63,0,0,0-.37-.44,2,2,0,0,0-.69-.32,7.85,7.85,0,0,0-.78-.23l-1-.21a11.68,11.68,0,0,1-1.28-.3,7.7,7.7,0,0,1-1.12-.45,3.79,3.79,0,0,1-.93-.64,2.56,2.56,0,0,1-.59-.9,3.3,3.3,0,0,1,1-3.79A5,5,0,0,1,150.28,743.54Z"/><path class="cls-12" d="M166.22,751a5,5,0,0,1-1.3,3.56,5.12,5.12,0,0,1-7,0,5.54,5.54,0,0,1,0-7.13,5.09,5.09,0,0,1,7,0A5,5,0,0,1,166.22,751Zm-2.12,0a3.67,3.67,0,0,0-.71-2.32,2.37,2.37,0,0,0-1.95-.9,2.39,2.39,0,0,0-2,.9,4.08,4.08,0,0,0,0,4.63,2.39,2.39,0,0,0,2,.9,2.37,2.37,0,0,0,1.95-.9A3.64,3.64,0,0,0,164.1,751Z"/><path class="cls-12" d="M170.26,755.75h-2V742.9h2Z"/><path class="cls-12" d="M179.15,746.3h2v9.45h-2v-1.37a3.75,3.75,0,0,1-3.1,1.58,3.06,3.06,0,0,1-2.39-.94,3.65,3.65,0,0,1-.87-2.57V746.3h2V752c0,1.43.63,2.15,1.88,2.15a2.45,2.45,0,0,0,1.79-.71,2.48,2.48,0,0,0,.71-1.85Z"/><path class="cls-12" d="M188.81,753.79l.8,1.47a3.61,3.61,0,0,1-2.25.7,2.79,2.79,0,0,1-2.56-1.2,3.63,3.63,0,0,1-.45-2v-4.95h-1.58V746.3h1.58v-2.54h2v2.54h2.91v1.53h-2.91v5c0,.93.42,1.4,1.27,1.4A1.89,1.89,0,0,0,188.81,753.79Z"/><path class="cls-12" d="M193.15,744.77h-2V742.9h2Zm0,11h-2V746.3h2Z"/><path class="cls-12" d="M204.76,751a5,5,0,0,1-1.3,3.56,5.12,5.12,0,0,1-7,0,5.54,5.54,0,0,1,0-7.13,5.09,5.09,0,0,1,7,0A5,5,0,0,1,204.76,751Zm-2.12,0a3.67,3.67,0,0,0-.71-2.32,2.58,2.58,0,0,0-3.92,0,4.08,4.08,0,0,0,0,4.63,2.58,2.58,0,0,0,3.92,0A3.64,3.64,0,0,0,202.64,751Z"/><path class="cls-12" d="M208.78,755.75h-2V746.3h2v1.38a3.72,3.72,0,0,1,3.09-1.6,3.1,3.1,0,0,1,2.4.95,3.67,3.67,0,0,1,.86,2.56v6.16h-2V750c0-1.43-.62-2.14-1.87-2.14a2.43,2.43,0,0,0-1.79.7,2.48,2.48,0,0,0-.71,1.86Z"/></svg>