<svg xmlns="http://www.w3.org/2000/svg" viewBox="0 0 1614 3097"><defs><style>.cls-1{fill:#202020;}.cls-1,.cls-2,.cls-3,.cls-4{stroke:#4d4d4d;stroke-miterlimit:10;}.cls-1,.cls-4{stroke-width:4px;}.cls-2,.cls-3,.cls-4{fill:none;}.cls-2,.cls-3{stroke-linecap:round;stroke-width:8px;}.cls-3{stroke-dasharray:22.22 48.48;}.cls-5{fill:#4d4d4d;}</style></defs><title>Artboard 1WHITE</title><g id="Design"><path class="cls-1" d="M1318.59,129.64H278.81A177.4,177.4,0,0,0,101.4,307V2815.59A177.41,177.41,0,0,0,278.81,2993H1318.59A177.41,177.41,0,0,0,1496,2815.59V307A177.4,177.4,0,0,0,1318.59,129.64Zm37.66,1001a3.27,3.27,0,0,1-5.65.17l-19.22-31.09a3.27,3.27,0,0,1,2.68-5l9.86-.29a66.44,66.44,0,0,0-131.21,15.7c.51,36.29,30.67,65.76,67,65.48a65.89,65.89,0,0,0,43.77-16.93,4.14,4.14,0,0,1,5.69.11l5.51,5.47a4.1,4.1,0,0,1-.1,6,82.43,82.43,0,0,1-137.7-65.74c2.45-43.91,39.64-78.41,83.61-77.72a82.23,82.23,0,0,1,79.7,67.19l10.45-.31a3.26,3.26,0,0,1,3,4.81Zm14.14,208.5-54.16,29.72a3.17,3.17,0,0,1-4.7-2.79l.17-59.75a3.18,3.18,0,0,1,4.72-2.77l54,30A3.17,3.17,0,0,1,1370.39,1339.16Zm-63-240a5.76,5.76,0,0,1,5.77,5.76v36.47a5.77,5.77,0,0,1-5.77,5.77H1253.9a5.76,5.76,0,0,1-5.76-5.77V1104.9a5.76,5.76,0,0,1,5.76-5.76h.24v-10.5a26.5,26.5,0,0,1,53,0v10.5Zm-3.07,239-54.16,29.72a3.17,3.17,0,0,1-4.7-2.79l.17-59.75a3.18,3.18,0,0,1,4.72-2.77l54,30A3.18,3.18,0,0,1,1304.3,1338.16ZM259.88,861.64H1342.4a23.24,23.24,0,0,1,23.24,23.24V963.4a23.25,23.25,0,0,1-23.24,23.24H259.88a23.24,23.24,0,0,1-23.24-23.24V884.88A23.23,23.23,0,0,1,259.88,861.64Zm-23.24-40.88V719.51a11.86,11.86,0,0,1,11.87-11.87H586.76a11.87,11.87,0,0,1,11.88,11.87V820.76a11.88,11.88,0,0,1-11.88,11.88H248.51A11.87,11.87,0,0,1,236.64,820.76ZM753,597.08l36.65,9.69a45.14,45.14,0,0,0,23.08,0l36.66-9.69a15.29,15.29,0,0,1,7.81,29.56l-44.8,11.76a44.13,44.13,0,0,1-22.42,0l-44.79-11.76A15.27,15.27,0,0,1,734.33,608h0A15.3,15.3,0,0,1,753,597.08Zm-13.88-35.44a16.5,16.5,0,0,1,16.5-16.5h91a16.5,16.5,0,0,1,0,33h-91A16.5,16.5,0,0,1,739.14,561.64Zm231.62,145.5A11.87,11.87,0,0,1,982.64,719V820.26a11.88,11.88,0,0,1-11.88,11.88H632.51a11.87,11.87,0,0,1-11.87-11.88V719a11.86,11.86,0,0,1,11.87-11.87ZM1177,1781a3.62,3.62,0,0,1-5.15,3.57l-17.33-8.17a66.15,66.15,0,0,1-18.84,2.72c-31.21,0-56.5-21.27-56.5-47.5s25.29-47.5,56.5-47.5,56.5,21.26,56.5,47.5c0,13.09-6.31,24.95-16.5,33.54Zm-157.54-60.78c-5.81-6.73-24.28-25.1-16.28-55.1,8.63-31.81,48.75-44.29,77-39,35,7,55.66,34.43,51,46-4,10-27,.19-46,18-18,17-18.14,30.16-19,33-1.06,3.45-.78,6.63-1.29,9.39a5.06,5.06,0,0,1-5.48,4.13c-4.3-.43-9.6-.86-13.9-1.29a5.28,5.28,0,0,0-4,1.34c-6.38,5.43-17.38,9.43-19.38,8.43s-3-5.19-3-9a43.28,43.28,0,0,1,1.4-11.6A5,5,0,0,0,1019.42,1720.24Zm-32.28-228.1c.06-.56,1.26-5.39,6-6,16,0,17-1,21,3,2,2,1.71,3.52,2,8,.33,14.66.66,27.33,1,42,3.24,1.79,4.87,7.51,4,11a8.09,8.09,0,0,1-7,6h-21a9.33,9.33,0,0,1-1-17v-39C988.75,1498.42,986.77,1495.2,987.14,1492.14Zm26-29a12,12,0,1,1-12-12A12,12,0,0,1,1013.14,1463.14Zm-9-85.59v-82.83a4.58,4.58,0,0,1,4.58-4.58h16.83a4.59,4.59,0,0,1,4.59,4.58v82.83a4.6,4.6,0,0,1-4.59,4.59h-16.83A4.59,4.59,0,0,1,1004.14,1377.55Zm74,0a4.6,4.6,0,0,1-4.59,4.59h-16.83a4.59,4.59,0,0,1-4.58-4.59v-82.83a4.58,4.58,0,0,1,4.58-4.58h16.83a4.59,4.59,0,0,1,4.59,4.58Zm42.5,59.59a65.5,65.5,0,1,1-65.5,65.5A65.5,65.5,0,0,1,1120.64,1437.14Zm6.38-52.85a4.67,4.67,0,0,1-6.92-4.11l.25-87.94a4.68,4.68,0,0,1,7-4.07l79.45,44.2a4.67,4.67,0,0,1,0,8.18Zm34.18-250.84a66.48,66.48,0,1,1-81.06-89.72,1.65,1.65,0,0,1,1.79,2.6,58.21,58.21,0,0,0,76.85,85.09A1.65,1.65,0,0,1,1161.2,1133.45Zm-180.51,11.24a3.23,3.23,0,0,1-.17,4.72l-42.78,37.13a4.59,4.59,0,0,1-7.6-3.47v-43.93l-24.88,25.79a3.09,3.09,0,0,1-4.35.11l-12.57-11.83a3.09,3.09,0,0,1-.18-4.32l33-36.75-33-36.75a3.1,3.1,0,0,1,.18-4.33l12.57-11.82a3.09,3.09,0,0,1,4.35.1l24.88,25.8V1041.2a4.59,4.59,0,0,1,7.6-3.46l42.78,37.13a3.23,3.23,0,0,1,.17,4.72l-32.55,32.55ZM486.26,1677.14H502a5.13,5.13,0,0,1,5.13,5.12V1709a5.13,5.13,0,0,1-5.13,5.13H486.26a5.12,5.12,0,0,0-5.12,5.12V1783a5.13,5.13,0,0,1-5.13,5.13H449.26a5.13,5.13,0,0,1-5.12-5.13v-63.75a5.13,5.13,0,0,0-5.13-5.12H424.26a5.13,5.13,0,0,1-5.12-5.13v-26.75a5.12,5.12,0,0,1,5.12-5.12H439a5.13,5.13,0,0,0,5.13-5.13v-28.15a30.72,30.72,0,0,1,30.72-30.72H505a5.13,5.13,0,0,1,5.13,5.12V1645a5.13,5.13,0,0,1-5.13,5.13H486.26a5.12,5.12,0,0,0-5.12,5.12V1672A5.13,5.13,0,0,0,486.26,1677.14ZM283.6,1694.39l20.66,20.87,21.4,19.89a6.41,6.41,0,0,0,8,.59l10.21-7a6.38,6.38,0,0,1,6.94-.19l34.76,21.12a5.8,5.8,0,0,1,1.82,8.14l-13.64,20.64a6.36,6.36,0,0,1-4.87,2.85,98.67,98.67,0,0,1-15.83,0c-9-.87-18.08-5.74-27.15-10.61-6.58-3.53-28.06-20.73-38.06-28.84a76.5,76.5,0,0,1-9.63-9.33c-8.48-9.8-26.52-30.91-30.25-37.39-5.14-8.92-10.28-17.84-11.42-26.83a98.56,98.56,0,0,1-.48-15.77,6.4,6.4,0,0,1,2.77-5l18.84-12.94a6.41,6.41,0,0,1,8.94,1.7l22.61,33.57a6.41,6.41,0,0,1,0,7.19l-6.31,9.22A6.41,6.41,0,0,0,283.6,1694.39Zm52.08-331.25-1-64.5c2,1.37,12.09,9.6,14.22,28.24C351.28,1348,337,1361.91,335.68,1363.14Zm28,18.5,1-104c3.81,3.58,20.37,18.6,21,51C386.32,1363.65,367.18,1378.41,363.64,1381.64Zm20.44,133.5a5,5,0,0,1-4.94-5v-14.11a4.94,4.94,0,0,1,4.94-4.94h77.11a5,5,0,0,1,4.95,4.94v14.11a5,5,0,0,1-4.95,5Zm11.56-119.5,2-131c6.07,7.11,20,26.2,21,64C419.75,1370.17,401.24,1389.07,395.64,1395.64Zm121.74-358c-4-10.36,9.82-18.15,16.59-9.34l49.87,64.88h48.8a15.5,15.5,0,0,1,15.5,15.5h0a15.5,15.5,0,0,1-15.5,15.5h-48L534,1190c-6.77,8.82-20.61,1-16.59-9.34l21.94-56.53H505.16L483,1137a1.88,1.88,0,0,1-2.82-1.63V1083a1.88,1.88,0,0,1,2.82-1.63l20.46,11.82h35.51Zm142.76,492.54-15.26,15.25a3.9,3.9,0,0,1-5.5,0L624,1530.14l.09-.09-18.63-18.63a3.45,3.45,0,0,1,0-4.9l13.1-13.1a3.47,3.47,0,0,1,4.9,0l16.18,16.18a3.47,3.47,0,0,0,4.9,0l51.1-51.1a3.47,3.47,0,0,1,4.9,0l13.1,13.1a3.47,3.47,0,0,1,0,4.91l-53.49,53.61ZM513.77,1310.07l15.76-48a1.69,1.69,0,0,1,3.22,0l15.76,48,50.54.15a1.69,1.69,0,0,1,1,3.06l-40.8,29.83,15.48,48.11a1.7,1.7,0,0,1-2.61,1.89l-41-29.58-41,29.58a1.69,1.69,0,0,1-2.6-1.89L503,1343.11l-40.8-29.83a1.69,1.69,0,0,1,1-3.06Zm-14,238.49a4.93,4.93,0,0,1-.23-7l37.4-40.07-39.67-37a4.84,4.84,0,0,1-.24-6.85l9.76-10.46a4.85,4.85,0,0,1,6.85-.24l42.72,39.88a5.5,5.5,0,0,1,.61.47l10.89,10.16a4.94,4.94,0,0,1,.24,7l-50.46,54.06a4.94,4.94,0,0,1-7,.24Zm64.4,212.58c2-4,14-1,22-4,3.06-1.15,5.46-2.16,7.35-3.07a5.67,5.67,0,0,0,.92-9.63c-4-3-8.9-7.57-11.27-12.3a16.29,16.29,0,0,1-1.4-9.21,5.7,5.7,0,0,0-1.77-4.66c-7.37-7.09-14.74-21.58-13.83-26.13a14.15,14.15,0,0,1,3.25-6.16,5.81,5.81,0,0,0,1.34-4.57c-3.69-25.22-1.9-32.92,1.41-34.27,5.68-2.33,14.23,12.27,33,22a82.45,82.45,0,0,0,27.69,8.48,5.66,5.66,0,0,0,6.24-4.51c3.94-19.43,11.24-32.2,37.07-35,11.65-1.25,20.49,4.78,25.21,8.63a5.65,5.65,0,0,0,6.23.63c5.17-2.72,13.6-7.09,15.56-4.26.53.76,1.12,4.46-2.26,9.87a.83.83,0,0,0,.62,1.27c3,.28,6.85.58,7.64,2.86.9,2.63-1.88,6.42-6,12a128.48,128.48,0,0,0-8.35,12.83,5.66,5.66,0,0,0-.72,2.43,113,113,0,0,1-6.93,32.74c-3.31,8.83-10.54,27.44-29,43-6.3,5.3-27.5,21.71-58,22C589.16,1782.43,562.38,1764.66,564.14,1761.14Zm122.83-365a1.93,1.93,0,0,1-1.56-3.08l24.18-32.8a1.93,1.93,0,0,1,3.11,0L737.08,1393a1.93,1.93,0,0,1-1.55,3.08Zm39.39-41.59a3.34,3.34,0,0,1,2.63-5.39h25.73a6.92,6.92,0,0,0,6.92-6.92v-33.43a5.2,5.2,0,0,0-5.15-5.2l-45.35-.45-45.35.45a5.2,5.2,0,0,0-5.15,5.2v33.43a6.92,6.92,0,0,0,6.92,6.92h25.73a3.34,3.34,0,0,1,2.63,5.39l-12.22,15.61a5.22,5.22,0,0,1-4.1,2H642.34a5.2,5.2,0,0,1-5.2-5.21v-80.59a5.2,5.2,0,0,1,5.2-5.2H779.93a5.2,5.2,0,0,1,5.21,5.2v80.59a5.21,5.21,0,0,1-5.21,5.21H742.67a5.18,5.18,0,0,1-4.09-2Zm113.9-270.75-7.84,8.76a6.11,6.11,0,0,1-8.34.73,99.49,99.49,0,0,0-123.35-.41,6.1,6.1,0,0,1-8.34-.79l-7.79-8.81a6.14,6.14,0,0,1,.8-8.88,123.49,123.49,0,0,1,154.12.51A6.15,6.15,0,0,1,840.26,1083.78Zm45.07,217.94a3.17,3.17,0,0,1,4.7,2.79l-.17,59.75a3.18,3.18,0,0,1-4.72,2.77l-54-30a3.17,3.17,0,0,1,0-5.56ZM762.14,1112.14a58.9,58.9,0,0,0-34.57,11.19,6.09,6.09,0,0,1-8.13-1l-7.78-8.85a6.13,6.13,0,0,1,.92-9,83,83,0,0,1,99.86.55,6.1,6.1,0,0,1,.78,8.92l-7.86,8.78a6.1,6.1,0,0,1-8.15.88A58.84,58.84,0,0,0,762.14,1112.14Zm23.37,32.9-18.3,20.48a6.12,6.12,0,0,1-9.14,0L739.76,1145a6.14,6.14,0,0,1,1.36-9.31,41.07,41.07,0,0,1,43,0A6.13,6.13,0,0,1,785.51,1145Zm-8.15,354.29-25.5-25.5a4,4,0,0,1,0-5.61l11.36-11.36a4,4,0,0,1,5.61,0l25.5,25.5a4,4,0,0,0,5.61,0l25.5-25.5a4,4,0,0,1,5.62,0l11.35,11.36a4,4,0,0,1,0,5.61l-25.5,25.5a4,4,0,0,0,0,5.61l25.5,25.5a4,4,0,0,1,0,5.62l-11.35,11.35a4,4,0,0,1-5.62,0l-25.5-25.5a4,4,0,0,0-5.61,0l-25.5,25.5a4,4,0,0,1-5.61,0l-11.36-11.35a4,4,0,0,1,0-5.62l25.5-25.5A4,4,0,0,0,777.36,1499.33Zm1.78,195.81c3.28-4.44,22.77-30.05,51-34,10.94-1.54,15.16,1.31,17,3,5.64,5.18,4.83,14.16,4.25,17.68a.89.89,0,0,0,1.09,1c24.08-5.53,35.46-1.44,38.66,4.32a21.23,21.23,0,0,1,1.3,18.14.89.89,0,0,0,.56,1.14c5.44,1.79,18.36,6.48,22.14,19.72,6.32,22.13-26.16,45-28,46-25,14-57,11.53-65,10-2.31-.44-55.89-11.3-61-44C758.72,1722.7,768.26,1709.83,779.14,1695.14Zm139.5-192.5c-3.22,5.63-3.4,8.67-3,13l-21.5-31.5c.22-1.29,1.65-13.19,11.5-18.5,6.51-3.52,18-4,24.5,2.5,4.77,4.77,5.73,12.73,3.5,18.5C930.65,1494.37,923.44,1494.25,918.64,1502.64Zm8,40a12,12,0,1,1-12-12A12,12,0,0,1,926.64,1542.64Zm-35,123c1.07-.05,11.19-.35,18,8,7.11,8.72,4.26,19.11,4,20Zm3-29c1.69-.29,22.38-3.43,37,12,10.91,11.52,14.05,28.75,8,44Zm2.6-298.64a3.18,3.18,0,0,1,0-5.56l54.16-29.72a3.17,3.17,0,0,1,4.7,2.79l-.17,59.75a3.18,3.18,0,0,1-4.72,2.77Zm-572.1-325.86a97,97,0,1,1-97,97A97,97,0,0,1,325.14,1012.14ZM307.9,1282.85a2.68,2.68,0,0,1,4,2.32v90.44a2.68,2.68,0,0,1-4,2.32l-41.76-24.11v.07H241.82a2.68,2.68,0,0,1-2.68-2.68v-41.64a2.68,2.68,0,0,1,2.68-2.68h24.32v.07Zm-75.79,204.29h36.06a4,4,0,0,0,4-4v-36.06a4,4,0,0,1,4-4h16.06a4,4,0,0,1,4,4v36.06a4,4,0,0,0,4,4h36.06a4,4,0,0,1,4,4v16.06a4,4,0,0,1-4,4H300.11a4,4,0,0,0-4,4v36.06a4,4,0,0,1-4,4H276.11a4,4,0,0,1-4-4v-36.06a4,4,0,0,0-4-4H232.11a4,4,0,0,1-4-4v-16.06A4,4,0,0,1,232.11,1487.14Zm-.47,367.36A12.36,12.36,0,0,1,244,1842.14H1358.28a12.36,12.36,0,0,1,12.36,12.36v1.28a12.37,12.37,0,0,1-12.36,12.36H244a12.36,12.36,0,0,1-12.36-12.36Zm1134-1031.74a11.88,11.88,0,0,1-11.88,11.88H1015.51a11.87,11.87,0,0,1-11.87-11.88V721.51a11.86,11.86,0,0,1,11.87-11.87h338.25a11.87,11.87,0,0,1,11.88,11.87Zm-99.5-343.55a7.06,7.06,0,0,1,7.07-7.07h67.86a7.07,7.07,0,0,1,7.07,7.07v.93h.9a7.1,7.1,0,0,1,7.1,7.1V497a7.1,7.1,0,0,1-7.1,7.11h-.9v.93a7.08,7.08,0,0,1-7.07,7.07h-67.86a7.07,7.07,0,0,1-7.07-7.07Zm42.24,61A43,43,0,0,1,1343,605.26a5.37,5.37,0,0,0,.81,6.56l19.51,19.51a5.52,5.52,0,0,1,0,7.81l-2,2a5.5,5.5,0,0,1-7.8,0l-19.74-19.74a5.36,5.36,0,0,0-6.44-.88,43,43,0,1,1-18.93-80.37Zm-91.77-60.13a1,1,0,0,1,.06-1.39l4-3.8a1,1,0,0,1,1.4,0l8,8.29V469.08a1.47,1.47,0,0,1,2.44-1.11l13.75,11.93a1,1,0,0,1,0,1.51l-10.46,10.46,10.46,10.46a1,1,0,0,1,0,1.51l-13.75,11.93a1.47,1.47,0,0,1-2.44-1.11V500.54l-8,8.29a1,1,0,0,1-1.4,0l-4-3.8a1,1,0,0,1-.06-1.39l10.6-11.81Zm-83,109.72h7.92a2.57,2.57,0,0,0,2.57-2.57v-45a2.57,2.57,0,0,1,2.57-2.57h9.86a2.57,2.57,0,0,1,2.57,2.57v45a2.57,2.57,0,0,0,2.57,2.57h7.91a2.57,2.57,0,0,1,2.23,3.85l-18,31.15a2.56,2.56,0,0,1-4.45,0l-18-31.15A2.56,2.56,0,0,1,1133.65,589.78Zm-33-24.12a3,3,0,0,1,3-3h16.45a3,3,0,0,1,3,3v9a3,3,0,0,1-3,3h-1.45a3,3,0,0,0-3,3v49a3,3,0,0,0,3,3h68.95a3,3,0,0,0,3-3v-49a3,3,0,0,0-3-3h-1.45a3,3,0,0,1-3-3v-9a3,3,0,0,1,3-3h16.45a3,3,0,0,1,3,3v79a3,3,0,0,1-3,3h-98.95a3,3,0,0,1-3-3Zm-117.25-19-.07-6.42a2.67,2.67,0,0,1,4-2.35l30.16,17a2.67,2.67,0,0,1,0,4.62l-29.82,17.62a2.67,2.67,0,0,1-4-2.27l-.06-5.9a27,27,0,1,0,33.31,29.66,3.94,3.94,0,0,1,3.9-3.46H1035a3.94,3.94,0,0,1,3.92,4.29,49,49,0,1,1-55.56-52.81ZM690,302.79a17.15,17.15,0,0,1,17.16-17.15H904.48a17.15,17.15,0,0,1,17.16,17.15v.69a17.16,17.16,0,0,1-17.16,17.16H707.16A17.16,17.16,0,0,1,690,303.48ZM675.14,574.14a16,16,0,1,1-16,16A16,16,0,0,1,675.14,574.14Zm-50,32a16,16,0,1,1,16-16A16,16,0,0,1,625.14,606.14Zm-12-328.5a23.5,23.5,0,1,1-23.5,23.5A23.5,23.5,0,0,1,613.14,277.64Zm-37,296.5a16,16,0,1,1-16,16A16,16,0,0,1,576.14,574.14Zm-186-33h108a8,8,0,0,1,0,16h-108a8,8,0,0,1,0-16Zm0,28h108a8,8,0,0,1,0,16h-108a8,8,0,0,1,0-16Zm0,30h108a8,8,0,0,1,0,16h-108a8,8,0,0,1,0-16Zm0,28h67a8,8,0,0,1,0,16h-67a8,8,0,0,1,0-16Zm-34-150a12,12,0,1,1-12,12A12,12,0,0,1,356.14,477.14Zm-31,0a12,12,0,1,1-12,12A12,12,0,0,1,325.14,477.14Zm-31,0a12,12,0,1,1-12,12A12,12,0,0,1,294.14,477.14Zm-1.36,62.36a4.74,4.74,0,0,1,6.72,0l8.78,8.78a4.76,4.76,0,0,1,0,6.72l-31.62,31.61a6.77,6.77,0,0,0,0,9.55l31.62,31.62a4.76,4.76,0,0,1,0,6.72l-8.78,8.78a4.76,4.76,0,0,1-6.72,0l-49.1-47.58a3.29,3.29,0,0,1,0-4.63Zm-28.64-62.36a12,12,0,1,1-12,12A12,12,0,0,1,264.14,477.14Zm-84.5,2208.5a20,20,0,1,1,20-20A20,20,0,0,1,179.64,2685.64Zm0-162a20,20,0,1,1,20-20A20,20,0,0,1,179.64,2523.64Zm0-646a20,20,0,1,1,20-20A20,20,0,0,1,179.64,1877.64Zm0-1201a20,20,0,1,1,20-20A20,20,0,0,1,179.64,676.64Zm0-132a20,20,0,1,1,20-20A20,20,0,0,1,179.64,544.64Zm0-68a20,20,0,1,1,20-20A20,20,0,0,1,179.64,476.64Zm41.5,12.5a12,12,0,1,1,12,12A12,12,0,0,1,221.14,489.14Zm5,1475.12a63.3,63.3,0,0,1,63.12-63.12H669a63.31,63.31,0,0,1,63.13,63.12V1977a62.54,62.54,0,0,1-2.57,17.72,80.07,80.07,0,0,0,7.57,17.41c8.4,14.42,18.57,22,16,26-2.95,4.59-19.33-.59-29-5a132.59,132.59,0,0,1-14.86-7.61A62.81,62.81,0,0,1,669,2040.14H289.26A63.31,63.31,0,0,1,226.14,1977Zm417,438.67v-49.58a10.21,10.21,0,0,1,10.21-10.21h36.58a10.21,10.21,0,0,1,9,5.39,8.38,8.38,0,0,0,7.36,4.61h74.94a11.91,11.91,0,0,1,11.91,11.91v87.18a11.91,11.91,0,0,1-11.91,11.91H655.05a11.91,11.91,0,0,1-11.91-11.91Zm-5.93-165.79a24.08,24.08,0,0,1-24.07-24.08v-45.85a24.07,24.07,0,0,1,24.07-24.07h45.85a24.08,24.08,0,0,1,24.08,24.07v45.85a24.08,24.08,0,0,1-24.08,24.08Zm111.83,6a18.91,18.91,0,0,1-18.9-18.91V2152a18.9,18.9,0,0,1,18.9-18.9h92.19a18.91,18.91,0,0,1,18.91,18.9v72.19a18.91,18.91,0,0,1-18.91,18.91Zm-516.9,219.43V2371.7a8.56,8.56,0,0,1,8.56-8.56h90.88a8.56,8.56,0,0,1,8.56,8.56v90.87a8.57,8.57,0,0,1-8.56,8.57H240.7A8.57,8.57,0,0,1,232.14,2462.57Zm115,179a5.6,5.6,0,0,1-5.58,5.58H240.72a5.6,5.6,0,0,1-5.58-5.58V2540.72a5.6,5.6,0,0,1,5.58-5.58h63.45a4,4,0,0,1,3.18,6.33l-9.25,12.44a5.55,5.55,0,0,1-4.44,2.23h-34a3.5,3.5,0,0,0-3.49,3.49v63a3.5,3.5,0,0,0,3.49,3.49h63a3.5,3.5,0,0,0,3.49-3.49V2594a7.79,7.79,0,0,1,3.11-6.23l12.65-9.49a3.27,3.27,0,0,1,5.24,2.61Zm11.23-101.68-60,60a9.59,9.59,0,0,1-13.51,0l-.71-.7a9.6,9.6,0,0,1,0-13.52l60-60a9.58,9.58,0,0,1,13.52,0l.7.7A9.59,9.59,0,0,1,358.37,2539.88Zm40.77-118.33a9.6,9.6,0,0,1-9.59,9.59H363.5a3.3,3.3,0,0,1-2.67-1.8c-2.69-4.2-2.69-15.2-1-19.65.52-1.37,1.39-2.55,2.86-2.55H373a6.1,6.1,0,0,0,6.1-6.1v-62.8a6.1,6.1,0,0,0-6.1-6.1h-66.8a6.1,6.1,0,0,0-6.1,6.1v9.54c0,1.15-1,1.76-2,2.36-4.24,2.57-15,1-17-.68a3.1,3.1,0,0,1-1-2.39v-29.34a9.59,9.59,0,0,1,9.59-9.59h99.82a9.59,9.59,0,0,1,9.59,9.59Zm-25.69-139.41H278.83a49.69,49.69,0,0,1-49.69-49.69v-94.63a49.68,49.68,0,0,1,49.69-49.68h94.62a49.69,49.69,0,0,1,49.69,49.68v94.63A49.69,49.69,0,0,1,373.45,2282.14Zm162.69,352c-4.55,1.63-8.66-8.59-23-18-6.31-4.14-18.22-12-30-9a18.43,18.43,0,0,0-4.71,1.86,10.13,10.13,0,0,0-5,8.84v3.27a5.51,5.51,0,0,1-8.84,4.4l-47.62-36.08a5.52,5.52,0,0,1,0-8.79l47.62-36.08a5.51,5.51,0,0,1,8.84,4.39v10.62a4.53,4.53,0,0,0,4.15,4.52l.59,0c8.31.7,27.64,2.33,44,18,3.79,3.63,16.71,16.37,18,35C540.25,2618.82,541.08,2632.37,536.14,2634.14Zm55-176.67a8.67,8.67,0,0,1-8.67,8.67H468.81a8.67,8.67,0,0,1-8.67-8.67v-89.66a8.67,8.67,0,0,1,8.67-8.67h28.58a4.75,4.75,0,0,1,4.75,4.75v13.5a4.75,4.75,0,0,1-4.75,4.75h-12a5.65,5.65,0,0,0-5.66,5.66v53.68a5.66,5.66,0,0,0,5.66,5.66h80.5a5.67,5.67,0,0,0,5.66-5.66V2387.8a5.66,5.66,0,0,0-5.66-5.66h-11a4.75,4.75,0,0,1-4.75-4.75v-13.5a4.74,4.74,0,0,1,4.75-4.75h27.58a8.67,8.67,0,0,1,8.67,8.67ZM513.33,2349.9l-5.75,0a11.36,11.36,0,0,1-6.8-20.42l21.81-16.5a6.09,6.09,0,0,1,7.4,0l21.63,16.74c8.58,6.65,3.84,20.41-7,20.35l-5.72,0a3.28,3.28,0,0,0-3.29,3.27v49.32a9.52,9.52,0,0,1-11,9.38,9.7,9.7,0,0,1-8-9.67v-49.17A3.28,3.28,0,0,0,513.33,2349.9Zm78.81-127.6a34.84,34.84,0,0,1-34.83,34.84H491a34.83,34.83,0,0,1-34.83-34.84V2156A34.82,34.82,0,0,1,491,2121.14h66.34A34.83,34.83,0,0,1,592.14,2156Zm64.49,420.15-4.08-35.87a6.85,6.85,0,0,0-5.47-5.95l-43-8.6a1.76,1.76,0,0,1-.37-3.34L703,2544.33a2.21,2.21,0,0,1,2.89,3L660,2643A1.76,1.76,0,0,1,656.63,2642.45Zm136.51,283.69a108,108,0,1,1,108-108A108,108,0,0,1,793.14,2926.14Zm117-311a28.73,28.73,0,0,1-23.95,21H785.26a.85.85,0,0,1-.23,0c-14.87-5.14-24.09-18.66-22.89-32,1.13-12.58,11.15-20.06,13.64-21.76a.65.65,0,0,0,.27-.67,22.54,22.54,0,0,1,33.57-23.88.66.66,0,0,0,.87-.19c13.86-19.5,38.86-26.46,58.65-17.5,16,7.24,26.52,23.94,27,42.63a.67.67,0,0,0,.32.55A28.84,28.84,0,0,1,910.14,2615.14Zm-27.3-204.66a14.91,14.91,0,0,0-15.7,14.86v39.8a9,9,0,0,1-18,0v-121.8a17.35,17.35,0,0,1,12.74-16.74c33.94-9.3,67.88,15.56,101.82,2.17a5.45,5.45,0,0,1,7.44,5.07v71.71a9.43,9.43,0,0,1-5.59,8.6C938,2426.45,910.41,2411.83,882.84,2410.48Zm-10.2-206V2174.7a2.88,2.88,0,0,1,1.48-2.52L923,2144.71a2.9,2.9,0,0,1,4.32,2.53V2232a2.9,2.9,0,0,1-4.32,2.53L874.12,2207A2.88,2.88,0,0,1,872.64,2204.51Zm155.52,56.59a98.62,98.62,0,0,1-28.88-3L973.45,2272a5.54,5.54,0,0,1-8.09-5.23l.94-24.77c-16.1-12.72-26.51-30.78-27.39-51.19-1.78-40.89,35.29-75.72,82.81-77.78s87.47,29.4,89.25,70.29S1075.68,2259,1028.16,2261.1Zm79,84.4v97.28c0,.26,0,.51,0,.77-.06,1-.15,2-.15,3,0,.55,0,1.1-.07,1.65-.4,4.94-1.21,10.64-1.75,12-.37.9-3.36,8.21-7,8-1.11-.07-1.91-.81-3-2-4.26-4.68-5.44-8.11-7.37-11H1039.5a12.36,12.36,0,0,1-12.36-12.36V2345.5a12.36,12.36,0,0,1,12.36-12.36h55.28A12.36,12.36,0,0,1,1107.14,2345.5Zm89,259.94c-.35,0-.69,0-1-.05a49,49,0,0,1-94.57-2.33,14.39,14.39,0,0,0-13.77-11.09h-.26a14.38,14.38,0,0,0-13.77,11.09,49,49,0,0,1-94.58,2.33c-.34,0-.68.05-1,.05-7.18,0-13-6.27-13-14s5.82-14,13-14c.34,0,.68,0,1,.06a49,49,0,0,1,47-35.06c19.26,0,35.91,14.12,43.92,30.28,14.08-6.58,21.08-6.58,35.15,0,8-16.16,24.67-30.28,43.93-30.28a49,49,0,0,1,47,35.06c.34,0,.68-.06,1-.06,7.18,0,13,6.27,13,14S1203.32,2605.44,1196.14,2605.44Zm95-346.88c-.07,0-.12.09-.18.13a4.13,4.13,0,0,0-.78.41.57.57,0,0,0-.22,0h-84c-40.76,0-75-31.42-76.79-71.69a74.32,74.32,0,0,1,22.2-56.28,76,76,0,0,1,53.56-22H1291a3.9,3.9,0,0,0,.67.18c.78.12,1.73,3.42,1.35,4.73a4.06,4.06,0,0,1-1.21,1.73h0a72.12,72.12,0,0,0-31.38,18.21,70.39,70.39,0,0,0-21.09,50.14c0,31.7,21.3,58.72,50.44,67.77a3.37,3.37,0,0,0,.35.29C1292.16,2253.74,1292.17,2256.47,1291.19,2258.56Zm10.28,18.58h0a29.58,29.58,0,0,1,29.5,29.5v71a29.59,29.59,0,0,1-29.5,29.5h0a29.59,29.59,0,0,1-29.5-29.5v-71A29.59,29.59,0,0,1,1301.47,2277.14Zm-167,56h55.28a12.36,12.36,0,0,1,12.36,12.36v97.28a12.37,12.37,0,0,1-12.36,12.36h-48.27c-1.94,2.89-3.11,6.32-7.37,11-1.09,1.19-1.9,1.93-3,2-3.64.21-6.63-7.1-7-8-.54-1.33-1.35-7-1.75-12-.05-.55-.07-1.1-.07-1.65,0-1-.09-2-.16-3,0-.26,0-.51,0-.77V2345.5A12.36,12.36,0,0,1,1134.5,2333.14ZM1355.3,2542a16.19,16.19,0,0,1-8.5,14.25l-7.59,89.11a5.26,5.26,0,0,1-5.24,4.82h-52.43a5.27,5.27,0,0,1-5.24-4.71l-9.47-89.06a15.77,15.77,0,0,1-8.53-14,6.24,6.24,0,0,1,6.24-6.23h18.53a27,27,0,0,0,3.86-6.37,7.66,7.66,0,0,1,7-4.63h25.67a7.67,7.67,0,0,1,7,4.63,27,27,0,0,0,3.86,6.37h18.94a5.82,5.82,0,0,1,5.82,5.82Zm8.67-157.39a54.77,54.77,0,0,1-47.84,54.15,4.21,4.21,0,0,0-3.66,4.19v12a4.24,4.24,0,0,0,4.24,4.24h18.16a6.62,6.62,0,0,1,6.6,6.6v5.79a6.62,6.62,0,0,1-6.6,6.61h-66.8a6.62,6.62,0,0,1-6.6-6.61v-5.79a6.62,6.62,0,0,1,6.6-6.6h18.16a4.24,4.24,0,0,0,4.24-4.24v-12a4.21,4.21,0,0,0-3.66-4.19,54.77,54.77,0,0,1-47.84-54.15v-44.8a5.63,5.63,0,0,1,5.63-5.63h9.74a5.63,5.63,0,0,1,5.63,5.63v40.71a39.78,39.78,0,0,0,39.66,39.66h3.68a39.78,39.78,0,0,0,39.66-39.66v-40.71a5.63,5.63,0,0,1,5.63-5.63h9.74a5.63,5.63,0,0,1,5.63,5.63Zm-55.83-139.43a60,60,0,1,1,60-60A60,60,0,0,1,1308.14,2245.14Zm63-248.75a37.86,37.86,0,0,1-37.75,37.75H1111l-34.65,33.55a7.55,7.55,0,0,1-10.5,0l-34.66-33.55H805.89a37.86,37.86,0,0,1-37.75-37.75v-51.5a37.86,37.86,0,0,1,37.75-37.75h527.5a37.86,37.86,0,0,1,37.75,37.75Zm3.95-259.25c-.07,1.13-1.21,5.1-3,6-2.21,1.13-4.55-1.44-7.94-1.93a2.39,2.39,0,0,0-1.71.44c-4.6,3.3-8.47,10.52-10.22,15.16a2.94,2.94,0,0,0,1.19,3.51c2.35,1.48,6,4.14,6.85,6.82,1.55,4.94-5,10.85-9.86,14-11.85,6-33.35-.66-38.46-3.45a4.46,4.46,0,0,0-2.17-.55h-9.4a4.46,4.46,0,0,0-2.17.55c-5.1,2.79-26.6,9.46-38.46,3.45-4.9-3.15-11.4-9.06-9.85-14,.84-2.68,4.49-5.34,6.84-6.82a2.93,2.93,0,0,0,1.2-3.51c-1.75-4.64-5.62-11.86-10.23-15.16a2.39,2.39,0,0,0-1.71-.44c-3.39.49-5.73,3.06-7.94,1.93-1.74-.9-2.89-4.87-2.95-6-.53-9.56,2.95-17,14.31-32.18a2.34,2.34,0,0,0,.26-1.68,16.9,16.9,0,0,1,.22-8.14,16.73,16.73,0,0,1,3.24-6.21,2.92,2.92,0,0,0,.67-1.92c-.08-6,.81-29.72,19.75-44.87a51.81,51.81,0,0,1,29.58-11c5.35.28,21.85,1.7,33.47,11,18.94,15.15,19.83,38.87,19.75,44.87a2.92,2.92,0,0,0,.67,1.92,16.79,16.79,0,0,1,3.45,14.35,2.3,2.3,0,0,0,.27,1.68C1372.13,1720.14,1375.61,1727.58,1375.09,1737.14Zm-60.26-167.21c-1.06,0-2.12.08-3.19.08a65.42,65.42,0,0,1-56.09-31.66,46.58,46.58,0,0,0-8.37-10.33L1226,1508.7a6,6,0,0,1,0-8.86l21.31-19.21a46.58,46.58,0,0,0,8.42-10.28,65.34,65.34,0,0,1,55.9-31.34c1.2,0,2.39,0,3.57.1a65.5,65.5,0,0,1-.38,130.82Zm62.76-1059a.54.54,0,0,1-.91-.56l6.53-15.13h-13.87s12.78-14.69,18.35-21.92a.54.54,0,0,1,.9.56L1382.07,489h13.86Zm44.05,2174.7a20,20,0,1,1,20-20A20,20,0,0,1,1421.64,2685.64Zm0-162a20,20,0,1,1,20-20A20,20,0,0,1,1421.64,2523.64Zm0-646a20,20,0,1,1,20-20A20,20,0,0,1,1421.64,1877.64Zm0-1201a20,20,0,1,1,20-20A20,20,0,0,1,1421.64,676.64Zm0-132a20,20,0,1,1,20-20A20,20,0,0,1,1421.64,544.64Zm0-68a20,20,0,1,1,20-20A20,20,0,0,1,1421.64,476.64Zm32.5,15.18V480.46a6.32,6.32,0,0,1,6.32-6.32h11.36a6.32,6.32,0,0,1,6.32,6.32v11.36a6.32,6.32,0,0,1-6.32,6.32h-11.36A6.32,6.32,0,0,1,1454.14,491.82Zm20.75,67.57a6.5,6.5,0,1,1,6.5,6.5A6.5,6.5,0,0,1,1474.89,559.39Zm5.5,191.5a6.5,6.5,0,1,1-6.5,6.5A6.5,6.5,0,0,1,1480.39,750.89Zm-7,1698h5a5.49,5.49,0,0,1,5.5,5.49h0a5.5,5.5,0,0,1-5.5,5.5h-5a5.49,5.49,0,0,1-5.49-5.5h0A5.49,5.49,0,0,1,1473.38,2448.89Zm-5.49-85.5a6.5,6.5,0,1,1,6.5,6.5A6.5,6.5,0,0,1,1467.89,2363.39Zm11.5-100.5h-5a5.49,5.49,0,0,1-5.49-5.5h0a5.49,5.49,0,0,1,5.49-5.49h5a5.49,5.49,0,0,1,5.5,5.49h0A5.5,5.5,0,0,1,1479.39,2262.89Zm-10.5-99.5a6.5,6.5,0,1,1,6.5,6.5A6.5,6.5,0,0,1,1468.89,2163.39Zm10.5-101.5h-5a5.49,5.49,0,0,1-5.49-5.5h0a5.49,5.49,0,0,1,5.49-5.49h5a5.49,5.49,0,0,1,5.5,5.49h0A5.5,5.5,0,0,1,1479.39,2061.89Zm-3-105a6.5,6.5,0,1,1,6.5-6.5A6.5,6.5,0,0,1,1476.39,1956.89Zm-5.5-395.5a6.5,6.5,0,1,1,6.5,6.5A6.5,6.5,0,0,1,1470.89,1561.39Zm5.5,190.5a6.5,6.5,0,1,1-6.5,6.5A6.5,6.5,0,0,1,1476.39,1751.89Zm-4.5-395.5a6.5,6.5,0,1,1,6.5,6.5A6.5,6.5,0,0,1,1471.89,1356.39Zm12,1316a5.5,5.5,0,0,1-5.5,5.5h-5a5.49,5.49,0,0,1-5.49-5.5h0a5.49,5.49,0,0,1,5.49-5.49h5a5.49,5.49,0,0,1,5.5,5.49Zm0-16a5.5,5.5,0,0,1-5.5,5.5h-5a5.49,5.49,0,0,1-5.49-5.5h0a5.49,5.49,0,0,1,5.49-5.49h5a5.49,5.49,0,0,1,5.5,5.49Zm-4.5-89.5a6.5,6.5,0,1,1,6.5-6.5A6.5,6.5,0,0,1,1479.39,2566.89Zm7.5-710.5a5.5,5.5,0,0,1-5.5,5.5h-5a5.49,5.49,0,0,1-5.49-5.5h0a5.49,5.49,0,0,1,5.49-5.49h5a5.49,5.49,0,0,1,5.5,5.49Zm1-197a5.5,5.5,0,0,1-5.5,5.5h-5a5.49,5.49,0,0,1-5.49-5.5h0a5.49,5.49,0,0,1,5.49-5.49h5a5.49,5.49,0,0,1,5.5,5.49Zm1-200a5.5,5.5,0,0,1-5.5,5.5h-5a5.49,5.49,0,0,1-5.49-5.5h0a5.49,5.49,0,0,1,5.49-5.49h5a5.49,5.49,0,0,1,5.5,5.49Zm0-204a5.5,5.5,0,0,1-5.5,5.5h-5a5.49,5.49,0,0,1-5.49-5.5h0a5.49,5.49,0,0,1,5.49-5.49h5a5.49,5.49,0,0,1,5.5,5.49Zm-17-95a6.5,6.5,0,1,1,6.5,6.5A6.5,6.5,0,0,1,1471.89,1160.39Zm17-101a5.5,5.5,0,0,1-5.5,5.5h-5a5.49,5.49,0,0,1-5.49-5.5h0a5.49,5.49,0,0,1,5.49-5.49h5a5.49,5.49,0,0,1,5.5,5.49Zm-15-102a6.5,6.5,0,1,1,6.5,6.5A6.5,6.5,0,0,1,1473.89,957.39Zm15-100a5.5,5.5,0,0,1-5.5,5.5h-5a5.49,5.49,0,0,1-5.49-5.5h0a5.49,5.49,0,0,1,5.49-5.49h5a5.49,5.49,0,0,1,5.5,5.49Zm3-198a5.5,5.5,0,0,1-5.5,5.5h-5a5.49,5.49,0,0,1-5.49-5.5h0a5.49,5.49,0,0,1,5.49-5.49h5a5.49,5.49,0,0,1,5.5,5.49Zm0-202a5.5,5.5,0,0,1-5.5,5.5h-5a5.49,5.49,0,0,1-5.49-5.5h0a5.49,5.49,0,0,1,5.49-5.49h5a5.49,5.49,0,0,1,5.5,5.49Z"/><line class="cls-2" x1="200.28" y1="524.14" x2="211.28" y2="524.14"/><line class="cls-3" x1="259.76" y1="524.14" x2="1366.76" y2="524.14"/><line class="cls-2" x1="1391" y1="524.14" x2="1402" y2="524.14"/><line class="cls-2" x1="200.28" y1="657.14" x2="211.28" y2="657.14"/><line class="cls-3" x1="259.76" y1="657.14" x2="1366.76" y2="657.14"/><line class="cls-2" x1="1391" y1="657.14" x2="1402" y2="657.14"/><line class="cls-2" x1="200.28" y1="2504.14" x2="211.28" y2="2504.14"/><line class="cls-3" x1="259.76" y1="2504.14" x2="1366.76" y2="2504.14"/><line class="cls-2" x1="1391" y1="2504.14" x2="1402" y2="2504.14"/><line class="cls-4" x1="200" y1="457" x2="1402" y2="457"/><line class="cls-4" x1="1422" y1="477" x2="1422" y2="505"/><line class="cls-4" x1="1422" y1="545" x2="1422" y2="637"/><line class="cls-4" x1="1422" y1="677" x2="1422" y2="1838"/><line class="cls-4" x1="1422" y1="1878" x2="1422" y2="2484"/><line class="cls-4" x1="1422" y1="2524" x2="1422" y2="2646"/><line class="cls-4" x1="1402" y1="2666" x2="200" y2="2666"/><line class="cls-4" x1="180" y1="2646" x2="180" y2="2524"/><line class="cls-4" x1="180" y1="2484" x2="180" y2="1878"/><line class="cls-4" x1="180" y1="477" x2="180" y2="505"/><line class="cls-4" x1="180" y1="545" x2="180" y2="637"/><line class="cls-4" x1="180" y1="677" x2="180" y2="1838"/></g><g id="Layer_3" data-name="Layer 3"><path class="cls-5" d="M1195.34,2713.23v-25.72h6.84a20.79,20.79,0,0,1,5,.37,5.6,5.6,0,0,1,3.09,2.54,9.26,9.26,0,0,1,1.22,5,9.53,9.53,0,0,1-1,4.68,6.16,6.16,0,0,1-2.63,2.65,13.88,13.88,0,0,1-5.44.76h-2.79v9.7Zm4.25-21.37v7.32h2.35a10,10,0,0,0,3.23-.34,2.84,2.84,0,0,0,1.4-1.2,4,4,0,0,0,.55-2.14,3.88,3.88,0,0,0-.57-2.16,2.75,2.75,0,0,0-1.39-1.18,12.68,12.68,0,0,0-3.5-.3Z"/><path class="cls-5" d="M1212.87,2713.23l7.29-13.39-6.62-12.33h5l4.19,7.69,4.2-7.69h4.92l-6.62,12.3,7.29,13.42h-5.14l-4.68-8.72-4.69,8.72Z"/><path class="cls-5" d="M1127.8,2713.23h-4v-18.58a13.89,13.89,0,0,1-5.23,3.74v-4.48a11.16,11.16,0,0,0,3.5-2.44,9.49,9.49,0,0,0,2.51-4h3.26Z"/><path class="cls-5" d="M1147.51,2708.65v4.58h-14.18a13.53,13.53,0,0,1,1.39-4.93,31.69,31.69,0,0,1,4.54-6.15,34,34,0,0,0,3.28-4.1,6.15,6.15,0,0,0,.91-3.14,3.76,3.76,0,0,0-.75-2.54,2.51,2.51,0,0,0-2-.86q-2.68,0-2.89,4l-4-.49c.25-2.62,1-4.55,2.19-5.78a6.47,6.47,0,0,1,4.83-1.84,6,6,0,0,1,5,2.16,7.8,7.8,0,0,1,1.69,4.94,11.2,11.2,0,0,1-.43,3.06,12.76,12.76,0,0,1-1.33,3,27,27,0,0,1-3,3.83c-1.3,1.46-2.12,2.43-2.47,2.9a8.42,8.42,0,0,0-.83,1.36Z"/><path class="cls-5" d="M1158.16,2713.23v-5.17h-8.64v-4.32l9.15-16.32h3.4v16.3h2.62v4.34h-2.62v5.17Zm0-9.51v-8.78l-4.85,8.78Z"/><path class="cls-5" d="M1180.29,2708.65v4.58h-14.18a13.53,13.53,0,0,1,1.39-4.93,31.69,31.69,0,0,1,4.54-6.15,34,34,0,0,0,3.28-4.1,6.15,6.15,0,0,0,.91-3.14,3.76,3.76,0,0,0-.75-2.54,2.51,2.51,0,0,0-2-.86q-2.68,0-2.89,4l-4-.49c.25-2.62,1-4.55,2.19-5.78a6.47,6.47,0,0,1,4.83-1.84,6,6,0,0,1,5,2.16,7.8,7.8,0,0,1,1.69,4.94,11.2,11.2,0,0,1-.43,3.06,12.76,12.76,0,0,1-1.33,3,27,27,0,0,1-3,3.83c-1.3,1.46-2.12,2.43-2.47,2.9a8.42,8.42,0,0,0-.83,1.36Z"/><path class="cls-5" d="M938.39,306.85l4.64-.5q.78,4.93,5.13,4.94a5.2,5.2,0,0,0,3.38-1,3.13,3.13,0,0,0,1.23-2.5,2.5,2.5,0,0,0-.43-1.49,3,3,0,0,0-1.31-1,37.31,37.31,0,0,0-4.26-1.33,15.16,15.16,0,0,1-4.44-1.78,7.22,7.22,0,0,1-2-9.7,6.66,6.66,0,0,1,2.95-2.54,11.13,11.13,0,0,1,4.63-.86,9.54,9.54,0,0,1,6.48,2,7.61,7.61,0,0,1,2.46,5.77l-4.75.23a4.42,4.42,0,0,0-1.35-2.9,4.65,4.65,0,0,0-3-.82,5.16,5.16,0,0,0-3,.72,2.11,2.11,0,0,0-1,1.78,2.18,2.18,0,0,0,.94,1.77,14.14,14.14,0,0,0,4.33,1.57,18.89,18.89,0,0,1,5.17,2,6.88,6.88,0,0,1,2.44,2.65,8.49,8.49,0,0,1,.84,3.94,7.63,7.63,0,0,1-2.3,5.63q-2.3,2.28-7.19,2.28Q939.37,315.67,938.39,306.85Z"/><path class="cls-5" d="M961.5,315.23V289.51h7.63a25.65,25.65,0,0,1,5.58.37,6.2,6.2,0,0,1,3.45,2.54,8.55,8.55,0,0,1,1.36,5,8.74,8.74,0,0,1-1.17,4.68,6.58,6.58,0,0,1-2.94,2.65,17,17,0,0,1-6.06.76h-3.11v9.7Zm4.74-21.37v7.32h2.62a12.34,12.34,0,0,0,3.6-.34,3.07,3.07,0,0,0,1.56-1.2,4,4,0,0,0,0-4.3,3,3,0,0,0-1.55-1.18,15.64,15.64,0,0,0-3.9-.3Z"/><path class="cls-5" d="M983.44,315.23V289.51h17.45v4.35H988.17v5.7H1000v4.34H988.17v7h13.15v4.35Z"/><path class="cls-5" d="M1026.56,315.23h-5.15l-2.06-5.82h-9.41l-2,5.82h-5l9.16-25.72h5Zm-8.74-10.17-3.25-9.55-3.18,9.55Z"/><path class="cls-5" d="M1029.1,315.23V289.51h4.74V301l9.61-11.45h6.4l-8.87,10,9.34,15.7h-6.14l-6.49-12.09-3.85,4.32v7.77Z"/><path class="cls-5" d="M1052.78,315.23V289.51h17.45v4.35h-12.72v5.7h11.82v4.34h-11.82v7h13.15v4.35Z"/><path class="cls-5" d="M1074.69,315.23V289.51h10a15.48,15.48,0,0,1,5.48.69,5.85,5.85,0,0,1,2.7,2.4,7.72,7.72,0,0,1,1.06,4.1,7.1,7.1,0,0,1-1.62,4.86,7.39,7.39,0,0,1-4.59,2.32,11.59,11.59,0,0,1,2.53,2.15,30.7,30.7,0,0,1,2.72,4.18l2.85,5h-5.66l-3.44-5.59a36.86,36.86,0,0,0-2.52-3.8,3.7,3.7,0,0,0-1.41-1.06,7.15,7.15,0,0,0-2.38-.29h-1v10.74Zm4.74-14.84H1083a19.47,19.47,0,0,0,4.11-.26,2.65,2.65,0,0,0,1.43-1,3.54,3.54,0,0,0,.54-2.06,3.28,3.28,0,0,0-.54-2,2.79,2.79,0,0,0-1.49-1,20.94,20.94,0,0,0-3.86-.19h-3.71Z"/><path class="cls-5" d="M438.65,305.77l4.6,1.6a11.24,11.24,0,0,1-3.58,6.31,10.43,10.43,0,0,1-13.62-1.18q-3.29-3.67-3.28-9.9,0-6.59,3.3-10.3a9.86,9.86,0,0,1,7.74-3.23,9.5,9.5,0,0,1,6.62,2.42,10.15,10.15,0,0,1,2.78,5.11l-4.69,1.23a5.56,5.56,0,0,0-1.8-3.21,4.8,4.8,0,0,0-3.16-1.11,5.25,5.25,0,0,0-4.26,2q-1.64,2-1.64,6.73,0,4.86,1.6,6.91a5,5,0,0,0,4.17,2.05,4.56,4.56,0,0,0,3.25-1.3A7.94,7.94,0,0,0,438.65,305.77Z"/><path class="cls-5" d="M468.53,315.23h-5.15l-2.06-5.82h-9.41l-2,5.82h-5l9.16-25.72h5Zm-8.74-10.17-3.24-9.55-3.19,9.55Z"/><path class="cls-5" d="M471,315.23V289.51h7.1l4.27,17.56,4.25-17.56h7.13v25.72h-4.42V295l-4.69,20.26H480L475.38,295v20.26Z"/><path class="cls-5" d="M498.41,315.23V289.51h17.45v4.35H503.14v5.7H515v4.34H503.14v7h13.15v4.35Z"/><path class="cls-5" d="M520.32,315.23V289.51h10a15.48,15.48,0,0,1,5.48.69,5.76,5.76,0,0,1,2.7,2.4,7.72,7.72,0,0,1,1.06,4.1,7.1,7.1,0,0,1-1.62,4.86,7.39,7.39,0,0,1-4.59,2.32,11.59,11.59,0,0,1,2.53,2.15,30.7,30.7,0,0,1,2.72,4.18l2.85,5h-5.66l-3.44-5.59a33.67,33.67,0,0,0-2.52-3.8,3.7,3.7,0,0,0-1.41-1.06,7.15,7.15,0,0,0-2.38-.29h-1v10.74Zm4.74-14.84h3.52a19.47,19.47,0,0,0,4.11-.26,2.62,2.62,0,0,0,1.43-1,3.54,3.54,0,0,0,.54-2.06,3.28,3.28,0,0,0-.54-2,2.79,2.79,0,0,0-1.49-1,20.88,20.88,0,0,0-3.85-.19h-3.72Z"/><path class="cls-5" d="M565.25,315.23H560.1L558,309.41h-9.42l-1.94,5.82h-5l9.16-25.72h5Zm-8.74-10.17-3.25-9.55-3.18,9.55Z"/><path class="cls-5" d="M1454.3,409.8H1480v6.85a20.69,20.69,0,0,1-.37,5,5.64,5.64,0,0,1-2.54,3.09,9.26,9.26,0,0,1-5,1.22,9.53,9.53,0,0,1-4.68-1,6.11,6.11,0,0,1-2.65-2.63,13.7,13.7,0,0,1-.76-5.44v-2.79h-9.71Zm21.38,4.25h-7.32v2.36a10,10,0,0,0,.34,3.22,2.84,2.84,0,0,0,1.2,1.4,4,4,0,0,0,2.14.55,3.91,3.91,0,0,0,2.16-.57,2.75,2.75,0,0,0,1.18-1.39,12.63,12.63,0,0,0,.3-3.5Z"/><path class="cls-5" d="M1454.3,427.33l13.39,7.29L1480,428v5l-7.7,4.18,7.7,4.2v4.92l-12.31-6.62L1454.3,447v-5.14l8.72-4.68-8.72-4.69Z"/><path class="cls-5" d="M143.77,2565.87H122.4v5.87h-4.35V2556h4.35v5.86h21.37Z"/><path class="cls-5" d="M143.77,2537.6v4.33l-5.82,1.74v7.92l5.82,1.63v4.25l-25.72-7.71v-4.23ZM133.6,2545l-9.55,2.73,9.55,2.69Z"/><path class="cls-5" d="M118.05,2535.51v-7.93a11.6,11.6,0,0,1,.63-4.56,5.2,5.2,0,0,1,2.23-2.23,7.62,7.62,0,0,1,7-.13,5.28,5.28,0,0,1,2.22,2,5.45,5.45,0,0,1,2.28-2.75,7.32,7.32,0,0,1,3.94-1,8.43,8.43,0,0,1,4.74,1.27,5.23,5.23,0,0,1,2.4,3,29.55,29.55,0,0,1,.31,5.59v6.73Zm4.28-4h6v-2.64a26.7,26.7,0,0,0-.09-2.93,2.48,2.48,0,0,0-.92-1.6,3.89,3.89,0,0,0-3.88-.1,1.94,1.94,0,0,0-.88,1.13,22.23,22.23,0,0,0-.18,3.83Zm10.23,0h6.86v-3.72a11,11,0,0,0-.27-3.13,2.37,2.37,0,0,0-1.07-1.16,4.55,4.55,0,0,0-4.09,0,2.52,2.52,0,0,0-1.12,1.34,11.65,11.65,0,0,0-.31,3.4Z"/><path class="cls-5" d="M119.05,2481.33v-7.93a11.6,11.6,0,0,1,.63-4.56,5.2,5.2,0,0,1,2.23-2.23,7.7,7.7,0,0,1,7-.13,5.28,5.28,0,0,1,2.22,2,5.45,5.45,0,0,1,2.28-2.75,7.32,7.32,0,0,1,3.94-1,8.43,8.43,0,0,1,4.74,1.27,5.23,5.23,0,0,1,2.4,3,29.55,29.55,0,0,1,.31,5.59v6.73Zm4.28-4h6v-2.63a26.7,26.7,0,0,0-.09-2.93,2.48,2.48,0,0,0-.92-1.6,3.89,3.89,0,0,0-3.88-.1,1.94,1.94,0,0,0-.88,1.13,22.23,22.23,0,0,0-.18,3.83Zm10.23,0h6.86v-3.71a11,11,0,0,0-.27-3.13,2.37,2.37,0,0,0-1.07-1.16,4.55,4.55,0,0,0-4.09,0,2.56,2.56,0,0,0-1.12,1.34,11.65,11.65,0,0,0-.31,3.4Z"/><path class="cls-5" d="M144.77,2443.51v4.33l-5.82,1.74v7.92l5.82,1.64v4.24l-25.72-7.7v-4.23Zm-10.17,7.35-9.55,2.74,9.55,2.68Z"/><path class="cls-5" d="M144.77,2441.41H119.05V2433a11.11,11.11,0,0,1,.69-4.61,5.24,5.24,0,0,1,2.41-2.27,8.79,8.79,0,0,1,4.09-.89,8,8,0,0,1,4.86,1.36,6,6,0,0,1,2.32,3.86,10.25,10.25,0,0,1,2.15-2.12,31.45,31.45,0,0,1,4.18-2.29l5-2.4v4.76l-5.59,2.89a37.34,37.34,0,0,0-3.8,2.12,3.31,3.31,0,0,0-1.06,1.19,5.19,5.19,0,0,0-.29,2v.82h10.74Zm-14.84-4v-3a13.82,13.82,0,0,0-.26-3.46,2.27,2.27,0,0,0-1-1.2,4,4,0,0,0-2.06-.46,3.71,3.71,0,0,0-2,.46,2.38,2.38,0,0,0-1,1.25,14.79,14.79,0,0,0-.19,3.24v3.13Z"/><path class="cls-5" d="M126.05,725.33V717.4a11.6,11.6,0,0,1,.63-4.56,5.2,5.2,0,0,1,2.23-2.23,7.7,7.7,0,0,1,7-.13,5.28,5.28,0,0,1,2.22,2,5.45,5.45,0,0,1,2.28-2.75,7.32,7.32,0,0,1,3.94-1,8.43,8.43,0,0,1,4.74,1.27,5.23,5.23,0,0,1,2.4,3,29.55,29.55,0,0,1,.31,5.59v6.73Zm4.28-4h5.95v-2.63a26.7,26.7,0,0,0-.09-2.93,2.48,2.48,0,0,0-.92-1.6,3.89,3.89,0,0,0-3.88-.1,1.94,1.94,0,0,0-.88,1.13,22.23,22.23,0,0,0-.18,3.83Zm10.23,0h6.86v-3.71a11,11,0,0,0-.27-3.13,2.37,2.37,0,0,0-1.07-1.16,4.55,4.55,0,0,0-4.09,0,2.52,2.52,0,0,0-1.12,1.34,11.65,11.65,0,0,0-.31,3.4Z"/><path class="cls-5" d="M151.77,687.51v4.33L146,693.58v7.92l5.82,1.64v4.24l-25.72-7.7v-4.23Zm-10.17,7.35-9.55,2.74,9.55,2.68Z"/><path class="cls-5" d="M151.77,685.41H126.05V677a11.14,11.14,0,0,1,.69-4.61,5.24,5.24,0,0,1,2.41-2.27,8.79,8.79,0,0,1,4.09-.89,8,8,0,0,1,4.86,1.36,6,6,0,0,1,2.32,3.86,10.25,10.25,0,0,1,2.15-2.12,31.45,31.45,0,0,1,4.18-2.29l5-2.4v4.76l-5.59,2.89a37.34,37.34,0,0,0-3.8,2.12,3.31,3.31,0,0,0-1.06,1.19,5.19,5.19,0,0,0-.29,2v.82h10.74Zm-14.84-4v-3a13.82,13.82,0,0,0-.26-3.46,2.27,2.27,0,0,0-1-1.2,4,4,0,0,0-2.06-.46,3.71,3.71,0,0,0-2,.46,2.38,2.38,0,0,0-1,1.25,14.79,14.79,0,0,0-.19,3.24v3.13Z"/><path class="cls-5" d="M128.05,452.33V444.4a11.6,11.6,0,0,1,.63-4.56,5.2,5.2,0,0,1,2.23-2.23,7.7,7.7,0,0,1,7-.13,5.28,5.28,0,0,1,2.22,2,5.45,5.45,0,0,1,2.28-2.75,7.32,7.32,0,0,1,3.94-1,8.43,8.43,0,0,1,4.74,1.27,5.23,5.23,0,0,1,2.4,3,29.55,29.55,0,0,1,.31,5.59v6.73Zm4.28-4h5.95v-2.63a26.7,26.7,0,0,0-.09-2.93,2.48,2.48,0,0,0-.92-1.6,3.89,3.89,0,0,0-3.88-.1,1.94,1.94,0,0,0-.88,1.13,22.23,22.23,0,0,0-.18,3.83Zm10.23,0h6.86v-3.71a11,11,0,0,0-.27-3.13,2.37,2.37,0,0,0-1.07-1.16,4.55,4.55,0,0,0-4.09,0,2.52,2.52,0,0,0-1.12,1.34,11.65,11.65,0,0,0-.31,3.4Z"/><path class="cls-5" d="M153.77,414.51v4.33L148,420.58v7.92l5.82,1.64v4.24l-25.72-7.7v-4.23Zm-10.17,7.35-9.55,2.74,9.55,2.68Z"/><path class="cls-5" d="M153.77,412.41H128.05V404a11.14,11.14,0,0,1,.69-4.61,5.24,5.24,0,0,1,2.41-2.27,8.79,8.79,0,0,1,4.09-.89,8,8,0,0,1,4.86,1.36,6,6,0,0,1,2.32,3.86,10.25,10.25,0,0,1,2.15-2.12,31.45,31.45,0,0,1,4.18-2.29l5-2.4v4.76l-5.59,2.89a37.34,37.34,0,0,0-3.8,2.12,3.31,3.31,0,0,0-1.06,1.19,5.19,5.19,0,0,0-.29,2v.82h10.74Zm-14.84-4v-3a13.82,13.82,0,0,0-.26-3.46,2.27,2.27,0,0,0-1-1.2,4,4,0,0,0-2.06-.46,3.71,3.71,0,0,0-2,.46,2.38,2.38,0,0,0-1,1.25,14.79,14.79,0,0,0-.19,3.24v3.13Z"/><path class="cls-5" d="M145.39,602.33l-.5-3.9q4.94-.66,4.94-4.31a3.92,3.92,0,0,0-1-2.85,3.37,3.37,0,0,0-2.5-1,2.88,2.88,0,0,0-1.49.36,2.74,2.74,0,0,0-1,1.11,26.83,26.83,0,0,0-1.32,3.59,11.87,11.87,0,0,1-1.79,3.73,6.83,6.83,0,0,1-2.54,1.89,8.11,8.11,0,0,1-3.37.7,7.92,7.92,0,0,1-3.79-.9,6,6,0,0,1-2.54-2.48,8.09,8.09,0,0,1-.86-3.9,7.24,7.24,0,0,1,2-5.45,8.37,8.37,0,0,1,5.77-2.07l.23,4a4.75,4.75,0,0,0-2.9,1.13,3.51,3.51,0,0,0-.82,2.49,3.83,3.83,0,0,0,.72,2.49,2.21,2.21,0,0,0,1.78.87,2.29,2.29,0,0,0,1.77-.79,10.8,10.8,0,0,0,1.57-3.64,14.94,14.94,0,0,1,2-4.36,6.64,6.64,0,0,1,2.65-2,9.7,9.7,0,0,1,3.94-.71,8.4,8.4,0,0,1,5.63,1.93q2.28,1.94,2.28,6.05Q154.21,601.51,145.39,602.33Z"/><path class="cls-5" d="M153.77,578.43H132.4v5.88h-4.35V568.58h4.35v5.86h21.37Z"/><path class="cls-5" d="M153.77,550.16v4.33L148,556.23v7.92l5.82,1.63V570l-25.72-7.7v-4.24Zm-10.17,7.35-9.55,2.73,9.55,2.69Z"/><path class="cls-5" d="M153.77,545.63H132.4v5.88h-4.35V535.79h4.35v5.86h21.37Z"/><path class="cls-5" d="M128.05,533.24v-4H142a36.06,36.06,0,0,0,4.23-.15,4.31,4.31,0,0,0,2.63-1.26,3.69,3.69,0,0,0,.93-2.63,3.65,3.65,0,0,0-.66-2.26,3.3,3.3,0,0,0-1.82-1.2,24.27,24.27,0,0,0-5-.32H128.05v-4h13.51A37.56,37.56,0,0,1,149,518a6.36,6.36,0,0,1,3.74,2.33,7.54,7.54,0,0,1,1.43,4.8,8.51,8.51,0,0,1-1.18,4.84,6.67,6.67,0,0,1-3.34,2.51q-2.15.79-7.92.79Z"/><path class="cls-5" d="M145.39,514.25l-.5-3.9c3.29-.44,4.94-1.87,4.94-4.31a3.92,3.92,0,0,0-1-2.85,3.37,3.37,0,0,0-2.5-1,2.79,2.79,0,0,0-1.49.37,2.71,2.71,0,0,0-1,1.1,26.83,26.83,0,0,0-1.32,3.59,11.94,11.94,0,0,1-1.79,3.74,6.81,6.81,0,0,1-2.54,1.88,8.11,8.11,0,0,1-3.37.7,7.92,7.92,0,0,1-3.79-.9,6.06,6.06,0,0,1-2.54-2.47,8.16,8.16,0,0,1-.86-3.91,7.24,7.24,0,0,1,2-5.45,8.37,8.37,0,0,1,5.77-2.07l.23,4a4.75,4.75,0,0,0-2.9,1.14,3.47,3.47,0,0,0-.82,2.48,3.81,3.81,0,0,0,.72,2.49,2.21,2.21,0,0,0,1.78.87,2.29,2.29,0,0,0,1.77-.79,10.8,10.8,0,0,0,1.57-3.64,14.73,14.73,0,0,1,2-4.35,6.57,6.57,0,0,1,2.65-2.05,9.87,9.87,0,0,1,3.94-.71,8.4,8.4,0,0,1,5.63,1.93q2.28,1.93,2.28,6Q154.21,513.44,145.39,514.25Z"/><path class="cls-5" d="M147.77,1903.28H122.05v-4H133.5l-11.45-8.08v-5.39l10,7.46,15.69-7.85v5.17l-12.09,5.46,4.32,3.23h7.77Z"/><path class="cls-5" d="M147.77,1883.7H122.05V1869h4.35v10.7h5.7v-9.94h4.34v9.94h7v-11.06h4.35Z"/><path class="cls-5" d="M147.77,1860.41H136.94l-14.89,7.24V1863l10.17-4.65-10.17-4.59v-4.59l14.93,7.27h10.79Z"/><path class="cls-5" d="M122.05,1847.51v-7.93a11.6,11.6,0,0,1,.63-4.56,5.2,5.2,0,0,1,2.23-2.23,7.62,7.62,0,0,1,7-.13,5.28,5.28,0,0,1,2.22,2,5.45,5.45,0,0,1,2.28-2.75,7.32,7.32,0,0,1,3.94-1,8.43,8.43,0,0,1,4.74,1.27,5.23,5.23,0,0,1,2.4,3,29.55,29.55,0,0,1,.31,5.59v6.73Zm4.28-4h6v-2.64a26.7,26.7,0,0,0-.09-2.93,2.48,2.48,0,0,0-.92-1.6,3.89,3.89,0,0,0-3.88-.1,1.94,1.94,0,0,0-.88,1.13,22.23,22.23,0,0,0-.18,3.83Zm10.23,0h6.86v-3.72a11,11,0,0,0-.27-3.13,2.37,2.37,0,0,0-1.07-1.16,4.55,4.55,0,0,0-4.09,0,2.52,2.52,0,0,0-1.12,1.34,11.65,11.65,0,0,0-.31,3.4Z"/><path class="cls-5" d="M135.07,1828.7a19.3,19.3,0,0,1-7.57-1.28,10.1,10.1,0,0,1-4.43-3.33,8.87,8.87,0,0,1,2-11.91q3.45-2.68,9.84-2.68t10.09,2.83a8.09,8.09,0,0,1,3.21,6.75,8.17,8.17,0,0,1-3.17,6.79Q141.4,1828.71,135.07,1828.7Zm-.18-4.12c3,0,5.18-.52,6.66-1.58a4.68,4.68,0,0,0,2.22-3.92,4.61,4.61,0,0,0-2.2-3.91q-2.2-1.55-6.76-1.55c-3,0-5.19.5-6.62,1.51a4.61,4.61,0,0,0-2.14,3.95,4.68,4.68,0,0,0,2.16,4Q130.37,1824.58,134.89,1824.58Z"/><path class="cls-5" d="M147.77,1788.85v4.33l-5.82,1.74v7.92l5.82,1.63v4.25L122.05,1801v-4.23Zm-10.17,7.35-9.55,2.73,9.55,2.69Z"/><path class="cls-5" d="M147.77,1787.08H122.05v-8.41a11.11,11.11,0,0,1,.69-4.61,5.24,5.24,0,0,1,2.41-2.27,8.67,8.67,0,0,1,4.09-.89,8,8,0,0,1,4.86,1.35,6,6,0,0,1,2.32,3.87,10.31,10.31,0,0,1,2.15-2.13,31.45,31.45,0,0,1,4.18-2.29l5-2.4v4.77l-5.59,2.89a37.34,37.34,0,0,0-3.8,2.12,3.28,3.28,0,0,0-1.06,1.18,5.19,5.19,0,0,0-.29,2v.83h10.74Zm-14.84-4v-3a13.72,13.72,0,0,0-.26-3.45,2.25,2.25,0,0,0-1-1.21,4.08,4.08,0,0,0-2.06-.46,3.8,3.8,0,0,0-2,.46,2.42,2.42,0,0,0-1,1.25,15,15,0,0,0-.19,3.25v3.13Z"/><path class="cls-5" d="M122.05,1767.5v-7.29a10.22,10.22,0,0,1,.66-4.17,6.9,6.9,0,0,1,2.22-2.59,11.71,11.71,0,0,1,4-1.86,24.13,24.13,0,0,1,6.19-.67,20.77,20.77,0,0,1,5.8.71,11.78,11.78,0,0,1,3.91,1.79,7.07,7.07,0,0,1,2.17,2.62,9.38,9.38,0,0,1,.72,4v7.5Zm4.35-4h17v-3a7.58,7.58,0,0,0-.38-2.8,3.48,3.48,0,0,0-1.17-1.41,6.86,6.86,0,0,0-2.46-.91A21.18,21.18,0,0,0,135,1755a22,22,0,0,0-4.5.37,6.21,6.21,0,0,0-2.6,1.16,3.62,3.62,0,0,0-1.24,1.9,14.91,14.91,0,0,0-.23,3.24Z"/><path class="cls-5" d="M151.77,808.28H126.05v-3.89l17.18-8.1H126.05v-3.72h25.72v4l-16.77,8h16.77Z"/><path class="cls-5" d="M151.77,771.36v4.33L146,777.42v7.92l5.82,1.64v4.25l-25.72-7.71v-4.23Zm-10.17,7.35-9.55,2.73,9.55,2.68Z"/><path class="cls-5" d="M151.77,767.06l-25.72,7.08v-4.33l19-5-19-4.85V755.7l25.72,7.1Z"/><path class="cls-5" d="M1459.39,685.94h-4.93V670.68a14.56,14.56,0,0,1,5.31,1.5,34.39,34.39,0,0,1,6.61,4.88,36.9,36.9,0,0,0,4.42,3.53,6.56,6.56,0,0,0,3.37,1,4.06,4.06,0,0,0,2.74-.81,2.68,2.68,0,0,0,.92-2.13c0-1.93-1.44-3-4.32-3.12l.53-4.32c2.82.26,4.89,1,6.21,2.35a7,7,0,0,1,2,5.2,6.39,6.39,0,0,1-2.32,5.38,8.39,8.39,0,0,1-5.32,1.82,11.68,11.68,0,0,1-3.29-.47,14,14,0,0,1-3.21-1.42,29.39,29.39,0,0,1-4.12-3.21c-1.57-1.4-2.61-2.28-3.11-2.65a7.87,7.87,0,0,0-1.47-.9Z"/><path class="cls-5" d="M1482.23,696.23a6.13,6.13,0,0,1-3.14,5.34q-3.13,2-11,2t-11-2a6.12,6.12,0,0,1,0-10.67q3.12-2,11.06-2,7.78,0,10.93,2A6.13,6.13,0,0,1,1482.23,696.23Zm-4.4,0c0-.86-.56-1.55-1.69-2.06s-3.81-.77-8-.77-6.9.26-8,.77-1.69,1.2-1.69,2.06.56,1.55,1.7,2.06,3.8.76,8,.76,6.91-.26,8-.76S1477.83,697.11,1477.83,696.24Z"/><path class="cls-5" d="M1482.23,713.86a6.13,6.13,0,0,1-3.14,5.34q-3.13,2-11,2t-11-2a6.11,6.11,0,0,1,0-10.66q3.12-2,11.06-2,7.78,0,10.93,2A6.1,6.1,0,0,1,1482.23,713.86Zm-4.4,0c0-.86-.56-1.55-1.69-2.06s-3.81-.76-8-.76-6.9.25-8,.76-1.69,1.2-1.69,2.06.56,1.56,1.7,2.06,3.8.76,8,.76,6.91-.25,8-.76S1477.83,714.74,1477.83,713.87Z"/><path class="cls-5" d="M1454.46,876.76H1460v-9.29h4.65l17.55,9.84V881h-17.54v2.82H1460V881h-5.57Zm10.23,0h9.45l-9.45-5.21Z"/><path class="cls-5" d="M1482.23,893.23a6.13,6.13,0,0,1-3.14,5.34q-3.13,2-11,2t-11-2a6.12,6.12,0,0,1,0-10.67q3.12-2,11.06-2,7.78,0,10.93,2A6.13,6.13,0,0,1,1482.23,893.23Zm-4.4,0c0-.86-.56-1.55-1.69-2.06s-3.81-.77-8-.77-6.9.26-8,.77-1.69,1.2-1.69,2.06.56,1.55,1.7,2.06,3.8.76,8,.76,6.91-.26,8-.76S1477.83,894.11,1477.83,893.24Z"/><path class="cls-5" d="M1482.23,910.86a6.13,6.13,0,0,1-3.14,5.34q-3.13,2-11,2t-11-2a6.11,6.11,0,0,1,0-10.66q3.12-2,11.06-2,7.78,0,10.93,2A6.1,6.1,0,0,1,1482.23,910.86Zm-4.4,0c0-.86-.56-1.55-1.69-2.06s-3.81-.76-8-.76-6.9.25-8,.76-1.69,1.2-1.69,2.06.56,1.56,1.7,2.06,3.8.76,8,.76,6.91-.25,8-.76S1477.83,911.74,1477.83,910.87Z"/><path class="cls-5" d="M1474.36,1083l-.57-4.21c2.06-.2,3.08-1,3.08-2.48a2.72,2.72,0,0,0-1.55-2.36c-1-.62-3.11-1-6.25-1.18a5.82,5.82,0,0,1,1.76,1.82,4.27,4.27,0,0,1,.59,2.21,5.84,5.84,0,0,1-2.48,4.65,12.1,12.1,0,0,1-13.46-.11,6.54,6.54,0,0,1-2.49-5.2,6.66,6.66,0,0,1,3.23-5.64q3.24-2.25,10.73-2.24t10.94,2.32a7,7,0,0,1,3.34,6,5.79,5.79,0,0,1-1.7,4.24A8.7,8.7,0,0,1,1474.36,1083Zm-11.58-9.85a7,7,0,0,0-4,1,2.76,2.76,0,0,0-1.38,2.23,2.39,2.39,0,0,0,1.15,2,6.79,6.79,0,0,0,3.77.8,7,7,0,0,0,4-.87,2.49,2.49,0,0,0,.06-4.28A6,6,0,0,0,1462.78,1073.12Z"/><path class="cls-5" d="M1481.23,1093.23a6.13,6.13,0,0,1-3.14,5.34q-3.13,2-11,2t-11-2a6.12,6.12,0,0,1,0-10.67q3.12-2,11.06-2,7.78,0,10.93,2A6.13,6.13,0,0,1,1481.23,1093.23Zm-4.4,0c0-.86-.56-1.55-1.69-2.06s-3.81-.77-8-.77-6.9.26-8,.77-1.69,1.2-1.69,2.06.56,1.55,1.7,2.06,3.8.76,8,.76,6.91-.26,8-.76S1476.83,1094.11,1476.83,1093.24Z"/><path class="cls-5" d="M1481.23,1110.86a6.13,6.13,0,0,1-3.14,5.34q-3.13,2-11,2t-11-2a6.11,6.11,0,0,1,0-10.66q3.12-2,11.06-2,7.78,0,10.93,2A6.1,6.1,0,0,1,1481.23,1110.86Zm-4.4,0c0-.86-.56-1.55-1.69-2.06s-3.81-.76-8-.76-6.9.25-8,.76-1.69,1.2-1.69,2.06.56,1.56,1.7,2.06,3.8.76,8,.76,6.91-.25,8-.76S1476.83,1111.74,1476.83,1110.87Z"/><path class="cls-5" d="M1467.41,1273a5.62,5.62,0,0,1,2.26-2.41,7,7,0,0,1,3.44-.8,7.14,7.14,0,0,1,5.19,1.85,6.55,6.55,0,0,1,1.93,5,6.22,6.22,0,0,1-2.06,5.06,7.52,7.52,0,0,1-5,1.74,6.94,6.94,0,0,1-3.49-.84,5.6,5.6,0,0,1-2.25-2.3,6.45,6.45,0,0,1-2.66,2.91,8.4,8.4,0,0,1-4.19,1,10.14,10.14,0,0,1-4.53-.95,6.89,6.89,0,0,1-4-6.41,7.16,7.16,0,0,1,2.27-5.43,8.58,8.58,0,0,1,6.13-2.14,8.84,8.84,0,0,1,4.28,1A6.55,6.55,0,0,1,1467.41,1273Zm-6.52.49a5.47,5.47,0,0,0-3.43.94,2.83,2.83,0,0,0-1.2,2.28,2.73,2.73,0,0,0,1.14,2.22,5.55,5.55,0,0,0,3.45.9,4.84,4.84,0,0,0,3.13-.92,2.77,2.77,0,0,0,0-4.5A4.77,4.77,0,0,0,1460.89,1273.46Zm11.85.41a3.63,3.63,0,0,0-2.48.77,2.45,2.45,0,0,0-.86,1.93,2.51,2.51,0,0,0,.86,2,3.63,3.63,0,0,0,2.48.77,3.53,3.53,0,0,0,2.42-.77,2.41,2.41,0,0,0,.86-1.91,2.51,2.51,0,0,0-.87-2A3.49,3.49,0,0,0,1472.74,1273.87Z"/><path class="cls-5" d="M1480.23,1294.23a6.13,6.13,0,0,1-3.14,5.34q-3.13,2-11,2t-11-2a6.12,6.12,0,0,1,0-10.67q3.12-2,11.06-2,7.78,0,10.93,2A6.13,6.13,0,0,1,1480.23,1294.23Zm-4.4,0c0-.86-.56-1.55-1.69-2.06s-3.81-.77-8-.77-6.9.26-8,.77-1.69,1.2-1.69,2.06.56,1.55,1.7,2.06,3.8.76,8,.76,6.91-.26,8-.76S1475.83,1295.11,1475.83,1294.24Z"/><path class="cls-5" d="M1480.23,1311.86a6.13,6.13,0,0,1-3.14,5.34q-3.13,2-11,2t-11-2a6.11,6.11,0,0,1,0-10.66q3.12-2,11.06-2,7.78,0,10.93,2A6.1,6.1,0,0,1,1480.23,1311.86Zm-4.4,0c0-.86-.56-1.55-1.69-2.06s-3.81-.76-8-.76-6.9.25-8,.76-1.69,1.2-1.69,2.06.56,1.56,1.7,2.06,3.8.76,8,.76,6.91-.25,8-.76S1475.83,1312.74,1475.83,1311.87Z"/><path class="cls-5" d="M1451.46,1481.37V1477h20a14.89,14.89,0,0,1-4-5.62h4.82a12,12,0,0,0,2.63,3.76,10.28,10.28,0,0,0,4.35,2.7v3.51Z"/><path class="cls-5" d="M1479.23,1495.23a6.13,6.13,0,0,1-3.14,5.34q-3.13,2-11,2t-11-2a6.12,6.12,0,0,1,0-10.67q3.12-2,11.06-2,7.78,0,10.93,2A6.13,6.13,0,0,1,1479.23,1495.23Zm-4.4,0c0-.86-.56-1.55-1.69-2.06s-3.81-.77-8-.77-6.9.26-8,.77-1.69,1.2-1.69,2.06.56,1.55,1.7,2.06,3.8.76,8,.76,6.91-.26,8-.76S1474.83,1496.11,1474.83,1495.24Z"/><path class="cls-5" d="M1479.23,1512.86a6.13,6.13,0,0,1-3.14,5.34q-3.13,2-11,2t-11-2a6.11,6.11,0,0,1,0-10.66q3.12-2,11.06-2,7.78,0,10.93,2A6.1,6.1,0,0,1,1479.23,1512.86Zm-4.4,0c0-.86-.56-1.55-1.69-2.06s-3.81-.76-8-.76-6.9.25-8,.76-1.69,1.2-1.69,2.06.56,1.56,1.7,2.06,3.8.76,8,.76,6.91-.25,8-.76S1474.83,1513.74,1474.83,1512.87Z"/><path class="cls-5" d="M1479.23,1530.49a6.14,6.14,0,0,1-3.14,5.35q-3.13,2-11,2t-11-2a6.12,6.12,0,0,1,0-10.67q3.12-2,11.06-2,7.78,0,10.93,2A6.11,6.11,0,0,1,1479.23,1530.49Zm-4.4,0c0-.86-.56-1.54-1.69-2s-3.81-.77-8-.77-6.9.26-8,.77-1.69,1.19-1.69,2,.56,1.56,1.7,2.07,3.8.76,8,.76,6.91-.26,8-.76S1474.83,1531.37,1474.83,1530.5Z"/><path class="cls-5" d="M1450.46,1683.37V1679h20a14.89,14.89,0,0,1-4-5.62h4.82a12,12,0,0,0,2.63,3.76,10.28,10.28,0,0,0,4.35,2.7v3.51Z"/><path class="cls-5" d="M1455.39,1704.57h-4.93v-15.26a14.77,14.77,0,0,1,5.31,1.51,33.54,33.54,0,0,1,6.61,4.88,36.9,36.9,0,0,0,4.42,3.53,6.66,6.66,0,0,0,3.37,1,4.06,4.06,0,0,0,2.74-.81,2.7,2.7,0,0,0,.92-2.14q0-2.88-4.32-3.11l.53-4.33q4.23.4,6.21,2.35a7,7,0,0,1,2,5.21,6.4,6.4,0,0,1-2.32,5.38,8.38,8.38,0,0,1-5.32,1.81,11.67,11.67,0,0,1-3.29-.46,14.07,14.07,0,0,1-3.21-1.43,29.39,29.39,0,0,1-4.12-3.21c-1.57-1.39-2.61-2.28-3.11-2.65a9.1,9.1,0,0,0-1.47-.9Z"/><path class="cls-5" d="M1478.23,1714.86a6.13,6.13,0,0,1-3.14,5.34q-3.13,2-11,2t-11-2a6.11,6.11,0,0,1,0-10.66q3.12-2,11.06-2,7.78,0,10.93,2A6.1,6.1,0,0,1,1478.23,1714.86Zm-4.4,0c0-.86-.56-1.55-1.69-2.06s-3.81-.76-8-.76-6.9.25-8,.76-1.69,1.2-1.69,2.06.56,1.56,1.7,2.06,3.8.76,8,.76,6.91-.25,8-.76S1473.83,1715.74,1473.83,1714.87Z"/><path class="cls-5" d="M1478.23,1732.49a6.14,6.14,0,0,1-3.14,5.35q-3.13,2-11,2t-11-2a6.12,6.12,0,0,1,0-10.67q3.12-2,11.06-2,7.78,0,10.93,2A6.11,6.11,0,0,1,1478.23,1732.49Zm-4.4,0c0-.86-.56-1.54-1.69-2s-3.81-.77-8-.77-6.9.26-8,.77-1.69,1.19-1.69,2,.56,1.56,1.7,2.07,3.8.76,8,.76,6.91-.26,8-.76S1473.83,1733.37,1473.83,1732.5Z"/><path class="cls-5" d="M1450.46,1880.37V1876h20a14.89,14.89,0,0,1-4-5.62h4.82a12,12,0,0,0,2.63,3.76,10.28,10.28,0,0,0,4.35,2.7v3.51Z"/><path class="cls-5" d="M1450.46,1895.4H1456v-9.29h4.65l17.55,9.83v3.67h-17.54v2.81H1456v-2.81h-5.57Zm10.23,0h9.45l-9.45-5.21Z"/><path class="cls-5" d="M1478.23,1911.86a6.13,6.13,0,0,1-3.14,5.34q-3.13,2-11,2t-11-2a6.11,6.11,0,0,1,0-10.66q3.12-2,11.06-2,7.78,0,10.93,2A6.1,6.1,0,0,1,1478.23,1911.86Zm-4.4,0c0-.86-.56-1.55-1.69-2.06s-3.81-.76-8-.76-6.9.25-8,.76-1.69,1.2-1.69,2.06.56,1.56,1.7,2.06,3.8.76,8,.76,6.91-.25,8-.76S1473.83,1912.74,1473.83,1911.87Z"/><path class="cls-5" d="M1478.23,1929.49a6.14,6.14,0,0,1-3.14,5.35q-3.13,2-11,2t-11-2a6.12,6.12,0,0,1,0-10.67q3.12-2,11.06-2,7.78,0,10.93,2A6.11,6.11,0,0,1,1478.23,1929.49Zm-4.4,0c0-.86-.56-1.54-1.69-2s-3.81-.77-8-.77-6.9.26-8,.77-1.69,1.19-1.69,2,.56,1.56,1.7,2.07,3.8.76,8,.76,6.91-.26,8-.76S1473.83,1930.37,1473.83,1929.5Z"/><path class="cls-5" d="M1448.46,2085.37V2081h20a14.89,14.89,0,0,1-4-5.62h4.82a12,12,0,0,0,2.63,3.76,10.28,10.28,0,0,0,4.35,2.7v3.51Z"/><path class="cls-5" d="M1469.36,2106.61l-.57-4.21c2.06-.2,3.08-1,3.08-2.48a2.71,2.71,0,0,0-1.55-2.36q-1.54-.95-6.25-1.18a5.79,5.79,0,0,1,1.76,1.81,4.33,4.33,0,0,1,.59,2.21,5.87,5.87,0,0,1-2.48,4.66,12.12,12.12,0,0,1-13.46-.12,6.53,6.53,0,0,1-2.49-5.19,6.69,6.69,0,0,1,3.23-5.65q3.24-2.23,10.73-2.24t10.94,2.33a7,7,0,0,1,3.34,6,5.81,5.81,0,0,1-1.7,4.25A8.76,8.76,0,0,1,1469.36,2106.61Zm-11.58-9.86a6.94,6.94,0,0,0-4,1,2.74,2.74,0,0,0-1.38,2.22,2.39,2.39,0,0,0,1.15,2,6.69,6.69,0,0,0,3.77.81,7,7,0,0,0,4-.88,2.49,2.49,0,0,0,.06-4.28A6,6,0,0,0,1457.78,2096.75Z"/><path class="cls-5" d="M1476.23,2116.86a6.13,6.13,0,0,1-3.14,5.34q-3.13,2-11,2t-11-2a6.11,6.11,0,0,1,0-10.66q3.12-2,11.06-2,7.78,0,10.93,2A6.1,6.1,0,0,1,1476.23,2116.86Zm-4.4,0c0-.86-.56-1.55-1.69-2.06s-3.81-.76-8-.76-6.9.25-8,.76-1.69,1.2-1.69,2.06.56,1.56,1.7,2.06,3.8.76,8,.76,6.91-.25,8-.76S1471.83,2117.74,1471.83,2116.87Z"/><path class="cls-5" d="M1476.23,2134.49a6.14,6.14,0,0,1-3.14,5.35q-3.13,2-11,2t-11-2a6.12,6.12,0,0,1,0-10.67q3.12-2,11.06-2,7.78,0,10.93,2A6.11,6.11,0,0,1,1476.23,2134.49Zm-4.4,0c0-.86-.56-1.54-1.69-2.05s-3.81-.77-8-.77-6.9.26-8,.77-1.69,1.19-1.69,2.05.56,1.56,1.7,2.07,3.8.76,8,.76,6.91-.26,8-.76S1471.83,2135.37,1471.83,2134.5Z"/><path class="cls-5" d="M1448.46,2278.37V2274h20a14.89,14.89,0,0,1-4-5.62h4.82a12,12,0,0,0,2.63,3.76,10.28,10.28,0,0,0,4.35,2.7v3.51Z"/><path class="cls-5" d="M1463.41,2288.6a5.65,5.65,0,0,1,2.26-2.4,6.87,6.87,0,0,1,3.44-.81,7.18,7.18,0,0,1,5.19,1.85,6.58,6.58,0,0,1,1.93,5,6.24,6.24,0,0,1-2.06,5.06,7.56,7.56,0,0,1-5,1.73,6.94,6.94,0,0,1-3.49-.84,5.57,5.57,0,0,1-2.25-2.29,6.56,6.56,0,0,1-2.66,2.91,8.4,8.4,0,0,1-4.19,1,10.27,10.27,0,0,1-4.53-1,7.05,7.05,0,0,1-3-2.64,7,7,0,0,1-1-3.77,7.16,7.16,0,0,1,2.27-5.43,8.58,8.58,0,0,1,6.13-2.15,8.84,8.84,0,0,1,4.28,1A6.61,6.61,0,0,1,1463.41,2288.6Zm-6.52.49a5.47,5.47,0,0,0-3.43.95,2.82,2.82,0,0,0-1.2,2.27,2.75,2.75,0,0,0,1.14,2.23,5.62,5.62,0,0,0,3.45.9,4.9,4.9,0,0,0,3.13-.92,2.8,2.8,0,0,0,1.15-2.27A2.77,2.77,0,0,0,1460,2290,4.83,4.83,0,0,0,1456.89,2289.09Zm11.85.42a3.63,3.63,0,0,0-2.48.76,2.47,2.47,0,0,0-.86,1.94,2.51,2.51,0,0,0,.86,2,3.58,3.58,0,0,0,2.48.77,3.53,3.53,0,0,0,2.42-.76,2.44,2.44,0,0,0,.86-1.92,2.54,2.54,0,0,0-.87-2A3.49,3.49,0,0,0,1468.74,2289.51Z"/><path class="cls-5" d="M1476.23,2309.86a6.13,6.13,0,0,1-3.14,5.34q-3.13,2-11,2t-11-2a6.11,6.11,0,0,1,0-10.66q3.12-2,11.06-2,7.78,0,10.93,2A6.1,6.1,0,0,1,1476.23,2309.86Zm-4.4,0c0-.86-.56-1.55-1.69-2.06s-3.81-.76-8-.76-6.9.25-8,.76-1.69,1.2-1.69,2.06.56,1.56,1.7,2.06,3.8.76,8,.76,6.91-.25,8-.76S1471.83,2310.74,1471.83,2309.87Z"/><path class="cls-5" d="M1476.23,2327.49a6.14,6.14,0,0,1-3.14,5.35q-3.13,2-11,2t-11-2a6.12,6.12,0,0,1,0-10.67q3.12-2,11.06-2,7.78,0,10.93,2A6.11,6.11,0,0,1,1476.23,2327.49Zm-4.4,0c0-.86-.56-1.54-1.69-2.05s-3.81-.77-8-.77-6.9.26-8,.77-1.69,1.19-1.69,2.05.56,1.56,1.7,2.07,3.8.76,8,.76,6.91-.26,8-.76S1471.83,2328.37,1471.83,2327.5Z"/><path class="cls-5" d="M1452.39,2491.94h-4.93v-15.26a14.56,14.56,0,0,1,5.31,1.5,34.39,34.39,0,0,1,6.61,4.88,36.9,36.9,0,0,0,4.42,3.53,6.56,6.56,0,0,0,3.37,1,4.06,4.06,0,0,0,2.74-.81,2.68,2.68,0,0,0,.92-2.13c0-1.93-1.44-3-4.32-3.12l.53-4.32c2.82.26,4.89,1,6.21,2.35a7,7,0,0,1,2,5.2,6.39,6.39,0,0,1-2.32,5.38,8.39,8.39,0,0,1-5.32,1.82,11.68,11.68,0,0,1-3.29-.47,14,14,0,0,1-3.21-1.42,29.39,29.39,0,0,1-4.12-3.21c-1.57-1.4-2.61-2.28-3.11-2.65a7.87,7.87,0,0,0-1.47-.9Z"/><path class="cls-5" d="M1475.23,2502.23a6.13,6.13,0,0,1-3.14,5.34q-3.13,2-11,2t-11-2a6.12,6.12,0,0,1,0-10.67q3.12-2,11.06-2,7.78,0,10.93,2A6.13,6.13,0,0,1,1475.23,2502.23Zm-4.4,0c0-.86-.56-1.55-1.69-2.06s-3.81-.77-8-.77-6.9.26-8,.77-1.69,1.2-1.69,2.06.56,1.55,1.7,2.06,3.8.76,8,.76,6.91-.26,8-.76S1470.83,2503.11,1470.83,2502.24Z"/><path class="cls-5" d="M1475.23,2519.86a6.13,6.13,0,0,1-3.14,5.34q-3.13,2-11,2t-11-2a6.11,6.11,0,0,1,0-10.66q3.12-2,11.06-2,7.78,0,10.93,2A6.1,6.1,0,0,1,1475.23,2519.86Zm-4.4,0c0-.86-.56-1.55-1.69-2.06s-3.81-.76-8-.76-6.9.25-8,.76-1.69,1.2-1.69,2.06.56,1.56,1.7,2.06,3.8.76,8,.76,6.91-.25,8-.76S1470.83,2520.74,1470.83,2519.87Z"/><path class="cls-5" d="M1475.23,2537.49a6.14,6.14,0,0,1-3.14,5.35q-3.13,2-11,2t-11-2a6.12,6.12,0,0,1,0-10.67q3.12-2,11.06-2,7.78,0,10.93,2A6.11,6.11,0,0,1,1475.23,2537.49Zm-4.4,0c0-.86-.56-1.54-1.69-2.05s-3.81-.77-8-.77-6.9.26-8,.77-1.69,1.19-1.69,2.05.56,1.56,1.7,2.07,3.8.76,8,.76,6.91-.26,8-.76S1470.83,2538.37,1470.83,2537.5Z"/><path class="cls-5" d="M1451.39,2697.94h-4.93v-15.26a14.56,14.56,0,0,1,5.31,1.5,34.39,34.39,0,0,1,6.61,4.88,36.9,36.9,0,0,0,4.42,3.53,6.56,6.56,0,0,0,3.37,1,4.06,4.06,0,0,0,2.74-.81,2.68,2.68,0,0,0,.92-2.13c0-1.93-1.44-3-4.32-3.12l.53-4.32c2.82.26,4.89,1,6.21,2.35a7,7,0,0,1,2,5.2,6.39,6.39,0,0,1-2.32,5.38,8.39,8.39,0,0,1-5.32,1.82,11.68,11.68,0,0,1-3.29-.47,14,14,0,0,1-3.21-1.42,29.39,29.39,0,0,1-4.12-3.21c-1.57-1.4-2.61-2.28-3.11-2.65a7.87,7.87,0,0,0-1.47-.9Z"/><path class="cls-5" d="M1451.39,2715.57h-4.93v-15.26a14.77,14.77,0,0,1,5.31,1.51,33.54,33.54,0,0,1,6.61,4.88,36.9,36.9,0,0,0,4.42,3.53,6.66,6.66,0,0,0,3.37,1,4.06,4.06,0,0,0,2.74-.81,2.7,2.7,0,0,0,.92-2.14q0-2.88-4.32-3.11l.53-4.33q4.23.41,6.21,2.35a7,7,0,0,1,2,5.21,6.4,6.4,0,0,1-2.32,5.38,8.38,8.38,0,0,1-5.32,1.81,11.67,11.67,0,0,1-3.29-.46,14.07,14.07,0,0,1-3.21-1.43,29.39,29.39,0,0,1-4.12-3.21c-1.57-1.39-2.61-2.28-3.11-2.65a9.1,9.1,0,0,0-1.47-.9Z"/><path class="cls-5" d="M1474.23,2725.86a6.13,6.13,0,0,1-3.14,5.34q-3.13,2-11,2t-11-2a6.11,6.11,0,0,1,0-10.66q3.12-2,11.06-2,7.78,0,10.93,2A6.1,6.1,0,0,1,1474.23,2725.86Zm-4.4,0c0-.86-.56-1.55-1.69-2.06s-3.81-.76-8-.76-6.9.25-8,.76-1.69,1.2-1.69,2.06.56,1.56,1.7,2.06,3.8.76,8,.76,6.91-.25,8-.76S1469.83,2726.74,1469.83,2725.87Z"/><path class="cls-5" d="M1461.41,2739.87a5.59,5.59,0,0,1,2.26-2.4,6.87,6.87,0,0,1,3.44-.81,7.18,7.18,0,0,1,5.19,1.85,6.55,6.55,0,0,1,1.93,5,6.21,6.21,0,0,1-2.06,5.06,7.52,7.52,0,0,1-5,1.74,6.94,6.94,0,0,1-3.49-.84,5.57,5.57,0,0,1-2.25-2.29,6.48,6.48,0,0,1-2.66,2.9,8.3,8.3,0,0,1-4.19,1,10.14,10.14,0,0,1-4.53-1,6.89,6.89,0,0,1-4-6.41,7.12,7.12,0,0,1,2.27-5.42,8.58,8.58,0,0,1,6.13-2.15,8.84,8.84,0,0,1,4.28,1A6.61,6.61,0,0,1,1461.41,2739.87Zm-6.52.49a5.41,5.41,0,0,0-3.43.95,2.8,2.8,0,0,0-1.2,2.27,2.73,2.73,0,0,0,1.14,2.22,5.55,5.55,0,0,0,3.45.9,4.84,4.84,0,0,0,3.13-.92,2.77,2.77,0,0,0,0-4.5A4.83,4.83,0,0,0,1454.89,2740.36Zm11.85.41a3.63,3.63,0,0,0-2.48.77,2.45,2.45,0,0,0-.86,1.93,2.51,2.51,0,0,0,.86,2,3.63,3.63,0,0,0,2.48.77,3.53,3.53,0,0,0,2.42-.76,2.44,2.44,0,0,0,.86-1.92,2.53,2.53,0,0,0-.87-2A3.49,3.49,0,0,0,1466.74,2740.77Z"/></g></svg>