<?xml version="1.0" encoding="utf-8"?>
<!-- Generator: Adobe Illustrator 23.0.1, SVG Export Plug-In . SVG Version: 6.00 Build 0)  -->
<svg version="1.1" xmlns="http://www.w3.org/2000/svg" xmlns:xlink="http://www.w3.org/1999/xlink" x="0px" y="0px" width="90px"
	 height="260.2px" viewBox="0 0 90 260.2" style="enable-background:new 0 0 90 260.2;" xml:space="preserve">
<style type="text/css">
	.st0{fill-rule:evenodd;clip-rule:evenodd;fill:#6A6DAA;}
	.st1{fill:#FFFFFF;stroke:#231F20;stroke-miterlimit:10;}
	.st2{fill:#FFFFFF;}
	.st3{fill:none;stroke:#231F20;stroke-miterlimit:10;}
	.st4{fill:none;stroke:#231F20;stroke-width:0.25;stroke-miterlimit:10;}
	.st5{fill:#231F20;}
	.st6{fill:#808285;}
	.st7{enable-background:new    ;}
	.st8{fill:#C0E7F1;}
	.st9{fill:#EBF7FA;}
	.st10{fill:#AED1EE;}
	.st11{fill:#6EA8DC;}
	.st12{fill:#4689AE;}
	.st13{fill:#F45245;}
	.st14{fill:#68E55E;}
	.st15{fill:#4A4A4A;}
	.st16{fill:#60B845;enable-background:new    ;}
	.st17{fill:#FBCD67;enable-background:new    ;}
	.st18{fill:#FAB828;enable-background:new    ;}
	.st19{fill:#F7831B;enable-background:new    ;}
	.st20{fill:#DF3B3E;enable-background:new    ;}
	.st21{fill:#089CDB;enable-background:new    ;}
	.st22{fill:#943A95;enable-background:new    ;}
	.st23{fill:url(#Silent_Button_2_);}
	.st24{fill:url(#Volume_Up_Button_2_);}
	.st25{fill:url(#Volume_Down_Button_2_);}
	.st26{fill:url(#Power_Button_2_);}
	.st27{fill:#000100;}
	.st28{fill:none;}
	.st29{fill:none;stroke:#FFFFFF;stroke-width:4;stroke-miterlimit:10;}
	.st30{opacity:0.801;fill:url(#Shadow_1_);enable-background:new    ;}
	.st31{opacity:0.801;fill:url(#Shadow-2_1_);enable-background:new    ;}
	.st32{opacity:0.403;fill:#ACACAC;enable-background:new    ;}
	.st33{fill:#202022;}
	.st34{fill:#133456;}
	.st35{fill:#2771BD;}
	.st36{fill:url(#Rectangle_1_);}
	.st37{fill:url(#_2_1_);}
	.st38{fill:url(#_1_1_);}
	.st39{fill:url(#_2-2_2_);}
	.st40{fill:url(#_1-2_2_);}
	.st41{fill:#AAAAAA;}
	.st42{clip-path:url(#SVGID_2_);}
	.st43{fill:url(#);}
	.st44{fill:#1F1F1F;stroke:#FFFFFF;stroke-miterlimit:10;}
	.st45{fill:#1A1A1A;stroke:#FFFFFF;stroke-miterlimit:10;}
	.st46{fill:#58595B;}
	.st47{fill:none;stroke:#939598;stroke-width:3;stroke-miterlimit:10;}
	.st48{fill:#939598;}
	.st49{fill:#F6F6F6;}
	.st50{fill:none;stroke:#808285;stroke-width:2;stroke-linecap:round;stroke-miterlimit:10;stroke-dasharray:3.008,5.0134;}
	.st51{fill:none;stroke:#231F20;stroke-width:2;stroke-linecap:round;stroke-miterlimit:10;}
	.st52{fill:none;stroke:#939598;stroke-width:2;stroke-miterlimit:10;}
	.st53{fill:none;stroke:#808285;stroke-width:2;stroke-linecap:round;stroke-miterlimit:10;stroke-dasharray:2.9721,4.9535;}
	.st54{fill:none;stroke:#808285;stroke-width:2;stroke-linecap:round;stroke-miterlimit:10;stroke-dasharray:3.0448,5.0747;}
	.st55{clip-path:url(#SVGID_8_);}
	.st56{clip-path:url(#SVGID_10_);}
	.st57{clip-path:url(#SVGID_12_);}
	.st58{clip-path:url(#SVGID_14_);}
	.st59{clip-path:url(#SVGID_16_);}
	.st60{clip-path:url(#SVGID_18_);}
	.st61{fill-rule:evenodd;clip-rule:evenodd;fill:#58595B;}
	.st62{fill:none;stroke:#808285;stroke-width:2;stroke-linecap:round;stroke-miterlimit:10;stroke-dasharray:2.9705,4.9508;}
	.st63{fill:none;stroke:#808285;stroke-width:2;stroke-linecap:round;stroke-miterlimit:10;stroke-dasharray:3.0137,5.0228;}
	.st64{fill:#2AF73C;stroke:#FFFFFF;}
	.st65{fill:none;stroke:#58595B;stroke-width:0.1;}
	.st66{fill:#6D6E71;}
</style>
<g id="Layer_1">
	<g>
		<g>
			<line class="st47" x1="44.7" y1="44" x2="44.7" y2="248"/>
			<g>
				<polygon class="st48" points="32.4,238.1 34.6,236 44.7,246.8 54.7,236 56.9,238.1 44.7,251.2 				"/>
			</g>
		</g>
	</g>
	<g>
		<g class="st7">
			<circle class="st49" cx="45.3" cy="44.6" r="42.9"/>
			
				<ellipse transform="matrix(0.1602 -0.9871 0.9871 0.1602 -5.9883 82.1881)" class="st62" cx="45.3" cy="44.6" rx="42.9" ry="42.9"/>
		</g>
		<g>
			<path id="Path_301_2_" class="st5" d="M48.5,41.5h-6.3v6.3h6.3V41.5z M49.6,40.4h-8.4v8.4h8.4V40.4z M53.7,53H37V36.2h16.7V53z"
				/>
			<g id="Group_318_2_" transform="translate(2.909 2.388)">
				<path id="Path_302_2_" class="st5" d="M25.4,21.1c0,1-0.8,1.8-1.8,1.8l0,0c-1,0-1.7-0.8-1.7-1.8c0-1,0.8-1.7,1.7-1.8
					C24.6,19.3,25.4,20.1,25.4,21.1L25.4,21.1"/>
			</g>
			<g id="Group_319_2_" transform="translate(5.179 2.388)">
				<path id="Path_303_2_" class="st5" d="M32.7,21.1c0,1-0.8,1.8-1.8,1.8l0,0c-1,0-1.7-0.8-1.7-1.8c0-1,0.8-1.7,1.7-1.8
					C31.9,19.3,32.7,20.1,32.7,21.1L32.7,21.1"/>
			</g>
			<g id="Group_320_2_" transform="translate(7.356 2.388)">
				<path id="Path_304_2_" class="st5" d="M39.8,21.1c0,1-0.8,1.8-1.8,1.8l0,0c-1,0-1.7-0.8-1.7-1.8c0-1,0.8-1.7,1.7-1.8
					C39,19.3,39.8,20.1,39.8,21.1L39.8,21.1"/>
			</g>
			<g id="Group_321_2_" transform="translate(9.51 2.388)">
				<path id="Path_305_2_" class="st5" d="M46.7,21.1c0,1-0.8,1.8-1.8,1.8l0,0c-1,0-1.7-0.8-1.7-1.8c0-1,0.8-1.7,1.7-1.8
					C45.9,19.3,46.7,20.1,46.7,21.1L46.7,21.1"/>
			</g>
			<g id="Group_322_2_" transform="translate(11.78 2.388)">
				<path id="Path_306_2_" class="st5" d="M54,21.1c0,1-0.8,1.8-1.8,1.8l0,0c-1,0-1.7-0.8-1.7-1.8c0-1,0.8-1.7,1.7-1.8
					C53.2,19.3,54,20.1,54,21.1L54,21.1"/>
			</g>
			<g id="Group_323_2_" transform="translate(2.909 12.394)">
				<path id="Path_307_2_" class="st5" d="M25.4,53.4c0,1-0.8,1.8-1.8,1.8l0,0c-1,0-1.7-0.8-1.7-1.8c0-1,0.8-1.7,1.7-1.8
					C24.6,51.6,25.4,52.4,25.4,53.4L25.4,53.4"/>
			</g>
			<g id="Group_324_2_" transform="translate(5.179 12.394)">
				<path id="Path_308_2_" class="st5" d="M32.7,53.4c0,1-0.8,1.8-1.8,1.8l0,0c-1,0-1.7-0.8-1.7-1.8c0-1,0.8-1.7,1.7-1.8
					C31.9,51.6,32.7,52.4,32.7,53.4L32.7,53.4"/>
			</g>
			<g id="Group_325_2_" transform="translate(7.356 12.394)">
				<path id="Path_309_2_" class="st5" d="M39.8,53.4c0,1-0.8,1.8-1.8,1.8l0,0c-1,0-1.7-0.8-1.7-1.8c0-1,0.8-1.7,1.7-1.8
					C39,51.6,39.8,52.4,39.8,53.4L39.8,53.4"/>
			</g>
			<g id="Group_326_2_" transform="translate(9.51 12.394)">
				<path id="Path_310_2_" class="st5" d="M46.7,53.4c0,1-0.8,1.8-1.8,1.8l0,0c-1,0-1.7-0.8-1.7-1.8c0-1,0.8-1.7,1.7-1.8
					C45.9,51.6,46.7,52.4,46.7,53.4L46.7,53.4"/>
			</g>
			<g id="Group_327_2_" transform="translate(11.78 12.394)">
				<path id="Path_311_2_" class="st5" d="M54,53.4c0,1-0.8,1.8-1.8,1.8l0,0c-1,0-1.7-0.8-1.7-1.8c0-1,0.8-1.7,1.7-1.8
					C53.2,51.6,54,52.4,54,53.4L54,53.4"/>
			</g>
			<g id="Group_328_2_" transform="translate(2.909 10.449)">
				<path id="Path_312_2_" class="st5" d="M25.4,47.1c0,1-0.8,1.8-1.8,1.8l0,0c-1,0-1.7-0.8-1.7-1.8c0-1,0.8-1.7,1.7-1.8
					C24.6,45.3,25.4,46.1,25.4,47.1L25.4,47.1"/>
			</g>
			<g id="Group_329_2_" transform="translate(11.78 10.449)">
				<path id="Path_313_2_" class="st5" d="M54,47.1c0,1-0.8,1.8-1.8,1.8l0,0c-1,0-1.7-0.8-1.7-1.8c0-1,0.8-1.7,1.7-1.8
					C53.2,45.3,54,46.1,54,47.1L54,47.1"/>
			</g>
			<g id="Group_330_2_" transform="translate(2.909 7.391)">
				<path id="Path_314_2_" class="st5" d="M25.4,37.2c0,1-0.8,1.8-1.8,1.8l0,0c-1,0-1.7-0.8-1.7-1.8c0-1,0.8-1.7,1.7-1.8
					C24.6,35.5,25.4,36.3,25.4,37.2L25.4,37.2"/>
			</g>
			<g id="Group_331_2_" transform="translate(11.78 7.391)">
				<path id="Path_315_2_" class="st5" d="M54,37.2c0,1-0.8,1.8-1.8,1.8l0,0c-1,0-1.7-0.8-1.7-1.8c0-1,0.8-1.7,1.7-1.8
					C53.2,35.5,54,36.3,54,37.2L54,37.2"/>
			</g>
			<g id="Group_332_2_" transform="translate(2.909 4.287)">
				<path id="Path_316_2_" class="st5" d="M25.4,27.2c0,1-0.8,1.8-1.8,1.8l0,0c-1,0-1.7-0.8-1.7-1.8c0-1,0.8-1.7,1.7-1.8
					C24.6,25.4,25.4,26.2,25.4,27.2L25.4,27.2"/>
			</g>
			<g id="Group_333_2_" transform="translate(11.78 4.287)">
				<path id="Path_317_2_" class="st5" d="M54,27.2c0,1-0.8,1.8-1.8,1.8l0,0c-1,0-1.7-0.8-1.7-1.8c0-1,0.8-1.7,1.7-1.8
					C53.2,25.4,54,26.2,54,27.2L54,27.2"/>
			</g>
			<path id="Path_318_2_" class="st5" d="M45.9,35.6h-1.2v-9.9h1.2V35.6z"/>
			<g id="Group_334_2_" transform="translate(8.827 3.193)">
				<path id="Path_319_2_" class="st5" d="M42.2,32.4H41v-7.5h8.5l3-3l0.8,0.8l-3.4,3.4h-7.8V32.4z"/>
			</g>
			<path id="Path_320_2_" class="st5" d="M55.1,28.7h-1.2v-2.9h1.2V28.7z"/>
			<g id="Group_335_2_" transform="translate(3.784 3.193)">
				<path id="Path_321_2_" class="st5" d="M37,32.4h-1.2v-6.3h-7.8l-3.4-3.4l0.8-0.8l3,3H37L37,32.4z"/>
			</g>
			<path id="Path_322_2_" class="st5" d="M36.7,28.7h-1.2v-2.9h1.2V28.7z"/>
			<g id="Group_336_2_" transform="translate(3.893 4.554)">
				<path id="Path_323_2_" class="st5" d="M32.5,35.6h-4.9v-8.1H25v-1.2h3.7v8.1h3.7L32.5,35.6z"/>
			</g>
			<path id="Path_324_2_" class="st5" d="M36.4,45.1h-7.4V44h7.4V45.1z"/>
			<g id="Group_337_2_" transform="translate(9.869 4.554)">
				<path id="Path_325_2_" class="st5" d="M49.2,35.6h-4.9v-1.2h3.7v-8.1h3.7v1.2h-2.5L49.2,35.6z"/>
			</g>
			<path id="Path_326_2_" class="st5" d="M45.9,63.3h-1.2v-9.9h1.2V63.3z"/>
			<g id="Group_338_2_" transform="translate(8.827 9.881)">
				<path id="Path_327_2_" class="st5" d="M52.5,54l-3-3H41v-7.5h1.2v6.4H50l3.4,3.4L52.5,54z"/>
			</g>
			<path id="Path_328_2_" class="st5" d="M55.1,63.3h-1.2v-2.9h1.2V63.3z"/>
			<g id="Group_339_2_" transform="translate(3.784 9.881)">
				<path id="Path_329_2_" class="st5" d="M25.5,54l-0.8-0.8l3.4-3.4h7.8v-6.3H37V51h-8.5L25.5,54z"/>
			</g>
			<path id="Path_330_2_" class="st5" d="M36.7,63.3h-1.2v-2.9h1.2V63.3z"/>
			<g id="Group_340_2_" transform="translate(3.893 8.816)">
				<path id="Path_331_2_" class="st5" d="M28.8,49.4H25v-1.2h2.5v-8.1h4.9v1.2h-3.7V49.4z"/>
			</g>
			<g id="Group_341_2_" transform="translate(9.869 8.816)">
				<path id="Path_332_2_" class="st5" d="M51.8,49.4h-3.7v-8.1h-3.7v-1.2h4.9v8.1h2.5L51.8,49.4z"/>
			</g>
			<path id="Path_333_2_" class="st5" d="M61.6,45.1h-7.4V44h7.4V45.1z"/>
		</g>
	</g>
</g>
<g id="Layer_2">
</g>
<g id="Layer_3">
</g>
<g id="Layer_4">
</g>
</svg>
