<?xml version="1.0" encoding="utf-8"?>
<!-- Generator: Adobe Illustrator 23.0.1, SVG Export Plug-In . SVG Version: 6.00 Build 0)  -->
<svg version="1.1" xmlns="http://www.w3.org/2000/svg" xmlns:xlink="http://www.w3.org/1999/xlink" x="0px" y="0px" width="90px"
	 height="260.2px" viewBox="0 0 90 260.2" style="enable-background:new 0 0 90 260.2;" xml:space="preserve">
<style type="text/css">
	.st0{fill-rule:evenodd;clip-rule:evenodd;fill:#6A6DAA;}
	.st1{fill:#FFFFFF;stroke:#231F20;stroke-miterlimit:10;}
	.st2{fill:#FFFFFF;}
	.st3{fill:none;stroke:#231F20;stroke-miterlimit:10;}
	.st4{fill:none;stroke:#231F20;stroke-width:0.25;stroke-miterlimit:10;}
	.st5{fill:#231F20;}
	.st6{fill:#808285;}
	.st7{enable-background:new    ;}
	.st8{fill:#C0E7F1;}
	.st9{fill:#EBF7FA;}
	.st10{fill:#AED1EE;}
	.st11{fill:#6EA8DC;}
	.st12{fill:#4689AE;}
	.st13{fill:#F45245;}
	.st14{fill:#68E55E;}
	.st15{fill:#4A4A4A;}
	.st16{fill:#60B845;enable-background:new    ;}
	.st17{fill:#FBCD67;enable-background:new    ;}
	.st18{fill:#FAB828;enable-background:new    ;}
	.st19{fill:#F7831B;enable-background:new    ;}
	.st20{fill:#DF3B3E;enable-background:new    ;}
	.st21{fill:#089CDB;enable-background:new    ;}
	.st22{fill:#943A95;enable-background:new    ;}
	.st23{fill:url(#Silent_Button_2_);}
	.st24{fill:url(#Volume_Up_Button_2_);}
	.st25{fill:url(#Volume_Down_Button_2_);}
	.st26{fill:url(#Power_Button_2_);}
	.st27{fill:#000100;}
	.st28{fill:none;}
	.st29{fill:none;stroke:#FFFFFF;stroke-width:4;stroke-miterlimit:10;}
	.st30{opacity:0.801;fill:url(#Shadow_1_);enable-background:new    ;}
	.st31{opacity:0.801;fill:url(#Shadow-2_1_);enable-background:new    ;}
	.st32{opacity:0.403;fill:#ACACAC;enable-background:new    ;}
	.st33{fill:#202022;}
	.st34{fill:#133456;}
	.st35{fill:#2771BD;}
	.st36{fill:url(#Rectangle_1_);}
	.st37{fill:url(#_2_1_);}
	.st38{fill:url(#_1_1_);}
	.st39{fill:url(#_2-2_2_);}
	.st40{fill:url(#_1-2_2_);}
	.st41{fill:#AAAAAA;}
	.st42{clip-path:url(#SVGID_2_);}
	.st43{fill:url(#);}
	.st44{fill:#1F1F1F;stroke:#FFFFFF;stroke-miterlimit:10;}
	.st45{fill:#1A1A1A;stroke:#FFFFFF;stroke-miterlimit:10;}
	.st46{fill:#58595B;}
	.st47{fill:none;stroke:#939598;stroke-width:3;stroke-miterlimit:10;}
	.st48{fill:#939598;}
	.st49{fill:#F6F6F6;}
	.st50{fill:none;stroke:#808285;stroke-width:2;stroke-linecap:round;stroke-miterlimit:10;stroke-dasharray:3.008,5.0134;}
	.st51{fill:none;stroke:#231F20;stroke-width:2;stroke-linecap:round;stroke-miterlimit:10;}
	.st52{fill:none;stroke:#939598;stroke-width:2;stroke-miterlimit:10;}
	.st53{fill:none;stroke:#808285;stroke-width:2;stroke-linecap:round;stroke-miterlimit:10;stroke-dasharray:2.9721,4.9535;}
	.st54{fill:none;stroke:#808285;stroke-width:2;stroke-linecap:round;stroke-miterlimit:10;stroke-dasharray:3.0448,5.0747;}
	.st55{clip-path:url(#SVGID_8_);}
	.st56{clip-path:url(#SVGID_10_);}
	.st57{clip-path:url(#SVGID_12_);}
	.st58{clip-path:url(#SVGID_14_);}
	.st59{clip-path:url(#SVGID_16_);}
	.st60{clip-path:url(#SVGID_18_);}
	.st61{fill-rule:evenodd;clip-rule:evenodd;fill:#58595B;}
	.st62{fill:none;stroke:#808285;stroke-width:2;stroke-linecap:round;stroke-miterlimit:10;stroke-dasharray:2.9705,4.9508;}
	.st63{fill:none;stroke:#808285;stroke-width:2;stroke-linecap:round;stroke-miterlimit:10;stroke-dasharray:3.0137,5.0228;}
	.st64{fill:#2AF73C;stroke:#FFFFFF;}
	.st65{fill:none;stroke:#58595B;stroke-width:0.1;}
	.st66{fill:#6D6E71;}
</style>
<g id="Layer_1">
	<g>
		<g>
			<line class="st47" x1="44.7" y1="44" x2="44.7" y2="248"/>
			<g>
				<polygon class="st48" points="32.4,238.1 34.6,236 44.7,246.8 54.7,236 56.9,238.1 44.7,251.2 				"/>
			</g>
		</g>
	</g>
	<g>
		<g class="st7">
			<circle class="st49" cx="44.7" cy="44.6" r="42.9"/>
			
				<ellipse transform="matrix(0.9239 -0.3827 0.3827 0.9239 -13.6737 20.4843)" class="st62" cx="44.7" cy="44.6" rx="42.9" ry="42.9"/>
		</g>
		<g>
			<g id="Group_314_2_" transform="translate(9.533 4.397)">
				<path id="Path_296_2_" class="st5" d="M42.1,70.7h8.9V27.7l-8.9-5.5V70.7z M47.4,33h2.1v1.5h-2.1V33z M43.9,33H46v1.5h-2.1
					L43.9,33z M47.4,39h2.1v1.5h-2.1V39z M43.9,42H46v1.5h-2.1L43.9,42z M47.4,45h2.1v1.5h-2.1V45z M43.9,50.9H46v1.5h-2.1V50.9z
					 M47.4,53.9h2.1v1.5h-2.1L47.4,53.9z M43.9,57H46v1.5h-2.1V57z M47.4,59.9h2.1v1.5h-2.1L47.4,59.9z M47.4,62.9h2.1v1.5h-2.1
					L47.4,62.9z M43.9,65.9H46v1.5h-2.1V65.9z"/>
			</g>
			<g id="Group_315_2_" transform="translate(3.952 5.528)">
				<path id="Path_297_2_" class="st5" d="M23.6,31.1v38.5H32V26L23.6,31.1z M28.4,36.1h2v1.4h-2V36.1z M25.1,36.1h2v1.4h-2
					L25.1,36.1z M25.1,41.6h2V43h-2L25.1,41.6z M28.4,44.5h2v1.4h-2V44.5z M25.1,47.3h2v1.4h-2V47.3z M28.4,52.8h2v1.4h-2V52.8z
					 M25.1,55.7h2v1.4h-2V55.7z M28.3,58.5h2v1.4h-2L28.3,58.5z M25.1,61.2h2v1.4h-2V61.2z M25.1,64h2v1.4h-2V64z M28.3,66.9h2v1.4
					h-2L28.3,66.9z"/>
			</g>
			<g id="Group_316_2_" transform="translate(6.4 0.958)">
				<path id="Path_298_2_" class="st5" d="M31.7,74.2h11.5V18l-11.5-7.2V74.2z M33.8,25h2.8v1.9h-2.8V25z M38.4,25.1h2.8v1.9h-2.8
					V25.1z M38.4,32.8h2.8v1.9h-2.8V32.8z M33.8,36.7h2.8v1.9h-2.8V36.7z M38.4,40.4h2.8v1.9h-2.8V40.4z M33.8,48.2h2.8v1.9h-2.8
					V48.2z M38.4,52.1h2.8V54h-2.8V52.1z M33.8,56h2.8v1.9h-2.8V56z M38.4,59.9h2.8v1.9h-2.8V59.9z M38.4,63.7h2.8v1.9h-2.8V63.7z
					 M33.8,67.6h2.8v1.9h-2.8V67.6z"/>
			</g>
		</g>
	</g>
</g>
<g id="Layer_2">
</g>
<g id="Layer_3">
</g>
<g id="Layer_4">
</g>
</svg>
