<?xml version="1.0" encoding="utf-8"?>
<!-- Generator: Adobe Illustrator 23.0.1, SVG Export Plug-In . SVG Version: 6.00 Build 0)  -->
<svg version="1.1" xmlns="http://www.w3.org/2000/svg" xmlns:xlink="http://www.w3.org/1999/xlink" x="0px" y="0px" width="90px"
	 height="260.2px" viewBox="0 0 90 260.2" style="enable-background:new 0 0 90 260.2;" xml:space="preserve">
<style type="text/css">
	.st0{fill-rule:evenodd;clip-rule:evenodd;fill:#6A6DAA;}
	.st1{fill:#FFFFFF;stroke:#231F20;stroke-miterlimit:10;}
	.st2{fill:#FFFFFF;}
	.st3{fill:none;stroke:#231F20;stroke-miterlimit:10;}
	.st4{fill:none;stroke:#231F20;stroke-width:0.25;stroke-miterlimit:10;}
	.st5{fill:#231F20;}
	.st6{fill:#808285;}
	.st7{enable-background:new    ;}
	.st8{fill:#C0E7F1;}
	.st9{fill:#EBF7FA;}
	.st10{fill:#AED1EE;}
	.st11{fill:#6EA8DC;}
	.st12{fill:#4689AE;}
	.st13{fill:#F45245;}
	.st14{fill:#68E55E;}
	.st15{fill:#4A4A4A;}
	.st16{fill:#60B845;enable-background:new    ;}
	.st17{fill:#FBCD67;enable-background:new    ;}
	.st18{fill:#FAB828;enable-background:new    ;}
	.st19{fill:#F7831B;enable-background:new    ;}
	.st20{fill:#DF3B3E;enable-background:new    ;}
	.st21{fill:#089CDB;enable-background:new    ;}
	.st22{fill:#943A95;enable-background:new    ;}
	.st23{fill:url(#Silent_Button_2_);}
	.st24{fill:url(#Volume_Up_Button_2_);}
	.st25{fill:url(#Volume_Down_Button_2_);}
	.st26{fill:url(#Power_Button_2_);}
	.st27{fill:#000100;}
	.st28{fill:none;}
	.st29{fill:none;stroke:#FFFFFF;stroke-width:4;stroke-miterlimit:10;}
	.st30{opacity:0.801;fill:url(#Shadow_1_);enable-background:new    ;}
	.st31{opacity:0.801;fill:url(#Shadow-2_1_);enable-background:new    ;}
	.st32{opacity:0.403;fill:#ACACAC;enable-background:new    ;}
	.st33{fill:#202022;}
	.st34{fill:#133456;}
	.st35{fill:#2771BD;}
	.st36{fill:url(#Rectangle_1_);}
	.st37{fill:url(#_2_1_);}
	.st38{fill:url(#_1_1_);}
	.st39{fill:url(#_2-2_2_);}
	.st40{fill:url(#_1-2_2_);}
	.st41{fill:#AAAAAA;}
	.st42{clip-path:url(#SVGID_2_);}
	.st43{fill:url(#);}
	.st44{fill:#1F1F1F;stroke:#FFFFFF;stroke-miterlimit:10;}
	.st45{fill:#1A1A1A;stroke:#FFFFFF;stroke-miterlimit:10;}
	.st46{fill:#58595B;}
	.st47{fill:none;stroke:#939598;stroke-width:3;stroke-miterlimit:10;}
	.st48{fill:#939598;}
	.st49{fill:#F6F6F6;}
	.st50{fill:none;stroke:#808285;stroke-width:2;stroke-linecap:round;stroke-miterlimit:10;stroke-dasharray:3.008,5.0134;}
	.st51{fill:none;stroke:#231F20;stroke-width:2;stroke-linecap:round;stroke-miterlimit:10;}
	.st52{fill:none;stroke:#939598;stroke-width:2;stroke-miterlimit:10;}
	.st53{fill:none;stroke:#808285;stroke-width:2;stroke-linecap:round;stroke-miterlimit:10;stroke-dasharray:2.9721,4.9535;}
	.st54{fill:none;stroke:#808285;stroke-width:2;stroke-linecap:round;stroke-miterlimit:10;stroke-dasharray:3.0448,5.0747;}
	.st55{clip-path:url(#SVGID_8_);}
	.st56{clip-path:url(#SVGID_10_);}
	.st57{clip-path:url(#SVGID_12_);}
	.st58{clip-path:url(#SVGID_14_);}
	.st59{clip-path:url(#SVGID_16_);}
	.st60{clip-path:url(#SVGID_18_);}
	.st61{fill-rule:evenodd;clip-rule:evenodd;fill:#58595B;}
	.st62{fill:none;stroke:#808285;stroke-width:2;stroke-linecap:round;stroke-miterlimit:10;stroke-dasharray:2.9705,4.9508;}
	.st63{fill:none;stroke:#808285;stroke-width:2;stroke-linecap:round;stroke-miterlimit:10;stroke-dasharray:3.0137,5.0228;}
	.st64{fill:#2AF73C;stroke:#FFFFFF;}
	.st65{fill:none;stroke:#58595B;stroke-width:0.1;}
	.st66{fill:#6D6E71;}
</style>
<g id="Layer_1">
	<g>
		<g>
			<line class="st47" x1="44.7" y1="44" x2="44.7" y2="248"/>
			<g>
				<polygon class="st48" points="32.4,238.1 34.6,236 44.7,246.8 54.7,236 56.9,238.1 44.7,251.2 				"/>
			</g>
		</g>
	</g>
	<g>
		<g class="st7">
			<circle class="st49" cx="44.7" cy="44.6" r="42.9"/>
			
				<ellipse transform="matrix(0.1602 -0.9871 0.9871 0.1602 -6.536 81.5444)" class="st62" cx="44.7" cy="44.6" rx="42.9" ry="42.9"/>
		</g>
		<g>
			<path class="st5" d="M35.3,43.8L35.3,43.8l0.3-0.1c0.5-0.2,0.9-0.7,0.9-1.2c0-0.5-0.4-1-0.9-1.2c-1.4-0.6-2.3-2-2.3-3.5
				c0.2-1.7,1.4-3.2,3.1-3.7c0.3-0.8,0.7-1.6,1.2-2.3c0.1-0.2,0.2-0.3,0.3-0.4c-0.1,0-0.2,0-0.3,0c-3.6,0-6.5,2.9-6.5,6.5
				c0,1.6,0.6,3.1,1.7,4.3c-3.4,1.8-5.6,5.3-5.6,9.2v2c0,0.7,0.6,1.3,1.3,1.3h2.3c0-0.8,0.1-1.5,0.3-2.3h-1.6v-1
				C29.4,47.7,31.8,44.6,35.3,43.8z"/>
			<path class="st5" d="M57.8,42.1L57.8,42.1c1.1-1.2,1.7-2.7,1.7-4.3c0-3.6-2.9-6.5-6.5-6.5c-0.1,0-0.2,0-0.3,0
				c0.1,0.1,0.2,0.3,0.3,0.4c0.5,0.7,0.9,1.5,1.2,2.3c1.7,0.5,3,1.9,3.3,3.7c0,1.5-0.9,2.9-2.3,3.5c-0.5,0.2-0.9,0.7-0.9,1.2
				c0,0.6,0.4,1.1,0.9,1.2l0.3,0.1c3.5,0.8,5.9,3.9,5.9,7.5v1h-1.9c0.2,0.8,0.3,1.5,0.3,2.3H62c0.7,0,1.3-0.6,1.3-1.3v-2
				C63.4,47.4,61.2,43.9,57.8,42.1z"/>
			<path class="st5" d="M50.1,42.6L50.1,42.6c1.9-1.5,3-3.7,3-6.1c0-4.3-3.5-7.8-7.8-7.8c-4.3,0-7.8,3.5-7.8,7.8
				c0,2.4,1.1,4.6,3,6.1c-4.9,2-8.1,6.7-8.2,12v2.6c0,0.7,0.6,1.3,1.3,1.3h23.3c0.7,0,1.3-0.6,1.3-1.3v-2.6
				C58.2,49.3,55,44.5,50.1,42.6z M39.6,36.4c0-3.1,2.5-5.6,5.6-5.6c3.1,0,5.6,2.5,5.6,5.6c0,3.1-2.5,5.6-5.6,5.6
				C42.1,42,39.6,39.5,39.6,36.4z M56.3,56.3L56.3,56.3h-22V55c0-6.1,4.9-11,11-11c6.1,0,11,4.9,11,11V56.3z"/>
		</g>
	</g>
</g>
<g id="Layer_2">
</g>
<g id="Layer_3">
</g>
<g id="Layer_4">
</g>
</svg>
