<?xml version="1.0" encoding="utf-8"?>
<!-- Generator: Adobe Illustrator 23.0.1, SVG Export Plug-In . SVG Version: 6.00 Build 0)  -->
<svg version="1.1" xmlns="http://www.w3.org/2000/svg" xmlns:xlink="http://www.w3.org/1999/xlink" x="0px" y="0px" width="90px"
	 height="168.5px" viewBox="0 0 90 168.5" style="enable-background:new 0 0 90 168.5;" xml:space="preserve">
<style type="text/css">
	.st0{fill-rule:evenodd;clip-rule:evenodd;fill:#6A6DAA;}
	.st1{fill:#FFFFFF;stroke:#231F20;stroke-miterlimit:10;}
	.st2{fill:#FFFFFF;}
	.st3{fill:none;stroke:#231F20;stroke-miterlimit:10;}
	.st4{fill:none;stroke:#231F20;stroke-width:0.25;stroke-miterlimit:10;}
	.st5{fill:#231F20;}
	.st6{fill:#808285;}
	.st7{enable-background:new    ;}
	.st8{fill:#C0E7F1;}
	.st9{fill:#EBF7FA;}
	.st10{fill:#AED1EE;}
	.st11{fill:#6EA8DC;}
	.st12{fill:#4689AE;}
	.st13{fill:#F45245;}
	.st14{fill:#68E55E;}
	.st15{fill:#4A4A4A;}
	.st16{fill:#60B845;enable-background:new    ;}
	.st17{fill:#FBCD67;enable-background:new    ;}
	.st18{fill:#FAB828;enable-background:new    ;}
	.st19{fill:#F7831B;enable-background:new    ;}
	.st20{fill:#DF3B3E;enable-background:new    ;}
	.st21{fill:#089CDB;enable-background:new    ;}
	.st22{fill:#943A95;enable-background:new    ;}
	.st23{fill:url(#Silent_Button_2_);}
	.st24{fill:url(#Volume_Up_Button_2_);}
	.st25{fill:url(#Volume_Down_Button_2_);}
	.st26{fill:url(#Power_Button_2_);}
	.st27{fill:#000100;}
	.st28{fill:none;}
	.st29{fill:none;stroke:#FFFFFF;stroke-width:4;stroke-miterlimit:10;}
	.st30{opacity:0.801;fill:url(#Shadow_1_);enable-background:new    ;}
	.st31{opacity:0.801;fill:url(#Shadow-2_1_);enable-background:new    ;}
	.st32{opacity:0.403;fill:#ACACAC;enable-background:new    ;}
	.st33{fill:#202022;}
	.st34{fill:#133456;}
	.st35{fill:#2771BD;}
	.st36{fill:url(#Rectangle_1_);}
	.st37{fill:url(#_2_1_);}
	.st38{fill:url(#_1_1_);}
	.st39{fill:url(#_2-2_2_);}
	.st40{fill:url(#_1-2_2_);}
	.st41{fill:#AAAAAA;}
	.st42{clip-path:url(#SVGID_2_);}
	.st43{fill:url(#);}
	.st44{fill:#1F1F1F;stroke:#FFFFFF;stroke-miterlimit:10;}
	.st45{fill:#1A1A1A;stroke:#FFFFFF;stroke-miterlimit:10;}
	.st46{fill:#58595B;}
	.st47{fill:none;stroke:#939598;stroke-width:3;stroke-miterlimit:10;}
	.st48{fill:#939598;}
	.st49{fill:#F6F6F6;}
	.st50{fill:none;stroke:#808285;stroke-width:2;stroke-linecap:round;stroke-miterlimit:10;stroke-dasharray:3.008,5.0134;}
	.st51{fill:none;stroke:#231F20;stroke-width:2;stroke-linecap:round;stroke-miterlimit:10;}
	.st52{fill:none;stroke:#939598;stroke-width:2;stroke-miterlimit:10;}
	.st53{fill:none;stroke:#808285;stroke-width:2;stroke-linecap:round;stroke-miterlimit:10;stroke-dasharray:2.9721,4.9535;}
	.st54{fill:none;stroke:#808285;stroke-width:2;stroke-linecap:round;stroke-miterlimit:10;stroke-dasharray:3.0448,5.0747;}
	.st55{clip-path:url(#SVGID_8_);}
	.st56{clip-path:url(#SVGID_10_);}
	.st57{clip-path:url(#SVGID_12_);}
	.st58{clip-path:url(#SVGID_14_);}
	.st59{clip-path:url(#SVGID_16_);}
	.st60{clip-path:url(#SVGID_18_);}
	.st61{fill-rule:evenodd;clip-rule:evenodd;fill:#58595B;}
	.st62{fill:none;stroke:#808285;stroke-width:2;stroke-linecap:round;stroke-miterlimit:10;stroke-dasharray:2.9705,4.9508;}
	.st63{fill:none;stroke:#808285;stroke-width:2;stroke-linecap:round;stroke-miterlimit:10;stroke-dasharray:3.0137,5.0228;}
	.st64{fill:#2AF73C;stroke:#FFFFFF;}
	.st65{fill:none;stroke:#58595B;stroke-width:0.1;}
	.st66{fill:#6D6E71;}
</style>
<g id="Layer_1">
	<g>
		<g class="st7">
			<circle class="st49" cx="45" cy="44.6" r="42.9"/>
			
				<ellipse transform="matrix(0.9239 -0.3827 0.3827 0.9239 -13.6473 20.6168)" class="st62" cx="45" cy="44.6" rx="42.9" ry="42.9"/>
		</g>
		<g>
			<path class="st5" d="M55.7,17.3H34.3c-1.7,0-3,1.4-3,3v50.5c0,1.7,1.4,3,3,3h21.4c1.7,0,3-1.4,3-3V20.3
				C58.8,18.7,57.4,17.3,55.7,17.3z M44.8,19.3c0-0.1,0.1-0.3,0.3-0.3c0.1,0,0.3,0.1,0.3,0.3c0,0,0,0,0,0c0,0.1-0.1,0.3-0.3,0.3
				C44.9,19.6,44.8,19.4,44.8,19.3C44.8,19.3,44.8,19.3,44.8,19.3z M42.9,21.1c0-0.1,0.1-0.2,0.2-0.2h3.9c0,0,0,0,0,0
				c0.1,0,0.2,0.1,0.2,0.2v0.1l0,0c0,0.1-0.1,0.2-0.2,0.2h-3.9c-0.1,0-0.2-0.1-0.2-0.2V21.1z M40.7,20.7c0.2,0,0.4,0.2,0.4,0.4
				s-0.2,0.4-0.4,0.4c-0.2,0-0.4-0.2-0.4-0.4S40.5,20.7,40.7,20.7z M45.1,72.4c-1.1,0-2-0.9-2-2c0-1.1,0.9-2,2-2c1.1,0,2,0.9,2,2
				C47.1,71.5,46.2,72.4,45.1,72.4z M56.9,67.3H33.1c-0.1,0-0.2-0.1-0.2-0.2V24.4c0-0.1,0.1-0.2,0.2-0.2h23.8c0.1,0,0.2,0.1,0.2,0.2
				v42.7h0C57.1,67.2,57,67.3,56.9,67.3z"/>
			<path class="st5" d="M45,68.7c-1,0-1.7,0.8-1.7,1.7c0,1,0.8,1.7,1.7,1.7c0,0,0,0,0,0c1,0,1.7-0.8,1.7-1.7
				C46.8,69.4,46,68.7,45,68.7z"/>
			<path class="st5" d="M37.8,61.6h-3.1c-0.4,0-0.7,0.3-0.7,0.7v3.1c0,0.4,0.3,0.7,0.7,0.7h3.1v0c0.4,0,0.7-0.3,0.7-0.7v-3.1
				C38.6,61.9,38.2,61.6,37.8,61.6z"/>
			<path class="st5" d="M43.6,61.6h-3.1c-0.4,0-0.7,0.3-0.7,0.7v3.1c0,0.4,0.3,0.7,0.7,0.7h3.1v0c0.4,0,0.7-0.3,0.7-0.7v-3.1
				C44.4,61.9,44,61.6,43.6,61.6z"/>
			<path class="st5" d="M49.4,61.6h-3.1c-0.4,0-0.7,0.3-0.7,0.7v3.1c0,0.4,0.3,0.7,0.7,0.7h3.1v0c0.4,0,0.7-0.3,0.7-0.7v-3.1
				C50.2,61.9,49.8,61.6,49.4,61.6z"/>
			<path class="st5" d="M55.2,61.6h-3.1c-0.4,0-0.7,0.3-0.7,0.7v3.1c0,0.4,0.3,0.7,0.7,0.7h3.1v0c0.4,0,0.7-0.3,0.7-0.7v-3.1
				C56,61.9,55.6,61.6,55.2,61.6z"/>
		</g>
	</g>
</g>
<g id="Layer_2">
</g>
<g id="Layer_3">
</g>
<g id="Layer_4">
</g>
</svg>
