<?xml version="1.0" encoding="utf-8"?>
<!-- Generator: Adobe Illustrator 23.0.1, SVG Export Plug-In . SVG Version: 6.00 Build 0)  -->
<svg version="1.1" xmlns="http://www.w3.org/2000/svg" xmlns:xlink="http://www.w3.org/1999/xlink" x="0px" y="0px" width="90px"
	 height="260.2px" viewBox="0 0 90 260.2" style="enable-background:new 0 0 90 260.2;" xml:space="preserve">
<style type="text/css">
	.st0{fill-rule:evenodd;clip-rule:evenodd;fill:#6A6DAA;}
	.st1{fill:#FFFFFF;stroke:#231F20;stroke-miterlimit:10;}
	.st2{fill:#FFFFFF;}
	.st3{fill:none;stroke:#231F20;stroke-miterlimit:10;}
	.st4{fill:none;stroke:#231F20;stroke-width:0.25;stroke-miterlimit:10;}
	.st5{fill:#231F20;}
	.st6{fill:#808285;}
	.st7{enable-background:new    ;}
	.st8{fill:#C0E7F1;}
	.st9{fill:#EBF7FA;}
	.st10{fill:#AED1EE;}
	.st11{fill:#6EA8DC;}
	.st12{fill:#4689AE;}
	.st13{fill:#F45245;}
	.st14{fill:#68E55E;}
	.st15{fill:#4A4A4A;}
	.st16{fill:#60B845;enable-background:new    ;}
	.st17{fill:#FBCD67;enable-background:new    ;}
	.st18{fill:#FAB828;enable-background:new    ;}
	.st19{fill:#F7831B;enable-background:new    ;}
	.st20{fill:#DF3B3E;enable-background:new    ;}
	.st21{fill:#089CDB;enable-background:new    ;}
	.st22{fill:#943A95;enable-background:new    ;}
	.st23{fill:url(#Silent_Button_2_);}
	.st24{fill:url(#Volume_Up_Button_2_);}
	.st25{fill:url(#Volume_Down_Button_2_);}
	.st26{fill:url(#Power_Button_2_);}
	.st27{fill:#000100;}
	.st28{fill:none;}
	.st29{fill:none;stroke:#FFFFFF;stroke-width:4;stroke-miterlimit:10;}
	.st30{opacity:0.801;fill:url(#Shadow_1_);enable-background:new    ;}
	.st31{opacity:0.801;fill:url(#Shadow-2_1_);enable-background:new    ;}
	.st32{opacity:0.403;fill:#ACACAC;enable-background:new    ;}
	.st33{fill:#202022;}
	.st34{fill:#133456;}
	.st35{fill:#2771BD;}
	.st36{fill:url(#Rectangle_1_);}
	.st37{fill:url(#_2_1_);}
	.st38{fill:url(#_1_1_);}
	.st39{fill:url(#_2-2_2_);}
	.st40{fill:url(#_1-2_2_);}
	.st41{fill:#AAAAAA;}
	.st42{clip-path:url(#SVGID_2_);}
	.st43{fill:url(#);}
	.st44{fill:#1F1F1F;stroke:#FFFFFF;stroke-miterlimit:10;}
	.st45{fill:#1A1A1A;stroke:#FFFFFF;stroke-miterlimit:10;}
	.st46{fill:#58595B;}
	.st47{fill:none;stroke:#939598;stroke-width:3;stroke-miterlimit:10;}
	.st48{fill:#939598;}
	.st49{fill:#F6F6F6;}
	.st50{fill:none;stroke:#808285;stroke-width:2;stroke-linecap:round;stroke-miterlimit:10;stroke-dasharray:3.008,5.0134;}
	.st51{fill:none;stroke:#231F20;stroke-width:2;stroke-linecap:round;stroke-miterlimit:10;}
	.st52{fill:none;stroke:#939598;stroke-width:2;stroke-miterlimit:10;}
	.st53{fill:none;stroke:#808285;stroke-width:2;stroke-linecap:round;stroke-miterlimit:10;stroke-dasharray:2.9721,4.9535;}
	.st54{fill:none;stroke:#808285;stroke-width:2;stroke-linecap:round;stroke-miterlimit:10;stroke-dasharray:3.0448,5.0747;}
	.st55{clip-path:url(#SVGID_8_);}
	.st56{clip-path:url(#SVGID_10_);}
	.st57{clip-path:url(#SVGID_12_);}
	.st58{clip-path:url(#SVGID_14_);}
	.st59{clip-path:url(#SVGID_16_);}
	.st60{clip-path:url(#SVGID_18_);}
	.st61{fill-rule:evenodd;clip-rule:evenodd;fill:#58595B;}
	.st62{fill:none;stroke:#808285;stroke-width:2;stroke-linecap:round;stroke-miterlimit:10;stroke-dasharray:2.9705,4.9508;}
	.st63{fill:none;stroke:#808285;stroke-width:2;stroke-linecap:round;stroke-miterlimit:10;stroke-dasharray:3.0137,5.0228;}
	.st64{fill:#2AF73C;stroke:#FFFFFF;}
	.st65{fill:none;stroke:#58595B;stroke-width:0.1;}
	.st66{fill:#6D6E71;}
</style>
<g id="Layer_1">
	<g>
		<g>
			<line class="st47" x1="44.7" y1="44" x2="44.7" y2="248"/>
			<g>
				<polygon class="st48" points="32.4,238.1 34.6,236 44.7,246.8 54.7,236 56.9,238.1 44.7,251.2 				"/>
			</g>
		</g>
	</g>
	<g>
		<g class="st7">
			<circle class="st49" cx="44.7" cy="44.8" r="42.9"/>
			
				<ellipse transform="matrix(0.9239 -0.3827 0.3827 0.9239 -13.753 20.5001)" class="st62" cx="44.7" cy="44.8" rx="42.9" ry="42.9"/>
		</g>
		<path class="st5" d="M63.2,45.3v-3c0.5,0,0.9-0.5,0.9-1c0-0.5-0.4-0.9-0.9-1v-1.9c0-0.9-0.7-1.6-1.6-1.6h-10
			c-0.9,0-1.6,0.7-1.6,1.6v1.9c-0.4,0-0.8,0.3-0.9,0.7c-2.5-0.1-3-0.9-3.5-1.7c-0.6-0.9-1.2-1.7-3.8-1.9c-0.1-0.4-0.4-0.7-0.9-0.7
			v-1.1c0,0,0,0,0,0c0-0.9-0.7-1.6-1.6-1.6h-10c-0.9,0-1.6,0.7-1.6,1.6v1.1c-0.5,0-0.9,0.5-0.9,1c0,0.5,0.4,0.9,0.9,1v1
			c0,0.9,0.7,1.6,1.6,1.6h10c0.9,0,1.6-0.7,1.6-1.6v-1c0.4,0,0.8-0.3,0.9-0.7c2.4,0.1,2.9,0.9,3.4,1.7c0.6,0.9,1.2,1.8,3.9,1.9
			c0.1,0.4,0.4,0.7,0.9,0.7v3c-0.4,0-0.8,0.3-0.9,0.8c-1.6,0.1-2.5,0.4-2.8,0.9c-0.4,0.6-0.1,1.2,0.1,1.9c0.2,0.6,0.4,1.1,0.2,1.4
			c-0.3,0.4-1,0.6-2.3,0.7c-0.1-0.4-0.4-0.7-0.9-0.7v-1.9c0,0,0,0,0,0c0-0.9-0.7-1.6-1.6-1.6h-10c-0.9,0-1.6,0.7-1.6,1.6v1.9
			c-0.5,0-0.9,0.5-0.9,1s0.4,0.9,0.9,1V54c0,0.9,0.7,1.6,1.6,1.6h10v0c0.9,0,1.6-0.7,1.6-1.6v-1.9c0.4,0,0.8-0.3,0.9-0.7
			c1.5-0.1,2.3-0.4,2.7-0.9c0.4-0.6,0.1-1.3-0.1-1.9c-0.2-0.5-0.4-1.1-0.2-1.4c0.3-0.4,1.1-0.6,2.5-0.7c0.1,0.4,0.4,0.7,0.9,0.7v2.2
			c0,0.9,0.7,1.6,1.6,1.6h10v0c0.9,0,1.6-0.7,1.6-1.6v-2.2c0.5,0,0.9-0.5,0.9-1C64.2,45.7,63.8,45.3,63.2,45.3z M37.7,39.8
			c0,0.4-0.3,0.7-0.7,0.7h-5.2c-0.4,0-0.7-0.3-0.7-0.7v-4.1c0-0.4,0.3-0.7,0.7-0.7v0h5.2c0.4,0,0.7,0.3,0.7,0.7V39.8z M40.6,54.1
			c0,0.4-0.3,0.7-0.7,0.7H34c-0.4,0-0.7-0.3-0.7-0.7v-5.9c0-0.4,0.3-0.7,0.7-0.7h5.9c0.4,0,0.7,0.3,0.7,0.7V54.1z M60.5,49.4
			c0,0.4-0.3,0.8-0.8,0.8h-6.1c-0.4,0-0.8-0.3-0.8-0.8v-11c0-0.4,0.3-0.8,0.8-0.8h6.1c0.4,0,0.8,0.3,0.8,0.8V49.4z"/>
	</g>
</g>
<g id="Layer_2">
</g>
<g id="Layer_3">
</g>
<g id="Layer_4">
</g>
</svg>
