<?xml version="1.0" encoding="utf-8"?>
<!-- Generator: Adobe Illustrator 23.0.1, SVG Export Plug-In . SVG Version: 6.00 Build 0)  -->
<svg version="1.1" xmlns="http://www.w3.org/2000/svg" xmlns:xlink="http://www.w3.org/1999/xlink" x="0px" y="0px" width="235px"
	 height="773px" viewBox="0 0 235 773" style="enable-background:new 0 0 235 773;" xml:space="preserve">
<style type="text/css">
	.st0{fill-rule:evenodd;clip-rule:evenodd;fill:#6A6DAA;}
	.st1{fill:#FFFFFF;stroke:#231F20;stroke-miterlimit:10;}
	.st2{fill:#FFFFFF;}
	.st3{fill:none;stroke:#231F20;stroke-miterlimit:10;}
	.st4{fill:none;stroke:#231F20;stroke-width:0.25;stroke-miterlimit:10;}
	.st5{fill:#231F20;}
	.st6{fill:#808285;}
	.st7{enable-background:new    ;}
	.st8{fill:#C0E7F1;}
	.st9{fill:#EBF7FA;}
	.st10{fill:#AED1EE;}
	.st11{fill:#6EA8DC;}
	.st12{fill:#4689AE;}
	.st13{fill:#F45245;}
	.st14{fill:#68E55E;}
	.st15{fill:#4A4A4A;}
	.st16{fill:#60B845;enable-background:new    ;}
	.st17{fill:#FBCD67;enable-background:new    ;}
	.st18{fill:#FAB828;enable-background:new    ;}
	.st19{fill:#F7831B;enable-background:new    ;}
	.st20{fill:#DF3B3E;enable-background:new    ;}
	.st21{fill:#089CDB;enable-background:new    ;}
	.st22{fill:#943A95;enable-background:new    ;}
	.st23{fill:url(#Silent_Button_2_);}
	.st24{fill:url(#Volume_Up_Button_2_);}
	.st25{fill:url(#Volume_Down_Button_2_);}
	.st26{fill:url(#Power_Button_2_);}
	.st27{fill:#000100;}
	.st28{fill:none;}
	.st29{fill:none;stroke:#FFFFFF;stroke-width:4;stroke-miterlimit:10;}
	.st30{opacity:0.801;fill:url(#Shadow_1_);enable-background:new    ;}
	.st31{opacity:0.801;fill:url(#Shadow-2_1_);enable-background:new    ;}
	.st32{opacity:0.403;fill:#ACACAC;enable-background:new    ;}
	.st33{fill:#202022;}
	.st34{fill:#133456;}
	.st35{fill:#2771BD;}
	.st36{fill:url(#Rectangle_1_);}
	.st37{fill:url(#_2_1_);}
	.st38{fill:url(#_1_1_);}
	.st39{fill:url(#_2-2_2_);}
	.st40{fill:url(#_1-2_2_);}
	.st41{fill:#AAAAAA;}
	.st42{clip-path:url(#SVGID_2_);}
	.st43{fill:url(#);}
	.st44{fill:#1F1F1F;stroke:#FFFFFF;stroke-miterlimit:10;}
	.st45{fill:#1A1A1A;stroke:#FFFFFF;stroke-miterlimit:10;}
	.st46{fill:#58595B;}
	.st47{fill:none;stroke:#939598;stroke-width:3;stroke-miterlimit:10;}
	.st48{fill:#939598;}
	.st49{fill:#F6F6F6;}
	.st50{fill:none;stroke:#808285;stroke-width:2;stroke-linecap:round;stroke-miterlimit:10;stroke-dasharray:3.008,5.0134;}
	.st51{fill:none;stroke:#231F20;stroke-width:2;stroke-linecap:round;stroke-miterlimit:10;}
	.st52{fill:none;stroke:#939598;stroke-width:2;stroke-miterlimit:10;}
	.st53{fill:none;stroke:#808285;stroke-width:2;stroke-linecap:round;stroke-miterlimit:10;stroke-dasharray:2.9721,4.9535;}
	.st54{fill:none;stroke:#808285;stroke-width:2;stroke-linecap:round;stroke-miterlimit:10;stroke-dasharray:3.0448,5.0747;}
	.st55{clip-path:url(#SVGID_8_);}
	.st56{clip-path:url(#SVGID_10_);}
	.st57{clip-path:url(#SVGID_12_);}
	.st58{clip-path:url(#SVGID_14_);}
	.st59{clip-path:url(#SVGID_16_);}
	.st60{clip-path:url(#SVGID_18_);}
	.st61{fill-rule:evenodd;clip-rule:evenodd;fill:#58595B;}
	.st62{fill:none;stroke:#808285;stroke-width:2;stroke-linecap:round;stroke-miterlimit:10;stroke-dasharray:2.9705,4.9508;}
	.st63{fill:none;stroke:#808285;stroke-width:2;stroke-linecap:round;stroke-miterlimit:10;stroke-dasharray:3.0137,5.0228;}
	.st64{fill:#2AF73C;stroke:#FFFFFF;}
	.st65{fill:none;stroke:#58595B;stroke-width:0.1;}
	.st66{fill:#6D6E71;}
</style>
<g id="Layer_1">
	<g>
		<g class="st7">
			<circle class="st49" cx="117.5" cy="55.6" r="51.7"/>
			
				<ellipse transform="matrix(0.9951 -9.853780e-02 9.853780e-02 0.9951 -4.9034 11.8486)" class="st53" cx="117.5" cy="55.6" rx="51.7" ry="51.7"/>
		</g>
		<g class="st7">
			<circle class="st49" cx="117.5" cy="187.5" r="51.7"/>
			<circle class="st53" cx="117.5" cy="187.5" r="51.7"/>
		</g>
		<g class="st7">
			<circle class="st49" cx="117.5" cy="319.4" r="51.7"/>
			<circle class="st53" cx="117.5" cy="319.4" r="51.7"/>
		</g>
		<g class="st7">
			<circle class="st49" cx="117.5" cy="451.3" r="51.7"/>
			
				<ellipse transform="matrix(0.9951 -9.853781e-02 9.853781e-02 0.9951 -43.8956 13.7744)" class="st53" cx="117.5" cy="451.3" rx="51.7" ry="51.7"/>
		</g>
		<g class="st7">
			<circle class="st49" cx="117.5" cy="584.1" r="51.7"/>
			
				<ellipse transform="matrix(0.1602 -0.9871 0.9871 0.1602 -477.8465 606.4924)" class="st53" cx="117.5" cy="584.1" rx="51.7" ry="51.7"/>
		</g>
		<g class="st7">
			<circle class="st49" cx="117.5" cy="716.9" r="51.7"/>
			
				<ellipse transform="matrix(0.7071 -0.7071 0.7071 0.7071 -472.4823 293.0488)" class="st53" cx="117.5" cy="716.9" rx="51.7" ry="51.7"/>
		</g>
		<g>
			<path class="st5" d="M130.4,683.9h-25.9c-2,0-3.7,1.6-3.7,3.7v60.9c0,2,1.6,3.7,3.7,3.7h25.9c2,0,3.7-1.6,3.7-3.7v-60.9
				C134.1,685.6,132.5,683.9,130.4,683.9z M117.2,686.3c0-0.2,0.1-0.3,0.3-0.3c0.2,0,0.3,0.1,0.3,0.3c0,0,0,0,0,0
				c0,0.2-0.1,0.3-0.3,0.3C117.4,686.6,117.2,686.5,117.2,686.3C117.2,686.3,117.2,686.3,117.2,686.3z M115,688.5
				c0-0.1,0.1-0.3,0.3-0.3h4.7c0,0,0,0,0,0c0.1,0,0.2,0.1,0.2,0.3v0.1l0,0c0,0.1-0.1,0.3-0.3,0.3h-4.7c-0.1,0-0.3-0.1-0.3-0.3V688.5
				z M112.3,688c0.3,0,0.5,0.2,0.5,0.5s-0.2,0.5-0.5,0.5c-0.3,0-0.5-0.2-0.5-0.5S112,688,112.3,688z M117.6,750.4
				c-1.4,0-2.5-1.1-2.5-2.5c0-1.4,1.1-2.4,2.4-2.5c1.3,0,2.4,1.1,2.4,2.5C120,749.3,118.9,750.4,117.6,750.4z M131.9,744.2h-28.7
				c-0.1,0-0.3-0.1-0.3-0.3v-51.5c0-0.1,0.1-0.3,0.3-0.3h28.7c0.1,0,0.2,0.1,0.2,0.3V744h0C132.1,744.1,132,744.2,131.9,744.2z"/>
			<path class="st5" d="M117.6,745.9c-1.2,0-2.1,0.9-2.1,2.1c0,1.2,0.9,2.1,2.1,2.1c0,0,0,0,0,0c1.2,0,2.1-0.9,2.1-2.1
				C119.6,746.8,118.7,745.9,117.6,745.9z"/>
			<path class="st5" d="M108.8,737.3h-3.7c-0.5,0-0.9,0.4-0.9,0.9v3.7c0,0.5,0.4,0.9,0.9,0.9h3.7v0c0.5,0,0.9-0.4,0.9-0.9v-3.7
				C109.7,737.7,109.3,737.3,108.8,737.3z"/>
			<path class="st5" d="M115.8,737.3h-3.7c-0.5,0-0.9,0.4-0.9,0.9v3.7c0,0.5,0.4,0.9,0.9,0.9h3.7v0c0.5,0,0.9-0.4,0.9-0.9v-3.7
				C116.7,737.7,116.3,737.3,115.8,737.3z"/>
			<path class="st5" d="M122.8,737.3h-3.7c-0.5,0-0.9,0.4-0.9,0.9v3.7c0,0.5,0.4,0.9,0.9,0.9h3.7v0c0.5,0,0.9-0.4,0.9-0.9v-3.7
				C123.7,737.7,123.3,737.3,122.8,737.3z"/>
			<path class="st5" d="M129.9,737.3h-3.7c-0.5,0-0.9,0.4-0.9,0.9v3.7c0,0.5,0.4,0.9,0.9,0.9h3.7v0c0.5,0,0.9-0.4,0.9-0.9v-3.7
				C130.7,737.7,130.3,737.3,129.9,737.3z"/>
		</g>
		<g>
			<g id="Group_314_1_" transform="translate(9.533 4.397)">
				<path id="Path_296_1_" class="st5" d="M116.4,219.9h10.8v-52l-10.8-6.6V219.9z M122.7,174.4h2.6v1.8h-2.6V174.4z M118.5,174.4
					h2.6v1.8h-2.6L118.5,174.4z M122.7,181.5h2.6v1.8h-2.6V181.5z M118.5,185.2h2.6v1.8h-2.6L118.5,185.2z M122.7,188.8h2.6v1.8
					h-2.6V188.8z M118.5,196h2.6v1.8h-2.6V196z M122.7,199.6h2.6v1.8h-2.6L122.7,199.6z M118.5,203.3h2.6v1.8h-2.6V203.3z
					 M122.7,206.8h2.6v1.8h-2.6L122.7,206.8z M122.7,210.4h2.6v1.8h-2.6L122.7,210.4z M118.5,214.1h2.6v1.8h-2.6V214.1z"/>
			</g>
			<g id="Group_315_1_" transform="translate(3.952 5.528)">
				<path id="Path_297_1_" class="st5" d="M92.9,172.3v46.5H103v-52.6L92.9,172.3z M98.7,178.3h2.4v1.7h-2.4V178.3z M94.7,178.3h2.4
					v1.7h-2.4L94.7,178.3z M94.7,185h2.4v1.7h-2.4L94.7,185z M98.7,188.4h2.4v1.6h-2.4V188.4z M94.7,191.8h2.4v1.7h-2.4V191.8z
					 M98.7,198.5h2.4v1.7h-2.4V198.5z M94.7,201.9h2.4v1.7h-2.4V201.9z M98.6,205.4h2.4v1.7h-2.4L98.6,205.4z M94.7,208.6h2.4v1.7
					h-2.4V208.6z M94.7,212h2.4v1.7h-2.4V212z M98.6,215.5h2.4v1.7h-2.4L98.6,215.5z"/>
			</g>
			<g id="Group_316_1_" transform="translate(6.4 0.958)">
				<path id="Path_298_1_" class="st5" d="M103.2,223.3h13.9v-67.8l-13.9-8.7V223.3z M105.8,164h3.4v2.4h-3.4V164z M111.3,164.2h3.4
					v2.4h-3.4V164.2z M111.3,173.4h3.4v2.4h-3.4V173.4z M105.8,178.1h3.4v2.4h-3.4V178.1z M111.3,182.6h3.4v2.4h-3.4V182.6z
					 M105.8,192h3.4v2.4h-3.4V192z M111.3,196.7h3.4v2.4h-3.4V196.7z M105.8,201.4h3.4v2.4h-3.4V201.4z M111.3,206.1h3.4v2.4h-3.4
					V206.1z M111.3,210.7h3.4v2.4h-3.4V210.7z M105.8,215.4h3.4v2.4h-3.4V215.4z"/>
			</g>
		</g>
		<g>
			<path id="Path_301_1_" class="st5" d="M121.3,51.8h-7.6v7.6h7.6V51.8z M122.6,50.5h-10.2v10.2h10.2V50.5z M127.7,65.7h-20.2V45.4
				h20.2V65.7z"/>
			<g id="Group_318_1_" transform="translate(2.909 2.388)">
				<path id="Path_302_1_" class="st5" d="M94.1,27.7c0,1.2-1,2.1-2.1,2.1l0,0c-1.2,0-2.1-1-2.1-2.1c0-1.2,0.9-2.1,2.1-2.1
					C93.1,25.5,94.1,26.5,94.1,27.7L94.1,27.7"/>
			</g>
			<g id="Group_319_1_" transform="translate(5.179 2.388)">
				<path id="Path_303_1_" class="st5" d="M103.4,27.7c0,1.2-1,2.1-2.1,2.1l0,0c-1.2,0-2.1-1-2.1-2.1c0-1.2,0.9-2.1,2.1-2.1
					C102.4,25.5,103.4,26.5,103.4,27.7L103.4,27.7"/>
			</g>
			<g id="Group_320_1_" transform="translate(7.356 2.388)">
				<path id="Path_304_1_" class="st5" d="M112.3,27.7c0,1.2-1,2.1-2.1,2.1l0,0c-1.2,0-2.1-1-2.1-2.1c0-1.2,0.9-2.1,2.1-2.1
					C111.4,25.5,112.3,26.5,112.3,27.7L112.3,27.7"/>
			</g>
			<g id="Group_321_1_" transform="translate(9.51 2.388)">
				<path id="Path_305_1_" class="st5" d="M121.2,27.7c0,1.2-1,2.1-2.1,2.1l0,0c-1.2,0-2.1-1-2.1-2.1c0-1.2,0.9-2.1,2.1-2.1
					C120.2,25.5,121.2,26.5,121.2,27.7L121.2,27.7"/>
			</g>
			<g id="Group_322_1_" transform="translate(11.78 2.388)">
				<path id="Path_306_1_" class="st5" d="M130.5,27.7c0,1.2-1,2.1-2.1,2.1l0,0c-1.2,0-2.1-1-2.1-2.1c0-1.2,0.9-2.1,2.1-2.1
					C129.5,25.5,130.5,26.5,130.5,27.7L130.5,27.7"/>
			</g>
			<g id="Group_323_1_" transform="translate(2.909 12.394)">
				<path id="Path_307_1_" class="st5" d="M94.1,68.7c0,1.2-1,2.1-2.1,2.1l0,0c-1.2,0-2.1-1-2.1-2.1c0-1.2,0.9-2.1,2.1-2.1
					C93.1,66.6,94.1,67.5,94.1,68.7L94.1,68.7"/>
			</g>
			<g id="Group_324_1_" transform="translate(5.179 12.394)">
				<path id="Path_308_1_" class="st5" d="M103.4,68.7c0,1.2-1,2.1-2.1,2.1l0,0c-1.2,0-2.1-1-2.1-2.1c0-1.2,0.9-2.1,2.1-2.1
					C102.4,66.6,103.4,67.5,103.4,68.7L103.4,68.7"/>
			</g>
			<g id="Group_325_1_" transform="translate(7.356 12.394)">
				<path id="Path_309_1_" class="st5" d="M112.3,68.7c0,1.2-1,2.1-2.1,2.1l0,0c-1.2,0-2.1-1-2.1-2.1c0-1.2,0.9-2.1,2.1-2.1
					C111.4,66.6,112.3,67.5,112.3,68.7L112.3,68.7"/>
			</g>
			<g id="Group_326_1_" transform="translate(9.51 12.394)">
				<path id="Path_310_1_" class="st5" d="M121.2,68.7c0,1.2-1,2.1-2.1,2.1l0,0c-1.2,0-2.1-1-2.1-2.1c0-1.2,0.9-2.1,2.1-2.1
					C120.2,66.6,121.2,67.5,121.2,68.7L121.2,68.7"/>
			</g>
			<g id="Group_327_1_" transform="translate(11.78 12.394)">
				<path id="Path_311_1_" class="st5" d="M130.5,68.7c0,1.2-1,2.1-2.1,2.1l0,0c-1.2,0-2.1-1-2.1-2.1c0-1.2,0.9-2.1,2.1-2.1
					C129.5,66.6,130.5,67.5,130.5,68.7L130.5,68.7"/>
			</g>
			<g id="Group_328_1_" transform="translate(2.909 10.449)">
				<path id="Path_312_1_" class="st5" d="M94.1,60.7c0,1.2-1,2.1-2.1,2.1l0,0c-1.2,0-2.1-1-2.1-2.1c0-1.2,0.9-2.1,2.1-2.1
					C93.1,58.6,94.1,59.5,94.1,60.7L94.1,60.7"/>
			</g>
			<g id="Group_329_1_" transform="translate(11.78 10.449)">
				<path id="Path_313_1_" class="st5" d="M130.5,60.7c0,1.2-1,2.1-2.1,2.1l0,0c-1.2,0-2.1-1-2.1-2.1c0-1.2,0.9-2.1,2.1-2.1
					C129.5,58.6,130.5,59.5,130.5,60.7L130.5,60.7"/>
			</g>
			<g id="Group_330_1_" transform="translate(2.909 7.391)">
				<path id="Path_314_1_" class="st5" d="M94.1,48.2c0,1.2-1,2.1-2.1,2.1l0,0c-1.2,0-2.1-1-2.1-2.1c0-1.2,0.9-2.1,2.1-2.1
					C93.1,46.1,94.1,47,94.1,48.2L94.1,48.2"/>
			</g>
			<g id="Group_331_1_" transform="translate(11.78 7.391)">
				<path id="Path_315_1_" class="st5" d="M130.5,48.2c0,1.2-1,2.1-2.1,2.1l0,0c-1.2,0-2.1-1-2.1-2.1c0-1.2,0.9-2.1,2.1-2.1
					C129.5,46.1,130.5,47,130.5,48.2L130.5,48.2"/>
			</g>
			<g id="Group_332_1_" transform="translate(2.909 4.287)">
				<path id="Path_316_1_" class="st5" d="M94.1,35.4c0,1.2-1,2.1-2.1,2.1l0,0c-1.2,0-2.1-1-2.1-2.1c0-1.2,0.9-2.1,2.1-2.1
					C93.1,33.3,94.1,34.3,94.1,35.4L94.1,35.4"/>
			</g>
			<g id="Group_333_1_" transform="translate(11.78 4.287)">
				<path id="Path_317_1_" class="st5" d="M130.5,35.4c0,1.2-1,2.1-2.1,2.1l0,0c-1.2,0-2.1-1-2.1-2.1c0-1.2,0.9-2.1,2.1-2.1
					C129.5,33.3,130.5,34.3,130.5,35.4L130.5,35.4"/>
			</g>
			<path id="Path_318_1_" class="st5" d="M118.2,44.7h-1.4V32.8h1.4V44.7z"/>
			<g id="Group_334_1_" transform="translate(8.827 3.193)">
				<path id="Path_319_1_" class="st5" d="M115.5,41.5h-1.4v-9.1h10.2l3.6-3.6l1,1l-4,4.1h-9.4V41.5z"/>
			</g>
			<path id="Path_320_1_" class="st5" d="M129.3,36.4h-1.4v-3.5h1.4V36.4z"/>
			<g id="Group_335_1_" transform="translate(3.784 3.193)">
				<path id="Path_321_1_" class="st5" d="M108.3,41.5h-1.4v-7.7h-9.4l-4.1-4.1l1-1l3.6,3.6h10.2L108.3,41.5z"/>
			</g>
			<path id="Path_322_1_" class="st5" d="M107.1,36.4h-1.4v-3.5h1.4V36.4z"/>
			<g id="Group_336_1_" transform="translate(3.893 4.554)">
				<path id="Path_323_1_" class="st5" d="M102.8,45.6h-5.9v-9.8h-3.1v-1.4h4.5v9.8h4.5L102.8,45.6z"/>
			</g>
			<path id="Path_324_1_" class="st5" d="M106.7,56.2h-9v-1.4h9V56.2z"/>
			<g id="Group_337_1_" transform="translate(9.869 4.554)">
				<path id="Path_325_1_" class="st5" d="M124.3,45.6h-5.9v-1.4h4.5v-9.8h4.5v1.4h-3.1L124.3,45.6z"/>
			</g>
			<path id="Path_326_1_" class="st5" d="M118.2,78.1h-1.4V66.1h1.4V78.1z"/>
			<g id="Group_338_1_" transform="translate(8.827 9.881)">
				<path id="Path_327_1_" class="st5" d="M128,69l-3.6-3.6h-10.2v-9.1h1.4v7.7h9.4l4,4L128,69z"/>
			</g>
			<path id="Path_328_1_" class="st5" d="M129.3,78.1h-1.4v-3.5h1.4V78.1z"/>
			<g id="Group_339_1_" transform="translate(3.784 9.881)">
				<path id="Path_329_1_" class="st5" d="M94.4,69l-1-1l4-4h9.4v-7.7h1.4v9.1H98.1L94.4,69z"/>
			</g>
			<path id="Path_330_1_" class="st5" d="M107.1,78.1h-1.4v-3.5h1.4V78.1z"/>
			<g id="Group_340_1_" transform="translate(3.893 8.816)">
				<path id="Path_331_1_" class="st5" d="M98.4,63.1h-4.5v-1.4h3.1v-9.8h5.9v1.4h-4.5V63.1z"/>
			</g>
			<g id="Group_341_1_" transform="translate(9.869 8.816)">
				<path id="Path_332_1_" class="st5" d="M127.3,63.1h-4.5v-9.8h-4.5v-1.4h5.9v9.8h3.1L127.3,63.1z"/>
			</g>
			<path id="Path_333_1_" class="st5" d="M137.2,56.2h-9v-1.4h9V56.2z"/>
		</g>
		<g>
			<path class="st5" d="M118.8,323.6c-0.7,0.2-1.5,0.2-2.2,0l-12.6-3.9c-0.1,1.8-0.4,5.6-0.4,7.1c0,1.3,0.2,2.2,3.8,3.6
				c3.2,1.4,6.7,2,10.2,1.8c3.5,0.1,7-0.5,10.2-1.9c3.6-1.3,3.7-2.3,3.8-3.6c0-1.5-0.3-5.2-0.4-7L118.8,323.6z"/>
			<path class="st5" d="M142.7,312.3c-0.1-0.2-0.2-0.4-0.5-0.5l0,0l-24.4-7.6c-0.2-0.1-0.4-0.1-0.6,0l-24.2,7.7
				c-0.4,0.1-0.6,0.5-0.5,0.9c0.1,0.2,0.2,0.4,0.5,0.5l7.3,2.3c-1.4,2.1-2.2,4.5-2.1,7c-0.9,0.5-1.5,1.4-1.5,2.5
				c0,1,0.5,1.8,1.3,2.4l-1.2,9.3c-0.1,0.5,0.3,0.9,0.7,0.9c0,0,0.1,0,0.1,0h3.9c0.5,0,0.8-0.4,0.8-0.8c0,0,0-0.1,0-0.1l-1.2-9.4
				c0.7-0.5,1.2-1.4,1.2-2.3c0-0.9-0.5-1.8-1.3-2.3c-0.1-2.3,0.6-4.6,2.1-6.3l14.3,4.5c0.2,0.1,0.4,0.1,0.6,0l24.2-7.7
				C142.6,313.1,142.8,312.7,142.7,312.3z"/>
		</g>
		<g>
			<path class="st5" d="M106.2,583.1L106.2,583.1l0.3-0.1c0.7-0.2,1.1-0.8,1.1-1.5c0-0.7-0.4-1.2-1.1-1.4c-1.7-0.8-2.8-2.4-2.8-4.3
				c0.2-2.1,1.7-3.9,3.7-4.4c0.3-1,0.8-1.9,1.5-2.8c0.1-0.2,0.2-0.4,0.4-0.5c-0.1,0-0.2,0-0.4,0c-4.3,0-7.8,3.5-7.9,7.8
				c0,1.9,0.7,3.8,2.1,5.2c-4.2,2.1-6.8,6.4-6.8,11.1v2.4c0,0.9,0.7,1.6,1.6,1.6h2.8c0-0.9,0.1-1.9,0.3-2.8h-2v-1.2
				C99.1,587.8,102,584.1,106.2,583.1z"/>
			<path class="st5" d="M133.3,581.1L133.3,581.1c1.3-1.4,2-3.3,2-5.2c0-4.3-3.5-7.8-7.8-7.8c-0.1,0-0.2,0-0.4,0
				c0.1,0.2,0.2,0.4,0.3,0.5c0.6,0.8,1.1,1.8,1.5,2.8c2.1,0.6,3.6,2.3,3.9,4.4c0,1.8-1.1,3.5-2.8,4.3c-0.6,0.2-1,0.8-1.1,1.4
				c0,0.7,0.5,1.3,1.1,1.5l0.3,0.1c4.2,1,7.1,4.8,7.1,9.1v1.2h-2.3c0.2,0.9,0.3,1.8,0.3,2.8h2.8c0.9,0,1.6-0.7,1.6-1.6v-2.4
				C140.1,587.5,137.5,583.2,133.3,581.1z"/>
			<path class="st5" d="M124,581.6L124,581.6c2.2-1.8,3.6-4.5,3.6-7.4c0-5.2-4.2-9.4-9.4-9.4c-5.2,0-9.4,4.2-9.4,9.4
				c0,2.9,1.3,5.6,3.6,7.4c-5.9,2.4-9.8,8.1-9.8,14.5v3.1c0,0.9,0.7,1.6,1.6,1.6h28.1c0.9,0,1.6-0.7,1.6-1.6v-3.1
				C133.8,589.7,130,584,124,581.6z M111.4,574.2c0-3.7,3-6.8,6.8-6.8c3.7,0,6.8,3,6.8,6.8c0,3.7-3,6.8-6.8,6.8
				C114.5,581,111.4,577.9,111.4,574.2z M131.5,598.2L131.5,598.2h-26.5v-1.7c0-7.3,5.9-13.3,13.3-13.3c7.3,0,13.3,6,13.3,13.3
				V598.2z"/>
		</g>
		<g>
			<g>
				<path class="st52" d="M169.2,54h38.3c15.2,0,25.6,12.3,25.6,27.6v78c0,15.4-12.5,27.9-27.9,27.9h-33.8"/>
				<g>
					<polygon class="st48" points="178,179.3 179.4,180.8 172.2,187.5 179.4,194.2 178,195.6 169.2,187.5 					"/>
				</g>
			</g>
		</g>
		<g>
			<g>
				<path class="st52" d="M169.2,319.7h38.3c15.2,0,25.6,12.3,25.6,27.6v78c0,15.4-12.5,27.9-27.9,27.9h-33.8"/>
				<g>
					<polygon class="st48" points="178,445 179.4,446.4 172.2,453.1 179.4,459.9 178,461.3 169.2,453.1 					"/>
				</g>
			</g>
		</g>
		<g>
			<g>
				<path class="st52" d="M169.2,585.3h38.3c15.2,0,25.6,12.3,25.6,27.6v78c0,15.4-12.5,27.9-27.9,27.9h-33.8"/>
				<g>
					<polygon class="st48" points="178,710.6 179.4,712.1 172.2,718.8 179.4,725.5 178,727 169.2,718.8 					"/>
				</g>
			</g>
		</g>
		<g>
			<g>
				<path class="st52" d="M63.6,321H27.5c-15.2,0-25.6-12.3-25.6-27.6v-78c0-15.4,12.5-27.9,27.9-27.9h35.9"/>
				<g>
					<polygon class="st48" points="57,312.8 55.6,314.2 62.8,321 55.6,327.7 57,329.1 65.8,321 					"/>
				</g>
			</g>
		</g>
		<g>
			<g>
				<path class="st52" d="M63.6,586.6H27.5c-15.2,0-25.6-12.3-25.6-27.6v-78c0-15.4,12.5-27.9,27.9-27.9h35.9"/>
				<g>
					<polygon class="st48" points="57,578.5 55.6,579.9 62.8,586.6 55.6,593.3 57,594.8 65.8,586.6 					"/>
				</g>
			</g>
		</g>
		<path class="st5" d="M135.1,451.8v-3.6c0.6,0,1.1-0.5,1.1-1.2s-0.5-1.1-1.1-1.2v-2.3c0-1-0.8-1.9-1.9-1.9h-12.1
			c-1,0-1.9,0.8-1.9,1.9v2.3c-0.5,0-0.9,0.4-1,0.9c-3-0.2-3.6-1.1-4.2-2.1c-0.7-1-1.4-2.1-4.6-2.3c-0.1-0.5-0.5-0.8-1-0.9v-1.3
			c0,0,0,0,0,0c0-1-0.8-1.9-1.9-1.9H94.3c-1,0-1.9,0.8-1.9,1.9v1.3c-0.6,0-1.1,0.5-1.1,1.2s0.5,1.1,1.1,1.2v1.2c0,1,0.8,1.9,1.9,1.9
			h12.1c1,0,1.9-0.8,1.9-1.9v-1.2c0.5,0,0.9-0.4,1-0.9c2.9,0.2,3.5,1.1,4.1,2c0.7,1.1,1.4,2.1,4.7,2.3c0.1,0.5,0.5,0.9,1,0.9v3.6
			c-0.5,0-0.9,0.4-1.1,0.9c-1.9,0.1-3,0.4-3.4,1.1c-0.5,0.7-0.2,1.5,0.1,2.2c0.2,0.7,0.5,1.3,0.2,1.7c-0.3,0.5-1.2,0.7-2.8,0.8
			c-0.1-0.5-0.5-0.8-1-0.9v-2.3c0,0,0,0,0,0c0-1-0.8-1.9-1.9-1.9H97.3c-1,0-1.9,0.8-1.9,1.9v2.3c-0.6,0-1.1,0.5-1.1,1.2
			s0.5,1.1,1.1,1.2v2.2c0,1,0.8,1.9,1.9,1.9h12.1v0c1,0,1.9-0.8,1.9-1.9v-2.2c0.5,0,0.9-0.4,1-0.9c1.8-0.1,2.8-0.5,3.2-1.1
			c0.5-0.7,0.2-1.5-0.1-2.3c-0.2-0.7-0.5-1.3-0.2-1.7c0.3-0.5,1.3-0.7,3-0.8c0.1,0.5,0.5,0.8,1,0.8v2.6c0,1,0.8,1.9,1.9,1.9h12.1v0
			c1,0,1.9-0.8,1.9-1.9v-2.6c0.6,0,1.1-0.5,1.1-1.2S135.7,451.9,135.1,451.8z M104.3,445.2c0,0.4-0.4,0.8-0.8,0.8h-6.3
			c-0.4,0-0.8-0.4-0.8-0.8v-5c0-0.4,0.4-0.8,0.8-0.8v0h6.3c0.4,0,0.8,0.4,0.8,0.8V445.2z M107.8,462.5c0,0.5-0.4,0.9-0.9,0.9h-7.1
			c-0.5,0-0.9-0.4-0.9-0.9v-7.1c0-0.5,0.4-0.9,0.9-0.9h7.1c0.5,0,0.9,0.4,0.9,0.9V462.5z M131.7,456.8c0,0.5-0.4,0.9-0.9,0.9h-7.3
			c-0.5,0-0.9-0.4-0.9-0.9v-13.2c0-0.5,0.4-0.9,0.9-0.9h7.3c0.5,0,0.9,0.4,0.9,0.9V456.8z"/>
	</g>
</g>
<g id="Layer_2">
</g>
<g id="Layer_3">
</g>
<g id="Layer_4">
</g>
</svg>
