<?xml version="1.0" encoding="utf-8"?>
<!-- Generator: Adobe Illustrator 23.0.1, SVG Export Plug-In . SVG Version: 6.00 Build 0)  -->
<svg version="1.1" xmlns="http://www.w3.org/2000/svg" xmlns:xlink="http://www.w3.org/1999/xlink" x="0px" y="0px"
	 viewBox="0 0 200 100" style="enable-background:new 0 0 200 100;" xml:space="preserve">
<style type="text/css">
	.st0{fill-rule:evenodd;clip-rule:evenodd;fill:#6A6DAA;}
	.st1{fill:#FFFFFF;stroke:#231F20;stroke-miterlimit:10;}
	.st2{fill:#FFFFFF;}
	.st3{fill:none;stroke:#231F20;stroke-miterlimit:10;}
	.st4{fill:none;stroke:#231F20;stroke-width:0.25;stroke-miterlimit:10;}
	.st5{fill:#231F20;}
	.st6{fill:#808285;}
	.st7{enable-background:new    ;}
	.st8{fill:#C0E7F1;}
	.st9{fill:#EBF7FA;}
	.st10{fill:#AED1EE;}
	.st11{fill:#6EA8DC;}
	.st12{fill:#4689AE;}
	.st13{fill:#F45245;}
	.st14{fill:#68E55E;}
	.st15{fill:#4A4A4A;}
	.st16{fill:#60B845;enable-background:new    ;}
	.st17{fill:#FBCD67;enable-background:new    ;}
	.st18{fill:#FAB828;enable-background:new    ;}
	.st19{fill:#F7831B;enable-background:new    ;}
	.st20{fill:#DF3B3E;enable-background:new    ;}
	.st21{fill:#089CDB;enable-background:new    ;}
	.st22{fill:#943A95;enable-background:new    ;}
	.st23{fill:url(#Silent_Button_2_);}
	.st24{fill:url(#Volume_Up_Button_2_);}
	.st25{fill:url(#Volume_Down_Button_2_);}
	.st26{fill:url(#Power_Button_2_);}
	.st27{fill:#000100;}
	.st28{fill:none;}
	.st29{fill:none;stroke:#FFFFFF;stroke-width:4;stroke-miterlimit:10;}
	.st30{opacity:0.801;fill:url(#Shadow_1_);enable-background:new    ;}
	.st31{opacity:0.801;fill:url(#Shadow-2_1_);enable-background:new    ;}
	.st32{opacity:0.403;fill:#ACACAC;enable-background:new    ;}
	.st33{fill:#202022;}
	.st34{fill:#133456;}
	.st35{fill:#2771BD;}
	.st36{fill:url(#Rectangle_1_);}
	.st37{fill:url(#_2_1_);}
	.st38{fill:url(#_1_1_);}
	.st39{fill:url(#_2-2_2_);}
	.st40{fill:url(#_1-2_2_);}
	.st41{fill:#AAAAAA;}
	.st42{clip-path:url(#SVGID_2_);}
	.st43{fill:url(#);}
	.st44{fill:#1F1F1F;stroke:#FFFFFF;stroke-miterlimit:10;}
	.st45{fill:#1A1A1A;stroke:#FFFFFF;stroke-miterlimit:10;}
	.st46{fill:#58595B;}
	.st47{fill:none;stroke:#939598;stroke-width:3;stroke-miterlimit:10;}
	.st48{fill:#939598;}
	.st49{fill:#F6F6F6;}
	.st50{fill:none;stroke:#808285;stroke-width:2;stroke-linecap:round;stroke-miterlimit:10;stroke-dasharray:3.008,5.0134;}
	.st51{fill:none;stroke:#231F20;stroke-width:2;stroke-linecap:round;stroke-miterlimit:10;}
	.st52{fill:none;stroke:#939598;stroke-width:2;stroke-miterlimit:10;}
	.st53{fill:none;stroke:#808285;stroke-width:2;stroke-linecap:round;stroke-miterlimit:10;stroke-dasharray:2.9721,4.9535;}
	.st54{fill:none;stroke:#808285;stroke-width:2;stroke-linecap:round;stroke-miterlimit:10;stroke-dasharray:3.0448,5.0747;}
	.st55{clip-path:url(#SVGID_8_);}
	.st56{clip-path:url(#SVGID_10_);}
	.st57{clip-path:url(#SVGID_12_);}
	.st58{clip-path:url(#SVGID_14_);}
	.st59{clip-path:url(#SVGID_16_);}
	.st60{clip-path:url(#SVGID_18_);}
	.st61{fill-rule:evenodd;clip-rule:evenodd;fill:#58595B;}
	.st62{fill:#2AF73C;stroke:#FFFFFF;}
	.st63{fill:none;stroke:#58595B;stroke-width:0.1;}
	.st64{fill:#6D6E71;}
</style>
<g id="Layer_1">
	<g>
		<rect x="-1.2" y="5.4" class="st28" width="202.4" height="94.6"/>
		<path class="st2" d="M0.1,50.5C10.5,36.3,18.3,20.1,23.7,2l8,2.3c-2.9,8.2-6,15.9-9.3,22.9v70.8h-7.6V42
			C11.2,48.3,7.3,54,3.4,59.1C2.5,56.2,1.4,53.4,0.1,50.5z M50.8,49.3C46.5,60,41.6,71.1,36.3,82.7c-2.2-1.1-4.7-2.2-7.3-3.2
			c5.5-10.8,10.4-21.7,14.5-32.6L50.8,49.3z M81.4,40.5l6.3-15.2H46.6c-3.2,6.2-6.5,11.8-9.9,16.8c-2-1.7-4-3.4-6.1-5
			C38.1,26.4,44,14.8,48.2,2.3l7.5,2.8c-1.8,4.5-3.6,8.8-5.5,12.8h45.4V26l-7.1,17.2C85.8,42.1,83.4,41.2,81.4,40.5z M59.9,32.4h7.6
			V84c0,8.8-4,13.1-12,13c-3.6,0.1-7.9,0-12.8-0.1c-0.4-2.5-0.9-5.3-1.6-8.4c5.2,0.5,9.3,0.8,12.3,0.8c4.3,0.1,6.4-2.1,6.4-6.6V32.4
			z M82.7,46.5c4.6,9.1,9.5,19.8,14.9,31.9l-7.4,3.4c-4.2-10.4-9-21.2-14.4-32.3L82.7,46.5z"/>
		<path class="st2" d="M141.4,80.3l-5.8,6.2c-3.7-3.5-7.4-6.8-11-10c-4.9,7.4-11.3,14.2-19.4,20.5c-1.4-2-2.9-4.1-4.5-6.3
			c7.7-5.6,13.9-12,18.4-19c-5.1-4.5-10-8.6-14.7-12.5c2.3-8.3,4.5-17.9,6.4-28.9h-10.4v-7.3h11.6c1-6.4,2-13.3,3-20.6l7.9,1.1
			c-1.2,7.2-2.3,13.7-3.3,19.5h18.5v6.3c-1.5,17.7-4.7,31.3-9.6,40.7C132.9,73.2,137.1,76.7,141.4,80.3z M130.6,30.1h-12.3
			c-2.3,12.4-4.3,21.4-6,26.9c3.5,2.7,6.9,5.4,10.4,8.2C127.1,56,129.7,44.3,130.6,30.1z M138,46.1h26.9V30.9
			c6.4-5.5,12.3-10.4,17.7-14.8h-41V8.9h51.9v7.7c-7,6-14,11.9-20.8,17.7v11.8h24.8v7.1h-24.8v31.3c0,7.9-4.2,11.9-12.6,11.9
			c-2.7,0-7-0.1-12.8-0.2c-0.3-2.5-0.7-5.1-1.3-7.9c5.9,0.5,10.2,0.8,13,0.9c4,0,6-1.9,6-5.8V53.2H138V46.1z"/>
	</g>
</g>
<g id="Layer_2">
</g>
<g id="Layer_3">
</g>
</svg>
