<svg id="Design" xmlns="http://www.w3.org/2000/svg" viewBox="0 0 1920 1030"><defs><style>.cls-1,.cls-13,.cls-3,.cls-9{fill:#fff;}.cls-1,.cls-10,.cls-11,.cls-13,.cls-2,.cls-5,.cls-6,.cls-7,.cls-8,.cls-9{stroke:#939598;}.cls-1,.cls-11,.cls-13,.cls-2,.cls-6,.cls-7{stroke-miterlimit:10;}.cls-1,.cls-10,.cls-2,.cls-5,.cls-6,.cls-7,.cls-9{stroke-width:3px;}.cls-2,.cls-4{fill:#e6e6e6;}.cls-11,.cls-5,.cls-6,.cls-8{fill:none;}.cls-5{stroke-linecap:round;}.cls-10,.cls-5,.cls-8,.cls-9{stroke-linejoin:round;}.cls-10,.cls-7{fill:#f2f2f2;}.cls-10,.cls-8,.cls-9{stroke-linecap:square;}.cls-11,.cls-13{stroke-width:5px;}.cls-12{fill:#939598;}</style></defs><title>Artboard 1WHITE</title><line class="cls-1" y1="891" x2="1920" y2="891"/><path class="cls-1" d="M168.48,770.46H1311a0,0,0,0,1,0,0v79.82a25,25,0,0,1-25,25H193.5a25,25,0,0,1-25-25V770.46A0,0,0,0,1,168.48,770.46Z"/><path class="cls-2" d="M1311,770.46H168.48V114a25,25,0,0,1,25-25H1286a25,25,0,0,1,25,25Zm-44.08-632.61H213.75V727.57H1266.92Z"/><path class="cls-2" d="M904.74,992.06c-7.44-9.31-23.82-32.17-32.16-50-3.19-6.83-11.92-20.26-11.92-54.8V875.3h-243v11.92c0,34.54-8.73,48-11.92,54.8-8.34,17.87-24.72,40.73-32.17,50-4.76,6-8.56,10.74-4.76,15.48,4.76,6,29.78,6,29.78,6H879.73s25,0,29.78-6C913.3,1002.8,909.51,998,904.74,992.06Z"/><rect class="cls-3" x="1342.84" y="637" width="179.95" height="375.15" rx="22.83"/><g id="Buttons"><g id="button"><path class="cls-4" d="M1523.07,707h0a1.17,1.17,0,0,1,1.22,1.12v50.19a1.17,1.17,0,0,1-1.22,1.12h0a1.17,1.17,0,0,1-1.22-1.12V708.15A1.17,1.17,0,0,1,1523.07,707Z"/><path class="cls-5" d="M1523.07,707h0a1.17,1.17,0,0,1,1.22,1.12v50.19a1.17,1.17,0,0,1-1.22,1.12h0a1.17,1.17,0,0,1-1.22-1.12V708.15A1.17,1.17,0,0,1,1523.07,707Z"/></g><g id="button-2" data-name="button"><path class="cls-4" d="M1523.07,776.16h0a1.17,1.17,0,0,1,1.22,1.12v21.2a1.18,1.18,0,0,1-1.22,1.13h0a1.18,1.18,0,0,1-1.22-1.13v-21.2A1.17,1.17,0,0,1,1523.07,776.16Z"/><path class="cls-5" d="M1523.07,776.16h0a1.17,1.17,0,0,1,1.22,1.12v21.2a1.18,1.18,0,0,1-1.22,1.13h0a1.18,1.18,0,0,1-1.22-1.13v-21.2A1.17,1.17,0,0,1,1523.07,776.16Z"/></g></g><path class="cls-4" d="M1500,1012.15H1365.67a22.83,22.83,0,0,1-22.83-22.83V659.83A22.83,22.83,0,0,1,1365.67,637H1500a22.83,22.83,0,0,1,22.84,22.83V989.32A22.83,22.83,0,0,1,1500,1012.15Zm-16.46-366.49c-3.25,0-4.91.42-6,5s-3.26,8-9,8h-71.37c-5.7,0-7.84-3.45-9-8s-2.78-5-6-5h-19.69A13.33,13.33,0,0,0,1349.11,659V981a13.33,13.33,0,0,0,13.33,13.33h140.75A13.33,13.33,0,0,0,1516.52,981V659a13.33,13.33,0,0,0-13.33-13.33Zm-87.72,5a3.87,3.87,0,1,0,3.87-3.87A3.87,3.87,0,0,0,1395.77,650.63Zm53.79,0a3.87,3.87,0,1,0,3.87-3.87A3.87,3.87,0,0,0,1449.56,650.63Zm-10,0h0a1.92,1.92,0,0,0-1.93-1.93H1428a1.92,1.92,0,0,0-1.93,1.93h0a1.92,1.92,0,0,0,1.93,1.93h9.69A1.92,1.92,0,0,0,1439.59,650.63Zm-26.33-2.58a2.58,2.58,0,1,0,2.58,2.58A2.58,2.58,0,0,0,1413.26,648.05Zm53.11,0a2.58,2.58,0,1,0,2.58,2.58A2.58,2.58,0,0,0,1466.37,648.05Z"/><path class="cls-6" d="M1500,1012.15H1365.67a22.83,22.83,0,0,1-22.83-22.83V659.83A22.83,22.83,0,0,1,1365.67,637H1500a22.83,22.83,0,0,1,22.84,22.83V989.32A22.83,22.83,0,0,1,1500,1012.15Zm-16.46-366.49c-3.25,0-4.91.42-6,5s-3.26,8-9,8h-71.37c-5.7,0-7.84-3.45-9-8s-2.78-5-6-5h-19.69A13.33,13.33,0,0,0,1349.11,659V981a13.33,13.33,0,0,0,13.33,13.33h140.75A13.33,13.33,0,0,0,1516.52,981V659a13.33,13.33,0,0,0-13.33-13.33Zm-87.72,5a3.87,3.87,0,1,0,3.87-3.87A3.87,3.87,0,0,0,1395.77,650.63Zm53.79,0a3.87,3.87,0,1,0,3.87-3.87A3.87,3.87,0,0,0,1449.56,650.63Zm-10,0h0a1.92,1.92,0,0,0-1.93-1.93H1428a1.92,1.92,0,0,0-1.93,1.93h0a1.92,1.92,0,0,0,1.93,1.93h9.69A1.92,1.92,0,0,0,1439.59,650.63Zm-26.33-2.58a2.58,2.58,0,1,0,2.58,2.58A2.58,2.58,0,0,0,1413.26,648.05Zm53.11,0a2.58,2.58,0,1,0,2.58,2.58A2.58,2.58,0,0,0,1466.37,648.05Z"/><path class="cls-7" d="M1709.84,223.05l-3.13-3.47c11.91-10.71,18.55-19.38,26.33-34.35,7.22-13.88,5-30.74,2.7-42.23-2.73-13.67-15.82-24.38-29.8-24.38-7.79,0-15.26,1.92-22.5,3.77-6.48,1.66-12.6,3.23-18.34,3.23-12.28,0-16.4-3.75-16.82-4.18l1.65-1.65,1.6-1.7s3.33,2.87,13.57,2.87c5.15,0,11-1.5,17.18-3.09,7.17-1.83,15.28-3.92,23.66-3.92,16.12,0,31.23,12.36,34.38,28.14,2.44,12.17,4.76,30.11-3.13,45.29C1729.11,202.91,1722.21,211.92,1709.84,223.05Z"/><path class="cls-7" d="M1633.94,105.72H1649a5,5,0,0,1,5,5v9.13a5,5,0,0,1-5,5h-15.08a0,0,0,0,1,0,0V105.72A0,0,0,0,1,1633.94,105.72Z" transform="translate(404.27 -970.58) rotate(37.2)"/><rect class="cls-2" x="1570.47" y="193.6" width="65.3" height="19.11" transform="translate(340.67 -805.55) rotate(31.4)"/><rect class="cls-2" x="1608.29" y="326.75" width="322.48" height="17.87" transform="translate(1118.42 -1343.59) rotate(58.07)"/><rect class="cls-2" x="1658.67" y="665.95" width="362.59" height="17.87" transform="translate(3055.48 -862.48) rotate(108.19)"/><rect class="cls-2" x="1636.2" y="673.66" width="319.36" height="17.87" transform="translate(3004.94 -810.48) rotate(108.19)"/><rect class="cls-2" x="1591.95" y="373.43" width="322.48" height="17.87" transform="translate(1150.34 -1307.74) rotate(58.07)"/><path class="cls-7" d="M1601.33,957.67h219.72A52.93,52.93,0,0,1,1874,1010.6v3.08a0,0,0,0,1,0,0H1548.4a0,0,0,0,1,0,0v-3.08a52.93,52.93,0,0,1,52.93-52.93Z"/><path class="cls-1" d="M1791,846.87l-46.22-19.13a9.52,9.52,0,0,0-13.15,8.79v48.16a13.48,13.48,0,0,0,13.48,13.47h40.74a13.47,13.47,0,0,0,13.47-13.47V859.32A13.48,13.48,0,0,0,1791,846.87Z"/><path class="cls-1" d="M1676.81,180.74l-55.28,26a11.53,11.53,0,0,0-1.67,19.91L1670,261.54a11.54,11.54,0,0,0,18.08-8.51l5.1-60.89A11.54,11.54,0,0,0,1676.81,180.74Z"/><path class="cls-1" d="M1868.4,466.05l-2.47-.33a28.87,28.87,0,0,0-32.23,23.09l-5.86,30.56a10.77,10.77,0,0,0,6.79,12.08l41.08,15.61a10.77,10.77,0,0,0,13.28-4.84l15.45-28.09a28.86,28.86,0,0,0-9-37.69h0A62.1,62.1,0,0,0,1868.4,466.05Z"/><path class="cls-1" d="M1575.58,6.52h0a54,54,0,0,1,54,54V197.91a0,0,0,0,1,0,0h-108a0,0,0,0,1,0,0V60.54a54,54,0,0,1,54-54Z" transform="translate(382.46 -931.88) rotate(37.2)"/><path class="cls-1" d="M1510.33,357.43l-163.1-125.19a19.55,19.55,0,0,1,4.15-33.45l123.5-53.33,86.36,65.35-19.67,134A19.55,19.55,0,0,1,1510.33,357.43Z"/><rect class="cls-2" x="1752.62" y="898.16" width="26.84" height="59.52"/><rect class="cls-2" x="1789.96" y="906.33" width="22.17" height="39.68"/><rect class="cls-1" x="1779.46" y="922.66" width="10.5" height="7"/><circle class="cls-1" cx="1625.42" cy="215.48" r="6.6"/><circle class="cls-1" cx="1682.6" cy="192.14" r="6.6"/><circle class="cls-1" cx="1675.6" cy="255.16" r="6.6"/><circle class="cls-1" cx="1899.66" cy="497.89" r="6.6"/><circle class="cls-1" cx="1878.65" cy="537.56" r="6.6"/><circle class="cls-1" cx="1837.81" cy="522.39" r="6.6"/><circle class="cls-1" cx="1742.12" cy="887.65" r="6.6"/><circle class="cls-1" cx="1789.96" cy="857.31" r="6.6"/><path class="cls-8" d="M1751.28,839.6l-12.87-6.1,14,2.81-12.87-6.1,14,2.79-12.86-6.1,14,2.78-12.87-6.1,14,2.79-12.86-6.11,14,2.79-12.87-6.1,14,2.78-12.87-6.1,14,2.79-12.86-6.1,14,2.78-12.87-6.1,14,2.79-12.86-6.1,14,2.61-12.86-6.1,14,2.81-12.87-6.1,14,2.79-12.87-6.1,14,2.78-12.87-6.1,14,2.79L1753.9,787l14,2.79-12.86-6.1,14,2.78-12.87-6.1,14,2.79-12.87-6.1,14,2.78-12.87-6.1,14,2.73-12.87-6.1,14,2.79-12.87-6.1,14,2.78-12.86-6.1,14,2.79-12.87-6.11,14,2.79-12.86-6.1,14,2.79L1765,753.75l14,2.79-12.87-6.1,14,2.78-12.86-6.1,14,2.79-12.87-6.1,14,2.61-12.87-6.1,14,2.81-12.86-6.1,14,2.79-12.87-6.1,14,2.78-12.86-6.1,14,2.79-12.87-6.11,14,2.79-12.87-6.1,14,2.78-12.86-6.1,14,2.79-12.87-6.1,14,2.78-12.86-6.1,14,2.79-12.87-6.1,14,2.82"/><circle class="cls-1" cx="1744.45" cy="839.81" r="8.17"/><circle class="cls-1" cx="1787.63" cy="707.94" r="8.17"/><path class="cls-8" d="M1752.57,390.94l10.74-9.35-8.17,11.67,10.75-9.35-8.15,11.69,10.74-9.35-8.14,11.69,10.74-9.35-8.15,11.69,10.75-9.35-8.15,11.68,10.74-9.34L1768.13,405l10.74-9.34-8.15,11.68,10.74-9.34-8.14,11.68,10.74-9.34L1775.91,412l10.75-9.34-8,11.8,10.75-9.34-8.17,11.66,10.74-9.34-8.15,11.68,10.75-9.35-8.15,11.69,10.74-9.35L1789,423.77l10.74-9.35c-.16.24-8.15,11.69-8.15,11.69l10.75-9.35-8.15,11.69,10.74-9.35-8.15,11.69,10.75-9.35-8.15,11.69,10.74-9.35L1802,435.5l10.74-9.34-8.14,11.68,10.74-9.34-8.15,11.68,10.75-9.34-8.15,11.68,10.74-9.34-8.15,11.68,10.75-9.34L1815,447.2l10.74-9.35-8.14,11.69,10.74-9.35-8.15,11.69,10.75-9.35-8.15,11.69,10.74-9.35-8,11.81,10.74-9.35L1828.1,459l10.75-9.35-8.15,11.69,10.74-9.35-8.14,11.69,10.74-9.35L1835.89,466l10.74-9.35c-.16.24-8.14,11.69-8.14,11.69l10.74-9.35-8.15,11.69,10.75-9.35L1843.68,473l10.74-9.34-8.14,11.68L1857,466l-8.15,11.68,10.75-9.34L1851.43,480"/><circle class="cls-1" cx="1755.11" cy="384.6" r="8.17"/><circle class="cls-1" cx="1858.65" cy="476.97" r="8.17"/><path class="cls-1" d="M1184.7,968.94h20.41a30.88,30.88,0,0,0,30.55-26.35l2.22-15a11.12,11.12,0,0,0-11-12.75h-29.17v11.51h23.22a4.84,4.84,0,0,1,4.79,5.54l-1.17,7.86a20.67,20.67,0,0,1-20.44,17.64H1190.7Z"/><path class="cls-1" d="M1235.69,1003H1030.42a1.52,1.52,0,0,0-.49,3c7,2.28,18.8,5.17,35.47,6,19.48,1,51.26,1,67.66,1s48.18,0,67.66-1c16.66-.86,28.48-3.75,35.47-6A1.53,1.53,0,0,0,1235.69,1003Z"/><path class="cls-1" d="M1199.72,918.88c0,35.28-15,65.83-36.81,80.61a20.59,20.59,0,0,1-11.59,3.5H1115a20.6,20.6,0,0,1-11.6-3.5c-21.83-14.78-36.8-45.33-36.8-80.61q0-4.46.31-8.79a4.56,4.56,0,0,1,4.56-4.23h123.43a4.56,4.56,0,0,1,4.55,4.23Q1199.71,914.43,1199.72,918.88Z"/><path class="cls-9" d="M346.24,944.79s-26.13-36.34-27.78-46.25-2.27-18.94,9.91-28.07c13.21-9.91,34.9-12.65,33-31.38-1.65-16.52-9.61-39.64-28.08-39.64-19.82,0-36.33,1.65-77.62,13.21s-66.06,0-89.18,1.65-27.35,8.46-36.34,26.43c-9.91,19.82-16.51,21.47-28.08,19.82s-19.81-18.17-19.81-34.69a112,112,0,0,1,4.95-31.38s-5.8,37.14,8.26,51.2c11.56,11.56,18.17,8.26,24.77-1.65,5.34-8,14.87-34.68,36.34-38s47,3.16,74.32-1.66a250.21,250.21,0,0,0,47.89-13.21s-18.59-4-26.42-16.51c-8.26-13.22-11.56-31.38-8.26-47.9s14.86-38,14.86-38-9.91,23.12-8.26,44.59,11.57,41.29,29.73,47.89,51.71-6.83,79.28,1.65c21.47,6.61,26.42,23.13,33,34.69,9.26,16.21,18.05,34,6.6,49.54C389.58,880.45,368,882,364.7,898.54s31.38,46.25,31.38,46.25Z"/><path class="cls-10" d="M450.58,761.46h-8.69a31.36,31.36,0,0,0-43-12.46,23.33,23.33,0,0,0-43.91-3.64,23.29,23.29,0,0,0-33.34,19.56,34.66,34.66,0,0,0-19.66,31.23h0a34.69,34.69,0,0,0,34.69,34.68h114a34.69,34.69,0,0,0,34.69-34.68h0A34.69,34.69,0,0,0,450.58,761.46Z"/><path class="cls-10" d="M173.12,675.58h8.7a31.35,31.35,0,0,1,43-12.46,23.34,23.34,0,0,1,43.92-3.64A23.28,23.28,0,0,1,302.1,679a34.65,34.65,0,0,1,19.66,31.23h0A34.68,34.68,0,0,1,287.08,745h-114a34.68,34.68,0,0,1-34.68-34.68h0A34.69,34.69,0,0,1,173.12,675.58Z"/><path class="cls-10" d="M42,784H48.8a24.42,24.42,0,0,1,33.53-9.71,18.18,18.18,0,0,1,34.21-2.83,18.15,18.15,0,0,1,26,15.24A27,27,0,0,1,157.83,811h0a27,27,0,0,1-27,27H42a27,27,0,0,1-27-27h0A27,27,0,0,1,42,784Z"/><path class="cls-10" d="M90.54,945.61s3.31-5.61,29.73-8.42,95.79-5.62,138.73-5.62,118.91,0,147,4.22,34.68,9.82,34.68,9.82Z"/><path class="cls-9" d="M441.86,944.79H89.36a2.51,2.51,0,0,0-1.92,4.13l12.34,14.59a15.54,15.54,0,0,1,3.2,6.24l9.39,37.56a6.85,6.85,0,0,0,6.64,5.19h293.2a6.85,6.85,0,0,0,6.64-5.19l9.39-37.56a15.41,15.41,0,0,1,3.2-6.24l12.34-14.59A2.51,2.51,0,0,0,441.86,944.79Z"/><polyline class="cls-11" points="266 616 416.63 479.06 487.38 528.13 598.07 410.59 712.19 490.47 829.73 364.95 960.96 443.69 1193.95 223.01"/><polygon class="cls-12" points="1205.8 246.13 1220 198.34 1171.51 209.93 1205.8 246.13"/><circle class="cls-13" cx="830.83" cy="365.14" r="18.78"/><circle class="cls-13" cx="962.26" cy="443.37" r="18.78"/><circle class="cls-13" cx="712.96" cy="491.35" r="18.78"/><circle class="cls-13" cx="599.26" cy="412.08" r="18.78"/><circle class="cls-13" cx="487.65" cy="528.9" r="18.78"/><circle class="cls-13" cx="416.73" cy="480.92" r="18.78"/></svg>