<svg id="Diagrams" xmlns="http://www.w3.org/2000/svg" viewBox="0 0 100 100"><defs><style>.cls-1{fill:#58595b;}</style></defs><title>Artboard 13WHITE</title><path class="cls-1" d="M50,.21A49.9,49.9,0,1,0,99.9,50.1,49.9,49.9,0,0,0,50,.21ZM91.1,47.78a89,89,0,0,0-29.53-.3c-1-2.34-2.07-4.68-3.19-7,9.6-4.16,17.32-9.8,23.07-17A41,41,0,0,1,91.1,47.78Zm-16-30.28q-7.51,9.69-20.74,15.3a192.41,192.41,0,0,0-14.5-22.61A40.7,40.7,0,0,1,75.13,17.5ZM31.4,13.37A185.28,185.28,0,0,1,46.11,35.75C36,38.72,23.94,40.25,10,40.34A41.32,41.32,0,0,1,31.4,13.37ZM8.78,50.1,8.84,49q24,0,41.37-5.5c1,2,1.89,4,2.78,6Q31.91,56.09,18.33,76.44A41,41,0,0,1,8.78,50.1ZM24.7,82.58c8.19-12.84,18.64-21.2,31.6-25.06a162.84,162.84,0,0,1,8.49,31A40.87,40.87,0,0,1,24.7,82.58Zm48.18,1.79a170,170,0,0,0-8-28.68,83.09,83.09,0,0,1,25.78.81A41.28,41.28,0,0,1,72.88,84.37Z"/></svg>