<?xml version="1.0" encoding="utf-8"?>
<!-- Generator: Adobe Illustrator 23.0.1, SVG Export Plug-In . SVG Version: 6.00 Build 0)  -->
<svg version="1.1" xmlns="http://www.w3.org/2000/svg" xmlns:xlink="http://www.w3.org/1999/xlink" x="0px" y="0px"
	 viewBox="0 0 100 100" style="enable-background:new 0 0 100 100;" xml:space="preserve">
<style type="text/css">
	.st0{fill-rule:evenodd;clip-rule:evenodd;fill:#6A6DAA;}
	.st1{fill:#FFFFFF;stroke:#231F20;stroke-miterlimit:10;}
	.st2{fill:#FFFFFF;}
	.st3{fill:none;stroke:#231F20;stroke-miterlimit:10;}
	.st4{fill:none;stroke:#231F20;stroke-width:0.25;stroke-miterlimit:10;}
	.st5{fill:#231F20;}
	.st6{fill:#808285;}
	.st7{enable-background:new    ;}
	.st8{fill:#C0E7F1;}
	.st9{fill:#EBF7FA;}
	.st10{fill:#AED1EE;}
	.st11{fill:#6EA8DC;}
	.st12{fill:#4689AE;}
	.st13{fill:#F45245;}
	.st14{fill:#68E55E;}
	.st15{fill:#4A4A4A;}
	.st16{fill:#60B845;enable-background:new    ;}
	.st17{fill:#FBCD67;enable-background:new    ;}
	.st18{fill:#FAB828;enable-background:new    ;}
	.st19{fill:#F7831B;enable-background:new    ;}
	.st20{fill:#DF3B3E;enable-background:new    ;}
	.st21{fill:#089CDB;enable-background:new    ;}
	.st22{fill:#943A95;enable-background:new    ;}
	.st23{fill:url(#Silent_Button_2_);}
	.st24{fill:url(#Volume_Up_Button_2_);}
	.st25{fill:url(#Volume_Down_Button_2_);}
	.st26{fill:url(#Power_Button_2_);}
	.st27{fill:#000100;}
	.st28{fill:none;}
	.st29{fill:none;stroke:#FFFFFF;stroke-width:4;stroke-miterlimit:10;}
	.st30{opacity:0.801;fill:url(#Shadow_1_);enable-background:new    ;}
	.st31{opacity:0.801;fill:url(#Shadow-2_1_);enable-background:new    ;}
	.st32{opacity:0.403;fill:#ACACAC;enable-background:new    ;}
	.st33{fill:#202022;}
	.st34{fill:#133456;}
	.st35{fill:#2771BD;}
	.st36{fill:url(#Rectangle_1_);}
	.st37{fill:url(#_2_1_);}
	.st38{fill:url(#_1_1_);}
	.st39{fill:url(#_2-2_2_);}
	.st40{fill:url(#_1-2_2_);}
	.st41{fill:#AAAAAA;}
	.st42{clip-path:url(#SVGID_2_);}
	.st43{fill:url(#);}
	.st44{fill:#1F1F1F;stroke:#FFFFFF;stroke-miterlimit:10;}
	.st45{fill:#1A1A1A;stroke:#FFFFFF;stroke-miterlimit:10;}
	.st46{fill:#58595B;}
	.st47{fill:none;stroke:#939598;stroke-width:3;stroke-miterlimit:10;}
	.st48{fill:#939598;}
	.st49{fill:#F6F6F6;}
	.st50{fill:none;stroke:#808285;stroke-width:2;stroke-linecap:round;stroke-miterlimit:10;stroke-dasharray:3.008,5.0134;}
	.st51{fill:none;stroke:#231F20;stroke-width:2;stroke-linecap:round;stroke-miterlimit:10;}
	.st52{fill:none;stroke:#939598;stroke-width:2;stroke-miterlimit:10;}
	.st53{fill:none;stroke:#808285;stroke-width:2;stroke-linecap:round;stroke-miterlimit:10;stroke-dasharray:2.9721,4.9535;}
	.st54{fill:none;stroke:#808285;stroke-width:2;stroke-linecap:round;stroke-miterlimit:10;stroke-dasharray:3.0448,5.0747;}
	.st55{clip-path:url(#SVGID_8_);}
	.st56{clip-path:url(#SVGID_10_);}
	.st57{clip-path:url(#SVGID_12_);}
	.st58{fill-rule:evenodd;clip-rule:evenodd;fill:#58595B;}
	.st59{fill:#2AF73C;stroke:#FFFFFF;}
	.st60{fill:none;stroke:#373737;stroke-width:0.1;}
	.st61{fill:#3B3B3B;}
	.st62{fill:none;stroke:#C6C6C6;stroke-width:0.4;stroke-linecap:square;}
</style>
<g id="Layer_1">
	<path class="st58" d="M50,0C22.4,0,0,22.4,0,50c0,22.1,14.3,40.8,34.2,47.4c2.5,0.4,3.4-1.1,3.4-2.4c0-1.2-0.1-5.1-0.1-9.3
		c-12.6,2.3-15.8-3.1-16.8-5.9c-0.6-1.4-3-5.9-5.1-7.1c-1.8-0.9-4.3-3.2-0.1-3.3c3.9-0.1,6.8,3.6,7.7,5.1c4.5,7.6,11.7,5.4,14.6,4.1
		c0.4-3.3,1.8-5.4,3.2-6.7c-11.1-1.3-22.8-5.6-22.8-24.7c0-5.4,1.9-9.9,5.1-13.4c-0.5-1.3-2.3-6.4,0.5-13.3c0,0,4.2-1.3,13.8,5.1
		c4-1.1,8.3-1.7,12.5-1.7c4.2,0,8.5,0.6,12.5,1.7c9.6-6.5,13.7-5.1,13.7-5.1c2.8,6.9,1,12,0.5,13.3c3.2,3.5,5.1,7.9,5.1,13.4
		c0,19.2-11.7,23.4-22.8,24.7c1.8,1.6,3.4,4.6,3.4,9.3c0,6.7-0.1,12.1-0.1,13.8c0,1.3,0.9,2.9,3.4,2.4C85.7,90.8,100,72.1,100,50
		C100,22.4,77.6,0,50,0z"/>
</g>
<g id="Layer_2">
</g>
<g id="Layer_3">
</g>
</svg>
