<?xml version="1.0" encoding="utf-8"?>
<!-- Generator: Adobe Illustrator 23.0.1, SVG Export Plug-In . SVG Version: 6.00 Build 0)  -->
<svg version="1.1" xmlns="http://www.w3.org/2000/svg" xmlns:xlink="http://www.w3.org/1999/xlink" x="0px" y="0px"
	 viewBox="0 0 100 100" style="enable-background:new 0 0 100 100;" xml:space="preserve">
<style type="text/css">
	.st0{fill-rule:evenodd;clip-rule:evenodd;fill:#6A6DAA;}
	.st1{fill:#FFFFFF;stroke:#231F20;stroke-miterlimit:10;}
	.st2{fill:#FFFFFF;}
	.st3{fill:none;stroke:#231F20;stroke-miterlimit:10;}
	.st4{fill:none;stroke:#231F20;stroke-width:0.25;stroke-miterlimit:10;}
	.st5{fill:#231F20;}
	.st6{fill:#808285;}
	.st7{enable-background:new    ;}
	.st8{fill:#C0E7F1;}
	.st9{fill:#EBF7FA;}
	.st10{fill:#AED1EE;}
	.st11{fill:#6EA8DC;}
	.st12{fill:#4689AE;}
	.st13{fill:#F45245;}
	.st14{fill:#68E55E;}
	.st15{fill:#4A4A4A;}
	.st16{fill:#60B845;enable-background:new    ;}
	.st17{fill:#FBCD67;enable-background:new    ;}
	.st18{fill:#FAB828;enable-background:new    ;}
	.st19{fill:#F7831B;enable-background:new    ;}
	.st20{fill:#DF3B3E;enable-background:new    ;}
	.st21{fill:#089CDB;enable-background:new    ;}
	.st22{fill:#943A95;enable-background:new    ;}
	.st23{fill:url(#Silent_Button_2_);}
	.st24{fill:url(#Volume_Up_Button_2_);}
	.st25{fill:url(#Volume_Down_Button_2_);}
	.st26{fill:url(#Power_Button_2_);}
	.st27{fill:#000100;}
	.st28{fill:none;}
	.st29{fill:none;stroke:#FFFFFF;stroke-width:4;stroke-miterlimit:10;}
	.st30{opacity:0.801;fill:url(#Shadow_1_);enable-background:new    ;}
	.st31{opacity:0.801;fill:url(#Shadow-2_1_);enable-background:new    ;}
	.st32{opacity:0.403;fill:#ACACAC;enable-background:new    ;}
	.st33{fill:#202022;}
	.st34{fill:#133456;}
	.st35{fill:#2771BD;}
	.st36{fill:url(#Rectangle_1_);}
	.st37{fill:url(#_2_1_);}
	.st38{fill:url(#_1_1_);}
	.st39{fill:url(#_2-2_2_);}
	.st40{fill:url(#_1-2_2_);}
	.st41{fill:#AAAAAA;}
	.st42{clip-path:url(#SVGID_2_);}
	.st43{fill:url(#);}
	.st44{fill:#1F1F1F;stroke:#FFFFFF;stroke-miterlimit:10;}
	.st45{fill:#1A1A1A;stroke:#FFFFFF;stroke-miterlimit:10;}
	.st46{fill:#58595B;}
	.st47{fill:none;stroke:#939598;stroke-width:3;stroke-miterlimit:10;}
	.st48{fill:#939598;}
	.st49{fill:#F6F6F6;}
	.st50{fill:none;stroke:#808285;stroke-width:2;stroke-linecap:round;stroke-miterlimit:10;stroke-dasharray:3.008,5.0134;}
	.st51{fill:none;stroke:#231F20;stroke-width:2;stroke-linecap:round;stroke-miterlimit:10;}
	.st52{fill:none;stroke:#939598;stroke-width:2;stroke-miterlimit:10;}
	.st53{fill:none;stroke:#808285;stroke-width:2;stroke-linecap:round;stroke-miterlimit:10;stroke-dasharray:2.9721,4.9535;}
	.st54{fill:none;stroke:#808285;stroke-width:2;stroke-linecap:round;stroke-miterlimit:10;stroke-dasharray:3.0448,5.0747;}
	.st55{clip-path:url(#SVGID_8_);}
	.st56{clip-path:url(#SVGID_10_);}
	.st57{clip-path:url(#SVGID_12_);}
	.st58{fill-rule:evenodd;clip-rule:evenodd;fill:#58595B;}
	.st59{fill:#2AF73C;stroke:#FFFFFF;}
	.st60{fill:none;stroke:#373737;stroke-width:0.1;}
	.st61{fill:#3B3B3B;}
	.st62{fill:none;stroke:#C6C6C6;stroke-width:0.4;stroke-linecap:square;}
</style>
<g id="Layer_1">
	<g>
		<path class="st58" d="M50,24.4c-14.1,0-25.6,11.4-25.6,25.6c0,0,0,0.1,0,0.1c0,14.1,11.4,25.6,25.6,25.6c0,0,0.1,0,0.1,0
			c14.1,0,25.6-11.4,25.6-25.6c0,0,0-0.1,0-0.1C75.7,35.9,64.2,24.4,50,24.4C50.1,24.4,50,24.4,50,24.4z M50,66.7
			c-9.2,0-16.7-7.5-16.7-16.7c0-9.2,7.5-16.7,16.7-16.7c9.2,0,16.7,7.5,16.7,16.7C66.7,59.2,59.2,66.6,50,66.7z M82.7,23.3
			c0,3.3-2.7,6-6,6c-3.3,0-6-2.7-6-6s2.7-6,6-6C80,17.3,82.7,20,82.7,23.3z M99.7,29.4c-0.4-8-2.2-15.1-8.1-20.9
			c-5.8-5.8-12.9-7.7-20.9-8.1c-8.3-0.5-33-0.5-41.3,0c-8,0.4-15.1,2.2-20.9,8.1c-5.9,5.9-7.7,12.9-8.1,21c-0.5,8.3-0.5,33,0,41.3
			c0.4,8,2.2,15.1,8.1,20.9c5.9,5.8,12.9,7.7,20.9,8.1c8.3,0.5,33,0.5,41.3,0c8-0.4,15.1-2.2,20.9-8.1c5.8-5.8,7.7-12.9,8.1-20.9
			C100.1,62.4,100.1,37.6,99.7,29.4L99.7,29.4z M89,79.5c-1.7,4.3-5.2,7.8-9.5,9.5c-6.6,2.6-22.2,2-29.5,2c-7.3,0-22.9,0.6-29.5-2
			c-4.3-1.7-7.8-5.2-9.5-9.5C8.4,72.9,9,57.3,9,50s-0.6-22.9,2-29.5c1.7-4.4,5.1-7.7,9.5-9.5C27.1,8.4,42.7,9,50,9s22.9-0.6,29.5,2
			c4.4,1.7,7.7,5.1,9.5,9.5c2.6,6.6,2,22.2,2,29.5C91,57.3,91.6,72.9,89,79.5L89,79.5z"/>
	</g>
</g>
<g id="Layer_2">
</g>
<g id="Layer_3">
</g>
</svg>
