<?xml version="1.0" encoding="utf-8"?>
<!-- Generator: Adobe Illustrator 23.0.1, SVG Export Plug-In . SVG Version: 6.00 Build 0)  -->
<svg version="1.1" xmlns="http://www.w3.org/2000/svg" xmlns:xlink="http://www.w3.org/1999/xlink" x="0px" y="0px"
	 viewBox="0 0 100 100" style="enable-background:new 0 0 100 100;" xml:space="preserve">
<style type="text/css">
	.st0{fill-rule:evenodd;clip-rule:evenodd;fill:#6A6DAA;}
	.st1{fill:#FFFFFF;stroke:#231F20;stroke-miterlimit:10;}
	.st2{fill:#FFFFFF;}
	.st3{fill:none;stroke:#231F20;stroke-miterlimit:10;}
	.st4{fill:none;stroke:#231F20;stroke-width:0.25;stroke-miterlimit:10;}
	.st5{fill:#231F20;}
	.st6{fill:#808285;}
	.st7{enable-background:new    ;}
	.st8{fill:#C0E7F1;}
	.st9{fill:#EBF7FA;}
	.st10{fill:#AED1EE;}
	.st11{fill:#6EA8DC;}
	.st12{fill:#4689AE;}
	.st13{fill:#F45245;}
	.st14{fill:#68E55E;}
	.st15{fill:#4A4A4A;}
	.st16{fill:#60B845;enable-background:new    ;}
	.st17{fill:#FBCD67;enable-background:new    ;}
	.st18{fill:#FAB828;enable-background:new    ;}
	.st19{fill:#F7831B;enable-background:new    ;}
	.st20{fill:#DF3B3E;enable-background:new    ;}
	.st21{fill:#089CDB;enable-background:new    ;}
	.st22{fill:#943A95;enable-background:new    ;}
	.st23{fill:url(#Silent_Button_2_);}
	.st24{fill:url(#Volume_Up_Button_2_);}
	.st25{fill:url(#Volume_Down_Button_2_);}
	.st26{fill:url(#Power_Button_2_);}
	.st27{fill:#000100;}
	.st28{fill:none;}
	.st29{fill:none;stroke:#FFFFFF;stroke-width:4;stroke-miterlimit:10;}
	.st30{opacity:0.801;fill:url(#Shadow_1_);enable-background:new    ;}
	.st31{opacity:0.801;fill:url(#Shadow-2_1_);enable-background:new    ;}
	.st32{opacity:0.403;fill:#ACACAC;enable-background:new    ;}
	.st33{fill:#202022;}
	.st34{fill:#133456;}
	.st35{fill:#2771BD;}
	.st36{fill:url(#Rectangle_1_);}
	.st37{fill:url(#_2_1_);}
	.st38{fill:url(#_1_1_);}
	.st39{fill:url(#_2-2_2_);}
	.st40{fill:url(#_1-2_2_);}
	.st41{fill:#AAAAAA;}
	.st42{clip-path:url(#SVGID_2_);}
	.st43{fill:url(#);}
	.st44{fill:#1F1F1F;stroke:#FFFFFF;stroke-miterlimit:10;}
	.st45{fill:#1A1A1A;stroke:#FFFFFF;stroke-miterlimit:10;}
	.st46{fill:#58595B;}
	.st47{fill:none;stroke:#939598;stroke-width:3;stroke-miterlimit:10;}
	.st48{fill:#939598;}
	.st49{fill:#F6F6F6;}
	.st50{fill:none;stroke:#808285;stroke-width:2;stroke-linecap:round;stroke-miterlimit:10;stroke-dasharray:3.008,5.0134;}
	.st51{fill:none;stroke:#231F20;stroke-width:2;stroke-linecap:round;stroke-miterlimit:10;}
	.st52{fill:none;stroke:#939598;stroke-width:2;stroke-miterlimit:10;}
	.st53{fill:none;stroke:#808285;stroke-width:2;stroke-linecap:round;stroke-miterlimit:10;stroke-dasharray:2.9721,4.9535;}
	.st54{fill:none;stroke:#808285;stroke-width:2;stroke-linecap:round;stroke-miterlimit:10;stroke-dasharray:3.0448,5.0747;}
	.st55{clip-path:url(#SVGID_8_);}
	.st56{clip-path:url(#SVGID_10_);}
	.st57{clip-path:url(#SVGID_12_);}
	.st58{fill-rule:evenodd;clip-rule:evenodd;fill:#58595B;}
	.st59{fill:#2AF73C;stroke:#FFFFFF;}
	.st60{fill:none;stroke:#373737;stroke-width:0.1;}
	.st61{fill:#3B3B3B;}
	.st62{fill:none;stroke:#C6C6C6;stroke-width:0.4;stroke-linecap:square;}
</style>
<g id="Layer_1">
	<g>
		<g id="Symbols_1_">
			<g id="footer_1_" transform="translate(-355.000000, -79.000000)">
				<g id="mail_1_" transform="translate(355.000000, 79.000000)">
					<g id="email_1_">
						<path id="Shape_3_" class="st58" d="M100,36.3v40.9c0,2.3-0.9,4.1-2.7,5.9c-1.8,1.4-3.6,2.3-6.4,2.3l0,0H9.1
							c-2.3,0-4.5-0.9-6.4-2.3C0.9,81.3,0,79.4,0,77.2l0,0V36.3c1.8,1.8,3.6,3.2,5.5,4.5c13.6,8.6,22.7,14.5,27.7,17.7
							c2.3,1.4,3.6,2.7,5,3.2c1.4,0.9,3.2,1.8,5.5,2.3c2.3,0.9,4.1,1.4,6.4,1.4l0,0l0,0c1.8,0,4.1-0.5,6.4-1.4
							c2.3-0.9,4.1-1.8,5.5-2.3c1.4-0.9,3.2-1.8,5-3.2c6.4-4.1,15.5-10,27.7-17.7C96.4,39.4,98.2,37.6,100,36.3L100,36.3z
							 M90.9,12.6c2.3,0,4.5,0.9,6.4,2.3c1.8,1.8,2.7,3.6,2.7,5.9c0,2.7-0.9,5.5-2.7,7.7c-1.8,2.3-4.1,4.5-6.8,6.4
							C76.4,44,67.7,49.4,64.5,51.7c-0.5,0.5-1.4,0.9-2.3,1.4c-1.4,0.9-2.3,1.4-3.2,1.8c-0.9,0.5-1.8,0.9-2.7,1.8
							c-0.9,0.5-2.3,0.9-3.2,1.4c-0.9,0.5-1.8,0.5-2.7,0.5l0,0l0,0c-0.9,0-1.8,0-2.7-0.5s-2.3-0.9-3.2-1.4c-0.9-0.5-2.3-1.4-2.7-1.8
							c-0.9-0.5-1.8-1.4-3.2-1.8c-1.4-0.9-1.8-1.4-2.3-1.4c-3.2-2.3-8.2-5.5-14.5-9.5c-6.4-4.1-10-6.4-11.4-7.3
							c-2.3-1.4-4.5-3.6-6.4-5.9c-2.3-2.7-3.2-5-3.2-7.3c0-2.7,0.9-5,2.3-6.8s3.6-2.7,6.8-2.7l0,0h80.9V12.6z"/>
					</g>
				</g>
			</g>
		</g>
	</g>
</g>
<g id="Layer_2">
</g>
<g id="Layer_3">
</g>
</svg>
