<?xml version="1.0" encoding="utf-8"?>
<!-- Generator: Adobe Illustrator 23.0.1, SVG Export Plug-In . SVG Version: 6.00 Build 0)  -->
<svg version="1.1" id="Layer_1" xmlns="http://www.w3.org/2000/svg" xmlns:xlink="http://www.w3.org/1999/xlink" x="0px" y="0px"
	 width="256px" height="256px" viewBox="0 0 256 256" style="enable-background:new 0 0 256 256;" xml:space="preserve">
<style type="text/css">
	.st0{fill:#C4C4C4;}
</style>
<g id="share_2_">
	<g id="responsive_design">
		<g id="responsive_design_1_">
			<path class="st0" d="M66.9,91.6H38.8c-1.3,0-2.3-1.1-2.3-2.3c0-1.3,1.1-2.3,2.3-2.3H67c1.3,0,2.3,1.1,2.3,2.3
				S68.2,91.6,66.9,91.6z"/>
			<path class="st0" d="M52.8,227.8c-5.2,0-9.4,4.2-9.4,9.4s4.2,9.4,9.4,9.4s9.4-4.2,9.4-9.4C62.2,232,58,227.8,52.8,227.8z
				 M56.2,240.5c-0.9,0.9-2.1,1.4-3.3,1.4c-2.6,0-4.7-2.1-4.7-4.7c0-2.6,2.1-4.7,4.7-4.7c2.6,0,4.7,2.1,4.7,4.7
				C57.5,238.5,57.1,239.7,56.2,240.5z"/>
			<path class="st0" d="M99.8,151.4v95.2c0,2.6-2.1,4.7-4.7,4.7H10.6c-2.6,0-4.7-2.1-4.7-4.7V86.9c0-2.6,2.1-4.7,4.7-4.7h84.6
				c2.6,0,4.7,2.1,4.7,4.7v49.4l4.7-1.8V86.9c0-5.2-4.2-9.4-9.4-9.4H10.6c-5.2,0-9.4,4.2-9.4,9.4v159.7c0,5.2,4.2,9.4,9.4,9.4h84.6
				c5.2,0,9.4-4.2,9.4-9.4v-97L99.8,151.4z"/>
			<polygon class="st0" points="90.4,155.1 90.4,213.7 15.3,213.7 15.3,105.7 90.4,105.7 90.4,140 95.1,138.1 95.1,101 10.6,101 
				10.6,218.4 95.1,218.4 95.1,153.2 			"/>
			<g>
				<path class="st0" d="M28.2,25.8H10.6c-5.2,0-9.4,4.2-9.4,9.4v41.2c1.4-1.2,2.9-2.2,4.7-2.8V35.2c0-2.6,2.1-4.7,4.7-4.7h16.7
					C27.5,28.9,27.8,27.4,28.2,25.8z"/>
				<path class="st0" d="M245.4,25.8H105.7c0.4,1.5,0.7,3.1,0.9,4.7h138.9c2.6,0,4.7,2.1,4.7,4.7v150.3h-141v4.7h140.9v9.4
					c0,2.6-2.1,4.7-4.7,4.7H109.2v4.7h43.4l6.7,23.5h-50.1v4.7h70.5c2.6,0,4.7,2.1,4.7,4.7h-75.2v4.7h79.9v-4.7
					c0-5.2-4.2-9.4-9.4-9.4h-15.4l-6.7-23.5h87.9c5.2,0,9.4-4.2,9.4-9.4V35.2C254.8,30.1,250.6,25.8,245.4,25.8z"/>
				<g>
					<path class="st0" d="M27,35.2H10.6v37.6h4.7V39.9h12C27.1,38.4,27,36.8,27,35.2z"/>
					<path class="st0" d="M106.9,35.2c0,1.6-0.1,3.2-0.3,4.7h134.2v131.5H109.2v4.7h136.2V35.2H106.9z"/>
				</g>
			</g>
		</g>
	</g>
	<g id="share_1_">
		<g>
			<path class="st0" d="M66.9,70.5c-19.4,0-35.2-15.8-35.2-35.2S47.5,0,66.9,0s35.2,15.8,35.2,35.2S86.4,70.5,66.9,70.5z M66.9,4.7
				c-16.8,0-30.5,13.7-30.5,30.5s13.7,30.5,30.5,30.5S97.4,52,97.4,35.2S83.8,4.7,66.9,4.7z"/>
		</g>
		<path class="st0" d="M52.8,187.9c-14.2,0-25.8-11.6-25.8-25.8s11.6-25.8,25.8-25.8s25.8,11.6,25.8,25.8
			C78.7,176.3,67.1,187.9,52.8,187.9z M52.8,140.9c-11.7,0-21.1,9.5-21.1,21.1c0,11.7,9.5,21.1,21.1,21.1s21.2-9.4,21.2-21
			C74,150.4,64.5,140.9,52.8,140.9z"/>
		<g>
			<g>
				<path class="st0" d="M171.4,113.6l-97.7,37.8c0.7,1.4,1.3,2.8,1.7,4.4l97.7-37.8C172.5,116.6,171.9,115.2,171.4,113.6z"/>
				<path class="st0" d="M198.5,136.2c-16.8,0-30.5-13.7-30.5-30.5s13.7-30.5,30.5-30.5S229,88.9,229,105.7S215.3,136.2,198.5,136.2
					z M198.5,79.9c-14.2,0-25.8,11.6-25.8,25.8s11.6,25.8,25.8,25.8s25.8-11.6,25.8-25.8S212.7,79.9,198.5,79.9z"/>
			</g>
			<path class="st0" d="M96.9,48.6c-0.6,1.4-1.4,2.8-2.2,4.1l77.9,41.7c0.6-1.5,1.4-2.8,2.2-4.1L96.9,48.6z"/>
		</g>
	</g>
</g>
</svg>
