<?xml version="1.0" encoding="utf-8"?>
<!-- Generator: Adobe Illustrator 23.0.1, SVG Export Plug-In . SVG Version: 6.00 Build 0)  -->
<svg version="1.1" id="Layer_1" xmlns="http://www.w3.org/2000/svg" xmlns:xlink="http://www.w3.org/1999/xlink" x="0px" y="0px"
	 width="256px" height="256px" viewBox="0 0 256 256" style="enable-background:new 0 0 256 256;" xml:space="preserve">
<style type="text/css">
	.st0{fill:#C4C4C4;}
</style>
<g>
	<g id="analysis_1_">
		<g>
			<g>
				<g>
					<path class="st0" d="M32,59.4V256h224V59.4H32z M251.4,251.4H36.6V105.1h214.9v146.3H251.4z M251.4,100.6H36.6V64h214.9v36.6
						H251.4z"/>
				</g>
			</g>
			<g>
				<g>
					<path class="st0" d="M146.3,13.7V32h64V13.7H146.3z M205.7,27.4h-54.9v-9.1h54.9L205.7,27.4L205.7,27.4z"/>
				</g>
				<g>
					<path class="st0" d="M68.6,13.7V32h18.3V13.7H68.6z M82.3,27.4h-9.1v-9.1h9.1V27.4z"/>
				</g>
				<g>
					<path class="st0" d="M41.1,13.7V32h18.3V13.7H41.1z M54.9,27.4h-9.1v-9.1h9.1V27.4z"/>
				</g>
				<g>
					<path class="st0" d="M13.7,13.7V32H32V13.7H13.7z M27.4,27.4h-9.1v-9.1h9.1V27.4z"/>
				</g>
			</g>
			<g>
				<g>
					<path class="st0" d="M178.3,73.1v18.3h64V73.1H178.3z M237.7,86.9h-54.9v-9.1h54.9L237.7,86.9L237.7,86.9z"/>
				</g>
				<g>
					<path class="st0" d="M100.6,73.1v18.3h18.3V73.1H100.6z M114.3,86.9h-9.1v-9.1h9.1V86.9z"/>
				</g>
				<g>
					<path class="st0" d="M73.1,73.1v18.3h18.3V73.1H73.1z M86.9,86.9h-9.1v-9.1h9.1V86.9z"/>
				</g>
				<g>
					<path class="st0" d="M45.7,73.1v18.3H64V73.1H45.7z M59.4,86.9h-9.1v-9.1h9.1V86.9z"/>
				</g>
			</g>
		</g>
		<g>
			<g>
				<path class="st0" d="M229.9,133.3l3.3-5.7l-2.7-10.6l-10.6,2.7l-3.3,5.7l7.5-1.9L195.4,172c-1.6-1.4-3.7-2.3-6.1-2.3
					c-1.9,0-3.6,0.6-5.1,1.6l-15.4-18.6c1.3-1.6,2.2-3.6,2.2-5.9c0-5-4.1-9.1-9.1-9.1s-9.1,4.1-9.1,9.1c0,2.3,0.9,4.3,2.2,5.9
					l-23.2,40c-0.6-0.1-1.2-0.2-1.9-0.2c-1.9,0-3.6,0.6-5.1,1.6l-18.1-12.9c0.2-0.8,0.4-1.5,0.4-2.4c0-5-4.1-9.1-9.1-9.1
					s-9.1,4.1-9.1,9.1c0,1.2,0.3,2.4,0.7,3.5l-25.8,37.9c-0.7-0.2-1.5-0.3-2.3-0.3c-5,0-9.1,4.1-9.1,9.1s4.1,9.1,9.1,9.1
					s9.1-4.1,9.1-9.1c0-2.6-1.1-4.9-2.8-6.6L92.6,186c1.5,1.1,3.4,1.9,5.5,1.9c2.6,0,4.9-1.1,6.5-2.8l17.4,12.4
					c-0.6,1.2-1,2.6-1,4.1c0,5,4.1,9.1,9.1,9.1s9.1-4.1,9.1-9.1c0-2.8-1.2-5.2-3.2-6.9l22.9-39.4c1,0.4,2,0.6,3.2,0.6
					c1.1,0,2.2-0.2,3.2-0.6l16.1,19.4c-0.6,1.2-1,2.6-1,4.1c0,5,4.1,9.1,9.1,9.1s9.1-4.1,9.1-9.1c0-0.8-0.2-1.6-0.4-2.4l29.8-50.5
					L229.9,133.3z M61.4,233.6c-2.5,0-4.6-2.1-4.6-4.6s2.1-4.6,4.6-4.6s4.6,2.1,4.6,4.6C66,231.6,63.9,233.6,61.4,233.6z M98,183.3
					c-2.5,0-4.6-2.1-4.6-4.6s2.1-4.6,4.6-4.6s4.6,2.1,4.6,4.6C102.5,181.3,100.5,183.3,98,183.3z M130,206.2c-2.5,0-4.6-2.1-4.6-4.6
					s2.1-4.6,4.6-4.6s4.6,2.1,4.6,4.6C134.5,204.1,132.5,206.2,130,206.2z M157.4,146.8c0-2.5,2.1-4.6,4.6-4.6s4.6,2.1,4.6,4.6
					s-2.1,4.6-4.6,4.6S157.4,149.3,157.4,146.8z M189.4,183.3c-2.5,0-4.6-2.1-4.6-4.6s2.1-4.6,4.6-4.6s4.6,2.1,4.6,4.6
					C194,181.3,191.9,183.3,189.4,183.3z"/>
			</g>
		</g>
		<path class="st0" d="M27.4,192H4.6V45.7h214.9v9.1h4.6V0H0v196.6h27.4V192z M4.6,4.6h214.9v36.6H4.6V4.6z"/>
	</g>
</g>
</svg>
