<?xml version="1.0" encoding="utf-8"?>
<!-- Generator: Adobe Illustrator 23.0.1, SVG Export Plug-In . SVG Version: 6.00 Build 0)  -->
<svg version="1.1" id="Layer_1" xmlns="http://www.w3.org/2000/svg" xmlns:xlink="http://www.w3.org/1999/xlink" x="0px" y="0px"
	 width="256px" height="256px" viewBox="0 0 256 256" style="enable-background:new 0 0 256 256;" xml:space="preserve">
<style type="text/css">
	.st0{fill:#C4C4C4;}
</style>
<g>
	<g id="programming_3_">
		<path class="st0" d="M251.3,203.9h-94.8v4.7H99.6v-4.7H4.7c-2.6,0-4.7,2.1-4.7,4.7c0,2.6,2.1,5.2,4.6,5.8l28.8,6.4
			c5.1,1.1,13.5,2.1,18.7,2.1h151.8c5.2,0,13.6-0.9,18.7-2.1l28.8-6.4c2.6-0.6,4.6-3.1,4.6-5.8C256,206,253.9,203.9,251.3,203.9z
			 M250.3,209.7l-28.8,6.4c-4.8,1.1-12.8,1.9-17.7,1.9H52.1c-4.9,0-12.9-0.9-17.7-1.9l-28.8-6.4c-0.4-0.1-0.9-0.7-0.9-1.1h90.1v4.7
			h4.7h56.9h4.7v-4.7h90.1C251.3,209,250.7,209.6,250.3,209.7z"/>
		<path class="st0" d="M227.6,42.7H28.4c-2.6,0-4.7,2.1-4.7,4.7V109v80.6h208.6V109V47.4C232.3,44.8,230.2,42.7,227.6,42.7z
			 M227.6,184.9H28.4V109V47.4h195.2h3.9V109v75.9H227.6z"/>
		<path class="st0" d="M227.6,33.2H28.4c-7.8,0-14.2,6.4-14.2,14.2v151.7h227.6V47.4C241.8,39.6,235.4,33.2,227.6,33.2z M237,194.4
			H19v-147c0-5.2,4.2-9.5,9.5-9.5h199.1c5.2,0,9.5,4.2,9.5,9.5v147H237z"/>
		<g>
			<g>
				<g>
					<rect x="42.7" y="170.7" class="st0" width="9.5" height="4.7"/>
				</g>
				<g>
					<rect x="42.7" y="156.4" class="st0" width="9.5" height="4.7"/>
				</g>
				<g>
					<rect x="42.7" y="142.2" class="st0" width="9.5" height="4.7"/>
				</g>
				<g>
					<rect x="42.7" y="128" class="st0" width="9.5" height="4.7"/>
				</g>
				<g>
					<rect x="42.7" y="113.8" class="st0" width="9.5" height="4.7"/>
				</g>
				<g>
					<rect x="42.7" y="99.6" class="st0" width="9.5" height="4.7"/>
				</g>
				<g>
					<rect x="42.7" y="85.3" class="st0" width="9.5" height="4.7"/>
				</g>
				<g>
					<rect x="42.7" y="71.1" class="st0" width="9.5" height="4.7"/>
				</g>
				<g>
					<rect x="42.7" y="56.9" class="st0" width="9.5" height="4.7"/>
				</g>
			</g>
			<rect x="61.6" y="142.2" class="st0" width="37.9" height="4.7"/>
			<rect x="104.3" y="142.2" class="st0" width="9.5" height="4.7"/>
			<rect x="109" y="170.7" class="st0" width="47.4" height="4.7"/>
			<rect x="94.8" y="170.7" class="st0" width="9.5" height="4.7"/>
			<rect x="61.6" y="170.7" class="st0" width="28.4" height="4.7"/>
			<rect x="80.6" y="156.4" class="st0" width="37.9" height="4.7"/>
			<rect x="161.2" y="142.2" class="st0" width="37.9" height="4.7"/>
			<rect x="118.5" y="142.2" class="st0" width="37.9" height="4.7"/>
			<rect x="147" y="113.8" class="st0" width="37.9" height="4.7"/>
			<rect x="132.7" y="113.8" class="st0" width="9.5" height="4.7"/>
			<rect x="61.6" y="99.6" class="st0" width="9.5" height="4.7"/>
			<rect x="90.1" y="113.8" class="st0" width="19" height="4.7"/>
			<rect x="61.6" y="85.3" class="st0" width="19" height="4.7"/>
			<rect x="85.3" y="85.3" class="st0" width="19" height="4.7"/>
			<rect x="109" y="85.3" class="st0" width="61.6" height="4.7"/>
			<rect x="128" y="71.1" class="st0" width="19" height="4.7"/>
			<rect x="104.3" y="71.1" class="st0" width="19" height="4.7"/>
			<rect x="151.7" y="71.1" class="st0" width="9.5" height="4.7"/>
			<rect x="151.7" y="128" class="st0" width="23.7" height="4.7"/>
			<rect x="128" y="128" class="st0" width="19" height="4.7"/>
			<rect x="61.6" y="128" class="st0" width="52.1" height="4.7"/>
			<rect x="61.6" y="71.1" class="st0" width="37.9" height="4.7"/>
			<rect x="61.6" y="56.9" class="st0" width="9.5" height="4.7"/>
		</g>
	</g>
</g>
</svg>
