<?xml version="1.0" encoding="utf-8"?>
<!-- Generator: Adobe Illustrator 23.0.1, SVG Export Plug-In . SVG Version: 6.00 Build 0)  -->
<svg version="1.1" xmlns="http://www.w3.org/2000/svg" xmlns:xlink="http://www.w3.org/1999/xlink" x="0px" y="0px" width="100px"
	 height="100px" viewBox="0 0 100 100" style="enable-background:new 0 0 100 100;" xml:space="preserve">
<style type="text/css">
	.st0{fill-rule:evenodd;clip-rule:evenodd;fill:#6A6DAA;}
	.st1{fill:#FFFFFF;stroke:#231F20;stroke-miterlimit:10;}
	.st2{fill:#FFFFFF;}
	.st3{fill:none;stroke:#231F20;stroke-miterlimit:10;}
	.st4{fill:none;stroke:#231F20;stroke-width:0.25;stroke-miterlimit:10;}
	.st5{fill:#231F20;}
	.st6{fill:#808285;}
	.st7{enable-background:new    ;}
	.st8{fill:#C0E7F1;}
	.st9{fill:#EBF7FA;}
	.st10{fill:#AED1EE;}
	.st11{fill:#6EA8DC;}
	.st12{fill:#4689AE;}
	.st13{fill:#F45245;}
	.st14{fill:#68E55E;}
	.st15{fill:#4A4A4A;}
	.st16{fill:#60B845;enable-background:new    ;}
	.st17{fill:#FBCD67;enable-background:new    ;}
	.st18{fill:#FAB828;enable-background:new    ;}
	.st19{fill:#F7831B;enable-background:new    ;}
	.st20{fill:#DF3B3E;enable-background:new    ;}
	.st21{fill:#089CDB;enable-background:new    ;}
	.st22{fill:#943A95;enable-background:new    ;}
	.st23{fill:url(#Silent_Button_2_);}
	.st24{fill:url(#Volume_Up_Button_2_);}
	.st25{fill:url(#Volume_Down_Button_2_);}
	.st26{fill:url(#Power_Button_2_);}
	.st27{fill:#000100;}
	.st28{fill:none;}
	.st29{fill:none;stroke:#FFFFFF;stroke-width:4;stroke-miterlimit:10;}
	.st30{opacity:0.801;fill:url(#Shadow_1_);enable-background:new    ;}
	.st31{opacity:0.801;fill:url(#Shadow-2_1_);enable-background:new    ;}
	.st32{opacity:0.403;fill:#ACACAC;enable-background:new    ;}
	.st33{fill:#202022;}
	.st34{fill:#133456;}
	.st35{fill:#2771BD;}
	.st36{fill:url(#Rectangle_1_);}
	.st37{fill:url(#_2_1_);}
	.st38{fill:url(#_1_1_);}
	.st39{fill:url(#_2-2_2_);}
	.st40{fill:url(#_1-2_2_);}
	.st41{fill:#AAAAAA;}
	.st42{clip-path:url(#SVGID_2_);}
	.st43{fill:url(#);}
	.st44{fill:#1F1F1F;stroke:#FFFFFF;stroke-miterlimit:10;}
	.st45{fill:#1A1A1A;stroke:#FFFFFF;stroke-miterlimit:10;}
	.st46{fill:#58595B;}
	.st47{fill:none;stroke:#939598;stroke-width:3;stroke-miterlimit:10;}
	.st48{fill:#939598;}
	.st49{fill:#F6F6F6;}
	.st50{fill:none;stroke:#808285;stroke-width:2;stroke-linecap:round;stroke-miterlimit:10;stroke-dasharray:3.008,5.0134;}
	.st51{fill:none;stroke:#231F20;stroke-width:2;stroke-linecap:round;stroke-miterlimit:10;}
	.st52{fill:none;stroke:#939598;stroke-width:2;stroke-miterlimit:10;}
	.st53{fill:none;stroke:#808285;stroke-width:2;stroke-linecap:round;stroke-miterlimit:10;stroke-dasharray:2.9721,4.9535;}
	.st54{fill:none;stroke:#808285;stroke-width:2;stroke-linecap:round;stroke-miterlimit:10;stroke-dasharray:3.0448,5.0747;}
	.st55{clip-path:url(#SVGID_8_);}
	.st56{clip-path:url(#SVGID_10_);}
	.st57{clip-path:url(#SVGID_12_);}
	.st58{clip-path:url(#SVGID_14_);}
	.st59{clip-path:url(#SVGID_16_);}
	.st60{clip-path:url(#SVGID_18_);}
	.st61{fill-rule:evenodd;clip-rule:evenodd;fill:#58595B;}
	.st62{fill:none;stroke:#808285;stroke-width:2;stroke-linecap:round;stroke-miterlimit:10;stroke-dasharray:2.9705,4.9508;}
	.st63{fill:none;stroke:#808285;stroke-width:2;stroke-linecap:round;stroke-miterlimit:10;stroke-dasharray:3.0137,5.0228;}
	.st64{fill:#2AF73C;stroke:#FFFFFF;}
	.st65{fill:none;stroke:#58595B;stroke-width:0.1;}
	.st66{fill:#6D6E71;}
</style>
<g id="Layer_1">
	<g>
		<path class="st46" d="M56,53.4c-1.7,0-3.1,1.4-3,3.1c0.1,1.6,1.4,2.9,3,2.9l0,0c1.6,0,3-1.3,3-2.9C59.1,54.9,57.7,53.4,56,53.4z"
			/>
		<path class="st46" d="M26.2,30.3c-2-0.1-3.7,1.5-3.8,3.5c-0.1,2,1.5,3.7,3.5,3.7c2,0.1,3.7-1.5,3.8-3.5v0
			C29.9,32.1,28.2,30.3,26.2,30.3z"/>
		<path class="st46" d="M49.3,37.5c2.1,0,3.6-1.6,3.6-3.7c0-2-1.7-3.6-3.7-3.6c-2,0-3.7,1.7-3.6,3.7C45.6,36,47.2,37.5,49.3,37.5z"
			/>
		<path class="st46" d="M74.7,53.4c-1.6,0-2.9,1.3-3,2.9c-0.1,1.7,1.3,3.1,2.9,3.1c1.6,0,2.9-1.2,3-2.9
			C77.7,54.9,76.4,53.4,74.7,53.4z"/>
		<path class="st46" d="M85,0H15C6.7,0,0,6.7,0,15v70c0,8.3,6.7,15,15,15h70c8.3,0,15-6.7,15-15V15C100,6.7,93.3,0,85,0z M29.6,65.5
			c-1-0.1-2.2,0-3,0.5c-2.8,1.6-5.5,3.4-8.7,5.4c0.6-2.6,1-5,1.6-7.2c0.5-1.6,0.3-2.5-1.2-3.6C8.6,53.8,4.5,43.5,7.5,33
			c2.8-9.7,9.8-15.7,19.2-18.7c12.9-4.2,27.4,0.1,35.2,10.3c2.8,3.7,4.6,7.8,5,12.7c-8.1,0.4-15.1,2.9-20.8,8.4
			c-5.8,5.6-8.4,12.4-7.7,20.9C35.3,66.2,32.5,65.8,29.6,65.5z M86.4,78.8c-2.5,2.2-3.4,4-1.8,6.9c0.3,0.5,0.3,1.2,0.5,1.9
			c-2.6-1.1-4.9-2.8-7.4-3.1c-2.5-0.3-5.1,1.2-7.7,1.4c-7.9,0.8-15-1.4-20.9-6.8C38,68.8,39.6,53,52.4,44.6
			c11.4-7.5,28.2-5,36.3,5.4C95.8,59.1,95,71.2,86.4,78.8z"/>
	</g>
</g>
<g id="Layer_2">
</g>
<g id="Layer_3">
</g>
<g id="Layer_4">
</g>
</svg>
